<svg width="60" height="60" viewBox="0 0 60 60" fill="none" xmlns="http://www.w3.org/2000/svg">
<path d="M29.2925 2.70816C29.6831 2.31717 30.3169 2.31717 30.7075 2.70816L36.0726 8.07864C36.2818 8.288 36.5729 8.39397 36.8677 8.36803L44.4298 7.70267C44.9803 7.65423 45.4658 8.06157 45.5137 8.61216L46.1715 16.1748C46.1972 16.4697 46.3521 16.738 46.5946 16.9076L52.8151 21.2587C53.268 21.5755 53.3781 22.1996 53.0608 22.6521L48.7036 28.8684C48.5337 29.1107 48.4799 29.4158 48.5567 29.7016L50.5251 37.0332C50.6684 37.567 50.3515 38.1158 49.8176 38.2586L42.484 40.2197C42.1981 40.2962 41.9608 40.4953 41.8359 40.7636L38.6311 47.6452C38.3978 48.1462 37.8023 48.363 37.3015 48.1291L30.4231 44.9175C30.1549 44.7923 29.8451 44.7923 29.5769 44.9175L22.6985 48.1291C22.1977 48.363 21.6022 48.1462 21.3689 47.6452L18.1641 40.7636C18.0392 40.4953 17.8018 40.2962 17.516 40.2197L10.1824 38.2586C9.64849 38.1158 9.33164 37.567 9.47494 37.0332L11.4433 29.7016C11.5201 29.4158 11.4663 29.1107 11.2964 28.8684L6.93916 22.6521C6.62194 22.1996 6.73198 21.5755 7.18486 21.2587L13.4054 16.9076C13.6479 16.738 13.8028 16.4697 13.8285 16.1748L14.4863 8.61216C14.5342 8.06157 15.0197 7.65423 15.5702 7.70267L23.1323 8.36803C23.4271 8.39397 23.7182 8.288 23.9274 8.07864L29.2925 2.70816Z" stroke="#367ABD" stroke-width="3"/>
<path d="M17 41V56.7139C17 57.3661 17.6143 57.8438 18.2464 57.6831L29.7536 54.7571C29.9153 54.716 30.0847 54.716 30.2464 54.7571L41.7536 57.6831C42.3857 57.8438 43 57.3661 43 56.7139V41" stroke="#367ABD" stroke-width="3" stroke-linecap="round"/>
<path d="M30 18.2L38.9626 16.8212C40.1741 16.6348 41.2667 17.5721 41.2667 18.7979V32.0842C41.2667 33.0713 40.5464 33.9108 39.5708 34.0609L30 35.5333M30 18.2L21.0374 16.8212C19.8259 16.6348 18.7333 17.5721 18.7333 18.7979V32.0842C18.7333 33.0713 19.4536 33.9108 20.4292 34.0609L30 35.5333M30 18.2V35.5333" stroke="#367ABD" stroke-width="3" stroke-linecap="round"/>
</svg>
