<svg width="61" height="60" viewBox="0 0 61 60" fill="none" xmlns="http://www.w3.org/2000/svg">
<path d="M29.7925 2.70816C30.1831 2.31717 30.8169 2.31717 31.2075 2.70816L36.5726 8.07864C36.7818 8.288 37.0729 8.39397 37.3677 8.36803L44.9298 7.70267C45.4803 7.65423 45.9658 8.06157 46.0137 8.61216L46.6715 16.1748C46.6972 16.4697 46.8521 16.738 47.0946 16.9076L53.3151 21.2587C53.768 21.5755 53.8781 22.1996 53.5608 22.6521L49.2036 28.8684C49.0337 29.1107 48.9799 29.4158 49.0567 29.7016L51.0251 37.0332C51.1684 37.567 50.8515 38.1158 50.3176 38.2586L42.984 40.2197C42.6981 40.2962 42.4608 40.4953 42.3359 40.7636L39.1311 47.6452C38.8978 48.1462 38.3023 48.363 37.8015 48.1291L30.9231 44.9175C30.6549 44.7923 30.3451 44.7923 30.0769 44.9175L23.1985 48.1291C22.6977 48.363 22.1022 48.1462 21.8689 47.6452L18.6641 40.7636C18.5392 40.4953 18.3018 40.2962 18.016 40.2197L10.6824 38.2586C10.1485 38.1158 9.83164 37.567 9.97494 37.0332L11.9433 29.7016C12.0201 29.4158 11.9663 29.1107 11.7964 28.8684L7.43916 22.6521C7.12194 22.1996 7.23198 21.5755 7.68486 21.2587L13.9054 16.9076C14.1479 16.738 14.3028 16.4697 14.3285 16.1748L14.9863 8.61216C15.0342 8.06157 15.5197 7.65423 16.0702 7.70267L23.6323 8.36803C23.9271 8.39397 24.2182 8.288 24.4274 8.07864L29.7925 2.70816Z" stroke="#E99F58" stroke-width="3"/>
<path d="M17.5 41V56.7139C17.5 57.3661 18.1143 57.8438 18.7464 57.6831L30.2536 54.7571C30.4153 54.716 30.5847 54.716 30.7464 54.7571L42.2536 57.6831C42.8857 57.8438 43.5 57.3661 43.5 56.7139V41" stroke="#E99F58" stroke-width="3" stroke-linecap="round"/>
<g clip-path="url(#clip0_94_210)">
<path d="M24.5 30L29.3608 34.8981M35 35.5333L40.0333 35.5333M20.9666 33.5333L20.9666 28.542C20.9666 28.0233 21.1681 27.5249 21.5286 27.152L32.1593 16.1547C32.9207 15.367 34.1741 15.3385 34.9706 16.0907L39.8862 20.7333C40.6865 21.4891 40.7256 22.7497 39.9735 23.5536L29.3594 34.8996C28.9812 35.3039 28.4524 35.5333 27.8989 35.5333L22.9666 35.5333C21.862 35.5333 20.9666 34.6379 20.9666 33.5333Z" stroke="#E99F58" stroke-width="3" stroke-linecap="round"/>
</g>
<defs>
<clipPath id="clip0_94_210">
<rect width="26" height="26" fill="white" transform="translate(17.5 13)"/>
</clipPath>
</defs>
</svg>
