<?xml version="1.0" encoding="utf-8"?>
<!-- Generator: Adobe Illustrator 24.1.2, SVG Export Plug-In . SVG Version: 6.00 Build 0)  -->
<svg version="1.1" id="Слой_1" xmlns:svgjs="http://svgjs.com/svgjs"
	 xmlns="http://www.w3.org/2000/svg" xmlns:xlink="http://www.w3.org/1999/xlink" x="0px" y="0px" viewBox="0 0 1000 561.1"
	 style="enable-background:new 0 0 1000 561.1;" xml:space="preserve">
<style type="text/css">
	.st0{fill:#F3EBE9;}
	.st1{fill:#FFFFFF;}
	.st2{fill:none;stroke:#272727;stroke-width:4;stroke-linecap:round;stroke-linejoin:round;}
	.st3{fill:#EFDCD7;}
	.st4{opacity:0.2;fill:#808080;enable-background:new    ;}
	.st5{fill:#FFC930;}
	.st6{fill:#C9A12E;}
	.st7{fill:none;stroke:#1B1B1B;stroke-width:4;stroke-linecap:round;stroke-linejoin:round;}
	.st8{fill:none;stroke:#808080;stroke-width:4;stroke-linecap:round;stroke-linejoin:round;}
	.st9{fill:#1B1B1B;}
	.st10{fill:#61CCFF;}
	.st11{opacity:0.2;fill:#143B4E;enable-background:new    ;}
	.st12{opacity:0.2;fill:#1B1B1B;enable-background:new    ;}
	.st13{fill:none;stroke:#181818;stroke-width:4;stroke-linecap:round;stroke-linejoin:round;}
	.st14{fill:#FE4F32;}
	.st15{fill:#FDD4B4;}
	.st16{opacity:0.2;fill:#CE854D;enable-background:new    ;}
	.st17{fill:none;stroke:#CB8045;stroke-width:4;stroke-linecap:round;stroke-linejoin:round;}
	.st18{fill:#CE854D;}
	.st19{fill:#30242A;}
	.st20{fill:none;stroke:#CB8045;stroke-width:4;stroke-linecap:round;}
	.st21{opacity:0.2;enable-background:new    ;}
	.st22{fill:none;stroke:#000000;stroke-width:4;stroke-linecap:round;stroke-linejoin:round;}
	.st23{fill:none;stroke:#FFC930;stroke-width:4;stroke-linecap:round;stroke-linejoin:round;}
	.st24{fill:none;stroke:#231F21;stroke-width:4;stroke-linecap:round;stroke-linejoin:round;}
	.st25{fill:#231F20;}
	.st26{fill:#292E30;}
	.st27{opacity:0.2;fill:#BE6A29;enable-background:new    ;}
	.st28{fill:#171314;}
	.st29{fill:none;stroke:#BE6A29;stroke-width:4;stroke-linecap:round;stroke-linejoin:round;}
	.st30{opacity:0.2;fill:#181818;enable-background:new    ;}
	.st31{opacity:0.2;fill:#246787;enable-background:new    ;}
	.st32{fill:none;stroke:#267BA4;stroke-width:4;stroke-linecap:round;stroke-linejoin:round;}
	.st33{fill:none;stroke:#61CCFF;stroke-width:4;stroke-linecap:round;stroke-linejoin:round;}
	.st34{fill:#3D351E;}
	.st35{fill:none;stroke:#231F20;stroke-width:4;stroke-linecap:round;stroke-linejoin:round;}
	.st36{fill:#282626;}
	.st37{opacity:0.2;fill:#3D351E;enable-background:new    ;}
	.st38{fill:none;stroke:#FFFFFF;stroke-width:4;stroke-linecap:round;stroke-linejoin:round;}
</style>
<rect y="0.6" class="st0" width="1000" height="559.9"/>
<g>
	<path class="st1" d="M276.9,103.7h130.3c15.2,0,27.6,12.3,27.6,27.6v129.6c0,15.2-12.3,27.6-27.6,27.6H276.9
		c-15.2,0-27.6-12.3-27.6-27.6V131.2C249.3,116,261.7,103.7,276.9,103.7z"/>
	<path class="st2" d="M295.1,128.2l-21.2,21.2"/>
	<path class="st2" d="M295.1,149.4l-21.2-21.2"/>
</g>
<g>
	<path class="st1" d="M683.7,127.1H476c-11.1,0-20.2,9-20.2,20.2v133.4c0,11.1,9,20.2,20.2,20.2h207.7c11.1,0,20.2-9,20.2-20.2
		V147.3C703.9,136.2,694.8,127.1,683.7,127.1z"/>
	<path class="st3" d="M480.3,158.8c4,0,7.3-3.3,7.3-7.3c0-4-3.3-7.3-7.3-7.3c-4,0-7.3,3.3-7.3,7.3
		C473,155.6,476.2,158.8,480.3,158.8z"/>
	<path class="st3" d="M502,158.8c4,0,7.3-3.3,7.3-7.3c0-4-3.3-7.3-7.3-7.3c-4,0-7.3,3.3-7.3,7.3C494.7,155.6,498,158.8,502,158.8z"
		/>
	<path class="st3" d="M523.8,158.8c4,0,7.3-3.3,7.3-7.3c0-4-3.3-7.3-7.3-7.3c-4,0-7.3,3.3-7.3,7.3
		C516.5,155.6,519.8,158.8,523.8,158.8z"/>
</g>
<g>
	<path class="st1" d="M525.3,487.1c-3,0-5.5-2.2-6-5.1l-3.3-20.9h18.7l-3.3,20.9C530.9,484.9,528.3,487.1,525.3,487.1z"/>
	<path class="st1" d="M595.7,487.1c-3,0-5.5-2.2-6-5.1l-3.3-20.9H605l-3.3,20.9C601.3,484.9,598.7,487.1,595.7,487.1z"/>
	<path class="st1" d="M669.9,487.1c-3,0-5.5-2.2-6-5.1l-3.3-20.9h18.7l-3.3,20.9C675.5,484.9,672.9,487.1,669.9,487.1z"/>
	<path class="st4" d="M662.1,470.7l-1.5-9.6h18.7l-1.8,11.6L662.1,470.7z"/>
	<path class="st4" d="M587.9,470.7l-1.5-9.6H605l-1.8,11.6L587.9,470.7z"/>
	<path class="st4" d="M517.5,470.7l-1.5-9.6h18.7l-1.8,11.6L517.5,470.7z"/>
	<path class="st5" d="M500.1,463.6v-49.9c0-17.6,14.3-31.8,31.8-31.8h25.3v-74.8c0-10.1,8.2-18.3,18.3-18.3h102.1l-7.8,174.8H500.1z
		"/>
	<path class="st6" d="M595.4,463.6v-49.9c0-17.6,14.3-31.8,31.8-31.8h31.3v-74.8c0-10.1,8.2-18.3,18.3-18.3
		c10.1,0,18.3,8.2,18.3,18.3v156.5H595.4z"/>
	<path class="st7" d="M556.9,381.8l101.4-0.1"/>
	<path class="st8" d="M516.4,463.6h18.1"/>
	<path class="st8" d="M586.5,463.6h18.1"/>
	<path class="st8" d="M660.7,463.6h18.1"/>
</g>
<g>
	<path class="st9" d="M762,471.1c-0.5,0-0.9-0.4-0.9-0.9V211.4c0-0.5,0.4-0.9,0.9-0.9c0.5,0,0.9,0.4,0.9,0.9v258.9
		C762.8,470.7,762.4,471.1,762,471.1z"/>
	<path class="st10" d="M731.5,487L731.5,487c0-7.6,5.8-10.5,12.5-13.9c5.1-2.5,10.8-5.4,14.6-10.9l0,0h6.6l0,0
		c3.8,5.4,9.5,8.3,14.6,10.9c6.7,3.3,12.5,6.2,12.5,13.8v0.1H731.5z"/>
	<path class="st11" d="M772.4,487L772.4,487c-0.2-5.7-3.4-9.4-6.5-13.1c-3-3.6-5.8-6.9-5.8-11.6v-0.1h5.1l0,0
		c3.8,5.4,9.5,8.3,14.6,10.9c6.7,3.3,12.5,6.2,12.5,13.8v0.1H772.4z"/>
	<path class="st10" d="M801.8,176.1h-79.7V240h79.7V176.1z"/>
	<path class="st1" d="M762,211.9c7.6,0,13.7-6.1,13.7-13.7c0-7.6-6.1-13.7-13.7-13.7c-7.6,0-13.7,6.1-13.7,13.7
		C748.2,205.7,754.4,211.9,762,211.9z"/>
	<path class="st5" d="M722.1,241.3v-65.2h0.1c0,0,2.6,5.4,8.8,10.7c5.7,4.9,15.6,10.7,30.9,10.7c15.3,0,25.3-5.8,30.9-10.7
		c6.1-5.3,8.7-10.7,8.7-10.7h0.2v65.2H722.1z"/>
	<path class="st12" d="M784.2,241.3v-48.6l0,0c12.4-6.3,17.3-16.4,17.4-16.5h0.2v65.2H784.2z"/>
	<path class="st13" d="M788.8,190.3v51"/>
	<path class="st13" d="M735.1,190.3v51"/>
	<path class="st13" d="M770.9,196.9v44.4"/>
	<path class="st13" d="M753,196.9v44.4"/>
</g>
<g>
	<path class="st14" d="M405.3,150.8h-18.5l-7.1,5.7c-0.8,0.6-1.9,0.5-2.6-0.3c-0.3-0.3-0.4-0.7-0.4-1.1v-19.9
		c0-8.6,7-15.6,15.6-15.6h13c8.6,0,15.6,7,15.6,15.6C420.9,143.9,413.9,150.8,405.3,150.8z"/>
	<path class="st1" d="M398.1,141l-3.2,2.2c-0.6,0.4-1.4,0.2-1.8-0.3c-0.2-0.3-0.3-0.7-0.2-1.1l1.1-3.7c0.2-0.5,0-1-0.5-1.4l-3.1-2.4
		c-0.6-0.4-0.7-1.2-0.2-1.8c0.2-0.3,0.6-0.5,1-0.5l3.9-0.1c0.5,0,1-0.3,1.2-0.8l1.3-3.6c0.2-0.7,1-1,1.6-0.8
		c0.4,0.1,0.6,0.4,0.8,0.8l1.3,3.6c0.2,0.5,0.6,0.8,1.2,0.8l3.9,0.1c0.7,0,1.2,0.6,1.2,1.3c0,0.4-0.2,0.7-0.5,1l-3.1,2.4
		c-0.4,0.3-0.6,0.9-0.5,1.4l1.1,3.7c0.2,0.7-0.2,1.4-0.8,1.6c-0.4,0.1-0.8,0.1-1.1-0.2l-3.2-2.2C399.1,140.7,398.5,140.7,398.1,141z
		"/>
</g>
<g>
	<path class="st15" d="M351.3,215.1l-0.1-6.4c4.2,0.8,10.2,0.6,13.5-3.5c3-3.8,2.5-9.5,1.1-17.6c-0.4-1.5-0.6-3.8-0.8-6.1
		c-0.5-5.1-1.3-11.4-4-15c-4.2-5.7-11.4-8.6-20.3-8.6c-0.7,0-1.4,0-2.1,0.1c-10.2,0.6-18.3,9.5-18,19.4c0.1,4.6,0.8,13.1,1.4,23.9
		c0.2,3.3,0.8,14.4,0.8,14.4L351.3,215.1z"/>
	<path class="st16" d="M351.1,208.7l0.2,7.8l-8-10.5C347.6,208,351.1,208.7,351.1,208.7z"/>
	<path class="st17" d="M337.2,195.5l-3.7-1.6"/>
	<path class="st17" d="M351.2,208.7c-2-0.5-4.5-1.1-6.8-2.2"/>
	<path class="st17" d="M357.2,189.6l0.3,1c0.2,0.6,0,1.2-0.4,1.6l-0.1,0.1"/>
	<path class="st18" d="M358.4,196.9c-0.4,2.7-5.2,2.6-4.9-1.2L358.4,196.9z"/>
	<path class="st19" d="M350.9,188.9c-0.7,0-1.2-0.5-1.2-1.2c0-0.7,0.6-1.2,1.2-1.2s1.2,0.6,1.2,1.2
		C352.1,188.3,351.5,188.9,350.9,188.9z"/>
	<path class="st19" d="M361.4,187.6c-0.7,0-1.2-0.5-1.2-1.2c0-0.7,0.6-1.2,1.2-1.2c0.7,0,1.2,0.6,1.2,1.2
		C362.6,187.1,362,187.6,361.4,187.6z"/>
	<path class="st19" d="M323.5,163.2c-7.3,0-13.2-5.9-13.2-13.2c0-7.3,5.9-13.2,13.2-13.2c7.3,0,13.2,5.9,13.2,13.2
		C336.7,157.3,330.8,163.2,323.5,163.2z"/>
	<path class="st15" d="M392,234.5c4.2,2.6,7.1,4.6,7.1,4.6c-0.6-1.9-1.7-5.1-3-8.9c-2.8-8-6.7-18.9-8.5-26.7l-0.1-0.3
		c-0.9-3.8-1.7-7.3-0.7-8.8c0.3-0.4,0.7-0.7,1.3-0.7c0.1,0,0.1,0,0.1,0c1,0,2.2,1,3.3,2.3c0.5-1.7,1-3.4,1.3-4.3
		c0.7-3.2,2.9-5.6,4.2-5.9c0.4-0.1,0.8-0.1,1.1-0.1c2.7,0,4.2,2.4,4.2,2.4c0,0,1-0.9,2.6-0.9c1.3,0,2.7,0.6,4,1.8
		c0,0,0.8-0.2,1.7-0.2c1.4,0,3.4,0.5,4.5,2.8c0,0,0.1-0.1,0.4-0.1c0.7,0,2.2,0.5,3.7,3.4c1.6,3,3.3,8.1,1.2,9.6
		c-0.2,0.2-0.6,0.3-1.1,0.3c-0.4,0-0.9-0.1-1.3-0.2c-0.1,3.2-2.4,6-2.4,6c4.7,6.3,9.3,15.3,12.3,23.9c9.2,23.3-1.6,32.2-7.2,34.9
		c-15.6,6-34.4-3-42.5-6.9L392,234.5z"/>
	<path class="st17" d="M397.3,194c0,0,0.7,4.2,3.5,5.2c0.6,0.2,1.2,0.3,1.8,0.3c0.9,0,1.4-0.3,1.4-0.3c0,0,1.4,2.6,3.9,2.6
		c0.1,0,0.3,0,0.4,0c1.7-0.2,2-1.1,2-1.2c0,0.1,0.3,2.6,3.5,3.2c0.1,0,0.3,0,0.4,0c1.3,0,1.9-1.2,1.9-1.2c0.6,1.4,2.1,2,3.3,2
		c0.5,0,0.9-0.1,1.1-0.3"/>
	<path class="st20" d="M399.3,207.4c0.9,0.1,5.9,0.7,7.8,5"/>
	<path class="st17" d="M398.8,238.4l3.4,9"/>
	<path class="st10" d="M286.5,255.3c1.9-5.8,6.7-20.9,13.9-29.8c0.4-0.5,0.9-1,1.4-1.5c7.5-7.9,19.3-9,19.3-9l0.2-3.2l29.9-0.1
		l0.3,3.2c5.7,0.3,11.2,1.4,19.4,6c6.5,3.6,13.7,8.4,21.6,13.7l-13.8,27.8c-4.4-2.1-7.1-3.9-7.1-3.9l3.3,29.6h-59.8l-5.9-28.1
		l-2.4-0.5L286.5,255.3z"/>
	<path class="st21" d="M370.6,249.4l5.9,12.1c-3.1-1.6-4.9-2.8-4.9-2.8L370.6,249.4z"/>
	<path class="st5" d="M371.8,237.8l-3,5.7c-0.7,1.3-2.6,1-2.8-0.5l-0.9-6.9c-0.1-0.8-0.9-1.4-1.7-1.3l-7.3,1
		c-1.4,0.2-2.3-1.6-1.2-2.6l4.7-4.5c0.6-0.6,0.6-1.6,0-2.2l-4.7-4.2c-1.1-1-0.2-2.8,1.2-2.6l6.8,0.9c0.9,0.1,1.7-0.6,1.7-1.5v-1
		c1.9,0.8,4.1,1.8,6.4,3.1c4.3,2.4,9,5.4,13.9,8.6l-4.6,1.5c-0.8,0.2-1.2,1-1,1.9l1.8,6.4c0.4,1.4-1.3,2.5-2.4,1.6l-4.6-3.7
		C373.3,236.7,372.2,236.9,371.8,237.8z"/>
	<path class="st5" d="M331.2,253.3l-3.4,6.5c-0.6,1.2,0.7,2.5,1.9,1.9l6.1-3.1c0.8-0.4,1.8,0,2,0.9l1.8,6.1c0.4,1.3,2.2,1.3,2.7,0.1
		l2.3-6.7c0.2-0.7,1-1.1,1.7-0.9l7.3,2.2c1.3,0.4,2.4-1.1,1.5-2.2l-4.9-6.4c-0.5-0.6-0.4-1.6,0.3-2l4.8-3.3c1.1-0.7,0.7-2.4-0.7-2.6
		l-7.1-0.8c-0.7-0.1-1.3-0.7-1.3-1.4l-0.1-6.5c0-1.4-1.8-1.9-2.6-0.8l-3.2,4.8c-0.5,0.7-1.6,0.8-2.2,0.2l-4.8-5.1
		c-1-1-2.6-0.2-2.4,1.2l1.2,7.2c0.1,0.8-0.4,1.5-1.2,1.6l-6.9,1c-1.3,0.2-1.6,2-0.4,2.7l6.9,3.6
		C331.3,251.8,331.6,252.6,331.2,253.3z"/>
	<path class="st5" d="M359.5,285.1l-5.9-1.7c-1.1-0.3-1.2-1.9,0-2.3l7.5-2.4c0.6-0.2,0.9-0.8,0.8-1.4l-1.6-8.4
		c-0.2-1.1,1.1-1.9,2-1.1l5.6,5.1c0.5,0.5,1.3,0.4,1.7-0.1l3-3.7l2.1,19.3h-16l1.2-1.3C360.6,286.4,360.3,285.3,359.5,285.1z"/>
	<path class="st5" d="M300.4,225.5c0.4-0.5,0.9-1,1.4-1.5c0.3-0.3,0.6-0.6,0.8-0.8l0.3,0.2l0.3-0.6c0.1-0.1,0.2-0.3,0.3-0.4
		c2.2-1.9,4.5-3.3,6.8-4.3l0.6,5.1c0.1,0.7,0.7,1.3,1.5,1.2l7.1-0.5c1.3-0.1,2,1.6,1,2.5l-4.7,3.9c-0.7,0.6-0.7,1.8,0.2,2.3l5.1,3.2
		c1.2,0.7,0.7,2.5-0.7,2.6l-8,0.5c-0.7,0-1.3,0.6-1.3,1.3l-0.6,9.2c-0.1,1.4-2,1.8-2.6,0.5l-3.6-7c-0.4-0.7-1.3-1-2-0.5l-5.2,3.3
		c-1.1,0.7-2.5-0.4-2.1-1.6l2.1-6.2c0.3-0.8-0.2-1.7-1.1-1.8l-1.9-0.4C296,232,298.1,228.4,300.4,225.5z"/>
	<path class="st22" d="M370.4,247.4l1.2,11.2"/>
	<path class="st20" d="M415.2,191.5c0.8,2.9,1.5,6.9,0.9,11.1"/>
	<path class="st20" d="M409,188.9c0.8,2.3,1.9,5.8,1.4,11.7"/>
	<path class="st20" d="M402.4,188.1c0.3,2.2,1.6,6.2,1.6,11.1"/>
	<path class="st17" d="M395.9,203.2c0,0-1.1-2.4-2.6-4.8c-1.4-2.2-3.4-4.8-5-4.8c-0.1,0-0.1,0-0.1,0"/>
	<path class="st15" d="M321.9,291.5c5.7-4.3,9.6-8.3,9.6-8.3h0c0.5,0,5.5-0.1,11.4-4.1c0,0,0,0,0,0c0.4,0,4.4,0,8.4-0.4
		c3.9-0.4,8.6-1.2,8.9-2.9c0.1-0.3,0-0.5-0.2-0.7c-1-1.3-5.7-1.9-9.1-2.2c-0.7-0.1-1.3-0.1-1.8-0.2c0.1,0,11-2.1,14.6-5
		c1-0.7,1.5-2,1.4-3.1c-0.1-0.7-0.4-1.2-1-1.4c0,0,1.8-2.4,0.5-3.9c-0.4-0.5-1.3-0.9-2.5-1c0,0,1.3-1.6,0.5-3
		c-0.5-1-2.4-1.6-5.5-1.6c-2.9,0-7,0.5-12,1.4c1.9-1.9,2.2-4.2,1.6-5.7c-0.3-0.7-0.8-1.2-1.4-1.2c0,0-0.1,0-0.1,0
		c-2.2,0.2-31.4,17.5-31.7,17.7v-5.2c-0.1-0.1-26.9-6.2-26.9-6.2c-9.2,27.7-5.5,37.7-2.4,42C286.9,300.1,299.6,307.2,321.9,291.5z"
		/>
	<path class="st17" d="M313.7,266c-2.2,1.3-4.8,3.3-14.1,7.8"/>
	<path class="st17" d="M345.2,255c-2.2,0.5-6.5,1.6-8.6,2.4"/>
	<path class="st17" d="M349.2,272.7l-5.3,0.4"/>
	<path class="st17" d="M364.2,263c-5.8,0.3-15.1,2.7-21.3,4.4"/>
	<path class="st17" d="M362.2,258.3c-6.9,0.3-15.4,2-20.4,3.5"/>
	<path class="st22" d="M313.7,246.6V266"/>
	<path class="st19" d="M289,248.2c4.3-11.4,7.5-16.8,7.5-16.8c4.2,1.3,9.6,2.7,12.8,2.7c8.3,0,14.7-2.5,19.1-7.4
		c8.2-9.1,6.6-24.1,6.4-24.7c0,0-10-5.5-7.7-12.6c3.3-6.7,11.5-0.9,11.5-0.9c0.7-2.9,0.5-5.4-0.7-8.3c1,0.1,1.7,0.2,2.5,0.2
		c4.2,0,5.6-1.6,6.2-2.9c0.8-1.6,0.5-3.8-0.9-5.7c4.6,2.5,10.3,2.9,13.2,2.5c3.6-0.5,4.5-2.1,4.5-2.1c-0.4-1.7-1.3-3.6-1.3-3.6
		s-0.8-1.4-1.2-1.9c-4.2-5.6-11.4-8.7-20.3-8.7c-0.7,0-1.4,0-2.1,0.1c-10.2,0.6-18.4,9-18.1,18.9c0.1,2.7,0.1,5.6,0.4,12.9
		c-5.1-2.4-10.2-2.8-14.5-2.5c-12.5,1-19.4,10.4-18.1,22c-1.2,0.2-15.9,0.9-18.3,15.4C267.2,243.5,289,248.2,289,248.2z"/>
	<path class="st23" d="M333.1,159c-2.4,0.8-4.5,2.1-6.3,3.7"/>
	<path class="st24" d="M288.2,209.2c4.7-0.3,8.4,1,8.4,1"/>
	<path class="st24" d="M296.4,231.5c-4.5-1.7-6.2-3.7-6.2-3.7"/>
	<path class="st24" d="M320.9,189.7l0.2,4.2"/>
	<path class="st22" d="M374.8,288.4h-49"/>
</g>
<g>
	<path class="st15" d="M505.1,464.1l26.3-3.2c1.5-7.1,3.1-15.5,4.5-25.3l-1-1.3h-43.6l-0.4,1.3c-0.6,4.4-1.7,8.7-3.1,12.8
		L505.1,464.1z"/>
	<path class="st25" d="M601.7,321l-18.6,0.7c0,0-55.5,5.4-74.1,24.1c-14,14-14.6,44.5-16.1,70h45.2c1.4-18.5,1-33.3,1-33.3l34.4-1.3
		c0,0,25.1-0.1,31.8-17.3C612,346.8,601.7,321,601.7,321z"/>
	<path d="M490.9,435.5l34.6,0c0.1-0.8-0.2-2.5-0.1-3.3c-0.4-6.7-0.6-12-1.2-17.7H493C492.5,422,491.9,429.1,490.9,435.5z"/>
	<path class="st10" d="M507.9,459.9l-0.2-6c0-2.8-1.4-5.1-4.1-5.5c-0.2,0-0.5,0-0.7,0h-15.1c-0.8,2.2-1.9,4.3-3.2,6.2
		c-5.7,8.4-16,11.7-22.4,19.6c-0.8,1-1.9,2.7-2.3,4h67.1c1.2-4.2,2.8-10.4,4.4-17.3h-23.5v-0.5h0L507.9,459.9L507.9,459.9z"/>
	<path class="st26" d="M460.2,477.6c-1.2,2.9-1.5,5.2-1.8,9.1h65.9c0,0,1.2-3.1,2.9-9.1H460.2L460.2,477.6z"/>
	<path class="st21" d="M531.1,358.2c-25.3,0-18.3,36.8-16.8,77.4c1,27.2-14.3,23.4-25.8,38.7c-0.8,1.1-1.5,2.2-2,3.4
		c-1.2,2.9-1.6,6-1.2,9.1h34.3c0,0,1.2-3.1,2.9-9.1c1.2-4.2,2.7-9.8,4.2-16.7c1.5-7.1,3.1-15.5,4.5-25.3c0.1-0.8,0.2-1.6,0.3-2.4
		c0.8-6.6,1.5-12.8,2-18.6c1.4-18.5,0.9-32,0.9-32S568.9,358.2,531.1,358.2z"/>
	<path class="st15" d="M532.9,467.4l35.8-2.7l1.4-3.7c1.1-7.5,2.2-16.5,2.8-25.6v-1.3l-46.6-0.7l-1,2c0.2,4.6,0.2,8.9,0,12.8
		L532.9,467.4z"/>
	<path class="st10" d="M544.8,460.8l1-6.9c0.4-2.6-1.4-5.1-4.1-5.5c-0.2,0-0.5,0-0.7,0h-15.8c-0.1,1.9-0.3,3.7-0.5,5.3
		c-1.4,10-15.1,12.6-21.5,20.5c-0.8,1-1.8,3.1-2.3,4.3h66.2c0.8-4.4,2-11,3-17.6h-25.3L544.8,460.8z"/>
	<path class="st25" d="M640.1,321h-41.4c0,0-50,6.6-68.2,24.7c-11.8,11.8-8.9,43.4-6.7,70.8l49.9-0.6c0.2-20.5-1.8-33.8-1.8-33.8h50
		c0,0,18.4-1,25.1-18.2C653.8,346.8,640.1,321,640.1,321z"/>
	<path class="st21" d="M640.1,321h-16.6c0,0-7.6,38.5-1.5,39.7c3.2,0.6,9.9-9.9,9.9-9.9c8.2,6.4,16.7,7.4,16.7,7.4
		C651,341.5,640.1,321,640.1,321z"/>
	<path class="st21" d="M572,382.1c0,0,32.1,0,22.3,0c-11.5-2.9-16.5-14.6-25-14.6C571.1,376.4,572,382.1,572,382.1z"/>
	<path class="st22" d="M572,382.5c-0.8-3.8-1.8-7.2-1.8-7.2"/>
	<path class="st26" d="M501.3,477.6c-1.2,2.9-1.6,6-1.2,9.1h65.3c0,0,0.8-3.4,1.9-9.1H501.3L501.3,477.6z"/>
	<path class="st13" d="M480.3,459.8l4.8,4.3"/>
	<path class="st13" d="M521.2,460.5l4.1,3.6"/>
	<path d="M525.4,435.5h47.6c0-0.8,0.1-1.6,0.2-2.4c0.5-6.8,0.6-13.1,0.6-18.6h-50.1C524.2,421.8,525.1,428.9,525.4,435.5z"/>
	<path class="st22" d="M550.2,333.6c-7.2,3.1-14.7,7.1-19.7,12.1c-11.8,11.8-9,41.5-6.7,68.8c0.6,7.3,1.2,14.4,1.5,21
		c0.2,4.6,0.2,8.9,0,12.8c-0.1,1.9-0.3,3.7-0.5,5.3c-1.4,10-15.1,12.6-21.5,20.5c-0.8,1-1.5,2.2-2,3.4"/>
	<path class="st15" d="M621.4,184.7c-11.1-2.3-18-4-23.3,1.8c-3,3.3-5,9.2-7,15.5c0,0-4.2,0.7-4.7,2.2c-0.7,2,2.4,5.2,2.4,5.2
		c-1.9,5.4-4,10.8-1.6,16c2.4,5.2,8.9,7.6,14.9,6.7l-1.7,6.7l31.5,0.2c2.6-11,4.2-25.2,5.4-31.4
		C639.3,195.9,634.2,187.4,621.4,184.7z"/>
	<path class="st27" d="M602.1,232.2l-1.3,5l10.3-7.3C606,231.6,602.1,232.2,602.1,232.2z"/>
	<path class="st28" d="M622.4,180.9c-11.1-2.3-18.9-0.2-24.3,5.6c-1.2,1.3-2.1,2.8-2.6,4.3c-0.2,0,9.2,5.2,16.6,1.3
		c0.8-0.5-2,7.3,6.2,8c0.8-0.1-5.9,10.5-3.1,9.6c0,0,12.7-3.7,14.4,2.8c2,7.2-9.6,13.3-9.5,13.5c5.4,6,12.2,6.7,13.1,6.7
		c1.5-1.6,5.5-21.4,6.4-26.7C641.7,194.2,635.2,183.6,622.4,180.9z"/>
	<path class="st29" d="M602.1,232.2c2.4-0.4,4.8-0.9,7.2-1.6"/>
	<path class="st29" d="M617.2,218.1l5.2-2"/>
	<path class="st29" d="M592.7,214.9c1.7,0.4,3.7,0,4.8-1.6"/>
	<path class="st28" d="M597.7,205.4c0.7,0,1.3-0.6,1.3-1.3s-0.6-1.3-1.3-1.3c-0.7,0-1.4,0.6-1.4,1.3S597,205.4,597.7,205.4z"/>
	<path class="st15" d="M536.3,252.5c-0.2,0-0.3,0-0.5-0.2c-2.1-3.2-23.2-35.4-31.6-42.7c-4.7-4.1-8.8-4.1-13.7-5.2
		c-4.9-1.2-12.4-7.2-14.8-4.8c-2,2,3.4,7,5.3,8.7c0.3,0.2,0.1,0.7-0.2,0.7c-7,1-9.8-0.2-17.6-1.4c-6.7-1-8.1,0-8.4,0.3
		c-0.1,0.1-0.2,0.1-0.3,0.2c-5.2,0.7-4,3.4-3.5,4.2c0.1,0.1,0.1,0.3,0,0.4c-2.4,4.3,7.1,7.5,15.8,11.4c8.3,3.8,20.8,5,22.9,5.2
		c0.2,0,0.3,0.2,0.3,0.3c0.7,3.7,8.7,40,31.9,53.8c7.8,4.2,20.8,3.8,31.6,2.5c0.2,0,0.4-0.3,0.3-0.5l-7.1-35.5
		c0-0.2-0.3-0.4-0.5-0.3C542.4,250.8,537.6,252.2,536.3,252.5z"/>
	<path class="st27" d="M494.9,229.5l-4.8-0.2c0,0,0.7,3.7,2.4,9.3L494.9,229.5z"/>
	<path class="st14" d="M544.1,250.3l7.3,36c15.5-2,34.2-7.1,34.2-7.1l0.8-37.5C573.1,243,554.1,247.5,544.1,250.3z"/>
	<path class="st21" d="M568.4,283.3c8.1-1.7,14.1-3.4,14.1-3.4l1.2-13.7L568.4,283.3z"/>
	<path class="st29" d="M536.1,252.6l-6.3,1.9"/>
	<path class="st29" d="M451.3,212.5c4.8-0.4,15.2,4.4,24.5,5.6c0,0,17.7-5.6,24.5,0"/>
	<path class="st29" d="M455.4,208.1c2,0,16.5,4,20.5,4.4"/>
	<path class="st29" d="M490.2,229.3c1.7,0.2,3.3,0.1,4.9-0.2"/>
	<path class="st29" d="M481.8,208.8l4.7-0.8"/>
	<path class="st10" d="M656.1,244.6c-11.3-7.2-24.9-2-24.9-2h-31.7c-3.2-1.3-8.5-1.3-14.7-0.7c0,0-2.9,14-2.5,38.1
		c0.4,24,0.8,41.8,0.8,41.8h57l16.5-42.6L656.1,244.6z"/>
	<path class="st30" d="M646.4,305.3l10.1-26.1l-14.9-3.1L646.4,305.3z"/>
	<path class="st14" d="M599.4,242.5l6.5,8.9l5.7-8.8l5.1,8.8l14.5-8.9l0.8-4h-31.6L599.4,242.5z"/>
	<path class="st13" d="M612.7,273.1h13.6"/>
	<path class="st15" d="M685.5,282.2l-31,17c2.1,2.8,4.7,6.5,4.7,6.5s-30.9,6.8-44.1,18.1c-11.3,9.6-19.7,25.7-15.2,29.3
		c-0.4,2.8,1.6,4.4,4,3.6c3.2,6,12.1-6,15.6-10.1c-2.4,10.4-2.8,13.7-1.2,14c3.1,0.8,5.6-5.6,10.1-15.6c3.2-1.6,10.4-4.8,12.4-9.3
		c54.6,6.4,60.2-18.5,51.4-39.7C690.2,291.6,687.4,285.9,685.5,282.2z"/>
	<path class="st29" d="M659.3,305.6c4.8-1.2,10.5-2.8,10.5-2.8"/>
	<path class="st29" d="M599.9,353c4.1-8.4,12.8-18.9,12.8-18.9"/>
	<path class="st29" d="M604.5,356.4c4.2-7.8,13.5-18.3,13.5-18.3"/>
	<path class="st29" d="M619.5,346.6l2.4-4.4"/>
	<path class="st14" d="M656.1,244.6c-2.7-1.7-5.7-2.9-8.9-3.4c-16,13.5-4.7,39.9,0.1,47.6c1.2,2,5.3,7.6,8.4,11.9l30.8-16.7
		C670.4,253.6,656.1,244.6,656.1,244.6z"/>
</g>
<g>
	<path class="st1" d="M397,298.5l-1.3,3l-1.1,3.2c0,0,0,0.1,0.1,0.1l3.5,0.1l3.3-1c0,0,0,0,0,0l-1.8-2.9l-1.9-2.5
		C397.6,298,397.1,298.1,397,298.5z"/>
	<path class="st1" d="M413.8,291.8l-1.9,2.5l-1.8,2.8v0l3.4,1.1l3.5-0.1c0,0,0.1,0,0-0.1l-1-3.2l-1.2-2.9
		C414.7,291.5,414.1,291.4,413.8,291.8z"/>
	<path class="st10" d="M405.4,331.2l4.7-34.1c0,0,0,0,0,0l6.9,1c0,0,0,0,0,0l-4.7,34.1L405.4,331.2z"/>
	<path class="st10" d="M414.5,290.3l-2.5,3.9l4.1,0.6L414.5,290.3C414.5,290.3,414.5,290.3,414.5,290.3z"/>
	<path class="st14" d="M394.7,304.7l6.9-0.9c0,0,0,0,0,0l4.4,34.2l-7,0.9L394.7,304.7C394.6,304.7,394.7,304.7,394.7,304.7z"/>
	<path class="st14" d="M397.2,297l-1.5,4.5l4.1-0.5L397.2,297C397.2,296.9,397.2,296.9,397.2,297z"/>
	<path class="st1" d="M415.2,358.2h-20.5c0,0,0,0,0,0l-4.7-22.3l-1.8-14.1c0,0,0,0,0,0h33.6c0,0,0,0,0,0l-1.8,14.1L415.2,358.2
		C415.2,358.2,415.2,358.2,415.2,358.2z"/>
	<path class="st14" d="M390,335.9l3.1,23.5h23.9l3.1-23.5H390z"/>
</g>
<g>
	<path class="st10" d="M357.5,437.6v-10.8h77.9v10.8H357.5z"/>
	<path class="st31" d="M357.5,437.6v-10.8h12.1l-5.1,10.8H357.5z"/>
	<path class="st31" d="M428.4,437.6l-5.1-10.8h12.1v10.8H428.4z"/>
	<path class="st10" d="M342.2,482.5c-0.1,0.2-0.1,0.5-0.1,0.7c0,2.3,1.9,4.2,4.2,4.2c1.9,0,3.7-1.4,4.1-3.3l26.1-120.2h-14.4
		L342.2,482.5z"/>
	<path class="st10" d="M430.7,363.9h-14.4l26.1,120.2c0.4,1.9,2.2,3.3,4.1,3.3c0.2,0,0.4,0,0.6-0.1c1.1-0.2,2.1-0.8,2.7-1.7
		c0.6-0.9,0.9-2,0.8-3.1L430.7,363.9z"/>
	<path class="st32" d="M362.9,426.9l-2.3,10.8"/>
	<path class="st32" d="M429.8,426.9l2.3,10.8"/>
	<path class="st31" d="M362.2,363.9l-4,23.6h13.3l5.1-23.6H362.2z"/>
	<path class="st31" d="M430.7,363.9h-14.4l5.1,23.6h13.3L430.7,363.9z"/>
	<path class="st10" d="M351.6,372h89.6c3.5,0,6.3-2.8,6.3-6.3c0-3.5-2.8-6.3-6.3-6.3h-89.6c-3.5,0-6.3,2.8-6.3,6.3
		C345.3,369.2,348.1,372,351.6,372z"/>
	<path class="st33" d="M360.8,372h14"/>
	<path class="st33" d="M418,372h14"/>
</g>
<g>
	<path class="st5" d="M307.8,463.4l-6.2-0.1l4-12.3c-1-1.9-2.3-3.7-3.8-5.3l-4.4-4.9c-2.8-3.1-3.3-7.7-1.3-11.4l3.7-6.9h-32.5h0
		l3.7,6.9c2,3.7,1.4,8.3-1.4,11.4l-4.4,4.9c-1.5,1.6-2.8,3.4-3.8,5.3l3.4,11.9l-5.3-0.1l-1.9,3.6c0.2,7.7,3.2,15,8.6,20.4h34.6
		c5.4-5.5,8.5-12.7,8.6-20.4L307.8,463.4z"/>
	<path class="st25" d="M294.7,471c0.4,0.4-3.8-3.1-7.3-4.3c-1.3-0.4-2.6-0.7-4-0.7c-5.1,0-9.7,3.3-11.3,4.2
		c-0.5,0.2-6.4-4.2-11.5-4.2c-1,0-2,0.1-3,0.4c-0.1-5.4,1.2-10.8,3.8-15.5c4.9,0.3,8.8,4.3,10.6,4.3c1.6,0.1,3.9-2.4,7.4-3.6
		c1.3-0.4,2.6-0.7,4-0.7c5.1,0,9.7,3.9,11.4,3.8c2,0,5.8-3.5,10.7-3.8c2.7,4.7,4,10.1,3.9,15.5c-1-0.3-2.2-0.4-3.2-0.4
		c-5.1,0-8.2,1.8-10.8,4.3L294.7,471z"/>
	<path class="st34" d="M283.5,429.2c-9.1,0-14.3-4.5-14.8-6.7h29.8C298.5,423.9,292.6,429.2,283.5,429.2z"/>
	<path class="st35" d="M285.9,428.2c0.7-4.1,3.7-20.1,11.2-28.9"/>
	<path class="st35" d="M282.4,428.3c0-4.6-0.5-27.2-5-40.8"/>
	<path class="st25" d="M292.4,411.1c-0.8-1.1-1.1-2-0.7-2.6c0.6-1,2.8-1,6.3-0.2c3.4,0.8,7.6,2.5,11.9,4.7c6,3.1,10.9,6.7,12.9,9.3
		c0.8,1.1,1.1,2,0.7,2.6c-0.6,1-2.8,1-6.3,0.2c-3.4-0.8-7.6-2.5-11.9-4.7C299.3,417.3,294.4,413.8,292.4,411.1z"/>
	<path class="st25" d="M239.8,393.9c-0.3-0.3-0.4-0.6-0.4-0.9c-0.1-1,0.8-1.9,2.6-2.5c1.8-0.6,4.3-0.8,7-0.7
		c4.6,0.3,8.8,1.6,10.2,3.3c0.3,0.3,0.4,0.6,0.4,0.9c0.3,2.1-4,3.5-9.6,3.2C245.3,396.9,241.1,395.6,239.8,393.9z"/>
	<path class="st25" d="M250.5,419c-4.4,0.8-7.2,0.5-7.6-0.8c-0.7-2.5,7.1-7.7,17.5-11.7c4.5-1.7,8.9-3,12.5-3.7
		c4.4-0.8,7.2-0.5,7.6,0.8c0.3,1.2-1.3,3.1-4.6,5.3c-3.3,2.2-7.9,4.5-12.9,6.4C258.6,417.1,254.1,418.4,250.5,419z"/>
	<path class="st25" d="M296.4,364.1c0.8-2.3-0.6-4.8-3.2-5.7c-2.5-0.8-5.2,0.4-5.9,2.7c-0.8,2.3,0.7,4.8,3.2,5.7
		C293,367.5,295.6,366.4,296.4,364.1z"/>
	<path class="st14" d="M278.1,389.7c6.8-2.4,10.7-9.1,8.6-15.1c-2.1-6-9.3-8.9-16.1-6.5c-6.8,2.4-10.7,9.1-8.6,15.1
		C264.1,389.2,271.3,392.1,278.1,389.7z"/>
	<path class="st36" d="M275,380.5c1-0.4,1.6-1.4,1.3-2.3c-0.3-0.9-1.4-1.3-2.4-1c-1,0.4-1.6,1.4-1.3,2.3
		C272.9,380.4,273.9,380.9,275,380.5z"/>
	<path class="st14" d="M311.4,400.3c2.9-4.7,1-11.2-4.3-14.6c-5.3-3.4-12.1-2.3-15,2.4c-2.9,4.7-1,11.2,4.3,14.6
		C301.7,406,308.5,404.9,311.4,400.3z"/>
	<path class="st36" d="M303.4,395.2c0.5-0.8,0.2-1.9-0.7-2.5c-0.9-0.6-2.1-0.4-2.6,0.4s-0.2,1.9,0.7,2.5
		C301.7,396.2,302.9,396,303.4,395.2z"/>
	<path class="st37" d="M305.6,451C305.6,450.9,305.6,450.9,305.6,451C305.6,450.9,305.6,450.9,305.6,451c-1.1-1.9-2.4-3.7-3.8-5.3
		l-4.4-4.9c-2.8-3.1-3.3-7.7-1.3-11.4l3.6-6.9h-9.4l-3.7,6.9c-2,3.7-1.4,8.3,1.3,11.4l4.4,4.9c1.5,1.6,2.7,3.4,3.8,5.3
		c2.7,4.7,4,10.1,3.8,15.5c-0.2,7.7-3.2,15-8.6,20.4h0.1h9.4l0,0c5.4-5.5,8.5-12.7,8.6-20.4C309.6,461,308.3,455.7,305.6,451z"/>
</g>
<g>
	<path class="st3" d="M646.3,140.5h30.6c7,0,12.7,5.7,12.7,12.7v0.6c0,7.1-5.7,12.8-12.7,12.8h-30.6c-7.1,0-12.8-5.7-12.8-12.8v-0.6
		C633.5,146.2,639.2,140.5,646.3,140.5z"/>
	<path class="st38" d="M651.9,155.2c2.1,0,3.8-1.7,3.8-3.8c0-2.1-1.7-3.8-3.8-3.8c-2.1,0-3.8,1.7-3.8,3.8
		C648.1,153.5,649.8,155.2,651.9,155.2z"/>
	<path class="st38" d="M654.9,153.7l-4.6,5.7"/>
	<path class="st38" d="M663.7,155.2c2.1,0,3.8-1.7,3.8-3.8c0-2.1-1.7-3.8-3.8-3.8c-2.1,0-3.8,1.7-3.8,3.8
		C659.9,153.5,661.6,155.2,663.7,155.2z"/>
	<path class="st38" d="M666.7,153.7l-4.6,5.7"/>
	<path class="st38" d="M673.9,150.8v5.3"/>
	<path class="st38" d="M676.6,153.5h-5.3"/>
</g>
</svg>
