<?xml version="1.0" encoding="utf-8"?>
<!-- Generator: Adobe Illustrator 24.1.2, SVG Export Plug-In . SVG Version: 6.00 Build 0)  -->
<svg version="1.1" id="Слой_1" xmlns:svgjs="http://svgjs.com/svgjs"
	 xmlns="http://www.w3.org/2000/svg" xmlns:xlink="http://www.w3.org/1999/xlink" x="0px" y="0px" viewBox="0 0 1000 561.1"
	 style="enable-background:new 0 0 1000 561.1;" xml:space="preserve">
<style type="text/css">
	.st0{fill:#F3F0E9;}
	.st1{fill:#FFFFFF;}
	.st2{fill:#FFFFFC;}
	.st3{fill:#2C5B55;}
	.st4{fill:#A0FFF1;}
	.st5{fill:#61D1FF;}
	.st6{opacity:0.2;fill:#070707;enable-background:new    ;}
	.st7{opacity:0.2;fill:#181818;enable-background:new    ;}
	.st8{fill:none;stroke:#181818;stroke-width:4;stroke-linecap:round;}
	.st9{fill:#FFF530;}
	.st10{fill:#B9B797;}
	.st11{fill:#ECEBE3;}
	.st12{fill:none;stroke:#2C5B55;stroke-width:4;stroke-linecap:round;stroke-linejoin:round;}
</style>
<rect class="st0" width="1000" height="561.1"/>
<g>
	<path class="st1" d="M540.7,115.5c21.1-49.5,53.7-48.9,62.4-25c0,0,22.2-28.7,44.2-29.7c26.2-1.2,25,34.3,25,34.3
		s39.6-36.6,53.5,20.4L540.7,115.5L540.7,115.5z"/>
</g>
<g>
	<path class="st2" d="M678.5,378.2c0,0,19.2-51.1,48.9-55.6c28.8-4.4,28.2,33,28.2,33s45.2-26.3,45.2,22.7H678.5z"/>
</g>
<g>
	<path class="st3" d="M449.2,422.6l34,13.4l-25-25.1l24.6-19.2l-32,6.8l6-35.2L439,394.1l-17.1-18l7.5,25.3l-32.4,2.3l31.5,10.4
		L413,438l23.5-15.8l7,31.2L449.2,422.6z"/>
	<path class="st3" d="M312.1,182.4l16.1,29L325,179l33.4,5.4l-28-18.1l24.9-17.3l-31.3,4.4l-0.4-28.7l-13.9,24.4l-27.5-14.9
		l16.1,24.7l-26,8.5l26.3,7.2l-11.5,28.2L312.1,182.4z"/>
	<path class="st3" d="M759.2,202.4l16.3-40.6l-30.1,29.4l-16.4-44l-2.1,46l-35.1-18.6l26,32.5L676.5,230l45.3-6.1l-9.9,51.3
		l28.2-44.5l30.4,34.7l-13.2-46.1l44.8,0.6L759.2,202.4z"/>
</g>
<g>
	<path class="st1" d="M198.6,283.6c29.1-63.6,48.8-56.9,54.1-31.5c0,0,15.5-22.6,32-24.2c21.5-2.1,19.6,19.7,19.6,19.7
		s10.9-7.2,18.7,0.4c9.7,9.6,6.6,35.5,6.6,35.5L198.6,283.6z"/>
</g>
<g>
	<path class="st4" d="M500,438.9c76.1,0,137.7-77.8,137.7-173.7S576.1,91.4,500,91.4s-137.7,77.8-137.7,173.7S423.9,438.9,500,438.9
		z"/>
</g>
<g>
	<path class="st5" d="M548.5,496.8l-7.2-25.7c0,0-10.8-3-20.1-25.4c-9.3-22.4-25.2-71-15.4-76.6c9.5-5.5,14.8,7.9,16.9,13.8
		c2.1,5.8,9.6,24.3,9.6,24.3s-9.6-46.3-11.2-55.9c-1.8-10.6,1.3-15.9,6.1-16.8c5.8-1.1,9.2,5.3,10.8,10.6c1.6,5.4,14,49.9,14,49.9
		s-8.2-51-9.4-63.4c-1.3-12.5,5.1-15.5,8-15.8c2.9-0.3,8,0.9,10.5,8.7c2.2,6.9,11.9,61.7,11.9,61.7s-3.1-45.9-2.7-55.4
		c0.5-9.5,7.9-12.6,13.4-9.3c6,3.6,7.5,19,9,27.7c1.4,8.7,8.5,45.3,9.3,49.1c0.7,3.8,3.3,8.8,7.8,5.7c4.5-3.1,14.7-15.4,26.2-17.2
		c11.6-1.8,10.3,7.7,9.5,9.6c-2.2,5.1-21.3,40.8-23.5,46.4c-2.2,5.6-4.9,11.2-3.4,18.4c1.5,7.2,3.5,15,3.5,15L548.5,496.8z"/>
	<path class="st3" d="M548.5,496.8L622,476c0,0-17-8.8-40.8-1C555.7,483.4,548.5,496.8,548.5,496.8z"/>
	<path class="st6" d="M548.5,496.8L622,476c0,0-17-8.8-40.8-1C555.7,483.4,548.5,496.8,548.5,496.8z"/>
	<path class="st3" d="M644.7,389.1c-3.3,3.7-11,13.3-4.8,18.3c2.7-5.3,4.9-9.5,5.5-11C645.9,395.3,646.5,391.6,644.7,389.1z"/>
	<path class="st7" d="M522.8,383l1.9,28.3l7.8-3.9C532.4,407.3,524.8,388.8,522.8,383z"/>
	<path class="st7" d="M544.5,398l7.6-3c0,0-8.5-30.4-12.3-44C540.3,357.9,544.5,398,544.5,398z"/>
	<path class="st7" d="M564.3,390l8.7-3.9c0,0-6.2-34.6-9.8-52.3C563.2,345.9,564.3,390,564.3,390z"/>
	<path class="st8" d="M524.5,412c12.9-9.8,28.7-19.4,51.5-26.3"/>
</g>
<g>
	<path class="st5" d="M475.2,490.9c0,0,10.3-87.8,10.3-102.8c0-15.5-6.2-18.6-10.8-15.4c-4.6,3.2-8.1,11-11.4,21.2
		c-3.2,10.2-7.8,17.4-12.3,12.1c-4.6-5.4-13.6-24.4-11.4-28.4c2.1-4,18.7-7.3,23.7-10.4c6.4-4,8.5-13.4-7.8-13.6
		c-13.5-0.2-27.4,2.3-27.4,2.3s-1.4-28.5-7.6-32.5c-5.8-3.7-9.6,4.1-9.6,4.1s-6.9-2.1-8.4,5.4c-2.1,10.6-5.7,150.5-5.7,150.5
		L475.2,490.9z"/>
	<path class="st3" d="M407.4,327.3c-2,0.2-4.2,1.7-5,5.6c-0.2,1.1-0.5,3.6-0.7,7.3c1.4-0.5,2.6-1.4,3.4-2.6
		C406.3,335.7,407,330.3,407.4,327.3z"/>
	<path class="st3" d="M408.5,337.8c1.6-0.1,4.2-1,6.1-3.5c1.7-2.2,2.9-12,2.4-12c-3.8-0.1-6.1,5.1-6.1,5.1
		c-0.5,1.6-2.4,10.4-2.1,10.4L408.5,337.8z"/>
	<path class="st3" d="M456.6,358.6c1.3,0.5,6.8,1.5,11.4,2.3c0.6-3.7-2.4-7.3-12.5-7.4c-0.6,0-1-0.1-1.8,0
		C453.6,355.5,454.4,357.6,456.6,358.6z"/>
	<path class="st3" d="M479.7,371.8c-0.8,4.6-1.1,13.4,1.1,16.9c1.1,1.7,2.8,2.9,4.7,3.2c0.1-1.6,0.1-2.9,0.1-3.8
		C485.5,377.8,482.9,372.5,479.7,371.8z"/>
	<path class="st3" d="M397.3,483.4l77.3,7.5c0.1-0.9-12.5-13.6-37.8-16.2c-24.2-2.4-39.8,8.2-39.9,8.7L397.3,483.4z"/>
	<path class="st8" d="M410.7,327.5c-2.8,7.5-5.6,48.6-5.6,48.6"/>
	<path class="st8" d="M411.1,376.4c1.4-3.8,5.6-12.4,8.4-15.5c4.1-4.6,8.5-5.1,9-5.2"/>
	<path class="st7" d="M414.8,367.5c5.7-10.3,13.4-11.7,12.9-11.7c0.5,0-0.1-10.7-1.9-19.9c0,0-0.2,7.3-6.2,16.6
		C414.8,359.7,414.3,365.1,414.8,367.5z"/>
</g>
<g>
	<path class="st9" d="M543.8,205.9l-39.6-39l-13.2-13h-0.1l-14.8,15l-19.4,19.7l-7.3,9.5v0.1l54.3,58.8h0.1l44.6-45.1V212
		L543.8,205.9z"/>
	<path class="st10" d="M456.7,188.8l-8.9,9c-2.7,2.8-2.7,7.4,0.1,10.1l52.3,51.4c0.4,0.4,1.2,0.4,1.6,0l13-13.3L456.7,188.8z"/>
	<path class="st11" d="M501.1,260.3l-0.9-0.8c-2.6-2.6-2.6-6.7-0.1-9.2l43.6-44.3l5.4,5.4l4.4,4.3c0.2,0.2,0.2,0.6,0,0.7l-43.2,43.9
		C507.8,262.8,503.8,262.8,501.1,260.3z"/>
</g>
<g>
	<path class="st12" d="M559.1,174.6l16.4-26.3"/>
	<path class="st12" d="M559.9,216.2l41.7-21.7"/>
	<path class="st12" d="M575,242.3l24.5,1.9"/>
</g>
<g>
	<path class="st12" d="M442.2,172.5l-17.5-25.6"/>
	<path class="st12" d="M443.2,214l-42.7-19.8"/>
	<path class="st12" d="M429.3,240.8l-24.4,3"/>
</g>
</svg>
