<?xml version="1.0" encoding="utf-8"?>
<!-- Generator: Adobe Illustrator 24.1.2, SVG Export Plug-In . SVG Version: 6.00 Build 0)  -->
<svg version="1.1" id="Слой_1" xmlns:svgjs="http://svgjs.com/svgjs"
	 xmlns="http://www.w3.org/2000/svg" xmlns:xlink="http://www.w3.org/1999/xlink" x="0px" y="0px" viewBox="0 0 1000 561.1"
	 style="enable-background:new 0 0 1000 561.1;" xml:space="preserve">
<style type="text/css">
	.st0{fill:#EFF8FD;}
	.st1{fill:#DDF0F6;}
	.st2{fill:none;stroke:#333333;stroke-width:2;stroke-linecap:round;stroke-linejoin:round;}
	.st3{fill:#E0AA78;stroke:#333333;stroke-width:2;stroke-linecap:round;stroke-linejoin:round;}
	.st4{fill:#4595CF;stroke:#333333;stroke-width:2;stroke-linecap:round;stroke-linejoin:round;}
	.st5{fill:#ADDBE6;stroke:#333333;stroke-width:2;stroke-linecap:round;stroke-linejoin:round;}
	.st6{fill:#6E6D46;stroke:#333333;stroke-width:2;stroke-linecap:round;stroke-linejoin:round;}
	.st7{fill:#3D86A8;stroke:#333333;stroke-width:2;stroke-linecap:round;stroke-linejoin:round;}
	.st8{fill:#FFFFFF;stroke:#333333;stroke-width:2;stroke-linecap:round;stroke-linejoin:round;}
</style>
<rect class="st0" width="1000" height="560.9"/>
<g>
	<path class="st1" d="M754.7,314.2C732.5,244.6,708,176,681,108.1c-2.3-5.8-4.1-12-7.5-17.2c-6.6-10.4-16.6-16.8-28.7-18.4
		c-11.7-1.6-24,1.9-35.6,3.9c-18.3,3.2-36.5,6.4-54.8,9.7c-36.5,6.7-72.8,13.7-109.2,21.1c-36.9,7.4-73.7,15.4-110.5,23.4
		c-9.9,2.1-20.1,4.4-28.4,10.1c-14.7,10.1-20.1,27.8-26.1,43.5c-4.7,12.2-9.1,24.4-13.3,36.9c-8.3,25-16.6,50.8-21.3,76.9
		c-1.8,10.1-2.4,19.6,0.7,29.6c3.1,9.7,9.1,18.2,16.7,24.9c9.3,8.1,18.7,15.9,27.8,23.9c19.2,17.1,37.7,35.1,55.4,53.8
		c8.6,9.1,17,18.4,25.3,27.8c4.1,4.6,8,9.3,11.9,13.9c8.3,9.9,19,16.7,32.3,16.9c9.1,0.1,17.4-3.5,25.8-6.5c6.3-2.3,12.7-4.7,18.9-7
		c12.7-4.7,25.2-9.5,37.7-14.5c26.5-10.4,52.8-21.3,78.8-32.5c55-23.7,109.1-49.3,162.3-77.1C751.9,344.9,758.9,327.6,754.7,314.2z"
		/>
</g>
<g>
	<path class="st2" d="M674.5,260.2l41-8.5"/>
	<path class="st2" d="M284.5,340.9l41-8.5"/>
	<path class="st2" d="M648.8,394.2l35,23"/>
	<path class="st2" d="M316.2,175.4l35,23"/>
	<path class="st2" d="M455.4,80.8l8.5,41"/>
	<path class="st2" d="M402.1,445.1l-23,35"/>
	<path class="st2" d="M620.9,112.6l-23,35"/>
</g>
<g>
	<path class="st3" d="M500.4,429.6l-147.9-45.8V206.7l27.4-0.7l120.5,30.9l120.5-30.9l26.6,0.7v177.1L500.4,429.6z"/>
	<path class="st4" d="M352.4,360.6l147.9,45.8V236.8l-120.5-30.9l-27.4,0.7V360.6z"/>
	<path class="st2" d="M500.4,429.6V236.3"/>
	<path class="st5" d="M500.4,406.4c-35.6-74.2-122.5-37.9-122.5-37.9l2-174.1c0,0,84.9-32.1,120.5,42.1V406.4z"/>
	<path class="st2" d="M416.4,247c0,0,36.9-9,55.3,21.4"/>
	<path class="st2" d="M416.4,273.7c0,0,36.9-9,55.3,21.4"/>
	<path class="st2" d="M416.4,300.1c0,0,36.9-9,55.3,21.4"/>
	<path class="st4" d="M500.4,406.4l147.2-45.8V206.7l-26.6-0.7l-120.5,30.9V406.4z"/>
	<path class="st5" d="M500.4,406.4C536,332.2,624.2,368,624.2,368l-3.2-173.3c0,0-84.9-32.1-120.5,42.1V406.4z"/>
	<path class="st2" d="M584.1,247c0,0-36.9-9-55.3,21.4"/>
	<path class="st2" d="M584.1,273.7c0,0-36.9-9-55.3,21.4"/>
	<path class="st2" d="M584.1,300.1c0,0-36.9-9-55.3,21.4"/>
</g>
<g>
	<path class="st6" d="M739.4,85.8l-9.7,12.3l-15.6-1l8.8,13l-5.6,14.5l14.9-4.4l12,10l0.5-15.6l13.3-8.5l-14.8-5.3L739.4,85.8z"/>
</g>
<g>
	<path class="st3" d="M288.1,77.6l9.5,12l15.2-0.9l-8.5,12.7l5.5,14.1l-14.5-4.3l-11.7,9.7l-0.5-15.2l-12.9-8.3l14.4-5.2L288.1,77.6
		z"/>
</g>
<g>
	<path class="st7" d="M226.8,272.8c5.6,0,10.1,4.5,10.1,10.1c0,5.6-4.5,10.1-10.1,10.1c-5.6,0-10.1-4.5-10.1-10.1
		C216.7,277.4,221.2,272.8,226.8,272.8z"/>
	<path class="st6" d="M202.8,312.9c3.2,0,5.8,2.6,5.8,5.8s-2.6,5.8-5.8,5.8c-3.2,0-5.8-2.6-5.8-5.8S199.6,312.9,202.8,312.9z"/>
	<path class="st8" d="M728.8,481.1c3.2,0,5.8,2.6,5.8,5.8c0,3.2-2.6,5.8-5.8,5.8c-3.2,0-5.8-2.6-5.8-5.8
		C723,483.7,725.6,481.1,728.8,481.1z"/>
	<path class="st3" d="M789.7,239c1.4,8.9-4.6,17.2-13.5,18.7c-8.9,1.4-17.2-4.6-18.7-13.5c-1.4-8.9,4.6-17.2,13.5-18.7
		C779.9,224.1,788.3,230.1,789.7,239z"/>
</g>
</svg>
