<svg width="26" height="26" viewBox="0 0 26 26" fill="none" xmlns="http://www.w3.org/2000/svg">
<path fill-rule="evenodd" clip-rule="evenodd" d="M2.93776 14.811C1.68741 16.1039 1.68741 18.2001 2.93776 19.493L7.16554 23.8645C7.25693 23.959 7.37805 24.004 7.49776 23.9995C7.61886 24.0053 7.7418 23.9603 7.83428 23.8647L12.0622 19.493C13.3126 18.2001 13.3126 16.1039 12.0622 14.811C10.8119 13.5182 8.78467 13.8711 7.53431 15.164V15.164C7.51555 15.1834 7.48445 15.1834 7.46569 15.164V15.164C6.21533 13.8711 4.18811 13.5182 2.93776 14.811Z" stroke="#E99F58" stroke-width="2"/>
<path d="M8 15L8.25579 12.9537C8.68095 9.55241 11.5723 7 15 7V7C18.4277 7 21.3191 9.55241 21.7442 12.9537L22.719 20.7519C22.8682 21.9456 21.9374 23 20.7344 23H9" stroke="#E99F58" stroke-width="2"/>
<path d="M18.5883 4.05826C18.2462 5.76875 16.7444 7 15 7V7C13.2556 7 11.7538 5.76876 11.4117 4.05826L11.1987 2.99355C11.0959 2.47955 11.489 2 12.0132 2H17.9868C18.511 2 18.9041 2.47955 18.8013 2.99355L18.5883 4.05826Z" stroke="#E99F58" stroke-width="2"/>
</svg>
