<svg width="26" height="26" viewBox="0 0 26 26" fill="none" xmlns="http://www.w3.org/2000/svg">
<path d="M7 12.5H8M18 12.5H19M24 10.5V14.5C24 15.0523 23.5523 15.5 23 15.5H15.5C14.9477 15.5 14.5 15.0523 14.5 14.5V10.5C14.5 9.94772 14.9477 9.5 15.5 9.5H23C23.5523 9.5 24 9.94772 24 10.5ZM11.5 10.5V14.5C11.5 15.0523 11.0523 15.5 10.5 15.5H3C2.44772 15.5 2 15.0523 2 14.5V10.5C2 9.94772 2.44772 9.5 3 9.5H10.5C11.0523 9.5 11.5 9.94772 11.5 10.5Z" stroke="#D0D0D0" stroke-width="2" stroke-linecap="round"/>
<path d="M3.28872 9C4.86176 5.18511 8.61728 2.5 12.9999 2.5C17.3826 2.5 21.1381 5.18511 22.7112 9M23.3097 15C22.3758 19.8424 18.115 23.5 12.9999 23.5C7.88486 23.5 3.62405 19.8424 2.69019 15" stroke="#D0D0D0" stroke-width="2"/>
<path d="M11 18.5C11 18.5 11.5 19.5 13 19.5C14.5 19.5 15 18.5 15 18.5" stroke="#D0D0D0" stroke-width="2" stroke-linecap="round"/>
<path d="M11 12H15" stroke="#D0D0D0" stroke-width="2"/>
</svg>
