<svg width="27" height="26" viewBox="0 0 27 26" fill="none" xmlns="http://www.w3.org/2000/svg">
<path d="M2.5 16H18.5C20.1569 16 21.5 17.3431 21.5 19V19C21.5 20.6569 20.1569 22 18.5 22H2.5" stroke="#D0D0D0" stroke-width="2" stroke-linecap="round"/>
<path d="M3.5 16C3.5 16 4.5 16.5 4.5 19C4.5 21.5 3.5 22 3.5 22" stroke="#D0D0D0" stroke-width="2" stroke-linecap="round"/>
<path d="M5.5 10H21.5C23.1569 10 24.5 11.3431 24.5 13V13C24.5 14.6569 23.1569 16 21.5 16H5.5" stroke="#D0D0D0" stroke-width="2" stroke-linecap="round"/>
<path d="M6.5 10C6.5 10 7.5 10.5 7.5 13C7.5 15.5 6.5 16 6.5 16" stroke="#D0D0D0" stroke-width="2" stroke-linecap="round"/>
<path d="M3.5 4H19.5C21.1569 4 22.5 5.34315 22.5 7V7C22.5 8.65685 21.1569 10 19.5 10H3.5" stroke="#D0D0D0" stroke-width="2" stroke-linecap="round"/>
<path d="M4.5 4C4.5 4 5.5 4.5 5.5 7C5.5 9.5 4.5 10 4.5 10" stroke="#D0D0D0" stroke-width="2" stroke-linecap="round"/>
</svg>
