<svg width="25" height="24" viewBox="0 0 25 24" fill="none" xmlns="http://www.w3.org/2000/svg">
<path d="M11.5919 1.96866C11.9494 1.19379 13.0506 1.19379 13.4081 1.96866L15.9333 7.44344C16.079 7.75925 16.3783 7.97669 16.7236 8.01764L22.7108 8.72752C23.5582 8.82799 23.8985 9.87537 23.272 10.4547L18.8456 14.5482C18.5902 14.7843 18.4759 15.1362 18.5437 15.4773L19.7187 21.3908C19.885 22.2278 18.994 22.8751 18.2494 22.4583L12.9884 19.5134C12.685 19.3435 12.315 19.3435 12.0116 19.5134L6.75058 22.4583C6.00597 22.8751 5.11501 22.2278 5.28131 21.3908L6.45632 15.4773C6.5241 15.1362 6.40978 14.7843 6.15444 14.5482L1.72797 10.4547C1.10147 9.87537 1.44179 8.82799 2.28918 8.72752L8.27636 8.01764C8.62172 7.97669 8.921 7.75925 9.06667 7.44344L11.5919 1.96866Z" stroke="#D0D0D0" stroke-width="2"/>
</svg>
