<?xml version="1.0" encoding="utf-8"?>
<!-- Generator: Adobe Illustrator 27.2.0, SVG Export Plug-In . SVG Version: 6.00 Build 0)  -->
<svg version="1.1" id="Слой_1" xmlns="http://www.w3.org/2000/svg" xmlns:xlink="http://www.w3.org/1999/xlink" x="0px" y="0px"
	 viewBox="0 0 1000 666.6" style="enable-background:new 0 0 1000 666.6;" xml:space="preserve">
<style type="text/css">
	.st0{fill:#FFFFFF;}
	.st1{fill:#FFECBD;}
	.st2{fill:#121210;}
	.st3{fill:#FEECBE;}
	.st4{fill:#185C59;}
	.st5{fill:#F3EED6;}
	.st6{fill:#125051;}
	.st7{fill:#FFFDF2;}
	.st8{fill:#1F6962;}
	.st9{fill:#FFFCF0;}
	.st10{fill:#FBC453;}
	.st11{fill:#F9F5EB;}
	.st12{fill:#F5DD60;}
	.st13{enable-background:new    ;}
	.st14{fill:#499B89;}
	.st15{fill:#050505;}
</style>
<path class="st0" d="M999.9,0.8c-333.3,0-666.6,0-999.9,0c0.1-0.2-0.3-0.7,0.3-0.7c0.9,0,1.7,0,2.6,0c331.3,0,662.7,0,994,0
	C998,0.2,999.2-0.5,999.9,0.8z"/>
<path class="st1" d="M321.6,555.4c-3.2,1.3-6.6,0.9-9.9,1.2c-16.4,1.2-32.9,1.2-49.4,0.6c-18.1-0.6-36.2-2.2-53.8-7
	c-23.4-6.3-44.4-16.7-60.4-35.3c-11.5-13.3-18.8-28.6-21.1-46.2c-3.8-28.6,4.1-54.5,18.3-78.9c0.3-0.5,0.4-1,0.6-1.5
	c14.7,0,29.5,0,44.2,0l-0.1-0.1c0.4,0.5,0.9,0.9,1.3,1.4l-0.1-0.1c0,0.4,0.1,0.8,0.1,1.2c-0.2,0.5-0.5,1-0.5,1.5
	c0,12.6,0,25.3,0,37.9c0,0.4-0.2,1.2,0.8,0.7c0.7,0.9,0.6,2.2,1.8,2.9l0-0.1c0.2,0.2,0.5,0.5,0.7,0.7l-0.1,0c1.3,1.6,3,1.9,4.9,1.9
	c8.9,0,17.8,0,26.7,0c1.4,0,2.8-0.1,3.8-1.3l-0.1,0c0.5-0.1,1.1,0,1.4-0.7l-0.1,0c0.2-0.2,0.5-0.5,0.7-0.7l-0.1,0.1
	c1.9-1.6,1.9-3.7,1.9-5.9c0.1-12.6,0.1-25.1,0.2-37.7l0,0.1c0.2-0.3,0.3-0.5,0.5-0.8c1.4-1.6,3.3-1.3,5.1-1.4
	c6.2-0.2,12.4,0.6,18.6-0.5c1.1,0,1.9-0.4,2.5-1.3l-0.1,0c0.2-0.3,0.5-0.5,0.7-0.8l0,0.1c0.7-0.5,1.2-1.2,1.1-2.1
	c0.2-9.7,0.3-19.4,0-29.1c-0.3-1.5-1.4-2.4-2.4-3.4c0.3-1.1-0.5-0.4-0.8-0.5l0.1,0c-1.3-1.5-3-1.5-4.7-1.5c-4.9,0-9.8,0-14.6,0
	c-4.2,0-4.7-0.4-4.6-4.6c0.1-5.4,0.6-10.8,0.6-16.2c0.1-22.1,0-44.2,0-66.3c0-13.5,0-27.1,0-40.6c0-1.7,0.1-3.5-1.4-4.8
	c-0.4-0.5-0.7-1.1-1.1-1.6l0.1,0c0-0.2-0.1-0.4-0.3-0.5c-0.2-0.6-0.6-1.1-1.2-1.3c-0.9-0.6-1.8-1.2-2.8-1.8c0.1-0.2,0.2-0.4,0.1-0.6
	c-0.3-1-3.8-1.1-10.5-0.2c6-8.8,23.9-33.5,52.4-50c18-10.4,36.4-15.3,38.9-16c4.7-1.2,9.4-2.2,14.3-3c13.2-2.2,26.4-3,39.7-2.4
	c15.1,0.7,29.8,3.1,43.9,8.9c2.4,1,4.8,1.8,7.2,2.7c7.5,5.4,15.4,10.2,23.7,14.3c0.4,1.6,1.6,1.4,2.8,1.1l0-0.1
	c2.8,3.8,6.5,6.4,10,9.4c4.8,4.1,9.1,8.6,13.6,13c12.4,12.4,24.8,24.7,38.7,35.4c7.5,5.7,15.2,11,23.3,15.9c1,0.6,2.2,1.1,2.3,2.5
	c-0.5,0.9-0.9,1.7-1.4,2.5c-19.6,32.5-39.3,65-58.9,97.5c-2.2,3.8-5.2,7.3-5.6,12c-0.6,9.3-0.3,18.6-0.4,27.9c0,1.5,0.2,3,1.6,4.1
	l0-0.1c0.2,0.2,0.5,0.5,0.7,0.7l-0.1,0c1,1.5,2.6,1.2,4.1,1.2c12.5,0,24.9,0,37.4,0c15.1,0,30.1,0.1,45.2,0.1l-0.1-0.1
	c0.5,0.2,0.9,0.5,1.4,0.7l-0.1-0.1c0.2,0.2,0.4,0.4,0.6,0.6c1,3,0.1,6.2,0.8,9.2c0,1.2,0,2.3,0,3.5c-0.4,1-0.5,1.9,0,2.9l0,0
	c0,0.2,0,0.5,0.1,0.7c0.1,1-0.6,1.6-1.2,2.2c-11.9,13.6-23.8,27.2-35.7,40.8c-15.2,17.3-30.4,34.7-45.7,51.9
	c-2.6,2.9-4.4,7.1-9.1,7.6c-0.7-0.8-1.5-0.5-2.4-0.3c-7.5,2-15.1,3.8-22.6,5.9c-0.8,0.2-2.4-0.3-2.4,1.4c-0.1,0.2-0.2,0.2-0.4,0.1
	c-0.7-0.5-1.4-0.5-2.2-0.3c-11.3,2.6-22.6,5.1-33.9,7.7c-1.1,0.3-2.5,0.4-2.4,2.1l0,0c-0.5,0-0.7,0.2-0.2,0.6c0,0.4,0,0.8,0,1.3
	c-0.7,1.5-1.7,2.5-3.6,2.7c-4.2,0.5-8.4,1.2-12.6,1.8c-4.4-2-8.5-4.5-12.6-7.1c-9.7-6-19-12.6-25.8-22.1c0.1-0.1,0.1-0.3,0.2-0.4
	c-0.2,0-0.3,0-0.5,0l0,0c0.1-0.4-0.1-0.7-0.5-0.9l0,0.1c0.1-1-0.3-1.7-1.4-2l0.1,0.1c0.1-1-0.3-1.8-1.4-2l0.1,0.1
	c0-2.5-1.3-4.1-3.3-5.3l0.1,0.1c-0.1-2.4-1.1-4.2-3.3-5.2l0,0c0.1-1,0.1-2-1.3-2l0,0c0-0.6-0.1-1.2-0.9-1.1l0-0.1c0.5-1,0-1.5-1-1.5
	l0,0c0-1-0.4-1.8-1.5-2c-0.8-0.8-1.6-1.7-2.4-2.5c-1.5-3.4-8.2-6.5-11.7-5.4c-0.4,0-0.9,0-1.3,0c-2-1.9-5.1-1.2-7.1,1.6
	c-0.4,0.4-0.8,0.8-1.2,1.2c-2.5,1.1-2.6,3.5-2.7,5.7c-0.2,6.5,0.5,12.9,1.2,19.3c1.4,13.1,3.9,25.9,8.8,38.1
	c1.5,3.9,2.7,8.2,6.5,10.9C318.3,551,320,553.2,321.6,555.4z M426.5,414.6l0.1-0.2c0.5-0.1,1-0.2,0.7-1l0.1-0.1
	c1.8,0.1,1.9-1.1,1.8-2.4l0.1-0.2c1,0.3,0.9-0.4,0.8-1l0.1,0.2l-0.1-0.1c1.5-0.3,1.9-1.3,1.8-2.7l0.1-0.2c2.3-1.7,3.8-3.9,3.9-6.8
	l0-0.2c3-2.1,3.3-5.8,4.6-8.8c1-2.2,2.7-4.5,2-7.3l-0.1,0c1.6-0.8,1.5-2.5,1.9-3.9c4.2-13.9,6.1-28.2,6.7-42.5
	c0.7-17.6,0.4-35.3-3.2-52.8c-1.2-5.8-1.7-11.7-4.5-17c-0.2-1.3-0.2-2.6-0.8-3.7c-1.4-2.7-1.3-6.2-4.1-8.3l0-0.2
	c-1.4-5.8-3.9-10.9-8.1-15.1l0-0.1c-0.2-0.6,0.3-1.7-1-1.4l-0.1-0.2c0.4-1-0.2-1.2-1-1.5l0,0.1c0-0.6,0-1.2-0.9-1l-0.1-0.1
	c0.3-1-0.3-1.3-1-1.5l0.1,0.1c-0.2-0.2-0.4-0.5-0.6-0.7l0,0c0-0.6,0-1.2-0.9-1l0-0.1c0.1-1.3-0.8-1.8-1.8-2.1
	c-0.2-0.2-0.3-0.4-0.5-0.6c-0.2-0.2-0.5-0.5-0.7-0.7c-0.2-0.2-0.4-0.4-0.6-0.6c0-0.9-0.4-1.4-1.4-1.4c-7.5-6.8-15.5-12.6-25.3-15.5
	c-0.6-0.1-1.3-0.1-1.9-0.2l0,0c-0.6-1.2-1.8-0.3-2.7-0.7l0.1,0c-2-1.3-4.2-1.5-6.6-1.3l0,0c-0.3-0.8-1.1-0.6-1.7-0.7
	c-9.2-1.1-18.5-1-27.6,0.8c-12,2.1-22.5,7.4-31.5,15.4c-16.2,14.5-24.5,33.3-29,54.1c-0.8,4.3-1.6,8.6-2.5,13c0,0.5-0.1,0.9-0.1,1.4
	c-0.2,1.3-0.5,2.5-0.6,3.8c-2,20.2-2.3,40.4,0.6,60.5c1.6,11.3,4.1,22.5,8.5,33.1c4.3,11.8,11,22.1,20.1,30.9c0.3,1.1,0.8,2.1,2.2,2
	l0,0c-0.1,0.5,0.1,0.7,0.6,0.5l0.2,0.1c-0.2,0.9,0.4,0.9,1,0.9l-0.1,0c0.5,1.2,1.2,2,2.6,2l0,0c0.9,1.6,1.9,2.9,4,2.6l0,0
	c0.9,1.8,2.7,2.4,4.3,3.2c18.8,9.6,38.4,10.9,58.5,5.7c4.7-1.2,9.6-2.6,13.2-6.3l0,0c1-0.1,2.2,0,2.3-1.5l0.2-0.1
	c0.9,0.4,1.2-0.3,1.5-1l0,0c1,0,1.7-0.4,2-1.4l0,0c1.4,0,2.1-0.8,2.6-2l0,0c0.6,0,1.2,0,1-0.9l0.1-0.1c1.4,0.3,1.8-0.7,2.1-1.7
	l-0.1,0.1c1.1-0.2,1.7-1,2.1-2c0.6-0.6,1.2-1.2,1.8-1.9c1,0,1.5-0.4,1.3-1.4l0,0.1c1-0.4,2-0.8,1.7-2.1l0.1-0.1
	c0.9,0.2,0.9-0.5,0.9-1c0.2-0.2,0.3-0.4,0.5-0.6C426.3,414.8,426.4,414.7,426.5,414.6z"/>
<path class="st1" d="M855.5,561.9c1.1-3.9,2.3-7.8,3.4-11.7c0.2,0.1,0.4,0.1,0.6,0.2c1.4-4.8,3.8-9.5,4.8-14.3
	c1.7-7.6,2.2-15.5,2.7-23.3c0.7-11.1,1.1-22.2,1.3-33.3c0.4-18-0.3-36.1-0.6-54.1c0-2.4-0.1-4.7,1.7-6.6c5.2-1.9,8.6-5.4,9.3-11.1
	c1-0.5,1.7-0.8,2.6,0.5c11,15.2,19.8,31.5,23.1,50.2c2.6,15.1,1.6,30-2.6,44.7c-5.3,18.8-15.7,34.3-30.1,47.2
	C866.8,554.8,861.8,559.2,855.5,561.9z"/>
<path class="st2" d="M438.1,165.3c-8.3-4.1-16.2-8.9-23.7-14.3c-8.3-6.8-15.7-14.6-20.2-24.5c-9.8-21.4-6.2-41.2,8.3-59
	c13.6-16.7,32.4-25.4,52.8-30.9c18-4.8,36.5-5.6,55-4.4c22.5,1.5,44,7,63.2,19.5c13.8,9,24.4,20.6,28.9,36.8
	c5.2,18.8,0.9,35.6-11.3,50.7c-3.7,4.5-7.9,8.3-12.5,11.8c-1.8,1.4-2.4,2.5-1.3,5c3.5,7.6,7.5,14.9,12,22c0.9,1.4,2.7,2.8,1.5,4.6
	c-1.2,1.8-3.2,0.5-4.7,0.1c-11-2.8-21.2-7.4-30.9-13.1c-3-1.8-5.6-2.1-8.9-0.9c-20.1,7.5-40.9,8.8-62,7.3
	c-14.9-1.1-29.3-4.3-43.2-9.5l0,0.1C440,166,439.1,165.6,438.1,165.3z M585.4,178.4c-5.2-7.7-9-15.7-12.7-23.8
	c-1-2.2-0.8-3.5,1.2-4.9c5-3.3,9.2-7.5,13.3-11.9c13.7-14.6,17.4-36.5,9.3-54.8C589.3,67,576.7,56.4,561.3,49
	c-17.2-8.3-35.5-12.3-54.6-13.2c-20.3-1-40.2,0.9-59.6,7.3c-17.1,5.7-32.5,14.4-43.5,29.1c-9.4,12.6-13.3,26.6-9.6,42.2
	c3.6,15.3,13.3,26.5,25.7,35.6c20,14.6,42.9,20.9,67.2,22.4c21.2,1.3,42.2-0.6,62.2-8.6c1.8-0.7,3.1,0,4.5,0.7
	C563.5,169.9,573.6,175.4,585.4,178.4z"/>
<path class="st1" d="M549.4,554.8c1.2-0.8,2.5-1.4,4-1.3c1.9,0.7,3.3,0.2,4.2-1.7c0,0,0.1,0,0.2,0c0.8,0.5,1.6,0.2,2.5,0
	c9.2-2.9,18.1-6.5,27-10c0.6-0.2,1.1-0.7,1.2-1.4l0,0c3-0.4,6-0.8,8-3.5c0.1-0.2,0.2-0.3,0.5-0.2c1.5,0.8,2.7-0.2,3.9-0.7
	c4.7-2.1,9.4-4.3,14-6.7c1.8-0.9,3.4-1.2,5.2-0.6c0,0-0.1,0,0,0c0.2,0.2,0.5,0.5,0.8,0.7l0-0.1c0,1.1,0.5,1.5,1.5,1.1l0,0
	c0,1.6,1,2.1,2.4,2.2l-0.1,0c0.3,0.2,0.5,0.4,0.8,0.6l-0.1-0.1c0.5,1.5,1.4,2.8,3.3,2.7l-0.1-0.1c0.1,0.4,0.4,0.6,0.8,0.6l-0.1,0.1
	l0.1-0.1c0,1.3,0.8,1.6,1.8,1.5l-0.1,0c0.2,0.2,0.5,0.5,0.8,0.7l-0.1-0.1c0.3,0.2,0.5,0.4,0.8,0.6l-0.1-0.1c0.3,1.4,1.1,2.1,2.6,2.1
	l-0.1-0.1c0.2,0.8,0.6,1.3,1.5,1l0.1,0.1c0.6,2.7,2.7,3.4,4.9,4.2l-0.1,0c0.2,0.2,0.5,0.5,0.8,0.7l-0.1-0.1c0.2,0.8,0.6,1.3,1.5,1.1
	l0.1,0.1c0,0.2-0.1,0.3-0.1,0.5c0.1-0.1,0.3-0.1,0.4-0.2c6.5,5.3,13.1,10.6,19.6,15.9c-0.5,1-1.3,1-2.2,0.9
	c-9.8-0.8-19.5-1.6-29.3-2.4c-6-0.5-12-0.9-18-1.4c-8.7-0.8-17.3-1.7-26-2.4c-6.1-0.5-12.3-0.8-18.4-1.5
	C562.8,556.6,556,556.8,549.4,554.8z"/>
<path class="st3" d="M612.5,251.1c-5.4,10.6-10.8,21.1-16.8,31.3c-0.4-11.1-0.3-22.1,0-33.2c4.7,0.1,9.4-0.3,14.1,0.6
	C610.9,250,611.8,250.2,612.5,251.1z"/>
<path class="st4" d="M100.4,383.8c0.2,0,0.4,0,0.6,0c0.8,1,2,1.9,1.8,3.4C101.4,386.5,100.5,385.3,100.4,383.8z"/>
<path class="st3" d="M235.7,350.6c-0.6-0.7-1.3-1.4-1.9-2c0-27.8,0-55.6-0.1-83.4c0-16.1-0.1-32.2-0.1-48.3c1.6,1.3,1.4,3,1.4,4.8
	c0,13.5,0,27.1,0,40.6c0,22.1,0,44.2,0,66.3c0,5.4-0.5,10.8-0.6,16.2c-0.1,4.3,0.4,4.6,4.6,4.6c4.9,0,9.8,0,14.6,0
	c1.7,0,3.5,0,4.7,1.5c-0.4,0-0.9,0-1.3,0C250,350.7,242.9,350.7,235.7,350.6z"/>
<path class="st5" d="M442.4,383.6c1.1-4.7,2.3-9.4,3.5-14.1c6.6-34.1,6.5-68-3-101.7c0.1-0.1,0.3-0.2,0.4-0.4
	c2.8,5.3,3.3,11.3,4.5,17c3.6,17.4,3.9,35.1,3.2,52.8c-0.6,14.4-2.5,28.7-6.7,42.5C443.9,381.1,444,382.8,442.4,383.6z"/>
<path class="st4" d="M291.1,293.4c1.6,4.2-0.4,8.2-0.4,12.4c-0.1,9.4-1.8,18.6-0.5,28c0.6,4.7,0.3,9.5,0.7,14.2
	c0.9,10.5,2.9,20.9,5.6,31c0.8,3.1,2,6.1,3,9.2c0.3,0.9,1.1,1.8,0,2.7c-4.4-10.6-6.9-21.8-8.5-33.1c-2.9-20.1-2.6-40.3-0.6-60.5
	C290.6,296,290.9,294.7,291.1,293.4z"/>
<path class="st5" d="M302.9,474.8c-1.3,2.2-2,4.6-1.9,7.1c0.6,18.6,3,37,9.5,54.6c1.6,4.3,4,8.3,6.1,12.3c-3.8-2.6-4.9-7-6.5-10.9
	c-4.9-12.2-7.4-25-8.8-38.1c-0.7-6.4-1.4-12.8-1.2-19.3C300.2,478.3,300.4,476,302.9,474.8z"/>
<path class="st5" d="M393.2,437.7c4.6-1,8.7-3.4,13-5.2c-3.6,3.7-8.5,5.1-13.2,6.3c-20.2,5.3-39.8,4-58.5-5.7
	c-1.6-0.8-3.4-1.5-4.3-3.2c5.3,2.7,10.4,5.7,16.2,7.2C361.9,442.2,377.5,442.1,393.2,437.7z"/>
<path class="st4" d="M191.3,389.7c1.9,0.6,1.4,2.2,1.4,3.5c0,10.8,0.1,21.6,0,32.4c0,2.8,0.2,5.6,0.6,8.3c-1.1-0.6-1-2-1.8-2.9
	c-0.1-13.4-0.1-26.8-0.2-40.1C191.3,390.5,191.3,390.1,191.3,389.7z"/>
<path class="st5" d="M434.4,515.6c-11.6,3.1-23.4,5.7-35.2,8.1c-1.1,0.2-2.1,0.9-3.2,1.3c-0.1-1.7,1.2-1.8,2.4-2.1
	c11.3-2.6,22.6-5.1,33.9-7.7C433,515.1,433.7,515.1,434.4,515.6z"/>
<path class="st6" d="M383.5,209.5c-4.1,0.5-8.1-0.7-12.2-0.6c-4.5,0-9,0.5-13.4,1.2c-1.2,0.2-2.6,0.6-3.7-0.4
	c9.2-1.8,18.4-1.9,27.6-0.8C382.5,208.9,383.2,208.7,383.5,209.5z"/>
<path class="st5" d="M462.2,508.5c-9.1,2.6-18.2,5-27.5,6.9c0.1-1.7,1.6-1.1,2.4-1.4c7.5-2.1,15.1-3.9,22.6-5.9
	C460.7,508,461.5,507.8,462.2,508.5z"/>
<path class="st5" d="M395.7,526.8c0.6,2.1-0.1,3.1-2.4,3.3c-3.6,0.4-7.2,1.2-10.8,1.8c-1.1,0.2-2.1,0.1-3-0.6
	c4.2-0.6,8.4-1.4,12.6-1.8C394,529.3,395,528.3,395.7,526.8z"/>
<path class="st5" d="M438.5,255.2c-2.7-5-5.4-10.1-8.1-15.1C434.6,244.3,437.1,249.4,438.5,255.2z"/>
<path class="st5" d="M435.9,399.7c2.2-5.4,4.4-10.7,6.6-16.1c0.7,2.8-1,5.1-2,7.3C439.2,393.9,438.9,397.6,435.9,399.7z"/>
<path class="st5" d="M324.2,477.5c-3.5-2.7-7.3-4.7-11.7-5.4C316,471.1,322.8,474.2,324.2,477.5z"/>
<path class="st4" d="M293.7,279.1c0.7,0.6,0.7,1.3,0.5,2c-0.6,3.2-1.3,6.4-1.9,9.6c-0.1,0.7-0.4,1.2-1.1,1.3
	C292.1,287.8,292.9,283.4,293.7,279.1z"/>
<path class="st5" d="M440.7,261.6c-0.7-2.1-1.5-4.1-2.2-6.2c2.8,2.1,2.7,5.6,4.1,8.3c0.6,1.1,0.5,2.5,0.8,3.7
	c-0.1,0.1-0.3,0.2-0.4,0.4C442.2,265.7,441.4,263.6,440.7,261.6z"/>
<path class="st5" d="M311.2,472.1c-2.5,0-4.9,0.2-7.1,1.6C306.1,470.9,309.2,470.2,311.2,472.1z"/>
<path class="st5" d="M432,406.7c1.3-2.3,2.6-4.5,3.9-6.8C435.7,402.8,434.2,405,432,406.7z"/>
<path class="st6" d="M390.1,210.8c-2.3,0.1-4.5-0.2-6.6-1.3C385.8,209.2,388,209.5,390.1,210.8z"/>
<path class="st5" d="M334.6,491.8c-1.4-1.6-2.4-3.4-3.3-5.2C333.5,487.6,334.5,489.5,334.6,491.8z"/>
<path class="st5" d="M337.8,497c-1.4-1.6-2.5-3.3-3.3-5.3C336.5,492.9,337.8,494.6,337.8,497z"/>
<path class="st5" d="M326.2,427.2c1.3,0.9,2.6,1.7,4,2.6C328.1,430.1,327.1,428.8,326.2,427.2z"/>
<path class="st5" d="M427.4,413.3c0.6-0.8,1.2-1.6,1.8-2.4C429.3,412.1,429.2,413.3,427.4,413.3z"/>
<path class="st5" d="M319.7,421.8c0.7,0.7,1.5,1.4,2.2,2C320.5,423.8,320,422.9,319.7,421.8z"/>
<path class="st5" d="M323.6,425.3c1,0.5,2,1.1,2.6,2C324.9,427.3,324.1,426.5,323.6,425.3z"/>
<path class="st7" d="M438.1,165.3c0.9,0.4,1.9,0.8,2.8,1.1C439.8,166.7,438.6,166.9,438.1,165.3z"/>
<path class="st5" d="M412,428.6c0.6-1,1.6-1.5,2.6-2C414.2,427.8,413.5,428.6,412,428.6z"/>
<path class="st5" d="M430.1,409.6c0.6-0.9,1.2-1.8,1.8-2.7C432,408.3,431.6,409.3,430.1,409.6z"/>
<path class="st5" d="M417.8,424c0.5-0.9,1.2-1.5,2.1-2C419.5,423,418.9,423.7,417.8,424z"/>
<path class="st5" d="M331.3,486.6c-0.8-0.4-1-1.2-1.3-2C331.5,484.6,331.4,485.6,331.3,486.6z"/>
<path class="st5" d="M415.8,425.6c0.6-0.8,1.2-1.4,2.1-1.7C417.5,424.9,417.1,425.9,415.8,425.6z"/>
<path class="st5" d="M423,418.8c0.6-0.7,1.1-1.4,1.7-2.1C425,418,424,418.4,423,418.8z"/>
<path class="st5" d="M406.2,432.5c0.8-0.5,1.5-1,2.3-1.5C408.4,432.5,407.2,432.3,406.2,432.5z"/>
<path class="st6" d="M261.1,383.8c0.2,0,0.3,0,0.5,0c0,0.9-0.4,1.6-1.1,2.1C260.4,385,260.3,384.3,261.1,383.8z"/>
<path class="st5" d="M424.8,232.5c-0.6-0.7-1.2-1.4-1.8-2.1C424,230.8,425,231.2,424.8,232.5z"/>
<path class="st6" d="M392.7,211.4c-0.9,0-2,0.4-2.7-0.7C390.9,211.1,392,210.3,392.7,211.4z"/>
<path class="st5" d="M328.1,482c-0.5-0.6-1-1.3-1.5-2C327.7,480.3,328.1,481,328.1,482z"/>
<path class="st5" d="M340.4,500.9c-0.8-0.4-1.2-1.1-1.4-2C340.1,499.2,340.5,499.9,340.4,500.9z"/>
<path class="st5" d="M339.1,499c-0.8-0.5-1.2-1.1-1.4-2C338.8,497.2,339.2,497.9,339.1,499z"/>
<path class="st5" d="M410.1,429.9c0.5-0.7,1.2-1.1,2-1.4C411.8,429.5,411.1,429.9,410.1,429.9z"/>
<path class="st5" d="M421.7,420.1c0.5-0.5,0.9-0.9,1.3-1.4C423.2,419.7,422.7,420.1,421.7,420.1z"/>
<path class="st5" d="M429.2,238.4c-0.3-0.5-0.6-1-1-1.5C429,237.1,429.7,237.4,429.2,238.4z"/>
<path class="st5" d="M408.6,430.8c0.5-0.3,1-0.6,1.5-1C409.9,430.5,409.6,431.2,408.6,430.8z"/>
<path class="st6" d="M394.5,211.6c-0.7,0.8-1.4,0.7-1.9-0.2C393.2,211.5,393.9,211.5,394.5,211.6z"/>
<path class="st4" d="M190,388.4c1-0.1,1.4,0.4,1.3,1.4C190.9,389.3,190.5,388.9,190,388.4z"/>
<path class="st5" d="M329.1,483.5c-0.3-0.5-0.7-1-1-1.5C329.1,482.1,329.5,482.5,329.1,483.5z"/>
<path class="st5" d="M427.4,235.8c-0.4-0.5-0.7-1-1-1.5C427,234.5,427.7,234.8,427.4,235.8z"/>
<path class="st5" d="M421.2,228.5c-0.5-0.4-0.9-0.9-1.4-1.4C420.8,227.1,421.2,227.6,421.2,228.5z"/>
<path class="st5" d="M430.4,240c-0.3-0.5-0.7-0.9-1-1.4C430.7,238.3,430.2,239.4,430.4,240z"/>
<path class="st3" d="M259.2,351.2c-0.3-0.2-0.5-0.3-0.8-0.5C258.7,350.8,259.5,350.2,259.2,351.2z"/>
<path class="st5" d="M424.8,416.6c0.3-0.3,0.6-0.7,0.9-1C425.7,416.1,425.7,416.8,424.8,416.6z"/>
<path class="st5" d="M414.6,426.6c0.3-0.3,0.6-0.6,1-0.9C415.9,426.6,415.2,426.6,414.6,426.6z"/>
<path class="st5" d="M322.7,424.4c0.3,0.3,0.6,0.6,1,0.9C323.1,425.3,322.5,425.3,322.7,424.4z"/>
<path class="st4" d="M233.3,390.4c0.1-0.3-0.7-1.2,0.5-0.8C233.6,389.9,233.4,390.2,233.3,390.4z"/>
<path class="st5" d="M425.7,233.6c-0.3-0.3-0.6-0.7-0.9-1C425.7,232.4,425.7,233.1,425.7,233.6z"/>
<path class="st5" d="M330,484.6c-0.3-0.4-0.6-0.7-0.9-1.1C330,483.5,330,484,330,484.6z"/>
<path class="st5" d="M429.3,410.6c0.3-0.3,0.5-0.7,0.8-1C430.2,410.2,430.4,410.9,429.3,410.6z"/>
<path class="st5" d="M428.3,236.9c-0.3-0.3-0.6-0.7-0.9-1C428.3,235.7,428.3,236.3,428.3,236.9z"/>
<path class="st4" d="M229.2,435.2c0.2-0.7,0.8-0.7,1.4-0.7C230.4,435.2,229.7,435.1,229.2,435.2z"/>
<path class="st5" d="M426.6,414.4c0.2-0.3,0.5-0.6,0.7-1C427.6,414.1,427.1,414.2,426.6,414.4z"/>
<path class="st6" d="M259.9,386.5c0.2-0.3,0.5-0.5,0.7-0.8C260.3,386,260.1,386.3,259.9,386.5z"/>
<path class="st5" d="M426.4,234.3c-0.2-0.2-0.4-0.5-0.6-0.7C425.9,233.9,426.2,234.1,426.4,234.3z"/>
<path class="st6" d="M464.1,386.4c0.2,0.2,0.5,0.5,0.7,0.7C464.6,386.9,464.3,386.6,464.1,386.4z"/>
<path class="st4" d="M230.6,434.6c0.2-0.2,0.5-0.5,0.7-0.7C231,434.1,230.8,434.4,230.6,434.6z"/>
<path class="st4" d="M193.3,433.9c0.2,0.2,0.5,0.5,0.7,0.7C193.8,434.4,193.5,434.1,193.3,433.9z"/>
<path class="st5" d="M426.2,414.9c0-0.2,0.1-0.3,0.2-0.3C426.4,414.7,426.3,414.8,426.2,414.9z"/>
<path class="st4" d="M232.6,215.3c-0.1-0.1-0.3-0.2-0.4-0.3c0.1-0.1,0.1-0.2,0.2-0.2C232.5,214.9,232.6,215.1,232.6,215.3z"/>
<path class="st5" d="M422.5,229.8c-0.2-0.2-0.5-0.5-0.7-0.7C422,229.3,422.2,229.6,422.5,229.8z"/>
<path class="st5" d="M396,525c0,0.2-0.1,0.4-0.2,0.6C395.3,525.1,395.5,525,396,525z"/>
<path class="st5" d="M322,423.8c0.2,0.2,0.4,0.3,0.6,0.5C322,424.5,321.9,424.3,322,423.8z"/>
<path class="st5" d="M341.2,502.1c-0.2,0-0.3-0.2-0.3-0.4c0.2,0,0.3,0,0.5,0C341.3,501.9,341.2,502,341.2,502.1z"/>
<path class="st5" d="M340.9,501.7c-0.2-0.3-0.3-0.6-0.5-0.9C340.8,501,341,501.3,340.9,501.7z"/>
<path class="st8" d="M553.9,405.3c0.2,0,0.5,0,0.8,0c-0.2,0.2-0.5,0.5-0.7,0.8C554,405.8,554,405.5,553.9,405.3z"/>
<path class="st9" d="M876.8,384.7c-25.6-14.5-52.6-15.4-80.6-11c-0.2-6.4,0.7-13,1.4-19.5c1.4-12.3,3.4-24.4,7-36.3
	c0.8-2.4,1.5-4.9,2.3-7.3c0.5-1.5,0.5-2.6-1.1-3.1c-1.5-0.5-2,0.8-2.4,2c-3.7,10.3-6.1,21-7.8,31.7c-2.8,17.7-3.8,35.6-4,53.6
	c0,1.5-0.3,2.9,1.3,4c1.3,0.9,0.7,2.6,0.5,4c-1.2,8.7-2.5,17.5-3.8,26.2c-0.3,2-0.9,2.6-3.2,2c-25.2-6.5-50.5-12.6-75.9-18.3
	c-5.9-1.3-11.8-2.4-17.7-3.3c-1.9-0.3-2.4-1-3-2.7c-5.1-15.7-8.3-31.9-11.1-48.1c-2.2-13-3.8-26-5.7-39c-0.4-2.7-0.5-5.4-0.8-8
	c-0.1-1.4-0.6-2.6-2.3-2.4c-1.6,0.2-1.6,1.5-1.5,2.8c1.6,12.3,3.2,24.5,5,36.8c0.4,2.7,0,4.6-2.6,6.1c-4.3,2.6-8.4,5.6-12.5,8.5
	c-1.9,1.4-2.5,1-3-1.2c-3.2-12.2-8.6-23.5-17.1-32.8c-4.3-4.6-4.9-8.7-3.2-14.2c1.4-4.4,1.9-9,2.9-13.5c0.3-1.3,0.6-2.7,1.9-3.6
	c11.8-8.8,22.9-18.6,36.3-25.3c9.2-4.6,19.2-6.6,29.2-8.4c1.1-0.2,1.4,0.3,1.4,1.1c0.1,1,0,2,0,2.9c0,11.1,6.2,19.4,17.1,22.4
	c13.8,3.7,25.8-0.7,36.9-8.7c7-5.1,11.9-11.8,15.6-19.5c0.8-1.6,1.6-2.8,3.6-2.3c15.6,4.4,31.5,7.8,46.7,14
	c24.6,10.1,39.6,28,45.5,53.8c3.7,16.3,5,32.8,5.2,49.4c0,1,0,2-0.1,2.9C877.3,381.9,877,383.2,876.8,384.7z"/>
<path class="st9" d="M812.9,398.7c14.8-0.2,29.5,1.4,43.5,6.5c2.7,1,5.3,2.3,7.9,3.5c1.2,0.5,1.8,1.3,1.5,2.8
	c-4.5,17-8.3,34.3-15.5,50.5c-4.1,9.3-8.9,18.1-16.9,24.8c-8.1,6.8-17.3,9.3-27.7,7.7c-22.7-3.5-42.5-14.2-62.1-25.3
	c-12.3-7-24.3-14.6-36-22.7c-0.7-0.5-1.5-1.1-2.6-0.9c-7.6,1.4-15.1,0.3-22.3-2c-8.3-2.6-15.6-1.4-22.5,3.8c-4,3-7.8,6.1-12.3,8.2
	c-1.5,0.7-3.4,1.9-4.8,0.2c-1.2-1.5-0.3-3.2,0.8-4.7c5.6-7.4,12.2-13.7,21.3-16.7c1.5-0.5,4.1-0.7,3.3-2.9c-0.7-2-2.9-0.9-4.5-0.4
	c-5.8,1.7-10.8,4.7-15,9.1c-3.3,3.5-6.7,6.8-10.1,10.1c-1.5,1.5-3,2.5-5.1,1c-2.4-1.7-1.1-3.5-0.1-5c5.9-8.4,12.1-16.5,22.2-20.4
	c0.5-0.2,1-0.4,1.5-0.7c0.9-0.5,1.8-1.1,1.4-2.2c-0.4-1.2-1.6-1.4-2.7-1c-4.1,1.4-7.9,3.4-11.3,6c-5.1,4-9.2,8.7-12.7,14.1
	c-1.2,1.8-2.5,4.5-5.1,3.2c-2.7-1.3-1.2-4.1-0.4-6.1c3.2-8.3,9.4-14.2,16.9-18.5c7-4,14.2-7.9,22.2-8.9c8-1.1,16.3-0.9,24.3,0.5
	c35.4,6.2,70.1,15,104.7,24.5c3.4,0.9,6.7,2.3,10,3.5c1.2,0.4,2.4,0.9,3.1-0.5c0.8-1.6-0.5-2.5-1.7-3c-3.6-1.4-7.2-2.8-10.9-3.9
	c-1.9-0.5-2.5-1.4-2.2-3.1c1.5-9.5,3.1-18.9,4.3-28.4c0.3-2.5,1.5-3.1,3.5-3.1C804.9,398.7,808.9,398.7,812.9,398.7z"/>
<path class="st9" d="M733.2,288.2c-7.2,0.2-13.3-1.9-18.3-7.3c-2.8-3-4.5-6.2-4.3-10.4c0.1-3.3-0.1-6.7-0.6-10
	c-0.3-1.8,0-2.2,1.7-2.5c4.2-0.6,8.5-1.3,12.5-2.8c6.2-2.3,11.6-5.6,16-10.5c0.9-1,2.9-2,1.2-3.6c-1.5-1.4-2.8-0.1-3.8,1.1
	c-5.5,5.9-12.5,9.6-20.3,11.1c-10.4,2.1-20.8,2.4-30-4.2c-7.7-5.6-11.3-13.7-13.5-22.5c-2.8-11.1-5.2-22.4-5.4-33.9
	c0-1.3-0.5-2.5-0.8-3.8c-0.1-0.6-0.7-1.4-0.5-1.8c2.5-5.5-0.2-11-0.1-16.4c0-1.4,0.6-1.9,1.8-2.1c15.7-1.7,29.2-8.3,41.2-18.1
	c1.9-1.6,2.7-1.4,3.9,0.8c7.4,12.5,18.3,21.2,31.3,27.6c3.5,1.8,7.3,3.1,10.5,5.6c1.3,1,2.3,0.6,3.1-0.8c1.2-2.1,2.6-4,4.5-5.5
	c5.6-4.3,11-2.5,12.8,4.2c2.4,8.8-3.7,21-12,24.1c-1.7,0.6-3.5,1.1-5.2,0c-1.2-0.8-2-0.4-2.7,0.7c-0.7,1.1-0.1,2,0.8,2.4
	c2,0.8,1.8,2.3,1.9,4c0.6,10.4,1.3,20.9,4.5,30.9c1.7,5.3,3.7,10.4,9.2,12.9c1.2,0.5,1.3,1.3,0.8,2.6
	C766.6,276.3,750.2,288.4,733.2,288.2z M690.7,207.5c-0.9,5.4,4,10.6,11.1,8c1.7-0.6,4.4-1.3,3.5-3.6c-1-2.6-3-0.5-4.6,0.2
	c-3.6,1.5-6.5-0.4-6.4-4.4c0-1.9,0.6-3.8,1.3-5.6c2.1-4.9,4.3-9.8,5.3-15.1c0.2-1.2,0.4-2.5-1.1-2.9c-1.6-0.4-2.4,0.6-2.6,2.1
	c-0.6,3.9-2.2,7.5-3.7,11.2C692.2,200.6,690.4,203.8,690.7,207.5z M704.3,227c-3.4,0.1-6.4,1.2-9,3.2c-1.1,0.9-1.9,1.9-1,3.3
	c1,1.4,2.1,0.6,3.1-0.1c4.6-3.5,9.4-2.9,14.2-0.7c0.9,0.4,1.7,0.9,2.5,1.3c1.1,0.5,2.4,1,3.1-0.3c0.7-1.2-0.1-2.2-1.2-2.9
	C712.4,228.6,708.5,227.3,704.3,227z M687.4,191.2c0-2.7-2-5-4.4-5.1c-2.5-0.1-4.6,2.3-4.6,5.1c0,2.8,1.9,5,4.3,5.1
	C685.2,196.5,687.5,193.9,687.4,191.2z M715.1,172.4c-2.1,0.1-4.2-0.5-4.4,1.5c-0.3,2.1,2.1,1.9,3.3,2.1c4.3,0.6,8.2,2.3,12,4.3
	c1.2,0.7,2.1,0.4,2.8-0.5c0.8-1.1-0.2-1.9-0.9-2.4C723.8,174.9,719.4,173,715.1,172.4z M714.6,190.2c0,3.4,1.5,5.6,3.7,5.7
	c2.3,0,4.1-2.4,4.1-5.3c0-2.8-1.6-4.5-4.2-4.5C715.1,186,714.8,188.1,714.6,190.2z M687.4,173.1c-4,0.9-8.3,1.6-11.8,4.4
	c-0.9,0.7-1.8,1.5-1.1,2.7c0.7,1.2,2,1,2.9,0.5c3.3-2.1,6.9-3.3,10.8-3.8c1.1-0.1,2-0.9,1.8-2.3
	C689.8,173.2,688.7,173.1,687.4,173.1z M762.5,189.3c-0.4,1.8-0.3,2.6,0.6,3.1c1,0.5,1.7-0.1,2.2-0.9c1.2-1.7,2.5-3.5,3.6-5.3
	c0.5-0.8,0.7-1.7-0.1-2.4c-0.8-0.7-1.8-0.7-2.6,0.1C764.3,185.7,763,187.7,762.5,189.3z"/>
<path class="st9" d="M663.6,188.7c2.1,3.5,1.1,6.1-1.8,8.4c-3.7,3-7.1,6.4-11.1,9c-4.3,2.8-4.9,6.5-3.9,10.9c1.3,6,3.2,11.8,3,18.1
	c-0.2,3.8-0.7,7.4-2.3,10.9c-3.9,8.5-4.9,17.7-6.8,26.7c-5.4,25.8-11,51.5-17.2,77.1c-1.2,5-2.5,9.9-4.1,14.8
	c-0.3,1-1.4,2.9,0.8,3.5c2,0.5,2.4-1.1,2.8-2.4c1.3-4.4,2.5-8.8,3.9-13.6c2.8,3.5,4.5,7.3,6,11.2c1.5,4,2.6,8.1,4.1,12.1
	c0.7,1.8-0.1,2.3-1.2,3.3c-5.4,4.9-10.4,5.6-17.6,2.3c-16.4-7.5-32.1-5-45.8,7.1c-1.4,1.2-2,0.6-2.8-0.3c-5.7-6.4-7.2-14-6.5-22.2
	c1-11.8,6-22.2,11.2-32.6c14.5-29.5,30.4-58.2,45.7-87.3c1-1.9,1.5-3.7,1.4-5.8c-0.1-7.3-0.5-14.6,0-21.8c0.8-11,2.9-21.9,10.8-30.2
	c7.9-8.3,18.2-13.1,28.4-17.9c0.8-0.4,2.1-1.2,2.9,0.2c0.7,1.2,0,2.2-0.9,3.1c-1.7,1.6-3.7,2.6-5.7,3.7c-8.3,4.9-16.5,9.8-23.1,17
	c-0.4,0.5-1,0.9-1.3,1.4c-0.7,0.9-1.4,1.7-0.3,2.8c1.2,1.3,2.2,0.5,3-0.4c4-4.2,8.2-8.1,13.1-11.1c3.9-2.4,7.8-4.9,11.8-7.3
	c1.5-0.9,3.2-2.5,4.8-0.6c1.8,2.2-0.1,3.8-1.5,5.2c-4,3.7-8.4,6.7-12.8,9.9c-4.5,3.2-8.9,6.5-12.2,11.1c-0.8,1.1-1.5,2.2-0.1,3.4
	c1.4,1.1,2.3-0.1,3-0.9c4.1-5.9,10.3-9.4,15.9-13.6C659.1,192.1,661.3,190.4,663.6,188.7z"/>
<path class="st10" d="M418.6,558.4c6-4.1,11.6-8.8,17.3-13.4c0.3-0.3,0.6-0.5,1-0.8c0,0-0.1,0.1-0.1,0.1c0.3-0.2,0.5-0.5,0.8-0.7
	l-0.1,0.1c0.2-0.2,0.5-0.5,0.8-0.7l-0.1,0.1c0.2-0.2,0.5-0.5,0.7-0.7l-0.1,0.1c0.2-0.2,0.5-0.5,0.7-0.7l-0.1,0
	c0.9,0,1.4-0.4,1.4-1.3l0,0c1.3,0,2-0.6,2-2l0,0c0.6-0.1,1.2,0,0.9-0.9c0,0,0.2-0.2,0.2-0.2c0.5,0.2,0.6,0.1,0.4-0.4
	c0,0,0.2-0.2,0.2-0.2c0.9,0.4,0.9-0.3,1-0.9l0,0c1.4-0.1,2.1,1.5,3.5,1.3c0.2,0.2,0.3,0.3,0.5,0.5c0.2,0.3,0.5,0.5,0.7,0.8
	c0,0-0.1-0.1-0.1-0.1c0.2,0.2,0.5,0.5,0.7,0.7l-0.1-0.1c0.2,0.2,0.5,0.5,0.7,0.7l-0.1-0.1c0.3,0.2,0.6,0.5,0.9,0.7
	c9.9,9.2,19.9,18.3,29.8,27.5c1.5,1.4,0.3,2.2-0.5,3.1c-2.6,1.7-4.2,4-3.5,7.2c0.9,4.9,0.8,9.6-0.6,14.4c-0.4,1.6-1.1,2.2-2.8,2.5
	c-5.1,0.7-10.2,0.3-15.2,0.7c-7.9,0.6-15.9,0.2-23.8,2.3c-6.6,1.8-13.5,3-20.4,3.3c-14.1,0.6-28.1,0-41.8-3.6
	c-4.3-1.1-8.2-3.4-12.6-4c0,0,0.1,0.1,0.1,0.1c-0.2-0.7-0.8-0.8-1.4-0.7l0.1,0c-0.6-1.5-1.9-1.9-3.3-2l0.1,0.1
	c-0.8-1.6-2-2.7-3.9-2.7c-3-1.6-3-3.5-1.3-6.2c3.5-5.6,8.4-8.7,15-9.3c2.6,1.4,5.2,0.2,7.8-0.1c9.7-1,19.4-2.7,28.6-6
	c2.5-0.9,5.5-1.2,7.1-3.9l-0.1,0.1c0.6,0.1,1.2,0,1.4-0.7l-0.1,0.1c2.7-0.1,5-1,6.6-3.3l-0.1,0.1
	C417.9,559.3,418.4,559.1,418.6,558.4z"/>
<path class="st10" d="M350,517c7.7,5.9,16,11,24.4,16c0.3,1.5,1.4,1.7,2.7,1.5l-0.1-0.1c0.8,1.9,2.5,2.1,4.3,2.1
	c4,0.1,7.9-1,11.7-1.6c2.2-0.4,3.8-0.5,4.4,2.1c0.1,0.6,0.4,1.2,1.2,1.4l-0.1-0.1c0.2,3,0.5,6,2.9,8.2c0.1,0.1,0,0.2-0.1,0.3
	c-0.6,1.4-0.1,2.5,1.1,3.3l-0.1-0.1c-0.5,2.4,0.8,4.5,1.4,6.6c0.8,2.6,0.1,3.8-2.3,4.6c-8.5,3-17.1,5-26,5.9
	c-0.7,0.1-1.7-0.2-1.1,1.1c-4.8,0.6-9.7,0.7-14.3,2.2c-7.7,2.5-12.2,8-14.5,15.6c-0.4,1.4,0.2,2.5,0.1,3.8c-0.8,1.3-0.2,2,1.1,2.2
	c0,0,0,0.1,0,0.1c-0.2,0.5,0,0.7,0.5,0.8l-0.1-0.1c0.2,0.3,0.4,0.5,0.7,0.8l0-0.1c0,0.6,0,1.2,1,0.9l0.1,0.2c-0.4,1.1,0,1.5,1.1,1.1
	l0.2,0.2c-0.4,0.9,0.3,0.9,0.9,1l0,0c0.4,1.8,1.7,2.4,3.4,2.6l0,0c-0.2,0.4-0.3,1-0.6,1.1c-3.1,1.3-6.4,1.7-9.7,2.4
	c-1.2,0.3-1.3-0.9-1.5-1.6c-1.4-5-2.6-10-4-14.9c-0.3-1,0-2.5-1.7-2.7c0,0,0.1-0.2,0.1-0.2c0.6-3.3-1-6.2-1.8-9.2
	c-0.6-2.4-1.3-4.4,1.4-6l-0.1,0.1c2.4-1,2.6-1.8,1-3.7h0.1c0.5-1.3,0.3-2.3-1.2-2.8l0.1,0.1c-0.1-1.9-0.9-3.3-2.8-4
	c-6.5-8.1-12-16.8-15.3-26.7c1.1-1.5,0.2-2.4-0.9-3.2l0.1,0.1c0.1-0.8,0.3-1.6-0.7-2.1l0,0.1c0.1-1.2,0-2.3-0.3-3.5
	c-1.8-7.1-3.5-14.2-4.3-21.5c-0.8-7.2-1.6-14.5-2.9-21.7c-0.5-3.1,0.9-3.2,2.9-2.7c2.5,0.6,4.9,1.6,7.3,2.4l-0.1-0.1
	c0.2,0.8,0.5,1.5,1.5,0.9l0.2,0.2c-0.2,0.5-0.1,0.7,0.4,0.4c0.1,0,0.2,0.1,0.2,0.2c-0.2,0.5-0.1,0.6,0.4,0.4c0.1,0,0.2,0.1,0.3,0.2
	c-0.5,1.5,0.6,1.8,1.6,2.2l-0.1-0.1c-0.1,1.5,0.8,2.2,2,2.7l-0.1-0.1c0,0.6,0.1,1.2,0.9,1.2l-0.1-0.1c0,0.4,0.1,0.7,0.5,0.9l0-0.1
	c0.1,1.4,0.5,2.7,2,3.3l-0.1-0.1c0.5,1.8,0.6,3.8,2.8,4.5l0,0c-0.4,1.2,0.1,1.9,1.3,2l-0.1-0.1c-0.1,0.6-0.2,1.3,0.9,1.1
	c0,0-0.1,0.2-0.1,0.2c-0.1,0.5,0.2,0.7,0.6,0.9c1.6,2.3,3.3,4.6,5,6.9c0.2,0.3,0.5,0.6,0.7,0.9l-0.1-0.1c0.2,0.2,0.5,0.5,0.7,0.7
	l0-0.1c0.1,0.6,0,1.3,0.9,0.8c0.1,0.1,0.2,0.1,0.2,0.3c0,0.1,0,0.3-0.1,0.4c0.1,0,0.3-0.1,0.4-0.1c0.2,0,0.3,0.1,0.3,0.2
	c-0.2,1.8,0.7,2.5,2.4,2.4l0.2,0.2c-0.3,1.1,0,1.5,1.1,1.1c0.1,0,0.2,0.2,0.2,0.3c0,0.2-0.1,0.3-0.1,0.4c0.1,0,0.3-0.1,0.4-0.1
	c0.2,0,0.3,0.1,0.3,0.2c-0.4,1,0.3,0.9,0.9,0.9c0,0-0.1,0-0.1,0c0.2,0.2,0.5,0.5,0.8,0.7l-0.1-0.1C349.3,516.5,349.7,516.8,350,517z
	"/>
<path class="st9" d="M860.6,530.8c-18.9-11.7-37.6-22.6-57.8-32.6c1.6,0,2.4-0.1,3.2,0c13.7,2.1,24.7-3,33.9-12.7
	c9-9.5,13.8-21.4,18.1-33.4c1.9-5.3,3.7-10.6,5.2-16C863,467.7,864.6,499.2,860.6,530.8z"/>
<path class="st9" d="M874,410.7c-12.5-9.5-26.7-12.8-41.5-14.6c-11.3-1.4-22.7-1.8-34-0.6c-2.2,0.2-3.5,0-3.2-2.9
	c0.4-3.6,0.2-7.4,0.2-11c0-2.5,0.8-3.8,3.5-4.4c12.4-2.5,24.9-2.5,37.4-1.3c10.7,1,20.9,3.4,30.6,7.9c0.1,0,0.2,0,0.3,0.1
	c9.8,4.6,10.4,5.9,8.4,16.7C875.3,403.8,874.9,407.1,874,410.7z"/>
<path class="st3" d="M656.7,404.6c-8.3-6.3-16.5-12.7-26.3-17.8c14.9-10.1,29.5-20,44.4-30.1c1,5.6,1.9,10.8,2.8,16
	c-0.9,1-0.7,2.3-0.4,3.4c2.3,9.5,4.3,19.1,7.4,28.4c0.7,2.2,0.2,2.6-2,2.7c-7.3,0.1-14.7-0.8-22,0.8l0,0c-0.2-1.1-0.5-2.1-2-1.6
	c-0.2,0-0.3-0.1-0.3-0.3c0.4-0.9-0.3-0.8-0.8-0.9l0.1,0C657.2,405.1,657,404.9,656.7,404.6z"/>
<path class="st3" d="M653,283.2c-4.1,3.2-8.2,6.5-12.9,10.1c1.9-9.2,3.6-17.8,5.4-26.3c0.8-4,1.1-8.2,2.8-12.1
	c1.5-1,1.3-2.5,1.3-3.9l0,0.1c9.5,1.8,19,3.3,28.5,5.3c6.9,1.5,13.9,2.6,20.6,5.2c-0.4,0.5-0.9,0.6-1.4,0.5
	c-1.1-0.9-2.2-0.5-3.4-0.2c-3.2,0.9-6.5,1.7-9.6,2.8c-2,0.7-4.5,0.6-5.8,2.8l0.1,0c-0.7,0-1.7-0.6-1.6,0.9l-0.3,0.1
	c-1.8-0.5-3,0.1-3.7,1.8c0,0-0.1,0.1-0.1,0.1c-1.2-0.6-1.8,0-2.2,1l0,0c-2.1-0.1-3.5,1-4.6,2.7l0,0c-1-0.1-1.8,0.3-2,1.3l0,0
	c-1-0.1-1.7,0.3-2,1.3l0,0c-3.1,0.8-5.4,2.6-7.2,5.2l0,0C653.9,281.7,653.2,282.1,653,283.2z"/>
<path class="st9" d="M698.7,261.6c-6.6-2.6-13.7-3.7-20.6-5.2c-9.4-2-19-3.6-28.5-5.3c0.9-3.3,1.9-6.6,3.9-9.4
	c6-8.4,9.2-18,12.4-27.6c0.1-0.4,0.3-0.8,0.5-1.2c0.1-0.2,0.3-0.3,0.6-0.5c1.8,9.1,3.3,18.2,7.5,26.6c5.9,12,15.6,18.5,29,19.3
	c1.1,0.1,2.4-0.1,2.6,1.3c0.1,1.6-1.3,1.2-2.3,1.4C702.1,261.1,700.4,261.4,698.7,261.6z"/>
<path class="st11" d="M798.5,582.8c-10.4-0.4-19.9-4-29-8.7c-17.3-8.8-33-20.2-48.3-32.2c-16.1-12.5-31.9-25.6-47.3-39
	c-0.9-0.8-2-1.5-0.7-2.8c1.4-1.5,2.1,0,2.9,0.7c17.4,14.8,34.8,29.5,53,43.3c15.5,11.7,31.3,22.8,49.2,30.6
	c6.2,2.7,12.6,4.7,19.6,4.9c8.8,0.3,16.2-3,22.7-8.6c6.1-5.2,10.5-11.6,13.8-18.9c0.6-1.3,0.5-2.3-0.5-3.4
	c-4.1-4.5-7.8-9.3-12.4-13.3c-1-0.9-1.9-1.9-1-3c0.9-1.2,2.1-0.4,3,0.5c5.1,4.9,9.7,10.2,14.2,15.6c0.6,0.7,1,1.3,0.5,2.3
	c-6.2,14.8-15.5,26.6-31.7,31.1C804,582.6,801.3,583.1,798.5,582.8z"/>
<path class="st9" d="M632.4,327.9c6,6.2,10.4,12.9,14,20.1c2.7,5.5,4.7,11.2,6.2,17.1c0.4,1.6,0.2,2.2-1.1,3.1
	c-3.1,1.9-6.1,4-9.1,6.1c-1.7,1.2-2,0.5-2.5-1c-1.8-6.5-3.2-13.3-7.3-18.6c-4.8-6.1-4.2-12-2.1-18.5
	C631.3,333.7,631.7,331,632.4,327.9z"/>
<path class="st11" d="M614,438.1c-0.3,0.7-0.7,1.5-1.1,2.3c-5.8,13.1-14.2,24.7-22.6,36.3c-14.3,19.8-31.7,36.6-49.6,53
	c-10.1,9.2-19.9,18.7-29.8,28.1c-0.7,0.7-1.4,1.4-2.1,2c-0.9,0.8-1.8,1.7-3,0.4c-1.3-1.4,0.2-1.9,0.8-2.5c6.5-6.3,13-12.7,19.7-18.9
	c13.8-12.7,27.7-25.3,40.6-38.9c14.8-15.8,27.7-33,38.6-51.8c1.9-3.3,3.5-6.9,5.2-10.3c0.5-1,1.1-1.6,2.3-1.3
	C613.5,436.7,613.9,437.3,614,438.1z"/>
<path class="st9" d="M664.9,199.5c1.3,3.7,0.7,6.6-0.7,9.8c-3.6,8.4-5.9,17.3-10.5,25.9c-0.3-3.2-0.4-6-0.9-8.8
	c-0.8-4-1.8-7.9-2.8-11.8c-0.3-1.2-0.2-2.2,0.6-3C655.3,207.5,660,203.5,664.9,199.5z"/>
<path class="st11" d="M674.5,486.2c0,0.9-0.7,1.3-1.2,1.8c-9.7,11.3-21,20.8-32.4,30.2c-3,2.5-6,4.9-9,7.3c-1,0.9-2.1,1.9-3.2,0.3
	c-1-1.5,0.5-2.1,1.3-2.8c12.7-10.1,25.2-20.4,36.5-32.1c1.8-1.9,3.5-3.8,5.2-5.8c0.6-0.7,1.2-0.9,2-0.6
	C674.2,484.9,674.5,485.4,674.5,486.2z"/>
<path class="st11" d="M500,556.6c-0.3,1.2-1.1,1.8-2.3,1.3c-0.6-0.2-1-0.8-1.4-1.3c-12.1-11.9-24.3-23.8-36.4-35.7
	c-0.5-0.5-0.9-0.9-1.4-1.4c-0.8-0.8-1.3-1.5-0.3-2.5c1-1,1.8-0.3,2.5,0.4c1.4,1.2,2.7,2.5,4,3.8c11.2,11,22.4,22,33.6,33
	C499,554.9,499.8,555.5,500,556.6z"/>
<path class="st11" d="M626.2,452.3c-0.3,0.4-0.8,1-1.3,1.5c-8.6,9.6-16.4,19.9-25.6,28.8c-1.5,1.5-2.8,3.2-4.3,4.9
	c-0.8,1-2,1.7-3,0.7c-1-0.9-0.2-2,0.6-2.8c10.7-10.9,20.2-22.8,30.5-34c0.6-0.7,1.2-1.6,2.4-1C626.2,450.8,626.4,451.3,626.2,452.3z
	"/>
<path class="st12" d="M360.6,593.9c4.4,0.6,8.3,2.9,12.6,4c13.7,3.6,27.8,4.3,41.8,3.6c6.9-0.3,13.8-1.5,20.4-3.3
	c7.9-2.2,15.9-1.7,23.8-2.3c5-0.4,10.1,0,15.2-0.7c1.7-0.2,2.4-0.9,2.8-2.5c1.4-4.8,1.5-9.5,0.6-14.4c-0.6-3.2,0.9-5.5,3.5-7.2
	c-2.2,3.2-3.2,6.4-2.3,10.5c0.9,4,0,8.1-1.1,12.1c-0.4,1.5-1.1,2.1-2.6,2.2c-6.1,0.3-12.3,1.2-18.4,1c-9.9-0.3-19.4,1.8-29,3.7
	c-12.5,2.5-25,2.9-37.7,1.2c-9.4-1.2-18.6-2.9-27.3-6.7C362,594.8,361.3,594.3,360.6,593.9z"/>
<path class="st5" d="M869.5,418.8c-1.9,1.9-1.8,4.2-1.7,6.6c0.3,18,1,36.1,0.6,54.1c-0.3,11.1-0.6,22.2-1.3,33.3
	c-0.5,7.8-1.1,15.7-2.7,23.3c-1,4.8-3.4,9.4-4.8,14.3c-0.2-0.1-0.4-0.1-0.6-0.2c0.5-2.7,1.7-5.3,1.8-8.2c0-1.8,2-2.5,2.4-4
	c0.6-2.3,1.2-4.6,1.3-7c0.7-10.8,1.7-21.6,2.2-32.5c1.1-25.4,0.2-50.9,0.5-76.3C867.1,420.5,866.8,418.6,869.5,418.8z"/>
<path class="st12" d="M319.8,479.3c-2.4-0.8-4.9-1.8-7.3-2.4c-2-0.5-3.4-0.4-2.9,2.7c1.3,7.2,2.1,14.4,2.9,21.7
	c0.8,7.3,2.5,14.4,4.3,21.4c0.3,1.2,0.4,2.3,0.3,3.5c-3.1-8.5-4.5-17.4-5.8-26.3c-1-7.4-1.4-14.8-2.9-22.1c-0.4-1.9,0.2-2,1.6-2
	C313.6,476,317,476.7,319.8,479.3z"/>
<path class="st5" d="M660.6,408c7.3-1.6,14.7-0.7,22-0.8c2.2,0,2.8-0.5,2-2.7c-3.1-9.3-5-18.9-7.4-28.4c-0.3-1.1-0.5-2.4,0.4-3.4
	c2.4,12,5.2,23.9,9.3,35.9c-6-0.8-11.7-0.8-17.4-0.7C666.5,407.9,663.6,409.3,660.6,408z"/>
<path class="st12" d="M409.5,563.1c-1.6,2.7-4.7,3-7.1,3.9c-9.2,3.4-18.8,5-28.6,6c-2.6,0.3-5.2,1.5-7.8,0.1
	C380.8,571.4,395.7,569.6,409.5,563.1z"/>
<path class="st12" d="M374.4,568.3c-0.6-1.3,0.4-1.1,1.1-1.1c8.9-0.9,17.6-2.8,26-5.9c2.4-0.9,3.1-2,2.3-4.6
	c-0.6-2.1-1.9-4.2-1.4-6.6c0.7,0.4,0.5,1.1,0.7,1.7c3.2,10.5,4.7,8-6.1,11.9C389.8,566.4,382,567.3,374.4,568.3z"/>
<path class="st12" d="M336.9,583.7c1.6,0.2,1.4,1.7,1.7,2.7c1.4,5,2.7,10,4,14.9c0.2,0.8,0.3,1.9,1.5,1.6c3.2-0.7,6.6-1.1,9.7-2.4
	c0.3-0.1,0.4-0.7,0.6-1.1c0.7,0.3,1.3,0.6,2.4,1.2c-4.6,1.7-8.9,2.4-13.2,3.4c-1.4,0.3-1.5-0.9-1.7-1.8
	C340.2,596.1,338.5,589.9,336.9,583.7z"/>
<path class="st5" d="M588.4,540.3c-0.1,0.7-0.6,1.1-1.2,1.4c-9,3.5-17.8,7.1-27,10c-0.9,0.3-1.7,0.5-2.5,0
	C568,548,578.2,544.1,588.4,540.3z"/>
<path class="st12" d="M398.6,538.5c-0.7-0.2-1.1-0.8-1.2-1.4c-0.6-2.7-2.2-2.5-4.4-2.1c-3.9,0.7-7.7,1.7-11.7,1.6
	c-1.8,0-3.5-0.2-4.3-2.1c4.8,2.6,9.6,0.1,14.5-0.1c0.2,0,0.4-0.2,0.6-0.2C397.4,533,397.4,533,398.6,538.5z"/>
<path class="st5" d="M619.9,528.7c-1.8-0.6-3.4-0.3-5.2,0.6c-4.6,2.4-9.3,4.5-14,6.7c-1.2,0.5-2.4,1.5-3.9,0.7
	c6.4-3,12.9-6,19.3-9.1C617.9,526.8,619,527.2,619.9,528.7z"/>
<path class="st5" d="M678.5,267.6c1.3-2.3,3.8-2.1,5.8-2.8c3.1-1.1,6.4-1.9,9.6-2.8c1.2-0.3,2.3-0.7,3.4,0.2
	C690.8,263.4,684.6,265.4,678.5,267.6z"/>
<path class="st12" d="M336.6,568.3c-2.6,1.5-2,3.5-1.4,6c0.8,3,2.4,5.9,1.8,9.2c-1.2-4-2.4-8.1-3.5-12.1
	C332.6,568.4,335,568.8,336.6,568.3z"/>
<path class="st5" d="M596.4,536.9c-2,2.6-5,3.1-8,3.5C591,539.2,593.7,538,596.4,536.9z"/>
<path class="st5" d="M655,281.8c1.8-2.6,4.1-4.5,7.2-5.2C659.9,278.5,657.5,280.3,655,281.8z"/>
<path class="st12" d="M401.5,546.6c-2.4-2.2-2.8-5.2-2.9-8.2C399.5,541.1,400.5,543.8,401.5,546.6z"/>
<path class="st12" d="M417.3,559.2c-1.6,2.3-3.9,3.2-6.6,3.3C412.8,561.1,415,560.1,417.3,559.2z"/>
<path class="st5" d="M869.2,411.7c0.7,0.9,2.2,1,1.6,2.4c-0.3,0.6-1.4,1.2-1.9,0.8C867.7,413.9,868.7,412.9,869.2,411.7z"/>
<path class="st5" d="M641.3,546.3c-2.2-0.8-4.3-1.5-4.9-4.2C638.1,543.5,639.7,544.9,641.3,546.3z"/>
<path class="st5" d="M557.6,551.8c-0.9,1.8-2.3,2.3-4.2,1.7C554.6,552.5,556.2,552.4,557.6,551.8z"/>
<path class="st5" d="M666.1,274c1-1.7,2.5-2.8,4.6-2.7C669.3,272.5,667.7,273.4,666.1,274z"/>
<path class="st12" d="M332.3,496.1c-2.2-0.7-2.4-2.7-2.8-4.5C330.8,492.9,331.5,494.5,332.3,496.1z"/>
<path class="st12" d="M352.2,588.6c1.9,0,3.1,1.1,3.9,2.7C354.5,590.8,353.4,589.7,352.2,588.6z"/>
<path class="st12" d="M333.7,558.1c1.9,0.7,2.6,2.1,2.8,4C335.6,560.7,334.7,559.4,333.7,558.1z"/>
<path class="st12" d="M337.6,564.7c1.6,1.9,1.4,2.7-1,3.7C337.3,567.3,338.2,566.2,337.6,564.7z"/>
<path class="st12" d="M354.3,599.5c-1.7-0.1-3-0.8-3.4-2.6C352.1,597.8,353.2,598.7,354.3,599.5z"/>
<path class="st9" d="M649.7,251c0,1.4,0.2,3-1.3,3.9C648.4,253.5,648.8,252.2,649.7,251z"/>
<path class="st5" d="M672.9,270.3c0.7-1.7,2-2.3,3.7-1.8C675.3,269.1,674.1,269.7,672.9,270.3z"/>
<path class="st12" d="M448.7,537.2c-1.4,0.2-2.1-1.4-3.5-1.3C447.5,533.4,447.5,536.9,448.7,537.2z"/>
<path class="st5" d="M628.4,535.8c-1.9,0-2.7-1.2-3.3-2.7C626.5,533.7,627.5,534.7,628.4,535.8z"/>
<path class="st12" d="M345.4,512.6c-1.7,0.1-2.5-0.6-2.4-2.4C343.8,511,344.6,511.8,345.4,512.6z"/>
<path class="st12" d="M317.6,528.2c1.1,0.8,2,1.7,0.9,3.2C318.2,530.3,317.9,529.2,317.6,528.2z"/>
<path class="st12" d="M329.6,491.7c-1.5-0.6-1.9-1.9-2-3.3C328.5,489.3,329.2,490.4,329.6,491.7z"/>
<path class="st12" d="M356,591.2c1.4,0.1,2.7,0.5,3.3,2C358.1,592.9,356.9,592.3,356,591.2z"/>
<path class="st12" d="M326.3,486.5c-1.2-0.5-2.1-1.2-2-2.7C325.3,484.4,325.9,485.4,326.3,486.5z"/>
<path class="st12" d="M402.5,550.2c-1.2-0.8-1.8-1.9-1.1-3.3C402,547.9,402.4,549,402.5,550.2z"/>
<path class="st5" d="M624.4,532.6c-1.4-0.1-2.4-0.6-2.4-2.2C623,530.9,623.8,531.7,624.4,532.6z"/>
<path class="st5" d="M634.9,541c-1.5,0-2.3-0.7-2.6-2.1C633.4,539.4,634.2,540.1,634.9,541z"/>
<path class="st12" d="M346.7,592.1c-1.3-0.3-1.9-0.9-1.1-2.2C346,590.6,346.4,591.4,346.7,592.1z"/>
<path class="st12" d="M336.5,562c1.5,0.5,1.6,1.5,1.2,2.8C337.2,563.8,336.9,562.9,336.5,562z"/>
<path class="st12" d="M324.4,483.8c-1-0.4-2.1-0.7-1.6-2.2C323.5,482.2,324.1,482.9,324.4,483.8z"/>
<path class="st12" d="M442.7,538.5c0,1.4-0.7,2-2,2C441.4,539.8,442,539.1,442.7,538.5z"/>
<path class="st12" d="M377.1,534.5c-1.3,0.2-2.4,0-2.7-1.5C375.3,533.4,376.4,533.7,377.1,534.5z"/>
<path class="st5" d="M658.6,406.5c1.5-0.5,1.8,0.5,2,1.6C659.7,407.8,659.2,407.2,658.6,406.5z"/>
<path class="st5" d="M670.6,271.4c0.4-1,1-1.6,2.2-1C672,270.7,671.3,271.1,670.6,271.4z"/>
<path class="st5" d="M630.9,537.8c-1.1,0-1.8-0.3-1.8-1.5C629.9,536.6,630.5,537.1,630.9,537.8z"/>
<path class="st5" d="M664.1,275.3c0.3-1.1,1-1.5,2-1.3C665.7,274.7,665,275.1,664.1,275.3z"/>
<path class="st5" d="M622,530.4c-1,0.4-1.5,0-1.5-1.1C621,529.7,621.5,530,622,530.4z"/>
<path class="st5" d="M662.1,276.6c0.3-1,1-1.4,2-1.3C663.7,276.1,663,276.4,662.1,276.6z"/>
<path class="st12" d="M333.6,498.1c-1.2-0.2-1.6-0.9-1.3-2C332.7,496.7,333.1,497.4,333.6,498.1z"/>
<path class="st5" d="M653,283.2c0.2-1.1,0.9-1.6,2-1.5C654.6,282.6,653.8,283,653,283.2z"/>
<path class="st12" d="M440.7,540.4c0,1-0.4,1.4-1.4,1.3C439.8,541.3,440.3,540.8,440.7,540.4z"/>
<path class="st5" d="M636.3,542c-1,0.3-1.3-0.3-1.5-1C635.3,541.3,635.8,541.7,636.3,542z"/>
<path class="st12" d="M321.3,480.1c-1,0.5-1.3-0.2-1.5-0.9C320.2,479.5,320.8,479.8,321.3,480.1z"/>
<path class="st12" d="M349.9,595.9c-1.1,0.4-1.5,0-1.1-1.1C349.2,595.1,349.6,595.5,349.9,595.9z"/>
<path class="st5" d="M643.5,547.9c-0.9,0.2-1.3-0.3-1.5-1.1C642.5,547.2,643,547.6,643.5,547.9z"/>
<path class="st12" d="M317,526.2c1,0.4,0.7,1.3,0.7,2.1C316.8,527.8,317.1,526.9,317,526.2z"/>
<path class="st5" d="M676.9,268.4c-0.1-1.5,1-0.8,1.6-0.9C678.2,268.3,677.4,268,676.9,268.4z"/>
<path class="st12" d="M346.7,513.9c-1.1,0.4-1.4,0-1.1-1.1C346,513.2,346.3,513.5,346.7,513.9z"/>
<path class="st12" d="M348.4,515.7c-0.6,0-1.3,0-0.9-0.9C347.9,515.1,348.1,515.4,348.4,515.7z"/>
<path class="st12" d="M410.8,562.5c-0.2,0.7-0.8,0.8-1.4,0.7C409.6,562.5,410.3,562.6,410.8,562.5z"/>
<path class="st12" d="M342.1,509.4c-0.9,0.4-0.9-0.3-0.9-0.8C341.5,508.8,341.8,509.1,342.1,509.4z"/>
<path class="st12" d="M418.6,558.4c-0.2,0.8-0.7,0.9-1.4,0.9C417.7,559,418.1,558.7,418.6,558.4z"/>
<path class="st12" d="M359.3,593.2c0.6,0,1.2,0,1.4,0.7C360.1,593.8,359.6,593.8,359.3,593.2z"/>
<path class="st12" d="M348.7,594.6c-0.9,0.3-0.9-0.3-1-0.9C348,594,348.4,594.3,348.7,594.6z"/>
<path class="st12" d="M351,597c-0.6,0-1.2,0-0.9-1C350.4,596.4,350.7,596.7,351,597z"/>
<path class="st12" d="M334.4,499.1c-1,0.2-0.9-0.4-0.9-1.1C333.8,498.4,334.1,498.7,334.4,499.1z"/>
<path class="st5" d="M657.4,405.3c0.5,0,1.2,0,0.8,0.9C658,405.9,657.7,405.6,657.4,405.3z"/>
<path class="st12" d="M445.3,535.8c-0.1,0.6,0,1.3-1,0.9C444.6,536.4,445,536.1,445.3,535.8z"/>
<path class="st12" d="M327.1,487.6c-0.8,0-0.9-0.6-0.9-1.2C326.8,486.6,327,487.1,327.1,487.6z"/>
<path class="st12" d="M443.5,537.5c0.4,0.9-0.3,0.9-0.9,0.9C442.9,538.2,443.2,537.9,443.5,537.5z"/>
<path class="st12" d="M444.2,537c0.2,0.5,0.1,0.7-0.4,0.4C443.8,537.2,444,537,444.2,537z"/>
<path class="st5" d="M656.7,404.6c0.3,0.2,0.5,0.5,0.8,0.7C657.2,405.1,657,404.9,656.7,404.6z"/>
<path class="st5" d="M631.6,538.5c-0.2-0.2-0.5-0.5-0.8-0.7C631.1,538,631.4,538.2,631.6,538.5z"/>
<path class="st3" d="M595.1,282.3c0.2-0.2,0.5-0.2,0.7,0c-0.2,0.2-0.3,0.4-0.5,0.6C595.2,282.8,595.1,282.6,595.1,282.3z"/>
<path class="st5" d="M629.2,536.3c-0.5,0-0.7-0.2-0.8-0.6C628.6,535.9,628.9,536.1,629.2,536.3z"/>
<path class="st12" d="M450.6,539.1c-0.2-0.2-0.5-0.5-0.7-0.7C450.1,538.7,450.4,538.9,450.6,539.1z"/>
<path class="st5" d="M632.4,539c-0.3-0.2-0.5-0.4-0.8-0.6C631.8,538.6,632.1,538.8,632.4,539z"/>
<path class="st12" d="M451.3,539.8c-0.2-0.2-0.5-0.5-0.7-0.7C450.8,539.3,451,539.5,451.3,539.8z"/>
<path class="st12" d="M452.1,540.4c-0.3-0.2-0.6-0.5-0.9-0.7C451.5,540,451.8,540.2,452.1,540.4z"/>
<path class="st5" d="M625.2,533.2c-0.3-0.2-0.5-0.4-0.8-0.6C624.7,532.8,624.9,533,625.2,533.2z"/>
<path class="st12" d="M439.4,541.7c-0.2,0.2-0.5,0.5-0.7,0.7C439,542.2,439.2,541.9,439.4,541.7z"/>
<path class="st12" d="M438.8,542.3c-0.2,0.2-0.5,0.5-0.7,0.7C438.3,542.8,438.5,542.5,438.8,542.3z"/>
<path class="st12" d="M438.1,543c-0.2,0.2-0.5,0.5-0.8,0.7C437.6,543.4,437.9,543.2,438.1,543z"/>
<path class="st12" d="M437.5,543.6c-0.3,0.2-0.5,0.5-0.8,0.7C436.9,544.1,437.2,543.8,437.5,543.6z"/>
<path class="st12" d="M436.8,544.2c-0.3,0.3-0.6,0.5-1,0.8C436.2,544.7,436.5,544.5,436.8,544.2z"/>
<path class="st5" d="M642,546.9c-0.2-0.2-0.5-0.5-0.8-0.7C641.5,546.5,641.8,546.7,642,546.9z"/>
<path class="st12" d="M321.9,480.8c-0.5,0.2-0.6,0.1-0.4-0.4C321.7,480.5,321.8,480.6,321.9,480.8z"/>
<path class="st5" d="M643.9,548.3c-0.1,0.1-0.3,0.1-0.4,0.2c0-0.2,0.1-0.3,0.1-0.5C643.8,548,643.9,548.1,643.9,548.3z"/>
<path class="st5" d="M620.6,529.4c-0.2-0.2-0.5-0.5-0.8-0.7C620.1,528.9,620.3,529.1,620.6,529.4z"/>
<path class="st12" d="M327.6,488.4c-0.4-0.1-0.6-0.5-0.5-0.9C327.2,487.9,327.4,488.1,327.6,488.4z"/>
<path class="st12" d="M350,517c-0.3-0.2-0.7-0.5-1-0.8C349.3,516.5,349.7,516.8,350,517z"/>
<path class="st12" d="M349.1,516.4c-0.2-0.2-0.5-0.5-0.8-0.7C348.6,515.9,348.9,516.1,349.1,516.4z"/>
<path class="st12" d="M347.2,514.5c-0.1,0-0.3,0.1-0.4,0.1c0-0.1,0.1-0.3,0.1-0.4C347.1,514.3,347.2,514.4,347.2,514.5z"/>
<path class="st12" d="M342.7,510c-0.1,0-0.3,0.1-0.4,0.1c0-0.1,0-0.3,0.1-0.4C342.5,509.7,342.6,509.9,342.7,510z"/>
<path class="st12" d="M341.2,508.6c-0.2-0.2-0.5-0.5-0.7-0.7C340.8,508.1,341,508.3,341.2,508.6z"/>
<path class="st12" d="M340.6,507.9c-0.2-0.3-0.5-0.6-0.7-0.9C340.1,507.4,340.4,507.6,340.6,507.9z"/>
<path class="st12" d="M347.2,593.1c-0.4-0.1-0.6-0.4-0.5-0.8C346.9,592.5,347,592.8,347.2,593.1z"/>
<path class="st12" d="M347.8,593.8c-0.2-0.3-0.4-0.5-0.7-0.8C347.3,593.2,347.5,593.5,347.8,593.8z"/>
<path class="st12" d="M334.9,500.1c-0.4-0.1-0.7-0.3-0.6-0.9C334.5,499.6,334.7,499.9,334.9,500.1z"/>
<path class="st12" d="M322.5,481.4c-0.5,0.3-0.6,0.1-0.4-0.4C322.3,481.1,322.5,481.2,322.5,481.4z"/>
<path class="st12" d="M450,538.5c-0.2-0.3-0.5-0.5-0.7-0.8C449.5,538,449.7,538.2,450,538.5z"/>
<path class="st3" d="M509.2,351.2c-1.2-1.1-1.3-2.1-0.4-3.6c14.1-23.5,28.1-47,42.2-70.5c0.7-1.2,1.3-2.8,3.1-1.1
	c0,2-0.1,4.1-0.1,6.1c0,21.5,0,42.9,0,64.4c-0.3,2.1-1.2,3.9-3.3,4.7C536.8,351.2,523,351.2,509.2,351.2z"/>
<path class="st1" d="M339.1,372.8c-0.5-1.8-1.1-3.5-1.6-5.3c-0.3-1.5-0.7-2.9-1-4.4c0-0.3-0.1-0.5-0.1-0.8
	c-1.1-5.9-1.9-11.9-2.5-17.9c-0.9-8.9-0.4-17.9-0.5-26.8c0.2-1.1,0.5-2.1,0.5-3.2c0.4-9.7,1.9-19.2,3.9-28.7c2-7.6,4.2-15.1,8.2-22
	c4.1-7.2,9.7-12.3,18-14.1c6.2-1.5,12.2-1.2,18.1,1.1c0,0-0.1-0.1-0.1-0.1c0.5,0.2,0.9,0.5,1.4,0.7l-0.1-0.1c0.7,0.4,1.3,0.8,2,1.3
	c10.7,8.5,14.2,20.7,17,33.3c0.4,1.7,0.7,3.4,1,5.1c0.1,0.8,0.3,1.7,0.4,2.5c0,0.5,0.1,0.9,0.1,1.4c0.2,1.7,0.4,3.4,0.6,5.1
	c0,0.2,0,0.5,0.1,0.7c1.2,13.2,1.4,26.4,0.6,39.6c0,0.5-0.1,0.9-0.1,1.3c-0.3,5.6-1,11.2-1.9,16.8c0,0.2-0.1,0.5-0.1,0.8
	c-0.6,3-1.2,6-1.8,9c-1.8,6.2-3.8,12.3-7.2,17.9c-2.5,4-5.8,7.2-9.4,10.1c-6.2,3.5-12.8,4.7-19.9,3.4c-3.2-0.6-6.1-1.9-9.2-2.7l0,0
	c-0.4-0.8-1.1-1.2-2-1.4c0,0,0.1,0.1,0.1,0.1c-0.9-0.7-1.8-1.3-2.6-2l0,0.1c-0.2-0.2-0.5-0.5-0.7-0.7l0.1,0.1
	c-0.2-0.2-0.5-0.5-0.7-0.8l0.1,0.1c-0.2-0.2-0.5-0.5-0.7-0.8c0,0,0.1,0.1,0.1,0.1c-4-5.1-7.1-10.7-9.4-16.8
	c-0.1-0.2-0.2-0.5-0.2-0.7C339.4,373.6,339.3,373.2,339.1,372.8z"/>
<path class="st6" d="M404.5,299.9c-0.2-1.7-0.4-3.4-0.6-5.1c2.2,1.7,1.2,4.3,1.7,6.4c1.3,6.2,1.3,12.7,1,18.9
	c-0.5,9.9,0.9,19.8-1.4,29.6c-0.6,2.4,0.1,4.9-0.7,7.4c-0.2,0.7-0.4,1.2-1.2,1.3c0.9-5.6,1.6-11.2,1.9-16.8c0.5-0.4,0.6-0.9,0.1-1.3
	c0.8-13.2,0.5-26.4-0.6-39.6c0.1-0.1,0.2-0.2,0.2-0.2C404.7,300.2,404.6,300,404.5,299.9z"/>
<path class="st4" d="M393.2,437.7c-15.7,4.5-31.3,4.5-46.9-0.6c0.6-0.8,1.3-0.5,2-0.2c9.3,2.8,18.9,3.5,28.5,2.8
	c4.6-0.3,9.1-1.4,13.6-2.2C391.5,437.2,392.4,436.8,393.2,437.7z"/>
<path class="st6" d="M333.4,317.5c0.1,9-0.3,17.9,0.5,26.8c0.6,6,1.4,12,2.5,17.9c-1.7-0.6-1.5-2.2-1.7-3.5c-2.6-14.8-2-29.7-2-44.5
	C333.8,315.1,333.1,316.4,333.4,317.5z"/>
<path class="st4" d="M333.4,317.5c-0.3-1.1,0.4-2.4-0.7-3.3c0.9-8.4,1.5-16.9,3.4-25.1c0.3-1.1-0.2-3,1.7-3.5
	c-2,9.5-3.5,19-3.9,28.7C333.8,315.4,333.5,316.5,333.4,317.5z"/>
<path class="st4" d="M355.5,396.7c3.1,0.8,6,2.1,9.2,2.7c7.1,1.3,13.7,0.1,19.9-3.4c0.5,0.3,0.5,0.7,0,1c-7.7,4.8-21.2,5-28.9,0.2
	C355.6,397.2,355.6,396.9,355.5,396.7z"/>
<path class="st4" d="M339.8,374.7c2.3,6.1,5.4,11.6,9.4,16.8c-4.5-3-6.4-7.8-8.5-12.4C340.1,377.8,338.4,376.4,339.8,374.7z"/>
<path class="st6" d="M382.1,250.6c-5.9-2.3-12-2.6-18.1-1.1c0.8-0.4,1.6-1.1,2.4-1.2c4.6-0.8,9.1-0.8,13.6,0.7
	C380.9,249.3,381.9,249.4,382.1,250.6z"/>
<path class="st6" d="M401.3,368.1c0.6-3,1.2-6,1.8-9C404.5,362.5,403,365.3,401.3,368.1z"/>
<path class="st6" d="M336.5,363c0.3,1.5,0.7,2.9,1,4.4C336.2,366.2,335.4,364.8,336.5,363z"/>
<path class="st4" d="M351,393.4c0.9,0.7,1.8,1.3,2.6,2C352.3,395.3,351.1,395.2,351,393.4z"/>
<path class="st6" d="M403.8,293.4c-0.1-0.9-0.3-1.7-0.4-2.5C404.6,291.1,404.7,291.4,403.8,293.4z"/>
<path class="st6" d="M385.3,252.5c-0.7-0.4-1.3-0.8-2-1.3C384.3,251.3,385.3,251.1,385.3,252.5z"/>
<path class="st4" d="M353.6,395.3c0.8,0.2,1.6,0.6,2,1.4C354.5,396.8,353.8,396.4,353.6,395.3z"/>
<path class="st4" d="M339.1,372.8c0.1,0.4,0.3,0.8,0.4,1.2C338.7,373.8,338.3,373.5,339.1,372.8z"/>
<path class="st6" d="M383.4,251.3c-0.5-0.2-0.9-0.5-1.4-0.7C382.7,250.5,383.2,250.6,383.4,251.3z"/>
<path class="st4" d="M349.1,391.4c0.2,0.2,0.5,0.5,0.7,0.8C349.6,391.9,349.3,391.6,349.1,391.4z"/>
<path class="st4" d="M349.7,392.1c0.2,0.2,0.5,0.5,0.7,0.8C350.2,392.6,350,392.3,349.7,392.1z"/>
<path class="st4" d="M350.3,392.7c0.2,0.2,0.5,0.5,0.7,0.7C350.8,393.2,350.6,393,350.3,392.7z"/>
<path class="st2" d="M690.7,207.5c-0.3-3.7,1.5-6.9,2.8-10.1c1.5-3.6,3.1-7.2,3.7-11.2c0.2-1.5,1-2.5,2.6-2.1
	c1.5,0.4,1.3,1.7,1.1,2.9c-1,5.3-3.2,10.2-5.3,15.1c-0.8,1.8-1.3,3.6-1.3,5.6c-0.1,4,2.8,5.9,6.4,4.4c1.5-0.6,3.5-2.7,4.6-0.2
	c0.9,2.4-1.8,3-3.5,3.6C694.8,218.1,689.9,212.9,690.7,207.5z"/>
<path class="st2" d="M704.3,227c4.2,0.3,8.1,1.6,11.7,3.7c1.2,0.7,2,1.7,1.2,2.9c-0.7,1.3-2,0.8-3.1,0.3c-0.9-0.4-1.7-0.9-2.5-1.3
	c-4.8-2.2-9.6-2.8-14.2,0.7c-0.9,0.7-2.1,1.5-3.1,0.1c-0.9-1.4-0.1-2.4,1-3.3C698,228.2,700.9,227.1,704.3,227z"/>
<path class="st2" d="M687.4,191.2c0,2.8-2.2,5.3-4.7,5.2s-4.3-2.3-4.3-5.1c0-2.9,2.1-5.2,4.6-5.1
	C685.4,186.2,687.4,188.4,687.4,191.2z"/>
<path class="st2" d="M715.1,172.4c4.2,0.6,8.7,2.4,12.8,5.1c0.8,0.5,1.8,1.2,0.9,2.4c-0.7,0.9-1.5,1.1-2.8,0.5
	c-3.8-2-7.7-3.6-12-4.3c-1.2-0.2-3.6,0-3.3-2.1C711,171.9,713,172.5,715.1,172.4z"/>
<path class="st2" d="M714.6,190.2c0.2-2.1,0.5-4.2,3.6-4.1c2.6,0.1,4.2,1.7,4.2,4.5c0,2.9-1.8,5.3-4.1,5.3
	C716.1,195.8,714.6,193.5,714.6,190.2z"/>
<path class="st2" d="M687.4,173.1c1.3,0,2.4,0.1,2.6,1.5c0.2,1.4-0.7,2.1-1.8,2.3c-3.9,0.5-7.5,1.8-10.8,3.8
	c-0.8,0.5-2.2,0.7-2.9-0.5c-0.7-1.2,0.2-2,1.1-2.7C679.2,174.7,683.4,174,687.4,173.1z"/>
<path class="st2" d="M762.5,189.3c0.5-1.6,1.8-3.6,3.6-5.3c0.8-0.7,1.8-0.7,2.6-0.1c0.8,0.6,0.6,1.6,0.1,2.4
	c-1.2,1.8-2.4,3.6-3.6,5.3c-0.5,0.7-1.2,1.4-2.2,0.9C762.2,191.9,762.1,191.1,762.5,189.3z"/>
<path class="st8" d="M405.2,340.2c0.5,0.5,0.5,0.9-0.1,1.3C405.1,341.1,405.2,340.6,405.2,340.2z"/>
<g class="st13">
	<path class="st14" d="M429,96.6l4.4-10.5h10.5l-16.1,32.5h-10l5.3-10l-10.3-22.5h10.5l4,10.5l0.8,3.2L429,96.6z"/>
	<path class="st14" d="M452.2,115.2l-9-18.9h8.7l3.2,8.1c0.2,0.5,0.4,1.1,0.6,1.7c0.2,0.6,0.3,1.2,0.4,1.8c0.1-0.2,0.1-0.4,0.2-0.6
		c0.1-0.2,0.1-0.4,0.2-0.6c0.1-0.4,0.2-0.8,0.3-1.1c0.1-0.4,0.2-0.8,0.4-1.1l3.3-8.1h8.4l-14.1,32.2h-8.8L452.2,115.2z"/>
	<path class="st14" d="M472.9,118.6V96.2h23.9v22.4h-7.8V102h-8.3v16.6H472.9z"/>
	<path class="st14" d="M517.2,102.2c-0.8-0.4-1.6-0.5-2.4-0.5c-0.1,0-0.2,0-0.3,0c-0.1,0-0.2,0-0.4,0c-0.1,0-0.2,0-0.3,0
		c-0.1,0-0.2,0-0.2,0c-1.3,0.3-2.3,1-2.9,2.1c-0.6,1.1-1,2.2-1,3.5c0,1.9,0.5,3.3,1.5,4.3c1,1,2.2,1.5,3.4,1.5c0.3,0,0.6,0,0.8-0.1
		c0.3-0.1,0.6-0.1,0.8-0.2c0.5-0.2,1.1-0.4,1.6-0.7c0.5-0.3,1-0.7,1.4-1.1v6.8c-0.5,0.2-1,0.4-1.5,0.6c-0.5,0.2-1,0.3-1.5,0.5
		c-0.5,0.1-1,0.2-1.5,0.2c-0.5,0.1-1,0.1-1.5,0.1c-3,0-5.6-1-7.9-3.1c-2.3-2.1-3.4-4.9-3.4-8.5l0.1-0.2c0-3.6,1.1-6.5,3.4-8.7
		s5-3.3,8-3.3c0.5,0,1,0,1.5,0.1c0.5,0.1,1,0.1,1.5,0.3c0.5,0.1,1,0.3,1.5,0.5s1,0.4,1.5,0.7v6.7C518.7,103,518,102.6,517.2,102.2z"
		/>
	<path class="st14" d="M539.6,102.2c-0.8-0.4-1.6-0.5-2.4-0.5c-0.1,0-0.2,0-0.3,0c-0.1,0-0.2,0-0.4,0c-0.1,0-0.2,0-0.3,0
		c-0.1,0-0.2,0-0.2,0c-1.3,0.3-2.3,1-2.9,2.1s-1,2.2-1,3.5c0,1.9,0.5,3.3,1.5,4.3c1,1,2.1,1.5,3.4,1.5c0.3,0,0.6,0,0.8-0.1
		s0.6-0.1,0.8-0.2c0.5-0.2,1.1-0.4,1.6-0.7c0.5-0.3,1-0.7,1.4-1.1v6.8c-0.5,0.2-1,0.4-1.5,0.6c-0.5,0.2-1,0.3-1.5,0.5
		c-0.5,0.1-1,0.2-1.5,0.2c-0.5,0.1-1,0.1-1.5,0.1c-3,0-5.6-1-7.9-3.1c-2.3-2.1-3.4-4.9-3.4-8.5l0.1-0.2c0-3.6,1.1-6.5,3.4-8.7
		s5-3.3,8-3.3c0.5,0,1,0,1.5,0.1c0.5,0.1,1,0.1,1.5,0.3c0.5,0.1,1,0.3,1.5,0.5c0.5,0.2,1,0.4,1.5,0.7v6.7
		C541,103,540.3,102.6,539.6,102.2z"/>
	<path class="st14" d="M552.2,119.8C552.2,119.8,552.1,119.8,552.2,119.8c-0.1-0.1-0.1-0.1-0.2-0.1c-1.2,0-2.2-0.5-3.2-1.4
		s-1.4-1.9-1.4-3.1c0-1.2,0.5-2.3,1.4-3.3c1-1,2-1.5,3.2-1.5c0,0,0.1,0,0.1,0c0,0,0,0,0.1,0c0,0,0.1,0,0.1,0c0,0,0,0,0.1,0
		c1.1,0.1,2.1,0.6,3.1,1.6c0.9,1,1.4,2,1.4,3.2c0,1.2-0.5,2.2-1.4,3.1c-0.9,0.9-2,1.4-3.1,1.4C552.3,119.8,552.3,119.8,552.2,119.8
		C552.3,119.8,552.2,119.8,552.2,119.8L552.2,119.8z"/>
	<path class="st14" d="M567,119.8C567,119.8,566.9,119.8,567,119.8c-0.1-0.1-0.1-0.1-0.2-0.1c-1.2,0-2.2-0.5-3.2-1.4
		c-1-0.9-1.4-1.9-1.4-3.1c0-1.2,0.5-2.3,1.4-3.3c1-1,2-1.5,3.2-1.5c0,0,0.1,0,0.1,0c0,0,0,0,0.1,0s0.1,0,0.1,0c0,0,0,0,0.1,0
		c1.1,0.1,2.2,0.6,3.1,1.6c0.9,1,1.4,2,1.4,3.2c0,1.2-0.5,2.2-1.4,3.1c-0.9,0.9-2,1.4-3.1,1.4C567.1,119.8,567.1,119.8,567,119.8
		C567.1,119.8,567,119.8,567,119.8L567,119.8z"/>
</g>
<rect x="271" y="200.1" class="st1" width="181.1" height="250"/>
<path class="st1" d="M300.1,446.9c-45.2,27.5-90.3,55-135.5,82.6c-13.3-13.9-70.7-77-64.5-164c8.1-113.5,117.4-172.2,148-188.6
	c28.2-15.1,73.4-33.1,79.4-24.1c4.2,6.4-12.1,24.6-27.4,39.8L300.1,446.9L300.1,446.9z"/>
<path class="st7" d="M609.8,249.8c-2.8,2.9-7.2,0.6-25.4-1.1c-19.3-1.8-19.1-0.9-26.8-2c-5.6-0.8-41.7-5.7-43.7-17.8
	c-1.9-11.2,24.4-29.9,50.1-28.7c3.2,0.1,19.2,1.2,32.2,13.6C608,225,615.3,243.9,609.8,249.8z"/>
<path class="st1" d="M513.9,231.8c11.9,5,27.2,10.1,45.2,13.4c22.5,4.1,42.2,4.2,57,3.1c-3.4,7.8-8.5,19.4-15.4,33.2
	c-5.5,11.1-10.4,20.1-15.8,30.1c-16.5,30.5-21.5,37.5-23,51.6c-1.7,15.4,2.7,22.1,4,24c6.2,8.8,16.6,11,20.1,11.6
	c-7.7,4.9-15.5,9.8-23.2,14.7l-34.9-8.8l-60.7-4.7l-7.8-6.6l-2.3-32.8l29.5-77.3C495.7,266.1,504.8,248.9,513.9,231.8z"/>
<g>
	<path class="st14" d="M227.5,346.5h24.9v41h-24.9v42.3h-49.7v-42.3H78.4v-34.4l78.6-129.2h70.4V346.5z M177.8,346.5v-81.1
		l-47.2,81.1H177.8z"/>
	<path class="st14" d="M265.8,326.6c0-16.4,2.1-31.3,6.4-44.6c4.3-13.4,10.3-24.8,18-34.3c7.7-9.5,16.9-16.8,27.6-22
		s22.4-7.8,35.4-7.8c12.7,0,24.5,2.6,35.2,7.8s19.9,12.5,27.6,22c7.6,9.5,13.6,20.9,17.9,34.3c4.3,13.4,6.4,28.3,6.4,44.6
		s-2.1,31.3-6.4,44.6s-10.2,24.9-17.9,34.4c-7.6,9.6-16.8,16.9-27.6,22.1s-22.5,7.8-35.2,7.8c-12.9,0-24.7-2.6-35.4-7.8
		s-19.8-12.6-27.6-22.1s-13.8-21-18-34.4C267.9,357.9,265.8,343,265.8,326.6z M318.7,326.6c0,9.1,0.8,17.4,2.5,24.9
		c1.6,7.5,4,13.9,7,19.4c3,5.5,6.6,9.7,10.8,12.7c4.2,3,8.9,4.5,14.2,4.5c5.1,0,9.8-1.5,14.1-4.5s7.9-7.2,10.8-12.7
		c2.9-5.5,5.2-11.9,6.8-19.4c1.6-7.5,2.5-15.7,2.5-24.9c0-8.9-0.8-17.1-2.5-24.7c-1.6-7.5-3.9-14-6.8-19.4
		c-2.9-5.4-6.5-9.6-10.8-12.6s-9-4.5-14.1-4.5c-5.3,0-10,1.5-14.2,4.5s-7.8,7.2-10.8,12.6c-3,5.4-5.3,11.8-7,19.4
		C319.5,309.4,318.7,317.7,318.7,326.6z"/>
	<path class="st14" d="M569.4,387.8c3.3,3,9.4,7.5,18.2,10.1c14,4.1,26,0.4,30.3-1.2c4.3-3.1,8.7-6.1,13-9.2H606v42.3h-49.7v-42.3
		h-99.4v-34.4l78.6-129.2H606c0,14.4,0,28.7,0,43.1c-5.7,15.5-11.2,26.3-15.3,33.5c-1.6,2.8-4.3,7.3-7.9,14.2c-2.5,4.9-4,8-8.7,18.2
		c-9.8,21.2-11.1,24.3-12.2,30.1c-1.7,9.3-0.5,14.2,1.4,17.7C565.1,384.2,567.6,386.5,569.4,387.8z M556.3,346.5v-81.1L509,346.5
		H556.3z"/>
</g>
<path class="st15" d="M311.2,472.1c0.4,0,0.9,0,1.3,0c4.4,0.7,8.2,2.8,11.7,5.4c0.8,0.8,1.6,1.7,2.4,2.5c0.5,0.6,1,1.3,1.5,2l0,0
	c0.3,0.5,0.7,1,1,1.5c0,0,0,0.1,0,0.1c0.3,0.4,0.6,0.7,0.9,1.1l0,0c0.3,0.8,0.5,1.6,1.3,2l0,0c0.9,1.9,1.9,3.7,3.3,5.2l-0.1-0.1
	c0.8,1.9,1.9,3.7,3.3,5.3l-0.1-0.1c0.2,0.9,0.6,1.6,1.4,2l-0.1-0.1c0.2,0.9,0.6,1.6,1.4,2l0-0.1c0.2,0.3,0.3,0.6,0.5,0.9l0,0
	c0,0.2,0.1,0.3,0.3,0.4c6.8,9.5,16.1,16.1,25.8,22.1c4.1,2.5,8.1,5.1,12.6,7.1c0.9,0.8,1.9,0.8,3,0.6c3.6-0.6,7.2-1.4,10.8-1.8
	c2.3-0.3,3-1.2,2.4-3.3c0-0.4,0-0.8,0-1.3c0.1-0.2,0.2-0.3,0.2-0.6l0,0c1.1-0.5,2.1-1.1,3.2-1.3c11.8-2.4,23.5-5,35.2-8.1
	c0.2,0.1,0.3,0.1,0.4-0.1c9.2-1.9,18.4-4.3,27.5-6.9c4.7-0.5,6.5-4.7,9.1-7.6c15.4-17.2,30.5-34.6,45.7-51.9
	c11.9-13.6,23.8-27.2,35.7-40.8c0.6-0.6,1.2-1.2,1.2-2.2c0.2-0.2,0.5-0.5,0.7-0.8l0.1,0c4.6-3.5,7.7-8.3,11.7-12.4
	c1.3-1.3,0.4-2.3-0.5-3.3c-2.5-2.9-4.3-6.2-5.4-9.9c-2.9-9.5-1.8-18.8,1.4-27.9c4.7-13.5,11.6-26,18-38.7c5-10,10.7-19.7,15.3-30
	c0.2-0.2,0.3-0.4,0.5-0.6l0,0c6-10.2,11.4-20.8,16.8-31.3c3.7-5.4,5.5-11.1,4.9-17.9c-1.2-13.3,0.1-26.4,5.8-38.8
	c3.3-7.3,8.9-12.6,15.6-16.8c4.8-3.1,9.8-5.8,14.8-8.6c0.6-0.3,2.3-0.4,0.9-1.9c-5.2-5.6-5-12.6-3.6-19.2
	c3.2-15.8,13.9-25.6,27.9-32c18.9-8.6,38.2-10.1,57.8-1.9c6.2,2.6,11.6,6.6,16,11.8c0.3,0.4,0.6,0.6,1.3,0.6
	c-0.5-2.6-1.2-5.1-2.2-7.6c-0.5-1.1-0.9-2.4,0.5-3.1c1.6-0.8,2.4,0.5,2.9,1.7c1.4,3.4,2.8,7,2.8,11.4c1.8-2.4,2.4-4.8,3.1-7.1
	c0.4-1.3,0.9-2.4,2.4-2c1.6,0.4,1.6,1.5,1.2,3.1c-0.7,2.5-1.8,4.8-2.8,7.5c2.9-0.1,5.7,0.3,8.3,1c7.2,2,12.2,6.7,15,13.5
	c3.9,9.7,4.2,19.7-0.1,29.2c-2.6,5.6-4.4,11-5.2,17.2c-1.1,9.3-6,16.4-15.4,19.5c-0.9,0.3-1.4,0.6-1.4,1.7c0.2,12,1.3,23.8,5.6,35.1
	c2.4,6.3,7.9,8.1,13.5,9.6c13.6,3.7,27.4,6.7,40.6,11.7c10.9,4.2,21.2,9.4,30,17.1c11.6,10.1,18.2,23.1,22.2,37.7
	c6.1,22.5,7,45.5,5.3,68.7c-0.4,5.2-1,10.3-1.4,15.5c-0.7,5.7-4.1,9.1-9.3,11.1c-2.7-0.1-2.4,1.8-2.4,3.5
	c-0.3,25.4,0.6,50.9-0.5,76.3c-0.5,10.9-1.4,21.7-2.2,32.5c-0.2,2.3-0.7,4.7-1.3,7c-0.4,1.5-2.4,2.2-2.4,4c-0.1,2.8-1.2,5.4-1.8,8.2
	c-1.1,3.9-2.3,7.8-3.4,11.7c-3.9,9.7-8.6,18.9-15.4,26.9c-11,13.2-25.1,21-41.8,24.4c-11.4,2.4-23,2.6-34.6,1.3
	c-21.4-2.4-41.1-9.7-59.4-21c-13.7-8.4-26.5-18.1-39.1-28c-0.6-0.5-1.2-0.9-1.8-1.3c-6.5-5.3-13.1-10.6-19.6-15.9
	c0-0.2-0.1-0.2-0.3-0.3l-0.1-0.1c-0.5-0.4-1-0.7-1.5-1.1l0.1,0.1c-0.2-0.2-0.5-0.5-0.8-0.7l0.1,0c-1.6-1.4-3.3-2.8-4.9-4.2l-0.1-0.1
	c-0.5-0.3-1-0.7-1.5-1l0.1,0.1c-0.7-1-1.5-1.7-2.6-2.1l0.1,0.1c-0.3-0.2-0.5-0.4-0.8-0.6l0.1,0.1c-0.2-0.2-0.5-0.5-0.8-0.7l0.1,0
	c-0.4-0.8-1.1-1.2-1.8-1.5l-0.1,0.1l0.1-0.1c-0.3-0.2-0.5-0.4-0.8-0.6l0.1,0.1c-0.9-1.1-1.9-2.1-3.3-2.7l0.1,0.1
	c-0.3-0.2-0.5-0.4-0.8-0.6l0.1,0c-0.6-0.9-1.4-1.7-2.4-2.2l0,0c-0.5-0.3-1-0.7-1.5-1.1l0,0.1c-0.2-0.2-0.5-0.5-0.8-0.7l0.1,0
	c-0.9-1.5-2-1.9-3.7-1.1c-6.4,3.1-12.9,6.1-19.3,9.1c-0.2-0.1-0.4,0-0.5,0.2c-2.7,1.2-5.3,2.3-8,3.5l0,0
	c-10.2,3.8-20.5,7.7-30.7,11.5l-0.1,0c-1.4,0.6-3,0.6-4.2,1.7c-1.5-0.1-2.8,0.4-4,1.3c-8.8,2.5-17.7,4.9-26.5,7.4
	c-2.3,0.6-4.5,1.4-6.8,1.7c-7,1-12.7,4.3-17.4,9.5c-0.6,0.6-1.2,1.2-1.9,1.8c-3.3,2.8-4.5,2.8-7.7-0.3c-3.5-3.4-4.8-3.1-6.4,1.5
	c-0.3,0.8-0.3,1.7-0.1,2.5c1.2,5.1,0.4,10.1-0.8,15c-0.9,4-1.8,7.9-2.6,11.9c-0.6,3.4-2.7,4.9-6.1,4.9c-9.1,0.2-18.2,0.4-27.3,0.6
	c-4.2,0.1-4.4-0.2-3.8-4.3c0.3-2-1-3.1-2.9-2.2c-14.1,6.7-29,7.7-44.2,6.4c-10.7-0.9-21.2-2.9-31.2-7.1c-1.5-0.6-2.7-0.6-4.3-0.2
	c-7.7,2.2-15.4,4.6-23.7,4.2c-3.2-0.2-5.2-1.6-6.1-4.3c-3.4-10-6.1-20.2-8.5-30.5c-0.5-2.2,0.1-4.1,2.5-4.9c2.3-0.8,4.6-1.5,7.4-2.4
	c-3.2-3.6-6.3-7-9.4-10.5c-1.7-2.2-3.3-4.4-5-6.6c-2.1-4.1-4.5-8-6.1-12.3c-6.6-17.6-8.9-36-9.5-54.6c-0.1-2.5,0.6-4.9,1.9-7.1
	c0.4-0.4,0.8-0.8,1.2-1.2C306.3,472.3,308.7,472.1,311.2,472.1z M347.1,593l0.1,0.1c-0.2-0.3-0.3-0.6-0.5-0.8l0-0.1
	c-0.4-0.8-0.7-1.5-1.1-2.2c0.2-1.3-0.5-2.5-0.1-3.8c2.3-7.6,6.8-13.1,14.5-15.6c4.6-1.5,9.5-1.5,14.3-2.2c7.6-1,15.4-1.9,22.6-4.5
	c10.8-4,9.4-1.5,6.1-11.9c-0.2-0.6,0-1.3-0.7-1.7l0.1,0.1c-0.1-1.2-0.5-2.3-1.1-3.3c0.1-0.1,0.1-0.2,0.1-0.3c-1-2.7-2-5.5-2.9-8.2
	l0.1,0.1c-1.2-5.5-1.2-5.5-6.5-4.3c-0.2,0-0.4,0.2-0.6,0.2c-4.8,0.2-9.6,2.7-14.5,0.1l0.1,0.1c-0.7-0.9-1.7-1.1-2.7-1.5
	c-8.4-5-16.6-10-24.4-16c-0.3-0.2-0.7-0.5-1-0.8l0.1,0.1c-0.2-0.2-0.5-0.5-0.8-0.7l0.1,0c-0.3-0.3-0.6-0.6-0.9-0.9
	c0-0.2-0.2-0.2-0.3-0.2c-0.1-0.2-0.2-0.3-0.3-0.3c0-0.2-0.1-0.3-0.2-0.3c-0.4-0.4-0.7-0.7-1.1-1.1l-0.2-0.2
	c-0.8-0.8-1.6-1.6-2.4-2.4c0-0.1-0.1-0.2-0.3-0.2c-0.1-0.2-0.2-0.3-0.4-0.4c0-0.1-0.1-0.2-0.2-0.3c-0.3-0.3-0.6-0.6-0.9-0.8l0,0.1
	c-0.2-0.2-0.5-0.5-0.7-0.7l0.1,0.1c-0.2-0.3-0.5-0.6-0.7-0.9c-1.6-2.3-3.3-4.6-5-6.9c-0.2-0.3-0.4-0.6-0.6-0.9l0.1-0.2
	c-0.3-0.4-0.6-0.7-0.9-1.1l0.1,0.1c-0.4-0.7-0.9-1.4-1.3-2.1l0,0c-0.8-1.6-1.6-3.2-2.8-4.5l0.1,0.1c-0.4-1.3-1.1-2.4-2-3.3l0,0.1
	c-0.2-0.3-0.4-0.6-0.5-0.9l0.1,0.1c-0.2-0.5-0.3-1-0.9-1.2l0.1,0.1c-0.4-1.1-1-2-2-2.7l0.1,0.1c-0.2-0.9-0.8-1.6-1.6-2.2
	c0-0.1-0.1-0.2-0.3-0.2c-0.1-0.2-0.2-0.3-0.4-0.4c0-0.1-0.1-0.2-0.2-0.2c-0.1-0.2-0.2-0.3-0.4-0.4l-0.2-0.2c-0.5-0.3-1-0.6-1.5-0.9
	l0.1,0.1c-2.8-2.5-6.2-3.2-9.8-3.4c-1.4,0-2,0.1-1.6,2c1.5,7.3,1.9,14.7,2.9,22.1c1.2,8.9,2.7,17.8,5.8,26.3l0-0.1
	c0.2,0.7-0.2,1.6,0.7,2.1l-0.1-0.1c0.3,1.1,0.6,2.1,0.9,3.2c3.3,9.9,8.8,18.6,15.3,26.7c0.9,1.3,1.9,2.7,2.8,4l-0.1-0.1
	c0.4,0.9,0.8,1.8,1.2,2.8h-0.1c0.7,1.5-0.2,2.6-1,3.7l0.1-0.1c-1.5,0.5-4,0.1-3.1,3.1c1.2,4,2.4,8.1,3.5,12.1l-0.1,0.2
	c1.6,6.2,3.3,12.3,5,18.5c0.2,0.9,0.3,2.1,1.7,1.8c4.3-1,8.6-1.7,13.2-3.4c-1.1-0.5-1.8-0.9-2.4-1.2l0,0c-1.1-0.9-2.2-1.7-3.4-2.6
	l0,0.1c-0.3-0.3-0.6-0.6-0.9-1l-0.2-0.2c-0.4-0.4-0.8-0.8-1.1-1.1l-0.1-0.2c-0.3-0.3-0.6-0.6-1-0.9l0,0.1
	C347.5,593.5,347.3,593.2,347.1,593z M436.8,544.2c-0.3,0.3-0.6,0.5-1,0.8c-5.7,4.6-11.2,9.3-17.3,13.4c-0.5,0.3-0.9,0.6-1.4,0.9
	l0.1-0.1c-2.3,0.9-4.5,1.9-6.6,3.3l0.1-0.1c-0.5,0.1-1.1,0-1.4,0.7l0.1-0.1c-13.8,6.5-28.6,8.4-43.5,10c-6.5,0.6-11.4,3.7-15,9.3
	c-1.7,2.7-1.7,4.7,1.3,6.2c1.2,1.1,2.3,2.2,3.9,2.7l-0.1-0.1c0.9,1,2,1.6,3.3,2l-0.1,0c0.3,0.6,0.8,0.6,1.4,0.7l-0.1-0.1
	c0.7,0.4,1.4,0.9,2.2,1.2c8.7,3.8,17.9,5.5,27.3,6.7c12.7,1.7,25.2,1.3,37.7-1.2c9.6-1.9,19.1-4,29-3.7c6.1,0.2,12.3-0.7,18.4-1
	c1.6-0.1,2.2-0.7,2.6-2.2c1.1-4,2-8.2,1.1-12.1c-0.9-4.1,0.1-7.3,2.3-10.5c0.9-0.9,2.1-1.7,0.5-3.1c-10-9.2-19.9-18.3-29.8-27.5
	c-0.3-0.2-0.6-0.5-0.9-0.7l0.1,0.1c-0.2-0.2-0.5-0.5-0.7-0.7l0.1,0.1c-0.2-0.2-0.5-0.5-0.7-0.7l0.1,0.1c-0.2-0.3-0.5-0.5-0.7-0.8
	c-0.2-0.2-0.3-0.3-0.5-0.5c-1.2-0.3-1.2-3.8-3.5-1.3l0,0c-0.3,0.3-0.6,0.6-1,0.9l-0.2,0.2c-0.2,0.1-0.3,0.2-0.4,0.4l-0.2,0.2
	c-0.3,0.3-0.6,0.6-0.9,0.9l0,0c-0.7,0.7-1.3,1.3-2,2l0,0c-0.5,0.5-0.9,0.9-1.4,1.3l0.1,0c-0.2,0.2-0.5,0.5-0.7,0.7l0.1-0.1
	c-0.2,0.2-0.5,0.5-0.7,0.7l0.1-0.1c-0.2,0.2-0.5,0.5-0.8,0.7l0.1-0.1c-0.3,0.2-0.5,0.5-0.8,0.7C436.7,544.3,436.8,544.2,436.8,544.2
	z M657.5,405.4L657.5,405.4c0.2,0.2,0.5,0.5,0.8,0.8c0,0.2,0.1,0.3,0.3,0.3c0.5,0.7,1.1,1.4,2,1.6l0,0c3,1.2,5.9-0.1,8.9-0.2
	c5.7,0,11.4-0.1,17.4,0.7c-4.1-11.9-6.8-23.9-9.3-35.9c-0.9-5.2-1.8-10.4-2.8-16c-14.9,10.1-29.5,20-44.4,30.1
	c9.8,5.1,18,11.5,26.3,17.8C657,404.9,657.2,405.1,657.5,405.4z M664.2,275.3L664.2,275.3c0.8-0.1,1.5-0.5,2-1.3l0,0
	c1.7-0.7,3.2-1.6,4.6-2.7l0,0c0.7-0.3,1.4-0.7,2.2-1l0.1-0.1c1.2-0.6,2.5-1.2,3.7-1.8l0.3-0.1c0.5-0.4,1.3-0.1,1.6-0.9l-0.1,0
	c6.2-2.2,12.4-4.2,18.8-5.5c0.6,0.1,1.1,0,1.4-0.5c1.7-0.2,3.4-0.5,5.1-0.7c1-0.1,2.5,0.2,2.3-1.4c-0.1-1.4-1.5-1.2-2.6-1.3
	c-13.4-0.8-23.1-7.4-29-19.3c-4.1-8.3-5.7-17.4-7.5-26.6c-0.3,0.3-0.5,0.4-0.6,0.5c-0.2,0.4-0.3,0.8-0.5,1.2
	c-3.3,9.6-6.5,19.2-12.4,27.6c-2,2.8-3,6.1-3.9,9.4l0-0.1c-0.8,1.2-1.2,2.5-1.3,3.9c-1.7,3.8-2,8-2.8,12.1c-1.8,8.5-3.5,17-5.4,26.3
	c4.6-3.6,8.8-6.9,12.9-10.1c0.8-0.3,1.6-0.7,2-1.5l0,0c2.6-1.5,5-3.3,7.2-5.2l0,0C663,276.4,663.7,276.1,664.2,275.3z M876.8,384.7
	c0.2-1.5,0.5-2.8,0.6-4.2c0.1-1,0.1-2,0.1-2.9c-0.1-16.6-1.5-33.1-5.2-49.4c-5.9-25.8-20.8-43.7-45.5-53.8c-15.1-6.2-31-9.6-46.7-14
	c-2-0.6-2.8,0.6-3.6,2.3c-3.7,7.7-8.7,14.4-15.6,19.5c-11,8.1-23.1,12.4-36.9,8.7c-10.9-2.9-17.1-11.2-17.1-22.4c0-1,0-2,0-2.9
	c0-0.8-0.3-1.4-1.4-1.1c-10,1.9-20,3.9-29.2,8.4c-13.3,6.6-24.5,16.4-36.3,25.3c-1.3,1-1.6,2.3-1.9,3.6c-1,4.5-1.5,9.1-2.9,13.5
	c-1.8,5.5-1.1,9.5,3.2,14.2c8.5,9.2,13.9,20.5,17.1,32.8c0.6,2.2,1.1,2.6,3,1.2c4.1-3,8.2-6,12.5-8.5c2.6-1.6,3-3.4,2.6-6.1
	c-1.7-12.3-3.3-24.5-5-36.8c-0.2-1.2-0.1-2.5,1.5-2.8c1.7-0.3,2.2,0.9,2.3,2.4c0.2,2.7,0.4,5.4,0.8,8c1.9,13,3.5,26,5.7,39
	c2.7,16.3,6,32.4,11.1,48.1c0.5,1.6,1.1,2.4,3,2.7c5.9,0.9,11.8,2,17.7,3.3c25.4,5.7,50.7,11.8,75.9,18.3c2.3,0.6,2.9,0,3.2-2
	c1.2-8.7,2.6-17.4,3.8-26.2c0.2-1.3,0.8-3.1-0.5-4c-1.6-1.1-1.3-2.5-1.3-4c0.2-18,1.2-35.9,4-53.6c1.7-10.8,4-21.4,7.8-31.7
	c0.4-1.1,0.9-2.4,2.4-2c1.6,0.5,1.7,1.7,1.1,3.1c-0.9,2.4-1.6,4.9-2.3,7.3c-3.6,11.8-5.6,24-7,36.3c-0.8,6.5-1.6,13.1-1.4,19.5
	C824.2,369.3,851.2,370.2,876.8,384.7z M812.9,398.7c-4,0-8,0-12,0c-2,0-3.2,0.6-3.5,3.1c-1.3,9.5-2.9,18.9-4.3,28.4
	c-0.3,1.8,0.3,2.6,2.2,3.1c3.7,1,7.3,2.4,10.9,3.9c1.2,0.5,2.5,1.3,1.7,3c-0.7,1.4-1.9,0.9-3.1,0.5c-3.3-1.2-6.6-2.6-10-3.5
	c-34.6-9.5-69.4-18.3-104.7-24.5c-8-1.4-16.2-1.6-24.3-0.5c-8,1.1-15.3,5-22.2,8.9c-7.5,4.3-13.7,10.2-16.9,18.5
	c-0.8,1.9-2.3,4.7,0.4,6.1c2.5,1.2,3.9-1.4,5.1-3.2c3.5-5.4,7.6-10.2,12.7-14.1c3.4-2.6,7.2-4.6,11.3-6c1.2-0.4,2.3-0.2,2.7,1
	c0.4,1.1-0.5,1.8-1.4,2.2c-0.5,0.3-1,0.5-1.5,0.7c-10.1,3.9-16.3,12-22.2,20.4c-1,1.5-2.3,3.3,0.1,5c2.1,1.5,3.6,0.5,5.1-1
	c3.4-3.4,6.8-6.7,10.1-10.1c4.2-4.4,9.1-7.5,15-9.1c1.6-0.5,3.8-1.6,4.5,0.4c0.8,2.2-1.8,2.4-3.3,2.9c-9.1,3-15.6,9.3-21.3,16.7
	c-1.1,1.4-2,3.2-0.8,4.7c1.4,1.7,3.2,0.5,4.8-0.2c4.5-2.1,8.4-5.2,12.3-8.2c6.9-5.1,14.2-6.4,22.5-3.8c7.2,2.3,14.7,3.3,22.3,2
	c1.2-0.2,1.9,0.4,2.6,0.9c11.6,8.1,23.7,15.7,36,22.7c19.6,11.1,39.4,21.9,62.1,25.3c10.4,1.6,19.6-1,27.7-7.7
	c8-6.7,12.8-15.5,16.9-24.8c7.2-16.2,11-33.5,15.5-50.5c0.4-1.5-0.3-2.3-1.5-2.8c-2.6-1.2-5.2-2.5-7.9-3.5
	C842.3,400.1,827.7,398.5,812.9,398.7z M733.2,288.2c17,0.1,33.4-12,40.4-28c0.6-1.3,0.4-2.1-0.8-2.6c-5.5-2.6-7.5-7.6-9.2-12.9
	c-3.2-10.1-3.9-20.5-4.5-30.9c-0.1-1.6,0.1-3.2-1.9-4c-0.9-0.4-1.5-1.3-0.8-2.4c0.7-1.1,1.5-1.5,2.7-0.7c1.7,1.1,3.4,0.6,5.2,0
	c8.4-3.1,14.4-15.3,12-24.1c-1.8-6.7-7.2-8.5-12.8-4.2c-1.9,1.5-3.3,3.4-4.5,5.5c-0.8,1.4-1.8,1.8-3.1,0.8
	c-3.1-2.5-6.9-3.9-10.5-5.6c-12.9-6.4-23.8-15.1-31.3-27.6c-1.3-2.2-2-2.3-3.9-0.8c-12.1,9.8-25.6,16.4-41.2,18.1
	c-1.2,0.1-1.8,0.6-1.8,2.1c-0.1,5.5,2.6,10.9,0.1,16.4c-0.2,0.4,0.3,1.2,0.5,1.8c0.3,1.2,0.7,2.5,0.8,3.8
	c0.2,11.6,2.6,22.8,5.4,33.9c2.2,8.8,5.8,16.9,13.5,22.5c9.3,6.7,19.6,6.3,30,4.2c7.8-1.6,14.8-5.2,20.3-11.1c1-1.1,2.3-2.5,3.8-1.1
	c1.7,1.6-0.3,2.6-1.2,3.6c-4.4,4.9-9.9,8.2-16,10.5c-4.1,1.5-8.3,2.2-12.5,2.8c-1.7,0.3-2,0.7-1.7,2.5c0.5,3.3,0.8,6.7,0.6,10
	c-0.2,4.2,1.5,7.4,4.3,10.4C719.9,286.4,726.1,288.5,733.2,288.2z M663.6,188.7c-2.2,1.7-4.5,3.4-6.7,5.1
	c-5.6,4.2-11.8,7.7-15.9,13.6c-0.6,0.9-1.6,2.1-3,0.9c-1.4-1.1-0.7-2.2,0.1-3.4c3.2-4.6,7.7-7.8,12.2-11.1c4.4-3.2,8.8-6.2,12.8-9.9
	c1.5-1.4,3.3-3,1.5-5.2c-1.6-2-3.3-0.4-4.8,0.6c-4,2.4-7.8,4.9-11.8,7.3c-4.9,3.1-9.1,6.9-13.1,11.1c-0.8,0.9-1.8,1.6-3,0.4
	c-1.1-1.1-0.4-2,0.3-2.8c0.4-0.5,0.9-0.9,1.3-1.4c6.5-7.2,14.8-12.1,23.1-17c2-1.1,4-2.1,5.7-3.7c0.9-0.9,1.6-1.9,0.9-3.1
	c-0.8-1.4-2.1-0.5-2.9-0.2c-10.2,4.8-20.5,9.7-28.4,17.9c-8,8.3-10,19.2-10.8,30.2c-0.5,7.2-0.2,14.5,0,21.8c0,2.1-0.5,4-1.4,5.8
	c-15.2,29.1-31.1,57.8-45.7,87.3c-5.1,10.4-10.1,20.8-11.2,32.6c-0.7,8.2,0.8,15.8,6.5,22.2c0.8,1,1.4,1.6,2.8,0.3
	C586,376,601.6,373.5,618,381c7.2,3.3,12.2,2.6,17.6-2.3c1.2-1,1.9-1.5,1.2-3.3c-1.6-4-2.6-8.1-4.1-12.1c-1.5-3.9-3.2-7.7-6-11.2
	c-1.4,4.8-2.5,9.2-3.9,13.6c-0.4,1.2-0.8,2.9-2.8,2.4c-2.2-0.6-1.2-2.4-0.8-3.5c1.7-4.9,2.9-9.8,4.1-14.8
	c6.3-25.6,11.9-51.3,17.2-77.1c1.9-9,2.9-18.2,6.8-26.7c1.6-3.5,2.2-7.1,2.3-10.9c0.3-6.2-1.7-12.1-3-18.1c-1-4.5-0.4-8.1,3.9-10.9
	c4-2.6,7.4-6,11.1-9C664.6,194.9,665.7,192.3,663.6,188.7z M860.6,530.8c4-31.7,2.4-63.2,2.7-94.7c-1.6,5.4-3.3,10.8-5.2,16
	c-4.4,12-9.1,23.9-18.1,33.4c-9.2,9.7-20.2,14.8-33.9,12.7c-0.8-0.1-1.6,0-3.2,0C823,508.3,841.7,519.2,860.6,530.8z M874,410.7
	c0.9-3.6,1.2-6.9,1.8-10.2c2-10.8,1.4-12.1-8.4-16.7c-0.1,0-0.2,0-0.3-0.1c-9.7-4.5-20-6.9-30.6-7.9c-12.5-1.2-25-1.2-37.4,1.3
	c-2.8,0.6-3.5,1.9-3.5,4.4c0,3.7,0.2,7.4-0.2,11c-0.3,2.9,0.9,3.2,3.2,2.9c11.4-1.2,22.7-0.8,34,0.6
	C847.3,397.9,861.6,401.3,874,410.7z M798.5,582.8c2.8,0.4,5.5-0.2,8-0.9c16.2-4.5,25.5-16.3,31.7-31.1c0.4-1,0.1-1.6-0.5-2.3
	c-4.5-5.4-9.1-10.7-14.2-15.6c-1-0.9-2.1-1.7-3-0.5c-0.9,1.1,0,2.2,1,3c4.6,4,8.3,8.8,12.4,13.3c1,1.1,1.1,2.1,0.5,3.4
	c-3.3,7.2-7.7,13.7-13.8,18.9c-6.5,5.6-13.9,8.9-22.7,8.6c-6.9-0.2-13.3-2.2-19.6-4.9c-17.9-7.7-33.7-18.9-49.2-30.6
	c-18.2-13.7-35.7-28.5-53-43.3c-0.8-0.7-1.5-2.1-2.9-0.7c-1.3,1.3-0.3,2,0.7,2.8c15.5,13.4,31.2,26.4,47.3,38.9
	c15.3,11.9,30.9,23.3,48.3,32.2C778.6,578.7,788.1,582.3,798.5,582.8z M632.4,327.9c-0.7,3.2-1.1,5.8-2,8.3
	c-2.1,6.5-2.7,12.4,2.1,18.5c4.1,5.3,5.5,12.1,7.3,18.6c0.4,1.5,0.8,2.2,2.5,1c2.9-2.2,6-4.2,9.1-6.1c1.4-0.8,1.5-1.5,1.1-3.1
	c-1.5-5.9-3.5-11.7-6.2-17.1C642.8,340.8,638.4,334.1,632.4,327.9z M614,438.1c-0.1-0.8-0.5-1.4-1.1-1.6c-1.1-0.4-1.8,0.3-2.3,1.3
	c-1.7,3.5-3.2,7-5.2,10.3c-10.9,18.7-23.7,36-38.6,51.8c-12.9,13.6-26.8,26.2-40.6,38.9c-6.7,6.2-13.2,12.5-19.7,18.9
	c-0.6,0.6-2.2,1.2-0.8,2.5c1.2,1.3,2.1,0.3,3-0.4c0.7-0.6,1.4-1.3,2.1-2c9.9-9.4,19.7-18.9,29.8-28.1c17.9-16.4,35.3-33.3,49.6-53
	c8.4-11.6,16.8-23.1,22.6-36.3C613.2,439.6,613.6,438.8,614,438.1z M664.9,199.5c-4.8,4.1-9.6,8-14.3,12.1c-0.8,0.7-0.9,1.8-0.6,3
	c1,3.9,2,7.9,2.8,11.8c0.5,2.8,0.6,5.6,0.9,8.8c4.6-8.6,6.9-17.5,10.5-25.9C665.5,206,666.2,203.1,664.9,199.5z M674.5,486.2
	c0.1-0.7-0.3-1.3-0.9-1.5c-0.8-0.3-1.4-0.1-2,0.6c-1.7,2-3.4,3.9-5.2,5.8c-11.3,11.7-23.8,22-36.5,32.1c-0.8,0.7-2.3,1.3-1.3,2.8
	c1.1,1.6,2.2,0.6,3.2-0.3c3-2.5,6-4.9,9-7.3c11.4-9.4,22.8-18.9,32.4-30.2C673.8,487.5,674.4,487,674.5,486.2z M500,556.6
	c-0.2-1.1-1.1-1.7-1.8-2.3c-11.2-11-22.4-22-33.6-33c-1.3-1.3-2.6-2.6-4-3.8c-0.7-0.7-1.5-1.3-2.5-0.4c-1,0.9-0.5,1.7,0.3,2.5
	c0.5,0.5,0.9,0.9,1.4,1.4c12.1,11.9,24.3,23.8,36.4,35.7c0.5,0.5,0.9,1,1.4,1.3C498.9,558.4,499.7,557.8,500,556.6z M626.2,452.3
	c0.2-1-0.1-1.5-0.7-1.9c-1.2-0.7-1.8,0.3-2.4,1c-10.3,11.2-19.9,23.1-30.5,34c-0.8,0.8-1.5,1.9-0.6,2.8c1.1,1,2.2,0.3,3-0.7
	c1.4-1.6,2.7-3.4,4.3-4.9c9.3-9,17-19.3,25.6-28.8C625.4,453.2,625.9,452.7,626.2,452.3z M869.2,411.7c-0.5,1.2-1.5,2.2-0.3,3.2
	c0.5,0.4,1.6-0.2,1.9-0.8C871.4,412.7,869.9,412.5,869.2,411.7z"/>
</svg>
