<?xml version="1.0" encoding="utf-8"?>
<!-- Generator: Adobe Illustrator 27.2.0, SVG Export Plug-In . SVG Version: 6.00 Build 0)  -->
<svg version="1.1" id="Слой_1" xmlns="http://www.w3.org/2000/svg" xmlns:xlink="http://www.w3.org/1999/xlink" x="0px" y="0px"
	 viewBox="0 0 1986.93 1000" style="enable-background:new 0 0 1986.93 1000;" xml:space="preserve">
<style type="text/css">
	.st0{fill:#FFE7B2;}
	.st1{fill:#FFE6B2;}
	.st2{fill:#499B89;}
	.st3{fill:#060808;}
	.st4{fill:#040405;}
	.st5{fill:#121312;}
	.st6{fill:#2E786E;}
	.st7{fill:#F6EECD;}
	.st8{fill:#1F6E65;}
	.st9{fill:#FEF9F3;}
	.st10{fill:#33978C;}
	.st11{fill:#FDF9F3;}
	.st12{fill:#F2F1EF;}
	.st13{fill:#39A69A;}
	.st14{fill:#2C8279;}
</style>
<path class="st0" d="M1312.37,729.71c-2.64-0.42-4.89-1.83-7.08-3.17c-30.82-18.8-60.48-39.05-86.67-64.23
	c-32.67-31.41-59.55-66.85-78.94-107.86c-12.35-26.12-20.69-53.42-25.01-82.06c-3.16-20.97-4.53-41.99-3.49-63.08
	c1.75-35.7,9.52-70.03,26.42-101.82c17.27-32.5,41.05-58.77,74.62-75.06c17.68-8.58,36.4-13.2,56.12-14.64
	c31.87-2.33,61.42,5.67,89.84,18.92c12.34,5.75,24.89,11.26,36.02,19.33c-0.7,10.59-2.18,21.07-4.43,31.45
	c-1.37,6.3-4.7,12.02-5.24,18.54l0.07-0.08c-1.5,0.28-1.99,1.53-2.54,2.7c-2.12,4.52-4.39,8.99-6.31,13.59
	c-4.89,11.7-8.52,23.7-7.91,36.59c0.09,1.82-0.81,4.42,2.44,4.72c0.2,0.1,0.31,0.25,0.33,0.48c-0.38,2.75,1.59,2.98,3.53,3.43
	c6.33,1.46,12.83,1.4,19.23,1.72c15.68,0.79,31.25-1.4,46.82-2.88c4.37-0.42,9.42-2.63,10.64-4.28c1.61-1.22,2.64,0.13,3.84,0.84
	c6.11,3.59,12.6,6.18,19.57,7.53c-2.2,1.48-4.87,1.18-7.23,1.92c-3.82,1.21-8.75-0.44-11.29,4.2c-21.01,6.6-40.37,16.48-58.33,29.18
	c-12.45,8.8-23.52,19.26-35.04,29.18c-0.42,0.37-0.84,0.74-1.26,1.12l0.14-0.13c-0.38,0.35-0.76,0.7-1.13,1.06l0.12-0.12
	c-0.37,0.36-0.74,0.71-1.11,1.07c0,0,0.11-0.11,0.11-0.11c-0.36,0.36-0.72,0.72-1.09,1.09c0,0,0.11-0.11,0.11-0.11
	c-0.37,0.36-0.73,0.71-1.1,1.07l0.09-0.08c-1.46-0.08-2.11,0.66-2.07,2.07c-0.27,0.27-0.54,0.53-0.81,0.8
	c-1.45-0.05-2.16,0.64-2.12,2.09c-0.28,0.28-0.55,0.55-0.83,0.83c-0.82,0.09-1.8,0.04-1.28,1.38c-0.05,0.23-0.2,0.37-0.43,0.42
	c-1.33-0.55-1.26,0.41-1.33,1.22l0.06-0.06c-0.82,0.06-1.77,0.02-1.23,1.34c-0.05,0.23-0.19,0.37-0.42,0.42
	c-1.32-0.54-1.26,0.41-1.34,1.23l0.07-0.08c-0.36,0.36-0.71,0.71-1.07,1.07c0,0,0.08-0.07,0.08-0.07c-1.41-0.05-2.07,0.64-1.99,2.04
	c0,0,0.08-0.09,0.08-0.09c-0.36,0.37-0.71,0.74-1.07,1.1c0,0,0.12-0.12,0.12-0.12c-0.36,0.43-0.71,0.86-1.07,1.3
	c-0.64,0.92-1.18,1.93-1.93,2.76c-18.09,19.89-35.12,40.6-49.55,63.35c-3.01,1.85-4.83,4.35-4.41,8.08
	c0.02,0.27-0.09,0.46-0.34,0.57c-2.27-0.37-1.16,1.31-1.33,2.21l0.09-0.09c-1.1,0.3-1.18,1.12-1.06,2.05l0.09-0.09
	c-3.28,1.05-3.1,4.34-4.1,6.72c-3.89,9.31-6.87,18.86-5.93,29.17c0.14,1.47-0.71,3.42,1.69,3.95c0.04,0.35,0.08,0.7,0.12,1.04
	c-1.43,4.92,1.93,15.1,6.09,18.44c1.96,2.62,3.92,5.25,5.88,7.87c1.25,4.53,4.82,6.41,8.85,7.75l-0.08-0.08
	c0.88,1.63,1.56,3.61,4.09,2.31c0.25-0.03,0.43,0.07,0.53,0.31c5.62,6.1,13.01,8.56,20.82,10.17l-0.08-0.06
	c0.51,1.72,2.85,2.33,2.7,4.45c-0.05,0.19-0.17,0.32-0.36,0.39c-2.22-0.65-2.21,0.87-2.27,2.33l0.09-0.09
	c-1.08,0.36-2.11,0.75-1.32,2.22c-0.02,0.25-0.15,0.41-0.4,0.48c-2.47-0.13-2.09,1.75-2.28,3.24l0.07-0.07
	c-0.63,0.46-1.49,0.77-1.87,1.39c-5.66,9.21-8.89,19.27-10.01,29.99c-0.16,1.53-0.53,3.27,0.78,4.62
	c-0.49,8.89,1.13,17.6,1.94,26.39c0.78,8.47,1.75,10.71,9.6,13.24C1314.2,717.38,1314.06,723.73,1312.37,729.71z"/>
<path class="st1" d="M1635.16,364.54c5-5.1,11.86-6.54,18.19-8.75c21.31-7.42,43.35-11.23,65.9-10.73
	c30.69,0.68,59.47,7.99,84.14,27.29c19.4,15.18,35,33.83,47.8,54.81c18.38,30.13,30.83,62.63,36.73,97.39
	c8.44,49.68,2.3,97.34-21.98,142.02c-13.31,24.48-31.52,44.81-53.49,61.85c-19.23,14.92-39.88,27.38-62.63,36.21
	c-1.34,0.52-2.79,0.75-4.19,1.11c0.77-1.4,1.5-2.83,2.31-4.21c5.7-9.62,9.62-19.89,11.3-30.98c0.68-4.14,1.56-8.26,2.01-12.43
	c2.06-19.1-0.32-37.97-3.02-56.83c-0.44-2.71-0.86-5.42-1.33-8.12c-3.78-21.68-9.87-42.84-14.62-64.31
	c-1.53-6.9-1.27-14.19-4.57-20.69c-0.33-3.34-0.66-6.68-0.99-10.02c0.57-12.07-2.58-23.7-4.3-35.48c-2.07-14.2-4.9-28.28-8.21-42.26
	c-5.26-22.28-9.3-44.96-19.65-65.69c-1.81-3.62-2.75-8.08-6.91-10.2l0.08,0.08c-0.02-0.92-0.07-1.8-1.39-1.48l-0.15-0.24
	c0.32-0.64,0.07-1.02-0.56-1.23l0.08,0.09c-0.03-0.47-0.06-0.93-0.09-1.4c-0.27,0.1-0.53,0.21-0.8,0.31
	c-0.86-0.93-1.77-1.83-2.58-2.81c-12.84-15.42-29.29-24.65-48.84-28.58c-2.01-1.97-4.64-2.73-7.16-3.72
	C1635.87,365.21,1635.52,364.88,1635.16,364.54z"/>
<path class="st2" d="M1759.25,730.56c-1.68,11.09-5.6,21.36-11.3,30.98c-0.82,1.38-1.54,2.8-2.31,4.21
	c-11.61,16.59-26.06,29.9-44.46,38.68c-1.73,0.83-3.55,1.47-5.33,2.2c-1.83-1.51-3.34,0.18-4.85,0.66
	c-6.44,2.05-12.82,4.28-19.54,5.31c-14.6,2.89-29.22,2.51-43.91,0.59c-3.84-0.5-7.69-2.61-11.71-0.73
	c-0.36-0.08-0.73-0.17-1.09-0.25c-6.31-3.97-13.33-5.95-20.57-7.33c0,0,0.1,0.1,0.1,0.09c-1.8-2.99-4.64-3.92-7.92-3.99
	c0,0,0.1,0.09,0.1,0.09c-2.08-2.36-3.95-5.12-7.79-4.2l-0.3,0.15c0,0-0.32-0.08-0.33-0.08c0.61-2.33-0.91-3.61-2.43-4.88
	c-9.62-8.02-16.91-17.97-23.03-28.75c-13.83-24.39-22.26-50.95-30.52-77.55c-0.6-1.92-0.32-3.85,0.25-5.75
	c4.08-13.63,8.25-27.23,12.14-40.92c0.85-2.99,2.68-4.18,5.22-5.25c5.53-2.33,11.79-2.08,17.17-4.89c3.1,0.01,6.23,0.14,8.16-3.02
	l-0.04,0.1c1,0.07,1.83-0.22,2.32-1.17c30.69-14.46,49.49-42.2,72.84-65.36c7.99,11.18,16.16,22.1,23.79,33.39
	c15.62,23.12,30.35,46.8,43.18,71.62c0.8,1.54,1.48,4.47,3.99,3.17c2.71-1.4,0.21-3.48-0.51-4.91c-3.98-7.79-8-15.57-12.35-23.16
	c-9.92-17.32-20.96-33.94-31.78-50.7c6.8,0.05,13.59,0.21,20.39,0.12c11.85-0.16,23.01-3.12,33.27-9.04
	c5.72-3.3,11.01-7.27,14.11-13.43c1.17,0.54,2.35,1.08,3.52,1.62c3.3,6.5,3.04,13.8,4.57,20.69c4.75,21.47,10.84,42.63,14.62,64.31
	c0.47,2.7,0.89,5.41,1.33,8.12c-2.41,4.94,0.05,9.87,0.54,14.63c1.49,14.48,2.17,28.86,0.83,43.39
	C1759.26,722.99,1757.55,726.78,1759.25,730.56z"/>
<path class="st3" d="M1666.42,588.91c10.82,16.76,21.86,33.38,31.78,50.7c4.35,7.59,8.38,15.37,12.35,23.16
	c0.73,1.43,3.22,3.51,0.51,4.91c-2.51,1.3-3.19-1.63-3.99-3.17c-12.83-24.82-27.56-48.5-43.18-71.62
	c-7.63-11.29-15.8-22.2-23.79-33.39c-23.35,23.15-42.15,50.89-72.85,65.36c-0.86,0.23-1.91,0.07-2.31,1.17c0,0,0.04-0.1,0.04-0.1
	c-2.89,0.56-5.67,1.38-8.16,3.02c-5.38,2.81-11.63,2.56-17.17,4.89c-2.53,1.07-4.37,2.27-5.22,5.25
	c-3.89,13.68-8.06,27.29-12.14,40.92c-0.57,1.9-0.85,3.83-0.25,5.75c8.26,26.6,16.69,53.16,30.52,77.55
	c6.11,10.78,13.4,20.73,23.03,28.75c1.52,1.27,3.04,2.54,2.43,4.88c-0.42,0.34-0.84,0.69-1.26,1.03
	c-4.38-3.12-8.32-6.73-11.99-10.66c-12.58-13.5-20.84-29.61-27.93-46.41c-6.75-15.98-12.23-32.42-17.57-50.47
	c-3.21,10.72-6.02,20.08-8.83,29.44c-0.09,0.62-0.18,1.25-0.27,1.87l0.1-0.06c-1.19,0.71-0.92,1.93-1.04,3.02l0.08-0.08
	c-1.12,1.13-1.26,2.51-1.02,3.98l0.02-0.06c-2.45,3.18-2.85,7.12-3.96,10.79l0.08-0.07c-1,0.78-0.99,1.91-1.06,3.01l0.08-0.09
	c-1.04,0.76-0.97,1.92-1.06,3.01l0.07-0.09c-1.25,0.84-0.95,2.21-1.16,3.41c-3.84,6.89-5.37,14.76-9.28,21.65
	c-3.35,5.9-4.41,6.59-11.1,5.47c-1.21-0.2-3.14-1.08-3.43,0.47c-1.12,5.88-5.47,10.72-5.29,16.97c-2.31,13.61-0.04,27.19,0.33,40.78
	c0.26,9.39,0.08,18.7-1.99,27.96c-1.59,7.06-5.47,12.15-11.29,16.15c-5.99,4.12-12.41,7.19-19.48,8.96
	c-2.52,0.63-4.92,1.85-6.97-1.02c-0.99-1.39-1.92,0.03-2.84,0.49c-22.09,11.1-45.41,18.63-69.9,21.56
	c-18.14,2.18-36.51,3.01-54.55-1.68c-9.16-2.38-13.43-7.45-13.06-14.32c0.09-1.72,2.41-2.99,0.81-4.86
	c1.83,1.28,1.97-0.61,2.51-1.44c3.47-5.39,8.06-9.69,12.87-13.85c13.96-12.09,29.96-21.49,44.05-33.38
	c13.76-11.61,25.63-24.53,30.13-42.8c1.57-6.35,1.7-13.49,7.35-18.31c0.15-0.13-0.22-0.87-0.34-1.33c0.23,0.21,0.44,0.42,0.69,0.59
	c0.04,0.02,0.3-0.17,0.34-0.3c2.01-5.33,3.04-10.91,4.24-16.44c0.48-2.23-1.42-2.42-2.93-2.82c-0.22-0.18-0.46-0.24-0.74-0.19
	c-0.19-0.57-0.54-0.92-1.2-0.78c-0.21-0.19-0.45-0.26-0.72-0.21c-0.72-1.16-1.88-1.61-3.11-1.98l0.04,0.04
	c-0.66-1.45-2.13-2.26-3.35-2.59c-7.1-1.87-13.87-4.9-21.19-5.97c-0.64-0.07-1.28-0.13-1.92-0.2c-0.49-0.7-1.16-0.94-1.99-0.75
	c-0.96-0.08-1.92-0.17-2.88-0.25c-1.12-1.28-2.55-0.91-3.95-0.76c-0.64-0.05-1.29-0.11-1.93-0.16c-2.18-1.18-4.51-1.05-6.86-0.81
	c-0.65,0-1.29,0-1.94,0c-1.9-0.05-3.8-0.15-5.71-0.16c-6.77-0.02-6.77-0.01-7.83,6.86c-0.08,0.63-0.17,1.26-0.25,1.9
	c-0.81,0.47-0.88,1.19-0.7,2.01c-0.11,0.95-0.22,1.9-0.33,2.85c-1.36,2.11-0.88,4.66-1.64,6.91c-0.04,0.65-0.08,1.3-0.12,1.94
	c-1.77,2.54-1.54,3.84,1.97,4.19c6.2,0.63,12.35,1.65,18.53,2.5c0.97,0.05,1.94,0.11,2.91,0.16c1.48,1.2,3.18,1.07,4.9,0.81
	c0.65,0.04,1.3,0.07,1.95,0.11c1.54,0.79,3.15,1.2,4.88,0.87c0.65,0,1.3,0,1.95,0c8.19,1.62,16.44,1.17,24.71,0.97
	c1.36-0.03,4.13-1.89,4.25,1.73c-5.6,1.77-6.95,6.36-7.64,11.42c-0.13,0.93-0.6,1.82-0.84,2.74c-4.81,18.31-13.64,33.95-29.37,45.23
	c-10.62,7.62-21.07,15.49-31.47,23.43c-10.53,8.03-21.21,15.99-27.3,28.32c-6.52,4.15-14.1,4.92-21.39,6.3
	c-13.45,2.55-27.03,2.97-40.63,1.05c-2.22-0.31-4.47-0.61-6.61-1.25c-12.65-3.8-15.81-12.83-8.09-23.66
	c8.13-11.42,19.66-19.13,30.68-27.36c13.07-9.76,26.8-18.59,39.52-28.87c12.92-10.45,19.02-24.82,24.25-39.76
	c1.16-3.32,1.74-6.01,6.07-5.07c1.45,0.32,1.73-0.62,1.96-1.98c0.72-4.26,1.72-8.47,2.62-12.7c0.24-1.13,0.58-2.3-0.95-2.8
	c-9.84-3.2-9.11-11.13-8.51-19c0.06-0.81,0.1-1.62,0.16-2.43c1.69-5.98,1.83-12.33,4.33-18.11c-7.84-2.54-8.82-4.77-9.6-13.24
	c-0.81-8.79-2.43-17.5-1.94-26.39c0.84-12.88,4.97-24.75,11.1-36c0,0-0.07,0.07-0.07,0.07c0.76-1.08,1.52-2.16,2.28-3.24
	c0.24-0.07,0.37-0.23,0.4-0.48c0.44-0.74,0.88-1.48,1.32-2.22c0,0-0.09,0.09-0.09,0.09c0.76-0.78,1.51-1.55,2.27-2.33
	c0.19-0.06,0.31-0.19,0.36-0.39c0.77-0.8,1.54-1.61,2.31-2.41c-1.42-1.3-3.13-1.88-5.01-2.04c0,0,0.08,0.06,0.08,0.06
	c-6.94-3.39-13.88-6.78-20.82-10.17c-0.1-0.24-0.28-0.34-0.53-0.31c-1.36-0.77-2.73-1.54-4.09-2.31c0,0,0.08,0.08,0.08,0.08
	c-2.95-2.58-5.9-5.17-8.85-7.75c-1.96-2.62-3.92-5.25-5.88-7.87c-2.55-5.97-5.24-11.9-6.09-18.44c-0.04-0.35-0.08-0.7-0.12-1.04
	c-0.76-4.32-0.71-8.6-0.18-12.98c1.15-9.53,5.16-18.08,8.52-26.86c0,0-0.09,0.09-0.09,0.09c0.96-0.37,0.85-1.3,1.06-2.05
	c0,0-0.09,0.09-0.09,0.09c1.09-0.35,0.75-1.55,1.33-2.21c0.25-0.11,0.36-0.3,0.34-0.57c1.47-2.69,2.94-5.39,4.41-8.08
	c14.43-22.75,31.46-43.46,49.55-63.35c0.75-0.82,1.29-1.83,1.93-2.76c0.36-0.43,0.71-0.86,1.07-1.3c0,0-0.12,0.12-0.12,0.12
	c0.36-0.37,0.71-0.74,1.07-1.1c0,0-0.08,0.09-0.08,0.09c0.66-0.68,1.32-1.36,1.99-2.04c0,0-0.08,0.07-0.08,0.07
	c0.36-0.36,0.71-0.71,1.07-1.07c0,0-0.07,0.08-0.07,0.08c0.45-0.41,0.89-0.82,1.34-1.23c0.23-0.05,0.37-0.19,0.42-0.42
	c0.41-0.45,0.82-0.89,1.23-1.34c0,0-0.06,0.06-0.06,0.06c0.44-0.41,0.88-0.81,1.33-1.22c0.23-0.05,0.38-0.19,0.43-0.42
	c0.43-0.46,0.85-0.92,1.28-1.38c0.28-0.28,0.55-0.55,0.83-0.83c0.71-0.7,1.42-1.4,2.12-2.09c0.27-0.27,0.54-0.53,0.81-0.8
	c0.69-0.69,1.38-1.38,2.07-2.07c0,0-0.09,0.08-0.09,0.08c0.37-0.36,0.73-0.71,1.1-1.07c0,0-0.11,0.11-0.11,0.11
	c0.36-0.36,0.72-0.72,1.08-1.09c0,0-0.11,0.11-0.11,0.11c0.37-0.36,0.74-0.71,1.11-1.07c0,0-0.12,0.12-0.12,0.12
	c0.38-0.35,0.76-0.7,1.13-1.05c0,0-0.14,0.13-0.14,0.13c0.42-0.37,0.84-0.74,1.26-1.11c11.52-9.92,22.59-20.38,35.04-29.18
	c17.96-12.7,37.32-22.58,58.33-29.18c-0.1,1.53,0.3,3.18-1.13,4.36c-0.71,0.02-1.43,0.01-1.71,0.87
	c-44.62,14.27-77.37,45.08-109.55,78.17c13.45,0.4,25.09,4.07,35.93,10.29c1.66,0.95,2.62,0.35,3.94-0.28
	c16.76-8.1,34.07-10.02,52.03-4.57c9.12,3.77,18.14,7.75,25.8,14.18c1.3,1.09,2.32,1.25,3.88,0.42c7.52-3.97,15.7-5.89,23.97-7.51
	c7.16-0.88,14.32-0.9,21.48,0c15.87,2.48,30.25,8.3,42.28,19.18c2.06,1.86,2.8,0.4,3.75-0.84c3.67-4.76,7.45-9.44,10.87-14.37
	c14.88-21.45,28.84-43.61,47.7-62c4.45-4,8.97-7.91,14.1-11.05c1.24-0.76,2.35-1.32,3.36,0.05c1.07,1.45,0.07,2.17-1.11,3.01
	c-23.26,16.66-38.36,40.3-54.5,63.11c19.67-2.64,36.04,4.58,50.89,15.83c14.89,11.28,26.14,25.47,31.68,44.42
	c0.64-0.92,0.98-1.45,1.37-1.97c9.72-12.9,19.73-25.59,28.62-39.1c0.9-1.36,1.65-4.48,4.14-2.85c2.65,1.75-0.01,3.75-0.95,5.21
	c-3.38,5.31-6.95,10.5-10.62,15.61c-11.62,16.18-24.35,31.5-36.95,46.92c-1.12,1.37-3.44,2.45-1.32,5.18
	C1651.4,568.7,1658.86,578.84,1666.42,588.91z M1468.27,483.45l0.07-0.04c-0.88-0.07-1.73-0.08-2.03,1.02l0.08-0.04
	c-0.9-0.11-1.71-0.02-2.04,1.02l0.08-0.04c-0.88-0.06-1.69,0.02-2.04,1.02l0.08-0.06c-0.87-0.02-1.64,0.17-2.04,1.05l0.08-0.07
	c-0.56,0.14-1.16,0.26-1.03,1.07l0.05-0.07c-0.96-0.23-1.64,0.1-2.05,1l0.08-0.06c-0.59,0.13-1.15,0.28-1.02,1.08l0.06-0.05
	c-0.96-0.24-1.61,0.16-2.04,1c0,0,0.11-0.04,0.11-0.04c-0.48,0.34-0.97,0.69-1.45,1.03c-12.76,9.23-21.02,21.79-26.73,36.23
	c-0.1,0.61-0.2,1.23-0.3,1.84l0.08-0.05c-1.11,0.29-0.92,1.24-1.03,2.04l0.09-0.08c-1.07,0.75-1.02,1.9-1.07,3.01l0.09-0.07
	c-1.16,0.71-0.98,1.9-1.07,2.99l0.09-0.06c-1.69,1.98-1.67,4.53-2.32,6.86c-3.05,9.57-4.01,19.5-5.14,29.41
	c-0.35,2.18-0.56,4.35-0.02,6.92c2.96-1.38,5.79-2.7,8.61-4.01l-0.06,0.05c0.32-0.01,0.62-0.07,0.91-0.2
	c12.4-5.03,24.8-10.05,37.2-15.08c1.7-0.63,3.68-0.66,4.9-2.33l-0.05,0.03c3.4-0.07,6.42-1.35,9.33-2.97l0.34,0.07
	c2.14-0.28,4.24-0.68,6.02-2.02l-0.07,0.09c2.9-0.74,5.8-1.49,8.7-2.23c0.37-0.15,0.74-0.3,1.11-0.46c0.62-0.14,1.24-0.29,1.87-0.43
	c0.79,0.12,1.51,0.03,2.01-0.69c1.33-0.33,2.9,0.15,3.94-1.17l-0.07,0.09c3.88-0.74,7.76-1.49,11.64-2.23
	c2.39-0.56,4.89-0.18,6.62-2.98c9.25-15.02,19.18-29.6,29.88-43.61c3.08-4.03,2.43-5.94-1.23-8.68
	c-8.99-6.73-18.23-12.74-29.76-13.97c-6.88-2.75-14.14-3.06-21.34-2.6c-4.51,0.29-9.32-0.06-13.44,2.59l0.05-0.03
	c-2.88-0.31-5.48,0.46-7.89,1.99l0.07-0.09c-0.77,0.15-1.81-0.21-2.02,1.04l0.07-0.01c-1.2-0.27-2.28-0.18-3.01,0.99l0.07-0.08
	C1469.48,482.48,1468.55,482.33,1468.27,483.45z M1503.66,725.69l-0.08,0.08c1.08-0.75,0.99-1.91,1.06-3.01l-0.09,0.07
	c1.06-0.75,0.98-1.91,1.05-3.01l-0.08,0.08c1.6-3.25,2.76-6.64,3.1-10.27c0.14-0.08,0.37-0.13,0.41-0.24
	c7.77-23.63,13.57-47.85,21.73-71.36c0.98-2.83-1.09-2.51-2.65-2.2c-6.75,1.32-13.47,2.75-20.27,4.16
	c3.83,7.71,3.94,11.89-0.24,15.03c-2.7,2.02-4.08,4.08-4.35,7.51c-0.24,3.03-2.5,5.27-5.42,6.36c-5.32,1.98-10.98,3.26-14.87,7.95
	c-2.18,2.63-5.48,2.6-8.07,1.83c-3.91-1.17-6.26,0.28-8.5,2.96c-0.53,0.18-1.13,0.29-1.03,1.08l0.07-0.05
	c-6.41,2.11-13.01,0.63-19.51,1.06c-0.26-0.08-0.52-0.1-0.79-0.05c-0.94-1.6-2.71-0.76-3.99-1.37
	c-14.69-3.82-28.29-10.02-40.83-18.81c-1.64,2.77-1.39,5.79-2.09,8.58c-1.34,8.61-3.9,17.01-4.23,25.78l0.12-0.03
	c-1.75,1.45-0.68,3.69-1.5,5.4c-2.31,12.89-4.59,25.78-6.97,38.65c-0.35,1.89-0.17,2.65,2,2.54c12.95-0.66,25.87-0.36,38.69,1.88
	c1.99,1.24,4.16,1.37,6.4,1.01l-0.05-0.06c3.14,2.02,6.71,2.51,10.3,3l-0.07-0.09c2.27,1.32,4.69,2.07,7.33,2.13
	c0.48,1.08,1.61,0.99,2.47,1.29c11.87,4.22,24.06,7.67,34.91,14.35c1.53,0.94,1.85,0.34,2.29-1.03c1.17-3.69,2.48-7.34,3.73-11
	c0.73-2.25,1.47-4.5,2.2-6.76l-0.07,0.07c0.97-0.79,1.01-1.9,1.07-3.01l-0.08,0.08c1.07-0.75,1-1.9,1.07-3.01l-0.08,0.08
	c1.17-0.72,0.96-1.92,1.05-3.01l-0.08,0.08c1.22-0.7,0.91-1.93,1.05-3.01l-0.08,0.09c1.12-0.74,0.99-1.91,1.06-3.02l-0.08,0.08
	c1.08-0.75,0.98-1.91,1.06-3.01l-0.08,0.08c1.15-0.72,0.99-1.91,1.06-3.01l-0.09,0.07C1503.73,727.97,1503.57,726.78,1503.66,725.69
	z M1404.9,577.38l-0.1-0.05c0.74,1.06,1.67,1.84,2.99,2.04l-0.09-0.02c0.85,1.1,1.61,2.32,3.61,2.24
	c-0.26-6.72,1.92-13.2,1.36-19.91c0.09-0.28,0.12-0.57,0.08-0.86c1.67-3.12,1.73-6.55,1.99-9.95c0.15-0.18,0.15-0.37,0-0.55
	c1.4-1.11,0.76-2.89,1.39-4.25c4.35-15.52,9.97-30.46,20.24-43.2c6.3-7.81,13.73-14.39,22.52-19.92
	c-11.17-8.54-23.01-14.12-36.52-15.84c-5.46-0.41-10.93-0.48-16.39-0.03c-2.93,0.04-5.71,0.88-8.5,1.65
	c-32.51,9.02-49.07,35.18-56.14,65.89c-0.49,2.11,0.25,3.09,2.35,3.9c11.86,4.61,22.39,11.64,32.8,18.79
	c9.06,6.22,17.97,12.67,26.95,19.02C1403.93,576.69,1404.42,577.03,1404.9,577.38z M1335.6,716.82l0.07,0
	c-1.57-3.38-3.8-1.24-5.85-0.71c-3.51,0.53-6.55-0.63-9.58-2.99c-0.42,1.47-0.75,2.66-1.09,3.85c-0.1,1.27-0.19,2.54-0.29,3.81
	l0.06-0.04c-2.21,4.32-1.67,9.14-2.49,13.71c-0.08,0.68-0.17,1.36-0.25,2.03c0.3,0.86-1.23,2.53,1.09,2.51
	c0.59,0.26,1.01,0.13,1.19-0.53c10.91,0.01,21.83,0.02,32.74,0.03c10.08,1.97,20.05,4.38,29.96,8.4c0.28-7.47,1.96-14.35,3.02-21.33
	c0.3-1.59,0.73-3.16,0.88-4.76c0.7-7.54,3.53-14.77,3.19-22.45c1.9-3.71,1.96-7.86,2.85-11.81c1.02-5,2.03-10.01,3.3-16.25
	c-2.71,2.39-4.47,3.93-6.22,5.48l0.09-0.01c-0.91-0.1-1.49,0.4-1.99,1.06c-10.17,6.29-18.39,14.56-25.27,24.29
	c-4.61,6.53-10.26,11.96-17.67,15.31C1340.8,717.32,1338.18,716.57,1335.6,716.82z M1376.44,473.26c-8.9-4.68-18.1-7.48-27.63-8.94
	c-3.3-0.51-7.34-1.93-10.07,1.17c-17.79,20.17-35.34,40.57-48.51,64.2c-6.99,12.54-13.31,25.43-12.24,40.46
	c1.13,15.84,6.91,29.18,21.23,37.45c18.9,10.9,39.27,18.03,60.6,22.3c8.48,1.69,16.16,4.1,21.71,11.27c2.18,2.81,4.92,5.2,7.55,7.62
	c16.97,15.6,36.39,26.71,59.29,30.67c5.92,1.03,12.55,1.86,17.96-3.27c-10.89-3.24-21.14-7.3-30.72-12.95
	c-1.21-0.72-3.17-1.25-2.31-3.07c0.97-2.06,2.64-0.89,4.09-0.18c5.21,2.52,10.37,5.17,15.7,7.43c7.69,3.27,15.57,6.06,24.02,6.46
	c2.94,0.14,5.86-0.16,7-3.75c1.24-3.91-2.3-4.16-4.21-5.3c-9.81-5.85-19.75-11.5-29.65-17.19c-1.43-0.82-3.92-1.19-2.73-3.48
	c1.35-2.6,3.28-0.72,4.93,0.12c0.43,0.22,0.82,0.51,1.24,0.75c10.27,6.02,20.53,12.05,30.81,18.05c1.25,0.73,2.57,1.34,3.88,1.95
	c3.54,1.64,7.3,1.92,9.69-1.41c2.44-3.41,0.59-6.67-2.06-9.5c-9.62-10.27-21.31-17.85-32.95-25.49c-1.55-1.02-3.91-1.92-2.12-4.41
	c1.54-2.16,3.07-0.56,4.57,0.38c12.25,7.73,23.5,16.72,33.67,27.02c2.15,2.18,3.93,1.94,5.87,0.58c1.95-1.37,2.99-3.16,1.67-5.83
	c-1.09-2.2-2.35-4.2-3.93-6.05c-7.44-8.66-15.94-16.27-24.39-23.88c-10.14-9.13-21.31-16.7-34.81-20.09
	c-5.28-1.33-10.53-3.01-15.91-3.7c-12.99-1.68-22.65-9.44-32.55-16.9c-23.33-17.59-46.8-34.9-76.53-40.33
	c-1.91-0.35-3.23-0.87-2.74-2.98c0.52-2.28,2.38-1.17,3.63-1.01c6.06,0.75,11.82,2.83,17.57,4.32
	C1341.57,509.45,1353.78,488.17,1376.44,473.26z M1416.73,585.67c4.19,1.76,8.46,2.52,12.71,3.32c17.65,3.35,34.05,9.41,47.88,21.39
	c8.36,7.25,16.46,14.77,23.96,22.88c2.46,2.66,4.95,3.04,8.08,2.38c7.55-1.57,15.13-3.03,22.67-4.69
	c15.53-3.43,30.89-7.43,44.71-15.69c11.27-6.74,20.25-16.17,29.31-25.48c16.99-17.47,33.49-35.37,47.98-55.02
	c1.18-1.61,1.86-2.8,1.17-5.17c-8-27.8-38.48-53.87-66.93-56.71c-7.75-0.77-14.51,0.89-19.41,8.03
	c-8.86,12.91-18.26,25.44-27.33,38.21c-6.25,8.81-12.33,17.74-18.68,26.9c1.54,0,2.35-0.05,3.16,0.01c1.96,0.14,4.88-0.83,4.82,2.4
	c-0.06,2.96-2.94,1.87-4.64,1.99c-8.07,0.56-15.94,2.18-23.78,4.07C1472.87,561.62,1444.99,573.31,1416.73,585.67z M1309.6,681.94
	c4.1-11.98,9.47-23.22,16.02-33.9c0.89-1.44,1.45-4.07,3.46-3.11c2.06,0.99,0.42,3.07-0.32,4.59c-0.42,0.86-0.96,1.67-1.43,2.51
	c-6.3,11.19-11.98,22.67-14.62,35.35c-1.07,5.13-2.85,10.33-0.67,15.66c0.81,1.97,2.32,3.37,4.22,3.53c2.34,0.2,2.04-2.32,2.7-3.76
	c0.46-1.01,0.69-2.12,1.02-3.18c3.94-12.76,8.63-25.17,16.42-36.18c0.87-1.23,1.46-3.41,3.5-2.16c2.34,1.44,0.5,2.94-0.39,4.42
	c-2.31,3.85-4.64,7.7-6.77,11.65c-5.3,9.78-7.24,20.83-11.59,30.98c-0.57,1.33,0.33,1.41,1.21,1.96c5.56,3.47,8.05,2.93,11.06-3.06
	c5.74-11.41,12.07-22.42,20.82-31.84c0.9-0.97,1.68-3.43,3.73-1.86c2.28,1.75,0.18,3.2-0.9,4.36c-8.22,8.83-14.04,19.22-19.39,29.9
	c-0.63,1.25-2.49,2.85-1.4,4c1.41,1.49,3.71,1.68,5.85,0.79c5.07-2.1,8.98-5.6,12.47-9.74c4.28-5.08,7.47-10.97,12.19-15.73
	c8.15-8.23,17.64-14.69,27.14-21.16c2.33-1.58,4.72-3.38,1.25-6.09c-7.21-5.63-13.29-12.43-19.69-18.88
	c-2.51-2.53-5.37-4.32-8.7-4.93c-12.19-2.22-24.02-5.78-35.85-9.37c-1.79-0.54-2.39-0.39-3.79,1.16
	C1313.23,643.31,1308.8,661.79,1309.6,681.94z M1450.76,783.28c3.9,0,7.8,0.14,11.7-0.03c8.95-0.38,8.96-0.44,11.68-8.84
	c0.44-1.37,0.53-2.91,1.22-4.13c1.65-2.92,0.21-3.61-2.34-4.67c-10.64-4.44-21.45-8.41-32.56-11.4c-11.49-3.08-23.09-5.87-35.1-6.05
	c-1.4-0.02-2.99-0.83-3.53,1.88c-1.75,8.81-3.84,17.55-6.02,26.26c-0.43,1.69-0.04,1.95,1.35,2.1
	C1415.01,780.23,1432.72,783.54,1450.76,783.28z"/>
<path class="st4" d="M1474.23,370.37c-6.97-1.35-13.46-3.94-19.57-7.53c-1.2-0.71-2.23-2.06-3.84-0.84
	c-21.97,5.83-44.43,5.9-66.88,5.11c-4.43-0.16-9.54,0.64-13.34-3.09c-0.02-0.22-0.13-0.38-0.33-0.48c-2.72-9.24-0.19-18.12,1.94-27
	c2.59-10.82,8.43-20.33,12.38-30.6c0,0-0.07,0.08-0.07,0.08c0.28-0.37,0.65-0.69,0.83-1.1c6.82-15.57,8.82-32.19,10.6-48.86
	c1.78-24.29,6.14-47.82,20.07-68.56c19-28.3,45.19-45.3,78.94-50.61c16.49-2.59,32.84-1.81,49.19,2.02
	c-5.47-10.96,0.3-27.41,12.43-34.51c10.6-6.21,21.88-6.92,32.71-0.78c10.49,5.94,14.51,15.92,14.76,27.58
	c0.16,7.16-4.12,12.05-9.15,16.28c-4.31,3.62-9.11,6.56-14.96,8.63c2.49,1.86,4.8,3.49,7.01,5.24
	c19.48,15.44,30.71,36.08,37.67,59.48c5.13,17.26,10.76,34.37,21.63,49.06c5.1,6.9,11.21,13.05,16.37,19.91
	c8.79,11.68,14.17,24.75,14.74,39.58c0.14,3.78-1.55,6.11-4.76,7.62c-15.38,7.22-31.6,11.54-48.4,13.75
	c-10.45,1.38-20.92,2.51-31.44,1.62c1.66,4.4,6.01,7.12,13.08,8.11c0,0,0.12,0.1,0.12,0.1c-1.11,8.09-7.02,13.58-10.92,20.16
	c-1.24,0.96-2.54,1.88-2.69,3.64c-0.35,0.83-2,1.06-1.13,2.45l-0.1-0.18c-6.77,6.88-12.57,14.71-20.45,20.51
	c-14.24,10.47-29.4,17.64-47.82,14.93c-13.89-2.05-27-15.9-24.28-29.83c0.9-4.58,0.63-9.32,0.52-14.04
	c-0.12-5.52-2.24-6.97-7.15-5.8C1486,372.12,1480.03,372.02,1474.23,370.37z M1489.47,186.54c-17.56,26.76-41.64,43.55-71.78,51.73
	c-2.53,0.69-2,1.96-2.04,3.41c-0.33,13.81-0.01,27.55,1.82,41.3c2.15,16.2,5.98,31.85,12.83,46.7
	c14.29,30.99,45.19,43.66,75.22,36.87c18.65-4.22,33.51-14.49,46.65-27.82c1.07-1.08,1.9-3.92,4.05-2.02
	c2.03,1.78-0.36,3.05-1.42,4.21c-13.54,14.68-29.37,25.67-49.21,29.89c-3.14,0.67-3.53,2.15-2.89,4.53
	c1.25,4.66,1.85,9.71,0.52,14.01c-4.78,15.49,10.21,28.17,23.94,28.91c15.15,0.82,28.1-4.44,39.83-13.39
	c13.77-10.49,23.48-24.47,32.98-38.64c1.8-2.68,0.41-3.12-1.67-3.81c-6.05-2-9.08-6.44-10.91-12.43
	c-4.22-13.86-5.59-28.09-6.89-42.41c-0.47-5.13,1.03-10.98-3.59-15.36c-0.74-0.7-0.99-3.02,0.66-3.82c1.12-0.55,2.68-0.41,3.05,1.37
	c0.2,0.97,0.71,1.47,1.63,1.34c7.08-0.96,14.75,0.01,20.11-6.49c3.64-4.42,6.75-9.21,8.14-14.72c1.5-5.92,1.36-11.91-3.09-16.91
	c-8.09-9.1-22.68-7.28-29.09,3.98c-2.42,4.26-4.16,4.57-7.99,1.62c-13.05-10.09-26.12-20.15-40.07-29.02
	C1513.23,218.74,1498.31,205.8,1489.47,186.54z"/>
<path class="st2" d="M1472.22,793.08c-0.18-6.24,4.18-11.09,5.29-16.97c0.29-1.54,2.23-0.67,3.43-0.47
	c6.69,1.12,7.75,0.42,11.1-5.47c3.91-6.89,5.44-14.76,9.28-21.65c1.22-0.85,1.27-2.1,1.16-3.41c0,0-0.07,0.09-0.07,0.09
	c1.39-0.64,1.02-1.9,1.06-3.01c0,0-0.08,0.09-0.08,0.09c1.41-0.64,1-1.91,1.06-3.01c0,0-0.08,0.07-0.07,0.07
	c3.32-2.86,3.7-6.8,3.96-10.79c0,0-0.02,0.06-0.02,0.06c1.61-1,0.89-2.6,1.02-3.98c0,0-0.08,0.08-0.08,0.08
	c1.39-0.65,1.03-1.89,1.04-3.02c0,0-0.1,0.06-0.1,0.06c1.12-0.47,1.3-1.08,0.27-1.87c2.81-9.36,5.61-18.72,8.83-29.44
	c5.33,18.05,10.82,34.49,17.57,50.47c7.09,16.8,15.34,32.91,27.93,46.41c3.66,3.93,7.61,7.54,11.99,10.66
	c-6.62,4-14.08,5.32-21.52,6.71c-0.54-0.71-1.32-1-2.15-0.87c-6.7,1.13-13.39,2.26-20.23,2c-1.13-0.04-1.8,0.58-1.98,1.71
	c-4.26,0-8.52-0.01-12.78-0.01c-0.16-1.14-0.83-1.71-1.97-1.73c-10.51-0.24-20.4-3.19-30.1-6.94c-0.95-0.36-2.01-1.41-3.03-0.03
	C1479.08,797.56,1475.79,795.06,1472.22,793.08z"/>
<path class="st5" d="M1261.79,304.64c0.52-13.34,6.61-23.97,16.17-32.89c1.06-0.99,2.23-1.63,3.39-0.5c1.8,1.74-0.3,2.53-1.17,3.41
	c-7.32,7.39-12.19,15.99-14.13,26.35c-2.53,13.5,10.08,29.91,23.69,30.58c2.39,0.12,3.2-0.05,3.43-2.84
	c1.17-14.25,11.26-26.78,24.35-30.74c4.57-1.38,9.03-1.64,12.43,2.47c3.3,4,2.73,8.3,0.51,12.63
	c-6.38,12.49-16.98,19.59-30.16,22.93c-2.96,0.75-3,1.83-2.15,3.74c3.29,7.3,7.98,13.02,16.2,15.36c3.07,0.88,4.03,0.51,5.19-2.47
	c2.57-6.6,7.34-11.03,14.73-11.61c6.68-0.52,9.41,3.59,6.44,9.49c-3.06,6.08-8.51,8.85-14.94,9.06c-3.91,0.13-3.77,1.96-3.21,4.51
	c1.27,5.74,4.19,8.4,10.12,9.41c0.64,0.11,1.28,0.22,1.91,0.38c1.23,0.33,3.09,0.46,2.92,2c-0.19,1.73-1.76,2.4-3.66,2.42
	c-7.49,0.09-14.54-5.68-15.25-13.49c-0.34-3.72-1.53-4.51-5.04-5.27c-9.55-2.06-15.86-8.45-18.93-17.58
	c-1.32-3.93-2.75-5.34-7.28-5.99c-13.01-1.85-20.41-10.77-24.48-22.73C1261.96,310.53,1261.44,307.64,1261.79,304.64z
	 M1297.06,332.15c16.4-2.86,26.26-14.12,30.21-22.08c1.22-2.45,1.74-5.03-0.24-7.19c-1.77-1.93-4.21-2.05-6.74-1.39
	C1307.6,304.83,1295.96,318.52,1297.06,332.15z M1322.54,356c6.15-0.85,11.52-1.71,14.66-7.44c1.67-3.05,0.51-3.8-2.27-3.44
	C1328.77,345.93,1324.95,349.61,1322.54,356z"/>
<path class="st5" d="M1713.6,193.46c5.72-0.41,11.24,2.24,16.81,4.84c1.38,0.64,2.37,1.38,1.87,2.83c-0.67,1.95-2.29,1.42-3.65,0.83
	c-5.77-2.53-11.53-4.89-18.07-4.55c-6.47,0.34-12.29,4.81-13.55,11.07c-0.68,3.42-0.12,6.08,3.89,7.57
	c5.63,2.09,9.89,6.01,11.93,11.91c0.93,2.69,1.57,5.59-1.24,7.43c-2.54,1.66-5.01,0.18-7.06-1.46c-3.72-2.99-6.78-6.71-8.34-11.15
	c-1.36-3.89-3.36-5.61-7.38-4.75c-4.18,0.89-7.92,2.7-8.46,7.39c-0.76,6.58-0.11,12.99,5.26,17.86c1.17,1.06,2.17,2.21,1,3.7
	c-0.81,1.03-2.18,0.82-3.11,0.09c-6.19-4.82-7.95-11.61-7.69-18.96c0.23-6.44,2.89-11.54,9.66-13.52c2.25-0.66,7.18-5.77,7.82-8
	C1695.85,197.82,1702.63,193.27,1713.6,193.46z M1699.91,220.48c2.12,4.57,4.41,8.88,10.19,12
	C1708.37,225.9,1704.56,222.8,1699.91,220.48z"/>
<path class="st6" d="M1615.83,812.45c4.02-1.89,7.87,0.22,11.71,0.73c14.69,1.92,29.31,2.3,43.91-0.59c0.38,0.35,0.75,0.7,1.13,1.05
	c-9.15,2.53-18.52,3.02-27.92,2.73C1634.95,816.06,1625.3,814.85,1615.83,812.45z"/>
<path class="st7" d="M1395.96,256.05c-1.79,16.67-3.78,33.29-10.6,48.86c-0.18,0.41-0.55,0.74-0.83,1.1
	c0.54-6.51,3.87-12.23,5.24-18.54c2.25-10.39,3.73-20.86,4.43-31.45C1394.78,256.03,1395.37,256.04,1395.96,256.05z"/>
<path class="st8" d="M1483.04,798.82c1.01-1.38,2.08-0.34,3.03,0.03c9.71,3.75,19.59,6.7,30.1,6.94c1.14,0.03,1.8,0.59,1.97,1.73
	C1505.93,806.62,1494.1,804.28,1483.04,798.82z"/>
<path class="st8" d="M1635.16,364.54c0.35,0.34,0.71,0.68,1.06,1.01c-1.04,1.25-2.06,0.19-3.04-0.07
	c-8.94-2.35-17.81-5.09-27.21-4.91c0,0-0.12-0.1-0.12-0.1c3.6-2.23,7.47-1.07,11.07-0.39
	C1623.07,361.23,1629.09,363.02,1635.16,364.54z"/>
<path class="st8" d="M1530.91,807.52c0.18-1.13,0.85-1.75,1.98-1.71c6.84,0.26,13.53-0.87,20.23-2c0.83-0.14,1.6,0.15,2.15,0.87
	C1547.23,806.37,1539.16,807.73,1530.91,807.52z"/>
<path class="st8" d="M1672.59,813.63c-0.38-0.35-0.75-0.7-1.13-1.05c6.72-1.02,13.1-3.26,19.54-5.31c1.51-0.48,3.02-2.17,4.85-0.66
	C1688.39,809.93,1680.77,812.72,1672.59,813.63z"/>
<path class="st8" d="M1594.17,804.87c7.24,1.38,14.26,3.35,20.57,7.33C1607.68,810.34,1600.62,808.47,1594.17,804.87z"/>
<path class="st8" d="M1586.35,800.97c3.27,0.07,6.12,1,7.92,3.99C1591.39,804.1,1588.72,802.85,1586.35,800.97z"/>
<path class="st8" d="M1578.67,796.87c3.85-0.92,5.71,1.83,7.79,4.2C1583.86,799.66,1581.26,798.27,1578.67,796.87z"/>
<path class="st2" d="M1605.97,360.58c9.4-0.18,18.27,2.56,27.21,4.91c0.98,0.26,2,1.32,3.04,0.07c2.52,0.98,5.16,1.75,7.16,3.72
	c-0.66,1.28-1.32,2.56-1.97,3.84c-3.3,3.32-6.61,6.64-9.91,9.96c-0.27-0.11-0.53-0.23-0.8-0.34c-0.03,0.47-0.07,0.94-0.1,1.41
	l0.08-0.13c-1.63,0.35-2.22,1.41-2.1,2.99l0.08-0.1c-1.53,0.45-2.19,1.48-2.01,3.05l0.09-0.1c-2.32,0.89-2.94,2.79-2.97,5.03
	l0.11-0.12c-1.12,0.24-1.19,1.1-1.17,2.01l0.09-0.09c-3.55,3.16-5.42,7.15-5.91,11.83l0.1-0.11c-1.12,0.31-1.15,1.16-1.04,2.09
	l0.11-0.12c-1.21,0.31-1.17,1.25-1.12,2.2c0,0.6,0.01,1.2,0.01,1.8c-18.86,18.39-32.82,40.54-47.7,62
	c-3.42,4.93-7.21,9.61-10.87,14.37c-0.95,1.24-1.69,2.7-3.75,0.84c-12.03-10.88-26.41-16.7-42.28-19.18
	c-0.47-1.3-1.55-1.52-2.74-1.52c-5.33,0-10.67,0-16.01,0c-1.2,0-2.25,0.25-2.74,1.52c-8.27,1.61-16.46,3.53-23.97,7.51
	c-1.56,0.83-2.59,0.67-3.88-0.42c-7.66-6.43-16.68-10.4-25.8-14.18c0.62-0.13,1.25-0.25,1.88-0.38c2.61-6.25,3.64-12.69,2.18-19.4
	c1.44-11.54,3.36-22.99,5.97-34.33c4.1-5.9,4.6-12.8,5.44-19.6l-0.13,0.09c1.59-0.57,1.14-1.88,1.09-3.04l-0.13,0.09
	c1.13-0.31,1.24-1.09,0.92-2.06l-0.09-0.06c2.86-1.11,2.19-3.58,2.23-5.78c1.43-1.18,1.04-2.83,1.13-4.36
	c2.54-4.64,7.47-2.99,11.29-4.2c2.36-0.75,5.03-0.45,7.23-1.92c5.79,1.66,11.76,1.76,17.71,2.04c-0.08,0.72-0.12,1.46-0.9,1.84
	c-3.04,1.78-3.99,4.61-3.98,7.92l0.08-0.1c-4.38,4.43-4.4,10.54-5.96,16.01c-0.54,1.89-2.39,4.19-0.23,6.36
	c-0.48,2.27-0.96,4.55-1.44,6.82c-2.82,0.59-0.77,2.76-1.33,4.08c0.02,0.28,0,0.56-0.07,0.83c-1.66,1.42-0.75,3.29-0.89,4.98
	l0.07-0.09c-1.74,1.86-1.55,3.81-0.26,5.81c0.15,0.61-0.17,0.91-0.72,1.04c-2.09,2.05-0.77,4.61-1.06,6.93
	c0.02,0.3-0.04,0.6-0.17,0.87c-1.97,5.41-2,11.03-1.77,16.67c0,0,0.07-0.11,0.06-0.1c-2.12,2.02-0.82,4.6-1.07,6.91
	c-0.21,2.05,0.92,3,2.94,2.86c3.75-0.27,7.4,0.79,11.09,0.9c18.14,0.54,36.26,1.49,54.42,1.09c9.38-0.21,18.77-0.04,28.15-0.04
	c0.01-0.24,0.01-0.47,0.02-0.71c-2.04-0.15-4.09-0.3-6.13-0.45c6.08,0.27,9.51-2.34,9.51-8.71c2.42-0.78,2.1-3.11,2.45-4.82
	c3.33-16.48,7.37-32.76,13.16-48.56c0.53-1.44,0.61-2.83,0.44-4.29l-0.1,0.09c2.94-1.47,2.87-4.25,3.01-6.94l-0.11,0.09
	c2.65-2.41,5-4.95,3.89-8.98C1598.95,374.15,1604.86,368.66,1605.97,360.58z"/>
<path class="st7" d="M1370.6,364.01c3.8,3.73,8.91,2.94,13.34,3.09c22.46,0.8,44.91,0.73,66.88-5.11
	c-1.22,1.65-6.27,3.86-10.64,4.28c-15.58,1.48-31.14,3.68-46.82,2.88c-6.4-0.32-12.9-0.26-19.23-1.72
	C1372.19,366.99,1370.23,366.76,1370.6,364.01z"/>
<path class="st7" d="M1384.6,305.93c-3.96,10.27-9.8,19.78-12.38,30.6c-2.12,8.89-4.66,17.76-1.94,27c-3.25-0.3-2.35-2.9-2.44-4.72
	c-0.61-12.88,3.02-24.89,7.91-36.59c1.92-4.6,4.19-9.07,6.31-13.59C1382.61,307.46,1383.1,306.21,1384.6,305.93z"/>
<path class="st7" d="M1282.14,535.42c-3.36,8.79-7.38,17.34-8.52,26.86c-0.53,4.38-0.58,8.66,0.18,12.98
	c-2.4-0.53-1.55-2.48-1.69-3.95c-0.95-10.31,2.04-19.86,5.93-29.17C1279.04,539.77,1278.86,536.47,1282.14,535.42z"/>
<path class="st7" d="M1316.26,635.96c-6.13,11.25-10.26,23.12-11.1,36c-1.31-1.36-0.94-3.09-0.78-4.62
	c1.11-10.73,4.35-20.78,10.01-29.99C1314.77,636.74,1315.62,636.42,1316.26,635.96z"/>
<path class="st7" d="M1299.28,612.91c6.94,3.39,13.88,6.78,20.82,10.17C1312.29,621.47,1304.9,619.01,1299.28,612.91z"/>
<path class="st7" d="M1273.92,576.31c0.85,6.54,3.54,12.46,6.09,18.44C1275.85,591.41,1272.49,581.23,1273.92,576.31z"/>
<path class="st7" d="M1285.89,602.62c2.95,2.58,5.9,5.17,8.85,7.75C1290.71,609.02,1287.14,607.15,1285.89,602.62z"/>
<path class="st7" d="M1289.1,522.69c-1.47,2.69-2.94,5.38-4.41,8.08C1284.27,527.04,1286.09,524.54,1289.1,522.69z"/>
<path class="st7" d="M1320.02,623.02c1.88,0.16,3.59,0.74,5.01,2.04c-0.77,0.8-1.54,1.61-2.31,2.41
	C1322.87,625.35,1320.53,624.74,1320.02,623.02z"/>
<path class="st7" d="M1294.66,610.29c1.36,0.77,2.73,1.54,4.09,2.31C1296.22,613.9,1295.54,611.92,1294.66,610.29z"/>
<path class="st7" d="M1318.47,632.8c-0.76,1.08-1.52,2.16-2.28,3.24C1316.38,634.55,1316,632.67,1318.47,632.8z"/>
<path class="st7" d="M1322.37,627.86c-0.76,0.78-1.51,1.55-2.27,2.33C1320.16,628.73,1320.15,627.21,1322.37,627.86z"/>
<path class="st7" d="M1320.18,630.09c-0.44,0.74-0.88,1.48-1.32,2.22C1318.07,630.85,1319.1,630.45,1320.18,630.09z"/>
<path class="st7" d="M1357.22,439.69c-0.69,0.69-1.38,1.38-2.07,2.07C1355.12,440.35,1355.76,439.62,1357.22,439.69z"/>
<path class="st7" d="M1354.34,442.57c-0.71,0.7-1.42,1.4-2.12,2.09C1352.18,443.21,1352.89,442.51,1354.34,442.57z"/>
<path class="st7" d="M1344.5,452.36c-0.66,0.68-1.32,1.36-1.99,2.04C1342.43,453,1343.09,452.32,1344.5,452.36z"/>
<path class="st7" d="M1284.36,531.34c-0.58,0.66-0.24,1.86-1.33,2.21C1283.2,532.65,1282.08,530.97,1284.36,531.34z"/>
<path class="st7" d="M1283.12,533.45c-0.21,0.76-0.1,1.68-1.06,2.05C1281.93,534.58,1282.01,533.75,1283.12,533.45z"/>
<path class="st7" d="M1351.39,445.49c-0.43,0.46-0.85,0.92-1.28,1.38C1349.58,445.53,1350.57,445.59,1351.39,445.49z"/>
<path class="st7" d="M1349.68,447.3c-0.44,0.41-0.88,0.81-1.33,1.22C1348.42,447.7,1348.35,446.74,1349.68,447.3z"/>
<path class="st7" d="M1348.41,448.46c-0.41,0.45-0.82,0.89-1.23,1.34C1346.64,448.48,1347.58,448.53,1348.41,448.46z"/>
<path class="st7" d="M1346.76,450.22c-0.44,0.41-0.89,0.82-1.34,1.23C1345.49,450.63,1345.44,449.68,1346.76,450.22z"/>
<path class="st7" d="M1345.49,451.36c-0.36,0.36-0.71,0.71-1.07,1.07C1344.78,452.08,1345.13,451.72,1345.49,451.36z"/>
<path class="st7" d="M1342.59,454.31c-0.36,0.37-0.71,0.74-1.07,1.1C1341.88,455.05,1342.24,454.68,1342.59,454.31z"/>
<path class="st7" d="M1341.65,455.29c-0.36,0.43-0.71,0.86-1.07,1.3C1340.93,456.16,1341.29,455.72,1341.65,455.29z"/>
<path class="st7" d="M1358.23,438.71c-0.37,0.36-0.73,0.71-1.1,1.07C1357.5,439.42,1357.87,439.06,1358.23,438.71z"/>
<path class="st7" d="M1359.21,437.73c-0.36,0.36-0.72,0.72-1.08,1.09C1358.49,438.45,1358.85,438.09,1359.21,437.73z"/>
<path class="st7" d="M1360.21,436.77c-0.37,0.36-0.74,0.71-1.11,1.07C1359.47,437.48,1359.84,437.13,1360.21,436.77z"/>
<path class="st7" d="M1361.23,435.83c-0.38,0.35-0.76,0.7-1.13,1.05C1360.47,436.54,1360.85,436.18,1361.23,435.83z"/>
<path class="st7" d="M1362.35,434.85c-0.42,0.37-0.84,0.74-1.26,1.11C1361.51,435.59,1361.93,435.22,1362.35,434.85z"/>
<path class="st5" d="M1641.41,373.12c0.66-1.28,1.31-2.56,1.97-3.84c19.56,3.93,36.01,13.16,48.85,28.58
	c0.81,0.98,1.72,1.87,2.58,2.81c0.3,0.36,0.59,0.72,0.89,1.09c0,0-0.08-0.09-0.08-0.09c0.19,0.41,0.37,0.82,0.56,1.23
	c0,0,0.15,0.24,0.15,0.24c0.46,0.49,0.93,0.99,1.39,1.48c0,0-0.08-0.08-0.08-0.08c2.38,4.56,4.94,9.04,7.1,13.7
	c7.86,16.98,11.75,35.19,16.01,53.25c5.04,21.32,9.3,42.8,12.34,64.53c1.04,7.4,1.32,14.95,3.62,22.16
	c0.33,3.34,0.66,6.68,0.99,10.02c-1.17-0.54-2.35-1.08-3.52-1.62c-1.48-2.23-1.75-4.88-2.09-7.37
	c-3.31-24.07-6.62-48.13-11.87-71.87c-4.59-20.79-8.98-41.68-16.63-61.61C1692.55,396.9,1671.74,379.3,1641.41,373.12z"/>
<path class="st7" d="M1736.72,558.16c-2.3-7.2-2.58-14.76-3.62-22.16c-3.04-21.72-7.3-43.2-12.34-64.53
	c-4.27-18.06-8.15-36.27-16.01-53.25c-2.16-4.66-4.72-9.14-7.1-13.7c4.16,2.13,5.1,6.58,6.91,10.2
	c10.35,20.73,14.39,43.4,19.65,65.69c3.3,13.98,6.13,28.06,8.21,42.26C1734.14,534.46,1737.29,546.09,1736.72,558.16z"/>
<path class="st6" d="M1759.25,730.56c-1.7-3.78,0.01-7.57,0.35-11.23c1.34-14.53,0.65-28.92-0.83-43.39
	c-0.49-4.77-2.94-9.69-0.54-14.63c2.7,18.85,5.08,37.73,3.02,56.83C1760.8,722.3,1759.93,726.41,1759.25,730.56z"/>
<path class="st7" d="M1697.73,404.61c-0.46-0.49-0.93-0.99-1.39-1.48C1697.66,402.81,1697.71,403.69,1697.73,404.61z"/>
<path class="st7" d="M1695.71,401.74c-0.3-0.36-0.59-0.72-0.89-1.09c0.27-0.1,0.53-0.21,0.8-0.31
	C1695.65,400.81,1695.68,401.27,1695.71,401.74z"/>
<path class="st7" d="M1696.19,402.88c-0.19-0.41-0.37-0.82-0.56-1.23C1696.26,401.86,1696.51,402.24,1696.19,402.88z"/>
<path class="st9" d="M1641.41,373.12c30.32,6.19,51.14,23.79,62.19,52.59c7.65,19.93,12.04,40.82,16.63,61.61
	c5.24,23.74,8.55,47.81,11.87,71.87c0.34,2.49,0.61,5.14,2.09,7.37c-3.1,6.16-8.38,10.13-14.11,13.43
	c-10.26,5.92-21.42,8.88-33.27,9.04c-6.79,0.09-13.59-0.07-20.39-0.12c-7.56-10.07-15.03-20.21-22.74-30.16
	c-2.11-2.72,0.2-3.8,1.32-5.18c12.6-15.42,25.33-30.73,36.95-46.92c3.67-5.11,7.24-10.3,10.62-15.61c0.93-1.47,3.6-3.47,0.95-5.21
	c-2.49-1.64-3.24,1.48-4.14,2.85c-8.89,13.52-18.9,26.2-28.62,39.1c-0.38,0.51-0.73,1.05-1.37,1.97
	c-5.54-18.96-16.79-33.14-31.68-44.42c-14.86-11.25-31.22-18.47-50.89-15.83c16.14-22.8,31.24-46.45,54.5-63.11
	c1.18-0.84,2.18-1.56,1.11-3.01c-1.02-1.38-2.13-0.81-3.36-0.05c-5.14,3.14-9.65,7.05-14.1,11.05c0-0.6-0.01-1.2-0.01-1.8
	c0.86-0.49,1-1.34,1.12-2.2c0,0-0.11,0.12-0.12,0.12c0.9-0.42,0.89-1.29,1.04-2.09c0,0-0.1,0.11-0.1,0.1
	c1.97-3.94,3.94-7.89,5.92-11.83c0,0-0.09,0.09-0.09,0.09c0.82-0.42,1.02-1.2,1.17-2.01c0,0-0.11,0.12-0.11,0.12
	c1.38-1.45,2.3-3.16,2.97-5.03c0,0-0.09,0.1-0.09,0.1c0.67-1.02,1.34-2.04,2.01-3.05c0,0-0.08,0.1-0.08,0.1
	c1.09-0.72,1.65-1.82,2.1-2.99c0,0-0.08,0.13-0.08,0.13c0.3-0.36,0.6-0.72,0.9-1.07C1634.81,379.76,1638.11,376.44,1641.41,373.12z"
	/>
<path class="st10" d="M1556.83,628.94c2.49-1.64,5.27-2.46,8.16-3.02C1563.07,629.08,1559.93,628.96,1556.83,628.94z"/>
<path class="st10" d="M1564.95,626.03c0.41-1.1,1.46-0.94,2.31-1.17C1566.78,625.81,1565.95,626.1,1564.95,626.03z"/>
<path class="st9" d="M1376.44,473.26c-22.66,14.91-34.87,36.19-39.4,62.49c-5.75-1.49-11.51-3.57-17.57-4.32
	c-1.25-0.15-3.11-1.27-3.63,1.01c-0.48,2.11,0.83,2.63,2.74,2.98c29.72,5.42,53.2,22.74,76.53,40.33
	c9.9,7.46,19.55,15.22,32.55,16.9c5.37,0.69,10.62,2.38,15.91,3.7c13.5,3.39,24.67,10.96,34.81,20.09
	c8.45,7.61,16.95,15.21,24.39,23.88c1.59,1.85,2.84,3.85,3.93,6.05c1.32,2.67,0.28,4.46-1.67,5.83c-1.94,1.36-3.72,1.6-5.87-0.58
	c-10.16-10.3-21.42-19.29-33.67-27.02c-1.49-0.94-3.02-2.54-4.57-0.38c-1.78,2.5,0.57,3.39,2.12,4.41
	c11.64,7.65,23.33,15.22,32.95,25.49c2.65,2.83,4.5,6.09,2.06,9.5c-2.38,3.33-6.15,3.05-9.69,1.41c-1.31-0.61-2.63-1.22-3.88-1.95
	c-10.28-6-20.55-12.03-30.81-18.05c-0.42-0.24-0.81-0.53-1.24-0.75c-1.64-0.84-3.58-2.72-4.93-0.12c-1.19,2.29,1.3,2.66,2.73,3.48
	c9.91,5.69,19.84,11.34,29.65,17.19c1.91,1.14,5.45,1.39,4.21,5.3c-1.14,3.59-4.06,3.89-7,3.75c-8.46-0.41-16.34-3.19-24.02-6.46
	c-5.32-2.27-10.48-4.91-15.7-7.43c-1.45-0.7-3.12-1.88-4.09,0.18c-0.86,1.82,1.1,2.35,2.31,3.07c9.58,5.65,19.83,9.72,30.72,12.95
	c-5.41,5.13-12.04,4.29-17.96,3.27c-22.89-3.97-42.31-15.07-59.29-30.67c-2.63-2.42-5.37-4.82-7.55-7.62
	c-5.56-7.16-13.23-9.57-21.71-11.27c-21.32-4.26-41.7-11.39-60.6-22.3c-14.33-8.27-20.1-21.61-21.23-37.45
	c-1.07-15.03,5.25-27.92,12.24-40.46c13.17-23.64,30.72-44.03,48.51-64.2c2.74-3.1,6.77-1.68,10.07-1.17
	C1358.34,465.79,1367.54,468.58,1376.44,473.26z"/>
<path class="st9" d="M1416.73,585.67c28.26-12.36,56.15-24.05,85.69-31.17c7.84-1.89,15.71-3.51,23.78-4.07
	c1.7-0.12,4.58,0.98,4.64-1.99c0.06-3.23-2.87-2.26-4.82-2.4c-0.81-0.06-1.62-0.01-3.16-0.01c6.35-9.16,12.42-18.1,18.68-26.9
	c9.07-12.77,18.47-25.3,27.33-38.21c4.9-7.14,11.66-8.81,19.41-8.03c28.45,2.84,58.93,28.91,66.93,56.71
	c0.68,2.37,0.01,3.57-1.17,5.17c-14.49,19.65-30.99,37.55-47.98,55.02c-9.05,9.31-18.04,18.74-29.31,25.48
	c-13.82,8.26-29.18,12.26-44.71,15.69c-7.53,1.66-15.11,3.12-22.67,4.69c-3.14,0.65-5.62,0.28-8.08-2.38
	c-7.51-8.11-15.6-15.64-23.96-22.88c-13.83-11.98-30.23-18.04-47.88-21.39C1425.19,588.18,1420.91,587.43,1416.73,585.67z"/>
<path class="st2" d="M1493.63,755.89c-1.25,3.66-2.56,7.31-3.73,11c-0.43,1.37-0.75,1.97-2.29,1.03
	c-10.85-6.68-23.04-10.13-34.91-14.35c-0.85-0.3-1.99-0.21-2.47-1.29c-1.99-2.27-4.62-2.34-7.32-2.13c0,0,0.07,0.09,0.07,0.09
	c-3.12-2.06-6.49-3.29-10.3-3c0,0,0.05,0.06,0.05,0.06c-1.96-1.41-4.11-1.64-6.4-1.02c-12.82-2.24-25.73-2.53-38.69-1.88
	c-2.17,0.11-2.35-0.65-2-2.54c2.38-12.87,4.66-25.77,6.97-38.66c2.59-1.22,1.24-3.53,1.5-5.4c0,0-0.12,0.03-0.12,0.03
	c2.79-4.85,2.54-10.45,3.58-15.68c0.64-3.19,2.8-6.62,0.65-10.1c0.7-2.78,0.45-5.8,2.09-8.58c12.54,8.79,26.14,15,40.83,18.81
	c0.68,2.34,2.57,1.16,3.99,1.37c0.27-0.05,0.53-0.03,0.79,0.05c3.01,1.73,6.49,1.43,9.71,1.77c3.4,0.36,7.05-0.13,9.8-2.84
	c0,0-0.07,0.05-0.07,0.05c0.34-0.36,0.69-0.72,1.04-1.07c2.24-2.68,4.59-4.13,8.5-2.96c2.59,0.77,5.89,0.81,8.07-1.83
	c3.89-4.69,9.54-5.97,14.87-7.95c2.92-1.09,5.19-3.32,5.42-6.36c0.27-3.43,1.65-5.49,4.35-7.51c4.19-3.13,4.07-7.32,0.24-15.03
	c6.8-1.4,13.53-2.84,20.27-4.16c1.56-0.31,3.63-0.63,2.65,2.2c-8.16,23.51-13.96,47.74-21.73,71.36c-0.04,0.11-0.27,0.16-0.41,0.25
	c-2.55,2.97-3.34,6.46-3.1,10.27c0,0,0.08-0.08,0.08-0.08c-1.41,0.63-1,1.9-1.05,3c0,0,0.09-0.07,0.09-0.07
	c-1.43,0.62-1.01,1.9-1.06,3.01c0,0,0.08-0.08,0.08-0.08c-1.41,0.63-1.03,1.89-1.06,3c0,0,0.09-0.07,0.09-0.07
	c-1.45,0.62-1.04,1.89-1.06,3.01c0,0,0.08-0.08,0.08-0.08c-1.43,0.62-1.01,1.9-1.06,3.01c0,0,0.08-0.08,0.08-0.08
	c-1.41,0.63-1.04,1.89-1.06,3.02c0,0,0.08-0.09,0.08-0.09c-1.4,0.64-1.05,1.89-1.05,3.01c0,0,0.08-0.08,0.08-0.08
	c-1.39,0.64-1.06,1.88-1.05,3.01c0,0,0.08-0.08,0.08-0.08c-1.43,0.62-1.02,1.89-1.07,3.01c0,0,0.08-0.08,0.08-0.08
	c-1.42,0.63-0.99,1.91-1.07,3.01c0,0,0.07-0.07,0.07-0.07C1493.45,750.85,1492.43,753.01,1493.63,755.89z"/>
<path class="st2" d="M1426.52,528.51c5.7-14.44,13.96-27,26.73-36.23c0.48-0.34,0.97-0.69,1.45-1.03c0,0-0.11,0.04-0.1,0.04
	c0.87,0.05,1.66-0.06,2.04-1c0,0-0.06,0.05-0.06,0.05c0.34-0.36,0.68-0.72,1.02-1.08c0,0-0.08,0.06-0.08,0.06
	c0.89,0.08,1.67-0.05,2.05-1.01c0,0-0.05,0.07-0.05,0.07c0.34-0.36,0.69-0.71,1.03-1.07c0,0-0.08,0.07-0.08,0.07
	c0.88,0.03,1.7-0.04,2.04-1.05c0,0-0.08,0.06-0.08,0.06c0.88,0.07,1.68-0.05,2.04-1.02c0,0-0.08,0.04-0.08,0.04
	c0.89,0.08,1.67-0.05,2.04-1.02c0,0-0.08,0.04-0.08,0.04c0.88,0.07,1.67-0.05,2.03-1.02c0,0-0.07,0.04-0.07,0.04
	c0.89,0.07,1.7-0.03,2.03-1.04c0,0-0.07,0.08-0.07,0.08c1.13,0.06,2.33,0.31,3.01-1c0,0-0.07,0.01-0.07,0.01
	c0.88,0.06,1.7-0.01,2.02-1.04c0,0-0.07,0.09-0.07,0.09c2.84,0.17,5.61,0.06,7.89-1.99c0,0-0.05,0.03-0.05,0.03
	c5.27-0.91,10.6-0.88,15.93-0.97c6.31-0.1,12.59,0.31,18.85,0.98c11.53,1.23,20.77,7.24,29.76,13.97c3.66,2.74,4.31,4.65,1.23,8.68
	c-10.7,14.01-20.63,28.59-29.88,43.61c-1.72,2.8-4.23,2.42-6.62,2.98c-4.33-1.6-8.03,0.08-11.64,2.23c0,0,0.07-0.09,0.07-0.09
	c-1.38,0.17-3.07-0.7-3.94,1.17c-0.5,0.72-1.22,0.81-2.01,0.69c-0.93-1.19-1.49-0.8-1.87,0.43c-0.37,0.15-0.74,0.3-1.11,0.46
	c-3.52-1.67-6.15,0.14-8.7,2.23c0,0,0.07-0.09,0.07-0.09c-2.21,0.07-4.73-0.8-6.02,2.02c0,0-0.34-0.07-0.34-0.07
	c-3.46-0.12-6.71,0.44-9.33,2.97c0,0,0.05-0.03,0.05-0.03c-2.03-0.06-3.94,0.14-4.9,2.33c-12.4,5.03-24.8,10.05-37.2,15.08
	c-0.49-0.79-0.73-0.43-0.91,0.2c0,0,0.06-0.05,0.06-0.05c-2.57-0.65-4.71,1.06-7.04,1.69c-0.46-1.83,1.21-3.98-1.54-4.59
	c1.13-9.91,2.09-19.84,5.14-29.41c2.91-1.56,2.35-4.3,2.32-6.86c0,0-0.09,0.06-0.09,0.06c1.43-0.62,1.04-1.88,1.07-2.99
	c0,0-0.09,0.07-0.09,0.07c1.45-0.62,1.02-1.9,1.07-3.01c0,0-0.09,0.08-0.08,0.07c1.03-0.33,1.09-1.16,1.03-2.04
	c0,0-0.08,0.05-0.08,0.05C1427.34,529.9,1427.55,529.3,1426.52,528.51z"/>
<path class="st2" d="M1414.75,550.31c0.15,0.18,0.15,0.37,0,0.55c-2.51,2.95-2.02,6.5-1.99,9.95c0.04,0.29,0.01,0.58-0.08,0.86
	c-1.48,3.26-1.73,6.72-2,10.24c-0.21,2.69,0.43,5.93-2.97,7.43c0,0,0.09,0.02,0.09,0.02c-0.4-1.56-1.49-2.11-2.99-2.04
	c0,0,0.1,0.05,0.1,0.05c-0.49-0.34-0.97-0.69-1.46-1.03c-8.98-6.35-17.88-12.8-26.95-19.02c-10.42-7.15-20.94-14.18-32.8-18.79
	c-2.1-0.82-2.84-1.79-2.35-3.9c7.07-30.71,23.63-56.87,56.14-65.89c2.8-0.78,5.57-1.61,8.5-1.65c5.46,1.35,10.93,1.31,16.39,0.03
	c13.52,1.72,25.35,7.29,36.52,15.84c-8.79,5.52-16.22,12.11-22.52,19.92c-10.28,12.74-15.89,27.68-20.24,43.2
	C1413.95,546.92,1414.86,548.78,1414.75,550.31z"/>
<path class="st9" d="M1445.25,411.21c-2.61,11.33-4.53,22.79-5.97,34.33c-0.73,6.47-1.46,12.93-2.18,19.4
	c-0.63,0.13-1.25,0.25-1.88,0.38c-17.95-5.45-35.27-3.53-52.03,4.57c-1.32,0.64-2.28,1.23-3.94,0.28
	c-10.84-6.22-22.48-9.89-35.93-10.29c32.18-33.09,64.93-63.9,109.55-78.16c1.76,1.84-1.1,3.2-0.52,4.92c0,0,0.09,0.06,0.09,0.06
	c-0.99,0.38-0.73,1.32-0.93,2.06c0,0,0.13-0.09,0.13-0.09c-1.09,0.75-0.88,1.97-1.09,3.03c0,0,0.13-0.09,0.13-0.08
	C1447.78,397.84,1446.95,404.65,1445.25,411.21z"/>
<path class="st11" d="M1309.6,681.94c-0.8-20.14,3.63-38.62,17.55-54.1c1.4-1.55,2-1.7,3.79-1.16c11.82,3.59,23.65,7.15,35.85,9.37
	c3.33,0.61,6.19,2.4,8.7,4.93c6.4,6.45,12.48,13.25,19.69,18.88c3.47,2.71,1.08,4.51-1.25,6.09c-9.5,6.47-18.99,12.93-27.14,21.16
	c-4.71,4.76-7.91,10.65-12.19,15.73c-3.49,4.14-7.4,7.65-12.47,9.74c-2.15,0.89-4.45,0.71-5.85-0.79c-1.09-1.16,0.77-2.75,1.4-4
	c5.35-10.68,11.17-21.06,19.39-29.9c1.08-1.16,3.18-2.61,0.9-4.36c-2.04-1.57-2.82,0.89-3.73,1.86
	c-8.74,9.42-15.08,20.43-20.82,31.84c-3.01,5.98-5.5,6.53-11.06,3.06c-0.87-0.55-1.78-0.63-1.21-1.96
	c4.35-10.14,6.29-21.2,11.59-30.98c2.14-3.95,4.46-7.8,6.77-11.65c0.89-1.47,2.73-2.98,0.39-4.42c-2.04-1.25-2.62,0.92-3.5,2.16
	c-7.79,11.01-12.48,23.43-16.42,36.18c-0.33,1.07-0.56,2.18-1.02,3.18c-0.66,1.44-0.35,3.96-2.7,3.76c-1.9-0.16-3.42-1.56-4.22-3.53
	c-2.18-5.33-0.4-10.54,0.67-15.66c2.64-12.68,8.32-24.16,14.62-35.35c0.47-0.84,1.01-1.64,1.43-2.51c0.74-1.52,2.38-3.6,0.32-4.59
	c-2.01-0.96-2.58,1.67-3.46,3.11C1319.07,658.72,1313.7,669.95,1309.6,681.94z"/>
<path class="st2" d="M1318.47,738.47c-0.18,0.66-0.6,0.79-1.19,0.52c-0.08-0.96-0.23-1.89-1.1-2.51c0.08-0.68,0.17-1.36,0.25-2.03
	c2.53-4.26,2.66-8.96,2.49-13.71c0,0-0.06,0.04-0.06,0.04c1.57-1.16,1.48-2.44,0.29-3.81c0.34-1.19,0.67-2.38,1.09-3.85
	c3.03,2.36,6.07,3.52,9.58,2.99c1.8,1.48,3.99-0.26,5.85,0.71c0,0-0.07,0-0.07,0c2.66,1.46,5.27,2.03,7.75-0.36
	c7.41-3.35,13.06-8.78,17.67-15.31c6.88-9.74,15.1-18.01,25.27-24.29c0.83-0.05,1.65-0.09,1.99-1.06c0,0-0.09,0.01-0.09,0.01
	c1.25-0.34,2.5-0.69,3.75-1.03c0.26,4.18-3.05,7.78-0.84,11.8c-0.89,3.95-0.95,8.1-2.85,11.81c-1.94,4.81-2.53,9.92-3.12,15
	c-0.47,4.05-2.89,7.97-0.95,12.21c-1.07,6.97-2.74,13.85-3.02,21.33c-9.92-4.02-19.88-6.43-29.96-8.4
	c-1.17-1.63-2.92-1.07-4.45-1.08c-7.57-0.06-15.15-0.05-22.72-0.03C1322.12,737.39,1320.14,737.15,1318.47,738.47z"/>
<path class="st11" d="M1450.76,783.28c-18.04,0.25-35.75-3.05-53.6-4.89c-1.39-0.14-1.77-0.4-1.35-2.1
	c2.19-8.71,4.27-17.45,6.02-26.26c0.54-2.72,2.13-1.9,3.53-1.88c12.01,0.18,23.61,2.97,35.1,6.05c11.11,2.98,21.92,6.96,32.56,11.4
	c2.55,1.06,3.99,1.75,2.34,4.67c-0.69,1.22-0.77,2.76-1.22,4.13c-2.73,8.41-2.73,8.46-11.68,8.84
	C1458.57,783.42,1454.66,783.28,1450.76,783.28z"/>
<path class="st11" d="M1360.02,745.15c0.64,0.07,1.28,0.13,1.92,0.2c0.13,1.75,1.61,1.98,2.81,2.19c7.49,1.3,14.31,4.86,21.73,6.37
	l-0.04-0.04c0.04,2.22,1.6,2.06,3.11,1.98c0.28-0.05,0.52,0.01,0.72,0.21c0.4,0.26,0.8,0.52,1.2,0.78c0.28-0.05,0.52,0.01,0.74,0.19
	c2.01,4.24,0.2,8.23-0.95,12.2c-1.82,6.29-7.08,2.15-10.6,3.32c-0.29,0.1-0.64-0.01-0.97,0.02c-6.23,0.47-12.55-0.99-18.71,0.83
	c-0.65,0-1.3,0-1.95,0c-1.18-2.84-2.98-2.15-4.88-0.87c-0.65-0.04-1.3-0.07-1.95-0.11c-1.21-2.84-3-2.18-4.9-0.81
	c-0.97-0.05-1.94-0.11-2.91-0.16c-2.69-3.29-6.66-1.92-10.02-2.79c-3.62-0.94-8.16,0.54-10.48-3.9c0.04-0.65,0.08-1.3,0.12-1.94
	c2.42-1.86,3.44-4.05,1.64-6.91c0.11-0.95,0.22-1.9,0.33-2.85c1.34-0.28,2.26-0.71,0.7-2.01c0.08-0.63,0.17-1.26,0.25-1.9
	c0.51-0.32,1.47-0.65,1.47-0.97c0-4.31,2.91-3.85,5.86-4.03c2.09-0.13,4.94,1.63,6.21-1.7c0.65,0,1.29,0,1.94,0
	c1.96,3.04,4.38,2.12,6.86,0.81c0.64,0.05,1.29,0.11,1.93,0.16c0.87,2.58,2.31,2.18,3.95,0.76c0.96,0.08,1.92,0.17,2.89,0.25
	C1358.3,745.7,1358.7,746.65,1360.02,745.15z"/>
<path class="st12" d="M1293.3,887.23c6.09-12.34,16.77-20.29,27.3-28.32c10.4-7.93,20.84-15.8,31.47-23.43
	c15.73-11.28,24.56-26.92,29.37-45.23c0.24-0.93,0.72-1.81,0.84-2.74c0.69-5.07,2.04-9.65,7.65-11.41c0.01,0.01-0.08-0.09-0.08-0.09
	c0.13,0.46,0.5,1.2,0.35,1.33c-5.65,4.82-5.79,11.96-7.35,18.31c-4.51,18.27-16.38,31.19-30.13,42.8
	c-14.09,11.89-30.09,21.3-44.05,33.38c-4.81,4.16-9.4,8.46-12.87,13.85c-0.53,0.83-0.67,2.72-2.51,1.44
	C1293.28,887.1,1293.3,887.23,1293.3,887.23z"/>
<path class="st12" d="M1360.98,773.39c6.17-1.82,12.49-0.36,18.71-0.83c0.32-0.02,0.67,0.08,0.97-0.02
	c3.52-1.17,8.79,2.97,10.6-3.32c1.15-3.97,2.96-7.95,0.95-12.2c1.5,0.41,3.41,0.6,2.93,2.82c-1.19,5.53-2.23,11.12-4.24,16.44
	c-0.05,0.13-0.31,0.32-0.34,0.3c-0.25-0.17-0.46-0.39-0.69-0.59c0,0,0.08,0.1,0.07,0.09c-0.13-3.63-2.89-1.77-4.25-1.73
	C1377.42,774.56,1369.16,775.01,1360.98,773.39z"/>
<path class="st10" d="M1517.74,478.61c-6.27-0.67-12.54-1.08-18.85-0.98c-5.33,0.09-10.65,0.06-15.93,0.97
	c4.12-2.65,8.93-2.3,13.44-2.59C1503.6,475.55,1510.86,475.86,1517.74,478.61z"/>
<path class="st12" d="M1386.49,753.91c-7.42-1.51-14.24-5.07-21.73-6.37c-1.2-0.21-2.68-0.44-2.81-2.19
	c7.32,1.07,14.09,4.1,21.19,5.97C1384.36,751.64,1385.83,752.46,1386.49,753.91z"/>
<path class="st12" d="M1323.88,764.74c2.32,4.44,6.85,2.96,10.48,3.9c3.36,0.87,7.33-0.49,10.02,2.79
	c-6.17-0.86-12.33-1.88-18.53-2.5C1322.35,768.58,1322.11,767.28,1323.88,764.74z"/>
<path class="st10" d="M1384.19,725.58c-1.94-4.24,0.48-8.16,0.95-12.21c0.59-5.08,1.18-10.19,3.12-15
	c0.34,7.68-2.49,14.91-3.19,22.45C1384.92,722.42,1384.49,723.99,1384.19,725.58z"/>
<path class="st10" d="M1398.22,672.05c2.15,3.48-0.01,6.91-0.65,10.1c-1.04,5.23-0.79,10.84-3.58,15.68
	C1394.33,689.07,1396.88,680.66,1398.22,672.05z"/>
<path class="st10" d="M1407.71,579.35c3.4-1.5,2.76-4.74,2.97-7.43c0.27-3.52,0.52-6.98,2-10.24c0.56,6.71-1.62,13.19-1.36,19.91
	C1409.32,581.67,1408.55,580.45,1407.71,579.35z"/>
<path class="st12" d="M1340.48,742.42c-1.27,3.33-4.12,1.58-6.21,1.7c-2.94,0.18-5.86-0.28-5.86,4.03c0,0.32-0.96,0.65-1.47,0.97
	c1.06-6.87,1.06-6.88,7.83-6.86C1336.67,742.27,1338.57,742.37,1340.48,742.42z"/>
<path class="st13" d="M1318.47,738.47c1.67-1.32,3.66-1.08,5.57-1.08c7.57-0.02,15.15-0.03,22.72,0.03
	c1.53,0.01,3.28-0.55,4.45,1.08C1340.29,738.49,1329.38,738.48,1318.47,738.47z"/>
<path class="st10" d="M1391.11,686.57c-2.21-4.02,1.09-7.62,0.84-11.8c-1.26,0.34-2.5,0.69-3.75,1.03c1.75-1.54,3.5-3.09,6.22-5.48
	C1393.14,676.56,1392.13,681.56,1391.11,686.57z"/>
<path class="st10" d="M1465.43,682.64c-2.75,2.71-6.4,3.2-9.8,2.84c-3.22-0.35-6.7-0.04-9.71-1.77
	C1452.42,683.27,1459.02,684.75,1465.43,682.64z"/>
<path class="st10" d="M1415.94,574.41c2.75,0.62,1.08,2.77,1.54,4.59c2.33-0.63,4.47-2.34,7.04-1.69c-2.82,1.32-5.65,2.63-8.61,4.01
	C1415.38,578.76,1415.59,576.58,1415.94,574.41z"/>
<path class="st13" d="M1488.88,472.41c0.49-1.28,1.54-1.52,2.74-1.52c5.34,0,10.67,0,16.01,0c1.19,0,2.26,0.22,2.74,1.52
	C1503.2,471.5,1496.04,471.53,1488.88,472.41z"/>
<path class="st10" d="M1508.34,728.54c-0.26,3.98-0.64,7.93-3.96,10.79C1505.5,735.66,1505.89,731.73,1508.34,728.54z"/>
<path class="st13" d="M1422.38,467.12c-5.47,1.28-10.93,1.32-16.39-0.03C1411.45,466.64,1416.92,466.7,1422.38,467.12z"/>
<path class="st10" d="M1318.93,720.74c0.17,4.75,0.03,9.45-2.49,13.71C1317.26,729.88,1316.72,725.06,1318.93,720.74z"/>
<path class="st10" d="M1500.61,550.08c3.61-2.15,7.31-3.84,11.64-2.23C1508.36,548.59,1504.48,549.33,1500.61,550.08z"/>
<path class="st12" d="M1349.27,743.23c-2.47,1.31-4.9,2.23-6.86-0.81C1344.76,742.19,1347.09,742.05,1349.27,743.23z"/>
<path class="st10" d="M1505.53,719.92c-0.23-3.81,0.56-7.3,3.1-10.27C1508.29,713.27,1507.13,716.66,1505.53,719.92z"/>
<path class="st10" d="M1432.69,747.23c3.81-0.29,7.17,0.95,10.3,3C1439.4,749.74,1435.82,749.24,1432.69,747.23z"/>
<path class="st10" d="M1467.42,559.79c2.62-2.54,5.87-3.09,9.33-2.97C1473.84,558.45,1470.82,559.72,1467.42,559.79z"/>
<path class="st10" d="M1483.04,554.96c2.56-2.09,5.18-3.91,8.7-2.23C1488.84,553.47,1485.94,554.22,1483.04,554.96z"/>
<path class="st10" d="M1412.76,560.82c-0.03-3.46-0.52-7,1.99-9.95C1414.49,554.26,1414.43,557.7,1412.76,560.82z"/>
<path class="st12" d="M1325.65,755.88c1.8,2.86,0.78,5.05-1.64,6.91C1324.77,760.54,1324.29,757.99,1325.65,755.88z"/>
<path class="st10" d="M1493.63,755.89c-1.2-2.88-0.17-5.04,2.2-6.76C1495.1,751.39,1494.36,753.64,1493.63,755.89z"/>
<path class="st12" d="M1354.14,772.52c1.91-1.28,3.71-1.97,4.88,0.87C1357.29,773.72,1355.68,773.31,1354.14,772.52z"/>
<path class="st12" d="M1347.29,771.6c1.91-1.36,3.69-2.03,4.9,0.81C1350.47,772.67,1348.77,772.8,1347.29,771.6z"/>
<path class="st10" d="M1483.01,478.57c-2.28,2.05-5.05,2.16-7.89,1.99C1477.53,479.02,1480.13,478.25,1483.01,478.57z"/>
<path class="st10" d="M1442.91,750.14c2.71-0.2,5.33-0.14,7.32,2.13C1447.61,752.22,1445.18,751.46,1442.91,750.14z"/>
<path class="st8" d="M1452.35,386.63c-0.58-1.72,2.28-3.07,0.52-4.92c0.29-0.85,1.01-0.85,1.71-0.87
	C1454.55,383.05,1455.22,385.52,1452.35,386.63z"/>
<path class="st10" d="M1423.41,538.14c0.02,2.56,0.59,5.3-2.32,6.86C1421.73,542.67,1421.72,540.12,1423.41,538.14z"/>
<path class="st10" d="M1335.67,716.82c-1.86-0.97-4.05,0.77-5.85-0.71C1331.86,715.58,1334.1,713.44,1335.67,716.82z"/>
<path class="st10" d="M1477.09,556.89c1.29-2.82,3.81-1.95,6.02-2.02C1481.33,556.21,1479.23,556.61,1477.09,556.89z"/>
<path class="st10" d="M1343.35,716.46c-2.48,2.39-5.09,1.83-7.75,0.36C1338.18,716.57,1340.8,717.32,1343.35,716.46z"/>
<path class="st12" d="M1355.15,744.15c-1.64,1.42-3.08,1.82-3.95-0.76C1352.6,743.24,1354.03,742.87,1355.15,744.15z"/>
<path class="st10" d="M1426.34,746.27c2.29-0.63,4.44-0.39,6.4,1.02C1430.49,747.64,1428.33,747.51,1426.34,746.27z"/>
<path class="st10" d="M1462.57,562.09c0.96-2.19,2.87-2.39,4.9-2.33C1466.26,561.42,1464.27,561.46,1462.57,562.09z"/>
<path class="st10" d="M1445.13,683.65c-1.42-0.21-3.31,0.97-3.99-1.37C1442.42,682.9,1444.2,682.06,1445.13,683.65z"/>
<path class="st10" d="M1394.11,697.81c-0.26,1.87,1.09,4.18-1.5,5.4C1393.44,701.49,1392.37,699.26,1394.11,697.81z"/>
<path class="st12" d="M1389.55,755.85c-1.51,0.09-3.06,0.24-3.11-1.98C1387.67,754.23,1388.83,754.69,1389.55,755.85z"/>
<path class="st10" d="M1404.8,577.33c1.51-0.06,2.59,0.48,2.99,2.04C1406.47,579.16,1405.54,578.39,1404.8,577.33z"/>
<path class="st10" d="M1496.73,551.15c0.88-1.87,2.56-1,3.94-1.17C1499.63,551.3,1498.06,550.81,1496.73,551.15z"/>
<path class="st10" d="M1414.75,550.31c0.11-1.53-0.8-3.4,1.39-4.25C1415.51,547.43,1416.15,549.21,1414.75,550.31z"/>
<path class="st10" d="M1319.16,716.97c1.19,1.37,1.29,2.65-0.29,3.81C1318.97,719.51,1319.06,718.24,1319.16,716.97z"/>
<path class="st10" d="M1509.34,724.62c-0.13,1.38,0.59,2.98-1.02,3.98C1508.08,727.13,1508.22,725.75,1509.34,724.62z"/>
<path class="st12" d="M1360.02,745.15c-1.32,1.5-1.72,0.55-1.99-0.75C1358.87,744.21,1359.53,744.45,1360.02,745.15z"/>
<path class="st12" d="M1326.69,751.02c1.56,1.3,0.64,1.73-0.7,2.01C1325.8,752.22,1325.88,751.49,1326.69,751.02z"/>
<path class="st10" d="M1504.46,739.26c-0.06,1.11,0.35,2.38-1.06,3.01C1503.47,741.17,1503.46,740.04,1504.46,739.26z"/>
<path class="st10" d="M1424.38,535.21c-0.02,1.12,0.36,2.38-1.07,2.99C1423.4,537.11,1423.23,535.92,1424.38,535.21z"/>
<path class="st10" d="M1495.76,749.21c0.08-1.1-0.36-2.39,1.07-3.01C1496.77,747.31,1496.73,748.42,1495.76,749.21z"/>
<path class="st10" d="M1502.49,745.12c0.11,1.3,0.06,2.55-1.16,3.41C1501.54,747.33,1501.24,745.96,1502.49,745.12z"/>
<path class="st10" d="M1473.24,481.5c-0.68,1.31-1.88,1.05-3.01,1C1470.96,481.31,1472.04,481.23,1473.24,481.5z"/>
<path class="st10" d="M1496.74,746.28c0.04-1.11-0.37-2.39,1.07-3.01C1497.74,744.37,1497.81,745.53,1496.74,746.28z"/>
<path class="st10" d="M1503.48,742.19c-0.04,1.11,0.33,2.37-1.06,3.01C1502.5,744.1,1502.43,742.95,1503.48,742.19z"/>
<path class="st10" d="M1497.73,743.35c0-1.13-0.34-2.37,1.05-3.01C1498.69,741.43,1498.9,742.63,1497.73,743.35z"/>
<path class="st10" d="M1425.36,532.27c-0.05,1.11,0.38,2.39-1.07,3.01C1424.35,534.16,1424.29,533.02,1425.36,532.27z"/>
<path class="st10" d="M1498.71,740.42c0-1.13-0.35-2.37,1.05-3.01C1499.62,738.49,1499.92,739.72,1498.71,740.42z"/>
<path class="st10" d="M1316.19,736.48c0.87,0.61,1.02,1.54,1.1,2.51C1314.96,739.01,1316.49,737.34,1316.19,736.48z"/>
<path class="st10" d="M1499.68,737.49c0.02-1.12-0.36-2.38,1.06-3.02C1500.67,735.58,1500.79,736.76,1499.68,737.49z"/>
<path class="st10" d="M1504.55,722.84c0.05-1.11-0.36-2.38,1.05-3C1505.53,720.93,1505.62,722.09,1504.55,722.84z"/>
<path class="st10" d="M1500.65,734.56c0.06-1.11-0.36-2.38,1.06-3.01C1501.63,732.65,1501.73,733.81,1500.65,734.56z"/>
<path class="st10" d="M1501.63,731.64c0.02-1.12-0.39-2.39,1.06-3.01C1502.62,729.73,1502.78,730.91,1501.63,731.64z"/>
<path class="st10" d="M1510.3,721.68c0,1.12,0.35,2.37-1.04,3.02C1509.38,723.62,1509.11,722.4,1510.3,721.68z"/>
<path class="st10" d="M1503.58,725.77c0.05-1.11-0.37-2.39,1.06-3.01C1504.57,723.87,1504.66,725.03,1503.58,725.77z"/>
<path class="st10" d="M1502.6,728.7c0.03-1.11-0.35-2.38,1.06-3C1503.57,726.78,1503.73,727.97,1502.6,728.7z"/>
<path class="st10" d="M1456.63,490.29c-0.38,0.94-1.17,1.06-2.04,1C1455.02,490.45,1455.67,490.05,1456.63,490.29z"/>
<path class="st10" d="M1459.56,488.31c-0.38,0.96-1.16,1.09-2.05,1.01C1457.91,488.41,1458.6,488.08,1459.56,488.31z"/>
<path class="st10" d="M1510.47,719.87c1.02,0.79,0.85,1.4-0.27,1.87C1510.29,721.12,1510.38,720.5,1510.47,719.87z"/>
<path class="st10" d="M1426.52,528.51c1.03,0.79,0.82,1.39-0.3,1.84C1426.32,529.74,1426.42,529.12,1426.52,528.51z"/>
<path class="st10" d="M1426.31,530.3c0.06,0.88,0,1.71-1.03,2.04C1425.39,531.55,1425.19,530.59,1426.31,530.3z"/>
<path class="st10" d="M1462.49,486.33c-0.33,1.02-1.16,1.08-2.04,1.05C1460.85,486.49,1461.61,486.31,1462.49,486.33z"/>
<path class="st10" d="M1464.44,485.36c-0.36,0.97-1.15,1.09-2.04,1.02C1462.75,485.38,1463.56,485.31,1464.44,485.36z"/>
<path class="st10" d="M1466.39,484.39c-0.37,0.96-1.15,1.1-2.04,1.02C1464.69,484.37,1465.49,484.27,1466.39,484.39z"/>
<path class="st10" d="M1468.34,483.41c-0.36,0.97-1.15,1.08-2.03,1.02C1466.61,483.33,1467.47,483.34,1468.34,483.41z"/>
<path class="st10" d="M1470.3,482.41c-0.33,1.02-1.14,1.11-2.03,1.04C1468.55,482.33,1469.48,482.48,1470.3,482.41z"/>
<path class="st10" d="M1475.19,480.47c-0.32,1.03-1.14,1.1-2.02,1.04C1473.38,480.25,1474.42,480.62,1475.19,480.47z"/>
<path class="st10" d="M1492.85,552.27c0.37-1.23,0.93-1.63,1.87-0.43C1494.1,551.98,1493.47,552.13,1492.85,552.27z"/>
<path class="st10" d="M1388.29,675.79c-0.34,0.97-1.16,1.01-1.99,1.06C1386.79,676.19,1387.38,675.68,1388.29,675.79z"/>
<path class="st10" d="M1424.47,577.37c0.18-0.62,0.42-0.99,0.91-0.2C1425.08,577.3,1424.78,577.36,1424.47,577.37z"/>
<path class="st12" d="M1391.47,756.84c-0.4-0.26-0.8-0.52-1.2-0.78C1390.93,755.92,1391.28,756.26,1391.47,756.84z"/>
<path class="st10" d="M1403.44,576.35c0.49,0.34,0.97,0.69,1.46,1.03C1404.42,577.03,1403.93,576.69,1403.44,576.35z"/>
<path class="st10" d="M1466.4,681.62c-0.34,0.36-0.69,0.72-1.04,1.07C1465.27,681.91,1465.86,681.79,1466.4,681.62z"/>
<path class="st10" d="M1457.59,489.26c-0.34,0.36-0.68,0.72-1.02,1.08C1456.45,489.54,1457.01,489.39,1457.59,489.26z"/>
<path class="st10" d="M1460.53,487.32c-0.34,0.36-0.69,0.71-1.03,1.07C1459.37,487.58,1459.97,487.46,1460.53,487.32z"/>
<path class="st10" d="M1454.7,491.24c-0.48,0.34-0.97,0.69-1.45,1.03C1453.73,491.93,1454.21,491.59,1454.7,491.24z"/>
<path class="st9" d="M1489.47,186.54c8.84,19.26,23.76,32.21,40.8,43.04c13.95,8.87,27.02,18.93,40.07,29.02
	c3.83,2.96,5.57,2.64,7.99-1.62c6.41-11.27,21-13.09,29.09-3.98c4.44,5,4.59,10.99,3.09,16.91c-1.4,5.5-4.5,10.29-8.14,14.72
	c-5.36,6.5-13.03,5.53-20.11,6.49c-0.92,0.12-1.43-0.37-1.63-1.34c-0.36-1.78-1.92-1.92-3.05-1.37c-1.64,0.8-1.4,3.12-0.66,3.82
	c4.63,4.39,3.12,10.23,3.59,15.36c1.3,14.32,2.67,28.55,6.89,42.41c1.82,5.98,4.85,10.43,10.91,12.43c2.08,0.69,3.47,1.13,1.67,3.81
	c-9.5,14.17-19.21,28.15-32.98,38.64c-11.74,8.94-24.68,14.2-39.83,13.39c-13.73-0.74-28.73-13.42-23.94-28.91
	c1.33-4.3,0.73-9.35-0.52-14.01c-0.64-2.38-0.25-3.86,2.89-4.53c19.84-4.22,35.67-15.22,49.21-29.89c1.07-1.16,3.45-2.43,1.42-4.21
	c-2.16-1.9-2.99,0.94-4.05,2.02c-13.15,13.33-28,23.6-46.65,27.82c-30.03,6.79-60.93-5.89-75.22-36.87
	c-6.85-14.85-10.68-30.49-12.83-46.7c-1.82-13.75-2.14-27.49-1.82-41.3c0.03-1.45-0.49-2.73,2.04-3.41
	C1447.83,230.09,1471.91,213.29,1489.47,186.54z M1504.46,336.82c0.01-1.35-0.9-2.11-1.63-2.95c-9.62-11.03-31.32-10.52-40.6,0.93
	c-1.07,1.32-1.99,2.59-0.53,4.21c1.61,1.79,3,1.16,4.55-0.19c3.53-3.08,7.35-5.7,12.08-6.63c7.82-1.53,14.68,0.52,20.63,5.7
	c1.2,1.05,2.38,1.71,3.91,1.09C1503.8,338.6,1504.37,337.81,1504.46,336.82z M1474.24,278.77c0-1.73-0.01-2.38,0-3.02
	c0.04-1.64-0.48-3-2.31-3.08c-2.5-0.11-1.51,1.92-1.68,3.17c-0.22,1.59-0.29,3.2-0.47,4.8c-0.72,6.14-3.91,11.46-5.76,17.22
	c-3.72,11.59,2.28,16.55,11.58,16.78c1.73,0.04,3.5-0.09,3.46-2.33c-0.04-2.39-2.08-1.46-3.35-1.56c-7.71-0.63-10.3-4.32-7.98-11.59
	c0.53-1.67,1.2-3.3,1.95-4.89C1472.17,289,1473.9,283.54,1474.24,278.77z M1515.59,256.04c2.75,0.28,5.84,0.25,6.31-2.93
	c0.58-3.93-3.11-2.92-5.21-3.1c-8.17-0.72-15.4-3.37-21.22-9.35c-0.79-0.81-1.59-1.74-2.86-0.63c-1.11,0.96-1.6,2.06-0.84,3.4
	c0.63,1.12,1.25,2.33,2.18,3.17C1500.11,252.15,1507.24,255.57,1515.59,256.04z M1458.59,241.96c0.23-0.95-0.38-1.72-1.24-2.23
	c-1.16-0.69-2.22-0.31-2.94,0.75c-5.22,7.75-12.92,11.84-21.47,14.8c-1.62,0.56-3.36,1.98-2.53,4.1c0.85,2.17,2.75,1.67,4.57,1.1
	c5.9-1.82,11.34-4.56,16.17-8.36C1454.47,249.51,1457.22,246.32,1458.59,241.96z M1512.25,276.83c-0.07-3.81-3.88-7.84-7.27-7.69
	c-3.65,0.17-6.38,3.51-6.33,7.74c0.05,4.32,3.14,7.61,7.01,7.48C1509.19,284.25,1512.32,280.68,1512.25,276.83z M1447.84,271.22
	c-3.63-0.12-6.64,3.1-6.8,7.28c-0.16,4.09,2.58,7.6,6.11,7.82c4.04,0.25,7.13-2.91,7.16-7.33
	C1454.33,275.03,1451.25,271.33,1447.84,271.22z"/>
<path class="st9" d="M1478.11,416.17c0.07-0.27,0.09-0.55,0.07-0.83c1.59-0.99,0.84-2.73,1.33-4.08c0.48-2.27,0.96-4.55,1.44-6.82
	c2.07-7.46,4.13-14.91,6.2-22.37c0,0-0.08,0.1-0.08,0.1c1.33-2.64,2.66-5.28,3.99-7.92c0.78-0.38,0.82-1.12,0.9-1.84
	c4.91-1.17,7.03,0.28,7.15,5.8c0.11,4.73,0.37,9.46-0.52,14.04c-2.72,13.93,10.39,27.78,24.28,29.83
	c18.41,2.71,33.58-4.46,47.82-14.93c7.88-5.79,13.67-13.63,20.45-20.51c1.14,1.01-0.08,2.05,0.04,3.07c0,0,0.11-0.09,0.11-0.09
	c-1.34,2.17-2.81,4.28-3.01,6.94c0,0,0.1-0.09,0.11-0.09c-0.71,1.6-1.52,3.16-2.13,4.79c-6.32,17.18-10.38,34.96-13.92,52.88
	c0,6.37-3.43,8.98-9.51,8.71c-18.13,0.23-36.27,0.49-54.39-0.51c-0.98-0.04-1.96-0.07-2.94-0.11c-7.71-0.4-15.41-0.89-23.12-1.16
	c-8.68-0.31-8.68-0.23-8.99-8.79c0,0-0.07,0.11-0.07,0.1c1.67-5.44,2.27-11,1.77-16.67c0.13-0.28,0.18-0.57,0.17-0.87
	c1.84-2.08,1.09-4.56,1.06-6.93c0.55-0.14,0.87-0.43,0.72-1.04c0.09-1.94,0.18-3.88,0.26-5.81c0,0-0.07,0.09-0.07,0.09
	C1478.7,419.71,1478.47,417.95,1478.11,416.17z"/>
<path class="st8" d="M1591.16,389.72c-0.12-1.02,1.1-2.06-0.04-3.07c0,0,0.1,0.18,0.1,0.18c1.29-0.4,2.02-1.05,1.13-2.45
	c0.15-1.76,1.45-2.69,2.69-3.64C1596.16,384.77,1593.81,387.31,1591.16,389.72z"/>
<path class="st9" d="M1592.36,384.38c0.89,1.4,0.16,2.06-1.13,2.45C1590.36,385.44,1592.01,385.21,1592.36,384.38z"/>
<path class="st11" d="M1329.81,145.45c-1.1-13.63,10.54-27.32,23.24-30.65c2.53-0.66,4.97-0.54,6.74,1.39
	c1.98,2.16,1.46,4.74,0.24,7.19C1356.07,131.33,1346.21,142.59,1329.81,145.45z"/>
<path class="st11" d="M1355.29,169.31c2.41-6.4,6.24-10.08,12.39-10.88c2.79-0.36,3.95,0.38,2.27,3.44
	C1366.81,167.6,1361.44,168.46,1355.29,169.31z"/>
<path class="st11" d="M1699.91,220.48c4.65,2.33,8.46,5.43,10.19,12C1704.32,229.36,1702.03,225.05,1699.91,220.48z"/>
<path class="st8" d="M1508.42,462.35c18.12,1,36.25,0.73,54.39,0.51c2.04,0.15,4.09,0.3,6.13,0.45c-0.01,0.24-0.01,0.47-0.02,0.71
	c-9.38,0-18.77-0.17-28.15,0.04c-18.16,0.4-36.29-0.55-54.42-1.09c-3.69-0.11-7.34-1.17-11.09-0.9c-2.01,0.14-3.15-0.81-2.94-2.86
	c0.24-2.32-1.06-4.89,1.07-6.91c0.3,8.56,0.3,8.48,8.99,8.79c7.71,0.28,15.41,0.77,23.12,1.16
	C1506.42,463.25,1507.4,463.26,1508.42,462.35z"/>
<path class="st8" d="M1572.31,454.15c3.55-17.91,7.6-35.7,13.92-52.88c0.6-1.64,1.41-3.2,2.13-4.79c0.17,1.46,0.08,2.85-0.44,4.29
	c-5.79,15.8-9.83,32.08-13.16,48.56C1574.42,451.05,1574.73,453.38,1572.31,454.15z"/>
<path class="st6" d="M1487.15,382.07c-2.07,7.46-4.13,14.91-6.2,22.37c-2.16-2.16-0.31-4.46,0.23-6.36
	C1482.75,392.62,1482.77,386.5,1487.15,382.07z"/>
<path class="st8" d="M1445.25,411.21c1.69-6.57,2.53-13.37,5.44-19.6C1449.85,398.42,1449.35,405.31,1445.25,411.21z"/>
<path class="st8" d="M1437.1,464.94c0.73-6.47,1.46-12.93,2.18-19.4C1440.74,452.25,1439.71,458.68,1437.1,464.94z"/>
<path class="st8" d="M1475.08,435.72c0.51,5.67-0.09,11.23-1.77,16.67C1473.08,446.75,1473.11,441.14,1475.08,435.72z"/>
<path class="st8" d="M1622.81,396.69c-1.97,3.94-3.94,7.89-5.92,11.83C1617.39,403.84,1619.26,399.84,1622.81,396.69z"/>
<path class="st6" d="M1491.05,374.24c-1.33,2.64-2.66,5.28-3.99,7.92C1487.06,378.86,1488.01,376.03,1491.05,374.24z"/>
<path class="st8" d="M1588.26,396.57c0.2-2.66,1.67-4.77,3.01-6.94C1591.13,392.32,1591.2,395.1,1588.26,396.57z"/>
<path class="st8" d="M1476.31,427.92c0.02,2.37,0.78,4.85-1.06,6.93C1475.54,432.53,1474.22,429.96,1476.31,427.92z"/>
<path class="st8" d="M1626.74,389.87c-0.67,1.86-1.59,3.58-2.97,5.03C1623.81,392.65,1624.42,390.76,1626.74,389.87z"/>
<path class="st8" d="M1477.29,421.06c-0.09,1.94-0.18,3.88-0.26,5.81C1475.75,424.88,1475.55,422.92,1477.29,421.06z"/>
<path class="st8" d="M1479.51,411.26c-0.49,1.35,0.26,3.09-1.33,4.08C1478.74,414.02,1476.69,411.85,1479.51,411.26z"/>
<path class="st8" d="M1478.11,416.17c0.36,1.78,0.59,3.53-0.89,4.98C1477.36,419.47,1476.45,417.59,1478.11,416.17z"/>
<path class="st8" d="M1630.68,384.03c-0.44,1.18-1,2.27-2.1,2.99C1628.45,385.44,1629.05,384.38,1630.68,384.03z"/>
<path class="st8" d="M1628.66,386.92c-0.67,1.02-1.34,2.03-2.01,3.05C1626.47,388.39,1627.13,387.37,1628.66,386.92z"/>
<path class="st8" d="M1450.56,391.7c0.21-1.07,0-2.28,1.09-3.03C1451.7,389.82,1452.15,391.12,1450.56,391.7z"/>
<path class="st8" d="M1617,408.41c-0.15,0.79-0.14,1.67-1.04,2.09C1615.85,409.58,1615.88,408.73,1617,408.41z"/>
<path class="st8" d="M1616.07,410.38c-0.12,0.86-0.27,1.71-1.12,2.2C1614.9,411.63,1614.86,410.69,1616.07,410.38z"/>
<path class="st8" d="M1451.52,388.75c0.2-0.74-0.06-1.68,0.93-2.06C1452.77,387.66,1452.65,388.43,1451.52,388.75z"/>
<path class="st8" d="M1631.5,383.08c-0.3,0.36-0.6,0.71-0.9,1.07c0.03-0.47,0.07-0.94,0.1-1.41
	C1630.97,382.85,1631.24,382.97,1631.5,383.08z"/>
<path class="st8" d="M1623.89,394.77c-0.15,0.81-0.35,1.59-1.17,2.01C1622.69,395.87,1622.76,395.01,1623.89,394.77z"/>
<path class="st5" d="M1504.46,336.82c-0.09,0.98-0.67,1.78-1.6,2.16c-1.53,0.62-2.71-0.04-3.91-1.09c-5.95-5.18-12.8-7.23-20.63-5.7
	c-4.73,0.93-8.55,3.55-12.08,6.63c-1.55,1.35-2.95,1.98-4.55,0.19c-1.45-1.62-0.54-2.89,0.53-4.21c9.28-11.45,30.98-11.96,40.6-0.93
	C1503.56,334.71,1504.47,335.47,1504.46,336.82z"/>
<path class="st5" d="M1474.24,278.77c-0.34,4.77-2.07,10.23-4.57,15.5c-0.75,1.58-1.42,3.22-1.95,4.89
	c-2.32,7.27,0.27,10.97,7.98,11.59c1.27,0.1,3.31-0.83,3.35,1.56c0.04,2.24-1.73,2.37-3.46,2.33c-9.3-0.22-15.3-5.19-11.58-16.78
	c1.85-5.76,5.04-11.08,5.76-17.22c0.19-1.6,0.25-3.21,0.47-4.8c0.17-1.24-0.82-3.27,1.68-3.17c1.83,0.08,2.35,1.44,2.31,3.08
	C1474.22,276.39,1474.24,277.04,1474.24,278.77z"/>
<path class="st5" d="M1515.59,256.04c-8.35-0.47-15.48-3.89-21.65-9.44c-0.93-0.84-1.55-2.05-2.18-3.17
	c-0.76-1.34-0.26-2.44,0.84-3.4c1.28-1.1,2.08-0.18,2.86,0.63c5.82,5.97,13.05,8.62,21.22,9.35c2.1,0.19,5.79-0.82,5.21,3.1
	C1521.43,256.29,1518.34,256.32,1515.59,256.04z"/>
<path class="st5" d="M1458.59,241.96c-1.37,4.36-4.12,7.55-7.44,10.16c-4.83,3.8-10.27,6.54-16.17,8.36
	c-1.82,0.56-3.72,1.06-4.57-1.1c-0.83-2.12,0.91-3.54,2.53-4.1c8.55-2.96,16.24-7.05,21.47-14.8c0.72-1.07,1.77-1.45,2.94-0.75
	C1458.21,240.24,1458.82,241.01,1458.59,241.96z"/>
<path class="st3" d="M1512.25,276.83c0.07,3.85-3.05,7.42-6.59,7.54c-3.87,0.13-6.96-3.16-7.01-7.48c-0.05-4.23,2.68-7.57,6.33-7.74
	C1508.37,268.99,1512.18,273.02,1512.25,276.83z"/>
<path class="st5" d="M1447.84,271.22c3.41,0.12,6.49,3.82,6.46,7.76c-0.03,4.42-3.12,7.58-7.16,7.33c-3.53-0.22-6.26-3.72-6.11-7.82
	C1441.2,274.31,1444.21,271.09,1447.84,271.22z"/>
<path class="st14" d="M1508.42,462.35c-1.01,0.91-1.99,0.9-2.94-0.11C1506.46,462.28,1507.44,462.32,1508.42,462.35z"/>
<g>
	<path class="st2" d="M582.94,381.22c3.68,7.14,5.53,14.58,5.53,22.32c0,0.93-0.02,1.89-0.07,2.87c-0.05,0.98-0.16,1.94-0.35,2.87
		c-0.28,1.96-0.68,3.9-1.19,5.81c-0.51,1.91-1.14,3.8-1.89,5.67c-3.83,9.05-9.89,16.07-18.2,21.06c-8.31,4.99-17.03,7.49-26.17,7.49
		c-0.65,0-1.28-0.02-1.89-0.07c-0.61-0.05-1.24-0.07-1.89-0.07c-3.17-0.28-6.32-0.84-9.45-1.68c-3.13-0.84-6.14-2.01-9.03-3.5
		c-7.84-4.1-14-9.96-18.48-17.57c-4.48-7.6-6.72-15.51-6.72-23.72c0-1.21,0.05-2.43,0.14-3.64c0.09-1.21,0.28-2.47,0.56-3.78
		c0.37-2.43,0.98-4.87,1.82-7.35c0.84-2.47,1.87-4.83,3.08-7.07c4.39-7.93,10.38-14,17.99-18.2c7.6-4.2,15.61-6.3,24-6.3
		c1.03,0,2.08,0.02,3.15,0.07c1.07,0.05,2.12,0.16,3.15,0.35c3.54,0.47,7.07,1.31,10.57,2.52c3.5,1.21,6.79,2.8,9.87,4.76
		C574.09,368.36,579.25,374.08,582.94,381.22z M563.34,409.98c0.23-1.03,0.4-2.05,0.49-3.08c0.09-0.65,0.16-1.31,0.21-1.96
		c0.05-0.65,0.07-1.26,0.07-1.82c0-0.56-0.02-1.12-0.07-1.68c-0.05-0.56-0.07-1.12-0.07-1.68c-0.47-4.01-1.68-7.88-3.64-11.62
		c-1.96-3.73-4.71-6.62-8.26-8.68c-0.93-0.47-1.87-0.89-2.8-1.26c-0.93-0.37-1.82-0.7-2.66-0.98c-0.93-0.19-1.87-0.35-2.8-0.49
		c-0.93-0.14-1.87-0.21-2.8-0.21c-4.76,0-9.15,1.49-13.16,4.48c-4.01,2.99-6.81,6.95-8.4,11.9c-0.28,0.93-0.56,1.96-0.84,3.08
		c-0.28,1.12-0.51,2.24-0.7,3.36c-0.09,0.65-0.16,1.28-0.21,1.89c-0.05,0.61-0.07,1.24-0.07,1.89c0,0.37,0,0.72,0,1.05
		c0,0.33,0,0.68,0,1.05c0.37,4.95,1.91,9.64,4.62,14.07c2.71,4.43,6.53,7.35,11.48,8.75c1.12,0.37,2.24,0.65,3.36,0.84
		c1.12,0.19,2.29,0.28,3.5,0.28c4.85,0,9.28-1.47,13.3-4.41c4.01-2.94,6.9-6.88,8.68-11.83
		C562.85,411.99,563.11,411.01,563.34,409.98z"/>
	<path class="st2" d="M686.86,427.33v-69.14h24.35v89.16H604.28v-89.16h24.35v69.14h16.94v-69.14h24.35v69.14H686.86z"/>
	<path class="st2" d="M729.41,358.19h24.21v56.69l32.47-56.69h24.21v89.16h-24.21v-52.91l-32.47,52.91h-24.21V358.19z"/>
	<path class="st2" d="M850.05,393.88h5.74c1.58,0,3.26,0.02,5.04,0.07c1.77,0.05,3.59,0.12,5.46,0.21c2.24,0.19,4.46,0.44,6.65,0.77
		c2.19,0.33,4.17,0.77,5.95,1.33c5.32,1.96,9.73,5.13,13.23,9.52c3.5,4.39,5.25,9.75,5.25,16.1v2.1c-0.47,8.4-3.71,14.14-9.73,17.22
		c-6.02,3.08-12.62,4.95-19.81,5.6c-2.61,0.28-5.23,0.44-7.84,0.49c-2.61,0.05-5.09,0.07-7.42,0.07h-25.19v-89.16h54.73v19.46
		h-32.05V393.88z M850.05,429.01c0.56,0,1.17,0,1.82,0c0.65,0,1.35,0,2.1,0c0.37,0.09,0.75,0.14,1.12,0.14c0.37,0,0.75,0,1.12,0
		c0.37,0,0.75,0,1.12,0c0.37,0,0.75,0,1.12,0c0.28,0,0.58,0,0.91,0c0.33,0,0.68,0,1.05,0c3.27-0.09,6.3-0.68,9.1-1.75
		c2.8-1.07,4.34-3.2,4.62-6.37v-1.82c0-3.64-1.4-6.09-4.2-7.35c-2.8-1.26-5.83-1.98-9.1-2.17c-0.37,0-0.72,0-1.05,0
		c-0.33,0-0.68,0-1.05,0h-8.68V429.01z"/>
	<path class="st2" d="M912.9,358.19h24.07v40.45l28.13-40.45h28.41l-32.89,43.39l35.83,45.77h-30.37l-29.11-40.17v40.17H912.9
		V358.19z"/>
	<path class="st2" d="M1034.66,358.19h30.37l30.93,89.16h-24.35l-4.48-16.1h-34.43l-4.62,16.1h-24.07L1034.66,358.19z
		 M1062.1,414.04l-9.1-29.53c-0.47-1.4-0.91-2.87-1.33-4.41s-0.77-3.06-1.05-4.55c-0.19-0.56-0.33-1.1-0.42-1.61
		c-0.09-0.51-0.19-1-0.28-1.47c-0.09,0.47-0.21,0.96-0.35,1.47c-0.14,0.51-0.26,1.05-0.35,1.61c-0.09,0.19-0.14,0.35-0.14,0.49
		c0,0.14-0.05,0.3-0.14,0.49c-0.28,1.4-0.58,2.75-0.91,4.06c-0.33,1.31-0.68,2.61-1.05,3.92l-9.1,29.53H1062.1z"/>
</g>
<circle class="st2" cx="806.22" cy="504.53" r="15.51"/>
<circle class="st2" cx="865.74" cy="504.53" r="15.51"/>
<circle class="st2" cx="922.04" cy="504.53" r="15.51"/>
<path class="st0" d="M737.64,672.7c26.65,33.4,23.53,84.44,11.22,116.69c-49.21,128.93-309.2,125.08-381.79,124
	c-138.51-2.05-292.33-37.36-298.18-90.34c-3.54-32.03,49.36-49.26,74.06-133.79c10.47-35.82,3.89-42.74,11.22-70.43
	c24.96-94.3,144.99-179.33,212.9-153.7c53.24,20.09,25.67,89.77,87.81,142.48C545.5,684.47,680.51,601.09,737.64,672.7z"/>
</svg>
