<?xml version="1.0" encoding="utf-8"?>
<!-- Generator: Adobe Illustrator 24.1.2, SVG Export Plug-In . SVG Version: 6.00 Build 0)  -->
<svg version="1.1" id="Слой_1" xmlns="http://www.w3.org/2000/svg" xmlns:xlink="http://www.w3.org/1999/xlink" x="0px" y="0px"
	 viewBox="0 0 1469 804.5" style="enable-background:new 0 0 1469 804.5;" xml:space="preserve">
<style type="text/css">
	.st0{fill:#EBD1C2;}
	.st1{fill:none;stroke:#363636;stroke-width:2;stroke-linecap:round;}
	.st2{fill-rule:evenodd;clip-rule:evenodd;fill:#FFFFFF;stroke:#363636;stroke-width:2;}
	.st3{fill:#B7CEDE;stroke:#363636;stroke-width:2;}
	.st4{fill:#367ABD;stroke:#363636;stroke-width:2;}
	.st5{fill:#363636;stroke:#363636;}
	.st6{fill:#E99E58;}
	.st7{fill:#FFFFFF;}
	.st8{fill:#866341;}
	.st9{fill:#367ABD;}
	.st10{fill:#2B4B6A;}
	.st11{fill:#363636;}
	.st12{fill:#FFFFFF;stroke:#363636;stroke-width:2;}
	.st13{fill:#FF9A6C;}
	.st14{fill:#FFFFFF;stroke:#FFFFFF;}
	.st15{fill:none;stroke:#363636;stroke-width:2;}
	.st16{fill:#B7CEDE;stroke:#363636;}
	.st17{fill:#B7CEDE;}
</style>
<path class="st0" d="M1177.8,512.7C1151.3,401.9,972.9,398,908.6,303.9c-58.8-86-33.2-150.5-115.8-214.2
	c-92.3-71.2-330.4-90.4-385,12.5c-39.5,74.4-27.9,100.4-85.8,168.3c-56.3,66.1-138.2,84.6-186.1,157
	C30.7,586.3,148.7,791.5,479.7,773.4c122.4-6.7,193,12.8,313.1,27.9C979.3,824.7,1221.4,695.3,1177.8,512.7z"/>
<path class="st1" d="M816.4,765.7c178,23.2,409-104.9,367.4-285.6C1158.5,370.4,965.2,372,903.9,278.9
	C847.7,193.7,865,118.5,786.2,55.4C698.1-15.1,501.1-28,449,73.9 M838.6,377.8c34.6,4.9,57.4-4.9,79.1-23.7 M876.2,409.4
	c23.7,3,41.5-5.9,52.4-24.7"/>
<path class="st2" d="M204.3,394.9l-47.8-16.6l-10.2,11.3c-3.4,3.7-5.6,7.1-6.6,10.1c-1.3,3.8-0.8,7.1,1.6,10
	c1.4,1.6,5.6,3.9,12.5,6.9l-1.4,3.7l-44.9-15.4l1.2-3.7c5.1,0.8,9.8,0.2,14-2c4.4-2.1,10.6-7.6,18.8-16.4l86-91.9l1.9,0.8l9.9,128.5
	c1,12.1,2.5,20,4.5,23.8c1.5,3,4.2,5.3,8.3,7l-1.2,3.7l-65.4-22.8l1.2-3.7l2.7,1.1c5.3,1.8,9.3,2.3,12,1.6c1.8-0.5,3-1.8,3.7-3.9
	c0.5-1.2,0.7-2.5,0.7-4c0.1-0.6-0.1-3.4-0.4-8.4L204.3,394.9z M203.6,386.2l-3.8-53.7l-37,39.6L203.6,386.2z"/>
<path class="st3" d="M460.2,111.8l17.4,185.1l-123.7,14.3l-63.8-17.2L276,129.4L460.2,111.8z"/>
<path class="st4" d="M353.9,311.1c-12.4,1.6-24.8,0.5-38.5-3.1c-13.7-3.6-25.3-14.1-25.3-14.1l19.4-14.7
	C324.4,306,353.9,311.1,353.9,311.1z"/>
<path class="st5" d="M445.3,172.1c0,0.3-31.3,3.6-70,7.4c-38.6,3.7-70,6.5-70.1,6.2c0-0.3,31.3-3.6,70-7.3
	C413.8,174.6,445.1,171.8,445.3,172.1z"/>
<path class="st5" d="M447,197.4c0.2,0.3-31.2,3.7-69.8,7.4c-38.6,3.7-70.1,6.5-70.1,6.2c0-0.3,31.3-3.6,70-7.3
	C415.7,199.9,447,197.1,447,197.4z"/>
<path class="st5" d="M450,219.7c0.2,0.3-31.2,3.6-69.8,7.3c-38.6,3.9-70,6.7-70.1,6.4c0-0.3,31.3-3.6,70-7.4
	C418.6,222.2,450,219.4,450,219.7z"/>
<path class="st5" d="M452,241.3c0,0.3-31.3,3.6-70,7.3c-38.6,3.9-70,6.7-70,6.4s31.2-3.7,70-7.4C420.6,243.8,452,241,452,241.3z"/>
<path class="st6" d="M393.4,526.8h168.8c19.3,0,35-15.6,35-35v-18.7c0-19.3-15.6-35-35-35H393.4V526.8z"/>
<path class="st6" d="M81.4,452.8h356.2v-14.7H81.4c-3.2,0-5.7,2.6-5.7,5.7v3.2C75.7,450.3,78.2,452.8,81.4,452.8z"/>
<path class="st6" d="M81.4,526.8h356.2V512H81.4c-3.2,0-5.7,2.6-5.7,5.8v3.1C75.7,524.1,78.2,526.8,81.4,526.8z"/>
<path class="st7" d="M86.4,512h310.7c16.3,0,29.6-13.3,29.6-29.6s-13.3-29.6-29.6-29.6H86.4C94.8,472.6,94.8,492.3,86.4,512z"/>
<path class="st8" d="M426.8,526.8h134.8c19.7,0,35.6-15.9,35.6-35.6v-17.6c0-19.5-15.8-35.4-35.3-35.4H423.4
	C455.5,457.6,453.1,504.1,426.8,526.8z"/>
<path class="st5" d="M124.2,485.2c0,0.3,63.8,0.5,142.5,0.5c78.6,0,142.4-0.2,142.4-0.5c0-0.3-63.8-0.5-142.4-0.5
	C187.9,484.7,124.2,484.9,124.2,485.2z"/>
<path class="st5" d="M94.9,498.4c0,0.3,63.8,0.5,142.5,0.5c78.6,0,142.4-0.2,142.4-0.5c0-0.3-63.8-0.5-142.4-0.5
	C158.6,497.9,94.9,498.1,94.9,498.4z"/>
<path class="st5" d="M103.5,466.6c0,0.3,63.8,0.5,142.5,0.5c78.7,0,142.5-0.2,142.5-0.5c0-0.3-63.8-0.6-142.5-0.6
	C167.2,466,103.5,466.3,103.5,466.6z"/>
<path class="st5" d="M442.3,520.6c0,0.3,29.9,0.5,66.7,0.5c36.8,0,66.6-0.2,66.6-0.5c0-0.3-29.8-0.5-66.6-0.5
	C472.2,520.1,442.3,520.3,442.3,520.6z"/>
<path class="st5" d="M442.3,445.5c0,0.3,29.9,0.6,66.7,0.6c36.8,0,66.6-0.3,66.6-0.6s-29.8-0.5-66.6-0.5
	C472.2,445,442.3,445.2,442.3,445.5z"/>
<path class="st6" d="M409.3,703h227.5c19.3,0,35-15.6,35-35v-44.2c0-19.3-15.6-35-35-35H409.3V703z"/>
<path class="st6" d="M5.8,607.9h460.3V589H5.8c-3.2,0-5.8,2.6-5.8,5.7v7.4C0,605.3,2.7,607.9,5.8,607.9z"/>
<path class="st6" d="M5.8,703h460.3v-18.9H5.8c-3.2,0-5.8,2.6-5.8,5.8v7.3C0,700.5,2.7,703,5.8,703z"/>
<path class="st7" d="M14,684.1h400.1c21.1,0,38.1-17,38.1-38.1c0-21.1-17-38.1-38.1-38.1H14C24.7,633.3,24.7,658.7,14,684.1z"/>
<path class="st8" d="M452.2,703h185.1c19,0,34.5-15.4,34.5-34.5v-43.9c0-19.8-15.9-35.7-35.7-35.7H447.9
	C489.3,614,486.1,673.9,452.2,703z"/>
<path class="st5" d="M62.6,649.6c0,0.3,82.1,0.5,183.4,0.5c101.4,0,183.5-0.2,183.5-0.5c0-0.3-82.1-0.6-183.5-0.6
	C144.7,649,62.6,649.3,62.6,649.6z"/>
<path class="st5" d="M24.8,666.5c0,0.3,82.2,0.5,183.5,0.5c101.4,0,183.5-0.2,183.5-0.5c0-0.3-82.1-0.5-183.5-0.5
	C106.9,666,24.8,666.2,24.8,666.5z"/>
<path class="st5" d="M35.9,633.8c0,0.3,82.1,0.5,183.5,0.5c101.3,0,183.4-0.2,183.4-0.5c0-0.3-82.1-0.5-183.4-0.5
	C118,633.3,35.9,633.5,35.9,633.8z"/>
<path class="st5" d="M472.3,695c0,0.3,38.4,0.6,85.9,0.6c47.4,0,85.9-0.3,85.9-0.6c0-0.2-38.5-0.5-85.9-0.5
	C510.7,694.5,472.3,694.8,472.3,695z"/>
<path class="st5" d="M472.3,598.4c0,0.3,38.4,0.6,85.9,0.6c47.4,0,85.9-0.3,85.9-0.6c0-0.2-38.5-0.5-85.9-0.5
	C510.7,597.9,472.3,598.2,472.3,598.4z"/>
<path class="st9" d="M341.1,589.4h187.4c14.3,0,25.8-11.5,25.8-25.7v-13.9c0-14.2-11.6-25.7-25.8-25.7H341.1V589.4z"/>
<path class="st9" d="M14.7,539.5h372.7V524H14.7c-3.3,0-6,2.8-6,6.1v3.2C8.6,536.7,11.4,539.5,14.7,539.5z"/>
<path class="st9" d="M14.7,589.4h372.7V574H14.7c-3.3,0-6,2.7-6,6v3.3C8.6,586.7,11.4,589.4,14.7,589.4z"/>
<path class="st7" d="M19.9,574h338.8c9.5,0,17.3-7.8,17.3-17.3c0-9.5-7.8-17.2-17.3-17.2H19.9C28.6,551,28.6,562.5,19.9,574z"/>
<path class="st10" d="M376.1,589.4h152.4c14.3,0,25.9-11.6,25.9-25.9v-12.9c0-14.7-11.9-26.5-26.5-26.5H372.5
	C406.1,538.4,403.6,572.7,376.1,589.4z"/>
<path class="st5" d="M59.4,554c0,0.3,66.7,0.5,149,0.5c82.4,0,149.1-0.2,149.1-0.5c0-0.3-66.7-0.6-149.1-0.6
	C126.2,553.4,59.4,553.7,59.4,554z"/>
<path class="st5" d="M28.7,563.3c0,0.3,66.7,0.5,149.1,0.5c82.3,0,149-0.2,149-0.5c0-0.3-66.7-0.6-149-0.6
	C95.5,562.7,28.7,563,28.7,563.3z"/>
<path class="st5" d="M392.3,582.8c0,0.3,31.3,0.6,69.8,0.6c38.5,0,69.8-0.3,69.8-0.6c0-0.3-31.3-0.5-69.8-0.5
	C423.6,582.3,392.3,582.5,392.3,582.8z"/>
<path class="st5" d="M392.3,531.7c0,0.3,31.3,0.5,69.8,0.5c38.5,0,69.8-0.2,69.8-0.5c0-0.3-31.3-0.5-69.8-0.5
	C423.6,531.2,392.3,531.4,392.3,531.7z"/>
<path class="st11" d="M13.1,524c0,0.3,114.6,0.6,256,0.6c141.3,0,255.9-0.3,255.9-0.6c0-0.3-114.6-0.5-255.9-0.5
	C127.6,523.5,13.1,523.7,13.1,524z"/>
<path class="st9" d="M192.6,465.6V501l13.7-7.8l12.3,7.8v-35.4H192.6z"/>
<path class="st12" d="M845.1,544.3L792.2,523l-40.2-105.3l-53.7,27.7c0,0,5.1,10.4,16.2,36.2c4.3,10,18.4,37.6,24.2,51
	c11,25.4,35.7,42.3,63.4,43l49.4,1.3L845.1,544.3z"/>
<path class="st7" d="M843.9,545.9l6.2,30.3c0,0,17,6.1,23.5-1.9c6.4-8,24.8-20.4,24.8-20.4l12.8,2.4c0,0,1.3,5.8,4.3,6.7
	c0.5,0.2,0.9,0.3,1.3,0.3c2.1,0.1,4-1.2,4.9-3c0,0,3.4,1.2,6.2-0.4c1.6-1,2.5-6,2.5-6s4.2,0.7,5.4-3.1c0.7-2.7-5.5-13.2-5.5-13.2
	l-9.1-15.6c-2.7-4-7-6.7-11.8-7.1l-25.3-0.7c-1.8,0-3.6,0.4-5.1,1.5l-8,8.3L843.9,545.9z"/>
<path class="st13" d="M889.8,527.5c0,0.2,2.1,0.6,5.5,0.9c3.6,0.4,8.5,0.6,14,1.3l-0.6-0.4c0.9,1.9,2.1,4,3.3,6
	c4,6.4,8.6,11.2,12.2,14.4c3.6,3.1,6.2,4.6,6.2,4.5c0.1-0.1-2.2-1.9-5.5-5.4c-3.4-3.3-7.7-8.2-11.6-14.3c-1.2-2.1-2.2-4-3.3-6
	l-0.1-0.3l-0.4-0.1c-5.7-0.6-10.6-0.4-14-0.6C891.9,527.3,889.8,527.3,889.8,527.5z"/>
<path class="st13" d="M889.2,539.5c0,0.2,1.8,0.9,4.8,1.3c3.1,0.4,7.4,0.6,12.3-0.4l-0.9-0.6c0.5,1.6,1.1,3.1,1.9,4.6
	c2.7,5.7,6.4,9.8,9.4,12.5c3.1,2.7,5.4,3.7,5.5,3.6c0.1-0.3-1.9-1.6-4.6-4.5c-2.8-2.7-6.2-6.8-8.9-12.3c-0.7-1.5-1.3-2.9-1.8-4.3
	l-0.1-0.6l-0.7,0.1C896.7,541,889.4,539.1,889.2,539.5z"/>
<path class="st7" d="M866.8,568.4c5.5,1,11.2-1.9,14.9-6.2c3.6-4.3,5.7-9.8,7.6-15c6.5,5.7,17.4,5.2,23.4-1c0.7-0.6,1.5-1.6,1-2.5
	c-0.1-0.6-0.9-1-1.5-1.5c-4.1-2.1-8.1-4.2-12.2-6.2c-3.3-1.6-6.7-3.4-10.4-3.4c-3.4,0-6.7,1.5-9.8,3c-7.4,3.5-14.9,6.9-22.5,10.4"/>
<path class="st13" d="M866.8,568.4c0,0.1,0.2,0.2,0.6,0.2c0.4,0.2,1,0.3,1.8,0.3c1.6,0,4.2-0.3,6.8-1.6c2.7-1.3,5.7-3.9,8-7.3
	c2.4-3.4,4-7.9,5.8-12.5l-1,0.1c3.3,3,8.2,4.6,13.1,4.2c2.4-0.2,4.9-0.9,7.3-2.1c1.2-0.6,2.2-1.3,3.3-2.2c0.4-0.4,1-0.9,1.5-1.5
	c0.3-0.6,0.7-1.3,0.6-2.4c-0.1-0.9-0.9-1.3-1.3-1.8c-0.6-0.3-1-0.4-1.5-0.7c-1-0.5-1.9-1-2.8-1.5c-1.9-0.9-3.7-1.8-5.5-2.8
	c-3.6-1.8-7-3.9-10.9-4.8c-3.9-0.9-7.6,0.3-10.7,1.6c-3,1.5-5.8,2.8-8.3,4c-4.8,2.4-8.8,4.3-11.9,5.8c-2.8,1.5-4.3,2.2-4.3,2.4
	c0,0.1,1.6-0.6,4.6-1.8c3.1-1.3,7.1-3.1,12.2-5.4c2.6-1.2,5.4-2.4,8.3-3.7c3-1.3,6.4-2.4,9.8-1.5c3.4,0.7,6.8,2.8,10.4,4.8
	c1.8,0.9,3.6,1.8,5.5,2.8c1,0.5,1.9,1,2.8,1.5c0.9,0.4,1.9,0.9,2.1,1.3c0.1,0.6-0.7,1.6-1.6,2.4c-0.9,0.9-1.9,1.5-3,2.1
	c-2.1,1-4.5,1.6-6.7,1.9c-4.6,0.3-9.1-1-12.1-3.7l-0.7-0.6l-0.4,0.9c-1.6,4.8-3.3,9.1-5.5,12.5c-2.1,3.4-4.9,5.7-7.4,7.1
	C870.4,569.3,866.8,568.1,866.8,568.4z"/>
<path class="st11" d="M563.9,372.3c3.4,10.7,10.9,22.2,22,22.8c8.6,0.6,16.4-5.8,20.2-13.4c4-7.6,10.9-15.5,11.6-24
	c5.4-65.2,4.8-131.4,10.1-196.5l-2.8-14.4c-13.8-9.8-34.2-5.2-46,7c-11.9,12.1-16.4,29.8-17,46.6c-0.6,17,2.1,33.8,2.2,50.6
	C564.8,291.7,551.2,333.6,563.9,372.3z"/>
<path class="st9" d="M604,171.2c1.2,1.2,3.1,1.5,4.8,1c1.6-0.6,3-1.6,4.3-2.7c5.3-4.3,10.4-8.7,15.5-13.2l0.4-0.3
	c2.2,0.1,3.9-2.7,3.1-4.9c-0.7-2.1-3.1-3.4-5.4-3.9c-4.8-0.9-9.7,1.2-13.2,4.5c-3.6,3.3-6.1,7.4-8.6,11.6
	C603.6,165.8,602.1,169.1,604,171.2z"/>
<path class="st11" d="M586.6,258.4c10,16.4,28.1,26.3,46.7,30.8c18.7,4.3,38.1,3.7,57.3,3.1l34.7-6.1c8-11,11.6-24.7,12.6-38.4
	c1-13.5-0.4-27.2-1.9-40.8c-1.5-13.2-7.9-25.4-15.5-36.3c-6.5-9.2-16.2-15-27.1-17.9c-10.7-3-17-6.1-32-5.8
	c-26.6,0.4-49.2,12.3-66.1,32.9C578.6,200.5,572.8,235.7,586.6,258.4z"/>
<path class="st7" d="M614,192.1l3.6,160.5l70.7,5.1c-0.1-12.2-0.7-31.5-0.7-31.5s30.8-3,38.7-39.1c3.9-18,4.6-47.9,4.3-72.3
	c-0.1-22-18.9-51.9-46-52.1l-12.1-1.3l-46.3,18.3C619.5,180.1,614.3,185.5,614,192.1z"/>
<path class="st11" d="M713.7,241.2c-2.5,0-4.8,1.9-4.8,4.5c0,2.4,2.1,4.5,4.6,4.5c2.5,0,4.8-1.9,4.8-4.5
	C718.3,243.2,716.4,241.2,713.7,241.2z"/>
<path class="st11" d="M720.7,224.3c-1.5-1.2-4-2.5-7.3-2.7c-3.1-0.3-5.8,0.7-7.4,1.8c-1.8,1.2-2.4,2.2-2.1,2.5
	c0.4,0.6,4.3-1.8,9.4-1.5c5.1,0.3,8.5,3.1,9.1,2.5C722.6,226.7,722.2,225.6,720.7,224.3z"/>
<path class="st11" d="M698.2,267c0.6,0,1.3,0,2.2-0.1c0.7-0.3,1.8-0.9,2.1-1.8c0.9-1.9,0.1-3.6-0.3-5.1c-1-3.3-2-6.6-3.1-10.1
	c-4.5-14.3-8.6-25.6-9.2-25.4c-0.6,0.1,2.7,11.8,7.1,26c1.1,3.5,2.2,6.8,3.3,10.1c0.6,1.5,1,2.8,0.6,3.7c-0.2,0.9-1.5,1.2-2.7,1.2
	c-5.2,0.3-8.3,0.7-8.3,1C689.9,266.8,693,267,698.2,267z"/>
<path class="st11" d="M673.8,272.8c0.1,2.2,1.2,5.5,3.9,8c2.8,2.5,6.2,3.4,8.6,3.6c2.5,0,3.9-0.6,3.9-0.9c0-0.9-5.8-0.6-10.3-4.8
	c-4.5-4-4.3-9.5-5.1-9.5C674.4,269.2,673.8,270.4,673.8,272.8z"/>
<path class="st11" d="M718.8,206.4c-1.6-1-4.3-1.9-7.4-1.9c-3.1,0-6,1-7.4,2.2c-1.6,1-2.2,2.2-1.8,2.8c0.9,1.2,4.6,0,9.2,0
	c4.5,0,8.3,0.9,9.2-0.2C721,208.8,720.4,207.6,718.8,206.4z"/>
<path class="st11" d="M663.3,244.4c-0.1,2.5,1.9,4.6,4.5,4.9c2.5,0.1,4.8-1.8,4.9-4.2c0.1-2.5-1.8-4.6-4.5-4.9
	C665.6,240.1,663.4,242,663.3,244.4z"/>
<path class="st11" d="M654,225c0.6,0.6,4.2-1.9,9.2-1.8c5.1,0,8.8,2.7,9.2,2.1c0.3-0.3-0.3-1.5-1.8-2.7c-1.6-1.2-4.3-2.4-7.4-2.4
	c-3.1,0-5.8,1-7.3,2.2C654.3,223.7,653.7,224.7,654,225z"/>
<path class="st11" d="M657.2,209c0.9,1,4.8,0,9.5,0c4.6-0.1,8.6,0.9,9.5-0.3c0.4-0.6-0.1-1.6-1.9-2.8c-1.6-1-4.5-2.1-7.7-1.9
	c-3.1,0-6,0.9-7.6,2.1C657.2,207.2,656.7,208.4,657.2,209z"/>
<path class="st7" d="M620.3,253.4c0.1-2.7-2.5-9.2-5.2-9.8c-7.1-1.5-20.1-1.6-21.3,16.5c-1.5,25,23.8,21.3,24,20.7
	C617.7,280.2,619.8,262.8,620.3,253.4z"/>
<path class="st11" d="M611.3,271.3c0-0.2-0.4,0.3-1.2,0.4c-0.7,0.3-1.9,0.4-3.3,0c-2.5-1.2-4.5-5.5-4.3-10c0-2.2,0.6-4.5,1.6-6.1
	c0.7-1.8,2.1-3,3.4-3.1c1.3-0.3,2.2,0.6,2.5,1.3c0.3,0.6,0,1.2,0.2,1.2c0.1,0,0.6-0.4,0.4-1.5c0-0.4-0.3-1-0.9-1.5
	c-0.6-0.6-1.5-0.9-2.4-0.9c-1.9,0-3.7,1.8-4.8,3.6c-1,1.9-1.8,4.3-1.9,6.8c-0.1,5.1,2.2,10,5.7,11.2c1.8,0.6,3.3,0.1,4-0.3
	C611.3,271.9,611.5,271.3,611.3,271.3z"/>
<path class="st11" d="M614,243.6l6.2,6.7c27.4-26.2,80.8-91.6,77.8-87.8c0,0-18.7-7.7-39.1-4.2c-20.2,3.4-58.8,13.5-58.2,37.5
	C601.4,219.8,614,243.6,614,243.6z"/>
<path class="st14" d="M580.4,233.1c1.8-3.1,5.1-7.4,10.4-11.2c5.2-4,12.5-7.1,20.8-9.7c8.2-2.7,17.7-4.8,27.1-8.8
	c9.4-3.9,17.7-8.9,24.7-14c7.1-5.2,12.9-10.7,17.4-15.5c4.5-4.9,7.6-9.2,9.8-12.3c1-1.5,1.8-2.7,2.2-3.6c0.5-0.8,0.7-1.2,0.7-1.3
	c0,0-0.3,0.4-0.9,1.2c-0.7,0.9-1.5,2-2.5,3.4c-2.2,3-5.5,7.1-10.1,11.9c-4.5,4.8-10.3,10.1-17.3,15.2c-7.1,5.1-15.3,10-24.7,13.8
	c-9.2,4-18.6,6.1-26.9,8.8c-8.3,2.7-15.6,6-20.8,10.1c-5.4,4-8.8,8.3-10.4,11.6c-0.9,1.6-1.5,3.1-1.8,4c-0.3,0.9-0.4,1.3-0.3,1.3
	C578,238.3,578.5,236.2,580.4,233.1z"/>
<path class="st14" d="M586.5,236.8c1.3-3.1,4.2-7.6,9.4-11.2c5.2-3.6,12.3-6,20.5-7.7c8.2-1.6,17.3-4,26-8.2
	c8.9-4,16.8-9.1,23.4-14.4c6.4-5.4,11.8-10.9,15.6-15.8c4-4.9,6.7-9.4,8.6-12.5c0.7-1.4,1.3-2.6,1.8-3.6c0.5-0.8,0.7-1.2,0.6-1.3
	c0,0-0.2,0.4-0.7,1.2c-0.6,0.9-1.3,2.1-2.1,3.6c-1.9,2.8-4.8,7.3-8.8,12.1c-4.2,4.8-9.4,10.3-15.8,15.5
	c-6.5,5.4-14.3,10.1-23.1,14.3c-8.8,4-17.7,6.4-25.9,8.2c-8,1.8-15.5,4.2-20.7,8c-5.4,3.9-8.2,8.5-9.4,11.8c-1.2,3.4-1,5.5-1,5.5
	C585.3,242.1,585.2,240.1,586.5,236.8z"/>
<path class="st14" d="M614.8,285.9c0-0.1-2.1-0.4-5.8-1.5c-3.6-1-8.8-3.3-13.8-7.7c-5.2-4.5-9.8-11.5-12.9-19.8
	c-3.3-8.5-5.2-18.3-5.5-28.7c0-5.2,0.3-10.3,1.3-15.2c0.9-4.8,2.4-9.2,4-13.4c3.6-8.3,8.3-15,12.9-20.1c9.2-10.3,17-14.3,16.7-14.6
	c0-0.1-0.4,0.1-1.3,0.7c-0.9,0.4-2.2,1.2-3.7,2.4c-3.3,2.1-7.7,5.5-12.5,10.6c-4.8,5.1-9.7,11.9-13.4,20.4
	c-1.8,4.2-3.3,8.8-4.3,13.7c-0.9,4.9-1.3,10.1-1.3,15.5c0.3,10.6,2.4,20.7,5.7,29.2c3.4,8.6,8.2,15.8,13.7,20.2
	c5.2,4.5,10.7,6.7,14.4,7.4c1.9,0.6,3.4,0.6,4.5,0.7C614.3,285.8,614.8,285.9,614.8,285.9z"/>
<path class="st6" d="M552.4,613.9c0,0,5.2,71.6,10.1,95.7c4.6,23.7,31.7,23.5,31.7,23.5l89-1.3l221.7-103.4
	c-61,5.4-119.2,0.7-174.5-14.9l-147.3-21.4C570.1,598.6,552.4,613.9,552.4,613.9z"/>
<path class="st7" d="M688.1,351.6l-71.6-7.7l-13.1,11.9l51,30.1l22.6,11.6l22.2-6.7l7.1-13.2L688.1,351.6z"/>
<path class="st9" d="M784.5,438.7c0,0-22.5-43-28-52.4c-9.5-16.1-27.1-25.1-27.1-25.1l-41.4-9.5c0,0,4.3,20.7-21.4,22.2
	c-32.7,1.8-53.1-29.6-53.1-29.6s-37.3,3.9-47.6,8.2c-10.3,4.3-39.4,16.5-43.7,55.3l-10,63.2l78.8,6l-1,84.4l33.5,27.4
	c0,0,96.3,33.2,102.4,35.3c2.8,1,2.2-39.9,9.1-74.8l12.9-31.5c5.2-12.6,8.5-26,9.2-39.6c0.4-9.1,0.3-15.8,0.3-15.8
	S777.7,455.2,784.5,438.7z"/>
<path class="st7" d="M722.3,590.9l-132.1-39.7l0.9-74.2l-67.2-5.1c0,0,5.4,38.4,6.1,58.2c1.2,28.3,14.7,68,24,76.3
	c9.1,8.5,172,17.6,172,17.6L722.3,590.9z"/>
<path class="st15" d="M722.3,590.9l-132.1-39.7l0.9-74.2 M523.9,471.8c0,0,5.4,38.4,6.1,58.2c1.2,28.3,14.7,68,24,76.3
	c9.1,8.5,172,17.6,172,17.6"/>
<path class="st7" d="M803,616c1.9-0.1,3.6-7.3,3.6-7.3s4,1.2,5.7-2.7c1-2.5-3.3-14-3.3-14l-8.5-16.2c-2.2-4.2-6.2-7.1-11-8
	l-22.8-4.5c0,0-5.5,0.3-7,2.5c0,0-8-2.4-10.3,1.9c-2.1,4.3-0.4,3-0.4,3l-28,21.7l3.4,30.8c0,0,16.4,7.7,23.5,0.3
	c7.3-7.4,26.6-17.9,26.6-17.9l14.1,3.4c0,0-0.7,6,2.2,7.1c0.4,0.2,0.8,0.3,1.2,0.4c2.1,0.3,4.2-0.7,5.2-2.5
	C797.3,614.2,801,616.2,803,616z"/>
<path class="st5" d="M750.1,588.6c0,0.1,3,0.1,7.9,0.7c4.9,0.6,11.6,1.9,18.6,4.9c3.4,1.5,6.5,3.1,9.4,4.9c2.5,1.8,5.4,3.3,6.1,5.4
	c0.4,1,0.2,2.1-0.4,2.8c-0.6,0.6-1.2,1-1.8,1.3c-1.3,0.3-2.1,0-2.1,0.1c-0.1,0,0.6,0.6,2.2,0.3c0.6-0.1,1.5-0.4,2.2-1.3
	c0.7-0.7,1.3-2.2,0.9-3.6c-0.4-1.3-1.5-2.5-2.7-3.4c-1.2-0.9-2.4-1.8-3.9-2.8c-2.7-1.8-6-3.6-9.5-5.1c-7-3-14-4.3-18.9-4.6
	C753.1,588,750,588.3,750.1,588.6z"/>
<path class="st5" d="M747.3,603.1c0,0.4,9.4,0.9,20.8,2.4c11.5,1.5,20.7,3.7,20.7,3.3c0.2-0.1-2.1-1-5.8-1.9
	c-3.7-0.9-8.9-2.1-14.7-2.8c-5.7-0.7-11-1-14.7-1.2C749.7,602.8,747.3,602.9,747.3,603.1z"/>
<path class="st5" d="M797.3,613.6c0.1-0.1,0.2-0.9,0.4-2.5c0.1-1.5,0.4-3.9,0.6-6.7c0-1.5-0.1-3-0.3-4.8c-0.3-1.6-0.9-3.4-1.9-5.1
	c-1.8-3.4-4.5-6.8-7.9-9.5c-3.6-2.7-7-5.1-10.6-6.4c-3.6-1.5-7-1.9-9.8-2.4c-2.8-0.3-5.2-0.4-6.8-0.4c-1.5-0.1-2.4,0-2.4,0
	c0,0.3,3.4,0.6,9.1,1.5c2.7,0.4,6,1.2,9.4,2.5c3.4,1.3,6.8,3.7,10.3,6.2c3.3,2.7,5.8,5.9,7.6,9.1c2.1,3.1,2.2,6.4,2.4,9.2
	C797.3,610.1,797,613.6,797.3,613.6z"/>
<path class="st5" d="M767.3,569.3c0,0.2,3.4,0.6,8.9,1.6c5.2,1.2,13.7,2.2,17.9,10c4.8,7,8.6,13.5,10.3,18.9
	c1.6,5.2,1.2,8.8,1.5,8.8c0.1,0,0.3-0.9,0.3-2.4c0.2-1.6-0.1-4-0.7-6.7c-1.3-5.5-5.4-12.3-10.1-19.5c-1.2-1.8-2.5-3.4-4-4.9
	c-1.6-1.3-3.6-2.2-5.2-3c-3.6-1.2-7-1.8-9.7-2.2C770.8,569.1,767.3,569.1,767.3,569.3z"/>
<path class="st5" d="M753.4,619.1c0,0,0.4-0.3,1.3-1c1.1-0.7,2.5-1.6,4.2-2.7c3.6-2.4,8.9-5.8,15.9-9.2h-0.3c4.2,1,8.9,2.2,14,3.6
	l-0.4-0.7c-0.1,1.2-0.1,2.4,0,3.6c0.2,1.2,0.4,2.4,1.3,3.6c0.4,0.4,1.2,0.9,1.8,0.9c0.7,0.3,1.3,0.4,2.1,0.3c1.3,0,2.7-0.6,3.7-1.6
	c0.2-0.3,0.4-0.5,0.6-0.7l0.1-0.3l0.1-0.1c0.1,0-1.6,0.4-0.9,0.3h0.1l0.4,0.1c0.5,0.3,1.1,0.6,1.8,0.9c0.6,0.2,1.2,0.4,1.8,0.6
	c0.4,0.1,0.7,0.1,1,0.1c0.4,0,0.9,0.1,1.3-0.1c0.9-0.4,1.2-1.2,1.6-1.8c0.3-0.6,0.6-1.2,0.9-1.9c0.5-1.3,0.9-2.6,1.2-3.9l-0.9,0.4
	c1.8,0.4,4,0.3,5.5-1.3c0.6-0.7,1.2-1.6,1.2-2.8c0-1-0.2-1.9-0.3-2.8c-0.7-3.6-1.9-7-3.1-10.6h-0.2c-1.3-2.8-3-5.7-4.5-8.6
	c-1-1.9-2-3.7-3-5.5c-0.9-1.8-1.8-3.7-3.1-5.4c-1.3-1.5-3.1-2.8-4.9-3.7c-1.9-1-4-1.3-5.8-1.8c-7.6-1.3-14.7-2.8-21.4-4h-0.2h-0.1
	c-1.3,0.1-2.6,0.3-3.9,0.6c-1.2,0.4-2.5,0.9-3.4,2.1l0.7-0.2c-2.2-1.2-5.1-1.5-7.4-0.1c-2.2,1.2-3.3,3.4-4,5.5l0.2-0.3
	c-8,6.2-14.6,11.3-19.3,14.9c-2.2,1.7-3.9,3.1-5.2,4.2c-1.2,0.9-1.8,1.4-1.8,1.5c0.1,0,0.7-0.4,1.9-1.3c1.4-0.9,3.2-2.2,5.5-3.9
	c4.8-3.4,11.5-8.3,19.6-14.4l0.1-0.1v-0.1c0.6-1.8,1.8-3.9,3.6-4.8c1.8-1,4.3-0.9,6.2,0.1l0.6,0.3l0.3-0.4c0.4-0.7,1.6-1.2,2.8-1.5
	c1-0.4,2.4-0.6,3.6-0.7h-0.1c6.7,1.3,13.8,2.8,21.4,4.3c1.9,0.3,3.7,0.6,5.5,1.5c1.6,0.9,3.1,2.1,4.3,3.6c1.3,1.3,2.1,3.3,3.1,5.1
	c0.9,1.8,1.8,3.6,2.8,5.4c1.6,3,3.1,6,4.6,8.6h-0.2c1.3,3.4,2.4,6.8,3.1,10.3c0.1,0.9,0.3,1.8,0.3,2.5c0,0.6-0.3,1.3-0.9,1.8
	c-0.9,1.2-2.5,1.3-3.9,1l-0.7-0.1l-0.1,0.7c-0.3,1.2-0.7,2.5-1.2,3.7c-0.4,1.2-1,2.5-1.8,3c0,0-0.3,0.1-0.6,0c-0.2,0-0.4,0-0.7-0.1
	c-0.6-0.1-1.2-0.3-1.8-0.6c-0.6-0.2-1.2-0.4-1.8-0.7l-0.3-0.2h-0.1c0.9-0.3-1,0.3-0.7,0.2l-0.1,0.1l-0.1,0.1
	c-0.1,0.3-0.2,0.5-0.4,0.7c-0.9,0.7-1.9,1.2-3,1.3c-0.5,0-1-0.1-1.5-0.3c-0.6,0-0.9-0.3-1.3-0.6c-1.2-1.5-1.2-4-1-6.1v-0.4l-0.4-0.1
	c-5.2-1.2-9.8-2.4-14.1-3.4h-0.1l-0.1,0.1c-7,3.6-12.2,7.1-15.8,9.7c-1.8,1.3-3.1,2.3-4,3C753.7,618.6,753.3,619,753.4,619.1z"/>
<path class="st6" d="M745.4,641.9l-66.7,90.2l228.1,0.4c0,0,63.4-4.2,100.4-35.3c12.5-10.6,44.8-56.2,31.4-79.6
	c-10.4-18-43.4-34.5-94-18.2c-29.2,9.4-122.6,38.7-122.6,38.7L745.4,641.9z"/>
<path class="st9" d="M804,728.5l69.2,3.7c20.2-0.7,40.6-2.5,59.8-8.6c9.8-3.1,19.6-7.6,26.5-15.3c5.8-6.7,8.8-15.2,11.8-23.5
	c2.5-7,4.9-15.6,0.3-21.6c-3-4-8.5-5.7-13.5-6.1c-6.4-0.7-12.9-0.3-19.2,1.3c-6.5,1.6-12.6,4.5-18.7,6.8
	c-35.3,14.4-74.1,19.8-111.9,15.3L804,728.5z"/>
<path class="st5" d="M941.9,658.4c-0.1,0-0.4,0.6-1,1.9c-0.6,1.2-1.3,3.1-1.9,5.5c-1,4.8-1.5,11.8,0.9,19
	c2.2,7.3,6.7,12.8,10.4,16.1c1.9,1.6,3.6,2.7,4.8,3.4c1.2,0.7,1.9,1,1.9,0.9c0.2-0.3-2.5-1.8-6-5.1c-3.4-3.3-7.6-8.8-9.8-15.8
	c-2.2-7-2.1-13.7-1.2-18.4C940.9,661.2,942.1,658.6,941.9,658.4z"/>
<path class="st6" d="M593.9,692.9l0.9,4.6c0,0,8.8,19.8,18,34.2c0,0,50.4,0.9,77.5,0.9c27.1,0,37.2,0,37.2,0h67.7
	c0,0,22.9-13.7,28-27.7c5.1-13.8-12.6-45.4-12.6-45.4s-93.9-51.5-111-58.6c-17.3-7.3-42.4-28-75.9-17.3
	c-33.3,10.9-34.2,33.5-39.7,48.8C578.6,647.8,593.9,689.4,593.9,692.9z"/>
<path class="st5" d="M642.1,712.3c0,0,0.1,0.6,0.7,1.3c0.7,0.9,1.8,1.9,3.4,3.1c3.3,2.4,8.3,5.4,14.9,8.3c3.3,1.5,7,3.1,11,4.3
	c4,1.3,8.5,2.2,13.2,2.8c9.4,1.3,19.9,1,30.8,1.2c21.9,0.4,41.7,1.2,55.9,1c7.1,0,12.9-0.3,17-0.7c2-0.2,3.5-0.4,4.6-0.6
	c1-0.2,1.5-0.3,1.5-0.4c0-0.1-2.1,0.3-6.1,0.4c-4,0.3-9.8,0.4-17,0.3c-14.3,0-34.1-1-55.9-1.3c-10.9-0.1-21.3,0.1-30.6-1.2
	c-4.6-0.6-9.1-1.5-13.1-2.7c-4-1.2-7.6-2.7-10.9-4c-6.5-2.8-11.6-5.7-14.9-7.9c-1.8-1-2.8-2.1-3.6-2.8S642.3,712.3,642.1,712.3z"/>
<path class="st5" d="M795.2,732.6c0,0,0.6-0.1,1.5-0.7c0.9-0.5,2.2-1.3,3.9-2.4c3.3-2.2,8.3-5.7,13.8-11c2.7-2.7,5.5-5.8,7.7-10
	c2.4-4.3,2.5-9.7,1.6-15c-1.9-10.7-6.7-22.2-12.8-34.2v-0.1h-0.1c-17.3-9.5-36.9-20.2-58.5-31.8c-10.9-5.8-22-11.8-33.6-17.9
	c-6-3-11.8-6-18-8.8c-6.1-2.7-12.1-6.1-18.2-9.2c-8.8-4.5-17.7-8.3-27.2-10.1c-4.6-1-9.4-1.3-14.1-1.3c-4.6,0.3-9.2,0.7-13.7,1.9
	c-8.8,2.4-17.1,6.1-24.1,11.6c-3.3,2.7-6.2,6-8.6,9.4c-2.4,3.6-4.2,7.3-5.7,11.2c-1.5,3.7-2.5,7.6-3.6,11.3c-1,3.9-2.5,7.3-3.1,11.2
	c-0.7,7.6,0.6,14.9,1.8,21.4c1.3,6.7,3.1,12.9,4.8,18.7c0.8,3,1.6,5.8,2.4,8.5c0.7,2.7,1.6,5.4,2.1,7.7v0.1c0.4,1.6,0.6,3.1,0.9,4.5
	v0.1c3.9,11.8,8.5,20.5,12.1,26c3.7,5.7,6.4,8,6.4,8s-0.1-0.2-0.3-0.4c-0.3-0.4-0.7-0.9-1.3-1.6c-1-1.3-2.5-3.3-4.3-6.1
	c-3.6-5.7-8-14.4-11.6-26.2c-1.8-1.3-1.5-2.8-0.9-4.5c-0.4-2.7-1.3-5.2-2.1-8c-0.8-2.7-1.6-5.5-2.4-8.3c-1.6-5.8-3.3-12.1-4.5-18.7
	c-1.3-6.7-2.5-13.8-1.8-21.1c0.6-3.6,2.1-7.1,3.1-10.9c1-3.7,2.1-7.6,3.6-11.3c1.5-3.7,3.3-7.4,5.5-10.9c2.4-3.3,5.2-6.4,8.5-9.1
	c6.7-5.4,14.9-8.9,23.5-11.2c4.3-1.2,8.9-1.8,13.5-1.9c4.5,0,9.2,0.3,13.7,1.2c9.2,1.8,18.2,5.7,26.8,10.1
	c6.1,3.1,12.1,6.5,18.3,9.2c6.1,2.7,12.1,5.8,17.9,8.8c11.6,5.9,22.9,12,33.6,17.7c21.6,11.6,41.4,22.3,58.6,31.5l-0.1-0.1
	c6.1,11.9,10.9,23.4,12.6,33.8c1,5.2,0.9,10.4-1.3,14.4c-2.1,4-4.9,7.3-7.4,10c-5.5,5.4-10.3,8.9-13.5,11.2c-1.7,1.1-3,1.9-3.9,2.5
	C795.7,732.3,795.2,732.6,795.2,732.6z"/>
<path class="st9" d="M624.4,693.8c0,0-31.2,3.7-28.4,19c2.8,15.3,12.9,20.4,12.9,20.4l85,0.1C693.9,733.4,643.2,730,624.4,693.8z"/>
<path class="st5" d="M621.5,686.4c-0.2,0,0,1.6,0.9,4.3c0.9,2.5,2.5,6.1,5.1,9.5c5.4,6.7,11.9,9.4,12.1,9.1c0.3-0.4-5.8-3.6-10.9-10
	C623.7,692.8,621.9,686.2,621.5,686.4z"/>
<path class="st5" d="M632.3,692.3c-0.4,0,0,5.4,3,10.9c2.8,5.7,6.5,9.4,6.8,9.1c0.3-0.3-2.7-4.3-5.5-9.7
	C633.8,697.1,632.8,692.3,632.3,692.3z"/>
<path class="st5" d="M592.4,728.9c0.1,0-1.8-4-4.3-10.6c-2.4-6.5-5.1-15.9-6.2-26.5c-1.3-10.6-0.7-20.4,0.1-27.2
	c0.9-7,1.9-11.2,1.8-11.3c-0.1,0-0.4,1-1,3c-0.6,1.8-1.2,4.6-1.8,8.2c-1.2,6.8-1.8,16.8-0.6,27.5c1.2,10.9,4.2,20.2,6.8,26.8
	c1.3,3.3,2.5,5.8,3.6,7.6C591.7,728,592.3,729.1,592.4,728.9z"/>
<path class="st5" d="M817.1,651.6c0.1,0.4,7-2.1,15-5.7c8.2-3.6,14.7-6.7,14.6-7.1c-0.1-0.3-7,2.2-15.2,5.8
	C823.5,648.1,816.9,651.3,817.1,651.6z"/>
<path class="st16" d="M981.9,511.6l-142.5,1.2c-3.7,0-7.1,2.2-8.6,5.8l-45.7,109.6l-29.3,2.1l18.7,10.1l148.6-1.9
	c5.2,0,9.8-3.1,11.9-7.7l51-112.8C987.4,515,985.2,511.6,981.9,511.6z"/>
<path class="st11" d="M986.1,518c0,0,0.3-0.4,0.4-1.3c0.1-0.9,0-2.5-1.5-4c-0.6-0.6-1.6-1.2-2.8-1.2c-1.2,0-2.4,0-3.7,0
	c-2.7,0-5.8,0-9.4,0c-14.1,0-34.4,0.2-59.7,0.2c-12.6,0.1-26.5,0.1-41.5,0.3c-7.4,0-15.1,0-23.1,0.1c-2.1,0-4.1,0-6.1,0
	c-2.2,0.1-4.3,1-6,2.5c-1.8,1.3-2.7,3.6-3.4,5.5c-0.8,1.9-1.6,3.8-2.5,5.8c-12.9,31.1-27.4,65.6-42.5,102.1l0.7-0.6
	c-9.1,0.7-18.6,1.3-28.4,2.1c-0.3,0-0.6,0-1,0.1l-2.8,0.1l2.5,1.3c6.5,3.4,12.8,6.8,18.7,10.1l0.3,0.2h0.1
	c40.2-0.6,78.3-1.2,112.8-1.6c8.6-0.1,17-0.2,25.1-0.3c4.2-0.1,8-0.1,12.2-0.3c4-0.4,7.9-2.8,10-6.2c6.7-14,12.2-26.9,17.6-38.7
	c10.6-23.5,19-42.5,25-55.8c2.8-6.5,5.1-11.6,6.7-15.2c0.7-1.6,1.2-2.9,1.6-3.9C985.9,518.4,986.1,518,986.1,518s-0.2,0.4-0.7,1.3
	c-0.4,0.9-1,2.2-1.8,3.9c-1.6,3.4-4,8.5-7,14.9c-6,13.2-14.6,32.1-25.4,55.6c-5.4,11.8-11.2,24.8-17.6,38.4
	c-1.9,3.1-5.4,5.2-9.1,5.7c-3.9,0.2-8,0.2-12.1,0.2c-8.1,0.1-16.5,0.2-25.1,0.3c-34.5,0.4-72.6,0.9-112.8,1.3l0.4,0.1
	c-6.1-3.1-12.3-6.5-18.7-10.1l-0.4,1.6c0.4,0,0.7,0,1-0.2c9.7-0.6,19.3-1.3,28.4-2.1h0.4l0.2-0.4c15.2-36.5,29.6-71,42.5-102.1
	c0.8-2,1.6-3.9,2.4-5.8c0.7-2.1,1.5-3.7,3-5.1c1.5-1.2,3.3-2.1,5.2-2.1c2-0.1,4-0.1,6-0.1c7.9-0.1,15.7-0.1,23.2-0.1
	c14.9-0.1,28.7-0.3,41.4-0.4c25.3-0.3,45.5-0.6,59.7-0.7c3.6-0.1,6.7-0.1,9.4-0.1c1.3,0,2.5,0,3.7,0c1,0,2.1,0.4,2.7,1
	c1.3,1.2,1.5,2.8,1.5,3.7C986.2,517.5,985.9,518,986.1,518z"/>
<path class="st5" d="M789.6,640.3c0,0,0.2-0.4,0.6-1.3c0.5-0.9,1.1-2.1,1.8-3.6c1.5-3.4,3.4-8,6-13.5c4.9-11.5,11.8-27.2,18.9-44.9
	c7.3-17.6,13.7-33.5,18.2-45.2c2.2-5.8,4-10.6,5.2-13.8c0.5-1.5,0.9-2.7,1.2-3.7c0.3-0.9,0.4-1.4,0.4-1.5c-0.1,0-0.3,0.4-0.7,1.3
	c-0.4,1-0.9,2.2-1.5,3.7c-1.3,3.4-3.3,8-5.5,13.7c-4.9,11.8-11.3,27.5-18.6,45.1c-7.1,17.4-13.7,33.3-18.6,44.9
	c-2.2,5.7-4.2,10.3-5.5,13.7c-0.6,1.6-1.1,2.9-1.5,3.9C789.6,639.7,789.5,640.2,789.6,640.3z"/>
<path class="st7" d="M881.8,572.6c0,4,3.3,7.3,7.3,7.3c4,0,7.3-3.3,7.3-7.3c0-4-3.3-7.3-7.3-7.3
	C885.1,565.3,881.8,568.5,881.8,572.6z"/>
<path class="st5" d="M737,391.2c-0.3,0.2,1.8,4.2,4.9,10.9c3,6.5,6.7,16.1,9.7,26.8c3,10.7,4.8,20.8,5.5,28
	c0.9,7.3,1.2,11.9,1.5,11.9c0.1,0,0.1-1.2,0.1-3.3c0-2.1-0.1-5.1-0.4-8.6c-0.6-7.4-2.1-17.6-5.2-28.4c-3-10.9-6.8-20.2-10.3-26.9
	c-1.6-3.3-3-5.8-4-7.6C737.6,392.1,737,391.2,737,391.2z"/>
<path class="st5" d="M512.3,471c0,0.1,0.5,0.2,1.6,0.3c1.2,0.1,2.8,0.2,4.8,0.4c4.3,0.3,10.3,0.9,17.7,1.5
	c15.2,1.2,36.3,2.7,60.4,4.5l0.7,0.1v-0.7c0.6-8,1-16.5,1.6-25.3c0.9-15.2,1.6-29.6,1.8-42.8c0.7-13.2-2.5-25.3-7.7-33.9
	c-5.1-8.6-11.9-13.8-17-16.2c-2.5-1.2-4.5-2.1-5.9-2.4c-1.4-0.4-2.1-0.6-2.2-0.6c0,0.3,3.1,0.9,7.9,3.4c4.9,2.7,11.5,7.7,16.4,16.4
	c4.9,8.5,8,20.2,7.1,33.3c-0.3,13.1-1,27.7-1.9,42.8c-0.4,8.6-1,17.1-1.5,25.1l0.9-0.7c-24.2-1.6-45.2-3-60.6-4
	c-7.4-0.4-13.4-0.7-17.7-1c-2-0.1-3.6-0.1-4.8-0.1C512.8,471,512.3,471,512.3,471z"/>
<path class="st5" d="M660.4,522.4c0.1,0.1,1-0.1,2.7-0.9c0.9-0.3,1.9-0.9,3-1.5c1.2-0.6,2.4-1.3,3.7-2.2c2.8-1.8,5.8-4.3,8.8-7.4
	c2.8-3.1,5.8-7,8.3-11.3c2.4-4.3,4.2-8.8,5.4-12.8c1.2-4.2,1.8-8,1.9-11.3c0.2-1.6,0-3.1,0-4.3c0-1.3-0.1-2.5-0.1-3.4
	c-0.3-1.8-0.4-2.7-0.6-2.7c-0.3,0,0.1,4-0.4,10.3c-0.3,3.3-1,7-2.1,11c-1.3,4-3.1,8.3-5.5,12.5c-2.4,4.2-5.2,7.9-7.9,11
	c-3,3.1-5.8,5.7-8.3,7.4C664,520.6,660.4,522.3,660.4,522.4z"/>
<path class="st1" d="M696.6,165.2c60.6,18.4,32.9,162.6-5.3,162.1c-27.6-0.3-63.3-31.6-63.3-31.6"/>
<path class="st7" d="M786.5,250c0,25.2,14,41.6,14,41.6L792,319l25.2-11.6c0,0,12,11.6,38.3,11.6c38.1,0,69-30.9,69-69
	s-30.9-69-69-69S786.5,211.9,786.5,250z"/>
<path class="st11" d="M830.9,244.1c-3.3,0-5.9,2.6-5.9,5.9c0,3.2,2.6,5.9,5.9,5.9c3.2,0,5.9-2.7,5.9-5.9
	C836.8,246.7,834.1,244.1,830.9,244.1z"/>
<path class="st11" d="M854.5,244.1c-3.3,0-5.9,2.6-5.9,5.9c0,3.2,2.6,5.9,5.9,5.9c3.2,0,5.9-2.7,5.9-5.9
	C860.4,246.7,857.7,244.1,854.5,244.1z"/>
<path class="st11" d="M876,244.9c-2.9,1.7-3.8,5.2-2.2,8.1c1.6,2.8,5.2,3.8,8.1,2.1c2.8-1.6,3.8-5.2,2.1-8
	C882.4,244.2,878.8,243.3,876,244.9z"/>
<path class="st5" d="M856,181.2c0.8,0.1,2,0.1,3.5,0.3c0.8,0,1.6,0.1,2.5,0.2c1,0.2,2,0.3,3,0.5c1.1,0.2,2.3,0.4,3.6,0.6
	c1.2,0.3,2.6,0.7,4,1.1c5.6,1.5,12.4,4,19.2,8.6c6.9,4.6,14,11,19.8,19.7c5.7,8.6,10,19.5,11.1,31.6c0.1,3,0.5,6.2,0.2,9.3
	c-0.1,1.6-0.1,3.2-0.3,4.7c-0.2,1.6-0.5,3.2-0.8,4.8c-1.3,6.3-3.2,12.8-6.5,18.8c-3.2,6.1-7.3,11.8-12.3,17
	c-5.2,5-11.1,9.4-17.7,12.7c-6.7,3.4-14,5.7-21.6,6.7c-1.9,0.3-3.9,0.3-5.8,0.4c-1.9,0.2-3.8,0.3-5.8,0.2c-3.9-0.2-7.8-0.7-11.6-1.5
	c-8.4-1.8-16.3-5.1-23.2-9.8l-0.3-0.2l-0.3,0.2c-8.3,3.3-16.3,6.6-24.2,9.7l1,0.9c2.4-8.9,4.8-17.5,7.1-25.9l0.1-0.3l-0.3-0.3
	c-6.7-8.9-10.9-18.9-12.7-28.9c-0.8-5-1.3-10-0.9-14.8c0.1-2.4,0.2-4.8,0.6-7.1c0.2-1.2,0.4-2.4,0.6-3.5c0.2-1.1,0.5-2.2,0.8-3.4
	c4.6-17.9,15.4-31.1,26.3-38.9c10.9-7.9,21.6-10.8,28.7-12.1c1.9-0.3,3.4-0.7,4.8-0.8c1.4-0.1,2.5-0.2,3.5-0.3
	c0.9-0.1,1.6-0.1,2.1-0.2c0.5-0.1,0.8-0.1,0.8-0.1s-0.3,0-0.8,0c-0.5,0-1.2,0-2.1,0c-1,0.1-2.2,0.1-3.5,0.2c-1.4,0.1-3,0.3-4.9,0.6
	c-0.9,0.2-1.9,0.3-2.9,0.4c-1,0.3-2.1,0.5-3.1,0.8c-1.1,0.3-2.3,0.6-3.5,0.9c-1.2,0.4-2.4,0.8-3.6,1.3c-5,1.8-10.5,4.6-16,8.5
	c-11.1,7.7-22.4,21.1-27,39.3c-0.3,1.1-0.7,2.3-0.8,3.4c-0.2,1.2-0.4,2.4-0.6,3.5c-0.4,2.4-0.5,4.8-0.7,7.3
	c-0.3,4.9,0.1,10,0.9,15.1c1.9,10.2,6.2,20.5,12.9,29.5l-0.1-0.6c-2.3,8.3-4.7,16.9-7.1,25.8l-0.4,1.5l1.4-0.6
	c7.9-3.1,15.9-6.4,24.1-9.7l-0.7-0.1c7.1,4.6,15.2,8.2,23.7,10c4,0.8,7.9,1.3,12,1.5c1.9,0.1,4,0,5.9-0.1c2-0.2,4-0.2,5.9-0.5
	c7.8-0.9,15.4-3.3,22.1-6.7c6.8-3.5,12.9-7.9,18.2-13.1c5.1-5.2,9.3-11,12.6-17.3c3.3-6.2,5.2-12.7,6.6-19.2
	c0.2-1.6,0.5-3.3,0.7-4.9c0.3-1.6,0.3-3.2,0.3-4.8c0.3-3.2-0.1-6.3-0.2-9.4c-1.2-12.4-5.7-23.4-11.5-32.2
	c-6-8.8-13.3-15.2-20.3-19.7c-7-4.6-13.9-7.1-19.6-8.5c-1.4-0.4-2.8-0.7-4.1-1c-1.3-0.2-2.5-0.4-3.6-0.5c-1.1-0.2-2.1-0.3-3-0.5
	c-1-0.1-1.9-0.1-2.6-0.1c-1.5-0.1-2.6-0.1-3.5-0.1c-0.8,0-1.2,0-1.2,0C854.9,181.1,855.3,181.1,856,181.2z"/>
<path class="st17" d="M1042.8,263.1V474c0,31.5,25.6,57.1,57.2,57.1h259.2c31.6,0,57.1-25.6,57.1-57.1v-62.7l55.9-55.9h-55.9v-92.3
	c0-31.5-25.5-57.1-57.1-57.1h-259.2C1068.4,206,1042.8,231.6,1042.8,263.1z"/>
<path class="st11" d="M1205.8,215.8c1.6,4.3-1.2,8.8-4.4,12.2c-3.2,3.3-7,6.4-8,10.8c-0.8,3.7,0.6,7.6,0.2,11.4
	c-0.4,3.9-2.5,7.4-3.6,11.1c-2.2,6.7-1.3,14.1,0.7,20.9c1.5,5.6,3.9,11.1,7.8,15.4c3.8,4.3,9.4,7.4,15.2,7.3
	c1.6-0.1,3.4-0.4,4.5-1.7c0.9-1.1,1.1-2.5,1.2-4c3.3-29.1,3.3-58.7,0.1-87.8"/>
<path class="st11" d="M1208.9,309.9c-12.6-0.6-24.3,11.5-23.3,24.1c-12.8,3.1-21.8,17.2-19.3,30.1c0.8,4.3,2.7,8.3,3,12.7
	c0.3,4.7-1.4,9.3-2.3,13.9c-1.7,8.4-0.7,17.2,2.5,25.1c2,4.9,5.7,9.8,10.9,9.9c3.6,0.1,6.8-2.2,8.8-5.1c2-2.9,2.8-6.4,3.5-9.9
	c2.2-11.4,3-23,6.1-34.1c3.1-11.1,9.1-22,19.2-27.7c5.5-3.2,12.2-4.6,16.6-9.2c4.6-4.9,5.7-12.5,3.3-18.7c-2.4-6.2-7.9-11-14.2-13.3
	"/>
<path class="st11" d="M1296.2,226.2c0.1-5.4-4.8-9.5-9.8-11.5c-5.1-2-10.7-2.7-15.1-5.7c-4-2.6-6.7-6.8-10-10.2
	c-8.2-8.3-21-11.7-32.3-8.7c-11.3,3.1-20.6,12.6-23.5,23.9c-1.9,7.7-0.6,16.7,5.4,21.9c7,5.9,17.5,4.6,26.5,2.8
	c9-1.9,19.1-3.7,26.7,1.6c4.5,3.2,7.1,8.4,9.9,13.2c2.8,4.8,6.2,9.7,11.5,11.5c5.2,1.7,12.3-1.4,12.5-6.9"/>
<path class="st7" d="M1227.1,215.1c-15.3-1.7-25.5,17.2-26.5,32.6c-1.1,17-1.8,38,0.2,50.7c4,25.7,23.6,28.9,23.6,28.9
	c0-0.1,0,8.5,0.3,31.3c0.2,13.7,0.7,21.3,16.2,21.7c15.4,0.4,36.5-7.7,36.7-22.1l5.4-121.7c0.1-4.7-3.4-8.6-8.1-9.1L1227.1,215.1z"
	/>
<path class="st11" d="M1205,263.8c-0.1,1.7,1.4,3.2,3.2,3.3c1.8,0.1,3.3-1.2,3.3-3c0.1-1.7-1.3-3.3-3.1-3.3
	C1206.6,260.7,1205,262.1,1205,263.8z"/>
<path class="st11" d="M1205,258.6c0.4,0.4,2.9-1.4,6.5-1.4c3.6-0.1,6.2,1.7,6.5,1.3c0.2-0.1-0.2-0.9-1.4-1.7c-1.1-0.9-3-1.7-5.2-1.7
	c-2.2,0-4.1,0.9-5.1,1.7C1205.3,257.6,1204.8,258.4,1205,258.6z"/>
<path class="st11" d="M1239,263.8c-0.1,1.7,1.4,3.2,3.2,3.3c1.8,0.1,3.3-1.2,3.3-3c0.1-1.7-1.3-3.3-3.1-3.3
	C1240.6,260.7,1239.1,262.1,1239,263.8z"/>
<path class="st11" d="M1239.9,259.3c0.4,0.4,2.9-1.4,6.5-1.4c3.6-0.1,6.1,1.8,6.5,1.4c0.1-0.2-0.2-1-1.4-1.8c-1.1-0.9-3-1.7-5.2-1.7
	c-2.2,0.1-4.1,0.9-5.2,1.7C1240,258.4,1239.6,259.1,1239.9,259.3z"/>
<path class="st11" d="M1227,285.5c0-0.2-2.2-0.6-5.7-1.1c-0.9-0.1-1.7-0.3-2-0.9c-0.1-0.7,0.2-1.7,0.7-2.7c0.9-2.2,1.8-4.5,2.7-6.9
	c3.7-9.8,6.5-17.8,6-18c-0.4-0.1-3.7,7.7-7.5,17.5c-0.9,2.4-1.7,4.7-2.5,6.9c-0.4,1-0.9,2.2-0.5,3.6c0.2,0.7,0.9,1.2,1.5,1.3
	c0.6,0.2,1.1,0.2,1.5,0.2C1224.7,285.7,1227,285.7,1227,285.5z"/>
<path class="st11" d="M1241.1,326.9c12.1-2.7,17.5-11.9,17.5-11.9c-17.1,10.2-34.2,12.3-34.2,12.3S1229,329.6,1241.1,326.9z"/>
<path class="st11" d="M1237.4,288c-0.6-0.1-0.7,3.8-3.9,6.5c-3.3,2.7-7.4,2.2-7.4,2.8c-0.1,0.2,0.9,0.7,2.6,0.8s4.2-0.5,6.2-2.2
	c2-1.7,2.8-3.9,3-5.4C1238,288.9,1237.6,287.9,1237.4,288z"/>
<path class="st11" d="M1238.3,253.1c0.4,1,3.9,0.6,8.1,1.1c4.1,0.4,7.5,1.6,8,0.7c0.3-0.4-0.3-1.3-1.7-2.2c-1.4-0.9-3.5-1.8-5.9-2.1
	c-2.5-0.2-4.8,0.1-6.3,0.7C1238.9,251.9,1238.1,252.6,1238.3,253.1z"/>
<path class="st11" d="M1206.4,248.4c0.7,0.8,3.1-0.1,6-0.1c3-0.1,5.4,0.5,6-0.3c0.2-0.4-0.1-1.2-1.2-2c-1.1-0.8-2.9-1.4-4.9-1.4
	c-2,0.1-3.8,0.8-4.8,1.6C1206.4,247.1,1206.1,247.9,1206.4,248.4z"/>
<path class="st11" d="M1291.5,244.1c0.2-4.8,0.4-9.9-2.2-13.8c-2.5-3.7-6.9-5.6-11-7.2c-18.1-6.7-36.9-11.3-56.1-13.6
	c-2.3,4-0.1,9.3,3.6,12.1c3.6,2.8,8.2,3.9,12.5,5.4c4.3,1.6,8.8,4,10.6,8.2c1.9,4.5,0.4,9.9,2.1,14.4c2.9,7.8,13.9,10.3,16.8,18.1
	c2.2,6-1.2,12.4-2,18.7c-0.9,7.1,1.8,14.6,7,19.5c5.3,4.9,13,7.1,20,5.7C1294,288.6,1290.5,267.1,1291.5,244.1z"/>
<path class="st14" d="M1299,304.4c0,0,0.2,0,0.4-0.1c0.3-0.1,0.7-0.3,1.2-0.6c1-0.6,2.3-1.8,3.2-3.8c0.9-2,1.5-4.7,0.9-7.8
	c-0.6-3-2.4-6.2-4.6-9.3c-2.2-3.1-5.2-6.3-7-10.4c-1-2-1.7-4.3-1.7-6.6c0-2.4,0.7-4.7,1.5-7.2c0.8-2.4,1.6-4.9,1.5-7.7
	c-0.1-2.8-0.9-5.5-2.3-8c-1.4-2.4-3.5-4.6-6-6.1c-2.5-1.5-5.5-2.1-8.5-2.4c-2.9-0.3-5.8-0.5-8.4-1.4c-2.7-0.9-4.7-3-5.9-5.4
	c-1.3-2.4-2-5-2.8-7.5c-0.8-2.6-1.7-5.1-2.9-7.3c-2.4-4.6-5.7-8.4-9.6-10.8c-3.9-2.5-8.3-3.5-12.1-3.2c-3.9,0.3-7.3,1.8-9.6,3.9
	c-2.2,2.1-3.6,4.5-4.3,6.6c-0.7,2.1-0.7,3.8-0.6,4.9c0.1,1.2,0.3,1.7,0.3,1.7c0.1-0.1-0.1-0.7-0.1-1.7c-0.1-1.2,0.1-2.8,0.7-4.9
	s2-4.3,4.3-6.3c2.2-2,5.6-3.6,9.4-3.8c3.8-0.2,8,0.8,11.8,3.2c3.8,2.4,7,6.1,9.4,10.6c1.2,2.2,2,4.6,2.8,7.2
	c0.8,2.5,1.5,5.1,2.9,7.7c0.7,1.2,1.5,2.4,2.6,3.4c1,1,2.3,1.7,3.7,2.2c2.8,1.1,5.7,1.2,8.6,1.6c2.9,0.3,5.8,0.8,8.2,2.2
	c2.4,1.4,4.4,3.5,5.7,5.9c1.4,2.3,2.1,4.9,2.2,7.5c0.1,2.6-0.7,5.1-1.5,7.5c-0.8,2.5-1.6,4.9-1.5,7.4c0.1,2.5,0.8,4.8,1.8,6.9
	c2,4.1,4.9,7.3,7.2,10.4c2.2,3,4.1,6.2,4.6,9.1c0.7,2.9,0.1,5.6-0.7,7.5c-0.9,2-2.1,3.2-3,3.8C1299.6,304.2,1299,304.4,1299,304.4z"
	/>
<path class="st14" d="M1224.5,192.6c-0.1,0-0.4,0.1-1,0.4c-0.7,0.2-1.5,0.7-2.5,1.4c-1.9,1.4-4.1,4.3-4.6,8c-0.6,3.7,0.7,7,2.1,9
	c0.7,1,1.4,1.7,1.9,2.1c0.6,0.4,0.9,0.7,0.9,0.6c0.1-0.1-1.1-1-2.2-3c-1.2-2-2.4-5.1-1.9-8.6c0.6-3.5,2.5-6.2,4.3-7.7
	C1223.1,193.3,1224.5,192.8,1224.5,192.6z"/>
<path class="st14" d="M1167.6,368.6c0.1-0.1-0.4-0.9-0.7-2.8c-0.3-1.7-0.1-4.5,1.2-7.4c1.4-2.9,4.3-5.7,8.1-7.5
	c1.9-0.9,4.1-1.7,6.3-2.2c2.2-0.6,4.6-1,7-1.8c2.4-0.7,4.7-1.8,6.5-3.6c1.8-1.7,2.7-4,3.1-6.2c0.4-2.1,0.5-4.2,0.9-6
	c0.5-1.8,1.4-3.3,2.4-4.6c2-2.5,4.5-3.7,6.2-4.3c1.7-0.5,2.8-0.5,2.8-0.6c0,0-0.2,0-0.7,0c-0.5,0-1.2,0.1-2.1,0.3
	c-1.7,0.5-4.4,1.7-6.5,4.2c-1.1,1.2-2,2.9-2.5,4.8c-0.5,1.9-0.7,4-1.1,6.1c-0.4,2-1.2,4.2-2.9,5.7c-1.6,1.6-3.8,2.6-6.2,3.3
	c-2.3,0.8-4.7,1.2-7,1.9c-2.2,0.6-4.4,1.3-6.4,2.3c-4,2-7,4.9-8.3,7.9c-1.4,3-1.5,5.9-1.1,7.7c0.1,0.9,0.4,1.6,0.7,2
	C1167.5,368.4,1167.6,368.6,1167.6,368.6z"/>
<path class="st11" d="M1279.2,323.1c13.1-3.5,24.2-16.2,28.8-28.8c4.6-12.6,4.6-26.5,3.4-39.9c-0.9-9.6-2.5-19.9-9-27.2
	c-9.7-11-20.2-16.6-35-16.2"/>
<path class="st6" d="M1193.2,500.6l118.2,5.5l-18-159.1l-10.7-2.1h-0.2c2.3-4,2.2-9.1-0.3-15.4c-0.7-1.9-2.6-3-4.6-2.8l-55.3,6.2
	c-4.1,0.5-7.8,3-9.3,6.9c-1.2,3.3-0.4,6.2,2.4,8.4l-12.1,3L1193.2,500.6z"/>
<path class="st5" d="M1220.7,349c0,0.1,0.8,0.2,2.2,0.4c1.4,0.2,3.5,0.4,6.1,0.7c5.1,0.5,12.3,0.8,20.3,0.4c7.9-0.4,15-1.4,20.2-2.5
	c2.5-0.5,4.6-0.9,5.9-1.3c1.4-0.4,2.2-0.7,2.2-0.7c0-0.1-0.8,0.1-2.2,0.4c-1.4,0.3-3.6,0.7-6.1,1.1c-5.1,0.9-12.2,1.8-20.1,2.2
	c-7.9,0.4-15,0.1-20.2-0.2c-2.5-0.2-4.6-0.4-6.1-0.5C1221.5,349,1220.7,348.9,1220.7,349z"/>
<path class="st7" d="M1140.1,448.2l-55-96.5l-6.7-16.7c0,0-17.1-36.8-18.3-40.6c-1.4-4.3-3.8-4.7-5.4-4.1c-2.5,0.9-3.3,4.6-2.2,8.3
	c0.4,1.3,7,21.5,7,21.5s-1.5-1.4-5.7-4.2c-4.3-2.9-12-2.8-19.1-0.2c-7.2,2.5-8.9,3.9-8.1,6.7c0.3,1.2,1.2,1.9,2.2,2.3
	c1.7,0.7,3.6,0.7,5.3,0.1c11.5-3.9,16.7,1.3,16.7,1.3l0.8,2.2c0,0-8.6-2.8-13.6,1.2c-0.8,0.7-1.4,1.4-1.8,2.1c-3,1-5.5,3.6-6.3,6.8
	c-0.7,3.3,0.4,6.9,2.8,9.2c1.2,1.1,3,1.9,4.4,1.1c0.7-0.4,1.2-1.2,1.7-1.9c0.2-0.4,0.5-0.7,0.8-1.1l3.3,5.8c0,0,8.1,12.6,11,18.5
	l37.9,100.8c5.2,14,21,20.9,34.8,15.4C1141.8,480.2,1148.1,462.3,1140.1,448.2z"/>
<path class="st7" d="M1076.9,336c-7.5-1.5-15-3-22.5-4.4c-0.9-0.2-2-0.3-2.5,0.4c-0.6,0.8,0,1.9,0.7,2.6c4.6,5.1,12.8,5.6,17.8,10.4
	c1.6,1.7,2.8,3.7,4.6,5.2c1.7,1.5,4.4,2.4,6.4,1.1"/>
<path class="st5" d="M1076.9,336c0-0.1-0.8-0.4-2.4-0.7c-1.5-0.4-3.8-0.9-6.6-1.5c-2.9-0.6-6.2-1.3-9.8-2.1
	c-0.9-0.2-1.9-0.4-2.8-0.6c-0.9-0.1-2-0.7-3.4,0.1c-0.7,0.4-0.9,1.4-0.7,2c0.1,0.7,0.4,1.2,0.9,1.7c0.7,0.8,1.6,1.6,2.5,2.2
	c3.7,2.5,7.8,3.6,11.1,5.4c1.7,0.8,3.1,1.7,4.3,2.9c1.2,1.1,2,2.4,3,3.5c1.8,2.3,4.3,3.4,5.9,3.3c1.7,0,2.4-0.9,2.4-0.9
	c-0.1-0.1-0.9,0.5-2.4,0.4c-1.5-0.1-3.6-1.2-5.3-3.4c-0.9-1.1-1.7-2.4-3-3.7c-1.2-1.2-2.8-2.3-4.4-3.2c-3.4-1.8-7.5-3-11-5.4
	c-0.9-0.6-1.6-1.3-2.3-2c-0.6-0.7-0.8-1.5-0.4-1.8c0.4-0.3,1.4-0.1,2.5,0.1c1,0.2,1.9,0.4,2.8,0.6c3.6,0.7,7,1.2,9.9,1.8
	c2.8,0.4,5.1,0.9,6.7,1.1C1076,336,1076.9,336,1076.9,336z"/>
<path class="st5" d="M1051.9,327.1c-0.3-0.7-0.8-1.8-2-2.8c-1.1-0.9-2.8-1.7-4.6-1.7c-2-0.1-4,0.4-6,0.9c-2,0.6-4,1.2-5.7,1.4
	c-1.7,0.1-3.4,0-4.6-0.5c-1.2-0.6-1.8-1.5-2-2.2c-0.2-0.7-0.2-1.2-0.3-1.2c0,0-0.1,0.4,0,1.2c0.1,0.7,0.7,2,2.1,2.6
	c1.3,0.7,3,0.9,4.9,0.7c1.9-0.1,3.8-0.7,5.9-1.3s4-1,5.7-0.9c1.8,0,3.3,0.6,4.4,1.4c2.1,1.7,2.5,3.6,2.6,3.5
	C1052.2,328.3,1052.2,327.9,1051.9,327.1z"/>
<path class="st5" d="M1052.9,301.3c0.7,2.5,1.6,6,2.8,9.9c1.2,3.8,2.4,7.2,3.3,9.6c1,2.4,1.7,3.9,1.8,3.8c0.1-0.1-0.4-1.6-1.2-4.1
	c-0.9-2.8-2-6-3.1-9.7c-1.2-3.6-2.2-7-3-9.7c-0.7-2.5-1.2-4.1-1.3-4C1052.1,297.2,1052.4,298.8,1052.9,301.3z"/>
<path class="st5" d="M1047.7,333.9c-0.8-0.1-2.2-0.4-3.6,0.7c-0.7,0.6-0.9,1.7-0.8,2.6c0.1,0.9,0.7,1.9,1,2.8
	c0.4,0.9,0.7,1.9,0.4,2.8c-0.2,0.9-1,1.7-2,2c-2,0.7-4.2-0.7-5.1-2.2c-0.9-1.7-1.3-3.5-1.7-4.9c-0.3-1.5-0.4-2.7-0.3-3.6
	c0.1-0.8,0.3-1.2,0.2-1.3c-0.1,0-0.4,0.4-0.5,1.2c-0.2,0.9-0.2,2.2,0,3.7c0.3,1.5,0.7,3.3,1.6,5.2c0.5,1,1.4,1.7,2.4,2.3
	c1,0.6,2.4,0.8,3.6,0.4c1.2-0.4,2.2-1.4,2.5-2.6c0.4-1.2-0.1-2.4-0.5-3.3c-0.4-0.9-0.9-1.7-1-2.5c-0.2-0.8,0-1.5,0.5-2
	c1-0.9,2.3-0.9,3.1-0.8c0.9,0.1,1.4,0.1,1.4,0.1C1049,334.3,1048.6,334.2,1047.7,333.9z"/>
<path class="st5" d="M1039.5,345.7c-0.1,0.7-0.6,1.7-1.7,2.4c-1.1,0.6-2.8,0.7-4.2-0.1c-1.4-0.8-2.7-2.4-3.3-4.3
	c-0.6-1.9-0.6-3.8-0.1-5.5c0.5-1.6,1.5-2.9,2.4-3.8c1.9-1.8,3.6-2.2,3.6-2.4c0,0-0.4,0-1.2,0.3c-0.7,0.3-1.8,0.7-2.8,1.7
	c-1,0.9-2.1,2.3-2.7,4.1c-0.6,1.8-0.7,3.9,0,6c0.7,2,2,3.8,3.7,4.6c1.7,0.9,3.6,0.8,4.9,0c1.2-0.9,1.7-2.1,1.7-2.8
	c0.1-0.9-0.2-1.2-0.2-1.2C1039.5,344.6,1039.6,345,1039.5,345.7z"/>
<path class="st5" d="M1059.8,353.5c1.2,0,2.9,0.3,4.6,1.4l0.8,0.6l-0.2-0.9c-0.1-0.9-0.3-1.8-0.4-2.8c-0.5-5.4,0.9-9.6,0.7-9.7
	c-0.2-0.1-2,4.2-1.5,9.8c0.1,1,0.2,2,0.4,2.9l0.7-0.4c-1.9-1.2-3.8-1.4-5.1-1.2c-1.3,0.1-2,0.6-2,0.7
	C1057.9,353.7,1058.6,353.5,1059.8,353.5z"/>
<path class="st5" d="M1044.2,321.7c-1.3,1.2-2.8,1.6-2.7,1.8c0,0.2,1.7,0.1,3.3-1.2c1.5-1.4,1.9-3,1.7-3.1
	C1046.1,319.2,1045.6,320.5,1044.2,321.7z"/>
<path class="st7" d="M1214.3,425.8l-0.7-77.5c-16.6,4.3-34.5,7.9-47.1,22.2c-8.2,9.3-8.1,19.1-13.5,37.8
	c-5.3,18.7-12.2,39.6-12.2,39.6s-23.9-41.7-49.2-89.6l-35,30.8c0,0,17.3,62,35.3,100.4c7.7,16.5,20.2,30,38.4,30
	c16.1,0,30.5-9.7,36.6-24.6l3.3-7.9l-9.6,41.7l57.5-0.6L1214.3,425.8z"/>
<path class="st7" d="M1283.8,470.5l-104.7,20.4l-5.1,40.2h160.6c18.6,0.2,33.4-15.6,32-34.1c-2.3-29.3-4.9-65.4-6.7-80.7
	c-1.4-11.9-6.2-24.2-11.8-34.8c-8.1-15.2-35.2-34.8-58.8-35.8l-4.5,99.7"/>
<path class="st9" d="M1214.3,425.8l-0.7-77.5c-16.6,4.3-34.5,7.9-47.1,22.2c-8.2,9.3-8.1,19.1-13.5,37.8
	c-5.3,18.7-12.2,39.6-12.2,39.6s-23.9-41.7-49.2-89.6l-35,30.8c0,0,17.3,62,35.3,100.4c7.7,16.5,20.2,30,38.4,30
	c16.1,0,30.5-9.7,36.6-24.6l3.3-7.9l-9.6,41.7l57.5-0.6L1214.3,425.8z"/>
<path class="st9" d="M1283.8,470.5l-94.4,17.3c-3.9,0.7-7,3.8-7.9,7.7l-7.5,35.6h160.6c18.6,0.2,33.4-15.6,32-34.1
	c-2.3-29.3-4.9-65.4-6.7-80.7c-1.4-11.9-6.2-24.2-11.8-34.8c-8.1-15.2-35.2-34.8-58.8-35.8l-4.5,99.7"/>
<path class="st5" d="M1303.8,467.6c0,0,0.1-0.3,0.1-0.9c0-0.7,0-1.6,0-2.8c0-2.5-0.1-5.9-0.1-10.1c0-8.6,0.1-20.3,0.8-33.3
	c0.4-6.5,0.8-12.7,1.2-18.3c0.4-5.7,0.9-10.7,2.1-14.7c1.2-4.1,3-7.1,4.6-8.8c1.7-1.7,2.8-2.3,2.8-2.4c0,0-1.3,0.5-3,2.2
	c-1.7,1.7-3.7,4.7-4.9,8.8c-1.3,4.1-1.8,9.2-2.3,14.8c-0.5,5.7-0.9,11.8-1.2,18.3c-0.7,13-0.7,24.8-0.6,33.3
	c0.1,4.2,0.1,7.7,0.3,10.1c0,1.1,0.1,2,0.1,2.8C1303.7,467.3,1303.8,467.6,1303.8,467.6z"/>
<path class="st5" d="M1181.1,493.7c0.1,0.1,1.1-1.4,3.8-3c1.4-0.8,3.2-1.5,5.4-2.2c2.2-0.6,4.7-1.1,7.5-1.7
	c11.2-2.2,26.7-5.4,43.8-8.6c17.1-3.2,32.6-5.8,44-7.6c5.6-0.9,10.2-1.6,13.3-2.1c1.5-0.3,2.8-0.5,3.6-0.7c0.8-0.1,1.2-0.2,1.2-0.2
	c0,0-0.4,0-1.2,0.1c-0.9,0.1-2.2,0.3-3.7,0.5c-3.1,0.4-7.7,1-13.3,1.9c-11.3,1.7-26.9,4.2-44,7.4c-17.1,3.2-32.6,6.4-43.7,8.8
	c-2.8,0.6-5.4,1.2-7.5,1.8c-2.2,0.7-4,1.4-5.4,2.2c-1.4,0.9-2.3,1.7-2.9,2.3c-0.3,0.3-0.4,0.6-0.6,0.8
	C1181.2,493.7,1181.1,493.7,1181.1,493.7z"/>
<path class="st5" d="M1303.5,467.6c0,0.1,2,0.6,4.9,1.8c1.4,0.6,3.2,1.4,5.1,2.5c1.8,1.1,3.8,2.4,5.7,4c1.8,1.6,3.5,3.3,4.9,4.9
	c1.4,1.7,2.5,3.2,3.3,4.6c1.7,2.8,2.5,4.6,2.6,4.6c0.1-0.1-0.1-0.5-0.4-1.4c-0.4-0.9-0.9-2-1.7-3.5c-0.8-1.4-1.9-3-3.3-4.7
	c-1.4-1.7-3-3.4-4.9-5c-1.9-1.6-3.9-2.9-5.8-4c-1.9-1.1-3.6-1.9-5.1-2.4c-1.6-0.6-2.8-0.9-3.8-1.1
	C1304,467.6,1303.5,467.6,1303.5,467.6z"/>
<path class="st5" d="M1168.2,492.6c0,0,0.1-0.3,0.2-0.9c0.1-0.7,0.3-1.7,0.5-2.9c0.4-2.5,0.9-6.2,1.5-10.7c1.2-8.9,2.7-21.4,4-35.1
	c1.2-13.8,2-26.2,2.4-35.3c0.1-4.6,0.3-8.2,0.4-10.7c0-1.2,0-2.2,0-3c0-0.6,0-1,0-1c0,0-0.1,0.3-0.1,1c0,0.8-0.1,1.8-0.1,3
	c-0.1,2.6-0.4,6.2-0.7,10.7c-0.5,9.1-1.4,21.5-2.6,35.3c-1.2,13.8-2.6,26.2-3.7,35.1c-0.6,4.5-1,8-1.3,10.7
	c-0.1,1.2-0.3,2.2-0.4,2.9C1168.2,492.3,1168.2,492.6,1168.2,492.6z"/>
<path class="st5" d="M1133.5,477.1c0,0.1,0.3-0.3,0.8-0.9c0.5-0.7,1.2-1.6,2-2.9c1.5-2.5,3.2-6.2,4.2-10.6c1-4.3,1.2-8.5,0.9-11.4
	c-0.1-1.4-0.3-2.6-0.5-3.4c-0.1-0.8-0.2-1.2-0.3-1.2c-0.1,0,0.1,1.8,0.2,4.7c0.1,2.8-0.1,6.9-1.1,11.2c-1,4.3-2.6,8-4,10.5
	C1134.5,475.5,1133.4,477,1133.5,477.1z"/>
<path class="st7" d="M1142.2,558.2c-0.9,2.8,1.5,5.5,4.4,5.1c1.5-0.2,2.8-1.3,3.3-2.8l1.2-4.6l-0.1,0.1c-0.8,2.8,1.9,5.3,4.7,5
	c1.9-0.1,3.6-2.8,4.1-4.3c3.2,0.4,6.2-1.4,7.4-3.5l8.5-13.3l15.8-11.5l-9.6-34l-33.9,21.9c-1.3,1.1-1.5,1.5-3.6,3.5l-21.9,20.1
	c2.5,1.4,4.6,1.4,8,0c3.4-1.4,18.6-11.6,18.6-11.6L1142.2,558.2z"/>
<path class="st5" d="M1171.2,530.1c-0.1,0-0.4,0.2-1,0.7c-0.3,0.2-0.7,0.5-1.2,0.7c-0.4,0.3-0.9,0.7-1.4,1.2c-0.4,0.5-0.9,1.2-1.2,2
	c-0.2,0.8-0.5,1.6-0.8,2.4c-0.6,1.7-1.2,3.5-1.9,5.4c-1.3,3.9-2.4,7.4-3.2,10c-0.8,2.5-1.2,4.1-1.1,4.1c0.1,0.1,0.7-1.4,1.6-4
	c0.9-2.5,2.1-6,3.4-9.9c0.6-1.9,1.2-3.8,1.8-5.5c0.2-0.8,0.5-1.6,0.7-2.4c0.3-0.7,0.6-1.3,1-1.8c0.4-0.5,0.8-0.9,1.2-1.2
	c0.4-0.3,0.7-0.6,1-0.9C1171,530.5,1171.2,530.2,1171.2,530.1z"/>
<path class="st5" d="M1150.8,556.6c0.1,0,0.2-0.4,0.5-1.4c0.3-1.1,0.7-2.4,1.1-3.9c0.9-3.3,2.2-7.8,3.8-12.8c1.6-4.9,3.2-9.3,5.2-12
	c0.9-1.4,2-2.3,2.8-2.8c0.8-0.5,1.3-0.7,1.3-0.7c0,0-0.2,0-0.4,0.1c-0.2,0-0.6,0.2-1,0.4c-0.9,0.4-2,1.3-3,2.7
	c-2.2,2.8-3.9,7.2-5.5,12.2c-1.6,5-2.8,9.6-3.6,12.9c-0.4,1.6-0.7,3-0.9,3.9C1150.9,556.1,1150.8,556.6,1150.8,556.6z"/>
<path class="st5" d="M1142.1,558.7c0,0,0.2-0.6,0.6-1.5c0.3-1.2,0.8-2.6,1.3-4.3c1.2-3.6,2.6-8.5,4.2-14c1.5-5.4,2.9-10.3,4-14.1
	c0.5-1.7,1.5-3,2.3-3.6c0.8-0.6,1.4-0.7,1.4-0.7c0,0-0.1-0.1-0.4,0c-0.3,0.1-0.7,0.2-1.2,0.5c-0.9,0.5-2,1.8-2.6,3.6
	c-1.2,3.6-2.6,8.5-4.2,14c-1.6,5.5-3,10.5-4,14.1c-0.4,1.7-0.8,3.1-1.1,4.3C1142.2,558.1,1142,558.7,1142.1,558.7z"/>
</svg>
