<?xml version="1.0" encoding="utf-8"?>
<!-- Generator: Adobe Illustrator 27.2.0, SVG Export Plug-In . SVG Version: 6.00 Build 0)  -->
<svg version="1.1" id="Слой_1" xmlns="http://www.w3.org/2000/svg" xmlns:xlink="http://www.w3.org/1999/xlink" x="0px" y="0px"
	 viewBox="0 0 333.21 173.25" style="enable-background:new 0 0 333.21 173.25;" xml:space="preserve">
<style type="text/css">
	.st0{fill:#A1A1A1;}
	.st1{fill:#AFAFAF;}
</style>
<g>
	<path class="st0" d="M227.29,166.63c-4.31,0-8.62,0.24-12.87-0.17c-1.08-0.1-2.75-2.27-2.8-3.53
		c-0.88-21.85-22.59-41.55-44.74-41.58c-21.02-0.03-41.39,16.16-45.26,38.7c-0.33,1.93-0.04,3.96-0.04,6.27c-5,0-9.72,0-14.45,0
		c-2.81-23.68,16.73-54.57,50.01-59.4C191.26,101.95,225.43,124.37,227.29,166.63z"/>
	<path class="st1" d="M97.31,154c0,4.3,0,8.22,0,12.39c-32.46,0-64.68,0-97.31,0c0-3.96,0-8,0-12.39C32.23,154,64.58,154,97.31,154z
		"/>
	<path class="st1" d="M333.21,154.01c0,4.26,0,8.19,0,12.37c-32.45,0-64.67,0-97.31,0c0-3.92,0-7.97,0-12.37
		C268.1,154.01,300.44,154.01,333.21,154.01z"/>
	<path class="st1" d="M199.14,166.52c-4.84,0-9.31,0-12.45,0c-3.48-5.02-5.88-10-9.62-13.58c-10.26-9.81-25.14-0.95-27.37,9.23
		c-0.85,3.89-2.44,4.78-5.94,4.53c-3.28-0.24-6.59-0.05-9.89-0.05c0.33-19.08,14.57-33.74,34.62-32.89
		C187.15,134.55,200.3,151.4,199.14,166.52z"/>
	<path class="st1" d="M137.87,103.05c-1.83,1.36-3.49,2.58-5.46,4.05c-16.47-28.51-32.72-56.67-49.27-85.33
		c1.9-1.09,3.63-2.09,5.82-3.36C105.28,46.65,121.47,74.67,137.87,103.05z"/>
	<path class="st1" d="M108.83,129.39c-1.44,2.04-2.55,3.62-3.88,5.5c-18.26-10.65-36.37-21.25-54.53-31.77
		c-9.03-5.23-18.14-10.31-27.19-15.5c-1.6-0.92-3.83-1.49-1.84-4.31c1.57-2.23,2.84-3.1,5.44-1.57c8.71,5.14,17.52,10.1,26.27,15.18
		c14.53,8.43,29.04,16.9,43.55,25.35C100.59,124.55,104.52,126.87,108.83,129.39z"/>
	<path class="st1" d="M244.46,18.38c1.79,1.07,3.4,2.03,5.73,3.42c-16.4,28.47-32.69,56.75-49.12,85.28
		c-2.06-1.38-3.65-2.45-5.63-3.78C211.76,75.03,228,46.89,244.46,18.38z"/>
	<path class="st1" d="M228.14,134.85c-1.03-2.02-1.84-3.61-2.93-5.75c6.63-3.87,13.17-7.74,19.75-11.53
		c20.49-11.81,41.07-23.44,61.4-35.52c3.21-1.91,4.53-0.95,5.96,1.3c1.72,2.69-0.53,3.45-2.43,4.55
		c-23.29,13.47-46.53,27.02-69.81,40.5C236.28,130.6,232.35,132.58,228.14,134.85z"/>
	<path class="st1" d="M169.18,97.49c-1.92,0-3.53,0-5.4,0c0-32.56,0-64.92,0-97.49c1.84,0,3.45,0,5.4,0
		C169.18,32.34,169.18,64.7,169.18,97.49z"/>
</g>
</svg>
