<?xml version="1.0" encoding="UTF-8"?>
<svg id="_Слой_1" data-name="Слой 1" xmlns="http://www.w3.org/2000/svg" viewBox="0 0 500 500">
  <rect width="500" height="500" style="fill: #fff;"/>
  <g>
    <path d="m481.12,249.68c-.77,2.09-1.54,4.18-2.31,6.27-6.01,14.95-16.64,25.08-31.89,30.87-2.93.96-5.24,3.05-6.47,5.95-6.62,14.79-13.4,29.58-20.18,44.38-.31.8-.62,1.77-.77,2.73l.15.16,1.23-.64c4.62-2.73,9.24-5.47,13.86-8.04,4.93-2.57,10.32-4.18,15.87-4.82h1.69c1.69.16,2.77,1.13,2.62,2.73,0,1.13-.31,2.25-.62,3.22-5.39,13.18-15.41,20.9-29.42,23.96-3.85.8-7.86.96-11.71.48-2.93-.48-5.7.64-7.55,3.05-10.32,12.86-20.8,25.73-31.27,38.59-.15.32-.46.64-.62.96l6.78-.8,20.49-2.41c3.08-.16,6.16.48,8.78,2.25-.92,1.93-2.16,3.7-3.85,5.15-6.78,5.63-14.79,9.16-23.26,10.77-6.78,1.13-13.56.8-20.18-.96-3.54-.96-7.39-.32-10.48,1.93-12.63,9.16-26.81,15.6-41.75,19.29-3.85.96-7.7,1.45-11.55,2.25-.15-.64-.31-1.13-.46-1.61.62-.16,1.23-.48,1.85-.64,5.85-1.93,11.55-4.02,17.41-5.79,4.93-1.61,7.86-4.66,8.78-9.65,1.69-8.36,5.39-15.92,10.78-22.35,2.93-3.38,6.01-6.75,9.09-9.81,1.23-.8,2.62-1.61,4.16-1.93.92,1.77,1.08,3.7.62,5.63-3.24,8.36-6.16,16.72-9.24,24.92-.15.32-.31.8-.46,1.45l1.39-.8c11.4-6.75,21.88-14.95,31.27-24.44,1.08-1.29,1.54-3.05,1.39-4.66,0-5.47.62-10.93,1.69-16.24,1.54-7.24,4.16-14.15,7.7-20.58,2.31-3.7,5.24-6.75,8.78-9.16,3.08,11.09,0,21.71-3.08,32.16l.31.16c1.08-1.13,2-2.25,2.77-3.38,9.55-14.95,19.26-30.07,28.81-45.18,1.54-2.25,1.69-5.31.15-7.72-4.47-8.04-6.93-17.2-6.93-26.53s1.23-17.85,3.39-26.53c0-.16,0-.32.15-.48.92-2.57,2.46-2.89,4.47-1.13.62.64,1.23,1.29,1.69,2.09,4.93,8.36,7.39,18.01,6.93,27.82,0,3.05-.31,6.11-.46,9v1.77l.31.16c.62-.96,1.08-2.09,1.54-3.22,3.85-14.79,7.7-29.58,11.71-44.38,1.08-3.38-.31-7.07-3.24-8.84-8.78-6.43-15.56-15.6-19.26-26.05-2.16-5.79-3.7-11.74-4.78-17.69-.31-1.45.15-2.89.92-4.02,2,0,3.85.96,5.08,2.73,6.16,8.84,12.63,17.53,18.95,26.21.77,1.13,1.23,2.41,2,3.7.31.48.77.8,1.23,1.29l.31-.16c-.15-1.77-.15-3.54-.31-5.31-.92-13.02-3.54-25.89-7.55-38.27-1.23-3.7-2.62-7.56-3.85-11.26-1.23-3.7-4.01-5.31-7.39-6.11-3.85-.96-7.7-1.93-11.25-3.22-8.78-3.54-16.33-9.33-22.18-17.04-3.08-3.86-5.55-8.04-8.32-12.06-.15-.32-.31-.64-.46-.8,2.31.48,4.31.64,6.32,1.13,7.55,1.93,14.94,5.15,21.57,9.49,3.54,2.09,7.09,4.34,10.78,6.43-.92-2.09-2-4.18-3.24-6.11-10.01-13.99-20.18-27.98-30.35-41.97-2.46-3.22-5.7-5.63-9.4-7.24-3.08-1.45-6.32-2.57-9.4-4.18-13.56-7.56-21.26-18.97-25.42-33.6h7.24c7.55.48,14.48,4.34,19.1,10.61,4.62,5.63,8.94,11.42,13.4,17.36,10.32,13.51,20.49,27.17,30.66,40.84.15.32.46.48.77.64-.15-1.29-.15-2.41-.31-3.7-.92-8.52-2.31-16.88-2.16-25.56.15-6.75.77-13.51,1.23-20.26.15-1.77.46-3.7.46-5.47.15-1.77.92-3.54,2.31-4.82,2,.64,3.7,2.09,4.78,4.02,4.31,7.07,7.24,14.95,8.94,23.15,1.85,10.45.46,21.22-3.85,30.87-.92,2.25-2.16,4.66-3.39,6.75-1.69,2.73-1.85,6.11-.46,8.84,6.47,14.15,12.94,28.3,19.41,42.45.15.32.31.48.62,1.13.31-3.05.62-5.79.77-8.52.77-7.4,1.39-14.79,2.16-22.35.15-2.09.92-4.02,2.31-5.47.77-1.29,2.46-1.61,3.7-.8h0c1.23.64,2.31,1.45,3.24,2.57,3.39,3.7,5.39,8.36,5.85,13.51.92,10.13-.92,20.26-5.24,29.26-1.85,3.54-4.16,6.75-7.09,9.33-1.39,1.13-2,3.05-1.69,4.82.46,4.5,1.08,9.16,1.54,13.67.31,3.22.46,6.43.46,9.81.15,9.16-.31,18.49-1.54,27.66-.46,3.05-.92,6.11-1.54,9.16,0,.32,0,.64-.15.96l.92-1.13c4.31-5.47,8.32-11.09,12.79-16.56,3.7-4.5,8.47-8.04,13.71-10.13,1.85-.48,3.85-.8,5.85-.64.15.96.46,1.93.62,2.73-.31.48-.31,1.29-.31,1.93Z" style="fill: #58a493;"/>
    <path d="m77.65,155.14h.15c8.47-5.95,18.02-9.81,27.27-14.31,1.08-.48,2.31-1.13,3.39-1.61,2-1.13,4.31-1.29,6.32-.32-.15,1.77-.77,3.54-1.85,5.15-5.24,7.4-11.71,13.83-18.79,19.13-7.09,4.98-15.1,8.2-23.57,9.33-1.69.16-3.24,1.29-4.01,3.05-5.7,13.02-9.55,26.85-11.55,41-.62,4.82-.92,9.65-1.39,14.47v.96c.46-.64.77-.96,1.08-1.45,5.55-7.88,11.09-15.6,16.79-23.47,2.93-4.02,4.47-5.31,9.24-7.88.31,3.05.31,6.11,0,9-1.69,9.33-5.39,18.17-10.48,26.05-3.54,5.31-7.86,9.81-12.94,13.51-2.16,1.29-3.24,3.7-2.77,6.11,1.23,11.09,3.54,22.03,6.93,32.8,1.69,5.47,3.85,10.61,5.85,16.08.15.32.31.64.77.96,0-.32,0-.64.15-.8.15-5.79.46-11.42.62-17.04.31-6.43,2.16-12.7,5.24-18.33.62-1.13,1.08-2.25,1.69-3.38.15-.32.31-.48.46-.8,1.54-2.25,3.7-2.09,4.62.32.62,1.93,1.23,3.86,1.54,5.79,1.85,7.72,2.62,15.6,2.31,23.64-.31,8.52-2.62,16.88-6.78,24.28-.46.8-.92,1.77-1.08,2.73-.46,1.45-.15,3.05.77,4.34l31.12,48.08c.46.48.92.96,1.39,1.29l.31-.32c-.46-1.77-1.08-3.38-1.69-5.15-1.85-5.47-3.24-11.09-3.7-16.72-.15-2.89,0-5.79.31-8.68,0-.64,1.23-1.29,1.85-1.93,3.85,4.18,7.7,7.88,10.01,12.86,4.93,10.13,7.55,21.22,7.7,32.64,0,3.7,1.69,7.07,4.47,9.16,9.71,7.56,19.26,15.11,28.96,22.67.15.16.46.32.77.48l1.69-1.61c-6.93-9.81-11.71-20.26-11.71-32.8,2,1.13,4.01,2.25,5.7,3.7,7.55,7.4,14.02,15.27,17.72,25.24,1.08,2.73,1.69,5.47,2.16,8.36s2.46,5.31,5.08,6.11c5.24,2.09,10.48,4.02,15.56,5.95,2.16.8,4.16,1.77,6.16,2.57v.48c-2-.16-4.01-.32-5.85-.8-16.95-3.38-32.97-10.29-47.29-20.58-3.08-2.25-6.93-3.05-10.63-1.93-16.48,4.18-31.27.32-44.21-10.29-1.39-1.45-2.46-3.05-3.39-4.66,1.85-1.13,4.16-1.77,6.32-1.77,9.24.8,18.49,1.61,27.73,2.41l2,.16-.92-1.13-31.89-39.07c-1.39-1.77-3.7-2.41-5.85-2.09-8.78,1.13-17.56-.64-25.26-4.98-7.7-4.18-13.56-11.09-16.79-19.62-.31-.8-.46-1.61-.62-2.41-.46-1.29.15-2.57,1.39-3.05.31-.16.62-.16,1.08-.16,2.31,0,4.62.16,6.93.64,5.55,1.29,10.78,3.54,15.56,6.59,3.54,1.93,6.93,4.02,10.32,6.11l.77.48c-.15-.48-.31-.8-.46-1.13-6.93-15.44-13.86-30.71-20.8-46.15-1.39-3.22-4.01-5.79-7.24-6.75-17.56-6.43-28.35-18.97-33.58-36.34-.31-1.77-.31-3.54,0-5.31,2.16,0,4.31-.48,6.32.96,3.85,3.05,8.01,5.79,11.86,9,4.93,3.86,8.63,9,12.32,14.15,1.23,1.77,2.46,3.38,3.85,4.82-.15-1.45-.46-2.89-.62-4.34-.77-6.43-1.85-13.02-2.31-19.46-.31-4.66-.31-9.49,0-14.15.15-6.91.62-13.83.92-20.58.15-3.7-1.08-7.24-3.39-9.81-5.08-5.79-8.63-12.86-10.17-20.58-1.54-8.04-.77-16.4,2-24.12.31-.96.92-1.77,1.54-2.41,2.16-2.09,4.47-4.02,6.78-6.11,1.69,3.54,4.16,6.59,4.62,10.45.46,4.18.92,8.52,1.23,12.7.46,4.98.62,10.13.92,15.11,0,.32,0,.48.15.8l.31.16c.77-1.29,1.54-2.57,2.16-3.86,5.7-12.86,11.25-25.89,16.95-38.91.46-.8.77-1.77,1.23-2.57,1.23-2.41,1.08-5.31-.46-7.56-2.46-3.86-4.31-8.04-5.85-12.22-4.31-12.86-3.54-27.01,2-39.23,1.39-3.38,3.24-6.59,4.93-9.81,1.39-2.41,2.46-3.22,5.08-4.66,2,2.41,3.24,5.31,3.54,8.36,1.39,9.81,1.54,19.94.46,29.75-.46,5.63-1.23,11.26-1.69,16.72,0,1.13,0,2.41.31,3.54h.31l.62-.64c8.47-12.22,18.02-23.8,27.27-35.37,4.31-5.31,8.16-11.09,11.55-17.04,4.47-7.88,11.4-12.22,20.03-14.15,3.39-.64,7.09-.96,10.94-.96-1.85,5.95-4.31,11.58-7.24,16.88-3.39,5.79-8.16,10.45-13.86,13.51-2.46,1.29-5.08,2.57-7.55,4.02-4.16,2.41-8.16,4.82-12.17,7.4-4.16,2.57-6.78,6.43-9.55,10.29l-27.73,37.95c-.46.64-.46.96.15,1.61.31.32.62.64.77,1.13l.31-.64Z" style="fill: #58a493;"/>
    <path d="m247.11,341.81c-4.93-.64-9.86-1.29-14.94-1.77-5.55-.16-10.78-1.61-15.56-4.5-4.47-2.73-9.4-2.25-14.17-2.41-14.17-.16-28.35,0-42.52,0h-3.08v-162.72c3.54,4.5,5.55,10.29,5.7,16.24.15,8.68.15,17.53.15,26.21v114.16h173.62v-154.68c0-1.29-.62-2.89,1.23-3.54.92-.48,2.16-.16,2.62.8l.15.16c2,3.22,3.08,7.07,2.93,10.93v152.43h-3.24c-16.02,0-32.2-.16-48.22.16-4.31.16-8.63,1.13-12.63,2.73-6.01,2.25-11.71,4.98-18.18,5.31-.31,0-.62.32-.92.48h-12.94Z" style="fill: #58a493;"/>
    <path d="m243.88,313.83c-6.78-1.45-13.09-2.57-19.41-4.02-14.02-3.38-27.27-.96-40.21,5.79-5.08,2.57-10.48,4.82-16.18,7.56v-121.07c0-7.56,0-14.95.31-22.51.15-2.73.92-5.47,2-8.04.77-1.45,2.16-2.57,3.7-2.89,12.63-2.89,25.26-5.63,38.05-8.04,4.16-.8,8.47-.8,12.63-.16,10.94,1.61,17.1,8.84,18.49,21.06.31,3.05.46,6.11.46,9.16l.15,123.16h0Z" style="fill: #58a493;"/>
    <path d="m327.37,322.84c-3.54-1.29-6.78-2.41-10.01-3.7-8.47-3.38-16.79-7.24-25.42-10.13-13.56-4.5-26.19-1.93-37.59,7.72-.46.32-.92.8-1.39,1.13h-.62c0-.96-.15-1.77-.15-2.73,0-43.09-.15-86.02.15-129.11,0-4.5.77-9,2.31-13.35,2.31-7.88,9.4-13.02,17.1-12.54,9.09.32,18.18,1.13,27.11,2.41,8.78,1.13,17.41,2.89,26.19,4.34.77.16,1.54.32,2.16.64l.15,155.32Z" style="fill: #58a493;"/>
  </g>
</svg>