<?xml version="1.0" encoding="UTF-8"?>
<svg id="_Слой_1" data-name="Слой 1" xmlns="http://www.w3.org/2000/svg" viewBox="0 0 526.86 524.85">
  <defs>
    <style>
      .cls-1 {
        fill: #45af98;
      }
    </style>
  </defs>
  <path class="cls-1" d="M370.21,263.83c5.71-39.75,27.25-73.11,50.79-106.35-28.32-11.07-56.07-10.53-83.92-1.32-27.1,8.97-50,25.02-72.42,45.02-1.28-12.1-2.5-22.38-3.44-32.68-2.08-22.92-11.29-42.51-26.14-60.03-18.09-21.34-41.95-32.76-67.58-41.55-1.16-.4-2.57-.05-4.34-.05-4.2,37.4-17.41,72.08-32.3,107.24,4.91,1.97,9.57,3.65,14.08,5.68,39.36,17.72,60.02,50.23,70.82,90.28,6.04,22.4,8.44,45.17-.2,67.3-3.62,9.29-9.71,17.92-16.06,25.72-3.46,4.25-4.89,7.8-3.97,12.8,1.74,9.5,3.46,19,4.63,25.44,7.01-13.92,13.77-30.97,23.59-46.01,14.29-21.9,35.66-32.73,62.26-33.96,25.51-1.18,47.82,6.1,66.08,23.46,14.3,13.6,23.43,30.8,27.87,50.23.72,3.17,1.11,6.42,1.89,11.02-5.14-8.9-9.2-16.76-14.01-24.12-15.45-23.61-37.74-36.26-65.59-38.2-30.53-2.13-56.64,16.32-67.57,46.72-7.32,20.38-11.27,41.39-11.06,63.13.12,12.45.02,24.9.02,38.28-9.86,0-19.15,0-28.43,0s-18.15,0-27.64,0c1.12-9.52,2.63-18.3,3.09-27.14.83-16.09,1.52-32.23,1.31-48.33-.15-10.73-2.05-21.43-3.01-32.17-.41-4.67-2.35-6.82-7.34-6.52-28.53,1.73-50.23-18.58-60.36-42.65-7.96-18.9-12.6-38.19-13.67-58.52-.6-11.32-1.44-22.64-2.27-35.29,48.17,17.15,80.89,48.22,100,94.27,15.06-34.04,4.8-64.9-12.04-93.91-18.26-31.45-47.69-44.42-84.49-43.61,5.57-12.5,10.68-24.36,16.11-36.06,13.22-28.52,23.78-58.02,29.16-88.95,2.27-13.05.38-26.82.37-40.26,80.68,5.66,138.74,55.34,152.76,115.1,59.17-33.63,118.2-38.46,177.79,1.17-35.17,43.27-70.13,86.51-67.9,146.93-57.58-19.55-112.9-17.99-166.63,16.3,10.43-35.18,20.47-69.08,30.52-102.98.61.15,1.22.31,1.83.46-4.98,25.59-9.96,51.18-15.13,77.72,38.45-21.74,79.6-24.31,122.57-23.63Z"/>
</svg>