<?xml version="1.0" encoding="utf-8"?>
<!-- Generator: Adobe Illustrator 24.1.2, SVG Export Plug-In . SVG Version: 6.00 Build 0)  -->
<svg version="1.1" id="Слой_1" xmlns:svgjs="http://svgjs.com/svgjs"
	 xmlns="http://www.w3.org/2000/svg" xmlns:xlink="http://www.w3.org/1999/xlink" x="0px" y="0px" viewBox="0 0 1000 561.1"
	 style="enable-background:new 0 0 1000 561.1;" xml:space="preserve">
<style type="text/css">
	.st0{fill:#F3EBE9;}
	.st1{fill:#FFFFFF;}
	.st2{fill:#D5D5D5;}
	.st3{fill:none;stroke:#FFFFFF;stroke-width:4;stroke-linecap:round;stroke-linejoin:round;}
	.st4{opacity:0.2;fill:#231F20;enable-background:new    ;}
	.st5{fill:none;stroke:#23211F;stroke-width:4;stroke-linecap:round;stroke-linejoin:round;}
	.st6{fill:#FFC930;}
	.st7{fill:#61CCFF;}
	.st8{fill:#AC704E;}
	.st9{fill:#221F1F;}
	.st10{fill:#3C2C5B;}
	.st11{fill:none;stroke:#231F20;stroke-width:4;stroke-linecap:round;stroke-linejoin:round;}
	.st12{opacity:0.2;enable-background:new    ;}
	.st13{opacity:0.2;fill:#464646;enable-background:new    ;}
</style>
<rect class="st0" width="1000" height="561.1"/>
<g>
	<path class="st1" d="M321.2,136l357.7,1.5c12.1,0,15.4,1.3,15.4,13.3l6.5,17.6v264.1c0,12.1-9.8,21.9-21.9,21.9H321.2
		c-12.1,0-21.9-9.8-21.9-21.9V168.5l5.9-17.6C305.2,138.8,309.1,136,321.2,136z"/>
	<path class="st2" d="M321.2,129h357.7c12.1,0,21.9,9.8,21.9,21.9v17.6H299.3v-17.6C299.3,138.8,309.1,129,321.2,129z"/>
	<path class="st1" d="M330.1,156.1c3.8,0,6.8-3.1,6.8-6.8c0-3.8-3.1-6.8-6.8-6.8c-3.8,0-6.8,3.1-6.8,6.8
		C323.3,153,326.4,156.1,330.1,156.1z"/>
	<path class="st1" d="M352.3,156.1c3.8,0,6.8-3.1,6.8-6.8c0-3.8-3.1-6.8-6.8-6.8c-3.8,0-6.8,3.1-6.8,6.8
		C345.5,153,348.5,156.1,352.3,156.1z"/>
	<path class="st1" d="M374.5,156.1c3.8,0,6.8-3.1,6.8-6.8c0-3.8-3.1-6.8-6.8-6.8s-6.8,3.1-6.8,6.8
		C367.6,153,370.7,156.1,374.5,156.1z"/>
	<path class="st3" d="M449.6,149.1h100.8"/>
</g>
<g>
	<path class="st4" d="M500,396.2c42.8,0,77.4-34.7,77.4-77.5c0-42.8-34.7-77.5-77.4-77.5c-42.8,0-77.5,34.7-77.5,77.5
		C422.5,361.5,457.2,396.2,500,396.2z"/>
	<path class="st5" d="M519.5,346.9h9.5"/>
	<path class="st6" d="M500,378.6c42.8,0,77.4-34.7,77.4-77.5c0-42.8-34.7-77.4-77.4-77.4c-42.8,0-77.5,34.7-77.5,77.4
		C422.5,343.9,457.2,378.6,500,378.6z"/>
	<path class="st7" d="M529.8,347.6v-7.4l-43.6-0.1v8.1h-14.5c-11,0-19.9,6.5-23.9,10c31.6,28.9,80.5,26.6,109.3-4.9
		c0.4-0.5,0.9-0.9,1.3-1.4c-4.2-2.8-9.1-4.3-14.2-4.4L529.8,347.6z"/>
	<path class="st8" d="M463.7,305c1.6-7.8,1.5-17.5,2.8-26.2c0.9-5.9,2.5-11.4,5.7-15.5c8-9.9,29.4-13.8,46.6-1.2
		c17.2,12.6,16.3,30.3,15.6,38.3l-4.8,26.8l0.1,13.3h-43.6l-0.1-7.2c0,0-9.5,2-15.1-1.8C463.4,326.2,461.1,318.2,463.7,305z"/>
	<path class="st9" d="M472.3,263.3c8-9.9,30.7-16.2,47.8-3.6c17.2,12.6,15,32.6,14.3,40.6l-4.8,26.8c0,0-12.9-4.1-18.4-14.3
		c0,0,18.7-8.4,10.2-20.4c-8.2-11.6-22.4,2.7-22.4,2.7c-8.2-2.7-16.4-14.3-16.4-14.3c-12.2,0.7-16.2-2.1-16.2-2.1
		C467.5,272.8,469.1,267.4,472.3,263.3z"/>
	<path d="M484.8,300.9c1.2,0,2.1-0.9,2.1-2.1s-0.9-2.1-2.1-2.1c-1.2,0-2.1,0.9-2.1,2.1S483.6,300.9,484.8,300.9z"/>
	<path d="M469.8,299.5c1.2,0,2.1-0.9,2.1-2.1s-0.9-2.1-2.1-2.1c-1.2,0-2.1,0.9-2.1,2.1S468.7,299.5,469.8,299.5z"/>
	<path class="st5" d="M474.3,304.3c-0.3,1.1-0.5,2.2-0.3,2.6c0.3,0.6,0.9,1.1,1.5,1.5"/>
	<path class="st5" d="M481.3,314.3c-1.3,1.2-3.1,1.8-4.9,1.4"/>
	<path class="st5" d="M494.4,331.6c-2.4,1.1-5.7,0.9-8.3,1.7"/>
	<path class="st5" d="M511.3,299.9l-4.7,3.4"/>
</g>
<g>
	<path class="st6" d="M656.2,301.5l-3.2,7.5l-2.7,8.1c0,0.1,0,0.2,0.2,0.2l8.9,0.3l8.4-2.6c0.1,0,0.1-0.1,0.1-0.1l-4.6-7.3l-4.8-6.4
		C657.8,300.4,656.5,300.6,656.2,301.5z"/>
	<path class="st6" d="M698.4,284.7l-4.7,6.2l-4.5,7v0.1l8.5,2.7l8.8-0.3c0.1,0,0.2-0.1,0.1-0.2l-2.6-8l-3-7.3
		C700.7,283.9,699.1,283.7,698.4,284.7z"/>
	<path class="st7" d="M677.3,383.8l11.9-85.8c0-0.1,0.1-0.1,0.1-0.1l17.3,2.5c0.1,0,0.1,0.1,0.1,0.1l-11.9,85.8L677.3,383.8z"/>
	<path class="st7" d="M700.2,281.1l-6.4,9.8l10.3,1.4l-3.7-11.2C700.3,281,700.2,281,700.2,281.1z"/>
	<path class="st6" d="M650.4,317.1l17.4-2.3c0.1,0,0.1,0,0.1,0.1l11.1,85.9l-17.6,2.3L650.4,317.1
		C650.3,317.1,650.4,317.1,650.4,317.1z"/>
	<path class="st6" d="M656.7,297.7l-3.7,11.2l10.2-1.4l-6.3-9.8C656.9,297.6,656.8,297.6,656.7,297.7z"/>
	<path class="st10" d="M701.9,451.5h-51.5c0,0-0.1,0-0.1-0.1l-11.7-55.9l-4.6-35.4c0-0.1,0-0.1,0.1-0.1h84.5c0.1,0,0.1,0.1,0.1,0.1
		l-4.6,35.4L701.9,451.5C702,451.5,702,451.4,701.9,451.5z"/>
	<path class="st6" d="M638.6,395.5l7.8,59.1h60l7.7-59.1H638.6z"/>
</g>
<g>
	<path class="st6" d="M298.6,181.4c23.6-13.7,53.8-5.7,67.5,17.9s5.7,53.8-17.9,67.5c-23.6,13.7-53.8,5.7-67.5-17.9
		C267,225.3,275,195,298.6,181.4z"/>
	<path class="st1" d="M349.5,216.5c0.4,1.9-0.5,3.7-2.1,4.7c-0.1,0,0,0.1,0,0.1c1.1,0.6,1.8,1.5,2.1,2.7c0.4,1.9-0.5,3.7-2.1,4.7
		c0,0,0,0.1,0,0.1c1.3,0.8,2.2,2.1,2.2,3.6c0,2-1.4,3.8-3.4,4.3l-11.2,2.8c-4,1-8.1,1.5-12.1,1.5c-1.6,0-2.9-1.1-3.3-2.5l-5.5-22.4
		c-0.2-0.8-0.1-1.7,0.4-2.4c2.1-3.7,8.5-15.2,9.7-16.4c6.2-4.7,5.2,9.7,5.1,12.8c0,0,0,0,0.1,0c1-0.3,13.1-3.2,13.1-3.2
		c4-1.2,7.4,3.9,4.3,6.9c0,0,0,0.1,0.1,0.1C348.1,214,349.3,215.1,349.5,216.5z"/>
	<path class="st1" d="M310,215l6.7,27.1c0.3,1.3-0.5,2.7-1.8,3l-9.5,2.3c-1.3,0.3-2.7-0.5-3-1.8l-6.7-27.2c-0.3-1.3,0.5-2.6,1.8-3
		l9.5-2.3C308.4,212.8,309.8,213.6,310,215z"/>
</g>
<g>
	<path class="st11" d="M304.9,461.6l-30.3,22.6l11.5-35.5l-35.5-4.5l32.3-17.5L265.7,392l35.3,19.1l13.7-29l9.4,33.8l36.1-13
		l-26.2,31.4l31.7,21.6l-38.1,0.1l0.5,36.7L304.9,461.6z"/>
</g>
<g>
	<path class="st11" d="M629.5,191.1c15.5-51.6,45-66.4,60.9-65.6c21,1,33.3,35,19.9,57.4c-13.5,22.3-32.3-3.1-18.2-41
		c12.8-34.2,43.9-51.3,64.9-39c13.3,7.9,25.3,26.9,19.6,46.7c-5,17.8-23.4,6.1-11.4-11.4c14.4-21.1,42.6-15.9,51.5-13.7"/>
</g>
<g>
	<path class="st12" d="M280.5,355.2l-44.7,8.4l11.2,25.9L280.5,355.2z"/>
	<path class="st10" d="M280.5,355.2l-54.4,4.8l11.2,25.9L280.5,355.2z"/>
</g>
<g>
	<path class="st12" d="M698.3,234.2l59.8-21.3l4.8,39.2L698.3,234.2z"/>
	<path class="st7" d="M698.3,234.2l69-32.5l4.8,39.2L698.3,234.2z"/>
</g>
<g>
	<path class="st13" d="M407.3,109.7l-9.1-24.8c0,0,0,0,0,0l-13.8,8.9c0,0,0,0,0,0L407.3,109.7C407.3,109.7,407.3,109.7,407.3,109.7z
		"/>
	<path class="st1" d="M407.3,109.7L399.4,79c0,0,0,0,0,0l-13.8,8.9c0,0,0,0,0,0L407.3,109.7C407.3,109.7,407.3,109.7,407.3,109.7z"
		/>
</g>
</svg>
