<?xml version="1.0" encoding="iso-8859-1"?>
<!-- Generator: Adobe Illustrator 18.0.0, SVG Export Plug-In . SVG Version: 6.00 Build 0)  -->
<!DOCTYPE svg PUBLIC "-//W3C//DTD SVG 1.1//EN" "http://www.w3.org/Graphics/SVG/1.1/DTD/svg11.dtd">
<svg version="1.1" id="Capa_1" xmlns="http://www.w3.org/2000/svg" xmlns:xlink="http://www.w3.org/1999/xlink" x="0px" y="0px"
	 viewBox="0 0 178.73 178.73" style="enable-background:new 0 0 178.73 178.73;" xml:space="preserve">
<g>
	<rect x="0.121" y="0" style="fill:#51BFD2;" width="178.488" height="178.488"/>
	<g>
		<path style="fill-rule:evenodd;clip-rule:evenodd;fill:#8A6EA0;" d="M100.55,125.301c-0.263,0.413-26.086,0.824-26.372,1.231
			c-8.109,11.569-25.633,16.639-39.567,19.755c-13.865,3.1-14.401,20.713-14.423,32.443h135.177
			c-0.02-11.73-0.278-29.28-14.425-32.443C126.792,143.123,108.243,137.398,100.55,125.301z"/>
		<path style="fill-rule:evenodd;clip-rule:evenodd;fill:#AB7F42;" d="M87.065,121.453c12.666,22,28.869-17.42,45.332-20.674
			c-0.481-19.082-3.21-61.172-44.942-62.242c-38.701,1.248-42.709,43.316-41.377,63.49
			C62.791,104.129,73.689,142.052,87.065,121.453z"/>
		<path style="fill-rule:evenodd;clip-rule:evenodd;fill:#FFE7DE;" d="M74.232,100.592v22.217v10.964
			c6.786,13.884,18.969,14.244,27.087,0v-10.966v-22.215C101.319,82.677,74.232,82.677,74.232,100.592z"/>
		
			<ellipse transform="matrix(0.3947 -0.9188 0.9188 0.3947 -12.8685 168.4284)" style="fill-rule:evenodd;clip-rule:evenodd;fill:#FFE7DE;" cx="121.391" cy="93.98" rx="9.665" ry="5.59"/>
		<path style="fill-rule:evenodd;clip-rule:evenodd;fill:#FFE7DE;" d="M87.776,123.543c-8.818,0-27.446-13.862-33.205-33.717
			C48.757,69.777,59.707,41.02,87.776,41.02c28.067,0,39.021,28.758,33.204,48.807C115.22,109.681,96.594,123.543,87.776,123.543z"
			/>
		<path style="fill-rule:evenodd;clip-rule:evenodd;fill:#AB7F42;" d="M85.463,56.101c3.919,17.747,22.518,27.673,38.61,24.283
			c-0.471-19.879-12.503-40.932-36.297-40.932c-25.529,0-37.515,24.235-36.212,45.252C67.902,86.895,72.388,77.56,85.463,56.101z"/>
		<path style="fill-rule:evenodd;clip-rule:evenodd;fill:#AB7F42;" d="M119.398,93.244l-3.5,1.875c0,0,4-9.375,3.625-16.375
			l3.5-1.125C123.023,77.619,122.898,89.369,119.398,93.244z"/>
	</g>
</g>
<g>
</g>
<g>
</g>
<g>
</g>
<g>
</g>
<g>
</g>
<g>
</g>
<g>
</g>
<g>
</g>
<g>
</g>
<g>
</g>
<g>
</g>
<g>
</g>
<g>
</g>
<g>
</g>
<g>
</g>
</svg>
