<?xml version="1.0" encoding="utf-8"?>
<!-- Generator: Adobe Illustrator 26.1.0, SVG Export Plug-In . SVG Version: 6.00 Build 0)  -->
<svg version="1.1" id="Слой_1" xmlns="http://www.w3.org/2000/svg" xmlns:xlink="http://www.w3.org/1999/xlink" x="0px" y="0px"
	 viewBox="0 0 359.9 492.1" style="enable-background:new 0 0 359.9 492.1;" xml:space="preserve">
<style type="text/css">
	.st0{fill:#FFEDCC;}
	.st1{fill:#FFE3AD;}
	.st2{fill:#FFFFFF;}
	.st3{fill:none;}
	.st4{fill:none;stroke:#000000;stroke-width:4;stroke-miterlimit:10;}
	.st5{fill:#FFFFFF;stroke:#000000;stroke-width:2;}
	.st6{fill:#47AF98;}
	.st7{fill:none;stroke:#FFFFFF;stroke-width:0.83;stroke-miterlimit:10;}
	.st8{fill:#FFFFFF;stroke:#000000;stroke-width:4;}
	.st9{fill:none;stroke:#3A8C7A;stroke-width:2;stroke-miterlimit:10;}
	.st10{fill:#B78C38;}
	.st11{fill:#E7B34D;}
	.st12{fill-rule:evenodd;clip-rule:evenodd;fill:#FFFFFF;}
</style>
<path class="st0" d="M193,89.3c0.1,2.8,0.2,12.4-5.2,15.4c-1.5,0.8-2.5,0.6-11.6-0.2c-11.2-1.1-12.6-1-14.9-2.6
	c-3.5-2.4-5.1-5.9-6.1-8.1c-1.3-2.9-3.2-6.9-2-10.9c2.2-7.1,13.3-9.6,20.7-9.3c2.6,0.2,10.5,0.6,15.5,6.9
	C191.3,83.1,192.5,86.2,193,89.3z"/>
<path class="st1" d="M97.9,488.3c54.1-12.8,116.2-62.2,110.5-107.7c-5.2-41-74-79.7-144.9-70.5c-37.2,4.9-55.2,15.2-63,31.5
	C0.4,386.7,0.2,431.8,0,476.8C17.4,484.9,54.3,498.7,97.9,488.3z"/>
<path class="st2" d="M206.2,283.1l-0.6-0.8l13.8-12.9l0.5,0.8L206.2,283.1z"/>
<rect y="80.8" class="st3" width="359.9" height="407"/>
<path class="st4" d="M206.9,175.7"/>
<path class="st0" d="M261.6,41c-2.7,2.8-12,12.5-20.4,10.1c-0.3-0.1-0.7-0.3-1-0.4c-5.2-2.2-7.9-5.6-10.8-8.9
	c-7.6-8.5-12.3-10.4-11.8-13.4c0.4-2.1,0.5-4.3,0.1-6.4v-0.1c-0.9-4.6,5.2-11.4,5.2-11.4c5.5-6.2,8.3-9.3,12.4-10.2
	c8.3-1.9,15.8,4.9,20.4,9.1s11.4,10.3,11.1,19.4C266.4,33.3,264.5,37.6,261.6,41z"/>
<path class="st5" d="M124.6,194.9l71.4,50.4l-29.2,7.4l-61-59.1l10.3-7.6L124.6,194.9z"/>
<path d="M118.3,186.2c19.6,4.4,19.9,5.5,19.9,5.5l1.3-8.8l3.3,8.5c1.9,0,8.2-4.6,8.2-4.6c-4.2-2.3,0.9-7,2-14.7
	c1.6-11.5-2.1-19-1.8-26s4.6-12.8,1.1-20s-13.1-5-18.9-5.2c-19.4-9.1-34-0.4-37.9,11.3s-13.2,20.2-27.3,24
	C68.4,156.2,98.8,181.9,118.3,186.2z"/>
<path d="M151.8,172.3c-1.9,5.9-4.9,9.7-1.2,11.8c0,0-6.9,5.2-9,5.1l-3.6-9.4l-1.4,9.7c0,0-0.4-1.2-21-5.9c0.8-2.5,1.8-5,3-7.4
	c0.5-1,1.2-2,2-2.8c1-1,2.3-1.8,3.2-2.9c1.8-2.1,1.5-4.8,2-7.3c0.4-2.1,2-3.8,3.4-5.4c1.3-1.4,2.7-2.7,3.9-4.2
	c3.1-3.9,3.9-9,3.5-13.8c-0.6-6-2.3-5.5-4.1-11.2c0,0,1.6-2.2,1.6-2.2c3.2,1.6,8.1-0.6,11.1,1.6c4.6,3.3,4.6,9.4,3.9,11.6
	c-1.5,5.2,2.2,10.1,1.1,25.3C150,167.3,151.3,169.8,151.8,172.3z"/>
<path class="st5" d="M311.3,368.1c-2-1-4.1-1.9-6.2-2.6c-2.3-0.8-4.5-1.5-6.3-2.1l-2.1-0.6l-0.6-0.2c-0.1,0-0.1-0.1-0.2-0.1l0,0
	l0.2-0.5l-0.2,0.5h0h-0.1l-16.2-8.4l-0.2-0.1l-0.1-0.2L263,310.6l-27-1.1l28,45.5l0.2,0.3l-0.2,0.3l0,0l0,0l0,0
	c0,0.1-0.1,0.2-0.2,0.3c-0.1,0.3-0.4,0.6-0.5,1.1c-0.5,1-0.8,2.1-0.9,3.2c-0.1,1.1,0.3,2.2,1.1,3c0.9,0.8,2.5,1.4,5.4,1.5
	c5.9,0.1,17.4,1.3,27.3,2.5c5,0.6,9.6,1.2,13,1.6c1.7,0.2,3,0.4,4,0.5c0.1,0,0.3,0,0.4,0l-0.2-0.2
	C312.8,368.8,312,368.4,311.3,368.1z"/>
<path class="st6" d="M60.9,358.7c0,0,11.5,0.2,40.6,0.7s98.5-74.9,98.5-74.9s3.5,2.6,4.3,9s7,4.5,9.1,11.1s4.9,8.2,4.9,8.2l54.6,1
	c-9.3-20-20.5-39.1-33.4-57c-21.7-30.1-39.9-26.8-77.6-8.6s-85.9,49.7-85.9,49.7L60.9,358.7z"/>
<path class="st6" d="M200.1,284.5c0,0-69.3,75.4-98.5,74.9s-40.6-0.7-40.6-0.7l15-61c0,0,48.2-31.5,85.9-49.7
	c14.7-7.1,26.4-11.9,36.6-13.4C186,252,200.1,284.5,200.1,284.5z"/>
<path class="st2" d="M197,267.1c0.6,1.3,1.6,2.4,2.9,3c0.9,0.3,1.9,0.2,2.7-0.2l21.5,33.2l0.9-0.5l-22-34l-0.5,0.3
	c-0.7,0.5-1.5,0.6-2.3,0.4c-1.7-0.6-2.5-3-2.5-3l-0.2-0.6L88.8,336l0.6,0.8L197,267.1z"/>
<path class="st6" d="M18.6,295.6c-7.7,10.6-12.7,22.8-14.8,35.7c-5.7,37.4,19.3,46.2,52.7,46.8l88.9,1.6
	c24.5,0.4,60.4-6.8,71.2-29.8s-7.2-44.6-47.3-46.7s-79.6,6.9-79.6,6.9l-0.7-13.3L18.6,295.6z"/>
<path class="st6" d="M145.4,379.7c-17.3-0.3-38-0.7-60.4-1.1c16.2,0.3,75.3-15.7,92.9-25.1c0,0,7.6,16.6,32.2,5.6
	C195.3,374.8,166.2,380,145.4,379.7z"/>
<path class="st2" d="M202,333.5l-23.7,20.3l-0.7-0.7l23.7-20.3L202,333.5z"/>
<path class="st2" d="M205.2,354.5l-26.1,1.3l-0.1-1l26.1-1.3L205.2,354.5z"/>
<path class="st2" d="M184.9,334.3h-1.1c-0.2,6.3-2.4,12.4-6.3,17.4l0.9,0.6C182.4,347.2,184.6,340.8,184.9,334.3z"/>
<path class="st2" d="M25.4,341.6l0.3-13.5l-21.3-0.4v1l20.2,0.4l-0.3,12.5c-0.1,7.2-7.4,14.4-15.9,15.7l0.2,1
	C17.6,356.9,25.2,349.3,25.4,341.6z"/>
<path class="st6" d="M89.4,306c-7.4,0.3-24.6,1.6-36,7.2c-14.2,7-33.7,15.2-46.4,4.9c2.6-8,6.5-15.6,11.5-22.4l70.3,1.2L89.4,306z"
	/>
<path class="st2" d="M89.7,310.6l-0.1-1c-0.1,0-15.4,2.2-35.2,17.2l0.7,0.8C74.5,312.8,89.5,310.6,89.7,310.6z"/>
<path class="st2" d="M89.2,302v1l-74.7-1.3v-1L89.2,302z"/>
<path class="st2" d="M212.1,348.9c2.1-6.1,1.5-12.7-1.7-18.3c-4.8-8.7-14.8-15.1-29.8-19c-32.5-8.4-100.5,4.9-108.5,6.5
	c0.1-1.3-0.2-2.2-0.9-2.7c-1.5-1-4.4,0.4-5.9,1.2l1.1-18.9l-1.1-0.1l-1.2,20.9l0.9-0.6c1.6-1,4.5-2.4,5.6-1.8
	c0.6,0.4,0.6,1.5,0.3,2.4l-0.2,0.8l0.8-0.2c0.8-0.2,74.6-15.4,108.7-6.6c14.7,3.8,24.5,10,29.1,18.5c3,5.3,3.6,11.7,1.6,17.5
	c-3.9,10.2-19.4,23.8-50.4,28.7l0.2,1C192.3,373.2,208.1,359.3,212.1,348.9z"/>
<path d="M331.4,377.5c0,0-32.3,0.4-52.6,0c-1.6,0-7.7-10-9.2-10c-1.2,0,3.1,10.1,1.1,10.5c-3.7,0.6-7.6,0.6-11.3,0
	c-11-1.2-9.3-37.4-9.3-37.4l27.4-0.6c20.2,9.5,28.7,23.1,40.2,23.1S331.5,373.4,331.4,377.5z"/>
<path class="st2" d="M267.8,305.2v1l-50.8-0.9v-1L267.8,305.2z"/>
<path class="st2" d="M205.2,257.5l-3.8,24.5l-1-0.1l3.8-24.5L205.2,257.5z"/>
<path class="st2" d="M199.3,274.7c0-0.1-2.4-9.7-1.5-18.9l-1.1-0.1c-0.5,6.5,0,12.9,1.5,19.2L199.3,274.7z"/>
<path class="st2" d="M221.3,270.5l-0.7-0.8l-16,12.9l0.7,0.8L221.3,270.5z"/>
<path class="st7" d="M151.1,242.1l-4.2-11.6"/>
<path class="st8" d="M137,130.7c-1-0.6-2.1-1.1-3.2-1.4c-0.2-0.1-0.4-0.1-0.6-0.1c0.5,2.6,0.4,5.2-0.4,7.8c-0.8,2.1-2.1,3.9-3.7,5.4
	c-1.2,1.1-2.5,2-3.8,2.9l-1,0.7c-1.4,0.9-2.6,2-3.5,3.4l0,0c-0.7,1.2-1.2,2.5-1.7,3.8c-0.3,0.6-0.4,1.2-0.6,1.6l-0.1,0.5
	c0,0,0,0.1,0,0.1l0,0l0,0l-0.1,0.5l-0.5-0.1h-0.1c0,0-0.2,0-0.3-0.1s-0.7-0.1-1.2-0.2c-1.2-0.1-2.3-0.2-3.5-0.2
	c-1.1,0-2.3,0.2-3.3,0.7c-0.4,0.2-0.7,0.5-0.9,0.8c-0.2,0.4-0.4,0.8-0.3,1.2l0,0c0,0.1,0,0.2,0,0.4c0.1,1.8,1.1,3.5,2.6,4.6
	c0.4,0.3,0.9,0.6,1.4,0.7c0.1,0,0.3,0.1,0.4,0.1c0,0,0.1,0,0.1,0l0,0l0.7,0.1l-0.2,0.6c-2.8,7.9-8.8,14.1-14.1,18.4
	c-2.2,1.8-4.6,3.4-7,4.9c-0.7,0.4-1.3,0.8-1.8,1.1l22.3,6.6l14.7-19.2l0.2-0.2h0.3c7.7,0.1,11.9-1.6,14.1-3.9s2.7-5.2,2.8-7.9
	s0.1-4.8,0.1-6.4c0-0.8,0-1.3,0-1.8v-0.6l0,0v-0.2l0.1-0.1l0.7-0.8c-0.7-4.6-1.5-8.9-2.1-12.3c-0.1-0.7-0.2-1.4-0.4-1.9l0,0
	C142.3,136.3,140.2,132.9,137,130.7z"/>
<path class="st2" d="M127.5,176.7l-3.5,4.6c-4.4-1.1-7.6,2.8-13.6,2.6c-3.4-0.1-5-3.7-5.7-7.1c3.4-3.5,6-7.7,7.7-12.3
	C112.4,164.5,114.9,173.1,127.5,176.7z"/>
<path d="M136.9,148.9c-2.2-4.8-5-0.1-5-0.1L136.9,148.9z"/>
<path d="M128.9,145.9c0.7,0.3,1.4,0.3,2.1,0c1.1-0.3,2.1-0.6,3.1-1.1c0.9-0.3,1.6-0.9,2.1-1.6c0.2-0.3,0.2-0.7,0-1
	c-0.1-0.1-0.2-0.1-0.3-0.2c-1.2-0.4-2.6-0.3-3.7,0.3c-1.4,0.5-2.5,1.4-3.3,2.7c-0.2,0.2-0.2,0.4-0.2,0.7
	C128.7,145.7,128.8,145.8,128.9,145.9z"/>
<path d="M143.1,160.2c-0.1,0.1-0.1,0.4-0.2,0.5c-0.1,0.2-0.2,0.3-0.3,0.5c-0.1,0.3-0.3,0.5-0.6,0.7c-0.6,0.4-1.2,0.6-1.9,0.6
	c-0.8,0-1.6-0.3-2.2-0.8c-0.5-0.4-1.3-1-1.4-1.7c0-0.1,0.1-0.2,0.2-0.2c0.1,0,0.1,0,0.2,0.1c0.5,0.5,1,1,1.6,1.4
	c0.6,0.4,1.3,0.6,2,0.5c0.7-0.1,1.4-0.5,1.7-1.1c0.2-0.3,0.2-0.7,0.6-0.9S143.5,159.9,143.1,160.2z"/>
<path class="st2" d="M135.2,153.8c2.8,1.8-0.8,4.2-2.7,4.6s-3.9,0.2-5.1-1.1c-0.3-0.2-0.5-0.6-0.6-0.9c0-0.9,0.5-1.8,1.3-2.1
	C129.7,153.4,133.6,152.8,135.2,153.8z"/>
<path class="st8" d="M108.5,160.2c0.6,1.6,1.9,2.8,3.6,3.2c1.7,0.4,3.5,0.1,4.9-0.9c0.5-0.3,0.8-0.7,1.1-1.1
	c0.4-0.8,0.5-1.7,0.3-2.5c-0.2-0.9-0.6-1.8-1.1-2.6l0,0c-0.6-0.8-1.4-1.4-2.3-1.7c-1-0.3-2-0.4-3-0.2c-0.9,0.2-1.7,0.6-2.4,1.3l0,0
	C108.4,156.8,108,158.6,108.5,160.2z"/>
<path class="st2" d="M118.9,158.9c-1.4,2.1-4,3.4-6.4,1.9c-1.1-0.8-1.4-2.3-0.6-3.4c0.1-0.1,0.2-0.3,0.4-0.4c1-0.8,2.3-1.1,3.6-0.9
	c0.8,0.1,1.7,0.4,2.4,0.7C118.6,157.5,118.8,158.1,118.9,158.9z"/>
<path d="M112.9,156.5c-0.1,0.1-0.1,0.2-0.3,0.1s-0.9,0.4-1.1,0.6c-0.4,0.5-0.7,1.2-0.7,1.8c0,0.1,0,0.1-0.1,0.1
	c-0.1,0-0.1,0-0.1-0.1c-0.2-0.8,0-1.7,0.7-2.2c0.3-0.2,1.2-0.9,1.5-0.5C112.9,156.4,112.9,156.4,112.9,156.5L112.9,156.5
	L112.9,156.5z"/>
<path d="M114.8,161.3c-0.1,0.1-0.3,0-0.3-0.1c0-0.2,0-0.3,0.1-0.5c0-0.4,0-0.8-0.2-1.1c-0.2-0.5-0.5-1-0.9-1.3
	c-0.1-0.1,0-0.3,0.1-0.2c0.6,0.3,1,0.8,1.2,1.4C115.1,160,115.4,160.8,114.8,161.3z"/>
<path class="st5" d="M74.3,185.6c-4.8,3.1-8.8,9-16.7,20.9c-6.4,9.7-12.2,19.7-17.5,30c-5.2,10.2-10.8,22-15,31.2
	c-2.1,4.6-3.9,8.6-5.2,11.5c-0.6,1.4-1.1,2.5-1.5,3.3c-0.2,0.4-0.3,0.7-0.4,0.9s-0.1,0.2-0.1,0.2v0l0,0l-0.5-0.2l0.5,0.2l-0.1,0.2
	l-0.1,0.1c-2,1.1-3.6,2.7-4.8,4.6c-0.8,1.2-0.9,2.7-0.4,4c0.8,1.4,2.1,2.5,3.6,3c2.5,0.9,5.1,1.4,7.7,1.4c3.8,0,9.9,0.2,16.9,0.3
	c17.9,0.3,41.7,0.7,48.1,0.9c1.5,0.1,3.1-0.1,4.5-0.7c0.8-0.4,1.4-1.1,1.6-2c0.2-1.1,0.3-2.2,0.3-3.4c0-0.3,0-0.4,0-0.7l0,0
	c0-0.3,0-3.3,0-3.6c0.2-2.2,11.1-10.9,14.5-14.5c2.9-3.1,3.7-6,5.9-18.6c4.8-28.1,7.2-42.4,4.9-55.4c-0.9-5.3-2.3-10.5-4.1-15.6
	C91.1,175.8,78,183.3,74.3,185.6z"/>
<path class="st9" d="M31,287.7c0,0,48.8-22.9,49.5-23.3"/>
<path class="st9" d="M67.3,281.4l-23.8,8.1"/>
<path d="M72.1,155.2c-8.7,2.5-19.3,6.8-19.3,6.8l7.8,14.2l10.9-3.5L65,180l13.4,9.8c5.1-6,20.5-8.1,32.5-0.2
	c9.6,6.3,20.2,6.6,23.4,4.6c-7.3-5.1-6.6-9.2-9.3-14.2c-3.2-5.8-7.5-11.1-12.5-15.4C112.4,164.5,80.7,152.7,72.1,155.2z"/>
<path class="st10" d="M187.4,200l-31.2-13.4l10.2-47.6l32.9,11.8"/>
<path class="st11" d="M159,147.5l-10.4,50.5l38.8,1.9l11.9-49.2L159,147.5z"/>
<path class="st2" d="M166.3,148.1l2.4-4.6l24.3,6.7"/>
<path class="st12" d="M186.4,200c0,0,18.9-17.8,15.1-21.7c-1-1-2.3-0.5-3.6,0.5c1.4-2.3,2.3-4.6,0.9-5.9s-2.7-0.6-4.1,0.6
	c0.4-0.7,0.8-1.4,1.1-2.1c1.3-2.7,1.5-5.8,0.3-8.5c-1.2-2.7-4.5-4.6-7.5-3.7c-1.3,0.4-2.5,1.6-2.2,2.8c0.3,0.7,0.8,1.4,1.4,1.8
	c0.3,0.3,0.6,0.6,0.9,0.9c0.8,1,1.1,2.4,0.8,3.7c-0.3,1.3-1,2.5-1.9,3.5c-0.9,1.2-2.1,2.1-3.5,2.7c-1.4,0.5-2.9,0.4-4.1-0.4
	c0.3-2.8,1.3-14.4-1.9-15s-6.8,16.4-7.6,20l-0.1,0.1l-34.3,42.7c-0.4-0.7-21.3-31.8-39.6-35.9c-8.3-1.9-29.1,35.3-14.1,41.2
	c5.3,2.1,13.2,11.4,20.8,20.4c1.9,2.2,3.8,4.5,5.6,6.6c8.6,9.8,19,16.3,30,15C158.4,266.8,186.4,200,186.4,200z"/>
<path d="M187.1,164.6c0.3,0.2,0.5,0.5,0.8,0.7l1.8-1.4c-0.3-0.4-0.6-0.7-1-1L187.1,164.6l1.5-1.7c-0.7-0.6-1-0.9-1-1.2
	c0-0.3,0.1-0.6,0.3-0.8c0.3-0.4,0.7-0.6,1.2-0.7c2.2-0.7,4.9,0.8,6,3c0.8,2.2,0.8,4.6,0.1,6.8c-0.1,0.3-0.2,0.6-0.4,0.9h0.1l0,0l0,0
	c-0.3,0.7-0.7,1.4-1.1,2l0,0l0,0l0.1,0.1l0,0c-1.1,2-2.5,3.9-4.1,5.5l0.9,0.9c1.6-1.7,3-3.6,4.2-5.6l0.4,0.4l0.2,0.2
	c0.5-0.4,1-0.7,1.6-0.9c0.4-0.1,0.7,0,1,0.3l-0.2,0.2c0.3,0.3,0.5,0.7,0.5,1.2c0,0.1,0,0.1,0,0.2c-0.3,1.1-0.7,2.1-1.3,2.9l0,0l0,0
	l0.1,0.1l0.1,0.1c-1.5,2.4-3.3,4.7-5.4,6.7l0.9,0.9c1.2-1.2,2.3-2.5,3.4-3.8c0.7-0.9,1.4-1.9,2-2.9l0.3,0.3l0.1,0.2
	c0.4-0.4,0.9-0.6,1.4-0.8c0.2-0.1,0.4,0,0.6,0.2l1.7-1.5c-0.5-0.6-1.2-0.9-2-0.9c0.1-0.3,0.2-0.6,0.3-0.9c0.4-1.3,0-2.6-0.9-3.6l0,0
	c-0.7-0.6-1.6-1-2.5-0.9c1.3-2.8,1.3-6,0.1-8.8l0,0c-1.4-3.1-5.2-5.4-8.9-4.3c-0.9,0.3-1.6,0.8-2.2,1.4c-0.7,0.7-0.9,1.7-0.8,2.7
	C185.7,163.1,186.3,164,187.1,164.6z M196,171.5L196,171.5L196,171.5L196,171.5L196,171.5z"/>
<path d="M96.4,187.1c4.3,1,8.9,3.6,13.4,7.1c4.5,3.6,8.7,7.6,12.5,11.9c3.8,4.1,7,8.2,9.2,11.3c1.1,1.5,2,2.8,2.7,3.7l0.8,1.1
	c0.1,0.1,0.2,0.2,0.3,0.4l1-0.5l-1,0.5l0.8,1.5l1.1-1.4l-0.9-0.7l0,0l0.9,0.7l34.2-42.5l0.4-0.2l0.1-0.5l-1.1-0.2l0.1,0.2l0,0
	l-0.1-0.2l1.1,0.2c0.4-1.8,1.4-6.9,2.8-11.5c0.6-2,1.3-4,2.2-5.9c0.3-0.6,0.6-1.1,1-1.5c0.1-0.1,0.2-0.1,0.2-0.2
	c0.1,0.1,0.2,0.1,0.2,0.2c0.2,0.4,0.4,0.7,0.5,1.1c0.3,1.4,0.5,2.8,0.5,4.2c0.1,2.7-0.1,5.5-0.4,8.2l1.1,0.1l-0.6,0.9
	c1.5,1,3.5,1.2,5.2,0.5l0,0c1.5-0.7,2.9-1.7,3.9-3.1l0,0c1-1.1,1.7-2.5,2.1-3.9l-0.5-0.1l0.5,0.1c0.4-1.6,0-3.3-1-4.6l-1.8,1.4
	c0.6,0.8,0.8,1.8,0.6,2.8l0,0c-0.3,1.1-0.9,2.1-1.6,3l0,0c-0.8,1-1.8,1.9-3,2.4l0,0c-0.8,0.3-1.7,0.3-2.4-0.1
	c0.3-2.6,0.4-5.1,0.3-7.7c0-1.6-0.2-3.2-0.6-4.7c-0.2-0.7-0.5-1.3-0.8-1.8c-0.4-0.6-1-1-1.7-1.2l-0.5,2.2l0.4-2.2
	c-0.9-0.1-1.7,0.2-2.3,0.9c-0.6,0.6-1.1,1.3-1.4,2.1c-1,2-1.7,4.1-2.4,6.2c-1.4,4.4-2.4,9.4-2.8,11.4L136.3,220l-0.2-0.2
	c-0.7-0.9-1.6-2.2-2.7-3.8c-2.3-3.1-5.6-7.2-9.4-11.4c-3.9-4.4-8.2-8.5-12.8-12.1c-4.6-3.5-9.5-6.4-14.3-7.5L96.4,187.1z
	 M170.4,179.1L170.4,179.1L170.4,179.1L170.4,179.1L170.4,179.1z"/>
<polygon points="178.9,174 178.9,174.7 179.5,175 180.1,174.1 "/>
<path d="M109.9,253.4l-1.8,1.4c8.7,10,19.4,16.7,31,15.4l-0.3-2.2C128.5,269.2,118.4,263.2,109.9,253.4z"/>
<path d="M202.3,177.6l-1.7,1.5c0.1,0.1,0.3,0.4,0.1,1.1c-0.2,0.9-0.6,1.8-1.1,2.6c-1.5,2.5-3.3,4.9-5.3,7.1c-2.1,2.4-4.3,4.8-6,6.5
	l-2.1,2.1c-0.2,0.2-0.4,0.4-0.6,0.6l-0.1,0.1l0,0c-0.1,0-0.1,0,0.7,0.7l-0.8-0.8l-0.2,0.2l-0.1,0.2l0,0l0,0c0,0,0,0.1-0.1,0.1
	c-0.1,0.1-0.1,0.3-0.2,0.6c-0.2,0.5-0.5,1.2-0.9,2.1c-0.8,1.8-1.9,4.4-3.4,7.6c-2.9,6.3-7,14.7-11.7,23.2
	c-4.4,8.2-9.5,16.1-15.3,23.5c-2.3,2.9-4.9,5.6-7.8,8c-2,1.7-4.4,2.9-7,3.4l0.3,2.3c3-0.5,5.9-1.9,8.2-3.9c3-2.5,5.8-5.3,8.2-8.3
	c5.4-6.7,10.8-15.3,15.5-23.8s8.8-17,11.8-23.3c1.5-3.2,2.6-5.8,3.4-7.6c0.4-0.9,0.7-1.6,0.9-2.1c0.1-0.2,0.1-0.3,0.2-0.4l0.1-0.1
	l0.6-0.6c0.5-0.5,1.2-1.2,2.1-2.1c1.7-1.7,4-4.1,6.1-6.6c2.1-2.3,3.9-4.8,5.5-7.4c0.6-1,0.9-2.2,1.2-3.3
	C203.3,179.5,203,178.4,202.3,177.6z"/>
<path d="M104.3,246.9L104.3,246.9c-3.8-4.5-7.7-9.1-11.3-12.9c-1.6-1.7-3.4-3.4-5.2-4.9c-1.4-1.2-3-2.3-4.7-3l-0.4,1l-0.4,1
	c1.5,0.7,2.9,1.5,4.1,2.6c1.8,1.5,3.4,3.1,5,4.7c3.6,3.7,7.4,8.2,11.2,12.8l0,0c1.9,2.2,3.8,4.5,5.6,6.6l1.8-1.4
	C108.1,251.3,106.2,249.2,104.3,246.9z"/>
<path d="M83.1,226.1c-3.1-1.2-4.6-4.1-4.6-8.2s1.3-9.1,3.5-13.9c2-4.5,4.6-8.8,7.8-12.6c1.2-1.4,2.5-2.6,4-3.6
	c0.8-0.6,1.7-0.9,2.7-0.8l0.5-2.1c-1.6-0.2-3.2,0.2-4.5,1.1c-1.7,1.1-3.2,2.5-4.4,4c-3.3,4-6.1,8.4-8.1,13.1
	c-2.2,5-3.7,10.3-3.7,14.8s1.7,8.5,6,10.2L83.1,226.1z"/>
<path d="M134.7,269.2c0-1.3,0.2-2.6,0.4-4c0.5-2.9,1.4-4.4,2.7-4.5c0.5,0,1.1,0.1,1.5,0.5c1.9,1.6,2.3,6.8,2.4,7.4l-1.3,0.1
	c-0.1-2.1-0.8-5.6-1.9-6.6c-0.1-0.1-0.3-0.2-0.5-0.2c-1,0.1-1.8,3.9-1.9,7.3L134.7,269.2z"/>
<path d="M146.4,155c-0.6,0.8-1.6,1.3-2.7,1.3c-0.5,0.1-0.5-0.7,0-0.8c0.7,0,1.4-0.3,1.9-0.7c0.4-0.5,0.1-1.2,0.1-1.7
	c-0.1-1-0.3-2-0.6-2.9c-0.2-0.9-0.4-1.8-0.6-2.6c-0.3-1-0.5-2-0.5-3c0-0.2,0.4-0.2,0.4,0c0.3,1.3,0.5,2.6,0.9,3.8s0.5,2.3,0.8,3.4
	c0.2,0.7,0.3,1.3,0.4,2C146.6,154.2,146.6,154.7,146.4,155z"/>
</svg>
