<svg id="Capa_1" data-name="Capa 1" xmlns="http://www.w3.org/2000/svg" viewBox="0 0 268.12 494.4"><path d="M247.2,0C173.29,0,113.14,60.13,113.14,134.06V387.87a16.39,16.39,0,1,0,32.78,0V134.06a101.28,101.28,0,0,1,202.56,0V395.73a66,66,0,0,1-65.89,65.89c-.27,0-.52.14-.79.16s-.51-.16-.79-.16a66,66,0,0,1-65.9-65.89v-157a32.09,32.09,0,1,1,64.18,0v149.1a16.39,16.39,0,0,0,32.78,0V238.77a64.87,64.87,0,1,0-129.74,0v157A98.78,98.78,0,0,0,281,494.4c.29,0,.52-.15.8-.16s.52.16.79.16a98.79,98.79,0,0,0,98.67-98.67V134.06C381.26,60.13,321.11,0,247.2,0Z" transform="translate(-113.14 0)"/></svg>