<?xml version="1.0" encoding="utf-8"?>
<!-- Generator: Adobe Illustrator 24.1.2, SVG Export Plug-In . SVG Version: 6.00 Build 0)  -->
<svg version="1.1" id="Слой_1" xmlns="http://www.w3.org/2000/svg" xmlns:xlink="http://www.w3.org/1999/xlink" x="0px" y="0px"
	 viewBox="0 0 50 50" style="enable-background:new 0 0 50 50;" xml:space="preserve">
<style type="text/css">
	.st0{fill:#020203;}
</style>
<path class="st0" d="M45.8,50c-1.1,0-2.1-0.4-2.9-1.2L1.2,7.1c-1.6-1.6-1.6-4.3,0-5.9c1.6-1.6,4.3-1.6,5.9,0l41.7,41.7
	c1.6,1.6,1.6,4.3,0,5.9C48,49.6,46.9,50,45.8,50z"/>
<path class="st0" d="M4.2,50c-1.1,0-2.1-0.4-2.9-1.2c-1.6-1.6-1.6-4.3,0-5.9L42.9,1.2c1.6-1.6,4.3-1.6,5.9,0c1.6,1.6,1.6,4.3,0,5.9
	L7.1,48.8C6.3,49.6,5.2,50,4.2,50z"/>
</svg>
