<?xml version="1.0" encoding="utf-8"?>
<!-- Generator: Adobe Illustrator 24.1.2, SVG Export Plug-In . SVG Version: 6.00 Build 0)  -->
<svg version="1.1" id="Слой_1" xmlns="http://www.w3.org/2000/svg" xmlns:xlink="http://www.w3.org/1999/xlink" x="0px" y="0px"
	 viewBox="0 0 465 421.4" style="enable-background:new 0 0 465 421.4;" xml:space="preserve">
<style type="text/css">
	.st0{fill:#FFEDCC;}
	.st1{fill:url(#SVGID_1_);}
</style>
<path class="st0" d="M74.6,377.2c0,16.8-8,25.9-24.8,25.9c-16.9,0-30.6-3.7-30.6-20.6c0-16.8,13.7-27.4,30.6-27.4
	C66.7,355.1,78.1,362,74.6,377.2z"/>
<path class="st0" d="M135.5,273.7c0,22.1-10.4,34-32.5,34c-22.1,0-40-4.9-40-27s17.9-36,40-36C125.1,244.7,140,253.7,135.5,273.7z"
	/>
<linearGradient id="SVGID_1_" gradientUnits="userSpaceOnUse" x1="287.5656" y1="4.3913" x2="287.5656" y2="346" gradientTransform="matrix(1 0 0 -1 0 346)">
	<stop  offset="0" style="stop-color:#FEDB97;stop-opacity:0.58"/>
	<stop  offset="0.9115" style="stop-color:#FEDB97;stop-opacity:0"/>
</linearGradient>
<path class="st1" d="M449.4,216.5c0-94.3-39.8-216.5-134-216.5S125.7,61.8,125.7,156.1c0,40.7,45.4,84.8,73.2,117.3
	c36.6,42.7,63,68.2,116.5,68.2C409.7,341.6,449.4,310.8,449.4,216.5z"/>
</svg>
