<?xml version="1.0" encoding="utf-8"?>
<!-- Generator: Adobe Illustrator 26.1.0, SVG Export Plug-In . SVG Version: 6.00 Build 0)  -->
<svg version="1.1" id="Слой_1" xmlns="http://www.w3.org/2000/svg" xmlns:xlink="http://www.w3.org/1999/xlink" x="0px" y="0px"
	 viewBox="0 0 850.4 850.4" style="enable-background:new 0 0 850.4 850.4;" xml:space="preserve">
<style type="text/css">
	.st0{fill:#1877F2;}
</style>
<path class="st0" d="M850.4,430.4C850.4,195.5,660,5.2,425.2,5.2C190.4,5.2,0,195.5,0,430.4c0,212.2,155.5,388.1,358.8,420V553.3
	h-108V430.4h108v-93.7c0-106.6,63.5-165.4,160.6-165.4c46.5,0,95.2,8.3,95.2,8.3v104.6h-53.6c-52.8,0-69.3,32.8-69.3,66.4v79.8
	h117.9l-18.9,122.9h-99.1v297.1C694.9,818.5,850.4,642.6,850.4,430.4"/>
<path class="st0" d="M0,5.2"/>
</svg>
