<?xml version="1.0" encoding="utf-8"?>
<!-- Generator: Adobe Illustrator 24.1.2, SVG Export Plug-In . SVG Version: 6.00 Build 0)  -->
<svg version="1.1" id="Слой_1" xmlns="http://www.w3.org/2000/svg" xmlns:xlink="http://www.w3.org/1999/xlink" x="0px" y="0px"
	 viewBox="0 0 512 512" style="enable-background:new 0 0 512 512;" xml:space="preserve">
<style type="text/css">
	.st0{fill:none;stroke:#ED5E3F;stroke-width:34.0157;stroke-linecap:round;stroke-linejoin:round;stroke-miterlimit:3;}
</style>
<g>
	<path class="st0" d="M475.2,181.9c0-63.2-51.5-114.7-114.7-114.7c-46.4,0-86.4,27.7-104.5,67.4c-18-39.7-58.1-67.4-104.4-67.4
		c-63.3,0-114.7,51.5-114.7,114.7c0,13.3,2.3,26.1,6.5,38.1c4.8,13.6,12.1,26,21.3,36.7c3.9,4.6,8.2,8.8,12.8,12.7l174.9,173.8
		c1.1,1.1,2.5,1.6,3.9,1.6c1.4,0,2.8-0.5,3.9-1.6l181.4-180.3l0,0c11.8-11.8,21-26.1,26.8-42.1C472.8,208.7,475.2,195.6,475.2,181.9
		z"/>
</g>
</svg>
