<?xml version="1.0" encoding="utf-8"?>
<!-- Generator: Adobe Illustrator 26.1.0, SVG Export Plug-In . SVG Version: 6.00 Build 0)  -->
<svg version="1.1" id="Слой_1" xmlns="http://www.w3.org/2000/svg" xmlns:xlink="http://www.w3.org/1999/xlink" x="0px" y="0px"
	 viewBox="0 0 477 477" style="enable-background:new 0 0 477 477;" xml:space="preserve">
<style type="text/css">
	.st0{fill:#FFA500;}
</style>
<path class="st0" d="M306.6,211.1c8-7,12.6-17.1,12.6-27.7v-23.5c8.1,0,14.7-6.6,14.7-14.7v-14.7c0-8.1-6.6-14.7-14.7-14.7H157.1
	c-8.1,0-14.7,6.6-14.7,14.7v14.7c0,8.1,6.6,14.7,14.7,14.7v23.5c0,10.6,4.6,20.7,12.6,27.7l46.4,40.6v8l-46.4,40.6
	c-8,7-12.6,17.1-12.6,27.7v23.5c-8.1,0-14.7,6.6-14.7,14.7v14.7c0,8.1,6.6,14.7,14.7,14.7h162.1c8.1,0,14.7-6.6,14.7-14.7v-14.7
	c0-8.1-6.6-14.7-14.7-14.7V328c0-10.6-4.6-20.7-12.6-27.7l-46.4-40.6v-8L306.6,211.1z M157.1,130.4h162.1v14.7H157.1V130.4z
	 M171.9,159.9h132.6v23.5c0,4.8-1.6,9.5-4.5,13.4H176.4c-2.9-3.8-4.5-8.5-4.5-13.4V159.9z M319.2,380.9H157.1v-14.7h162.1V380.9z
	 M250.6,270.8l46.4,40.6c4.8,4.2,7.5,10.3,7.6,16.6v23.5H171.9V328c0-6.4,2.8-12.4,7.6-16.6l46.4-40.6c3.2-2.8,5-6.8,5-11.1v-8
	c0-4.3-1.8-8.3-5-11.1l-33.2-29.1H284l-33.2,29.1c-3.2,2.8-5.1,6.8-5.1,11.1v8C245.6,264,247.4,268,250.6,270.8z"/>
<path class="st0" d="M230.8,277.8h14.7v14.7h-14.7V277.8z"/>
<path class="st0" d="M230.8,307.3h14.7V322h-14.7V307.3z"/>
<path class="st0" d="M447,253c0,112.5-89.5,204.7-202,207.9c-112.5,3.2-207.2-83.6-213.6-196C24.9,152.6,109.1,55.5,221.2,45.8
	L202,68.6l12.3,10.3l30.9-36.8c2.8-3.4,2.4-8.4-1-11.3L207.4,0l-10.3,12.3L218.2,30C97.8,41.3,8,146.1,15.5,266.9
	s109.6,213.8,230.5,210C366.9,473.1,463,374,463,253H447z"/>
<path class="st0" d="M434.1,180.7l15-5.5c-1.9-5.1-4-10.3-6.3-15.3l-14.6,6.7C430.3,171.1,432.3,175.9,434.1,180.7z"/>
<path class="st0" d="M341.5,53.8c-4.9-2.5-10-4.9-15-7l-6.3,14.7c4.7,2,9.4,4.2,14,6.6L341.5,53.8z"/>
<path class="st0" d="M446.7,240.7l16-0.9c-0.3-5.5-0.9-11.1-1.6-16.5l-15.9,2.1C445.9,230.5,446.3,235.6,446.7,240.7z"/>
<path class="st0" d="M442.6,210.2l15.7-3.3c-1.1-5.4-2.5-10.8-4-16.1l-15.4,4.4C440.3,200.2,441.5,205.2,442.6,210.2z"/>
<path class="st0" d="M404.5,126.9l12.7-9.7c-3.3-4.4-6.9-8.7-10.5-12.8l-12,10.6C398.1,118.9,401.4,122.9,404.5,126.9z"/>
<path class="st0" d="M421.3,152.7l14-7.7c-2.7-4.8-5.5-9.6-8.5-14.2l-13.4,8.7C416.1,143.8,418.8,148.2,421.3,152.7z"/>
<path class="st0" d="M311,40.8c-5.3-1.8-10.6-3.4-15.9-4.7l-4,15.5c4.9,1.3,9.8,2.7,14.8,4.4L311,40.8z"/>
<path class="st0" d="M278.9,32.5c-5.4-1-10.9-1.7-16.4-2.3l-1.7,15.9c5.1,0.5,10.2,1.2,15.2,2.2L278.9,32.5z"/>
<path class="st0" d="M369.8,71.1c-4.5-3.3-9.2-6.3-13.8-9.2l-8.4,13.6c4.3,2.6,8.6,5.5,12.8,8.5L369.8,71.1z"/>
<path class="st0" d="M395.2,92.4c-3.9-3.8-8.1-7.6-12.3-11.1l-10.3,12.2c3.9,3.3,7.8,6.8,11.4,10.3L395.2,92.4z"/>
</svg>
