<svg id="Слой_1" data-name="Слой 1" xmlns="http://www.w3.org/2000/svg" viewBox="0 0 299.97 232.42"><defs><style>.cls-1,.cls-2{fill:#4d4c47;}.cls-2{font-size:50px;font-family:BadScript-Regular, Bad Script;}</style></defs><path class="cls-1" d="M300.46,149.41c-.51,1.31-1,2.63-1.53,3.93q-5.88,13.89-20.68,19.19a6.86,6.86,0,0,0-4.2,3.72c-4.32,9.23-8.74,18.41-13.1,27.62a11.11,11.11,0,0,0-.49,1.68l.15.13.8-.41c3-1.67,6-3.42,9-5a32.51,32.51,0,0,1,10.26-3.05,5.34,5.34,0,0,1,1.13,0c1.09.08,1.75.69,1.72,1.71a5.68,5.68,0,0,1-.42,2c-3.54,8.17-10,13-19.07,14.94a24.55,24.55,0,0,1-7.6.32,5.16,5.16,0,0,0-4.91,1.87c-6.72,8-13.51,16-20.28,24q-.21.28-.39.57l4.38-.51,13.3-1.53a9.75,9.75,0,0,1,5.7,1.35,8.14,8.14,0,0,1-2.49,3.17,33.64,33.64,0,0,1-15.12,6.68,32.6,32.6,0,0,1-13.12-.61,8,8,0,0,0-6.79,1.19,79.72,79.72,0,0,1-27.09,12c-2.46.56-5,.91-7.51,1.37-.13-.43-.2-.68-.28-1,.43-.14.82-.28,1.22-.4,3.77-1.21,7.53-2.48,11.32-3.61,3.19-1,5.09-2.92,5.68-6a29.7,29.7,0,0,1,7-13.85c1.86-2.13,3.86-4.16,5.93-6.1a8.88,8.88,0,0,1,2.71-1.19,4.45,4.45,0,0,1,.35,3.48c-2.06,5.16-4,10.35-6,15.53-.09.24-.17.48-.32.89l.92-.49A100.64,100.64,0,0,0,231,237.82a3.75,3.75,0,0,0,.93-2.92A49.45,49.45,0,0,1,233,224.76a43.9,43.9,0,0,1,5-12.82,19.37,19.37,0,0,1,5.73-5.71c2,6.94,0,13.46-2,20l.18.08a23.69,23.69,0,0,0,1.84-2.15q9.36-14,18.65-28.09a4.22,4.22,0,0,0,.11-4.8A33,33,0,0,1,258,174.79a65.55,65.55,0,0,1,2.19-16.54,1.52,1.52,0,0,1,.09-.28c.57-1.56,1.59-1.83,2.85-.74a6,6,0,0,1,1.07,1.29,30,30,0,0,1,4.53,17.29c0,1.88-.21,3.76-.29,5.63a5.16,5.16,0,0,0,0,1.11l.21.07a12,12,0,0,0,1-2c2.54-9.18,5-18.37,7.56-27.56a4.63,4.63,0,0,0-2.13-5.53,34.15,34.15,0,0,1-12.5-16.23,66.36,66.36,0,0,1-3.14-11,3.05,3.05,0,0,1,.63-2.5,4,4,0,0,1,3.25,1.71c4,5.47,8.19,10.87,12.26,16.32.52.69.81,1.53,1.26,2.27a3.94,3.94,0,0,0,.83.75l.22-.13c-.06-1.09-.09-2.18-.18-3.26a98,98,0,0,0-4.92-23.76c-.8-2.35-1.66-4.69-2.5-7s-2.57-3.25-4.81-3.84c-2.45-.64-4.95-1.18-7.3-2a33.54,33.54,0,0,1-14.37-10.53c-2-2.38-3.61-5-5.41-7.49a3.5,3.5,0,0,1-.29-.54c1.48.26,2.81.44,4.11.73a49.25,49.25,0,0,1,14,5.87c2.3,1.33,4.56,2.72,7,4a30.23,30.23,0,0,0-2.07-3.79C254.64,78.43,248.05,69.73,241.5,61a14.46,14.46,0,0,0-6.11-4.45c-2-.88-4.14-1.64-6.12-2.64-8.75-4.36-13.81-11.43-16.49-20.53,1.66,0,3.18-.08,4.68,0A17.28,17.28,0,0,1,229.89,40c3,3.53,5.82,7.14,8.66,10.75q10,12.67,19.93,25.38a1.12,1.12,0,0,0,.49.37c-.08-.78-.14-1.55-.24-2.33-.63-5.27-1.52-10.54-1.37-15.86.12-4.2.5-8.41.78-12.62.08-1.13.28-2.27.28-3.41a4.71,4.71,0,0,1,1.48-3A6.14,6.14,0,0,1,263,41.7a42.72,42.72,0,0,1,5.75,14.41,32.11,32.11,0,0,1-2.54,19.22,45.26,45.26,0,0,1-2.16,4.22,5.5,5.5,0,0,0-.28,5.53q6.3,13.17,12.59,26.35c.08.17.18.31.38.65.18-1.88.35-3.57.51-5.26.46-4.62.9-9.24,1.37-13.86a5.73,5.73,0,0,1,1.45-3.41,1.72,1.72,0,0,1,2.37-.48l0,0a8.63,8.63,0,0,1,2.13,1.57,13.58,13.58,0,0,1,3.77,8.4A33,33,0,0,1,285,117.25a19.84,19.84,0,0,1-4.61,5.81,3.19,3.19,0,0,0-1.13,3c.34,2.83.69,5.68.95,8.52.18,2,.25,4,.3,6.06a103.77,103.77,0,0,1-1,17.17c-.28,1.91-.64,3.81-1,5.71a2.32,2.32,0,0,1-.09.65l.62-.74c2.76-3.44,5.42-6.94,8.29-10.29a22,22,0,0,1,8.93-6.34,10.82,10.82,0,0,1,3.8-.37c.13.62.25,1.17.36,1.73A6.36,6.36,0,0,1,300.46,149.41Z" transform="translate(-0.49 -33.35)"/><path class="cls-1" d="M38.59,90.66a.33.33,0,0,0,.14,0c5.49-3.74,11.73-6.11,17.73-8.88.72-.34,1.46-.65,2.2-1a4.89,4.89,0,0,1,4.11-.23,5.91,5.91,0,0,1-1.18,3.15,56.16,56.16,0,0,1-12.2,11.89,34.72,34.72,0,0,1-15.31,5.75,3,3,0,0,0-2.56,1.86A97,97,0,0,0,24,128.73c-.41,3-.59,6-.88,9a5,5,0,0,0,0,.55c.31-.38.52-.62.71-.87,3.63-4.86,7.23-9.73,10.88-14.58,1.88-2.49,2.9-3.27,6-4.88a33.18,33.18,0,0,1,0,5.64,43.15,43.15,0,0,1-6.82,16.16,32.37,32.37,0,0,1-8.43,8.4,3.66,3.66,0,0,0-1.8,3.84,100.85,100.85,0,0,0,4.49,20.31c1.13,3.35,2.51,6.64,3.77,9.95a1.13,1.13,0,0,0,.45.58c0-.17.05-.35.06-.52.14-3.55.29-7.09.42-10.64a24.85,24.85,0,0,1,3.4-11.31c.39-.7.72-1.42,1.07-2.13a3.6,3.6,0,0,1,.29-.5c1-1.37,2.4-1.31,3,.23a23.56,23.56,0,0,1,1,3.6A54.62,54.62,0,0,1,43,176.25a33.29,33.29,0,0,1-4.37,15.1,6.44,6.44,0,0,0-.73,1.71,3.13,3.13,0,0,0,.46,2.73l20.19,29.94a4.06,4.06,0,0,0,.93.77l.21-.16-1.06-3.18a40.66,40.66,0,0,1-2.38-10.45,36.09,36.09,0,0,1,.23-5.4c0-.44.78-.8,1.24-1.24,2.53,2.56,5,4.9,6.55,8a46.08,46.08,0,0,1,5,20.3,6.74,6.74,0,0,0,2.94,5.68c6.29,4.68,12.53,9.4,18.8,14.11.13.1.28.19.46.31l1.06-1c-4.5-6.09-7.55-12.63-7.59-20.36a23.44,23.44,0,0,1,3.72,2.33c4.87,4.56,9.13,9.54,11.52,15.71a27.3,27.3,0,0,1,1.45,5.16,4.73,4.73,0,0,0,3.34,3.81c3.36,1.27,6.75,2.47,10.11,3.74,1.36.5,2.69,1.09,4,1.65v.25c-1.27-.15-2.56-.23-3.82-.47a80.92,80.92,0,0,1-30.68-12.74,8.14,8.14,0,0,0-6.87-1.18C67,254,57.46,251.55,49.06,245A13.48,13.48,0,0,1,46.85,242,7.92,7.92,0,0,1,51,240.94c6,.53,12,1,18,1.52l1.3.08-.58-.74L48.91,217.45a4,4,0,0,0-3.75-1.27,27.62,27.62,0,0,1-16.42-3.09,23.64,23.64,0,0,1-10.89-12.17,7,7,0,0,1-.41-1.51,1.49,1.49,0,0,1,1.54-2,22.06,22.06,0,0,1,4.51.4,33.53,33.53,0,0,1,10.13,4.13c2.25,1.24,4.48,2.53,6.71,3.79l.53.26c-.12-.3-.18-.5-.26-.68-4.5-9.56-9-19.09-13.48-28.67a7.55,7.55,0,0,0-4.66-4.22C11,168.46,4,160.65.61,149.85a11.68,11.68,0,0,1,0-3.34c1.43,0,2.81-.33,4.09.62,2.55,1.89,5.21,3.64,7.74,5.55,3.23,2.45,5.62,5.61,8,8.79a27.61,27.61,0,0,0,2.5,3c-.13-.9-.26-1.8-.38-2.7-.54-4-1.22-8.06-1.55-12.12a72.59,72.59,0,0,1,0-8.85c.15-4.29.38-8.57.64-12.85a8.21,8.21,0,0,0-2.19-6.11,28,28,0,0,1-6.6-12.78,26.78,26.78,0,0,1,1.33-15,4,4,0,0,1,1-1.52c1.4-1.3,2.87-2.54,4.36-3.85,1.1,2.2,2.74,4.07,3.05,6.45.34,2.62.59,5.26.81,7.89.25,3.14.43,6.28.65,9.42a3.81,3.81,0,0,0,.07.47l.22.09a28,28,0,0,0,1.4-2.44c3.67-8,7.3-16.12,11-24.18.25-.55.5-1.1.77-1.63a4.42,4.42,0,0,0-.26-4.69,36.87,36.87,0,0,1-3.8-7.65A32.21,32.21,0,0,1,34.74,48c.92-2.08,2.08-4.07,3.18-6.08.58-1.06,1.25-1.56,2.93-2.5a9.32,9.32,0,0,1,2.3,5.24,71.92,71.92,0,0,1,.33,18.54c-.35,3.48-.79,7-1.12,10.45a12.74,12.74,0,0,0,.17,2.23h.21a4.59,4.59,0,0,0,.37-.39c5.48-7.64,11.66-14.78,17.67-22a81.51,81.51,0,0,0,7.46-10.6c2.86-4.87,7.37-7.61,13-8.81a34.36,34.36,0,0,1,7.23-.71,53.44,53.44,0,0,1-4.74,10.48,22.47,22.47,0,0,1-9,8.35c-1.61.83-3.3,1.57-4.9,2.45q-4,2.22-7.89,4.57c-2.68,1.6-4.44,4-6.24,6.38l-18,23.6c-.3.39-.3.63.08,1a4,4,0,0,1,.53.7Z" transform="translate(-0.49 -33.35)"/><text class="cls-2" transform="translate(94.9 170.95) scale(0.92 1)">Книга</text><text class="cls-2" transform="translate(80.17 94.18)">Первая</text></svg>