<svg width="359" height="297" viewBox="0 0 359 297" fill="none" xmlns="http://www.w3.org/2000/svg">
<path d="M162.784 218.207L162.762 218.186L162.737 218.168C162.485 217.986 162.402 217.877 162.361 217.779C162.315 217.667 162.289 217.492 162.314 217.107C162.323 216.978 162.345 216.83 162.376 216.68C168.443 210.149 190.423 183.851 211.091 158.86C221.481 146.296 231.546 134.056 239.1 124.812C242.876 120.19 246.026 116.317 248.275 113.526C249.4 112.13 250.3 111.005 250.941 110.191C251.568 109.396 251.976 108.863 252.084 108.684C255.921 102.294 259.853 95.8353 265.425 91.1238C268.24 88.7474 272.453 86.3714 276.303 85.5881C278.226 85.1967 280.012 85.2121 281.478 85.7766C282.922 86.3327 284.103 87.4395 284.814 89.3434C287.737 97.1959 286.626 106.706 283.364 115.298C279.801 124.603 273.992 133.013 268.202 141.395C267.664 142.175 267.125 142.954 266.588 143.735C262.727 149.337 258.5 154.635 253.827 159.585C250.852 162.731 240.109 172.621 234.387 177.889C233.357 178.837 232.491 179.635 231.861 180.217L231.86 180.218C223.253 188.197 214.282 195.811 204.958 203.059C199.954 206.946 194.876 210.715 189.725 214.352C187.384 216.005 185.151 217.802 182.931 219.588C182.767 219.72 182.603 219.852 182.439 219.984C180.052 221.903 177.67 223.798 175.152 225.503L175.152 225.503C174.144 226.186 173.162 226.781 172.122 226.868C170.909 226.961 169.715 226.352 168.555 225.556L168.553 225.555C167.13 224.588 165.799 223.444 164.615 222.163C164.325 221.848 164.166 221.619 164.148 221.386C164.138 221.186 164.246 220.952 164.451 220.617C165.311 219.261 166.391 218.322 167.584 217.283C167.768 217.123 167.956 216.96 168.145 216.793L168.945 216.087L167.885 215.922C167.447 215.853 167.033 215.956 166.666 216.121C166.301 216.284 165.954 216.523 165.637 216.764C165.453 216.904 165.257 217.064 165.071 217.215C164.949 217.314 164.832 217.409 164.725 217.494C164.438 217.72 164.187 217.898 163.962 218.01C163.865 218.052 163.525 218.175 163.059 218.345C163.044 218.35 163.029 218.356 163.014 218.361C162.964 218.327 162.91 218.296 162.851 218.268L162.784 218.207Z" fill="white" stroke="black"/>
<path d="M278.175 203.281C281.067 204.572 284.119 206.3 287.254 208.022C282.283 218.979 276.149 229.475 272.762 241.125L223.403 235.866C214.19 232.09 208.388 231.219 198.709 231.597C189.954 231.944 181.216 232.217 172.466 232.489C165.634 232.704 158.792 232.894 151.95 233.071C131.928 240.804 111.738 248.037 91.2507 254.235C79.7116 257.712 64.4787 260.589 50.3991 262.827C49.0214 258.848 47.7412 254.826 46.6297 250.754C45.1567 245.368 43.9178 239.836 43.2742 234.237C65.2046 223.045 86.135 210.191 110.815 201.542C118.521 198.841 127.2 196.976 134.342 192.808C136.067 188.898 139.127 185.888 143.179 183.952C144.314 183.399 145.491 182.937 146.677 182.513L146.679 182.513C147.214 182.453 147.749 182.393 148.284 182.345C149.021 182.275 149.769 182.218 150.505 182.161L152.17 181.122C151.912 181.441 151.666 181.76 151.42 182.092C169.061 180.845 186.768 182.517 204.278 184.486C218.093 186.043 231.932 187.788 245.378 191.33C256.364 194.226 267.01 198.309 277.395 202.935C277.659 203.055 277.912 203.161 278.175 203.281Z" fill="black"/>
<path d="M46.8224 227.864L37.2738 230.487L46.6099 268.486L56.1585 265.863L46.8224 227.864Z" fill="black"/>
<path d="M295.16 20.0613C295.564 20.3679 295.655 20.9522 295.714 21.4838C295.877 23.1154 295.909 24.7622 295.799 26.4109C296.201 24.6335 296.903 22.9291 297.865 21.4074C297.997 21.2039 298.259 20.9851 298.424 21.1607C298.501 21.2419 298.506 21.3552 298.51 21.4684C298.557 23.4177 298.038 25.3744 297.057 27.0077C297.835 25.5976 298.827 24.3292 299.983 23.2614C300.184 23.0757 300.408 22.8918 300.67 22.8613C301.144 22.8217 301.533 23.3656 301.523 23.8669C301.512 24.3808 301.235 24.8369 300.937 25.2287C299.84 26.6649 297.008 29.3388 295.37 27.3702C294.737 26.607 294.671 25.1083 294.593 24.161C294.555 23.8443 294.778 19.769 295.16 20.0613Z" fill="black"/>
<path d="M240.395 57.2157C240.324 57.2229 240.265 57.2185 240.207 57.214C237.563 56.9517 206.996 40.1062 206.537 40.4611C206.066 40.8151 216.306 107.231 217.238 108.621C218.051 109.851 237.709 122.002 243.444 125.539C243.361 122.881 241.969 79.3244 240.395 57.2157Z" fill="white"/>
<path d="M242.023 57.4829C241.952 57.4776 241.894 57.4732 241.835 57.4687C239.218 57.0197 209.788 38.0309 209.309 38.3466C208.816 38.6739 214.883 105.683 215.717 107.128C216.456 108.416 235.304 121.943 240.785 125.888C240.891 123.219 242.228 79.6569 242.023 57.4829Z" fill="white"/>
<path d="M274.059 41.5439C273.6 41.1949 242.985 57.877 240.347 58.1177C240.299 58.1267 240.229 58.1214 240.159 58.1161C238.702 77.34 237.303 112.797 236.905 123.465C236.95 123.493 237.007 123.523 237.052 123.551C237.3 123.708 237.452 123.908 237.52 124.127C237.967 124.475 238.401 124.847 238.837 125.195C246.189 120.684 262.295 110.763 263.038 109.662C263.999 108.289 274.542 41.8946 274.059 41.5439Z" fill="white"/>
<path d="M271.282 39.4145C270.798 39.0888 241.309 57.9189 238.693 58.3625C238.646 58.3715 238.587 58.3796 238.516 58.3743C238.239 78.9837 239.199 118.079 239.394 125.637C239.662 125.846 239.943 126.043 240.225 126.228C246.552 121.727 263.846 109.393 264.561 108.177C265.396 106.744 271.766 39.7402 271.282 39.4145Z" fill="white"/>
<path d="M285.284 88.9501C282.252 80.822 270.828 85.6875 265.11 90.5186C259.466 95.2925 255.497 101.825 251.668 108.205C251.416 108.626 248.68 112.037 244.316 117.422C249.46 121.427 254.512 125.575 258.986 130.434C262.351 134.078 265.536 138.3 267.508 143.045C273.649 134.139 280.029 125.188 283.836 115.227C287.119 106.608 288.265 96.9614 285.284 88.9501Z" fill="white"/>
<path d="M278.913 129.594C278.894 129.53 278.886 129.479 278.867 129.415C278.886 129.479 278.905 129.531 278.913 129.594Z" fill="white"/>
<path d="M299.503 84.6215C300.757 84.7881 302.01 84.9792 303.249 85.1939C301.998 84.9783 300.757 84.7881 299.503 84.6215Z" fill="white"/>
<path d="M291.205 83.873C292.535 83.9559 293.854 84.038 295.159 84.1576C293.854 84.038 292.536 83.9431 291.205 83.873Z" fill="white"/>
<path d="M277.704 125.255C277.695 125.229 277.685 125.203 277.687 125.178C277.696 125.204 277.695 125.229 277.704 125.255Z" fill="white"/>
<path d="M295.384 84.174C296.677 84.2926 297.958 84.4228 299.224 84.5895C297.958 84.4228 296.677 84.2926 295.384 84.174Z" fill="white"/>
<path d="M290.235 229.805C292.489 232.219 294.794 234.575 297.313 236.734C300.416 239.393 305.853 244.02 310.028 241.588C313.665 239.475 317.435 229.789 319.63 226.043C323.034 220.251 326.281 214.346 329.315 208.324C335.585 195.882 341.099 182.864 344.636 169.173C351.32 143.313 349.376 115.099 328.29 96.8813C315.793 86.0785 296.812 81.7583 281.194 83.565C279.058 83.8057 276.876 84.1931 275.06 85.3874C272.433 87.1178 270.948 90.257 269.888 93.3553C261.779 116.981 271.074 142.556 266.095 166.636C264.784 172.973 264.079 179.523 263.204 185.983C262.963 187.757 262.721 189.542 262.192 191.229C260.97 195.13 258.302 198.286 255.527 201.12C255.087 201.56 254.632 202.025 254.437 202.636C254.004 203.968 255.014 205.428 256.239 205.991C257.465 206.554 258.84 206.478 260.159 206.534C263.545 206.671 266.912 207.746 269.848 209.626C272.515 211.334 274.787 213.661 277.037 215.975C279.319 218.328 281.613 220.67 283.896 223.024C286.058 225.242 288.122 227.541 290.235 229.805Z" fill="white"/>
<path d="M309.773 241.154L309.773 241.154C310.59 240.68 311.458 239.749 312.346 238.501C313.227 237.263 314.096 235.759 314.928 234.19C315.688 232.755 316.411 231.278 317.08 229.911C317.143 229.783 317.205 229.657 317.266 229.531C317.983 228.068 318.638 226.742 319.198 225.786L319.199 225.786C322.598 220.002 325.84 214.106 328.868 208.095L328.868 208.094C335.129 195.671 340.628 182.688 344.152 169.043L344.152 169.042C350.816 143.262 348.839 115.293 327.966 97.2587L327.966 97.2586C315.597 86.5664 296.765 82.268 281.257 84.062L281.255 84.0622C279.127 84.302 277.049 84.6812 275.337 85.8063C272.858 87.4394 271.417 90.4358 270.36 93.5221L270.36 93.5225C266.341 105.234 266.629 117.445 267.317 129.803C267.384 131.021 267.456 132.241 267.528 133.461C268.183 144.596 268.842 155.821 266.584 166.742L266.095 166.636L266.584 166.742C265.569 171.651 264.919 176.684 264.268 181.725C264.081 183.168 263.895 184.613 263.699 186.056L263.699 186.056L263.695 186.091C263.456 187.846 263.209 189.661 262.669 191.384L262.669 191.384C261.41 195.402 258.67 198.629 255.886 201.472L255.882 201.476C255.429 201.929 255.066 202.314 254.913 202.793L254.913 202.796C254.751 203.294 254.849 203.842 255.147 204.353C255.447 204.866 255.927 205.3 256.444 205.537C257.354 205.955 258.345 205.982 259.443 206.011C259.682 206.017 259.925 206.024 260.175 206.035M309.773 241.154L283.896 223.024L284.252 222.677C284.252 222.677 284.252 222.677 284.252 222.677C283.11 221.5 281.966 220.325 280.822 219.152L280.822 219.152L280.814 219.144C279.672 217.972 278.531 216.802 277.393 215.628L277.393 215.627C275.15 213.321 272.838 210.95 270.114 209.205C267.105 207.278 263.652 206.175 260.175 206.035M309.773 241.154C307.911 242.239 305.715 241.786 303.496 240.627C301.286 239.473 299.193 237.69 297.635 236.355M309.773 241.154L297.635 236.355M260.175 206.035C260.174 206.035 260.174 206.035 260.174 206.034L260.159 206.534L260.175 206.035C260.175 206.035 260.175 206.035 260.175 206.035ZM297.635 236.355C295.138 234.214 292.848 231.875 290.598 229.466L297.635 236.355Z" fill="white" stroke="black"/>
<path d="M328.304 96.8816C315.808 86.0788 296.826 81.7586 281.209 83.5653C280.984 83.5972 280.76 83.6167 280.535 83.6487C281.715 84.6969 282.92 85.7097 284.178 86.6389C286.703 86.856 289.253 86.7365 291.778 86.7905C295.672 86.8677 299.774 87.6387 303.288 89.4527C305.492 90.5839 308.117 91.8871 310.126 93.6294C312.785 95.9508 315.007 100.004 314.88 103.818C314.744 107.919 312.202 111.448 310.395 114.837C308.456 118.454 307.122 122.445 306.494 126.556C306.174 128.611 305.867 130.993 304.22 132.101C303.004 132.918 301.4 132.738 300.097 132.118C298.783 131.498 297.67 130.493 296.477 129.644C292.039 126.476 280.025 123.147 278.051 131.424C277.353 134.363 277.092 137.927 277.207 140.958C277.49 148.277 280.008 155.276 282.317 162.094C283.336 165.098 285.082 167.909 286.415 170.775C287.799 173.746 289.447 176.963 290.167 180.218C290.755 182.861 291.506 186.168 291.176 188.875C290.891 191.271 289.458 193.675 287.273 194.275C285.757 194.691 284.163 194.211 282.69 193.666C275.799 191.089 268.21 185.272 264.072 178.832C263.403 180.859 263.744 184.334 263.144 186.379C262.68 187.984 262.72 189.591 262.219 191.218C260.997 195.118 258.329 198.274 255.554 201.109C255.114 201.549 254.659 202.014 254.464 202.625C254.031 203.956 255.041 205.417 256.266 205.98C257.492 206.543 258.867 206.467 260.186 206.523C263.572 206.659 266.939 207.734 269.875 209.614C272.542 211.322 274.814 213.65 277.064 215.963L283.923 223.013C286.085 225.244 288.16 227.543 290.262 229.794C292.516 232.208 294.821 234.563 297.34 236.723C300.443 239.381 305.88 244.009 310.055 241.576C313.692 239.464 317.462 229.778 319.657 226.032C323.061 220.24 326.308 214.335 329.342 208.312C335.612 195.87 341.127 182.853 344.663 169.161C351.346 143.314 349.391 115.099 328.304 96.8816Z" fill="white"/>
<path d="M279.982 134.009C279.955 133.895 279.94 133.782 279.912 133.68C279.939 133.794 279.965 133.908 279.982 134.009Z" fill="white"/>
<path d="M278.86 129.417C278.514 128.02 278.133 126.633 277.739 125.257C278.133 126.633 278.502 128.032 278.86 129.417Z" fill="white"/>
<path d="M277.673 125.179C277.477 124.484 277.268 123.789 277.048 123.094C277.268 123.789 277.477 124.484 277.673 125.179Z" fill="white"/>
<path d="M279.886 133.68C279.596 132.312 279.271 130.954 278.934 129.595C279.283 130.955 279.596 132.312 279.886 133.68Z" fill="white"/>
<path d="M280.431 136.005C280.302 135.341 280.162 134.676 280.021 134.024C280.467 136.146 280.866 138.29 281.218 140.43C281.346 141.27 281.485 142.124 281.623 142.977C281.363 140.681 280.896 138.356 280.431 136.005Z" fill="white"/>
<path d="M303.367 85.2154C303.32 85.2119 303.286 85.1965 303.239 85.193C303.286 85.1965 303.32 85.2119 303.367 85.2154Z" fill="white"/>
<path d="M299.222 84.589C299.315 84.5958 299.396 84.614 299.489 84.6208C299.408 84.6026 299.315 84.5958 299.222 84.589Z" fill="white"/>
<path d="M159.616 177.137C159.387 175.399 159.524 173.59 160.061 171.914C161.27 168.134 164.417 165.214 168.076 164.494L168.275 165.665C165.053 166.307 162.17 168.973 161.109 172.3C160.048 175.628 160.785 179.641 162.961 182.277L162.135 183.064C160.767 181.409 159.908 179.319 159.616 177.137Z" fill="black"/>
<path d="M39.1375 235.562C38.0096 235.854 36.7083 236.27 36.1753 236.305C34.314 236.454 32.4433 236.388 30.6076 236.15C23.9424 235.296 18.5222 232.742 14.584 226.871C12.4487 223.685 10.3998 220.443 8.41281 217.155C7.99912 216.459 7.5628 215.748 6.94645 215.262C6.31836 214.776 5.44825 214.559 4.76295 214.935C4.19913 215.256 3.87356 215.897 3.6888 216.548C2.72649 219.853 11.5324 242.107 11.5324 242.107C16.5485 252.878 19.6294 258.697 19.6294 258.697L21.4052 263.211C21.3691 263.221 21.3926 263.223 21.4052 263.211L18.9417 264.08C18.9611 264.144 18.9921 264.209 19.0123 264.261L20.7045 269.146C29.7163 266.272 38.5189 262.642 47.2065 258.79L39.1375 235.562Z" fill="#E7B34D"/>
<path d="M311.22 244.041L311.157 244.242L237.742 244.023C218.107 235.379 199.892 214.964 184.342 199.601C177.369 203.925 171.318 209.669 164.933 214.913C149.589 227.524 129.907 239.297 109.82 247.233C104.715 239.101 99.8449 230.811 95.528 222.199C95.767 221.979 96.0178 221.76 96.2451 221.539C119.836 199.479 177.587 147.223 183.297 144.308C185.816 143.019 188.441 142.264 191.08 142.011C192.233 141.897 194.484 143.393 195.577 143.838C197.232 144.525 198.899 145.213 200.553 145.913C204.16 147.448 207.764 149.02 211.327 150.676C219.589 154.5 227.681 158.737 235.518 163.443C255.484 175.443 273.672 190.564 289.496 208.189C295.962 215.384 302.025 222.962 307.701 230.849C309.205 232.927 312.158 235.415 312.494 238.169C312.658 239.457 311.756 242.332 311.22 244.041Z" fill="black"/>
<path d="M72.2054 238.035C71.2496 238.741 70.1748 239.638 69.6984 239.878C68.0129 240.73 66.2449 241.399 64.4534 241.892C57.9489 243.672 52.0175 243.402 46.3418 239.465C43.2614 237.328 40.2337 235.107 37.2581 232.815C36.6293 232.329 35.9897 231.83 35.2362 231.622C34.4835 231.403 33.6011 231.537 33.0873 232.163C32.6758 232.671 32.5916 233.405 32.6408 234.086C32.8724 237.526 48.6964 254.826 48.6964 254.826C57.0597 262.902 61.9261 267.116 61.9261 267.116L65.1275 270.629C65.1024 270.652 65.115 270.641 65.1275 270.629L63.1213 272.397C63.165 272.45 63.2095 272.491 63.2531 272.545L66.5119 276.438C73.9334 270.275 80.8888 263.488 87.6772 256.55L72.2054 238.035Z" fill="#E7B34D"/>
<path d="M287.639 85.1576C288.095 84.0107 288.22 82.7933 288.25 81.6003C288.264 81.0561 288.257 80.5077 288.251 79.9709C288.25 79.9187 288.25 79.8667 288.249 79.8148C288.242 79.2245 288.238 78.6483 288.261 78.084C288.355 75.7842 288.728 73.4824 290.046 71.852C291.004 70.674 292.385 69.9448 293.844 69.3482L293.844 69.3483L293.849 69.3465C295.748 68.5494 297.721 67.9534 299.718 67.3626C301.455 66.8511 303.16 66.3542 304.91 66.1312C305.232 66.0908 305.505 65.8944 305.715 65.7001C305.936 65.495 306.155 65.2276 306.366 64.9386C306.715 64.4598 307.081 63.8668 307.435 63.2938C307.507 63.1771 307.578 63.0613 307.649 62.9474C308.079 62.2545 308.478 61.6406 308.831 61.2517C309.005 61.0603 309.133 60.9641 309.212 60.9265C309.217 60.9349 309.222 60.945 309.228 60.9568C309.261 61.0269 309.297 61.1319 309.334 61.2795C309.406 61.5749 309.463 61.9828 309.506 62.4961C309.592 63.5203 309.619 64.8842 309.639 66.4414C309.642 66.6775 309.644 66.9179 309.647 67.162C309.682 70.1162 309.724 73.608 310.123 76.5547L310.137 76.6584C310.454 79.0354 310.776 81.4591 311.701 83.7602L311.701 83.7608C311.916 84.2945 312.167 84.8122 312.406 85.306C312.445 85.3873 312.484 85.4679 312.522 85.5478C312.798 86.1217 313.05 86.6647 313.233 87.2092C313.591 88.277 313.679 89.329 313.111 90.5343C312.525 91.7732 311.546 92.7407 310.494 93.7484C307.524 96.5646 304.423 99.2708 300.773 100.606C297.977 101.624 294.901 101.79 292.059 100.983L292.057 100.982C289.213 100.187 286.601 98.4159 284.774 95.9532C283.73 94.541 282.943 92.8981 282.691 91.1588C282.509 89.8745 282.624 88.5167 283.097 87.3287L283.097 87.3283C283.353 86.6822 283.639 86.4093 283.963 86.2531C284.332 86.0757 284.798 86.0198 285.527 85.9324L285.541 85.9307C285.541 85.9307 285.542 85.9306 285.543 85.9305C285.57 85.9274 285.597 85.9244 285.624 85.9213C286.146 85.8622 286.551 85.8163 286.96 85.9144L287.576 86.0622L287.572 85.4295C287.572 85.3613 287.59 85.2845 287.639 85.1576Z" fill="white" stroke="black"/>
<path d="M289.5 23.6397C286.629 23.9256 283.939 25.393 281.755 27.3885C275.281 33.3051 273.482 44.2584 277.672 52.172C280.007 50.0247 282.353 47.8783 284.687 45.7435C289.053 41.7526 293.498 37.6421 296.327 32.3046C297.338 30.3966 298.279 27.9308 296.857 26.1031C295.261 24.0363 291.837 23.414 289.5 23.6397Z" fill="black"/>
<path d="M308.719 36.9063L308.719 36.9062C306.623 34.4687 303.344 32.9245 299.829 32.272C296.317 31.6199 292.635 31.8716 289.783 32.9555C286.338 34.2657 283.3 36.8964 281.638 40.3248C280.843 41.9802 280.352 43.8054 279.96 45.6577C278.592 52.1976 278.478 59.0311 279.641 65.5984C280.137 68.3875 280.896 71.1214 282.649 73.069L308.719 36.9063ZM308.719 36.9063C311.077 39.6481 311.492 43.7334 311.292 47.6425L311.291 47.6431M308.719 36.9063L311.291 47.6431M311.291 47.6431C311.002 53.4154 309.651 59.173 306.865 64.1141C304.079 69.0564 299.796 73.131 294.696 74.9992L294.696 74.9994M311.291 47.6431L294.696 74.9994M294.696 74.9994C290.538 76.5277 285.538 76.2736 282.649 73.0693L294.696 74.9994Z" fill="white" stroke="black"/>
<path d="M285.987 58.63C285.884 58.0441 285.809 57.4099 285.813 56.8069C285.824 55.7518 285.67 54.6969 285.681 53.6419C285.687 52.4859 285.565 51.2952 285.502 50.1214C285.491 49.932 285.767 49.8397 285.824 50.0452C286.084 50.9195 286.019 51.9076 286.123 52.8205C286.213 53.6066 286.253 54.4266 286.271 55.2199C286.294 56.1141 286.388 57.0136 286.482 57.9006C286.533 58.3696 286.536 59.036 286.915 59.3538C287.362 59.7143 288.084 59.6432 288.596 59.5436C289.013 59.4619 289.179 60.1533 288.763 60.2224C287.967 60.3508 287 60.3909 286.385 59.7285C286.123 59.4196 286.066 59.0382 285.987 58.63Z" fill="black"/>
<path d="M286.352 65.4105C286.727 65.4513 286.895 65.7649 287.176 65.9742C287.739 66.3802 288.223 66.5671 288.922 66.3437C289.501 66.1614 289.969 65.6949 290.264 65.1527C290.547 64.6346 290.865 63.9311 290.986 63.3507C291.021 63.1777 291.26 63.1454 291.318 63.3255C291.514 63.9297 291.126 64.8035 290.877 65.3493C290.548 66.0394 290.091 66.5193 289.443 66.8594C288.953 67.1237 288.262 67.2222 287.728 67.0818C287.461 67.0116 287.245 66.8825 287.02 66.7151C286.885 66.6171 286.716 66.504 286.605 66.3953C286.505 66.3 286.402 66.0666 286.262 66.056C285.851 66.0126 285.964 65.3814 286.352 65.4105Z" fill="black"/>
<path d="M290.634 45.0545C290.718 44.8605 290.948 44.7651 291.165 44.7061C292.453 44.3393 293.643 44.5662 294.85 45.0697C295.941 45.5272 296.845 46.1458 297.255 47.2659C297.294 47.3816 297.335 47.4848 297.326 47.6094C297.317 47.9217 297.019 48.1498 296.716 48.2649C295.915 48.5806 295.192 48.2634 294.429 48.0185C293.527 47.7255 292.66 47.2724 291.854 46.7738C291.309 46.445 290.746 46.0271 290.61 45.4159C290.594 45.302 290.579 45.1632 290.634 45.0545Z" fill="black"/>
<path d="M278.252 45.6242C278.229 45.4347 278.348 45.2433 278.464 45.1017C279.198 44.1925 280.145 43.8002 281.221 43.6053C282.201 43.4283 283.12 43.472 283.925 44.1459C284.004 44.2143 284.082 44.2828 284.135 44.3744C284.272 44.6226 284.168 44.9404 284.01 45.179C283.59 45.8111 282.934 45.9122 282.284 46.089C281.515 46.2943 280.695 46.3582 279.903 46.3739C279.371 46.3842 278.772 46.3268 278.409 45.924C278.333 45.8306 278.268 45.7381 278.252 45.6242Z" fill="black"/>
<path d="M291.473 53.3038C291.631 54.1191 292.386 54.6404 293.153 54.4722C293.919 54.3039 294.409 53.4997 294.251 52.6844C294.092 51.8691 293.337 51.3478 292.57 51.5161C291.804 51.6843 291.314 52.4885 291.473 53.3038Z" fill="black"/>
<path d="M280.142 51.5561C280.3 52.3717 280.947 52.9228 281.582 52.7822C282.216 52.6416 282.609 51.8675 282.451 51.0519C282.293 50.2363 281.646 49.6852 281.011 49.8258C280.377 49.9664 279.983 50.7404 280.142 51.5561Z" fill="black"/>
<path d="M303.619 49.6618C305.532 50.3453 307.568 50.7745 309.721 50.8737C309.932 50.8896 310.167 50.9073 310.322 51.057C310.466 51.2058 310.486 51.4332 310.496 51.6347C310.652 55.1473 307.117 58.6331 308.397 62.0922C310.58 61.9176 311.526 59.2158 312.89 57.6872C314.509 55.8641 316.371 54.2978 318.091 52.5701C320.997 49.6644 323.666 45.8876 323.452 41.6555C323.235 37.4732 320.229 34.06 317.014 31.6599C312.192 28.0597 306.448 25.9085 300.584 25.3794C297.653 25.1087 288.136 24.3424 287.324 28.924C287.004 30.7193 288.388 33.333 289.074 34.9029C292.071 41.8288 297.121 47.3158 303.619 49.6618Z" fill="black"/>
<path d="M296.514 56.2799C297.223 56.6337 297.897 57.3232 297.818 58.1567C297.785 58.48 297.634 58.7944 297.451 59.0563C296.515 60.3517 294.772 60.6345 293.232 60.5315C291.598 60.4215 288.345 58.3734 290.538 56.4707C291.804 55.3629 295.142 55.6007 296.514 56.2799Z" fill="white"/>
<path d="M278.472 57.9033C278.411 56.6952 278.398 55.4781 278.419 54.2636C279.859 53.7324 282.215 53.9846 283.29 54.5166C283.952 54.8546 284.593 55.5046 284.518 56.2887C284.485 56.5997 284.348 56.8903 284.167 57.1274C283.294 58.3532 281.66 58.6066 280.215 58.4981C279.709 58.4726 279.063 58.2486 278.472 57.9033Z" fill="white"/>
<path d="M308.089 49.3763C308.24 49.4251 308.363 49.522 308.526 49.5592C308.666 49.5946 308.796 49.5918 308.939 49.565C309.107 49.54 309.146 49.8308 308.989 49.8816C308.653 49.9691 308.108 49.9785 307.907 49.6255C307.845 49.4957 307.951 49.3284 308.089 49.3763Z" fill="white"/>
<path d="M313.538 57.6229L313.54 57.6213C314.69 56.6637 315.37 55.0686 315.235 53.5199C315.1 51.969 314.126 50.5335 312.824 49.9707C312.104 49.661 311.294 49.5922 310.51 49.7322C309.732 49.874 308.908 50.299 308.245 50.9206C307.582 51.5416 307.109 52.3303 306.983 53.1785L313.538 57.6229ZM313.538 57.6229C312.401 58.5795 310.823 58.9184 309.403 58.5669M313.538 57.6229L309.403 58.5669M309.403 58.5669C308.933 58.4498 308.495 58.2603 308.148 57.9759C307.62 57.534 307.258 56.7661 307.066 55.8478C306.875 54.9395 306.867 53.9577 306.983 53.1786L309.403 58.5669Z" fill="white" stroke="black"/>
<path d="M306.196 53.5362C306.652 52.9235 307.241 52.4089 307.845 52.0204C308.757 51.4442 309.927 51.0386 310.954 51.4953C312.197 52.0568 312.824 53.6675 312.077 54.906C310.745 57.0964 308.183 56.8788 306.384 55.5362C306.242 54.8881 306.174 54.1836 306.196 53.5362Z" fill="white"/>
<path d="M310.487 51.8962C310.488 51.8839 310.476 51.8829 310.477 51.8705C310.456 51.8315 310.461 51.7696 310.476 51.7209C310.659 51.2995 311.526 51.5429 311.837 51.6424C312.552 51.8737 313.041 52.6103 313.164 53.3676C313.181 53.4686 313.038 53.4946 313.009 53.4051C312.819 52.9166 312.266 52.2372 311.795 52.0751C311.622 52.0115 310.929 51.8193 310.766 51.9558C310.679 52.0236 310.563 51.9895 310.51 51.9105C310.498 51.9096 310.498 51.9096 310.487 51.8962Z" fill="white"/>
<path d="M309.989 55.0814C309.937 54.4867 310.082 53.9079 310.44 53.4469C310.516 53.3526 310.659 53.4772 310.605 53.5859C310.403 53.9842 310.348 54.6079 310.387 55.0509C310.42 55.4179 310.439 55.809 310.651 56.1151C310.746 56.2485 310.844 56.3444 310.892 56.499C310.929 56.6277 310.805 56.7433 310.703 56.7098C310.076 56.5083 310.03 55.6627 309.989 55.0814Z" fill="white"/>
<path d="M237.898 58.7745C240.276 59.0163 270.516 48.0394 279.748 44.0154C279.83 44.0215 279.994 109.046 280.233 108.637C280.305 108.618 241.022 126.997 241.022 126.997C241.022 126.997 215.85 111.559 214.874 110.105C213.951 108.718 203.684 42.3806 204.156 42.027C204.638 41.6868 235.261 58.5133 237.898 58.7745Z" fill="#E7B34D"/>
<path d="M267.013 101.476C266.183 99.2401 265.33 97.0148 264.525 94.7555C263.85 92.8578 263.273 90.9046 262.318 89.1365C261.436 87.5121 260.244 85.9522 258.587 85.1865C256.576 84.2558 254.43 84.8226 252.52 85.7463C252.423 85.7893 252.327 85.8072 252.246 85.7885C249.262 87.6238 249.684 91.7513 250.247 94.9848C250.716 97.6837 251.793 100.629 251.551 103.4C251.22 107.32 248.789 110.604 249.038 114.668C249.203 117.332 249.79 120.027 250.611 122.564C256.64 119.74 264.42 116.08 270.51 113.223C269.761 109.247 268.422 105.276 267.013 101.476Z" fill="#CD9A35"/>
<path d="M238.012 58.8054C237.94 58.8126 237.882 58.8082 237.823 58.8037C235.18 58.5414 204.613 41.6959 204.154 42.0508C203.683 42.4048 213.922 108.821 214.855 110.21C215.668 111.44 235.326 123.592 241.061 127.129C240.99 124.46 239.587 80.9016 238.012 58.8054Z" fill="#CD9A35"/>
<path d="M256.652 95.8218L256.657 95.7471L256.658 95.7442C256.884 95.2648 257.186 94.6032 257.061 93.8912C256.993 93.5083 256.818 93.1816 256.683 92.935C255.412 90.5726 254.276 88.1204 253.284 85.604L253.284 85.604L253.283 85.6007C253.197 85.3882 253.134 85.1888 253.116 85.017C253.099 84.8544 253.127 84.7638 253.166 84.7079C253.2 84.6679 253.224 84.6612 253.248 84.6581C253.288 84.653 253.364 84.6591 253.482 84.708C253.722 84.8079 253.999 85.0309 254.206 85.2739L254.207 85.2745C256.424 87.8607 258.563 90.4998 260.708 93.1461C262.272 95.0764 263.84 97.0106 265.443 98.931L266.274 98.3953C266.005 97.8451 265.728 97.3159 265.455 96.7935C264.846 95.6306 264.255 94.502 263.811 93.2533C263.78 93.1657 263.688 92.8064 263.559 92.2664C263.434 91.7441 263.282 91.0916 263.133 90.4517C263.116 90.3781 263.099 90.3047 263.082 90.2316C262.964 89.7233 262.851 89.2338 262.757 88.8392C263.011 88.9771 263.258 89.1553 263.5 89.3661C263.989 89.7919 264.433 90.325 264.875 90.8738L264.876 90.8742C272.492 100.315 280.106 109.758 287.719 119.201L287.721 119.203C295.335 128.648 302.949 138.092 310.566 147.533L311.429 148.602L311.454 147.234C311.52 143.574 311.587 139.902 311.664 136.244L311.665 136.243C311.809 128.544 311.996 120.729 314.752 113.732L314.752 113.732C316.137 110.209 319.328 105.26 323.079 101.949C324.954 100.293 326.933 99.0789 328.863 98.6299C330.768 98.1864 332.637 98.484 334.369 99.88L334.369 99.88C337.939 102.756 340.359 107.224 342.088 112.205C343.816 117.181 344.836 122.609 345.647 127.357L345.647 127.358C347.408 137.594 346.492 148.08 345.58 158.539C345.494 159.526 345.408 160.512 345.324 161.497C345.293 161.865 345.262 162.232 345.231 162.599C344.669 169.276 344.107 175.959 341.875 182.119C339.509 188.614 334.945 194.504 328.801 196.435L328.8 196.435C322.908 198.297 316.338 196.264 311.203 192.454L311.202 192.453C306.05 188.639 302.114 183.259 298.32 177.823C290.391 166.442 282.886 154.729 275.861 142.702L275.861 142.702C271.173 134.687 266.684 126.525 262.414 118.253C261.886 117.228 261.347 116.206 260.808 115.184C259.171 112.078 257.531 108.968 256.173 105.767L256.173 105.767C254.709 102.316 254.967 99.3129 256.61 95.9087L256.652 95.8218Z" fill="white" stroke="black"/>
<path d="M330.914 137.965L330.914 137.965C330.363 138.027 329.809 138.089 329.254 138.151C323.067 138.838 316.628 139.554 310.775 142.15C310.788 141.554 310.801 140.953 310.813 140.353C310.831 139.524 310.848 138.698 310.868 137.893L310.868 137.89C311.024 129.662 311.222 121.307 314.163 113.832L314.163 113.831C315.641 110.064 319.051 104.769 323.06 101.225C325.065 99.4535 327.183 98.1514 329.251 97.6696C331.295 97.1934 333.3 97.5132 335.158 99.0129L335.158 99.013C338.973 102.091 341.557 106.867 343.405 112.189C345.251 117.504 346.343 123.304 347.215 128.378C347.7 131.211 347.988 134.055 348.144 136.926C347.029 136.939 345.914 136.973 344.809 137.007C344.522 137.015 344.237 137.024 343.952 137.033C339.577 137.144 335.25 137.473 330.914 137.965Z" fill="white" stroke="black"/>
<path d="M97.4406 215.498L89.5012 220.935L108.815 252.608L116.755 247.172L97.4406 215.498Z" fill="black"/>
<path d="M310.164 143.577L309.756 142.482C312.128 141.525 314.636 141.135 317.062 140.751C328.148 139.013 339.618 137.205 351.03 136.556L351.089 137.724C339.736 138.377 328.291 140.175 317.228 141.915C314.875 142.279 312.413 142.673 310.164 143.577Z" fill="black"/>
<path d="M112.41 239.232L111.943 238.163C127.956 230.472 142.363 219.298 156.297 208.484C165.099 201.656 175.074 193.925 180.565 183.045L180.908 182.375L181.438 182.889C200.418 201.025 220.67 216.688 243.347 230.776L242.78 231.788C220.238 217.785 200.096 202.231 181.21 184.264C175.538 195.03 165.676 202.671 156.961 209.432C142.978 220.278 128.521 231.486 112.41 239.232Z" fill="white"/>
<path d="M284.214 234.717C284.052 234.704 283.892 234.641 283.736 234.54C283.178 234.169 282.888 233.292 282.852 232.636C282.472 224.674 286.28 216.787 292.545 212.527C292.864 212.314 293.392 212.269 293.711 212.558C293.942 212.765 294.012 213.097 293.886 213.401L292.867 212.942C292.811 213.075 292.835 213.228 292.908 213.359C292.98 213.491 293.104 213.551 293.14 213.541C287.195 217.565 283.591 225.041 283.954 232.575C283.98 233.054 284.206 233.487 284.32 233.534L284.759 234.611C284.578 234.697 284.4 234.732 284.214 234.717Z" fill="white"/>
<path d="M287.91 236.932C287.377 228.95 290.219 220.853 295.499 215.239L296.279 216.094C291.225 221.462 288.512 229.218 289.022 236.859L287.91 236.932Z" fill="white"/>
<path d="M306.5 231C306.5 231 304.039 238.315 296 244M247.5 233.5C247.5 233.5 249.74 239.187 256.5 244" stroke="white"/>
<path d="M322.811 198.586C314.882 197.788 308.262 191.798 305.98 189.478C302.546 185.992 299.622 182.11 296.425 177.768C293.4 173.653 290.424 169.354 287.326 164.608C280.928 154.825 275.057 144.747 270.662 137.061C270.117 136.118 269.573 135.162 269.03 134.207C264.402 126.165 258.121 112.731 254.994 103.76L257.541 108.474C260.617 117.341 265.37 125.605 269.967 133.595C270.511 134.55 271.067 135.494 271.599 136.449C275.995 144.122 281.844 154.186 288.233 163.931C291.321 168.651 294.286 172.937 297.289 177.038C300.453 181.339 303.343 185.194 306.723 188.613C309.664 191.598 320.08 200.941 330.819 196.117C339.869 192.046 342.512 180.652 343.717 172.44C343.922 171.045 345.478 162.874 345.649 161.614L345.384 168.514C345.224 169.775 345.028 171.209 344.822 172.616C343.585 181.112 340.82 192.897 331.259 197.202C328.39 198.521 325.52 198.853 322.811 198.586Z" fill="black"/>
<path d="M326.686 191.997C322.803 191.623 319.04 189.722 316.368 186.753L317.181 185.948C319.994 189.089 324.127 190.945 328.252 190.891C329.719 190.868 331.713 190.564 332.909 189.181L333.738 189.976C332.58 191.324 330.687 192.045 328.264 192.069C327.744 192.066 327.214 192.05 326.686 191.997Z" fill="black"/>
<path d="M181.935 151.438L180.949 150.886C182.709 147.352 186.931 145.494 190.548 146.678L190.22 147.81C187.144 146.806 183.434 148.43 181.935 151.438Z" fill="white"/>
<path d="M90.0175 220.884L89.0581 221.519L108.637 253.786L109.596 253.152L90.0175 220.884Z" fill="black"/>
<path d="M97.9111 215.65L96.956 216.291L116 247.221L116.955 246.58L97.9111 215.65Z" fill="white"/>
<path d="M105.039 245.82L104.659 244.703C107.102 243.775 109.352 242.245 111.175 240.268L111.976 241.094C110.038 243.198 107.639 244.829 105.039 245.82Z" fill="black"/>
<path d="M314.163 239.49C299.566 219.801 283.144 201.465 265.356 184.981L266.089 184.09C283.921 200.615 300.386 219.005 315.038 238.761L314.163 239.49Z" fill="black"/>
<path d="M294.752 101.738C290.512 101.317 286.488 99.3463 283.754 96.1468C281.936 94.0141 281.009 91.6281 281.152 89.4508C281.318 86.9395 283.263 84.3071 285.888 84.3769L285.863 85.5563C283.909 85.502 282.403 87.6094 282.278 89.5394C282.158 91.3952 282.977 93.4742 284.6 95.3677C288.379 99.7936 294.814 101.693 300.625 100.086C306.111 98.5777 310.929 94.1818 313.528 88.318L314.542 88.8206C311.803 94.9967 306.708 99.632 300.91 101.227C298.889 101.777 296.802 101.936 294.752 101.738Z" fill="black"/>
<path d="M265.677 139.634C262.061 133.257 257.149 127.588 251.472 123.246L252.128 122.286C257.926 126.738 262.936 132.527 266.637 139.023L265.677 139.634Z" fill="black"/>
<path d="M260.216 107.435C257.831 104.965 255.836 101.964 254.468 98.7248L255.477 98.2304C256.797 101.328 258.694 104.209 260.993 106.572L260.216 107.435Z" fill="black"/>
<path d="M262.395 104.498C259.935 101.609 257.802 98.3962 256.072 94.9654L257.051 94.406C258.739 97.7584 260.819 100.892 263.215 103.701L262.395 104.498Z" fill="black"/>
<path d="M310.669 137.135L310.42 135.988C322.735 133.047 335.354 130.811 347.908 129.35L348.027 130.511C335.509 131.975 322.937 134.202 310.669 137.135Z" fill="black"/>
<path d="M265.555 131.346C265.479 131.252 265.103 130.922 264.904 130.744C264.539 130.415 264.439 130.332 264.375 130.239C261.727 126.616 258.718 123.276 255.435 120.315L256.158 119.411C259.508 122.415 262.561 125.808 265.252 129.485C265.307 129.539 265.495 129.704 265.627 129.827C266.347 130.46 266.467 130.594 266.547 130.788L265.505 131.217C265.523 131.293 265.555 131.346 265.555 131.346Z" fill="black"/>
<path d="M263.362 181.176L262.291 180.879C266.228 163.859 267.284 146.376 265.413 128.93L266.501 128.788C268.397 146.387 267.333 164.008 263.362 181.176Z" fill="black"/>
</svg>
