<?xml version="1.0" encoding="utf-8"?>
<!-- Generator: Adobe Illustrator 24.0.1, SVG Export Plug-In . SVG Version: 6.00 Build 0)  -->
<svg version="1.1" id="Слой_1" xmlns="http://www.w3.org/2000/svg" xmlns:xlink="http://www.w3.org/1999/xlink" x="0px" y="0px"
	 viewBox="0 0 359 297" style="enable-background:new 0 0 359 297;" xml:space="preserve">
<style type="text/css">
	.st0{fill:none;stroke:#000000;stroke-miterlimit:10;}
	.st1{fill:#FFFFFF;stroke:#000000;}
	.st2{fill:#F9F4C2;stroke:#000000;}
	.st3{fill:#FFFFFF;}
	.st4{fill:#F9F4C2;}
	.st5{fill:#E7B34D;}
	.st6{fill:#EFEFEF;}
	.st7{fill:#CD9A35;}
	.st8{fill:none;stroke:#FFFFFF;}
	.st9{fill:none;stroke:#000000;}
	.st10{fill:#FFFFFF;stroke:#662210;stroke-width:0.5;stroke-miterlimit:10;}
	.st11{fill:#DB3B3B;}
	.st12{fill:#FFFFFF;stroke:#662211;stroke-width:0.5;stroke-miterlimit:10;}
	.st13{fill:#5E5E0D;}
	.st14{fill:#808013;}
	.st15{fill:url(#SVGID_1_);}
	.st16{fill:url(#SVGID_2_);}
	.st17{fill:url(#SVGID_3_);}
	.st18{fill:url(#SVGID_4_);}
	.st19{fill:url(#SVGID_5_);}
	.st20{fill:url(#SVGID_6_);}
	.st21{fill:#D9C71F;}
	.st22{opacity:0.7;fill:#AE89E6;}
	.st23{opacity:0.8;fill:url(#SVGID_7_);}
	.st24{fill:url(#SVGID_8_);}
	.st25{opacity:0.6;fill:url(#SVGID_9_);}
	.st26{fill:#B39BC7;}
	.st27{fill:#EED4CA;}
	.st28{fill:#6561C5;}
	.st29{opacity:0.5;fill:url(#SVGID_10_);}
</style>
<path class="st0" d="M289,50.6c-0.1,4.2,0,7.7,0.2,10.3c0.5,6.8,1.2,8.8,2.3,10.5c1.3,2,3,3.2,4.2,3.9c1.4,0.4,5,1.2,9.2-0.1
	c3.8-1.1,6.1-3.4,7.1-4.4c1.5-1.3,3.7-3.5,5.4-6.6c1.1-2,1.8-3.9,2.2-5.4"/>
<path d="M299.7,23.9c-2.9,0.3-5.6,1.8-7.7,3.7c-6.5,5.9-8.3,16.9-4.1,24.8c2.3-2.1,4.7-4.3,7-6.4c4.4-4,8.8-8.1,11.6-13.4
	c1-1.9,2-4.4,0.5-6.2C305.5,24.3,302.1,23.7,299.7,23.9z"/>
<path class="st1" d="M173,218.5L173,218.5L173,218.5c-0.3-0.2-0.4-0.3-0.4-0.4c0-0.1-0.1-0.3,0-0.7c0-0.1,0-0.3,0.1-0.4
	c6.1-6.5,28-32.8,48.7-57.8c10.4-12.6,20.5-24.8,28-34c3.8-4.6,6.9-8.5,9.2-11.3c1.1-1.4,2-2.5,2.7-3.3c0.6-0.8,1-1.3,1.1-1.5
	c3.8-6.4,7.8-12.8,13.3-17.6c2.8-2.4,7-4.8,10.9-5.5c1.9-0.4,3.7-0.4,5.2,0.2c1.4,0.6,2.6,1.7,3.3,3.6c2.9,7.9,1.8,17.4-1.4,26
	c-3.6,9.3-9.4,17.7-15.2,26.1c-0.5,0.8-1.1,1.6-1.6,2.3c-3.9,5.6-8.1,10.9-12.8,15.9c-3,3.1-13.7,13-19.4,18.3
	c-1,0.9-1.9,1.7-2.5,2.3l0,0c-8.6,8-17.6,15.6-26.9,22.8c-5,3.9-10.1,7.7-15.2,11.3c-2.3,1.7-4.6,3.4-6.8,5.2
	c-0.2,0.1-0.3,0.3-0.5,0.4c-2.4,1.9-4.8,3.8-7.3,5.5l0,0c-1,0.7-2,1.3-3,1.4c-1.2,0.1-2.4-0.5-3.6-1.3l0,0c-1.4-1-2.8-2.1-3.9-3.4
	c-0.3-0.3-0.4-0.5-0.5-0.8c0-0.2,0.1-0.4,0.3-0.8c0.9-1.4,1.9-2.3,3.1-3.3c0.2-0.2,0.4-0.3,0.6-0.5l0.8-0.7l-1.1-0.2
	c-0.4-0.1-0.9,0-1.2,0.2c-0.4,0.2-0.7,0.4-1,0.6c-0.2,0.1-0.4,0.3-0.6,0.5c-0.1,0.1-0.2,0.2-0.3,0.3c-0.3,0.2-0.5,0.4-0.8,0.5
	c-0.1,0-0.4,0.2-0.9,0.3l0,0C173.2,218.6,173.1,218.6,173,218.5L173,218.5z"/>
<path d="M288.4,203.5c2.9,1.3,5.9,3,9.1,4.7c-5,11-11.1,21.5-14.5,33.1l-49.4-5.3c-9.2-3.8-15-4.6-24.7-4.3
	c-8.8,0.3-17.5,0.6-26.2,0.9c-6.8,0.2-13.7,0.4-20.5,0.6c-20,7.7-40.2,15-60.7,21.2c-11.5,3.5-26.8,6.4-40.9,8.6
	c-1.4-4-2.7-8-3.8-12.1c-1.5-5.4-2.7-10.9-3.4-16.5c21.9-11.2,42.9-24,67.5-32.7c7.7-2.7,16.4-4.6,23.5-8.7c1.7-3.9,4.8-6.9,8.8-8.9
	c1.1-0.6,2.3-1,3.5-1.4l0,0c0.5-0.1,1.1-0.1,1.6-0.2c0.7-0.1,1.5-0.1,2.2-0.2l1.7-1c-0.3,0.3-0.5,0.6-0.8,1
	c17.6-1.2,35.3,0.4,52.9,2.4c13.8,1.6,27.7,3.3,41.1,6.8c11,2.9,21.6,7,32,11.6C287.9,203.3,288.1,203.4,288.4,203.5z"/>
<path d="M57,228.1l-9.5,2.6l9.3,38l9.5-2.6L57,228.1z"/>
<path d="M305.4,20.3c0.4,0.3,0.5,0.9,0.6,1.4c0.2,1.6,0.2,3.3,0.1,4.9c0.4-1.8,1.1-3.5,2.1-5c0.1-0.2,0.4-0.4,0.6-0.2
	c0.1,0.1,0.1,0.2,0.1,0.3c0,1.9-0.5,3.9-1.5,5.5c0.8-1.4,1.8-2.7,2.9-3.7c0.2-0.2,0.4-0.4,0.7-0.4c0.5,0,0.9,0.5,0.9,1
	s-0.3,1-0.6,1.4c-1.1,1.4-3.9,4.1-5.6,2.1c-0.6-0.8-0.7-2.3-0.8-3.2C304.8,24.1,305,20,305.4,20.3z"/>
<path class="st2" d="M295.5,89.2c-3-8.1-14.5-3.3-20.2,1.6c-5.6,4.8-9.6,11.3-13.4,17.7c-0.3,0.4-3,3.8-7.4,9.2
	c5.1,4,10.2,8.2,14.7,13c3.4,3.6,6.6,7.9,8.5,12.6c6.1-8.9,12.5-17.9,16.3-27.8C297.3,106.9,298.5,97.2,295.5,89.2z"/>
<path class="st3" d="M289.1,129.9c0-0.1,0-0.1,0-0.2C289.1,129.7,289.1,129.8,289.1,129.9z"/>
<path class="st3" d="M309.7,84.9c1.3,0.2,2.5,0.4,3.7,0.6C312.2,85.2,311,85,309.7,84.9z"/>
<path class="st3" d="M301.4,84.1c1.3,0.1,2.6,0.2,4,0.3C304.1,84.3,302.8,84.2,301.4,84.1z"/>
<path class="st3" d="M287.9,125.5L287.9,125.5L287.9,125.5z"/>
<path class="st3" d="M305.6,84.4c1.3,0.1,2.6,0.2,3.8,0.4C308.2,84.7,306.9,84.6,305.6,84.4z"/>
<path class="st3" d="M300.5,230.1c2.3,2.4,4.6,4.8,7.1,6.9c3.1,2.7,8.5,7.3,12.7,4.9c3.6-2.1,7.4-11.8,9.6-15.5
	c3.4-5.8,6.7-11.7,9.7-17.7c6.3-12.4,11.8-25.5,15.3-39.2c6.7-25.9,4.7-54.1-16.3-72.3C326,86.3,307,82,291.4,83.8
	c-2.1,0.2-4.3,0.6-6.1,1.8c-2.6,1.7-4.1,4.9-5.2,8c-8.1,23.6,1.2,49.2-3.8,73.3c-1.3,6.3-2,12.9-2.9,19.3c-0.2,1.8-0.5,3.6-1,5.2
	c-1.2,3.9-3.9,7.1-6.7,9.9c-0.4,0.4-0.9,0.9-1.1,1.5c-0.4,1.3,0.6,2.8,1.8,3.4c1.2,0.6,2.6,0.5,3.9,0.5c3.4,0.1,6.8,1.2,9.7,3.1
	c2.7,1.7,4.9,4,7.2,6.3c2.3,2.4,4.6,4.7,6.9,7C296.3,225.5,298.3,227.8,300.5,230.1z"/>
<path class="st2" d="M320,241.4L320,241.4c0.8-0.5,1.7-1.4,2.6-2.7c0.9-1.2,1.8-2.7,2.6-4.3c0.8-1.4,1.5-2.9,2.2-4.3
	c0.1-0.1,0.1-0.3,0.2-0.4c0.7-1.5,1.4-2.8,1.9-3.7l0,0c3.4-5.8,6.6-11.7,9.7-17.7l0,0c6.3-12.4,11.8-25.4,15.3-39.1l0,0
	c6.7-25.8,4.7-53.7-16.2-71.8l0,0c-12.4-10.7-31.2-15-46.7-13.2l0,0c-2.1,0.2-4.2,0.6-5.9,1.7c-2.5,1.6-3.9,4.6-5,7.7l0,0
	c-4,11.7-3.7,23.9-3,36.3c0.1,1.2,0.1,2.4,0.2,3.7c0.7,11.1,1.3,22.4-0.9,33.3l-0.5-0.1l0.5,0.1c-1,4.9-1.7,9.9-2.3,15
	c-0.2,1.4-0.4,2.9-0.6,4.3l0,0l0,0c-0.2,1.8-0.5,3.6-1,5.3l0,0c-1.3,4-4,7.2-6.8,10.1l0,0c-0.5,0.5-0.8,0.8-1,1.3l0,0
	c-0.2,0.5-0.1,1,0.2,1.6c0.3,0.5,0.8,0.9,1.3,1.2c0.9,0.4,1.9,0.4,3,0.5c0.2,0,0.5,0,0.7,0 M320,241.4l-25.9-18.1l0.4-0.3l0,0
	c-1.1-1.2-2.3-2.4-3.4-3.5l0,0l0,0c-1.1-1.2-2.3-2.3-3.4-3.5l0,0c-2.2-2.3-4.6-4.7-7.3-6.4c-3-1.9-6.5-3-9.9-3.2 M320,241.4
	c-1.9,1.1-4.1,0.6-6.3-0.5c-2.2-1.2-4.3-2.9-5.9-4.3 M320,241.4l-12.1-4.8 M270.4,206.3L270.4,206.3v0.5V206.3L270.4,206.3z
	 M307.9,236.6c-2.5-2.1-4.8-4.5-7-6.9L307.9,236.6z"/>
<path class="st4" d="M338.5,97.1C326,86.3,307,82,291.4,83.8c-0.2,0-0.4,0.1-0.7,0.1c1.2,1,2.4,2.1,3.6,3c2.5,0.2,5.1,0.1,7.6,0.2
	c3.9,0.1,8,0.8,11.5,2.7c2.2,1.1,4.8,2.4,6.8,4.2c2.7,2.3,4.9,6.4,4.8,10.2c-0.1,4.1-2.7,7.6-4.5,11c-1.9,3.6-3.3,7.6-3.9,11.7
	c-0.3,2.1-0.6,4.4-2.3,5.5c-1.2,0.8-2.8,0.6-4.1,0c-1.3-0.6-2.4-1.6-3.6-2.5c-4.4-3.2-16.5-6.5-18.4,1.8c-0.7,2.9-1,6.5-0.8,9.5
	c0.3,7.3,2.8,14.3,5.1,21.1c1,3,2.8,5.8,4.1,8.7c1.4,3,3,6.2,3.8,9.4c0.6,2.6,1.3,5.9,1,8.7c-0.3,2.4-1.7,4.8-3.9,5.4
	c-1.5,0.4-3.1-0.1-4.6-0.6c-6.9-2.6-14.5-8.4-18.6-14.8c-0.7,2-0.3,5.5-0.9,7.5c-0.5,1.6-0.4,3.2-0.9,4.8c-1.2,3.9-3.9,7.1-6.7,9.9
	c-0.4,0.4-0.9,0.9-1.1,1.5c-0.4,1.3,0.6,2.8,1.8,3.4c1.2,0.6,2.6,0.5,3.9,0.5c3.4,0.1,6.8,1.2,9.7,3.1c2.7,1.7,4.9,4,7.2,6.3
	l6.9,7.1c2.2,2.2,4.2,4.5,6.3,6.8c2.3,2.4,4.6,4.8,7.1,6.9c3.1,2.7,8.5,7.3,12.7,4.9c3.6-2.1,7.4-11.8,9.6-15.5
	c3.4-5.8,6.7-11.7,9.7-17.7c6.3-12.4,11.8-25.5,15.3-39.2C361.6,143.6,359.6,115.4,338.5,97.1z"/>
<path class="st3" d="M290.2,134.3c0-0.1,0-0.2-0.1-0.3C290.2,134.1,290.2,134.2,290.2,134.3z"/>
<path class="st3" d="M289.1,129.7c-0.3-1.4-0.7-2.8-1.1-4.2C288.4,126.9,288.7,128.3,289.1,129.7z"/>
<path class="st3" d="M287.9,125.4c-0.2-0.7-0.4-1.4-0.6-2.1C287.5,124,287.7,124.7,287.9,125.4z"/>
<path class="st3" d="M290.1,133.9c-0.3-1.4-0.6-2.7-1-4.1C289.5,131.2,289.8,132.6,290.1,133.9z"/>
<path class="st3" d="M290.7,136.3c-0.1-0.7-0.3-1.3-0.4-2c0.4,2.1,0.8,4.3,1.2,6.4c0.1,0.8,0.3,1.7,0.4,2.5
	C291.6,140.9,291.1,138.6,290.7,136.3z"/>
<path class="st3" d="M313.6,85.5h-0.1C313.5,85.5,313.5,85.5,313.6,85.5z"/>
<path class="st3" d="M309.4,84.8c0.1,0,0.2,0,0.3,0C309.6,84.9,309.5,84.9,309.4,84.8z"/>
<path d="M169.8,177.4c-0.2-1.7-0.1-3.5,0.4-5.2c1.2-3.8,4.4-6.7,8-7.4l0.2,1.2c-3.2,0.6-6.1,3.3-7.2,6.6c-1.1,3.3-0.3,7.3,1.9,10
	l-0.8,0.8C171,181.7,170.1,179.6,169.8,177.4z"/>
<path class="st5" d="M49.4,235.8c-1.1,0.3-2.4,0.7-3,0.7c-1.9,0.1-3.7,0.1-5.6-0.2c-6.7-0.9-12.1-3.4-16-9.3
	c-2.1-3.2-4.2-6.4-6.2-9.7c-0.4-0.7-0.9-1.4-1.5-1.9s-1.5-0.7-2.2-0.3c-0.6,0.3-0.9,1-1.1,1.6c-1,3.3,7.8,25.6,7.8,25.6
	c5,10.8,8.1,16.6,8.1,16.6l1.8,4.5l0,0l-2.5,0.9c0,0.1,0.1,0.1,0.1,0.2l1.7,4.9c9-2.9,17.8-6.5,26.5-10.4L49.4,235.8z"/>
<path d="M321.4,244.3l-0.1,0.2l-73.4-0.2c-19.6-8.6-37.9-29.1-53.4-44.4c-7,4.3-13,10.1-19.4,15.3c-15.3,12.6-35,24.4-55.1,32.3
	c-5.1-8.1-10-16.4-14.3-25c0.2-0.2,0.5-0.4,0.7-0.7c23.6-22.1,81.3-74.3,87.1-77.2c2.5-1.3,5.1-2,7.8-2.3c1.2-0.1,3.4,1.4,4.5,1.8
	c1.7,0.7,3.3,1.4,5,2.1c3.6,1.5,7.2,3.1,10.8,4.8c8.3,3.8,16.4,8.1,24.2,12.8c20,12,38.2,27.1,54,44.7c6.5,7.2,12.5,14.8,18.2,22.7
	c1.5,2.1,4.5,4.6,4.8,7.3C322.9,239.7,322,242.6,321.4,244.3z"/>
<path class="st5" d="M82.4,238.3c-1,0.7-2,1.6-2.5,1.8c-1.7,0.9-3.5,1.5-5.2,2c-6.5,1.8-12.4,1.5-18.1-2.4c-3.1-2.1-6.1-4.4-9.1-6.6
	c-0.6-0.5-1.3-1-2-1.2c-0.8-0.2-1.6-0.1-2.1,0.5c-0.4,0.5-0.5,1.2-0.4,1.9c0.2,3.4,16.1,20.7,16.1,20.7c8.4,8.1,13.2,12.3,13.2,12.3
	l3.2,3.5l0,0l-2,1.8c0,0.1,0.1,0.1,0.1,0.1l3.3,3.9c7.4-6.2,14.4-12.9,21.2-19.9L82.4,238.3z"/>
<path class="st1" d="M297.9,85.4c0.2-1.8,0.6-2.4,0.6-3.6c0-0.5,0-1.1,0-1.6c0-0.1,0-0.1,0-0.2c0-1.4-1.2-3.2-0.8-3.9
	c0.3-0.4,1-0.1,2.9-0.2c0,0,2,0.2,3.9-0.6c1.3-0.5,2.6-1.1,3.9-1.6c1.8-1.2,4.1-3.1,6.4-5.6c2.2-2.5,3.7-5,4.7-6.9l0,0
	c0,0.1,0.1,0.2,0.1,0.3c0.1,0.3,0.1,0.7,0.2,1.2c0.1,1,0.1,2.4,0.1,3.9c0,0.2,0,0.5,0,0.7c0,3,0.1,6.4,0.5,9.4v0.1
	c0.3,2.4,0.6,4.8,1.6,7.1l0,0c0.2,0.5,0.5,1.1,0.7,1.5c0,0.1,0.1,0.2,0.1,0.2c0.3,0.6,0.5,1.1,0.7,1.7c0.4,1.1,0.4,2.1-0.1,3.3
	c-0.6,1.2-1.6,2.2-2.6,3.2c-3,2.8-6.1,5.5-9.7,6.9c-2.8,1-5.9,1.2-8.7,0.4l0,0c-2.8-0.8-5.5-2.6-7.3-5c-1-1.4-1.8-3.1-2.1-4.8
	c-0.2-1.3-0.1-2.6,0.4-3.8l0,0c0.3-0.6,0.5-0.9,0.9-1.1s0.8-0.2,1.6-0.3l0,0l0,0h0.1c0.5-0.1,0.9-0.1,1.3,0l0.6,0.1
	C297.8,86.1,297.8,85.8,297.9,85.4z"/>
<path d="M296.2,58.9c-0.1-0.6-0.2-1.2-0.2-1.8c0-1.1-0.1-2.1-0.1-3.2c0-1.2-0.1-2.3-0.2-3.5c0-0.2,0.3-0.3,0.3-0.1
	c0.3,0.9,0.2,1.9,0.3,2.8c0.1,0.8,0.1,1.6,0.1,2.4c0,0.9,0.1,1.8,0.2,2.7c0.1,0.5,0.1,1.1,0.4,1.5c0.4,0.4,1.2,0.3,1.7,0.2
	c0.4-0.1,0.6,0.6,0.2,0.7c-0.8,0.1-1.8,0.2-2.4-0.5C296.3,59.7,296.3,59.3,296.2,58.9z"/>
<path d="M296.6,65.7c0.4,0,0.5,0.4,0.8,0.6c0.6,0.4,1,0.6,1.7,0.4c0.6-0.2,1-0.6,1.3-1.2c0.3-0.5,0.6-1.2,0.7-1.8
	c0-0.2,0.3-0.2,0.3,0c0.2,0.6-0.2,1.5-0.4,2c-0.3,0.7-0.8,1.2-1.4,1.5c-0.5,0.3-1.2,0.4-1.7,0.2c-0.3-0.1-0.5-0.2-0.7-0.4
	c-0.1-0.1-0.3-0.2-0.4-0.3c-0.1-0.1-0.2-0.3-0.3-0.3C296.1,66.3,296.2,65.6,296.6,65.7z"/>
<path d="M300.9,45.3c0.1-0.2,0.3-0.3,0.5-0.3c1.3-0.4,2.5-0.1,3.7,0.4c1.1,0.5,2,1.1,2.4,2.2c0,0.1,0.1,0.2,0.1,0.3
	c0,0.3-0.3,0.5-0.6,0.7c-0.8,0.3-1.5,0-2.3-0.2c-0.9-0.3-1.8-0.7-2.6-1.2c-0.5-0.3-1.1-0.7-1.2-1.4
	C300.8,45.6,300.8,45.4,300.9,45.3z"/>
<path d="M301.7,53.6c0.2,0.8,0.9,1.3,1.7,1.2c0.8-0.2,1.3-1,1.1-1.8c-0.2-0.8-0.9-1.3-1.7-1.2C302,51.9,301.5,52.7,301.7,53.6z"/>
<path d="M290.9,53.1c0.2,0.8,0.8,1.4,1.4,1.2c0.6-0.1,1-0.9,0.9-1.7c-0.2-0.8-0.8-1.4-1.4-1.2C291.1,51.5,290.7,52.3,290.9,53.1z"/>
<path d="M313.8,49.9c1.9,0.7,3.9,1.1,6.1,1.2c0.2,0,0.4,0,0.6,0.2c0.1,0.1,0.2,0.4,0.2,0.6c0.2,3.5-3.4,7-2.1,10.5
	c2.2-0.2,3.1-2.9,4.5-4.4c1.6-1.8,3.5-3.4,5.2-5.1c2.9-2.9,5.6-6.7,5.4-10.9s-3.2-7.6-6.4-10c-4.8-3.6-10.6-5.8-16.4-6.3
	c-2.9-0.3-12.4-1-13.3,3.5c-0.3,1.8,1.1,4.4,1.8,6C302.3,42.1,307.3,47.6,313.8,49.9z"/>
<path class="st3" d="M306.7,56.5c0.7,0.4,1.4,1,1.3,1.9c0,0.3-0.2,0.6-0.4,0.9c-0.9,1.3-2.7,1.6-4.2,1.5c-1.6-0.1-4.9-2.2-2.7-4.1
	C302,55.6,305.4,55.9,306.7,56.5z"/>
<path class="st3" d="M320.7,52.2C320.7,52.1,320.7,52.1,320.7,52.2c0-0.1,0-0.1,0-0.2c0.2-0.4,1-0.2,1.4-0.1c0.7,0.2,1.2,1,1.3,1.7
	c0,0.1-0.1,0.1-0.2,0c-0.2-0.5-0.7-1.2-1.2-1.3c-0.2-0.1-0.9-0.3-1-0.1C320.9,52.3,320.8,52.2,320.7,52.2L320.7,52.2z"/>
<path class="st6" d="M249.1,58.3c-0.1,0-0.1,0-0.2,0c-2.6-0.3-33.2-17.1-33.7-16.8c-0.5,0.4,9.8,66.8,10.7,68.2
	c0.8,1.2,20.5,13.4,26.2,16.9C252.1,123.9,250.7,80.4,249.1,58.3z"/>
<path class="st6" d="M250.7,58.5c-0.1,0-0.1,0-0.2,0c-2.6-0.4-32-19.4-32.5-19.1c-0.5,0.3,5.6,67.3,6.4,68.8
	c0.7,1.3,19.6,14.8,25.1,18.8C249.6,124.3,250.9,80.7,250.7,58.5z"/>
<path class="st6" d="M282.8,42.6c-0.5-0.3-31.1,16.3-33.7,16.6c0,0-0.1,0-0.2,0c-1.5,19.2-2.9,54.7-3.3,65.3l0.1,0.1
	c0.2,0.2,0.4,0.4,0.5,0.6c0.4,0.3,0.9,0.7,1.3,1.1c7.4-4.5,23.5-14.4,24.2-15.5C272.7,109.3,283.2,42.9,282.8,42.6z"/>
<path class="st6" d="M280,40.5c-0.5-0.3-30,18.5-32.6,18.9c0,0-0.1,0-0.2,0c-0.3,20.6,0.7,59.7,0.9,67.3c0.3,0.2,0.5,0.4,0.8,0.6
	c6.3-4.5,23.6-16.8,24.3-18.1C274.1,107.8,280.5,40.8,280,40.5z"/>
<path class="st5" d="M246.6,59.8C249,60,279.2,49.1,288.4,45c0.1,0,0.2,65,0.5,64.6c0.1,0-39.2,18.4-39.2,18.4s-25.2-15.4-26.1-16.9
	c-0.9-1.4-11.2-67.7-10.7-68.1C213.3,42.7,244,59.6,246.6,59.8z"/>
<path class="st7" d="M275.7,102.5c-0.8-2.2-1.7-4.5-2.5-6.7c-0.7-1.9-1.3-3.9-2.2-5.6c-0.9-1.6-2.1-3.2-3.7-3.9
	c-2-0.9-4.2-0.4-6.1,0.6c-0.1,0-0.2,0.1-0.3,0c-3,1.8-2.6,6-2,9.2c0.5,2.7,1.5,5.6,1.3,8.4c-0.3,3.9-2.8,7.2-2.5,11.3
	c0.2,2.7,0.8,5.4,1.6,7.9c6-2.8,13.8-6.5,19.9-9.3C278.5,110.3,277.1,106.3,275.7,102.5z"/>
<path class="st7" d="M246.7,59.8c-0.1,0-0.1,0-0.2,0c-2.6-0.3-33.2-17.1-33.7-16.8c-0.5,0.4,9.8,66.8,10.7,68.2
	c0.8,1.2,20.5,13.4,26.2,16.9C249.7,125.5,248.3,81.9,246.7,59.8z"/>
<path class="st3" d="M320.2,55.3c-0.1-0.6,0.1-1.2,0.5-1.6c0.1-0.1,0.2,0,0.2,0.1c-0.2,0.4-0.3,1-0.2,1.5c0,0.4,0.1,0.8,0.3,1.1
	c0.1,0.1,0.2,0.2,0.2,0.4c0,0.1-0.1,0.2-0.2,0.2C320.3,56.8,320.3,55.9,320.2,55.3z"/>
<path class="st1" d="M266.9,96.1L266.9,96.1L266.9,96.1c0.2-0.6,0.5-1.2,0.4-1.9c-0.1-0.4-0.2-0.7-0.4-1c-1.3-2.4-2.4-4.8-3.4-7.3
	l0,0l0,0c-0.1-0.2-0.1-0.4-0.2-0.6c0-0.2,0-0.3,0.1-0.3h0.1c0,0,0.1,0,0.2,0c0.2,0.1,0.5,0.3,0.7,0.6l0,0c2.2,2.6,4.4,5.2,6.5,7.9
	c1.6,1.9,3.1,3.9,4.7,5.8l0.8-0.5c-0.3-0.6-0.5-1.1-0.8-1.6c-0.6-1.2-1.2-2.3-1.6-3.5c0-0.1-0.1-0.4-0.3-1c-0.1-0.5-0.3-1.2-0.4-1.8
	c0-0.1,0-0.1-0.1-0.2c-0.1-0.5-0.2-1-0.3-1.4c0.3,0.1,0.5,0.3,0.7,0.5c0.5,0.4,0.9,1,1.4,1.5l0,0c7.6,9.4,15.2,18.9,22.8,28.3l0,0
	c7.6,9.4,15.2,18.9,22.8,28.3l0.9,1.1v-1.4c0.1-3.7,0.1-7.3,0.2-11l0,0c0.1-7.7,0.3-15.5,3.1-22.5l0,0c1.4-3.5,4.6-8.5,8.3-11.8
	c1.9-1.7,3.9-2.9,5.8-3.3s3.8-0.1,5.5,1.3l0,0c3.6,2.9,6,7.3,7.7,12.3s2.7,10.4,3.6,15.2l0,0c1.8,10.2,0.8,20.7-0.1,31.2
	c-0.1,1-0.2,2-0.3,3c0,0.4-0.1,0.7-0.1,1.1c-0.6,6.7-1.1,13.4-3.4,19.5c-2.4,6.5-6.9,12.4-13.1,14.3l0,0c-5.9,1.9-12.5-0.2-17.6-4
	l0,0c-5.2-3.8-9.1-9.2-12.9-14.6c-7.9-11.4-15.4-23.1-22.5-35.1l0,0c-4.7-8-9.2-16.2-13.4-24.4c-0.5-1-1.1-2-1.6-3.1
	c-1.6-3.1-3.3-6.2-4.6-9.4l0,0C264.9,102.6,265.2,99.6,266.9,96.1L266.9,96.1z"/>
<path class="st2" d="M341.1,138.2L341.1,138.2c-0.6,0.1-1.1,0.1-1.7,0.2c-6.2,0.7-12.6,1.4-18.5,4c0-0.6,0-1.2,0-1.8
	c0-0.8,0-1.7,0.1-2.5l0,0c0.2-8.2,0.4-16.6,3.3-24.1l0,0c1.5-3.8,4.9-9.1,8.9-12.6c2-1.8,4.1-3.1,6.2-3.6c2-0.5,4-0.2,5.9,1.3l0,0
	c3.8,3.1,6.4,7.9,8.2,13.2c1.8,5.3,2.9,11.1,3.8,16.2c0.5,2.8,0.8,5.7,0.9,8.5c-1.1,0-2.2,0-3.3,0.1c-0.3,0-0.6,0-0.9,0
	C349.8,137.4,345.5,137.7,341.1,138.2z"/>
<path d="M107.7,215.8l-7.9,5.4l19.3,31.7l7.9-5.4L107.7,215.8z"/>
<path class="st3" d="M122.6,239.5l-0.5-1.1c16-7.7,30.4-18.9,44.4-29.7c8.8-6.8,18.8-14.6,24.3-25.4l0.3-0.7l0.5,0.5
	c19,18.1,39.2,33.8,61.9,47.9l-0.6,1c-22.5-14-42.7-29.6-61.6-47.5c-5.7,10.8-15.5,18.4-24.2,25.2
	C153.2,220.5,138.7,231.7,122.6,239.5z"/>
<path class="st3" d="M294.4,235c-0.2,0-0.3-0.1-0.5-0.2c-0.6-0.4-0.8-1.2-0.9-1.9c-0.4-8,3.4-15.8,9.7-20.1c0.3-0.2,0.8-0.3,1.2,0
	c0.2,0.2,0.3,0.5,0.2,0.8l-1-0.5c-0.1,0.1,0,0.3,0,0.4c0.1,0.1,0.2,0.2,0.2,0.2c-5.9,4-9.5,11.5-9.2,19c0,0.5,0.3,0.9,0.4,1l0.4,1.1
	C294.8,235,294.6,235,294.4,235z"/>
<path class="st3" d="M298.1,237.2c-0.5-8,2.3-16.1,7.6-21.7l0.8,0.9c-5.1,5.4-7.8,13.1-7.3,20.8H298.1z"/>
<path class="st8" d="M316.7,231.3c0,0-2.5,7.3-10.5,13 M257.7,233.8c0,0,2.2,5.7,9,10.5"/>
<path d="M333,198.8c-7.9-0.8-14.5-6.8-16.8-9.1c-3.4-3.5-6.4-7.4-9.6-11.7c-3-4.1-6-8.4-9.1-13.2c-6.4-9.8-12.3-19.9-16.7-27.5
	c-0.5-0.9-1.1-1.9-1.6-2.9c-4.6-8-10.9-21.5-14-30.4l2.5,4.7c3.1,8.9,7.8,17.1,12.4,25.1c0.5,1,1.1,1.9,1.6,2.9
	c4.4,7.7,10.2,17.7,16.6,27.5c3.1,4.7,6.1,9,9.1,13.1c3.2,4.3,6.1,8.2,9.4,11.6c2.9,3,13.4,12.3,24.1,7.5c9-4.1,11.7-15.5,12.9-23.7
	c0.2-1.4,1.8-9.6,1.9-10.8l-0.3,6.9c-0.2,1.3-0.4,2.7-0.6,4.1c-1.2,8.5-4,20.3-13.6,24.6C338.6,198.8,335.7,199.1,333,198.8z"/>
<path d="M336.9,192.3c-3.9-0.4-7.6-2.3-10.3-5.2l0.8-0.8c2.8,3.1,6.9,5,11.1,4.9c1.5,0,3.5-0.3,4.7-1.7l0.8,0.8
	c-1.2,1.3-3.1,2.1-5.5,2.1C338,192.3,337.4,192.3,336.9,192.3z"/>
<path class="st3" d="M192.2,151.7l-1-0.6c1.8-3.5,6-5.4,9.6-4.2l-0.3,1.1C197.4,147.1,193.7,148.7,192.2,151.7z"/>
<path d="M100.2,221.1l-1,0.6l19.6,32.3l1-0.6L100.2,221.1z"/>
<path class="st3" d="M108.1,215.9l-1,0.6l19,30.9l1-0.6L108.1,215.9z"/>
<path d="M115.3,246.1l-0.4-1.1c2.4-0.9,4.7-2.5,6.5-4.4l0.8,0.8C120.3,243.5,117.9,245.1,115.3,246.1z"/>
<path d="M324.4,239.7c-14.6-19.7-31-38-48.8-54.5l0.7-0.9c17.8,16.5,34.3,34.9,48.9,54.7L324.4,239.7z"/>
<path d="M275.9,139.9c-3.6-6.4-8.5-12-14.2-16.4l0.7-1c5.8,4.5,10.8,10.2,14.5,16.7L275.9,139.9z"/>
<path d="M270.4,107.7c-2.4-2.5-4.4-5.5-5.7-8.7l1-0.5c1.3,3.1,3.2,6,5.5,8.3L270.4,107.7z"/>
<path d="M272.6,104.8c-2.5-2.9-4.6-6.1-6.3-9.5l1-0.6c1.7,3.4,3.8,6.5,6.2,9.3L272.6,104.8z"/>
<path d="M320.9,137.4l-0.2-1.1c12.3-2.9,24.9-5.2,37.5-6.6l0.1,1.2C345.7,132.2,333.2,134.5,320.9,137.4z"/>
<path d="M275.8,131.6c-0.1-0.1-0.5-0.4-0.7-0.6c-0.4-0.3-0.5-0.4-0.5-0.5c-2.6-3.6-5.7-7-8.9-9.9l0.7-0.9c3.4,3,6.4,6.4,9.1,10.1
	c0.1,0.1,0.2,0.2,0.4,0.3c0.7,0.6,0.8,0.8,0.9,1l-1,0.4C275.7,131.6,275.8,131.6,275.8,131.6z"/>
<path d="M273.6,181.4l-1.1-0.3c3.9-17,5-34.5,3.1-51.9l1.1-0.1C278.6,146.6,277.6,164.3,273.6,181.4z"/>
<path class="st0" d="M317.2,52.3"/>
<path class="st1" d="M316.6,52.3c0.9-1.8,2.8-2.7,4.7-2.4c1.6,0.3,2.9,1.5,3.4,3.1c0.4,2.5-1.2,4.8-3.3,5.4
	c-1.6,0.4-3.4-0.2-4.6-1.6"/>
<path class="st9" d="M323.9,88.8c2.4,0.8,5.5,2,8.7,4c2.9,1.7,5.2,3.6,6.9,5.2"/>
<path class="st9" d="M290.7,84.4c1.3-0.2,2.6-0.3,4-0.4c1.2-0.1,2.4-0.2,3.5-0.2"/>
<path class="st9" d="M346.8,192.7c-2.3,5.8-4.9,12-8,18.4c-4.8,10-10,18.9-15,26.7"/>
<path class="st10" d="M344.5,12.7c0,0.2-0.1,0.4-0.1,0.6l0,0c-0.2,0.6,0,1.4,0.3,1.9c0.6,1,1.8,1.5,3,1.4c0.5,1.1,1.5,2,2.9,2
	c1,0,1.8-0.4,2.5-0.9c0.3,0.1,0.7,0.2,1,0.1c0.1,0,0.3-0.1,0.5-0.2c1.1-0.3,1.9-1.2,2-2.3c0-0.5,0.1-0.9,0-1.2
	c0.8-0.6,1.2-1.3,1.2-2.3c0-0.4-0.1-0.8-0.3-1.2c-0.1-0.2-0.2-0.5-0.4-0.6c-0.3-0.3-0.6-0.6-1-0.8c-0.2-0.1-0.5-0.3-0.8-0.3
	c-0.1-0.4-0.2-0.7-0.4-1.1c-0.1-0.2-0.4-0.5-0.6-0.8c-0.7-0.7-1.5-1.1-2.6-0.9c-0.2,0-0.5,0.2-0.8,0.3c-0.1,0-0.2,0.1-0.2,0.1
	c-0.3-0.2-0.7-0.4-1-0.5c-0.3-0.1-0.5-0.1-0.7-0.1c-0.4,0-0.8,0.1-1.1,0.3c-1.4,0.7-1.8,2.3-1.4,3.7c-0.3,0.1-0.6,0.3-0.8,0.6
	c-0.1,0.1-0.1,0.2-0.2,0.3c-0.1,0.1-0.2,0.3-0.3,0.5c-0.1,0.2-0.2,0.3-0.3,0.5S344.6,12.4,344.5,12.7z"/>
<path class="st11" d="M331.5,45.9l1.5-0.3l7.5-29.5l0.7-0.4l-0.2-1.3l4.8-2.1c0.3-0.1,0.6-0.3,0.7-0.6c0.1-0.2,0.1-0.3,0.2-0.5l0,0
	c0.1-0.4,0.1-0.8-0.1-1.1c-0.1-0.3-0.5-0.6-0.8-0.8c-2-0.7-6-1.8-11.9-1.3c-8.6,0.7-31.2,13.9-31.2,13.9l0.4,1.3L331.5,45.9z"/>
<path class="st12" d="M291.8,25.6c0,0.1,0,0.1,0,0.1c-0.2,0.6-0.3,1.1-0.2,1.6c0.4,1.9,2.6,3.2,4.6,3.6c0.5,0.1,1,0.2,1.6,0.2
	c0.2,0,1.7-0.5,1.7-0.5c0.2,0.1,0.5,0.2,0.8,0.3c1.7,0.7,3.6,0.4,4.9-0.4c0.3,0.2,0.5,0.5,0.8,0.7c1.1,0.7,2.4,1.2,3.8,1.1
	c0.8,1.4,2.5,2.5,4.1,3c1,0.3,1.9,0.3,2.8,0.2c0.3,0.3,0.6,0.5,1,0.8c0,1.2,0.6,2.4,1.6,3.4c1,0.9,2.2,1.3,3.3,1.5
	c0.1,0.6,0.3,1.3,0.7,1.9c0.4,0.7,0.9,1.2,1.6,1.6l0,0.1c-0.3,1.2,0.1,2.8,0.9,3.9c1.5,2.1,4.4,3,6.5,1.7c0.6-0.3,1-0.8,1.5-1.2
	c0.3-0.7,0.5-1.5,0.3-2.2c0,0-0.1-0.1-0.1-0.2l0-0.1c0-0.1-0.4-0.8-0.6-1.2c0.2-0.3,0.3-0.4,0.5-0.7c0.4-0.7,0.4-1.7,0.1-2.4
	c-0.3-0.9-1-1.9-2-2.4c-0.1,0-0.1,0-0.1,0c0.1-0.5,0.1-1.1-0.1-1.6c-0.2-0.9-0.9-1.8-1.9-2.4c-0.2-0.1-0.4-0.3-0.6-0.3
	c0.1-0.6,0-1.2-0.3-1.8c-0.1-0.3-0.2-0.6-0.3-0.9c-0.5-0.9-1.2-1.6-2.1-2.1c-0.1-0.1-0.3-0.2-0.5-0.3c-0.1-0.3-0.2-0.6-0.3-0.8
	c-0.1-0.3-0.2-0.7-0.4-1c-1-1.7-3-2.2-4.8-1.9c-0.3-0.8-0.7-1.7-1.5-2.4c-1.7-1.5-4-1.9-5.7-1.1c-0.5-0.6-1.1-1.1-1.9-1.4
	c-0.8-0.4-1.7-0.4-2.5-0.2c-0.7-0.7-1.7-1.2-2.8-1.2c-0.8,0-1.6,0.4-2.2,0.9c-1.2-1-2.6-1.1-4-0.7c-1.2,0.3-2.2,1-2.6,2
	c0,0.1,0,0.1-0.1,0.2c-0.1,0-0.1,0-0.1,0c-2.3-0.8-4.8,0.6-5.5,2.4C291.6,25.4,291.6,25.5,291.8,25.6z"/>
<g>
	<g>
		<path class="st13" d="M215.3,194.9c-0.4-0.5-5.2-4.5-5.2-4.5l-7-1.6l2.2,8.8L215.3,194.9z"/>
		<path class="st14" d="M216.9,191.4c0,0,14.2,3.4,19.5,1.4c5.3-1.9,8.4-10.9,8.4-10.9l-3.8-10c0,0-1.2,14.3-5.8,17.9
			c-4.6,3.5-18.5,0.3-18.5,0.3L216.9,191.4z"/>
		<path class="st14" d="M214.1,192c0,0-11.4,2.7-16.8,0.8c-5.4-2-10.4-10.3-10.4-10.3l3.9-8.3c0,0,2.2,11.6,8.7,15.7
			C205.8,194,214.1,192,214.1,192z"/>
		
			<linearGradient id="SVGID_1_" gradientUnits="userSpaceOnUse" x1="69.9918" y1="187.4271" x2="65.7637" y2="173.2207" gradientTransform="matrix(1 0 0 1 160.4103 0)">
			<stop  offset="0" style="stop-color:#E8DD05"/>
			<stop  offset="1" style="stop-color:#DAE002"/>
		</linearGradient>
		<path class="st15" d="M244.8,182c-1.1,0.2-2.5,0.6-4.2,1.1c-3.2,0.9-7.1,2.3-11,3.6c-7.2,2.5-14,5.1-14,5.1s2.7-6.8,7.7-12.4
			c0.5-0.6,1.1-1.1,1.7-1.7c2.6-2.2,6-4.2,9.1-5.8c0,0,0,0,0,0c3.6-1.9,6.6-3.1,6.6-3.1L244.8,182z"/>
		
			<linearGradient id="SVGID_2_" gradientUnits="userSpaceOnUse" x1="34.8211" y1="178.7017" x2="54.273" y2="190.8305" gradientTransform="matrix(1 0 0 1 160.4103 0)">
			<stop  offset="0" style="stop-color:#E8DD05"/>
			<stop  offset="1" style="stop-color:#DAE002"/>
		</linearGradient>
		<path class="st16" d="M215.5,191.2c-4.6-5.4-10.7-7.8-16.2-8.7c-1.5-0.3-2.9-0.4-4.2-0.5c-4.7-0.3-8.2,0.4-8.2,0.4l5.5-12.4
			c1.5,0.3,2.9,0.8,4.3,1.3c0.5,0.2,0.9,0.4,1.3,0.5C212.8,178.3,218.2,193.5,215.5,191.2z"/>
		<linearGradient id="SVGID_3_" gradientUnits="userSpaceOnUse" x1="220.5341" y1="192.6701" x2="214.6379" y2="237.2023">
			<stop  offset="0" style="stop-color:#D4023E"/>
			<stop  offset="0.9944" style="stop-color:#FD432C"/>
		</linearGradient>
		<polygon class="st17" points="252.7,194.6 252.2,200.5 252.1,200.7 251.9,203 250.4,244.1 185.3,244.1 185,228.6 184.9,224.9 
			184.9,222.9 184.5,202.5 184.4,201 184.4,200.6 184.4,200.6 184.4,200.5 184.3,198.7 184.3,198.7 183.9,192.3 191.4,192.6 
			197.2,192.8 199,192.8 201.2,192.9 203.8,193 204.2,193 207,193.1 207.9,193.1 209,193.1 213.6,193.3 236.7,194.1 239.2,194.1 
			247.5,194.4 250.7,194.5 		"/>
		
			<linearGradient id="SVGID_4_" gradientUnits="userSpaceOnUse" x1="90.8957" y1="196.0257" x2="43.79" y2="195.7866" gradientTransform="matrix(1 0 0 1 160.4103 0)">
			<stop  offset="0" style="stop-color:#D4023E"/>
			<stop  offset="0.9944" style="stop-color:#FD432C"/>
		</linearGradient>
		<polygon class="st18" points="255.7,194.4 254.5,200.5 252.2,200.5 252,200.5 238.6,200.1 236.6,200.1 188,198.8 184.5,198.7 
			184.3,198.7 183.4,198.7 180.6,198.6 179.6,191.2 236.8,193.6 239.2,193.7 		"/>
		<linearGradient id="SVGID_5_" gradientUnits="userSpaceOnUse" x1="214.6246" y1="242.7049" x2="199.6073" y2="192.2471">
			<stop  offset="0" style="stop-color:#E8DD05"/>
			<stop  offset="1" style="stop-color:#DAE002"/>
		</linearGradient>
		<polygon class="st19" points="209.9,244.1 205.4,244.1 204.1,202 204,199.2 203.9,195.5 203.8,193.5 203.8,193 203.8,192.2 
			203.7,191.8 203.7,191.3 203.7,191 203.8,191 204.2,191.1 206.3,191.3 209,191.5 209,191.6 209,192.1 209,192.4 209,192.5 
			209,193 209,193.1 209.1,196.6 209.2,199.4 209.2,202.2 		"/>
		<linearGradient id="SVGID_6_" gradientUnits="userSpaceOnUse" x1="255.0218" y1="242.1013" x2="241.2685" y2="195.8902">
			<stop  offset="0" style="stop-color:#E8DD05"/>
			<stop  offset="1" style="stop-color:#DAE002"/>
		</linearGradient>
		<polygon class="st20" points="250.8,194.3 250.7,194.5 250.5,200.4 248.3,244.1 245.7,244.1 247.3,200.4 247.5,194.4 247.6,194.1 
			247.6,194 248.9,194.1 		"/>
		<polygon class="st21" points="213.8,192.3 214.9,187.1 218,186.5 219.5,192.5 		"/>
		<path class="st22" d="M210.3,191.7c-18.2,4.3-20.2,51.1-20.2,51.1l-5.5-15l1.9-25l15-12L210.3,191.7z"/>
		<linearGradient id="SVGID_7_" gradientUnits="userSpaceOnUse" x1="254.9846" y1="219.0535" x2="205.8454" y2="218.6948">
			<stop  offset="0" style="stop-color:#9F4057"/>
			<stop  offset="0.1901" style="stop-color:#A1445B"/>
			<stop  offset="0.3957" style="stop-color:#A85167"/>
			<stop  offset="0.6087" style="stop-color:#B3677B"/>
			<stop  offset="0.8252" style="stop-color:#C28596"/>
			<stop  offset="1" style="stop-color:#D1A3B2"/>
		</linearGradient>
		<polygon class="st23" points="255.7,194.4 254.5,200.5 252.1,200.7 252.1,200.7 251.9,203 250.4,244.1 234.2,244.1 235,203.5 
			209.2,202.2 204.1,202 199.3,201.8 194.1,201.5 188.5,201.2 184.4,201 184.4,200.6 184.4,200.6 184.4,200.5 184.3,198.7 
			185.7,198.8 188,198.8 191.4,198.9 195.7,199 200.9,199.2 204,199.2 209.2,199.4 238.6,200.1 238.6,200.1 239.2,194.1 
			239.2,193.7 247.6,194.1 248.9,194.1 		"/>
		
			<linearGradient id="SVGID_8_" gradientUnits="userSpaceOnUse" x1="33.3084" y1="199.3028" x2="25.6854" y2="230.1759" gradientTransform="matrix(1 0 0 1 160.4103 0)">
			<stop  offset="0" style="stop-color:#E8DD05"/>
			<stop  offset="1" style="stop-color:#DAE002"/>
		</linearGradient>
		<path class="st24" d="M210.4,190.4c-4-0.9-7.7,0.8-11,4.1c-0.6,0.6-1.2,1.3-1.8,2c-11.5,13.9-18.1,45.9-18.1,45.9l-7.5-14.2
			c0,0,4.6-17.2,12.6-28.1c2.4-3.2,4.7-5.7,6.7-7.4c1-0.9,2-1.7,2.9-2.3c3.1-2.2,5.2-2.6,5.4-2.6
			C200.2,187.7,210.1,190.3,210.4,190.4z"/>
		
			<linearGradient id="SVGID_9_" gradientUnits="userSpaceOnUse" x1="74.4517" y1="187.366" x2="70.3533" y2="168.0356" gradientTransform="matrix(1 0 0 1 160.4103 0)">
			<stop  offset="0" style="stop-color:#000000"/>
			<stop  offset="1" style="stop-color:#FCF455"/>
		</linearGradient>
		<path class="st25" d="M241.5,182.7c0,0-0.4,0.1-0.9,0.4c-3.2,0.9-7.1,2.3-11,3.6c1.1-0.8,2.2-1.6,2.3-1.9c0.1-0.6-0.8-8.5-2-8.9
			c-0.7-0.3-3.1,0.9-4.8,1.9c2.6-2.2,6-4.2,9.1-5.8c-0.7,0.7-1.7,1.8-1.8,2.4c-0.1,0.9,3.6,8.3,4.7,8.6
			C238.3,183.3,241.4,182.7,241.5,182.7z"/>
	</g>
	<g>
		<path class="st26" d="M287.2,218.8c0,0-7.2-6.4-9.6-9.6c-2.4-3.2-0.9-9.8-0.9-9.8l3.5-1.5c0,0-2.1,6.1-0.7,10
			c1.4,3.9,8.4,10.3,8.4,10.3L287.2,218.8z"/>
		<path class="st26" d="M288.7,219.7c0,0,8.6-0.1,12.6-0.9c4-0.8,8.8-4.9,8.8-4.9l-2.7-3.1c0,0-2.3,3.4-7.3,5.7
			C295.2,218.8,288.7,219.7,288.7,219.7z"/>
		<path class="st27" d="M276.7,199.3l4.8-3.4c0,0,5.5,7.7,6.4,13.1c0.9,5.3-0.1,10.4-0.1,10.4S280.6,203,276.7,199.3z"/>
		<path class="st27" d="M308.4,207.8l1.7,6.2c0,0-13.8-2.5-22.4,5C285.4,220.5,290.9,205.7,308.4,207.8z"/>
		<path class="st27" d="M286.7,217.1c-3.1-4.4-16.6-5.8-16.6-5.8s1.9,1.7,3.9,2.4c2,0.7,15.2,6.8,15.2,6.8L286.7,217.1z"/>
		<path class="st26" d="M265.5,206.1c0.4,4.4,8.5,7.7,8.5,7.7s-3.6-1.8-4.1-4.5c-0.4-2.6,0-4.4,0-4.4L265.5,206.1z"/>
		<polygon class="st28" points="317.1,219.6 316.5,225.6 314.3,245.2 307.7,245.1 269,244.7 268.1,224.8 268.1,223.4 268.1,223.4 
			267.8,217.5 305.6,219.1 		"/>
		<polygon class="st28" points="319.1,219.7 318.2,225.7 316.5,225.6 305.4,225.1 270.6,223.5 268.1,223.4 267,223.3 265.3,223.3 
			264.7,215.9 305.6,218.8 		"/>
		<polygon class="st27" points="279.4,216.7 282,245.2 286.3,245.3 285.1,217.1 		"/>
		<polygon class="st27" points="313.4,219.2 310.9,245.2 312.5,245.3 315.7,219.4 		"/>
		
			<linearGradient id="SVGID_10_" gradientUnits="userSpaceOnUse" x1="193.8748" y1="267.8724" x2="168.5908" y2="269.948" gradientTransform="matrix(0.9999 1.070000e-02 -1.070000e-02 0.9999 121.4162 -38.1161)">
			<stop  offset="1.117320e-02" style="stop-color:#62517C"/>
			<stop  offset="1" style="stop-color:#8C72B1"/>
		</linearGradient>
		<polygon class="st29" points="319.1,219.7 318.2,225.7 316.5,225.6 314.3,245.2 307.7,245.1 308.5,227.1 268.1,224.8 268.1,223.4 
			267,223.3 267,223.3 268.1,223.4 270.6,223.5 305.4,225.2 305.4,225.1 305.6,219.1 305.6,218.8 		"/>
	</g>
</g>
</svg>
