<?xml version="1.0" encoding="utf-8"?>
<!-- Generator: Adobe Illustrator 24.1.2, SVG Export Plug-In . SVG Version: 6.00 Build 0)  -->
<svg version="1.1" id="Слой_1" xmlns="http://www.w3.org/2000/svg" xmlns:xlink="http://www.w3.org/1999/xlink" x="0px" y="0px"
	 viewBox="0 0 50 61.2" style="enable-background:new 0 0 50 61.2;" xml:space="preserve">
<path d="M8,60.2h41V1.4H8c-3.9,0-7,3.8-7,8.6v41.6C1,56.3,4.1,60.2,8,60.2z M8,3.9h39v12.2H25V8.8H11v7.3H8c-2.8,0-5-2.7-5-6.1
	S5.2,3.9,8,3.9z M23,18.6v14.5L18,28l-5,5.1V11.2h10V18.6z M3,16C3,16,3,16,3,16c0.1,0.1,0.2,0.2,0.3,0.3c0.1,0.1,0.2,0.2,0.3,0.3
	c0.1,0.1,0.2,0.2,0.3,0.3S4,17,4.1,17.1c0.1,0.1,0.2,0.2,0.3,0.2c0.1,0.1,0.2,0.1,0.3,0.2c0.1,0.1,0.2,0.1,0.3,0.2
	c0.1,0.1,0.2,0.1,0.3,0.2C5.4,17.9,5.5,18,5.6,18c0.1,0,0.2,0.1,0.3,0.1c0.1,0,0.3,0.1,0.4,0.1c0.1,0,0.2,0.1,0.3,0.1
	c0.2,0,0.3,0.1,0.5,0.1c0.1,0,0.2,0,0.2,0c0.2,0,0.5,0,0.7,0h3v19.7l7-7.1l7,7.1V18.6h22v39.2H8c-2.8,0-5-2.7-5-6.1V16z"/>
</svg>
