<svg id="fix_1" enable-background="new 0 0 24 24" height="512" viewBox="0 0 24 24" width="512" xmlns="http://www.w3.org/2000/svg"><path d="m12 14c-3.859 0-7-3.14-7-7s3.141-7 7-7 7 3.14 7 7-3.141 7-7 7zm0-13c-3.309 0-6 2.692-6 6s2.691 6 6 6 6-2.691 6-6-2.691-6-6-6z"/><path d="m14.163 11c-.083 0-.166-.021-.242-.062l-1.921-1.062-1.921 1.062c-.168.093-.374.081-.53-.029s-.236-.3-.205-.489l.372-2.284-1.573-1.613c-.131-.134-.176-.33-.117-.508.06-.178.214-.307.399-.335l2.154-.33.969-2.062c.164-.352.74-.352.904 0l.969 2.062 2.154.33c.186.028.34.158.399.335.059.178.014.374-.117.508l-1.573 1.613.372 2.284c.031.189-.049.379-.205.489-.086.061-.186.091-.288.091zm-2.163-2.195c.083 0 .167.021.242.062l1.262.698-.247-1.517c-.025-.157.024-.316.136-.43l1.07-1.097-1.456-.223c-.165-.024-.307-.13-.377-.281l-.63-1.34-.63 1.34c-.07.151-.212.257-.377.282l-1.456.222 1.07 1.097c.111.113.161.273.136.43l-.247 1.517 1.262-.698c.075-.041.159-.062.242-.062z"/><path d="m7.675 24c-.006 0-.011 0-.017 0-.185-.006-.351-.113-.432-.279l-1.442-2.93-3.267.208c-.186.005-.359-.079-.457-.235s-.1-.354-.007-.514l5.04-8.736c.137-.239.442-.321.683-.183.239.138.321.444.183.683l-4.573 7.928 2.668-.17c.2-.01.392.097.48.278l1.176 2.39 3.822-6.61c.14-.239.446-.319.683-.183.239.139.321.444.183.684l-4.29 7.42c-.089.154-.255.249-.433.249z"/><path d="m16.255 24c-.178 0-.344-.095-.433-.25l-5.843-10.163c-.137-.24-.052-.545.188-.682.236-.135.545-.052.681.188l1.552 2.739 3.821 6.609 1.187-2.395c.09-.18.285-.287.48-.277l2.668.17-4.559-7.903c-.138-.239-.056-.545.184-.683.239-.139.545-.057.684.183l5.024 8.712c.092.16.089.357-.009.514s-.271.242-.457.235l-3.268-.209-1.452 2.932c-.082.165-.248.271-.433.277-.004.003-.01.003-.015.003z"/></svg>