<?xml version="1.0" encoding="utf-8"?>
<!-- Generator: Adobe Illustrator 27.2.0, SVG Export Plug-In . SVG Version: 6.00 Build 0)  -->
<svg version="1.1" id="Слой_1" xmlns="http://www.w3.org/2000/svg" xmlns:xlink="http://www.w3.org/1999/xlink" x="0px" y="0px"
	 viewBox="0 0 477 477" style="enable-background:new 0 0 477 477;" xml:space="preserve">
<style type="text/css">
	.st0{fill:#578BCD;stroke:#578BCD;stroke-width:8;stroke-miterlimit:10;}
</style>
<path class="st0" d="M404.6,404.6c-43.9,44.2-103.6,69-165.9,68.8c-9.3-0.1-18.5-0.7-27.7-1.8c-2.6-0.3-5.2-0.8-7.7-1.1
	c-6.8-1-13.5-2.3-20.2-3.8c-2.5-0.6-4.9-1.1-7.3-1.8c-8.3-2.3-16.5-5-24.5-8.2l-1.1-0.4c-8.7-3.6-17.2-7.7-25.5-12.3
	c-1.1-0.7-2.3-1.4-3.4-2.1c-7-4.1-13.8-8.5-20.4-13.3c-1.3-1-2.6-1.9-3.8-2.9c-8.6-6.4-16.8-13.4-24.4-21c-0.3-0.3-0.3-0.8-0.5-1.3
	c-11.2-11.5-21.3-24.1-30-37.6v68.3c0,2.6-2.1,4.8-4.8,4.8c-2.6,0-4.8-2.1-4.8-4.8v-76.7c0-2.6,2.1-4.8,4.8-4.8h76.7
	c2.6,0,4.8,2.1,4.8,4.8c0,2.6-2.1,4.8-4.8,4.8H51.5c13.9,21.3,31.2,40.1,51.3,55.6l3.8,2.9c6.2,4.5,12.6,8.7,19.2,12.6l3.5,2.1
	c7.9,4.4,16,8.3,24.3,11.8l1.1,0.4c7.6,3,15.4,5.6,23.3,7.7c2.3,0.7,4.7,1.2,7,1.8c6.4,1.5,12.8,2.8,19.2,3.8
	c2.5,0.3,4.9,0.8,7.7,1.1c8.8,1.1,17.7,1.6,26.5,1.7c124.5-0.2,225.3-101.3,225.2-225.9c0-9.5-0.6-19-1.8-28.4
	c-0.4-2.6,1.5-5,4.1-5.4c0,0,0.1,0,0.1,0c2.6-0.3,4.9,1.5,5.3,4.1C481.1,280.6,456.4,353.3,404.6,404.6z M79.6,79.5
	c42.1-42.4,99.4-66.2,159.1-66c8.9,0.1,17.7,0.6,26.5,1.7c2.5,0.3,5,0.8,7.7,1.1c6.5,1,12.9,2.3,19.2,3.8c2.3,0.6,4.7,1.1,7,1.8
	c7.9,2.1,15.7,4.7,23.3,7.7l1.1,0.4c8.3,3.4,16.5,7.4,24.3,11.8l3.5,2.1c6.6,3.9,13,8.1,19.2,12.6l3.8,2.9
	c20.1,15.5,37.4,34.3,51.3,55.6h-62.4c-2.6,0-4.8,2.1-4.8,4.8s2.1,4.8,4.8,4.8h76.7c2.6,0,4.8-2.1,4.8-4.8V43.1
	c0-2.6-2.1-4.8-4.8-4.8s-4.8,2.1-4.8,4.8v68.5c-8.7-13.5-18.7-26.1-30-37.6c-0.2-0.5,0-1-0.5-1.3c-7.6-7.6-15.8-14.6-24.4-21
	l-3.8-2.8C369.8,44,363,39.6,356,35.5c-1.1-0.7-2.3-1.4-3.4-2.1c-8.2-4.6-16.7-8.7-25.5-12.3l-1.1-0.4c-8-3.2-16.2-6-24.5-8.2
	c-2.4-0.7-4.8-1.2-7.2-1.8c-6.6-1.6-13.4-2.9-20.2-3.8c-2.6-0.4-5.1-0.8-7.7-1.1C257.2,4.6,248,4,238.7,3.9
	C108.8,4.1,3.7,109.5,3.9,239.3c0,10.2,0.7,20.3,2,30.4c0.3,2.4,2.4,4.1,4.8,4.1h0.6c2.6-0.3,4.5-2.7,4.1-5.4c0,0,0,0,0,0
	C5.9,198.9,29.7,128.9,79.6,79.5z"/>
</svg>
