<?xml version="1.0" encoding="utf-8"?>
<!-- Svg Vector Icons : http://www.onlinewebfonts.com/icon -->
<!DOCTYPE svg PUBLIC "-//W3C//DTD SVG 1.1//EN" "http://www.w3.org/Graphics/SVG/1.1/DTD/svg11.dtd">
<svg version="1.1" xmlns="http://www.w3.org/2000/svg" xmlns:xlink="http://www.w3.org/1999/xlink" x="0px" y="0px" viewBox="0 0 1000 1000" enable-background="new 0 0 1000 1000" xml:space="preserve">
<metadata> Svg Vector Icons : http://www.onlinewebfonts.com/icon </metadata>
<g><g transform="translate(0.000000,511.000000) scale(0.100000,-0.100000)"><path d="M4685.5,4585.9c-1385.1-315.2-1881.9-1999.7-885.2-2996.3c130.6-133.7,305.7-267.5,417.1-324.8c105.1-54.1,171.9-98.7,149.7-101.9c-98.7-3.2-535-200.6-745.1-337.5C3052,459.2,2663.5-82.2,2475.6-763.6c-66.9-245.2-70-315.3-70-1681.2l-3.2-1429.7l159.2-60.5c89.2-35,337.5-114.6,557.2-175.1c1455.2-404.4,2869-388.5,4371.9,54.1l216.5,63.7l-9.5,1550.7l-9.6,1550.7l-105.1,302.5C7404.8-79,7124.6,331.8,6742.5,643.9c-232.4,187.9-598.6,391.7-850.2,471.3l-171.9,54.1l187.9,101.9c261.1,136.9,576.4,461.7,722.8,741.9c601.8,1149.5-181.5,2525.1-1477.5,2604.7C4981.6,4627.3,4816,4617.7,4685.5,4585.9z M5363.7,4076.4c713.3-184.7,1124-904.3,910.7-1601.6c-101.9-343.9-318.4-601.8-643.2-770.6c-703.7-363-1547.5-6.4-1795.9,761c-79.6,248.4-57.3,659.1,54.1,901.1c111.5,238.8,331.2,471.3,563.6,595.4C4765.1,4127.4,5032.5,4162.4,5363.7,4076.4z M5726.7,634.3c700.5-232.4,1264.1-850.2,1420.2-1547.5c41.4-194.2,47.8-429.9,41.4-1474.3l-9.6-1238.7l-299.3-73.2c-595.4-140.1-968-181.5-1674.9-181.5c-484,0-770.6,15.9-1034.9,57.3c-391.7,60.5-1206.8,257.9-1251.4,302.5c-15.9,15.9-22.3,576.3-15.9,1248.2c15.9,1350.1,22.3,1397.9,232.4,1827.8C3596.5,500.6,4723.7,968.6,5726.7,634.3z"/><path d="M1685.9,2643.5c-369.4-105.1-671.9-359.8-837.4-710.1c-92.4-194.2-101.9-238.8-101.9-531.8c0-308.9,6.4-331.2,121-566.8c86-172,168.8-286.6,289.8-391.7l168.8-149.6l-213.3-105.1c-280.2-140.1-541.3-414-684.6-719.6c-207-433-283.4-878.8-321.6-1840.5c-22.3-640,0-726,261.1-939.3c296.1-238.8,713.3-391.7,1248.2-449c178.3-19.1,197.4-15.9,200.6,38.2c0,35,12.7,143.3,25.5,242c25.5,197.4,9.6,216.5-143.3,216.5c-146.5,0-570,98.7-729.2,171.9c-86,41.4-207,114.6-267.5,165.6l-108.3,89.1l22.3,531.8c35,952.1,171.9,1467.9,471.3,1799.1c187.9,203.8,375.7,308.9,655.9,363c184.7,38.2,499.9,28.6,620.9-15.9c38.2-15.9,60.5,19.1,105.1,175.1c44.6,159.2,70,203.8,152.8,245.2c299.3,152.8,544.5,464.9,640,821.5c168.8,614.5-181.5,1286.4-786.5,1518.9C2249.5,2688.1,1908.8,2704,1685.9,2643.5z M2370.5,2092.7c461.7-235.6,570-818.3,226.1-1206.8C2431,698,2265.5,621.6,2020.3,621.6c-538.1,0-894.8,490.4-748.3,1022.1c44.6,162.4,242,375.7,426.7,464.9C1896.1,2200.9,2173.1,2194.5,2370.5,2092.7z"/><path d="M7688.2,2649.9c-372.6-95.5-691-356.6-866.1-716.4c-82.8-165.6-89.2-213.3-89.2-531.8c0-312,9.6-369.4,86-531.8c101.9-216.5,302.5-445.8,515.8-582.7c133.7-86,162.4-124.2,210.1-273.9c41.4-140.1,63.7-168.8,114.6-159.2c194.3,35,646.4,12.8,792.9-38.2c343.9-121,611.4-407.6,748.3-802.4c121-340.7,162.4-624.1,181.5-1257.8l19.1-620.9l-146.5-105.1c-191-133.7-436.2-219.7-783.3-267.5c-149.6-19.1-283.4-44.6-299.3-57.3c-12.7-12.8-12.7-124.2-3.2-251.6l22.3-232.4l222.9,22.3c512.7,50.9,977.6,226.1,1251.4,471.3c242,219.7,248.4,242,226.1,1003C9847.1-725.4,9557.3-101.3,8697.6,290.4c-6.4,3.2,70.1,82.8,168.8,175.1c671.9,633.7,493.6,1706.7-350.3,2101.6C8274.1,2681.7,7939.7,2713.6,7688.2,2649.9z M8388.7,2073.6c534.9-315.2,509.5-1082.6-44.6-1362.8c-407.6-207-904.3-28.7-1079.4,388.5c-25.5,60.5-44.6,200.6-44.6,305.7c-3.2,328,194.3,611.4,509.5,729.2C7911.1,2204.1,8210.4,2175.4,8388.7,2073.6z"/></g></g>
</svg>