<?xml version="1.0" encoding="utf-8"?>
<!-- Generator: Adobe Illustrator 24.1.2, SVG Export Plug-In . SVG Version: 6.00 Build 0)  -->
<svg version="1.1" id="Слой_1" xmlns="http://www.w3.org/2000/svg" xmlns:xlink="http://www.w3.org/1999/xlink" x="0px" y="0px"
	 viewBox="0 0 9695.1 9695.1" style="enable-background:new 0 0 9695.1 9695.1;" xml:space="preserve">
<style type="text/css">
	.st0{fill:#47AF98;}
</style>
<g>
	<g transform="translate(0.000000,511.000000) scale(0.100000,-0.100000)">
		<path class="st0" d="M45750,1412.6c-13600.3-3095-18478.4-19635.1-8691.8-29420.7c1282.4-1312.8,3001.7-2626.6,4095.5-3189.2
			c1032-531.2,1687.9-969.1,1469.9-1000.6c-969.1-31.4-5253.2-1969.7-7316.2-3313.9C29710.7-39107.6,25896-44423.6,24051-51114.3
			c-656.9-2407.6-687.3-3095.9-687.3-16507.7l-31.4-14038.3l1563.2-594c875.9-343.7,3313.9-1125.3,5471.2-1719.3
			c14288.6-3970.8,28170.8-3814.7,42927.8,531.2l2125.8,625.5l-93.3,15226.4l-94.3,15226.4l-1032,2970.3
			c-1749.8,5001.8-4501,9035.5-8252.9,12100c-2281.9,1845-5877.7,3846.1-8348.1,4627.7l-1687.9,531.2l1845,1000.6
			c2563.7,1344.2,5659.7,4533.4,7097.2,7284.7c5909.1,11287-1782.2,24794-14507.6,25575.6
			C48657.4,1819.1,47031.4,1724.8,45750,1412.6z M52409.3-3590.2c7003.9-1813.6,11036.6-8879.3,8942.2-15726.1
			c-1000.6-3376.8-3126.4-5909.1-6315.6-7566.5c-6909.6-3564.3-15194.9-62.8-17634,7472.3c-781.6,2439-562.6,6471.7,531.2,8847.9
			c1094.8,2344.8,3252.1,4627.7,5534,5846.2C46531.6-3089.5,49157.2-2745.8,52409.3-3590.2z M55973.6-37388.3
			c6878.2-2281.9,12412.2-8348.1,13945-15194.9c406.5-1906.9,469.4-4221.2,406.5-14476.2l-94.3-12162.8l-2938.8-718.8
			c-5846.2-1375.6-9504.8-1782.2-16445.9-1782.2c-4752.4,0-7566.5,156.1-10161.7,562.6c-3846.1,594-11849.6,2532.3-12287.5,2970.3
			c-156.1,156.1-219,5658.7-156.1,12256.1c156.1,13256.7,219,13726,2281.9,17947.2C35057.1-38701.1,46125.1-34105.8,55973.6-37388.3
			z"/>
		<path class="st0" d="M16296.9-17659.9c-3627.1-1032-6597.4-3532.9-8222.4-6972.5c-907.3-1906.9-1000.6-2344.8-1000.6-5221.8
			c0-3033.1,62.8-3252.1,1188.1-5565.4c844.4-1688.9,1657.5-2814.1,2845.6-3846.1l1657.5-1468.9l-2094.4-1032
			c-2751.3-1375.6-5315-4065.1-6722.1-7065.8C1916-53084,1165.8-57461.3,790.7-66904.2c-219-6284.2,0-7128.6,2563.7-9223
			c2907.4-2344.8,7003.9-3846.1,12256.1-4408.7c1750.7-187.5,1938.3-156.1,1969.7,375.1c0,343.7,124.7,1407.1,250.4,2376.2
			c250.4,1938.3,94.3,2125.8-1407.1,2125.8c-1438.5,0-5596.8,969.1-7160,1687.9c-844.4,406.5-2032.5,1125.3-2626.6,1626
			l-1063.4,874.9l219,5221.8c343.7,9348.7,1687.9,14413.3,4627.7,17665.4c1845,2001.1,3689,3033.1,6440.3,3564.3
			c1813.6,375.1,4908.5,280.8,6096.6-156.1c375.1-156.1,594.1,187.5,1032,1719.3c437.9,1563.2,687.3,2001.1,1500.3,2407.6
			c2938.8,1500.3,5346.5,4564.9,6284.2,8066.3c1657.5,6033.8-1782.2,12631.2-7722.7,14914.1
			C21830.9-17222,18485.6-17065.8,16296.9-17659.9z M23019-23068.2c4533.4-2313.4,5596.8-8034.9,2220.1-11849.6
			c-1626-1845-3251.1-2595.2-5658.7-2595.2c-5283.6,0-8786.1,4815.2-7347.6,10036c437.9,1594.6,2376.2,3689,4189.8,4564.9
			C18360.9-22005.8,21080.7-22068.6,23019-23068.2z"/>
		<path class="st0" d="M75233.6-17597.1c-3658.6-937.7-6784.9-3501.5-8504.3-7034.3c-813-1626-875.9-2094.4-875.9-5221.8
			c0-3063.5,94.3-3627.1,844.4-5221.8c1000.6-2125.8,2970.3-4377.3,5064.6-5721.5c1312.8-844.4,1594.6-1219.5,2063-2689.4
			c406.5-1375.6,625.5-1657.4,1125.3-1563.2c1907.8,343.7,6347,125.7,7785.5-375.1c3376.8-1188.1,6003.4-4002.2,7347.6-7878.8
			C91272-56648.3,91678.5-59431,91866-65653.3l187.5-6096.6l-1438.5-1032c-1875.4-1312.8-4283.1-2157.2-7691.2-2626.6
			c-1468.9-187.5-2782.7-437.9-2938.8-562.6c-124.7-125.7-124.7-1219.5-31.4-2470.5l219-2281.9l2188.7,219
			c5034.2,499.8,9599.1,2220.1,12287.5,4627.7c2376.2,2157.2,2439,2376.2,2220.1,9848.5
			c-436.9,15289.2-3282.5,21417.2-11723.9,25263.4c-62.8,31.4,688.3,813,1657.5,1719.3c6597.4,6222.3,4846.7,16758.1-3439.6,20635.7
			C80986.6-17284.8,77703.1-16971.6,75233.6-17597.1z M82111.8-23255.8c5252.2-3095,5002.8-10630.1-437.9-13381.4
			c-4002.2-2032.5-8879.3-281.8-10598.6,3814.7c-250.4,594.1-437.9,1969.7-437.9,3001.7c-31.4,3220.6,1907.8,6003.3,5002.8,7160
			C77422.3-21974.4,80361.1-22256.2,82111.8-23255.8z"/>
	</g>
</g>
</svg>
