<?xml version="1.0" encoding="utf-8"?>
<!-- Generator: Adobe Illustrator 24.1.2, SVG Export Plug-In . SVG Version: 6.00 Build 0)  -->
<svg version="1.1" id="Слой_1" xmlns="http://www.w3.org/2000/svg" xmlns:xlink="http://www.w3.org/1999/xlink" x="0px" y="0px"
	 viewBox="0 0 411.3 564.2" style="enable-background:new 0 0 411.3 564.2;" xml:space="preserve">
<style type="text/css">
	.st0{fill:#FFEDCC;}
	.st1{clip-path:url(#SVGID_2_);}
	.st2{fill:#FFE3AD;}
	.st3{opacity:0.4;}
	.st4{fill:none;}
	.st5{fill:#010101;}
	.st6{fill:#FFFFFF;stroke:#010101;stroke-width:4;}
	.st7{fill:#3A8C7A;}
	.st8{fill:#FFFFFF;}
	.st9{fill:none;stroke:#FFFFFF;stroke-width:0.83;stroke-miterlimit:10;}
	.st10{fill:none;stroke:#3A8C7A;stroke-width:4;stroke-miterlimit:10;}
	.st11{fill:#B78C36;}
	.st12{fill:#E7B34E;}
	.st13{fill-rule:evenodd;clip-rule:evenodd;fill:#FFFFFF;}
	.st14{fill:none;stroke:#000000;stroke-width:4;stroke-miterlimit:10;}
	.st15{clip-path:url(#SVGID_4_);fill:none;stroke:#000000;stroke-width:4;stroke-miterlimit:10;}
</style>
<path class="st0" d="M193,119.8c0.1,2.8,0.2,12.4-5.2,15.4c-1.5,0.8-2.5,0.6-11.6-0.2c-11.2-1.1-12.6-1-14.9-2.6
	c-3.5-2.4-5.1-5.9-6.1-8.1c-1.3-2.9-3.2-6.9-2-10.9c2.2-7.1,13.3-9.6,20.7-9.3c2.6,0.2,10.5,0.6,15.5,6.9
	C191.3,113.6,192.5,116.6,193,119.8z"/>
<g>
	<g>
		<defs>
			<rect id="SVGID_1_" y="111.3" width="359.9" height="407"/>
		</defs>
		<clipPath id="SVGID_2_">
			<use xlink:href="#SVGID_1_"  style="overflow:visible;"/>
		</clipPath>
		<g class="st1">
			<path class="st2" d="M85,518.8c59.8-12.8,128.5-62.2,122.2-107.7c-5.7-41-81.8-79.7-160.2-70.5c-41.2,4.9-61.1,15.2-69.7,31.5
				c-0.2,45.1-0.4,90.1-0.6,135.2C-4.1,515.4,36.8,529.2,85,518.8z"/>
			<g class="st3">
				<polygon class="st4" points="-85.8,407 80.2,603.8 256.9,521.8 90.9,325 				"/>
			</g>
			<path class="st5" d="M73.5,186.1C87,182.3,96,173.7,99.7,162c3.8-11.7,17.8-20.5,36.3-11.3c5.5,0.3,14.7-2,18.1,5.3
				c3.4,7.3-0.8,13-1.1,20.1s3.2,14.6,1.7,26.1c-1,7.7-5.9,12.4-1.9,14.7c0,0-6,4.7-7.8,4.7l-3.2-8.6l-1.3,8.8c0,0-0.4-1.1-19.1-5.5
				S73.5,186.1,73.5,186.1z"/>
			<path class="st5" d="M151.9,194.6c1.1-15.2-2.5-20.1-1.1-25.3c0.6-2.2,0.6-8.3-3.8-11.6c-2.9-2.2-7.6,0-10.6-1.6l-1.5,2.2
				c1.8,5.8,3.4,5.2,4,11.3c0.4,4.9-0.4,9.9-3.3,13.8c-1.1,1.5-2.5,2.8-3.7,4.3s-2.8,3.3-3.3,5.4c-0.5,2.5-0.2,5.2-1.9,7.4
				c-0.9,1.1-2.1,1.9-3.1,2.9c-0.8,0.8-1.4,1.8-1.9,2.8c-1.2,2.4-2.1,4.8-2.9,7.4c19.7,4.7,20.1,5.9,20.1,5.9l1.4-9.7l3.5,9.4
				c2,0,8.6-5.1,8.6-5.1c-3.6-2-0.7-5.9,1.1-11.8C153,199.7,151.7,197.2,151.9,194.6z"/>
			<path class="st6" d="M225.5,289.5c-10.3-6.4-32.8-21.2-54.1-35.4c-12.4-8.2-24.4-16.3-33.5-22.4c-4.5-3-8.3-5.6-11-7.4
				c-1.4-0.9-2.4-1.7-3.2-2.2s-1.3-0.9-1.5-1.1l0,0c-5-4.6-9.9-8.9-15.8-11.5c-3.4-1.4-7-2.1-10.7-2c-1.4,0-2.8,0.4-4.1,1.1
				c-1,0.6-1.6,1.6-1.7,2.8c-1,6.8,1.8,14.3,6.6,20.6l0,0c5.2,6.9,12.2,12.6,19.5,18.4l2,1.6c4.7,3.8,9.8,7.3,15.1,10.3
				c3.3,1.9,15,7.6,21.6,10.7l3.3,1.6l0,0c9.7,4.7,19.7,9.1,29.9,13L225.5,289.5z M225.5,289.5c-0.4,0-0.9,0.1-1.3,0.3l-4.3,1.7
				l4.3,1.9l0.6,0.3c1,0.4,2,0.9,2.9,1.6 M225.5,289.5l2.2,5.8 M227.6,295.3c-0.7,1.1-1.6,2.2-2.5,3.2c-0.6,0.7-1.4,1.3-2.3,1.5l0,0
				c-0.8,0.1-1.6-0.1-2.4-0.4c-2.6-0.8-5.2-1.9-7.9-2.9l-0.6-0.2c-2.4-1-4.9-2-7.5-2.9l0,0c-5.6-1.9-11.1-3.9-16.6-6L227.6,295.3z"
				/>
			<path class="st6" d="M299.8,397.2l0.4,0.1l-8.3-1.1c-9.5-1.2-20.6-2.4-26.3-2.5c-2.6,0-3.7-0.6-4.2-1.1s-0.7-1.2-0.6-1.8
				c0.1-0.9,0.3-1.8,0.7-2.7c0.1-0.3,0.3-0.7,0.5-1l0.1-0.3v-0.1l0,0l0.7-1.1l-0.7-1.1l-29-43.5l28.5,0.5l12.7,43l0.2,0.8l0.7,0.4
				l15.5,8.4l0.2,0.1l0.2,0.1l0,0h0.1l0.5,0.2c0.5,0.1,1.1,0.3,2,0.6C295.5,395.7,297.7,396.4,299.8,397.2z"/>
			<path class="st7" d="M80.8,328c0,0,46.2-31.5,82.3-49.8s53.6-21.5,74.4,8.6c12.4,18,23.2,37.2,32,57.2l-52.3-1
				c0,0-2.7-1.6-4.7-8.2s-7.9-4.7-8.7-11.1s-4.1-9-4.1-9s-66.4,75.6-94.4,75.1L66.4,389L80.8,328z"/>
			<path class="st7" d="M198.1,264.7c-9.7,1.5-21,6.3-35,13.5C127,296.5,80.8,328,80.8,328l-14.4,61.1l38.9,0.7
				c27.9,0.5,94.4-75.1,94.4-75.1S186.2,282.1,198.1,264.7z"/>
			<path class="st8" d="M93.7,367.1l-0.6-0.8l104.1-70.7l0.2,0.6c0,0,0.8,2.4,2.4,3c0.7,0.2,1.6,0.1,2.2-0.3l0.4-0.3l21.1,34.1
				l-0.9,0.5l-20.5-33.3c-0.8,0.4-1.8,0.5-2.6,0.2c-1.3-0.6-2.3-1.7-2.8-3L93.7,367.1z"/>
			<path class="st7" d="M93.2,327.1l0.7,13.3c0,0,37.8-9,76.3-6.9s55.7,23.8,45.3,46.8s-44.8,30.3-68.2,29.8l-85.1-1.6
				c-32-0.6-55.9-9.4-50.5-46.9c1.9-12.9,6.8-25.1,14.2-35.8L93.2,327.1z"/>
			<path class="st7" d="M209.4,389.5c-23.6,11-30.9-5.7-30.9-5.7c-16.9,9.4-73.5,25.5-89,25.2c21.5,0.4,41.3,0.8,57.9,1.1
				C167.2,410.5,195.1,405.3,209.4,389.5z"/>
			<path class="st8" d="M200.8,363.2l-22.7,20.3l0.7,0.8l22.7-20.3L200.8,363.2z"/>
			<path class="st8" d="M204.6,383.8l-25,1.3l0.1,1l25-1.3L204.6,383.8z"/>
			<path class="st8" d="M178.9,382.7l-0.8-0.6c3.7-5.1,5.8-11.2,6-17.5h1C184.9,371.2,182.7,377.5,178.9,382.7z"/>
			<path class="st8" d="M16.3,388.7l-0.2-1c8.1-1.3,15.1-8.5,15.2-15.8l0.2-12.5L12.2,359v-1l20.4,0.4L32.3,372
				C32.2,379.7,24.8,387.3,16.3,388.7z"/>
			<path class="st7" d="M93.2,327.1l-67.4-1.2c-4.8,6.9-8.5,14.5-11,22.5c12.1,10.3,30.8,2,44.4-4.9c10.9-5.6,27.4-6.9,34.5-7.2
				L93.2,327.1z"/>
			<path class="st8" d="M60.7,358l-0.6-0.8c19-15,33.6-17.3,33.7-17.3l0.1,1C93.8,340.9,79.4,343.1,60.7,358z"/>
			<path class="st8" d="M21.9,330.9v1l71.6,1.3v-1L21.9,330.9z"/>
			<path class="st8" d="M162.1,408.7l-0.2-1c29.7-5,44.6-18.6,48.3-28.8c1.9-5.8,1.3-12.1-1.6-17.5c-4.4-8.5-13.8-14.7-27.9-18.5
				c-32.7-8.8-103.5,6.5-104.2,6.6l-0.8,0.2l0.2-0.8c0.2-0.9,0.3-2-0.3-2.4c-1-0.7-3.8,0.7-5.3,1.8l-0.8,0.6l1.2-21l1,0.1l-1.1,19
				c1.4-0.8,4.2-2.2,5.6-1.2c0.7,0.5,1,1.4,0.9,2.7c7.6-1.6,72.8-14.9,103.9-6.5c14.4,3.9,24,10.3,28.6,19c3,5.7,3.6,12.3,1.6,18.4
				C207.4,389.7,192.3,403.7,162.1,408.7z"/>
			<path class="st5" d="M312.5,393.6c-11,0-19.2-13.7-38.5-23.1l-26.3,0.6c0,0-1.6,36.3,8.9,37.5c3.6,0.6,7.3,0.6,10.9,0
				c1.9-0.4-2.3-10.5-1.1-10.5c1.4,0,7.3,10,8.8,10c19.4,0.4,50.4,0,50.4,0C325.7,403.8,323.5,393.6,312.5,393.6z"/>
			<path class="st8" d="M216,334.5v1l48.7,0.9v-1L216,334.5z"/>
			<path class="st8" d="M203.7,287.6l-3.6,24.6l1,0.1l3.6-24.6L203.7,287.6z"/>
			<path class="st8" d="M198,305.1c-1.4-6.3-1.9-12.8-1.5-19.3l1,0.1c-0.4,6.3,0,12.7,1.4,18.9L198,305.1z"/>
			<path class="st8" d="M204.7,313.6l-0.7-0.8l15.3-12.9l0.6,0.8L204.7,313.6z"/>
			<path class="st9" d="M148.7,260.5l4,11.7"/>
			<path class="st6" d="M143.5,170.3L143.5,170.3c0.1,0.6,0.2,1.3,0.4,2c0.6,3.3,1.3,7.3,1.9,11.6l-0.3,0.3l-0.4,0.5v0.7l0,0v0.6
				c0,0.4,0,1,0,1.8c0,1.5-0.1,3.7-0.1,6.4s-0.5,5-2.3,6.9s-5.3,3.5-12.5,3.5h-1l-0.6,0.8L115.2,224l-17.4-5.4
				c2.1-1.4,4-2.8,5.9-4.4c5.2-4.4,11.2-10.8,14-19.1l0.8-2.3l-2.4-0.3l0,0c-0.1,0-0.2,0-0.3-0.1c-0.4-0.1-0.7-0.3-1-0.5
				c-1.1-0.9-1.8-2.2-1.9-3.6c0-0.1,0-0.1,0-0.2l0,0l0,0c0-0.1,0-0.3,0.1-0.4c0.1-0.1,0.2-0.2,0.4-0.3c0.8-0.3,1.7-0.5,2.6-0.5
				c1,0,2.1,0,3.1,0.1c0.4,0.1,0.8,0.1,1,0.1l0.3,0.1h0.1l1.8,0.4l0.5-1.8l0,0l0,0v-0.1l0.1-0.5c0.1-0.4,0.3-1,0.5-1.6
				c0.4-1.2,0.9-2.4,1.5-3.6l0,0c0.8-1.2,1.8-2.2,3-2.9l0.9-0.7c1.3-1,2.6-2,3.8-3.1c1.8-1.6,3.1-3.7,3.9-6c0.6-2,0.9-4,0.7-6.1
				c0.4,0.2,0.7,0.4,1.1,0.6C140.4,163.1,142.7,165.5,143.5,170.3z"/>
			<path class="st8" d="M115.7,194.4c-1.6,4.5-4.1,8.7-7.4,12.3c0.6,3.4,2.1,7,5.4,7.1c5.7,0.2,8.7-3.8,13-2.6l3.4-4.6
				C118.1,203,115.7,194.4,115.7,194.4z"/>
			<path class="st5" d="M134.4,178.7c0,0,2.7-4.7,4.8,0.1L134.4,178.7z"/>
			<path class="st5" d="M131.3,175.4c0-0.2,0-0.5,0.1-0.7c0.7-1.2,1.8-2.2,3.2-2.7c1.1-0.6,2.4-0.7,3.6-0.3c0.1,0,0.2,0.1,0.3,0.2
				c0.2,0.3,0.2,0.7,0,1c-0.5,0.8-1.2,1.4-2,1.6c-1,0.5-2,0.9-3,1.1c-0.6,0.3-1.4,0.3-2,0C131.4,175.7,131.3,175.6,131.3,175.4z"/>
			<path class="st5" d="M144.7,189.4c-0.4,0.2-0.4,0.6-0.6,0.9c-0.3,0.6-0.9,1.1-1.6,1.2c-0.7,0.1-1.4-0.1-1.9-0.5
				c-0.6-0.4-1.1-0.9-1.5-1.4c-0.1-0.1-0.2-0.1-0.3,0c-0.1,0-0.1,0.1-0.1,0.2c0.1,0.7,0.9,1.3,1.4,1.7c0.6,0.5,1.3,0.8,2.1,0.8
				c0.7,0,1.3-0.2,1.9-0.6c0.2-0.2,0.4-0.4,0.6-0.7c0.1-0.2,0.2-0.3,0.3-0.5c0.1-0.1,0.1-0.4,0.2-0.5
				C145.5,189.8,145.1,189.2,144.7,189.4z"/>
			<path class="st8" d="M130.9,184.1c-0.8,0.4-1.3,1.2-1.3,2.1c0.1,0.3,0.3,0.7,0.5,0.9c1.2,1.3,3.2,1.4,4.9,1.1s5.2-2.8,2.6-4.6
				C136,182.6,132.3,183.2,130.9,184.1z"/>
			<path class="st6" d="M114,186.5L114,186.5c0.5-0.4,1-0.7,1.6-0.9c0.7-0.1,1.4-0.1,2.1,0.1c0.6,0.2,1.1,0.5,1.4,1l0,0
				c0.4,0.7,0.7,1.4,0.8,2.1c0.1,0.5,0.1,1.1-0.1,1.6c-0.2,0.3-0.4,0.5-0.7,0.7c-1,0.7-2.3,1-3.5,0.7c-1.1-0.3-2-1.2-2.4-2.3
				C113,188.5,113.3,187.4,114,186.5z"/>
			<path class="st8" d="M121.3,186.7c-0.7-0.4-1.5-0.6-2.3-0.8c-1.2-0.3-2.5,0-3.4,0.9c-1,1-1,2.6-0.1,3.5c0.1,0.1,0.2,0.2,0.3,0.3
				c2.3,1.6,4.9,0.2,6.2-1.9C121.9,188,121.6,187.3,121.3,186.7z"/>
			<path class="st5" d="M116.2,186.4L116.2,186.4c0-0.1,0-0.1-0.1-0.1c-0.4-0.3-1.1,0.3-1.4,0.5c-0.6,0.6-0.9,1.4-0.7,2.3
				c0,0.1,0.1,0.1,0.1,0.1s0.1,0,0.1-0.1c0-0.7,0.3-1.3,0.7-1.8c0.1-0.1,0.8-0.6,1-0.6C116,186.6,116.2,186.5,116.2,186.4
				L116.2,186.4z"/>
			<path class="st5" d="M118.1,189.2c-0.2-0.6-0.6-1.1-1.2-1.4c-0.1-0.1-0.2,0.1-0.1,0.2c0.4,0.4,0.7,0.8,0.8,1.3
				c0.2,0.4,0.2,0.8,0.1,1.1c-0.1,0.2-0.1,0.3-0.1,0.5c0,0.1,0.1,0.2,0.2,0.1h0.1C118.6,190.7,118.3,189.8,118.1,189.2z"/>
			<path class="st6" d="M24.7,313.8l1.8,0.8l-0.2,0.6l-0.5,0.3c-1.7,1-3.1,2.4-4.1,4.1c-0.5,0.8-0.6,1.8-0.3,2.7
				c0.6,1.1,1.6,1.9,2.8,2.3c2.2,0.9,4.6,1.3,7,1.2l16.2,0.3l46.1,0.9c1.2,0.1,2.5-0.1,3.6-0.5c0.4-0.2,0.7-0.6,0.8-1.1
				c0.2-1,0.3-2,0.2-3c0-0.2,0-0.5,0-0.7c0-1.1-0.1-2.4,0-3.8l0,0l2,0.1L24.7,313.8z M24.7,313.8l1.8,0.8l0,0v-0.1l0.1-0.2l0.4-0.9
				c0.3-0.8,0.8-1.9,1.4-3.3c1.2-2.8,2.9-6.8,5-11.5c4.1-9.3,9.4-21.1,14.4-31.3L24.7,313.8z M112.3,208L112.3,208l-64.5,59.4
				c5-10.3,10.6-20.3,16.7-30c5.8-9.1,11.4-16.7,15.7-20.7l0,0C89.1,208.3,100.4,202.1,112.3,208z"/>
			<path class="st10" d="M85.1,294.6c-0.7,0.5-47.4,23.4-47.4,23.4"/>
			<path class="st10" d="M49.7,319.7l22.8-8.1"/>
			<path class="st5" d="M115.7,194.4c4.8,4.4,8.9,9.7,11.9,15.5c2.7,4.9,2,9.1,9,14.2c-3.1,2-13.3,1.7-22.4-4.6
				c-11.5-7.9-26.2-5.8-31.1,0.2l-12.8-9.8l6.3-7.3l-10.5,3.5l-7.5-14.2c0,0,10.2-4.3,18.5-6.8S115.7,194.4,115.7,194.4z"/>
			<path class="st11" d="M198.9,180.5l-31.6-11.8l-9.8,47.8l29.9,13.4"/>
			<path class="st12" d="M198.9,180.5l-11.4,49.4l-37.1-1.9l9.9-50.7L198.9,180.5z"/>
			<path class="st8" d="M192.9,180l-23.2-6.8l-2.3,4.6"/>
			<path class="st13" d="M141.2,299.2c-10.5,1.3-20.5-5.1-28.7-15c-1.7-2.1-3.6-4.3-5.4-6.6c-7.3-9-14.9-18.4-20-20.5
				c-14.4-5.9,5.5-43.2,13.5-41.3c17.5,4.2,37.5,35.4,37.9,36l32.9-42.8h0.1c0.7-3.6,4.1-20.7,7.3-20.1s2.1,12.2,1.8,15
				c1.2,0.8,2.6,1,3.9,0.4c1.3-0.6,2.5-1.6,3.4-2.7c0.8-1,1.5-2.2,1.8-3.5s0-2.7-0.8-3.7c-0.3-0.3-0.5-0.6-0.9-0.9
				c-0.6-0.5-1.1-1.1-1.3-1.8c-0.3-1.3,0.9-2.4,2.1-2.8c2.8-0.9,6,1,7.1,3.7c1.1,2.8,1,5.9-0.3,8.6c-0.3,0.7-0.7,1.4-1.1,2.1
				c1.4-1.1,2.8-1.7,4-0.5s0.5,3.6-0.8,5.9c1.2-1,2.5-1.5,3.4-0.5c3.7,3.9-14.5,21.7-14.5,21.7S159.8,296.9,141.2,299.2z"/>
			<path class="st5" d="M138.3,299.4c0.1-3.4,0.8-7.2,1.8-7.3c0.2,0,0.4,0.1,0.5,0.2c1.1,0.9,1.7,4.5,1.8,6.6l1.2-0.1
				c0-0.6-0.4-5.9-2.3-7.4c-0.4-0.3-0.9-0.5-1.4-0.5c-1.3,0.1-2.1,1.6-2.6,4.6c-0.2,1.3-0.3,2.7-0.4,4L138.3,299.4z"/>
			<path class="st5" d="M148.4,183.6c0-0.7-0.2-1.3-0.3-2c-0.3-1.1-0.5-2.3-0.8-3.4s-0.6-2.5-0.8-3.8c0-0.2-0.4-0.2-0.4,0
				c0.1,1,0.2,2.1,0.5,3.1c0.1,0.9,0.3,1.8,0.6,2.6s0.4,2,0.6,2.9c0.1,0.5,0.3,1.2,0,1.7c-0.5,0.5-1.2,0.7-1.9,0.7
				c-0.5,0-0.5,0.8,0,0.8c1,0,2-0.5,2.6-1.3C148.5,184.4,148.5,184,148.4,183.6z"/>
		</g>
	</g>
</g>
<path class="st14" d="M206.9,206.2"/>
<g>
	<g>
		<defs>
			<rect id="SVGID_3_" x="75.7" y="189" width="131.2" height="111.8"/>
		</defs>
		<clipPath id="SVGID_4_">
			<use xlink:href="#SVGID_3_"  style="overflow:visible;"/>
		</clipPath>
		<path class="st15" d="M99.6,217.6c1.7-0.3,3.2,0.4,5.5,1.6c1.1,0.5,2.5,1.3,4.1,2.5c4.8,3.6,10.5,8.5,16.2,15
			c5.9,6.7,10.1,13.2,13,18.6c5.2-6.5,9.4-11.8,12.2-15.6c8.4-10.9,7.7-10.5,11.8-15.5c2.5-3,4.6-6.2,7-9.2c1.3-1.7,2.7-3.3,3.8-5.9
			c0.2-0.5,0.2-0.5,1.7-6.2c0,0,1.7-6.4,2.8-9.8c0-0.1,0.1-0.4,0.2-0.8c0.3-0.9,0.3-1.1,0.3-1.1s-0.1,0.4-0.1,1
			c0,0.5,0.1,0.8,0.1,1.1c0.1,0.7,0.2,1.4,0.3,2.1c0.5,3.3-0.7,8.7,1.6,10.4c1.9,1.4,5.6-0.1,6.6-0.7c0.5-0.2,0.9-0.6,0.9-0.6
			c1.2-0.9,1.8-1.7,2.2-2.2c1.6-1.9,3.1-1.1,4.3-2.5c1.4-1.6,1.1-4.7-0.3-6.7c-1.5-2.2-4.4-3.2-5.1-2.6c-0.5,0.5,0.7,1.8,1.8,4.6
			c2.2,5.7,1.1,9.8,2.7,10.3c1.3,0.4,3-2.1,3.7-1.6s-1.2,3.5-0.3,4.5c0.8,0.9,2.9-0.6,3.6,0.1c0.9,1-2.8,6.3-6.9,11
			c-3.2,3.7-6.2,6.6-8.4,8.5c-6.5,16.8-13.5,30.2-19.1,39.8c-15.5,26.7-22.5,28.8-26.6,29c-8.8,0.5-18.2-6.8-19-7.5
			c-2.1-1.7-4.2-4.1-8.4-9c-4.8-5.6-4.9-6.4-10.8-13.3c-5.5-6.6-8.4-9.9-10.9-11c-1.7-0.7-3.9-1.3-5.3-3.4c-1.2-1.9-1.1-4-0.9-6
			c0.8-8,3.6-14.2,4.2-15.5c0,0,2.5-5.5,7.9-11.7C97.1,219,98.1,217.9,99.6,217.6z"/>
	</g>
</g>
<path class="st0" d="M261.6,71.5c-2.7,2.8-12,12.5-20.4,10.1c-0.3-0.1-0.7-0.3-1-0.4c-5.2-2.2-7.9-5.6-10.8-8.9
	c-7.6-8.5-12.3-10.4-11.8-13.4c0.1-0.6,0.7-3.1,0.1-6.4c0,0,0-0.1,0-0.1c-0.9-4.6,5.2-11.4,5.2-11.4c5.5-6.2,8.3-9.3,12.4-10.2
	c8.3-1.9,15.8,4.9,20.4,9.1c4.5,4.1,11.4,10.3,11.1,19.4C266.4,65.1,263.3,69.4,261.6,71.5z"/>
</svg>
