<?xml version="1.0" encoding="utf-8"?>
<!-- Generator: Adobe Illustrator 24.0.1, SVG Export Plug-In . SVG Version: 6.00 Build 0)  -->
<svg version="1.1" id="Слой_1" xmlns="http://www.w3.org/2000/svg" xmlns:xlink="http://www.w3.org/1999/xlink" x="0px" y="0px"
	 viewBox="0 0 359.9 492.1" style="enable-background:new 0 0 359.9 492.1;" xml:space="preserve">
<style type="text/css">
	.st0{fill:#FFEDCC;}
	.st1{fill:#FFFFFF;}
	.st2{fill:none;stroke:#000000;stroke-width:4;stroke-miterlimit:10;}
	.st3{fill:#FFFFFF;stroke:#000000;}
	.st4{fill:#47AF98;}
	.st5{fill:none;stroke:#FFFFFF;stroke-width:0.83;stroke-miterlimit:10;}
	.st6{fill:#FFFFFF;stroke:#000000;stroke-width:4;}
	.st7{fill:#DB3B3B;}
	.st8{fill:none;stroke:#EFE9B9;stroke-linecap:round;stroke-linejoin:round;stroke-miterlimit:10;}
	.st9{fill:#B78C38;}
	.st10{fill:#E7B34D;}
	.st11{fill-rule:evenodd;clip-rule:evenodd;fill:#FFFFFF;}
	.st12{fill:#E20D03;}
	.st13{fill:#C40500;}
	.st14{fill:#D11E0B;}
	.st15{fill:#AF1509;}
	.st16{fill:#FC2D0F;}
	.st17{opacity:0.3;fill:#FFFFFF;enable-background:new    ;}
	.st18{display:none;}
	.st19{display:inline;fill:#FFEDCC;}
	.st20{display:inline;fill:#8FB552;}
	.st21{display:inline;fill:#81A836;}
	.st22{display:inline;fill:#709325;}
	.st23{display:inline;fill:#E8723D;}
	.st24{display:inline;fill:#DD5D2A;}
	.st25{display:inline;fill:#CE4313;}
	.st26{fill:#FFFFFF;stroke:#662210;stroke-width:0.5;stroke-miterlimit:10;}
	.st27{fill:#CC3623;}
	.st28{fill:#FFFFFF;stroke:#662211;stroke-width:0.5;stroke-miterlimit:10;}
	.st29{fill:none;stroke:#000000;stroke-linecap:round;stroke-miterlimit:10;}
	.st30{fill:#7C9CCD;}
	.st31{fill:#A4E7ED;}
	.st32{fill:#FAC81D;}
	.st33{fill:url(#SVGID_1_);}
	.st34{opacity:0.8;fill:url(#SVGID_2_);}
	.st35{fill:#AA9C1A;}
	.st36{fill:#E2D31B;}
	.st37{fill:#EFE9B9;}
	.st38{fill:url(#SVGID_3_);}
</style>
<path class="st0" d="M208.4,380.6C216,423,140,484.4,64.5,487.8c-26.8,1.2-49.2-5-64.5-11c0-22,0-44,0-66
	c0.2-23.1,0.3-46.2,0.5-69.2c18.5-8.4,83.2-35.1,150.9-7.6C170.5,341.8,203.8,355.3,208.4,380.6z"/>
<path class="st1" d="M206.2,283.1l-0.6-0.8l13.8-12.9l0.5,0.8L206.2,283.1z"/>
<path class="st2" d="M206.9,175.7"/>
<path class="st3" d="M124.6,194.9l71.4,50.4l-29.2,7.4l-61-59.1l10.3-7.6L124.6,194.9z"/>
<path d="M118.3,186.2c19.6,4.4,19.9,5.5,19.9,5.5l1.3-8.8l3.3,8.5c1.9,0,8.2-4.6,8.2-4.6c-4.2-2.3,0.9-7,2-14.7
	c1.6-11.5-2.1-19-1.8-26s4.6-12.8,1.1-20s-13.1-5-18.9-5.2c-19.4-9.1-34-0.4-37.9,11.3s-13.2,20.2-27.3,24
	C68.4,156.2,98.8,181.9,118.3,186.2z"/>
<path d="M151.8,172.3c-1.9,5.9-4.9,9.7-1.2,11.8c0,0-6.9,5.2-9,5.1l-3.6-9.4l-1.4,9.7c0,0-0.4-1.2-21-5.9c0.8-2.5,1.8-5,3-7.4
	c0.5-1,1.2-2,2-2.8c1-1,2.3-1.8,3.2-2.9c1.8-2.1,1.5-4.8,2-7.3c0.4-2.1,2-3.8,3.4-5.4c1.3-1.4,2.7-2.7,3.9-4.2
	c3.1-3.9,3.9-9,3.5-13.8c-0.6-6-2.3-5.5-4.1-11.2l1.6-2.2c3.2,1.6,8.1-0.6,11.1,1.6c4.6,3.3,4.6,9.4,3.9,11.6
	c-1.5,5.2,2.2,10.1,1.1,25.3C150,167.3,151.3,169.8,151.8,172.3z"/>
<path class="st3" d="M311.3,368.1c-2-1-4.1-1.9-6.2-2.6c-2.3-0.8-4.5-1.5-6.3-2.1l-2.1-0.6l-0.6-0.2c-0.1,0-0.1-0.1-0.2-0.1l0,0
	l0.2-0.5l-0.2,0.5l0,0h-0.1l-16.2-8.4l-0.2-0.1l-0.1-0.2L263,310.6l-27-1.1l28,45.5l0.2,0.3l-0.2,0.3l0,0l0,0l0,0
	c0,0.1-0.1,0.2-0.2,0.3c-0.1,0.3-0.4,0.6-0.5,1.1c-0.5,1-0.8,2.1-0.9,3.2s0.3,2.2,1.1,3c0.9,0.8,2.5,1.4,5.4,1.5
	c5.9,0.1,17.4,1.3,27.3,2.5c5,0.6,9.6,1.2,13,1.6c1.7,0.2,3,0.4,4,0.5c0.1,0,0.3,0,0.4,0l-0.2-0.2
	C312.8,368.8,312,368.4,311.3,368.1z"/>
<path class="st4" d="M60.9,358.7c0,0,11.5,0.2,40.6,0.7s98.5-74.9,98.5-74.9s3.5,2.6,4.3,9s7,4.5,9.1,11.1s4.9,8.2,4.9,8.2l54.6,1
	c-9.3-20-20.5-39.1-33.4-57c-21.7-30.1-39.9-26.8-77.6-8.6S76,297.9,76,297.9L60.9,358.7z"/>
<path class="st4" d="M200.1,284.5c0,0-69.3,75.4-98.5,74.9S61,358.7,61,358.7l15-61c0,0,48.2-31.5,85.9-49.7
	c14.7-7.1,26.4-11.9,36.6-13.4C186,252,200.1,284.5,200.1,284.5z"/>
<path class="st1" d="M197,267.1c0.6,1.3,1.6,2.4,2.9,3c0.9,0.3,1.9,0.2,2.7-0.2l21.5,33.2l0.9-0.5l-22-34l-0.5,0.3
	c-0.7,0.5-1.5,0.6-2.3,0.4c-1.7-0.6-2.5-3-2.5-3l-0.2-0.6L88.8,336l0.6,0.8L197,267.1z"/>
<path class="st4" d="M18.6,295.6c-7.7,10.6-12.7,22.8-14.8,35.7c-5.7,37.4,19.3,46.2,52.7,46.8l88.9,1.6
	c24.5,0.4,60.4-6.8,71.2-29.8s-7.2-44.6-47.3-46.7s-79.6,6.9-79.6,6.9L89,296.8L18.6,295.6z"/>
<path class="st4" d="M145.4,379.7c-17.3-0.3-38-0.7-60.4-1.1c16.2,0.3,75.3-15.7,92.9-25.1c0,0,7.6,16.6,32.2,5.6
	C195.3,374.8,166.2,380,145.4,379.7z"/>
<path class="st1" d="M202,333.5l-23.7,20.3l-0.7-0.7l23.7-20.3L202,333.5z"/>
<path class="st1" d="M205.2,354.5l-26.1,1.3l-0.1-1l26.1-1.3L205.2,354.5z"/>
<path class="st1" d="M184.9,334.3h-1.1c-0.2,6.3-2.4,12.4-6.3,17.4l0.9,0.6C182.4,347.2,184.6,340.8,184.9,334.3z"/>
<path class="st1" d="M25.4,341.6l0.3-13.5l-21.3-0.4v1l20.2,0.4l-0.3,12.5c-0.1,7.2-7.4,14.4-15.9,15.7l0.2,1
	C17.6,356.9,25.2,349.3,25.4,341.6z"/>
<path class="st4" d="M89.4,306c-7.4,0.3-24.6,1.6-36,7.2c-14.2,7-33.7,15.2-46.4,4.9c2.6-8,6.5-15.6,11.5-22.4l70.3,1.2L89.4,306z"
	/>
<path class="st1" d="M89.7,310.6l-0.1-1c-0.1,0-15.4,2.2-35.2,17.2l0.7,0.8C74.5,312.8,89.5,310.6,89.7,310.6z"/>
<path class="st1" d="M89.2,302v1l-74.7-1.3v-1L89.2,302z"/>
<path class="st1" d="M212.1,348.9c2.1-6.1,1.5-12.7-1.7-18.3c-4.8-8.7-14.8-15.1-29.8-19c-32.5-8.4-100.5,4.9-108.5,6.5
	c0.1-1.3-0.2-2.2-0.9-2.7c-1.5-1-4.4,0.4-5.9,1.2l1.1-18.9l-1.1-0.1l-1.2,20.9l0.9-0.6c1.6-1,4.5-2.4,5.6-1.8
	c0.6,0.4,0.6,1.5,0.3,2.4l-0.2,0.8l0.8-0.2c0.8-0.2,74.6-15.4,108.7-6.6c14.7,3.8,24.5,10,29.1,18.5c3,5.3,3.6,11.7,1.6,17.5
	c-3.9,10.2-19.4,23.8-50.4,28.7l0.2,1C192.3,373.2,208.1,359.3,212.1,348.9z"/>
<path d="M331.4,377.5c0,0-32.3,0.4-52.6,0c-1.6,0-7.7-10-9.2-10c-1.2,0,3.1,10.1,1.1,10.5c-3.7,0.6-7.6,0.6-11.3,0
	c-11-1.2-9.3-37.4-9.3-37.4l27.4-0.6c20.2,9.5,28.7,23.1,40.2,23.1S331.5,373.4,331.4,377.5z"/>
<path class="st1" d="M267.8,305.2v1l-50.8-0.9v-1L267.8,305.2z"/>
<path class="st1" d="M205.2,257.5l-3.8,24.5l-1-0.1l3.8-24.5L205.2,257.5z"/>
<path class="st1" d="M199.3,274.7c0-0.1-2.4-9.7-1.5-18.9l-1.1-0.1c-0.5,6.5,0,12.9,1.5,19.2L199.3,274.7z"/>
<path class="st1" d="M221.3,270.5l-0.7-0.8l-16,12.9l0.7,0.8L221.3,270.5z"/>
<path class="st5" d="M151.1,242.1l-4.2-11.6"/>
<path class="st6" d="M137,130.7c-1-0.6-2.1-1.1-3.2-1.4c-0.2-0.1-0.4-0.1-0.6-0.1c0.5,2.6,0.4,5.2-0.4,7.8c-0.8,2.1-2.1,3.9-3.7,5.4
	c-1.2,1.1-2.5,2-3.8,2.9l-1,0.7c-1.4,0.9-2.6,2-3.5,3.4l0,0c-0.7,1.2-1.2,2.5-1.7,3.8c-0.3,0.6-0.4,1.2-0.6,1.6l-0.1,0.5v0.1l0,0
	l0,0l-0.1,0.5l-0.5-0.1h-0.1c0,0-0.2,0-0.3-0.1s-0.7-0.1-1.2-0.2c-1.2-0.1-2.3-0.2-3.5-0.2c-1.1,0-2.3,0.2-3.3,0.7
	c-0.4,0.2-0.7,0.5-0.9,0.8c-0.2,0.4-0.4,0.8-0.3,1.2l0,0c0,0.1,0,0.2,0,0.4c0.1,1.8,1.1,3.5,2.6,4.6c0.4,0.3,0.9,0.6,1.4,0.7
	c0.1,0,0.3,0.1,0.4,0.1h0.1l0,0l0.7,0.1l-0.2,0.6c-2.8,7.9-8.8,14.1-14.1,18.4c-2.2,1.8-4.6,3.4-7,4.9c-0.7,0.4-1.3,0.8-1.8,1.1
	l22.3,6.6l14.7-19.2l0.2-0.2h0.3c7.7,0.1,11.9-1.6,14.1-3.9s2.7-5.2,2.8-7.9s0.1-4.8,0.1-6.4c0-0.8,0-1.3,0-1.8v-0.6l0,0v-0.2
	l0.1-0.1l0.7-0.8c-0.7-4.6-1.5-8.9-2.1-12.3c-0.1-0.7-0.2-1.4-0.4-1.9l0,0C142.3,136.3,140.2,132.9,137,130.7z"/>
<path class="st1" d="M127.5,176.7l-3.5,4.6c-4.4-1.1-7.6,2.8-13.6,2.6c-3.4-0.1-5-3.7-5.7-7.1c3.4-3.5,6-7.7,7.7-12.3
	C112.4,164.5,114.9,173.1,127.5,176.7z"/>
<path d="M136.9,148.9c-2.2-4.8-5-0.1-5-0.1L136.9,148.9z"/>
<path d="M128.9,145.9c0.7,0.3,1.4,0.3,2.1,0c1.1-0.3,2.1-0.6,3.1-1.1c0.9-0.3,1.6-0.9,2.1-1.6c0.2-0.3,0.2-0.7,0-1
	c-0.1-0.1-0.2-0.1-0.3-0.2c-1.2-0.4-2.6-0.3-3.7,0.3c-1.4,0.5-2.5,1.4-3.3,2.7c-0.2,0.2-0.2,0.4-0.2,0.7
	C128.7,145.7,128.8,145.8,128.9,145.9z"/>
<path d="M143.1,160.2c-0.1,0.1-0.1,0.4-0.2,0.5c-0.1,0.2-0.2,0.3-0.3,0.5c-0.1,0.3-0.3,0.5-0.6,0.7c-0.6,0.4-1.2,0.6-1.9,0.6
	c-0.8,0-1.6-0.3-2.2-0.8c-0.5-0.4-1.3-1-1.4-1.7c0-0.1,0.1-0.2,0.2-0.2c0.1,0,0.1,0,0.2,0.1c0.5,0.5,1,1,1.6,1.4s1.3,0.6,2,0.5
	s1.4-0.5,1.7-1.1c0.2-0.3,0.2-0.7,0.6-0.9S143.5,159.9,143.1,160.2z"/>
<path class="st1" d="M135.2,153.8c2.8,1.8-0.8,4.2-2.7,4.6s-3.9,0.2-5.1-1.1c-0.3-0.2-0.5-0.6-0.6-0.9c0-0.9,0.5-1.8,1.3-2.1
	C129.7,153.4,133.6,152.8,135.2,153.8z"/>
<path class="st1" d="M118.9,158.9c-1.4,2.1-4,3.4-6.4,1.9c-1.1-0.8-1.4-2.3-0.6-3.4c0.1-0.1,0.2-0.3,0.4-0.4c1-0.8,2.3-1.1,3.6-0.9
	c0.8,0.1,1.7,0.4,2.4,0.7C118.6,157.5,118.8,158.1,118.9,158.9z"/>
<path d="M112.9,156.5c-0.1,0.1-0.1,0.2-0.3,0.1s-0.9,0.4-1.1,0.6c-0.4,0.5-0.7,1.2-0.7,1.8c0,0.1,0,0.1-0.1,0.1s-0.1,0-0.1-0.1
	c-0.2-0.8,0-1.7,0.7-2.2c0.3-0.2,1.2-0.9,1.5-0.5C112.9,156.4,112.9,156.4,112.9,156.5L112.9,156.5L112.9,156.5z"/>
<path d="M114.8,161.3c-0.1,0.1-0.3,0-0.3-0.1c0-0.2,0-0.3,0.1-0.5c0-0.4,0-0.8-0.2-1.1c-0.2-0.5-0.5-1-0.9-1.3
	c-0.1-0.1,0-0.3,0.1-0.2c0.6,0.3,1,0.8,1.2,1.4C115.1,160,115.4,160.8,114.8,161.3z"/>
<path class="st7" d="M74.3,185.6c-4.8,3.1-8.8,9-16.7,20.9c-6.4,9.7-12.2,19.7-17.5,30c-5.2,10.2-10.8,22-15,31.2
	c-2.1,4.6-3.9,8.6-5.2,11.5c-0.6,1.4-1.1,2.5-1.5,3.3c-0.2,0.4-0.3,0.7-0.4,0.9s-0.1,0.2-0.1,0.2l0,0l0,0l-0.5-0.2l0.5,0.2l-0.1,0.2
	l-0.1,0.1c-2,1.1-3.6,2.7-4.8,4.6c-0.8,1.2-0.9,2.7-0.4,4c0.8,1.4,2.1,2.5,3.6,3c2.5,0.9,5.1,1.4,7.7,1.4c3.8,0,9.9,0.2,16.9,0.3
	c17.9,0.3,41.7,0.7,48.1,0.9c1.5,0.1,3.1-0.1,4.5-0.7c0.8-0.4,1.4-1.1,1.6-2c0.2-1.1,0.3-2.2,0.3-3.4c0-0.3,0-0.4,0-0.7l0,0
	c0-0.3,0-3.3,0-3.6c0.2-2.2,11.1-10.9,14.5-14.5c2.9-3.1,3.7-6,5.9-18.6c4.8-28.1,7.2-42.4,4.9-55.4c-0.9-5.3-2.3-10.5-4.1-15.6
	C91.1,175.8,78,183.3,74.3,185.6z"/>
<path class="st8" d="M31,287.7c0,0,48.8-22.9,49.5-23.3"/>
<path class="st8" d="M67.3,281.4l-23.8,8.1"/>
<path d="M72.1,155.2c-8.7,2.5-19.3,6.8-19.3,6.8l7.8,14.2l10.9-3.5L65,180l13.4,9.8c5.1-6,20.5-8.1,32.5-0.2
	c9.6,6.3,20.2,6.6,23.4,4.6c-7.3-5.1-6.6-9.2-9.3-14.2c-3.2-5.8-7.5-11.1-12.5-15.4C112.4,164.5,80.7,152.7,72.1,155.2z"/>
<path class="st9" d="M187.4,200l-31.2-13.4l10.2-47.6l32.9,11.8"/>
<path class="st10" d="M159,147.5L148.6,198l38.8,1.9l11.9-49.2L159,147.5z"/>
<path class="st1" d="M166.3,148.1l2.4-4.6l24.3,6.7"/>
<path d="M96.4,187.1c4.3,1,8.9,3.6,13.4,7.1c4.5,3.6,8.7,7.6,12.5,11.9c3.8,4.1,7,8.2,9.2,11.3c1.1,1.5,2,2.8,2.7,3.7l0.8,1.1
	c0.1,0.1,0.2,0.2,0.3,0.4l1-0.5l-1,0.5l0.8,1.5l1.1-1.4l-0.9-0.7l0.9,0.7l34.2-42.5l0.4-0.2l0.1-0.5l-1.1-0.2l0.1,0.2l-0.1-0.2
	l1.1,0.2c0.4-1.8,1.4-6.9,2.8-11.5c0.6-2,1.3-4,2.2-5.9c0.3-0.6,0.6-1.1,1-1.5c0.1-0.1,0.2-0.1,0.2-0.2c0.1,0.1,0.2,0.1,0.2,0.2
	c0.2,0.4,0.4,0.7,0.5,1.1c0.3,1.4,0.5,2.8,0.5,4.2c0.1,2.7-0.1,5.5-0.4,8.2l1.1,0.1l-0.6,0.9c1.5,1,3.5,1.2,5.2,0.5
	c1.5-0.7,2.9-1.7,3.9-3.1c1-1.1,1.7-2.5,2.1-3.9l-0.5-0.1l0.5,0.1c0.4-1.6,0-3.3-1-4.6l-1.8,1.4c0.6,0.8,0.8,1.8,0.6,2.8
	c-0.3,1.1-0.9,2.1-1.6,3c-0.8,1-1.8,1.9-3,2.4c-0.8,0.3-1.7,0.3-2.4-0.1c0.3-2.6,0.4-5.1,0.3-7.7c0-1.6-0.2-3.2-0.6-4.7
	c-0.2-0.8-0.4-1.3-0.8-1.8c-0.6-0.7-1.3-1-1.8-1.2c-0.1,0.7-0.3,1.5-0.4,2.2l0.4-2.2c-0.9-0.1-1.7,0.2-2.3,0.9
	c-0.6,0.6-1.1,1.3-1.4,2.1c-1,2-1.7,4.1-2.4,6.2c-1.4,4.4-2.4,9.4-2.8,11.4L136.3,220l-0.2-0.2c-0.7-0.9-1.6-2.2-2.7-3.8
	c-2.3-3.1-5.6-7.2-9.4-11.4c-3.9-4.4-8.2-8.5-12.8-12.1c-4.6-3.5-9.5-6.4-14.3-7.5L96.4,187.1z M170.4,179.1L170.4,179.1
	L170.4,179.1L170.4,179.1L170.4,179.1z"/>
<polygon points="178.9,174 178.9,174.7 179.5,175 180.1,174.1 "/>
<path d="M109.9,253.4l-1.8,1.4c8.7,10,19.4,16.7,31,15.4l-0.3-2.2C128.5,269.2,118.4,263.2,109.9,253.4z"/>
<path d="M104.3,246.9L104.3,246.9c-3.8-4.5-7.7-9.1-11.3-12.9c-1.6-1.7-3.4-3.4-5.2-4.9c-1.4-1.2-3-2.3-4.7-3l-0.4,1l-0.4,1
	c1.5,0.7,2.9,1.5,4.1,2.6c1.8,1.5,3.4,3.1,5,4.7c3.6,3.7,7.4,8.2,11.2,12.8l0,0c1.9,2.2,3.8,4.5,5.6,6.6l1.8-1.4
	C108.1,251.3,106.2,249.2,104.3,246.9z"/>
<path d="M83.1,226.1c-3.1-1.2-4.6-4.1-4.6-8.2s1.3-9.1,3.5-13.9c2-4.5,4.6-8.8,7.8-12.6c1.2-1.4,2.5-2.6,4-3.6
	c0.8-0.6,1.7-0.9,2.7-0.8l0.5-2.1c-1.6-0.2-3.2,0.2-4.5,1.1c-1.7,1.1-3.2,2.5-4.4,4c-3.3,4-6.1,8.4-8.1,13.1
	c-2.2,5-3.7,10.3-3.7,14.8s1.7,8.5,6,10.2L83.1,226.1z"/>
<path class="st11" d="M186.4,200c0,0,18.9-17.8,15.1-21.7c-1-1-2.3-0.5-3.6,0.5c1.4-2.3,2.3-4.6,0.9-5.9s-2.7-0.6-4.1,0.6
	c0.4-0.7,0.8-1.4,1.1-2.1c1.3-2.7,1.5-5.8,0.3-8.5s-4.5-4.6-7.5-3.7c-1.3,0.4-2.5,1.6-2.2,2.8c0.3,0.7,0.8,1.4,1.4,1.8
	c0.3,0.3,0.6,0.6,0.9,0.9c0.8,1,1.1,2.4,0.8,3.7s-1,2.5-1.9,3.5c-0.9,1.2-2.1,2.1-3.5,2.7c-1.4,0.5-2.9,0.4-4.1-0.4
	c0.3-2.8,1.3-14.4-1.9-15s-6.8,16.4-7.6,20l-0.1,0.1L136.1,222c-0.4-0.7-21.3-31.8-39.6-35.9c-8.3-1.9-29.1,35.3-14.1,41.2
	c5.3,2.1,13.2,11.4,20.8,20.4c1.9,2.2,3.8,4.5,5.6,6.6c8.6,9.8,19,16.3,30,15C158.4,266.8,186.4,200,186.4,200z"/>
<path d="M146.4,155c-0.6,0.8-1.6,1.3-2.7,1.3c-0.5,0.1-0.5-0.7,0-0.8c0.7,0,1.4-0.3,1.9-0.7c0.4-0.5,0.1-1.2,0.1-1.7
	c-0.1-1-0.3-2-0.6-2.9c-0.2-0.9-0.4-1.8-0.6-2.6c-0.3-1-0.5-2-0.5-3c0-0.2,0.4-0.2,0.4,0c0.3,1.3,0.5,2.6,0.9,3.8s0.5,2.3,0.8,3.4
	c0.2,0.7,0.3,1.3,0.4,2C146.6,154.2,146.6,154.7,146.4,155z"/>
<path class="st6" d="M108.5,160.2c0.6,1.6,1.9,2.8,3.6,3.2s3.5,0.1,4.9-0.9c0.5-0.3,0.8-0.7,1.1-1.1c0.4-0.8,0.5-1.7,0.3-2.5
	c-0.2-0.9-0.6-1.8-1.1-2.6l0,0c-0.6-0.8-1.4-1.4-2.3-1.7c-1-0.3-2-0.4-3-0.2c-0.9,0.2-1.7,0.6-2.4,1.3l0,0
	C108.4,156.8,108,158.6,108.5,160.2z"/>
<g>
	<path class="st4" d="M246.8,326c2.1,0.4,3.9,0.4,5.2,0.4c0.5,0,1.5,0,2.8-0.1c0.5,0,2.3-0.2,4.4-0.7c3.3-0.7,6.1-2,7.8-2.8
		c0.4,1.1,0.8,2.2,1.2,3.3c0.4,1.2,0.9,2.4,1.3,3.6c-6.1,1.3-12.2,2.5-18.3,3.8c-0.7-1.2-1.5-2.4-2.2-3.6
		C248.3,328.5,247.5,327.3,246.8,326z"/>
	<path class="st12" d="M251.3,333.4c0.5,0.7,0.9,1.5,1.4,2.2c0.5,0.8,0.9,1.5,1.4,2.3c3-0.4,5.9-0.9,8.9-1.3s5.9-0.9,8.9-1.3
		c-0.4-0.9-0.8-1.9-1.1-2.8c-0.4-1-0.7-1.9-1.1-2.9C263.5,330.9,257.4,332.1,251.3,333.4z"/>
	<path class="st4" d="M254.1,337.9c0.3,0.5,0.6,0.9,0.8,1.4c0.3,0.4,0.5,0.8,0.8,1.1c2.9,0,6,0,9.1,0c3.1-0.1,6-0.2,8.9-0.4
		c-0.3-0.8-0.6-1.6-0.9-2.4s-0.6-1.6-0.9-2.3C265.9,336.2,260,337.1,254.1,337.9z"/>
</g>
<g>
	<path class="st12" d="M292.8,352.8c0.3,1.7,0.9,3.3,1.4,4.9c0.6,1.9,1.2,3.8,1.8,5.7c0.5-1.6,0.9-3.2,1.3-4.6
		c1.7,1.2,3.4,2.5,5.2,3.9c-0.8-2.2-1.6-4.1-2.5-5.9c-0.8-1.6-1.5-3-2.4-4.4c0-0.1-0.1-0.1-0.1-0.2c-0.1-0.2-0.2-0.3-0.4-0.5
		c-0.5-0.7-1.1-1.4-1.7-2.1c-0.2-0.3-0.4-0.5-0.7-0.7l-2.7-0.2C292.4,350,292.6,351.4,292.8,352.8z"/>
	<path class="st13" d="M295.8,356.6l-0.1-0.4c-0.6-1.7-1.1-3.4-1.4-5c-0.1-0.6-0.2-1.1-0.3-1.7c0.1,0.1,0.2,0.2,0.3,0.3
		c0.5,0.6,1,1.2,1.4,1.8c0.1,0.2,0.2,0.3,0.4,0.5l0.1,0.2c0.9,1.4,1.7,2.9,2.6,4.7l-2.3-1.7l-0.5,1.6
		C295.8,356.8,295.8,356.7,295.8,356.6z"/>
</g>
<g>
	<path class="st14" d="M302.7,346.2c-0.2-0.3-0.4-0.6-0.6-0.8c-0.4-0.2-0.9-0.2-1.3,0s-0.8,0.5-1.2,0.8c0,0,0,0-0.1,0
		c-0.6,0.5-1.3,1-1.9,1.4c-0.4,0.3-0.7,0.5-1.1,0.7c-0.6,0.3-1.3,0.6-1.9,0.7c-0.7,0.1-1.4,0.1-2.2,0l0,0v0.5
		c0.1,0.1,0.3,0.1,0.3,0.1c0.5,0.2,0.9,0.3,1.4,0.4c0.3,0.1,0.7,0.1,1,0.1c0.7,0.1,1.3,0,2,0c1.1-0.1,2.2-0.4,3.3-0.7
		c0.2-0.1,0.5-0.1,0.7-0.2c0.1,0,0.3-0.1,0.4-0.2c0.6-0.2,1.1-0.5,1.4-1C303.1,347.5,303,346.8,302.7,346.2z"/>
	<path class="st15" d="M302.9,348c-0.2,0.5-0.8,0.8-1.4,1c-0.1,0.1-0.3,0.1-0.4,0.2c0-0.2-0.1-0.4-0.3-0.6c-0.4-0.3-0.8-0.1-1.3-0.1
		c-0.4,0-0.8,0.1-1.2,0.1c-0.3,0-0.7,0.1-1,0c-0.1,0-0.3-0.1-0.4-0.2c0,0-0.3-0.3-0.2-0.3c-0.1,0-0.1,0-0.2,0l0,0
		c0.4-0.2,0.8-0.5,1.1-0.7c0.7-0.5,1.3-0.9,1.9-1.4c0,0,0,0,0.1,0c0.4-0.3,0.7-0.6,1.2-0.8c0.4-0.2,1-0.2,1.3,0s0.5,0.4,0.6,0.8
		C303,346.8,303.1,347.5,302.9,348z"/>
	<path class="st16" d="M302.8,346.1c-0.4-1.6-1.2-3.1-2.2-4.5c-0.1-0.1-0.2-0.2-0.3-0.3c-0.4-0.3-1.4-0.1-1.8,0.1
		c-0.6,0.2-1.2,0.5-1.7,0.9c-0.9,0.8-1.6,1.5-2.3,2.5c-0.6,0.9-1.1,1.6-1.9,2.6l-0.3,1.9c1.9,0.5,4,0.5,5.8-0.3
		c1.2-0.6,2.4-1.4,3.8-1.4c0.6,0,1,0.2,1,0.2S303.2,347.6,302.8,346.1z"/>
	<path class="st14" d="M297,346.6c0-0.2-0.2-0.4-0.4-0.4c-0.1,0-0.3,0-0.4,0c-0.3,0.1-0.5,0.2-0.7,0.3c-0.6,0.4-1.2,0.9-1.8,1.4
		c-0.4,0.3-0.9,0.5-1.4,0.6v0.5c0.8,0,1.6-0.2,2.4-0.4c0.8-0.2,1.8-0.6,2.1-1.4C297,347,297.1,346.8,297,346.6z"/>
	<path class="st17" d="M302.4,346c0-0.3-0.2-0.6-0.2-0.8c-0.2-0.5-0.4-1-0.7-1.5c-0.2-0.4-0.4-0.7-0.7-1.1c-0.2-0.3-0.4-0.7-0.8-0.8
		c-0.3-0.1-0.6,0-0.8,0.1c-0.3,0.2-0.2,0.5-0.1,0.7c0.2,0.3,0.4,0.6,0.6,0.9c0.3,0.6,0.5,1.3,0.8,2c0.2,0.6,0.7,1.2,1.3,1.2
		c0.2,0,0.3,0,0.4-0.2C302.4,346.5,302.4,346.3,302.4,346z"/>
</g>
<g class="st18">
	<path class="st19" d="M191.8,89.7c0.1,2.2,0.2,9.7-4.1,12c-1.2,0.6-2,0.5-9.1-0.2c-8.7-0.9-9.8-0.8-11.6-2c-2.7-1.9-4-4.6-4.8-6.3
		c-1-2.3-2.5-5.4-1.6-8.5c1.7-5.5,10.4-7.5,16.2-7.3c2,0.2,8.2,0.5,12.1,5.4C190.4,84.9,191.4,87.3,191.8,89.7z"/>
	<path class="st20" d="M192.6,94.7c-0.6,1.6-1.5,3-2.6,4.3c-0.9,1-2,1.9-3.3,2.6c-0.4,0.2-0.8,0.4-1.2,0.6c-0.1,0.1-0.2,0.1-0.3,0.2
		c-0.1,0-0.2,0.1-0.2,0.1c-0.2,0.1-0.3,0.2-0.4,0.2c-0.1,0-0.2,0.1-0.2,0.1s0,0-0.1,0l0,0c-0.1,0-0.2,0.1-0.3,0.1c0,0,0,0-0.1,0
		s-0.2,0.1-0.3,0.1l0,0c-0.1,0-0.2,0.1-0.2,0.1c-0.2,0.1-0.3,0.1-0.4,0.2c-0.1,0-0.2,0.1-0.2,0.1c-0.4,0.1-0.8,0.2-1.2,0.3
		c-0.2,0-0.2,0.1-0.4,0.1c-0.1,0-0.1,0-0.2,0.1c-0.2,0.1-0.4,0.1-0.6,0.2h-0.1c-0.2,0.1-0.5,0.1-0.7,0.2c-0.5,0.1-1,0.2-1.6,0.2
		c-0.1,0-0.2,0-0.2,0c-0.1,0-0.1,0-0.2,0c-0.2,0-0.3,0-0.5,0.1c-0.1,0-0.2,0-0.2,0c-0.1,0-0.2,0-0.2,0c-0.1,0-0.2,0-0.3,0
		s-0.2,0-0.2,0c-0.1,0-0.2,0-0.2,0c-0.1,0-0.1,0-0.2,0s-0.2,0-0.3,0s-0.1,0-0.2,0c-0.1,0-0.2,0-0.3,0c-1.2,0-2.3-0.1-3.5-0.3
		c-0.2,0-0.2-0.1-0.4-0.1c-0.1,0-0.2,0-0.2-0.1l0,0c-0.1,0-0.2-0.1-0.3-0.1s-0.2,0-0.2-0.1c-0.1,0-0.1,0-0.2,0s-0.2,0-0.2-0.1
		c-0.4-0.1-0.8-0.2-1.2-0.4c-0.1,0-0.1-0.1-0.2-0.1s-0.1-0.1-0.2-0.1s-0.2-0.1-0.2-0.1l0,0c-0.1,0-0.2-0.1-0.2-0.1
		c-0.1-0.1-0.2-0.1-0.3-0.2c-0.1,0-0.2-0.1-0.2-0.1c-0.1-0.1-0.2-0.1-0.3-0.2s-0.2-0.1-0.2-0.2c-0.4-0.2-0.7-0.4-1-0.6
		c-0.1,0-0.1-0.1-0.2-0.1c0,0-0.1,0-0.1-0.1c-0.1,0-0.1-0.1-0.2-0.1c-0.1-0.1-0.1-0.1-0.2-0.2l0,0c-0.1-0.1-0.2-0.2-0.3-0.2l0,0
		c-0.1-0.1-0.2-0.2-0.2-0.2c-0.1,0-0.1-0.1-0.2-0.1l-0.1-0.1c-0.1-0.1-0.1-0.1-0.2-0.2c-0.1-0.1-0.2-0.2-0.2-0.2
		c-0.1-0.1-0.2-0.2-0.2-0.2c-0.1-0.1-0.2-0.2-0.2-0.2s0,0-0.1-0.1s-0.2-0.2-0.2-0.2c-0.1-0.1-0.1-0.1-0.2-0.2S163,99.1,163,99
		c-0.1-0.1-0.2-0.2-0.2-0.2l0,0c-0.1-0.1-0.1-0.2-0.2-0.2c0,0,0-0.1-0.1-0.1c-0.1-0.1-0.1-0.2-0.2-0.2c-0.2-0.2-0.2-0.4-0.4-0.5
		c-0.1-0.1-0.1-0.2-0.2-0.2c-0.1-0.1-0.1-0.2-0.2-0.2c0-0.1-0.1-0.1-0.1-0.2c-0.2-0.2-0.2-0.5-0.4-0.7c0-0.1-0.1-0.2-0.1-0.2
		c-0.1-0.1-0.1-0.2-0.2-0.3c0-0.1-0.1-0.2-0.1-0.2c-0.1-0.1-0.1-0.2-0.2-0.3c0-0.1,0-0.1-0.1-0.2c0-0.1-0.1-0.2-0.1-0.3
		c0-0.1,0-0.1-0.1-0.2c0-0.1-0.1-0.2-0.1-0.2v-0.1c0-0.1-0.1-0.2-0.1-0.2c-0.1-0.2-0.1-0.4-0.2-0.5c0-0.1-0.1-0.2-0.1-0.2
		c0-0.1,0-0.2-0.1-0.2c0-0.1,0-0.2-0.1-0.2c0-0.2-0.1-0.3-0.1-0.5c0-0.1,0-0.2,0-0.2v-0.2c0-0.2,0-0.3-0.1-0.5c0-0.1,0-0.2,0-0.2
		v-0.2c0-0.2,0-0.3,0-0.5c0-0.1,0-0.1,0-0.2s0-0.2,0-0.2c0-0.1,0-0.2,0-0.3s0-0.2,0-0.3c0-0.4,0-0.8,0.1-1.1
		c0.2-2.3,0.8-4.5,1.7-6.6c0.3-0.7,0.7-1.4,1.2-2.1c0.9-1.5,2-2.8,3.4-3.9c1-0.9,2.1-1.6,3.3-2.2c1.9-0.9,4-1.3,6.2-1.2
		c1.8,0,3.6,0.4,5.3,0.9c1.8,0.5,3.4,1.4,5,2.4c0.1,0.1,0.2,0.2,0.3,0.2c0.9,0.6,1.7,1.2,2.4,2c1.7,1.6,3.1,3.5,3.9,5.9
		c0.3,0.9,0.5,1.7,0.6,2.6C193.9,89.5,193.6,92.2,192.6,94.7z"/>
	<path class="st21" d="M180.1,86.7c-0.1-0.1-0.1-0.2-0.2-0.3c-0.7-1.1-2-1.7-3.3-1.6c-2.5,0.2-4.3,2.9-3.5,5.3
		c0.4,1.1,1.2,2,2.3,2.3c1,0.3,2.1,0.1,3-0.4c0.8-0.4,1.4-1,1.7-1.8C180.7,89,180.7,87.7,180.1,86.7z"/>
	<path class="st21" d="M192.6,94.7c-0.6,1.6-1.5,3-2.6,4.3c-0.9,1-2,1.9-3.3,2.6c-0.4,0.2-0.8,0.4-1.2,0.6c-0.1,0.1-0.2,0.1-0.3,0.2
		c-0.1,0-0.2,0.1-0.2,0.1c-0.2,0.1-0.3,0.2-0.4,0.2c-0.1,0-0.2,0.1-0.2,0.1s0,0-0.1,0l0,0c-0.1,0-0.2,0.1-0.3,0.1c0,0,0,0-0.1,0
		s-0.2,0.1-0.3,0.1l0,0c-0.1,0-0.2,0.1-0.2,0.1c-0.2,0.1-0.3,0.1-0.4,0.2c-0.1,0-0.2,0.1-0.2,0.1c-0.4,0.1-0.8,0.2-1.2,0.3
		c-0.2,0-0.2,0.1-0.4,0.1c-0.1,0-0.1,0-0.2,0.1c-0.2,0.1-0.4,0.1-0.6,0.2h-0.1c-0.2,0.1-0.5,0.1-0.7,0.2c-0.5,0.1-1,0.2-1.6,0.2
		c-0.1,0-0.2,0-0.2,0c-0.1,0-0.1,0-0.2,0c-0.2,0-0.3,0-0.5,0.1c-0.1,0-0.2,0-0.2,0c-0.1,0-0.2,0-0.2,0c-0.1,0-0.2,0-0.3,0
		s-0.2,0-0.2,0c-0.1,0-0.2,0-0.2,0c-0.1,0-0.1,0-0.2,0s-0.2,0-0.3,0s-0.1,0-0.2,0c-0.1,0-0.2,0-0.3,0c-1.2,0-2.3-0.1-3.5-0.3
		c-0.2,0-0.2-0.1-0.4-0.1c-0.1,0-0.2,0-0.2-0.1l0,0c-0.1,0-0.2-0.1-0.3-0.1s-0.2,0-0.2-0.1c-0.1,0-0.1,0-0.2,0s-0.2,0-0.2-0.1
		c-0.4-0.1-0.8-0.2-1.2-0.4c-0.1,0-0.1-0.1-0.2-0.1s-0.1-0.1-0.2-0.1s-0.2-0.1-0.2-0.1l0,0c-0.1,0-0.2-0.1-0.2-0.1
		c-0.1-0.1-0.2-0.1-0.3-0.2c-0.1,0-0.2-0.1-0.2-0.1c-0.1-0.1-0.2-0.1-0.3-0.2s-0.2-0.1-0.2-0.2c-0.4-0.2-0.7-0.4-1-0.6
		c-0.1,0-0.1-0.1-0.2-0.1c0,0-0.1,0-0.1-0.1c-0.1,0-0.1-0.1-0.2-0.1c-0.1-0.1-0.1-0.1-0.2-0.2l0,0c-0.1-0.1-0.2-0.2-0.3-0.2l0,0
		c-0.1-0.1-0.2-0.2-0.2-0.2c-0.1,0-0.1-0.1-0.2-0.1l-0.1-0.1c-0.1-0.1-0.1-0.1-0.2-0.2c-0.1-0.1-0.2-0.2-0.2-0.2
		c-0.1-0.1-0.2-0.2-0.2-0.2c-0.1-0.1-0.2-0.2-0.2-0.2s0,0-0.1-0.1s-0.2-0.2-0.2-0.2c-0.1-0.1-0.1-0.1-0.2-0.2S163,99.1,163,99
		c-0.1-0.1-0.2-0.2-0.2-0.2l0,0c-0.1-0.1-0.1-0.2-0.2-0.2c0,0,0-0.1-0.1-0.1c-0.1-0.1-0.1-0.2-0.2-0.2c-0.2-0.2-0.2-0.4-0.4-0.5
		c-0.1-0.1-0.1-0.2-0.2-0.2c-0.1-0.1-0.1-0.2-0.2-0.2c0-0.1-0.1-0.1-0.1-0.2c-0.2-0.2-0.2-0.5-0.4-0.7c0-0.1-0.1-0.2-0.1-0.2
		c-0.1-0.1-0.1-0.2-0.2-0.3c0-0.1-0.1-0.2-0.1-0.2c-0.1-0.1-0.1-0.2-0.2-0.3c0-0.1,0-0.1-0.1-0.2c0-0.1-0.1-0.2-0.1-0.3
		c0-0.1,0-0.1-0.1-0.2c0-0.1-0.1-0.2-0.1-0.2v-0.1c0-0.1-0.1-0.2-0.1-0.2c-0.1-0.2-0.1-0.4-0.2-0.5c0-0.1-0.1-0.2-0.1-0.2
		c0-0.1,0-0.2-0.1-0.2c0-0.1,0-0.2-0.1-0.2c0-0.2-0.1-0.3-0.1-0.5c0-0.1,0-0.2,0-0.2v-0.2c0-0.2,0-0.3-0.1-0.5c0-0.1,0-0.2,0-0.2
		v-0.2c0-0.2,0-0.3,0-0.5c0-0.1,0-0.1,0-0.2s0-0.2,0-0.2c0-0.1,0-0.2,0-0.3s0-0.2,0-0.3c0-0.4,0-0.8,0.1-1.1
		c0.2-2.3,0.8-4.5,1.7-6.6c0.3-0.7,0.7-1.4,1.2-2.1c-0.2,0.9-0.4,1.9-0.5,2.7c0,0.1,0,0.2,0,0.2c-0.2,3.9,1.2,7.9,3.8,10.8l0.1,0.1
		c0.9,0.9,1.9,1.8,3,2.4c0.6,0.4,1.3,0.7,2,0.9c2.3,0.9,4.8,1.2,7.3,1c0.1,0,0.2,0,0.2,0c1.4-0.1,2.9-0.3,4.3-0.7
		c0.5-0.2,0.9-0.3,1.4-0.5c1.8-0.8,3.4-2,4.5-3.6c0.3-0.5,0.5-1,0.8-1.5c0.5-1.5,0.8-3.1,0.8-4.8c0-0.4,0-0.9,0-1.2
		c-0.1-2.7-0.5-5.3-1.6-7.8c1.7,1.6,3.1,3.5,3.9,5.9c0.3,0.9,0.5,1.7,0.6,2.6C193.9,89.5,193.6,92.2,192.6,94.7z"/>
	<path class="st22" d="M186.8,101.6c-0.4,0.2-0.8,0.4-1.2,0.6c-0.1,0.1-0.2,0.1-0.3,0.2c-0.1,0-0.2,0.1-0.2,0.1
		c-0.2,0.1-0.3,0.2-0.4,0.2c-0.1,0-0.2,0.1-0.2,0.1s0,0-0.1,0l0,0c-0.1,0-0.2,0.1-0.3,0.1c0,0,0,0-0.1,0s-0.2,0.1-0.3,0.1l0,0
		c-0.1,0-0.2,0.1-0.2,0.1c-0.2,0.1-0.3,0.1-0.4,0.2c-0.1,0-0.2,0.1-0.2,0.1c-0.4,0.1-0.8,0.2-1.2,0.3c-0.2,0-0.2,0.1-0.4,0.1
		c-0.1,0-0.1,0-0.2,0.1c-0.2,0.1-0.4,0.1-0.6,0.2h-0.1c-0.2,0.1-0.5,0.1-0.7,0.2c-0.5,0.1-1,0.2-1.6,0.2c-0.1,0-0.2,0-0.2,0
		c-0.1,0-0.1,0-0.2,0c-0.2,0-0.3,0-0.5,0.1c-0.1,0-0.2,0-0.2,0c-0.1,0-0.2,0-0.2,0c-0.1,0-0.2,0-0.3,0s-0.2,0-0.2,0
		c-0.1,0-0.2,0-0.2,0c-0.1,0-0.1,0-0.2,0s-0.2,0-0.3,0s-0.1,0-0.2,0c-0.1,0-0.2,0-0.3,0c-1.2,0-2.3-0.1-3.5-0.3
		c-0.2,0-0.2-0.1-0.4-0.1c-0.1,0-0.2,0-0.2-0.1l0,0c-0.1,0-0.2-0.1-0.3-0.1s-0.2,0-0.2-0.1c-0.1,0-0.1,0-0.2,0s-0.2,0-0.2-0.1
		c-0.4-0.1-0.8-0.2-1.2-0.4c-0.1,0-0.1-0.1-0.2-0.1s-0.1-0.1-0.2-0.1s-0.2-0.1-0.2-0.1l0,0c-0.1,0-0.2-0.1-0.2-0.1
		c-0.1-0.1-0.2-0.1-0.3-0.2c-0.1,0-0.2-0.1-0.2-0.1c-0.1-0.1-0.2-0.1-0.3-0.2s-0.2-0.1-0.2-0.2c-0.4-0.2-0.7-0.4-1-0.6
		c-0.1,0-0.1-0.1-0.2-0.1c0,0-0.1,0-0.1-0.1c-0.1,0-0.1-0.1-0.2-0.1c-0.1-0.1-0.1-0.1-0.2-0.2l0,0c-0.1-0.1-0.2-0.2-0.3-0.2l0,0
		c-0.1-0.1-0.2-0.2-0.2-0.2c-0.1,0-0.1-0.1-0.2-0.1l-0.1-0.1c-0.1-0.1-0.1-0.1-0.2-0.2c-0.1-0.1-0.2-0.2-0.2-0.2
		c-0.1-0.1-0.2-0.2-0.2-0.2c-0.1-0.1-0.2-0.2-0.2-0.2s0,0-0.1-0.1s-0.2-0.2-0.2-0.2c-0.1-0.1-0.1-0.1-0.2-0.2s-0.2-0.2-0.2-0.3
		c-0.1-0.1-0.2-0.2-0.2-0.2l0,0c-0.1-0.1-0.1-0.2-0.2-0.2c0,0,0-0.1-0.1-0.1c-0.1-0.1-0.1-0.2-0.2-0.2c-0.2-0.2-0.2-0.4-0.4-0.5
		c-0.1-0.1-0.1-0.2-0.2-0.2c-0.1-0.1-0.1-0.2-0.2-0.2c0-0.1-0.1-0.1-0.1-0.2c-0.2-0.2-0.2-0.5-0.4-0.7c0-0.1-0.1-0.2-0.1-0.2
		c-0.1-0.1-0.1-0.2-0.2-0.3c0-0.1-0.1-0.2-0.1-0.2c-0.1-0.1-0.1-0.2-0.2-0.3c0-0.1,0-0.1-0.1-0.2c0-0.1-0.1-0.2-0.1-0.3
		c0-0.1,0-0.1-0.1-0.2c0-0.1-0.1-0.2-0.1-0.2v-0.1c0-0.1-0.1-0.2-0.1-0.2c-0.1-0.2-0.1-0.4-0.2-0.5c0-0.1-0.1-0.2-0.1-0.2
		c0-0.1,0-0.2-0.1-0.2c0-0.1,0-0.2-0.1-0.2c0-0.2-0.1-0.3-0.1-0.5c0-0.1,0-0.2,0-0.2v-0.2c0-0.2,0-0.3-0.1-0.5c0-0.1,0-0.2,0-0.2
		v-0.2c0-0.2,0-0.3,0-0.5c0-0.1,0-0.1,0-0.2s0-0.2,0-0.2c0-0.1,0-0.2,0-0.3s0-0.2,0-0.3c0-0.4,0-0.8,0.1-1.1c0.1,1.6,0.4,3.1,1,4.6
		c0.1,0.2,0.2,0.4,0.2,0.5c1.2,2.7,3.2,5,5.6,6.6c0.7,0.5,1.4,0.8,2.1,1.1c2.2,0.9,4.5,1.3,7,1.5c0.5,0,1.2,0.1,1.7,0.1
		c2.2,0,4.5-0.3,6.6-0.9C185.2,102.2,186,102,186.8,101.6z"/>
	<path class="st23" d="M192.6,94.7c-0.6,1.6-1.5,3-2.6,4.3c-0.9,1-2,1.9-3.3,2.6c-0.4,0.2-0.8,0.4-1.2,0.6c-0.1,0.1-0.2,0.1-0.3,0.2
		c-0.1,0-0.2,0.1-0.2,0.1c-0.2,0.1-0.3,0.2-0.4,0.2c-0.1,0-0.2,0.1-0.2,0.1s0,0-0.1,0c0-0.1,0-0.2-0.1-0.2c-0.2-1.6-0.6-3.1-1.1-4.6
		c-0.9-2.5-2-4.8-3.7-6.8c-0.2-0.2-0.2-0.3-0.4-0.5c-0.7-0.8-1.5-1.5-2.5-1.6h-0.1l0,0l0,0c0,0,0,0-0.1,0c0,0,0.1,0,0.1-0.1
		c1-0.5,2.2-0.5,3.4-0.4c0.2,0,0.4,0.1,0.6,0.1c3.4,0.4,6.6,1.7,9.2,3.7c0.2,0.1,0.2,0.2,0.4,0.3C191.1,93.2,191.8,93.9,192.6,94.7z
		"/>
	<path class="st23" d="M178.8,98.5c-0.1,1.5-0.4,3-0.9,4.5c0,0.1-0.1,0.2-0.1,0.3c-0.2,0.4-0.2,0.7-0.4,1c-0.1,0-0.2,0-0.2,0
		c-0.1,0-0.2,0-0.2,0s-0.2,0-0.3,0s-0.2,0-0.2,0c-0.1,0-0.2,0-0.2,0s-0.1,0-0.2,0c-0.1,0-0.2,0-0.3,0s-0.1,0-0.2,0s-0.2,0-0.3,0
		c-1.2,0-2.3-0.1-3.5-0.3c-0.2,0-0.2-0.1-0.4-0.1c-0.1,0-0.2,0-0.2-0.1l0,0c-0.1,0-0.2-0.1-0.3-0.1s-0.2,0-0.2-0.1
		c-0.1,0-0.1,0-0.2,0s-0.2,0-0.2-0.1c-0.4-0.1-0.8-0.2-1.2-0.4c-0.1,0-0.1-0.1-0.2-0.1s-0.1-0.1-0.2-0.1s-0.2-0.1-0.2-0.1l0,0
		c-0.1,0-0.2-0.1-0.2-0.1c-0.1-0.1-0.2-0.1-0.3-0.2c-0.1,0-0.2-0.1-0.2-0.1c-0.1-0.1-0.2-0.1-0.3-0.2s-0.2-0.1-0.2-0.2
		c-0.4-0.2-0.7-0.4-1-0.6c-0.1,0-0.1-0.1-0.2-0.1c0,0-0.1,0-0.1-0.1c-0.1,0-0.1-0.1-0.2-0.1c-0.1-0.1-0.1-0.1-0.2-0.2
		c0.5-0.2,1-0.5,1.6-0.9c1.6-0.9,3.1-2,4.5-3.2c1.6-1.5,3.1-3.2,4.2-5.2c0.1-0.2,0.2-0.2,0.2-0.4c0.5-0.9,0.9-1.8,0.7-2.8
		c0-0.1,0-0.1,0-0.2c0,0,0,0,0-0.1l0,0c0,0,0,0,0-0.1l0,0l0,0l0,0c0,0,0.1,0,0.1,0.1l0,0l0,0l0,0c0.9,0.8,1.2,1.9,1.5,3l0,0
		C178.7,94.2,178.9,96.4,178.8,98.5z"/>
	<path class="st23" d="M193.5,86.9c-0.9-0.2-1.9-0.5-2.9-0.6c-3.5-0.6-7.1-0.5-10.5,0.5c-0.4,0.1-0.7,0.2-1.1,0.4
		c-0.9,0.4-2,0.9-2.5,1.7c0,0,0,0.1-0.1,0.1c0-0.1,0-0.2,0-0.2c-0.1-1.1,0.3-2.1,0.9-3.1c0.1-0.2,0.2-0.5,0.3-0.6
		c1-1.8,2.3-3.4,3.7-4.8c1-0.9,2.1-1.8,3.4-2.5l0,0c0.5-0.3,1.2-0.6,1.7-0.9c0.9,0.6,1.7,1.2,2.4,2c1.7,1.6,3.1,3.5,3.9,5.9
		C193.2,85.2,193.3,86,193.5,86.9z"/>
	<path class="st23" d="M181.2,73.8c-0.4,0.5-0.8,1-1.1,1.5c-0.8,1.2-1.5,2.3-2,3.6c-0.9,1.9-1.6,3.8-1.8,5.9
		c-0.1,0.4-0.1,0.8-0.2,1.2c-0.1,0.9-0.1,1.9,0.4,2.7c0,0.1,0.1,0.1,0.1,0.2l0.1,0.1c0,0,0,0.1,0.1,0.1l0,0l0,0l0,0l0,0l0,0l0,0l0,0
		h-0.1l0,0c-1.1-0.3-1.9-1.2-2.6-2.1c-0.1-0.2-0.2-0.2-0.3-0.4c-1.3-1.7-2.3-3.7-3-5.8c-0.4-1.3-0.7-2.7-0.9-4v-0.1
		c-0.1-0.8-0.1-1.6-0.1-2.4c1.9-0.9,4-1.3,6.2-1.2C177.7,72.9,179.5,73.2,181.2,73.8z"/>
	<path class="st23" d="M176.7,88.9C176.7,89,176.7,89,176.7,88.9C176.7,89,176.7,89,176.7,88.9C176.7,89,176.7,89,176.7,88.9
		c-0.1,0.1-0.1,0.2-0.1,0.2c-0.5,1-1.4,1.6-2.4,2.2c-0.1,0-0.1,0.1-0.2,0.1c-2.3,1.4-4.9,2.3-7.5,2.6c-1,0.2-2,0.2-3,0.2
		c-0.7,0-1.4-0.1-2.2-0.2c-0.3,0-0.5-0.1-0.9-0.2c0-0.1-0.1-0.2-0.1-0.2s0-0.2-0.1-0.2c0-0.1,0-0.2-0.1-0.2c0-0.2-0.1-0.3-0.1-0.5
		c0-0.1,0-0.2,0-0.2c0-0.1,0-0.2,0-0.2c0-0.2,0-0.3-0.1-0.5c0-0.1,0-0.2,0-0.2c0-0.1,0-0.2,0-0.2c0-0.2,0-0.3,0-0.5
		c0-0.1,0-0.1,0-0.2s0-0.2,0-0.2c0-0.1,0-0.2,0-0.3s0-0.2,0-0.3c0-0.4,0-0.8,0.1-1.1c0.2-2.3,0.8-4.5,1.7-6.6
		c0.2,0.2,0.5,0.5,0.7,0.7c3,2.8,6.4,5.1,10.4,6c0.2,0.1,0.4,0.1,0.6,0.2C174.7,89.3,175.7,89.4,176.7,88.9
		C176.6,89,176.6,89,176.7,88.9C176.6,89,176.6,89,176.7,88.9C176.6,89,176.7,89,176.7,88.9C176.7,89,176.7,89,176.7,88.9z"/>
	<path class="st24" d="M166.5,94.1c-1,0.2-2,0.2-3,0.2c-0.7,0-1.4-0.1-2.2-0.2c-0.3,0-0.5-0.1-0.9-0.2c0-0.1-0.1-0.2-0.1-0.2
		c0-0.1,0-0.2-0.1-0.2c0-0.1,0-0.2-0.1-0.2c0-0.2-0.1-0.3-0.1-0.5c0-0.1,0-0.2,0-0.2c0-0.1,0-0.2,0-0.2c0-0.2,0-0.3-0.1-0.5
		c0-0.1,0-0.2,0-0.2c0-0.1,0-0.2,0-0.2c0-0.2,0-0.3,0-0.5c0-0.1,0-0.1,0-0.2s0-0.2,0-0.2c0-0.1,0-0.2,0-0.3s0-0.2,0-0.3
		c0-0.4,0-0.8,0.1-1.1c0.2-2.3,0.8-4.5,1.7-6.6c0.2,0.2,0.5,0.5,0.7,0.7c0,0.1,0,0.2,0,0.2c-0.2,3.9,1.2,7.9,3.8,10.8
		C166.5,94,166.5,94.1,166.5,94.1z"/>
	<path class="st24" d="M178.8,98.5c-0.1,1.5-0.4,3-0.9,4.5c0,0.1-0.1,0.2-0.1,0.3c-0.2,0.4-0.2,0.7-0.4,1c-0.1,0-0.2,0-0.2,0
		c-0.1,0-0.2,0-0.2,0s-0.2,0-0.3,0s-0.2,0-0.2,0c-0.1,0-0.2,0-0.2,0s-0.1,0-0.2,0c-0.1,0-0.2,0-0.3,0s-0.1,0-0.2,0s-0.2,0-0.3,0
		c-1.2,0-2.3-0.1-3.5-0.3c-0.2,0-0.2-0.1-0.4-0.1c-0.1,0-0.2,0-0.2-0.1l0,0c-0.1,0-0.2-0.1-0.3-0.1s-0.2,0-0.2-0.1
		c-0.1,0-0.1,0-0.2,0s-0.2,0-0.2-0.1c-0.4-0.1-0.8-0.2-1.2-0.4c-0.1,0-0.1-0.1-0.2-0.1s-0.1-0.1-0.2-0.1s-0.2-0.1-0.2-0.1l0,0
		c-0.1,0-0.2-0.1-0.2-0.1c-0.1-0.1-0.2-0.1-0.3-0.2c-0.1,0-0.2-0.1-0.2-0.1c-0.1-0.1-0.2-0.1-0.3-0.2s-0.2-0.1-0.2-0.2
		c-0.4-0.2-0.7-0.4-1-0.6c-0.1,0-0.1-0.1-0.2-0.1c0,0-0.1,0-0.1-0.1c-0.1,0-0.1-0.1-0.2-0.1c-0.1-0.1-0.1-0.1-0.2-0.2
		c0.5-0.2,1-0.5,1.6-0.9c1.6-0.9,3.1-2,4.5-3.2C173.7,98.4,176.3,98.6,178.8,98.5z"/>
	<path class="st24" d="M192.6,94.7c-0.6,1.6-1.5,3-2.6,4.3c-0.9,1-2,1.9-3.3,2.6c-0.4,0.2-0.8,0.4-1.2,0.6c-0.1,0.1-0.2,0.1-0.3,0.2
		c-0.1,0-0.2,0.1-0.2,0.1c-0.2,0.1-0.3,0.2-0.4,0.2c-0.1,0-0.2,0.1-0.2,0.1s0,0-0.1,0c0-0.1,0-0.2-0.1-0.2c-0.2-1.6-0.6-3.1-1.1-4.6
		c0.5-0.2,0.9-0.3,1.4-0.5c1.8-0.8,3.4-2,4.5-3.6c0.3-0.5,0.5-1,0.8-1.5c0.2,0.1,0.2,0.2,0.4,0.3C191.1,93.2,191.8,93.9,192.6,94.7z
		"/>
	<path class="st24" d="M190.6,86.2c-0.1-2.7-0.5-5.3-1.6-7.8c1.7,1.6,3.1,3.5,3.9,5.9c0.3,0.9,0.5,1.7,0.6,2.6
		C192.5,86.6,191.5,86.4,190.6,86.2z"/>
	<path class="st25" d="M161.1,93.5c0.1,0.2,0.2,0.4,0.2,0.5c-0.3,0-0.5-0.1-0.9-0.2c0-0.1-0.1-0.2-0.1-0.2c0-0.1,0-0.2-0.1-0.2
		c0-0.1,0-0.2-0.1-0.2c0-0.2-0.1-0.3-0.1-0.5c0-0.1,0-0.2,0-0.2c0-0.1,0-0.2,0-0.2c0-0.2,0-0.3-0.1-0.5c0-0.1,0-0.2,0-0.2
		c0-0.1,0-0.2,0-0.2c0-0.2,0-0.3,0-0.5c0-0.1,0-0.1,0-0.2s0-0.2,0-0.2s0-0.2,0-0.3s0-0.2,0-0.3c0-0.4,0-0.8,0.1-1.1
		C160.3,90.5,160.6,92.1,161.1,93.5z"/>
	<path class="st25" d="M176.1,103.3c0.5,0,1.2,0.1,1.7,0.1c-0.2,0.4-0.2,0.7-0.4,1c-0.1,0-0.2,0-0.2,0c-0.1,0-0.2,0-0.2,0
		c-0.1,0-0.2,0-0.3,0s-0.2,0-0.2,0c-0.1,0-0.2,0-0.2,0c-0.1,0-0.1,0-0.2,0s-0.2,0-0.3,0s-0.1,0-0.2,0c-0.1,0-0.2,0-0.3,0
		c-1.2,0-2.3-0.1-3.5-0.3c-0.2,0-0.2-0.1-0.4-0.1c-0.1,0-0.2,0-0.2-0.1l0,0c-0.1,0-0.2-0.1-0.3-0.1s-0.2,0-0.2-0.1
		c-0.1,0-0.1,0-0.2,0c-0.1,0-0.2,0-0.2-0.1c-0.4-0.1-0.8-0.2-1.2-0.4c-0.1,0-0.1-0.1-0.2-0.1c-0.1,0-0.1-0.1-0.2-0.1
		s-0.2-0.1-0.2-0.1l0,0c-0.1,0-0.2-0.1-0.2-0.1c-0.1-0.1-0.2-0.1-0.3-0.2c-0.1,0-0.2-0.1-0.2-0.1c-0.1-0.1-0.2-0.1-0.3-0.2
		s-0.2-0.1-0.2-0.2c-0.4-0.2-0.7-0.4-1-0.6c-0.1,0-0.1-0.1-0.2-0.1c0,0-0.1,0-0.1-0.1c-0.1,0-0.1-0.1-0.2-0.1
		c-0.1-0.1-0.1-0.1-0.2-0.2c0.5-0.2,1-0.5,1.6-0.9c0.7,0.5,1.4,0.8,2.1,1.1C171.3,102.8,173.6,103.2,176.1,103.3z"/>
	<path class="st25" d="M186.8,101.6c-0.4,0.2-0.8,0.4-1.2,0.6c-0.1,0.1-0.2,0.1-0.3,0.2c-0.1,0-0.2,0.1-0.2,0.1
		c-0.2,0.1-0.3,0.2-0.4,0.2c-0.1,0-0.2,0.1-0.2,0.1s0,0-0.1,0c0-0.1,0-0.2-0.1-0.2C185.2,102.2,186,102,186.8,101.6z"/>
	<path class="st24" d="M180.5,88.5c0,0.5-0.2,1-0.4,1.6c-0.2,0.4-0.4,0.7-0.7,1c-0.2-0.2-0.2-0.3-0.4-0.5c-0.7-0.8-1.5-1.5-2.5-1.6
		l0,0l0,0l0,0l0,0l0,0l0,0c0.9,0.8,1.2,1.9,1.5,3l0,0c-0.8,0.4-1.6,0.5-2.5,0.3c0.1-0.2,0.2-0.2,0.2-0.4c0.5-0.9,0.9-1.8,0.7-2.8
		c-0.5,1-1.4,1.6-2.4,2.2c-0.1,0-0.1,0.1-0.2,0.1c-0.4-0.4-0.8-0.9-0.9-1.5c-0.1-0.3-0.2-0.6-0.2-0.9c0.2,0.1,0.4,0.1,0.6,0.2
		c1,0.2,2.1,0.3,3-0.2c0,0,0,0,0-0.1l0,0c-1.1-0.3-1.9-1.2-2.6-2.1c-0.1-0.2-0.2-0.2-0.3-0.4c0.6-0.9,1.5-1.5,2.5-1.7
		c-0.1,0.4-0.1,0.8-0.2,1.2c-0.1,0.9-0.1,1.9,0.4,2.7c-0.1-1.1,0.3-2.1,0.9-3.1c0.1-0.2,0.2-0.5,0.3-0.6c0.9,0.2,1.8,0.8,2.3,1.6
		c0.1,0.1,0.1,0.2,0.2,0.3c-0.4,0.1-0.7,0.2-1.1,0.4c-0.9,0.4-2,0.9-2.5,1.7l0.1,0.1c1-0.5,2.2-0.5,3.4-0.4
		C180.1,88.5,180.4,88.5,180.5,88.5z"/>
</g>
<g class="st18">
	<path class="st19" d="M264.5,37.4c-2.1,2.2-9.4,9.8-15.9,7.9c-0.2-0.1-0.5-0.2-0.8-0.3c-4.1-1.7-6.2-4.4-8.4-7
		c-5.9-6.6-9.6-8.1-9.2-10.5c0.3-1.6,0.4-3.4,0.1-5v-0.1c-0.7-3.6,4.1-8.9,4.1-8.9c4.3-4.8,6.5-7.3,9.7-8c6.5-1.5,12.3,3.8,15.9,7.1
		s8.9,8,8.7,15.2C268.3,31.4,266.8,34.8,264.5,37.4z"/>
	<path class="st20" d="M267.7,36.4c-0.8,2.3-2,4.3-3.4,6.1c-1.2,1.5-2.7,2.7-4.4,3.7c-0.5,0.3-1,0.6-1.6,0.9
		c-0.2,0.1-0.2,0.2-0.4,0.2c-0.1,0.1-0.2,0.1-0.2,0.2c-0.2,0.1-0.4,0.2-0.5,0.2c-0.1,0.1-0.2,0.1-0.3,0.2h-0.1l0,0
		c-0.2,0.1-0.2,0.1-0.4,0.2h-0.1c-0.2,0.1-0.2,0.1-0.4,0.2l0,0c-0.1,0-0.2,0.1-0.3,0.2c-0.2,0.1-0.4,0.2-0.5,0.2s-0.2,0.1-0.3,0.1
		c-0.5,0.2-1,0.3-1.5,0.5c-0.2,0.1-0.3,0.1-0.5,0.2c-0.1,0-0.2,0-0.2,0.1c-0.3,0.1-0.5,0.2-0.9,0.2h-0.1c-0.3,0.1-0.6,0.2-0.9,0.2
		c-0.7,0.2-1.4,0.2-2,0.3c-0.1,0-0.2,0-0.3,0.1c-0.1,0-0.2,0-0.2,0c-0.2,0-0.4,0.1-0.6,0.1c-0.1,0-0.2,0-0.3,0c-0.2,0-0.2,0-0.4,0
		s-0.2,0-0.4,0c-0.1,0-0.2,0-0.2,0c-0.1,0-0.2,0-0.3,0s-0.2,0-0.2,0c-0.2,0-0.2,0-0.4,0c-0.1,0-0.2,0-0.2,0c-0.2,0-0.3,0-0.5,0
		c-1.6,0-3.1-0.2-4.7-0.5c-0.2,0-0.3-0.1-0.5-0.1c-0.1,0-0.2-0.1-0.3-0.1l0,0c-0.2,0-0.2-0.1-0.4-0.1c-0.1,0-0.2-0.1-0.3-0.1
		s-0.2,0-0.2-0.1c-0.1,0-0.2-0.1-0.3-0.1c-0.5-0.2-1.1-0.3-1.6-0.5c-0.1,0-0.2-0.1-0.2-0.1c-0.1,0-0.2-0.1-0.2-0.1
		c-0.2-0.1-0.2-0.1-0.3-0.2c0,0,0,0-0.1,0c-0.1-0.1-0.2-0.1-0.3-0.2c-0.2-0.1-0.3-0.2-0.4-0.2c-0.1-0.1-0.2-0.1-0.3-0.2
		c-0.2-0.1-0.3-0.2-0.5-0.2c-0.1-0.1-0.2-0.2-0.3-0.2c-0.5-0.3-0.9-0.5-1.4-0.9c-0.1-0.1-0.2-0.1-0.2-0.2l-0.1-0.1
		c-0.1-0.1-0.2-0.1-0.2-0.2c-0.1-0.1-0.2-0.1-0.2-0.2l0,0c-0.2-0.1-0.2-0.2-0.4-0.3c0,0,0,0-0.1,0c-0.1-0.1-0.2-0.2-0.3-0.2
		c-0.1-0.1-0.2-0.1-0.2-0.2c-0.1-0.1-0.1-0.1-0.2-0.2c-0.1-0.1-0.2-0.2-0.2-0.2c-0.1-0.1-0.2-0.2-0.3-0.3s-0.2-0.2-0.3-0.3
		s-0.2-0.2-0.2-0.2l-0.1-0.1c-0.1-0.1-0.2-0.2-0.2-0.3c-0.1-0.1-0.2-0.2-0.2-0.2c-0.1-0.2-0.2-0.3-0.3-0.4c-0.1-0.1-0.2-0.2-0.2-0.3
		l0,0c-0.1-0.1-0.2-0.2-0.2-0.3l-0.1-0.1c-0.1-0.1-0.2-0.2-0.2-0.3c-0.2-0.2-0.3-0.5-0.5-0.8c-0.1-0.1-0.1-0.2-0.2-0.2
		c-0.1-0.1-0.2-0.2-0.2-0.3c-0.1-0.1-0.1-0.2-0.2-0.2c-0.2-0.3-0.3-0.7-0.5-1c-0.1-0.1-0.1-0.2-0.2-0.3c-0.1-0.2-0.2-0.3-0.2-0.5
		c-0.1-0.2-0.1-0.2-0.2-0.4c-0.1-0.2-0.1-0.3-0.2-0.5c0-0.1-0.1-0.2-0.1-0.2c-0.1-0.2-0.1-0.2-0.2-0.4c0-0.1,0-0.1-0.1-0.2
		c0-0.1-0.1-0.2-0.1-0.3s0-0.1,0-0.2c0-0.2-0.1-0.2-0.1-0.4c-0.1-0.2-0.2-0.5-0.2-0.8c0-0.2-0.1-0.2-0.1-0.4c0-0.1,0-0.2-0.1-0.2
		c0-0.1-0.1-0.2-0.1-0.3c-0.1-0.2-0.1-0.5-0.1-0.6s0-0.2-0.1-0.3c0-0.1,0-0.2-0.1-0.3c0-0.2-0.1-0.5-0.1-0.6s0-0.2,0-0.3
		s0-0.2,0-0.3c0-0.2,0-0.5,0-0.7c0-0.1,0-0.2,0-0.2c0-0.1,0-0.2,0-0.3c0-0.2,0-0.3,0-0.5s0-0.3,0-0.5c0-0.5,0-1.1,0.1-1.6
		c0.2-3.2,1-6.4,2.3-9.3c0.5-1,0.9-2,1.5-3c1.2-2.1,2.7-4,4.5-5.6c1.4-1.2,2.8-2.3,4.4-3c2.5-1.2,5.3-1.9,8.2-1.8
		c2.4,0.1,4.8,0.5,7.1,1.3c2.3,0.9,4.6,2,6.7,3.4c0.2,0.1,0.3,0.2,0.5,0.3c1.2,0.9,2.3,1.8,3.3,2.7c2.3,2.3,4.1,5,5.2,8.4
		c0.4,1.2,0.6,2.4,0.8,3.6C269.4,29,269,32.9,267.7,36.4z"/>
	<path class="st21" d="M251,25c-0.1-0.2-0.2-0.3-0.2-0.4c-0.9-1.5-2.7-2.4-4.5-2.3c-3.4,0.2-5.7,4.1-4.7,7.5
		c0.5,1.5,1.7,2.8,3.1,3.2c1.3,0.4,2.8,0.2,4-0.6c1-0.6,1.8-1.5,2.3-2.6C251.8,28.3,251.7,26.5,251,25z"/>
	<path class="st21" d="M267.7,36.4c-0.8,2.3-2,4.3-3.4,6.1c-1.2,1.5-2.7,2.7-4.4,3.7c-0.5,0.3-1,0.6-1.6,0.9
		c-0.2,0.1-0.2,0.2-0.4,0.2c-0.1,0.1-0.2,0.1-0.2,0.2c-0.2,0.1-0.4,0.2-0.5,0.2c-0.1,0.1-0.2,0.1-0.3,0.2h-0.1l0,0
		c-0.2,0.1-0.2,0.1-0.4,0.2h-0.1c-0.2,0.1-0.2,0.1-0.4,0.2l0,0c-0.1,0-0.2,0.1-0.3,0.2c-0.2,0.1-0.4,0.2-0.5,0.2s-0.2,0.1-0.3,0.1
		c-0.5,0.2-1,0.3-1.5,0.5c-0.2,0.1-0.3,0.1-0.5,0.2c-0.1,0-0.2,0-0.2,0.1c-0.3,0.1-0.5,0.2-0.9,0.2h-0.1c-0.3,0.1-0.6,0.2-0.9,0.2
		c-0.7,0.2-1.4,0.2-2,0.3c-0.1,0-0.2,0-0.3,0.1c-0.1,0-0.2,0-0.2,0c-0.2,0-0.4,0.1-0.6,0.1c-0.1,0-0.2,0-0.3,0c-0.2,0-0.2,0-0.4,0
		s-0.2,0-0.4,0c-0.1,0-0.2,0-0.2,0c-0.1,0-0.2,0-0.3,0s-0.2,0-0.2,0c-0.2,0-0.2,0-0.4,0c-0.1,0-0.2,0-0.2,0c-0.2,0-0.3,0-0.5,0
		c-1.6,0-3.1-0.2-4.7-0.5c-0.2,0-0.3-0.1-0.5-0.1c-0.1,0-0.2-0.1-0.3-0.1l0,0c-0.2,0-0.2-0.1-0.4-0.1c-0.1,0-0.2-0.1-0.3-0.1
		s-0.2,0-0.2-0.1c-0.1,0-0.2-0.1-0.3-0.1c-0.5-0.2-1.1-0.3-1.6-0.5c-0.1,0-0.2-0.1-0.2-0.1c-0.1,0-0.2-0.1-0.2-0.1
		c-0.2-0.1-0.2-0.1-0.3-0.2c0,0,0,0-0.1,0c-0.1-0.1-0.2-0.1-0.3-0.2c-0.2-0.1-0.3-0.2-0.4-0.2c-0.1-0.1-0.2-0.1-0.3-0.2
		c-0.2-0.1-0.3-0.2-0.5-0.2c-0.1-0.1-0.2-0.2-0.3-0.2c-0.5-0.3-0.9-0.5-1.4-0.9c-0.1-0.1-0.2-0.1-0.2-0.2l-0.1-0.1
		c-0.1-0.1-0.2-0.1-0.2-0.2c-0.1-0.1-0.2-0.1-0.2-0.2l0,0c-0.2-0.1-0.2-0.2-0.4-0.3c0,0,0,0-0.1,0c-0.1-0.1-0.2-0.2-0.3-0.2
		c-0.1-0.1-0.2-0.1-0.2-0.2c-0.1-0.1-0.1-0.1-0.2-0.2c-0.1-0.1-0.2-0.2-0.2-0.2c-0.1-0.1-0.2-0.2-0.3-0.3s-0.2-0.2-0.3-0.3
		s-0.2-0.2-0.2-0.2l-0.1-0.1c-0.1-0.1-0.2-0.2-0.2-0.3c-0.1-0.1-0.2-0.2-0.2-0.2c-0.1-0.2-0.2-0.3-0.3-0.4c-0.1-0.1-0.2-0.2-0.2-0.3
		l0,0c-0.1-0.1-0.2-0.2-0.2-0.3l-0.1-0.1c-0.1-0.1-0.2-0.2-0.2-0.3c-0.2-0.2-0.3-0.5-0.5-0.8c-0.1-0.1-0.1-0.2-0.2-0.2
		c-0.1-0.1-0.2-0.2-0.2-0.3c-0.1-0.1-0.1-0.2-0.2-0.2c-0.2-0.3-0.3-0.7-0.5-1c-0.1-0.1-0.1-0.2-0.2-0.3c-0.1-0.2-0.2-0.3-0.2-0.5
		c-0.1-0.2-0.1-0.2-0.2-0.4c-0.1-0.2-0.1-0.3-0.2-0.5c0-0.1-0.1-0.2-0.1-0.2c-0.1-0.2-0.1-0.2-0.2-0.4c0-0.1,0-0.1-0.1-0.2
		c0-0.1-0.1-0.2-0.1-0.3s0-0.1,0-0.2c0-0.2-0.1-0.2-0.1-0.4c-0.1-0.2-0.2-0.5-0.2-0.8c0-0.2-0.1-0.2-0.1-0.4c0-0.1,0-0.2-0.1-0.2
		c0-0.1-0.1-0.2-0.1-0.3c-0.1-0.2-0.1-0.5-0.1-0.6s0-0.2-0.1-0.3c0-0.1,0-0.2-0.1-0.3c0-0.2-0.1-0.5-0.1-0.6s0-0.2,0-0.3
		s0-0.2,0-0.3c0-0.2,0-0.5,0-0.7c0-0.1,0-0.2,0-0.2c0-0.1,0-0.2,0-0.3c0-0.2,0-0.3,0-0.5s0-0.3,0-0.5c0-0.5,0-1.1,0.1-1.6
		c0.2-3.2,1-6.4,2.3-9.3c0.5-1,0.9-2,1.5-3c-0.3,1.2-0.5,2.6-0.6,3.9c0,0.1,0,0.2,0,0.2c-0.2,5.5,1.6,11.2,5.2,15.3
		c0.1,0.1,0.1,0.1,0.2,0.2c1.2,1.3,2.5,2.5,4,3.4c0.9,0.5,1.7,1,2.7,1.3c3,1.2,6.4,1.6,9.8,1.5c0.1,0,0.2,0,0.3,0
		c2-0.1,3.8-0.4,5.7-0.9c0.6-0.2,1.2-0.5,1.9-0.7c2.3-1.1,4.5-2.8,5.9-5.2c0.4-0.7,0.7-1.4,1-2.2c0.8-2.1,1-4.5,1.1-6.7
		c0-0.6,0-1.2,0-1.8c-0.1-3.8-0.8-7.6-2.1-11.1c2.3,2.3,4.1,5,5.2,8.4c0.4,1.2,0.6,2.4,0.8,3.6C269.4,29,269,32.9,267.7,36.4z"/>
	<path class="st22" d="M259.9,46.2c-0.5,0.3-1,0.6-1.6,0.9c-0.2,0.1-0.2,0.2-0.4,0.2c-0.1,0.1-0.2,0.1-0.2,0.2
		c-0.2,0.1-0.4,0.2-0.5,0.2c-0.1,0.1-0.2,0.1-0.3,0.2h-0.1l0,0c-0.2,0.1-0.2,0.1-0.4,0.2h-0.1c-0.2,0.1-0.2,0.1-0.4,0.2l0,0
		c-0.1,0-0.2,0.1-0.3,0.2c-0.2,0.1-0.4,0.2-0.5,0.2s-0.2,0.1-0.3,0.1c-0.5,0.2-1,0.3-1.5,0.5c-0.2,0.1-0.3,0.1-0.5,0.2
		c-0.1,0-0.2,0-0.2,0.1c-0.3,0.1-0.5,0.2-0.9,0.2h-0.1c-0.3,0.1-0.6,0.2-0.9,0.2c-0.7,0.2-1.4,0.2-2,0.3c-0.1,0-0.2,0-0.3,0.1
		c-0.1,0-0.2,0-0.2,0c-0.2,0-0.4,0.1-0.6,0.1c-0.1,0-0.2,0-0.3,0c-0.2,0-0.2,0-0.4,0s-0.2,0-0.4,0c-0.1,0-0.2,0-0.2,0
		c-0.1,0-0.2,0-0.3,0s-0.2,0-0.2,0c-0.2,0-0.2,0-0.4,0c-0.1,0-0.2,0-0.2,0c-0.2,0-0.3,0-0.5,0c-1.6,0-3.1-0.2-4.7-0.5
		c-0.2,0-0.3-0.1-0.5-0.1c-0.1,0-0.2-0.1-0.3-0.1l0,0c-0.2,0-0.2-0.1-0.4-0.1c-0.1,0-0.2-0.1-0.3-0.1s-0.2,0-0.2-0.1
		c-0.1,0-0.2-0.1-0.3-0.1c-0.5-0.2-1.1-0.3-1.6-0.5c-0.1,0-0.2-0.1-0.2-0.1c-0.1,0-0.2-0.1-0.2-0.1c-0.2-0.1-0.2-0.1-0.3-0.2
		c0,0,0,0-0.1,0c-0.1-0.1-0.2-0.1-0.3-0.2c-0.2-0.1-0.3-0.2-0.4-0.2c-0.1-0.1-0.2-0.1-0.3-0.2c-0.2-0.1-0.3-0.2-0.5-0.2
		c-0.1-0.1-0.2-0.2-0.3-0.2c-0.5-0.3-0.9-0.5-1.4-0.9c-0.1-0.1-0.2-0.1-0.2-0.2l-0.1-0.1c-0.1-0.1-0.2-0.1-0.2-0.2
		c-0.1-0.1-0.2-0.1-0.2-0.2l0,0c-0.2-0.1-0.2-0.2-0.4-0.3c0,0,0,0-0.1,0c-0.1-0.1-0.2-0.2-0.3-0.2c-0.1-0.1-0.2-0.1-0.2-0.2
		c-0.1-0.1-0.1-0.1-0.2-0.2s-0.2-0.2-0.2-0.2c-0.1-0.1-0.2-0.2-0.3-0.3s-0.2-0.2-0.3-0.3s-0.2-0.2-0.2-0.2l-0.1-0.1
		c-0.1-0.1-0.2-0.2-0.2-0.3c-0.1-0.1-0.2-0.2-0.2-0.2c-0.1-0.2-0.2-0.3-0.3-0.4c-0.1-0.1-0.2-0.2-0.2-0.3l0,0
		c-0.1-0.1-0.2-0.2-0.2-0.3l-0.1-0.1c-0.1-0.1-0.2-0.2-0.2-0.3c-0.2-0.2-0.3-0.5-0.5-0.8c-0.1-0.1-0.1-0.2-0.2-0.2
		c-0.1-0.1-0.2-0.2-0.2-0.3c-0.1-0.1-0.1-0.2-0.2-0.2c-0.2-0.3-0.3-0.7-0.5-1c-0.1-0.1-0.1-0.2-0.2-0.3c-0.1-0.2-0.2-0.3-0.2-0.5
		c-0.1-0.2-0.1-0.2-0.2-0.4c-0.1-0.2-0.1-0.3-0.2-0.5c0-0.1-0.1-0.2-0.1-0.2c-0.1-0.2-0.1-0.2-0.2-0.4c0-0.1,0-0.1-0.1-0.2
		c0-0.1-0.1-0.2-0.1-0.3s0-0.1,0-0.2c0-0.2-0.1-0.2-0.1-0.4c-0.1-0.2-0.2-0.5-0.2-0.8c0-0.2-0.1-0.2-0.1-0.4c0-0.1,0-0.2-0.1-0.2
		c0-0.1-0.1-0.2-0.1-0.3c-0.1-0.2-0.1-0.5-0.1-0.6s0-0.2-0.1-0.3c0-0.1,0-0.2-0.1-0.3c0-0.2-0.1-0.5-0.1-0.6s0-0.2,0-0.3
		s0-0.2,0-0.3c0-0.2,0-0.5,0-0.7c0-0.1,0-0.2,0-0.2c0-0.1,0-0.2,0-0.3c0-0.2,0-0.3,0-0.5s0-0.3,0-0.5c0-0.5,0-1.1,0.1-1.6
		c0.1,2.3,0.5,4.5,1.3,6.6c0.1,0.2,0.2,0.5,0.3,0.8c1.6,3.8,4.2,7.1,7.5,9.4c0.9,0.6,1.8,1.2,2.8,1.6c2.9,1.3,6.1,2,9.2,2.1
		c0.8,0.1,1.6,0.1,2.3,0.1c3,0,5.9-0.4,8.7-1.2C257.7,47.1,258.8,46.7,259.9,46.2z"/>
	<path class="st23" d="M267.7,36.4c-0.8,2.3-2,4.3-3.4,6.1c-1.2,1.5-2.7,2.7-4.4,3.7c-0.5,0.3-1,0.6-1.6,0.9
		c-0.2,0.1-0.2,0.2-0.4,0.2c-0.1,0.1-0.2,0.1-0.2,0.2c-0.2,0.1-0.4,0.2-0.5,0.2c-0.1,0.1-0.2,0.1-0.3,0.2h-0.1c0-0.2,0-0.2-0.1-0.4
		c-0.3-2.3-0.8-4.5-1.5-6.6c-1.1-3.5-2.7-6.8-5-9.6c-0.2-0.2-0.3-0.4-0.5-0.6c-0.9-1.1-2-2.1-3.4-2.3h-0.1l0,0c0,0,0,0-0.1,0H246
		c0.1,0,0.1-0.1,0.2-0.1c1.3-0.8,2.9-0.8,4.5-0.6c0.2,0,0.5,0.1,0.8,0.1c4.5,0.6,8.7,2.4,12.3,5.2c0.2,0.2,0.4,0.3,0.5,0.4
		C265.6,34.2,266.7,35.3,267.7,36.4z"/>
	<path class="st23" d="M249.2,41.8c-0.2,2.2-0.5,4.3-1.2,6.3c-0.1,0.2-0.1,0.3-0.2,0.5c-0.2,0.5-0.3,1-0.5,1.5c-0.1,0-0.2,0-0.3,0
		c-0.2,0-0.2,0-0.4,0s-0.2,0-0.4,0c-0.1,0-0.2,0-0.2,0s-0.2,0-0.3,0s-0.2,0-0.2,0c-0.2,0-0.2,0-0.4,0c-0.1,0-0.2,0-0.2,0
		c-0.2,0-0.3,0-0.5,0c-1.6,0-3.1-0.2-4.7-0.5c-0.2,0-0.3-0.1-0.5-0.1c-0.1,0-0.2-0.1-0.3-0.1l0,0c-0.2,0-0.2-0.1-0.4-0.1
		c-0.1,0-0.2-0.1-0.3-0.1s-0.2,0-0.2-0.1c-0.1,0-0.2-0.1-0.3-0.1c-0.5-0.2-1.1-0.3-1.6-0.5c-0.1,0-0.2-0.1-0.2-0.1
		c-0.1,0-0.2-0.1-0.2-0.1c-0.2-0.1-0.2-0.1-0.3-0.2c0,0,0,0-0.1,0c-0.1-0.1-0.2-0.1-0.3-0.2c-0.2-0.1-0.3-0.2-0.4-0.2
		s-0.2-0.1-0.3-0.2c-0.2-0.1-0.3-0.2-0.5-0.2c-0.1-0.1-0.2-0.2-0.3-0.2c-0.5-0.3-0.9-0.5-1.4-0.9c-0.1-0.1-0.2-0.1-0.2-0.2l-0.1-0.1
		c-0.1-0.1-0.2-0.1-0.2-0.2c-0.1-0.1-0.2-0.1-0.2-0.2c0.7-0.4,1.4-0.8,2-1.2c2.1-1.3,4.1-2.8,5.9-4.5c2.2-2.1,4.1-4.5,5.6-7.3
		c0.1-0.2,0.2-0.4,0.2-0.5c0.6-1.2,1.2-2.6,0.9-3.9c0-0.1,0-0.2,0-0.2v-0.1l0,0V28l0,0c0,0,0,0,0.1,0.1l0,0l0.1,0.1l0,0l0,0l0,0
		c1.2,1.1,1.6,2.7,2,4.2l0,0C249.1,35.6,249.4,38.7,249.2,41.8z"/>
	<path class="st23" d="M268.8,25.3c-1.2-0.4-2.6-0.7-3.8-0.9c-4.7-0.9-9.5-0.9-14,0.6c-0.5,0.2-1,0.3-1.5,0.5
		c-1.3,0.5-2.7,1.2-3.3,2.5c0,0.1-0.1,0.1-0.1,0.2c0-0.1,0-0.2-0.1-0.3c-0.2-1.6,0.5-3,1.2-4.5c0.2-0.3,0.3-0.6,0.5-0.9
		c1.3-2.6,3-4.9,5.1-6.9c1.3-1.3,2.9-2.6,4.5-3.6l0,0c0.8-0.5,1.6-0.9,2.3-1.3c1.2,0.9,2.3,1.8,3.3,2.7c2.3,2.3,4.1,5,5.2,8.4
		C268.3,22.8,268.7,24.1,268.8,25.3z"/>
	<path class="st23" d="M252.4,6.7c-0.5,0.7-1,1.4-1.5,2.1c-1,1.6-2,3.3-2.7,5.1c-1.2,2.7-2,5.5-2.4,8.4c-0.1,0.5-0.2,1.1-0.2,1.6
		c-0.1,1.2-0.1,2.7,0.5,3.7c0,0.1,0.1,0.2,0.1,0.2c0,0.1,0.1,0.1,0.1,0.2l0.1,0.1c0,0,0,0,0,0.1l0,0l0,0l0,0l0,0l0,0l0,0h-0.1l0,0
		c-1.5-0.5-2.5-1.7-3.4-3c-0.2-0.2-0.2-0.4-0.4-0.5c-1.8-2.5-3.1-5.3-4-8.3c-0.5-1.9-0.9-3.7-1.2-5.7v-0.1c-0.1-1.2-0.2-2.3-0.2-3.4
		c2.5-1.2,5.3-1.9,8.2-1.8C247.7,5.5,250.2,6,252.4,6.7z"/>
	<path class="st23" d="M246.4,28.3L246.4,28.3L246.4,28.3L246.4,28.3c-0.1,0.2-0.1,0.2-0.2,0.3c-0.6,1.4-1.9,2.3-3.2,3.1
		c-0.1,0-0.1,0.1-0.2,0.1c-3,2-6.5,3.2-10.1,3.7c-1.3,0.2-2.7,0.2-4,0.2c-0.9,0-2-0.1-2.9-0.2c-0.4-0.1-0.8-0.1-1.1-0.2
		c0-0.2-0.1-0.2-0.1-0.4c0-0.1,0-0.2-0.1-0.2c0-0.1-0.1-0.2-0.1-0.3c-0.1-0.2-0.1-0.5-0.1-0.6s0-0.2-0.1-0.3c0-0.1,0-0.2-0.1-0.3
		c0-0.2-0.1-0.5-0.1-0.6s0-0.2,0-0.3s0-0.2,0-0.3c0-0.2,0-0.5,0-0.7c0-0.1,0-0.2,0-0.2c0-0.1,0-0.2,0-0.3c0-0.2,0-0.3,0-0.5
		s0-0.3,0-0.5c0-0.5,0-1.1,0.1-1.6c0.2-3.2,1-6.4,2.3-9.3c0.3,0.3,0.6,0.6,0.9,0.9c3.9,4.1,8.6,7.2,13.8,8.5
		c0.3,0.1,0.5,0.2,0.9,0.2c1.3,0.3,2.8,0.5,4-0.2C246.2,28.4,246.3,28.4,246.4,28.3C246.3,28.3,246.3,28.3,246.4,28.3L246.4,28.3
		L246.4,28.3z"/>
	<path class="st24" d="M232.9,35.6c-1.3,0.2-2.7,0.2-4,0.2c-0.9,0-2-0.1-2.9-0.2c-0.4-0.1-0.8-0.1-1.1-0.2c0-0.2-0.1-0.2-0.1-0.4
		c0-0.1,0-0.2-0.1-0.2c0-0.1-0.1-0.2-0.1-0.3c-0.1-0.2-0.1-0.5-0.1-0.6s0-0.2-0.1-0.3c0-0.1,0-0.2-0.1-0.3c0-0.2-0.1-0.5-0.1-0.6
		s0-0.2,0-0.3s0-0.2,0-0.3c0-0.2,0-0.5,0-0.7c0-0.1,0-0.2,0-0.2c0-0.1,0-0.2,0-0.3c0-0.2,0-0.3,0-0.5s0-0.3,0-0.5
		c0-0.5,0-1.1,0.1-1.6c0.2-3.2,1-6.4,2.3-9.3c0.3,0.3,0.6,0.6,0.9,0.9c0,0.1,0,0.2,0,0.2C227.4,25.7,229.3,31.3,232.9,35.6
		C232.8,35.4,232.8,35.5,232.9,35.6z"/>
	<path class="st24" d="M249.2,41.8c-0.2,2.2-0.5,4.3-1.2,6.3c-0.1,0.2-0.1,0.3-0.2,0.5c-0.2,0.5-0.3,1-0.5,1.5c-0.1,0-0.2,0-0.3,0
		c-0.2,0-0.2,0-0.4,0s-0.2,0-0.4,0c-0.1,0-0.2,0-0.2,0s-0.2,0-0.3,0s-0.2,0-0.2,0c-0.2,0-0.2,0-0.4,0c-0.1,0-0.2,0-0.2,0
		c-0.2,0-0.3,0-0.5,0c-1.6,0-3.1-0.2-4.7-0.5c-0.2,0-0.3-0.1-0.5-0.1c-0.1,0-0.2-0.1-0.3-0.1l0,0c-0.2,0-0.2-0.1-0.4-0.1
		c-0.1,0-0.2-0.1-0.3-0.1s-0.2,0-0.2-0.1c-0.1,0-0.2-0.1-0.3-0.1c-0.5-0.2-1.1-0.3-1.6-0.5c-0.1,0-0.2-0.1-0.2-0.1
		c-0.1,0-0.2-0.1-0.2-0.1c-0.2-0.1-0.2-0.1-0.3-0.2c0,0,0,0-0.1,0c-0.1-0.1-0.2-0.1-0.3-0.2c-0.2-0.1-0.3-0.2-0.4-0.2
		s-0.2-0.1-0.3-0.2c-0.2-0.1-0.3-0.2-0.5-0.2c-0.1-0.1-0.2-0.2-0.3-0.2c-0.5-0.3-0.9-0.5-1.4-0.9c-0.1-0.1-0.2-0.1-0.2-0.2l-0.1-0.1
		c-0.1-0.1-0.2-0.1-0.2-0.2c-0.1-0.1-0.2-0.1-0.2-0.2c0.7-0.4,1.4-0.8,2-1.2c2.1-1.3,4.1-2.8,5.9-4.5
		C242.5,41.6,245.9,42,249.2,41.8z"/>
	<path class="st24" d="M267.7,36.4c-0.8,2.3-2,4.3-3.4,6.1c-1.2,1.5-2.7,2.7-4.4,3.7c-0.5,0.3-1,0.6-1.6,0.9
		c-0.2,0.1-0.2,0.2-0.4,0.2c-0.1,0.1-0.2,0.1-0.2,0.2c-0.2,0.1-0.4,0.2-0.5,0.2c-0.1,0.1-0.2,0.1-0.3,0.2h-0.1c0-0.2,0-0.2-0.1-0.4
		c-0.3-2.3-0.8-4.5-1.5-6.6c0.6-0.2,1.2-0.5,1.9-0.7c2.3-1.1,4.5-2.8,5.9-5.2c0.4-0.7,0.7-1.4,1-2.2c0.2,0.2,0.4,0.3,0.5,0.4
		C265.6,34.2,266.7,35.3,267.7,36.4z"/>
	<path class="st24" d="M265,24.3c-0.1-3.8-0.8-7.6-2.1-11.1c2.3,2.3,4.1,5,5.2,8.4c0.4,1.2,0.6,2.4,0.8,3.6
		C267.6,24.9,266.2,24.6,265,24.3z"/>
	<path class="st25" d="M225.7,34.8c0.1,0.2,0.2,0.5,0.3,0.8c-0.4-0.1-0.8-0.1-1.1-0.2c0-0.2-0.1-0.2-0.1-0.4c0-0.1,0-0.2-0.1-0.2
		c0-0.1-0.1-0.2-0.1-0.3c-0.1-0.2-0.1-0.5-0.1-0.6s0-0.2-0.1-0.3c0-0.1,0-0.2-0.1-0.3c0-0.2-0.1-0.5-0.1-0.6s0-0.2,0-0.3
		s0-0.2,0-0.3c0-0.2,0-0.5,0-0.7c0-0.1,0-0.2,0-0.2c0-0.1,0-0.2,0-0.3c0-0.2,0-0.3,0-0.5s0-0.3,0-0.5c0-0.5,0-1.1,0.1-1.6
		C224.5,30.4,224.9,32.7,225.7,34.8z"/>
	<path class="st25" d="M245.5,48.6c0.8,0.1,1.6,0.1,2.3,0.1c-0.2,0.5-0.3,1-0.5,1.5c-0.1,0-0.2,0-0.3,0c-0.2,0-0.2,0-0.4,0
		s-0.2,0-0.4,0c-0.1,0-0.2,0-0.2,0s-0.2,0-0.3,0s-0.2,0-0.2,0c-0.2,0-0.2,0-0.4,0c-0.1,0-0.2,0-0.2,0c-0.2,0-0.3,0-0.5,0
		c-1.6,0-3.1-0.2-4.7-0.5c-0.2,0-0.3-0.1-0.5-0.1c-0.1,0-0.2-0.1-0.3-0.1l0,0c-0.2,0-0.2-0.1-0.4-0.1c-0.1,0-0.2-0.1-0.3-0.1
		s-0.2,0-0.2-0.1c-0.1,0-0.2-0.1-0.3-0.1c-0.5-0.2-1.1-0.3-1.6-0.5c-0.1,0-0.2-0.1-0.2-0.1c-0.1,0-0.2-0.1-0.2-0.1
		c-0.2-0.1-0.2-0.1-0.3-0.2c0,0,0,0-0.1,0c-0.1-0.1-0.2-0.1-0.3-0.2c-0.2-0.1-0.3-0.2-0.4-0.2s-0.2-0.1-0.3-0.2
		c-0.2-0.1-0.3-0.2-0.5-0.2c-0.1-0.1-0.2-0.2-0.3-0.2c-0.5-0.3-0.9-0.5-1.4-0.9c-0.1-0.1-0.2-0.1-0.2-0.2l-0.1-0.1
		c-0.1-0.1-0.2-0.1-0.2-0.2c-0.1-0.1-0.2-0.1-0.2-0.2c0.7-0.4,1.4-0.8,2-1.2c0.9,0.6,1.8,1.2,2.8,1.6
		C239.2,47.8,242.4,48.4,245.5,48.6z"/>
	<path class="st25" d="M259.9,46.2c-0.5,0.3-1,0.6-1.6,0.9c-0.2,0.1-0.2,0.2-0.4,0.2c-0.1,0.1-0.2,0.1-0.2,0.2
		c-0.2,0.1-0.4,0.2-0.5,0.2c-0.1,0.1-0.2,0.1-0.3,0.2h-0.1c0-0.2,0-0.2-0.1-0.4C257.7,47.1,258.8,46.7,259.9,46.2z"/>
	<path class="st24" d="M251.6,27.7c0,0.8-0.2,1.5-0.5,2.2c-0.2,0.5-0.5,1-0.9,1.4c-0.2-0.2-0.3-0.4-0.5-0.6c-0.9-1.1-2-2.1-3.4-2.3
		c0,0,0,0,0,0.1l0,0c0,0,0,0,0,0.1l0,0l0,0l0,0c1.2,1.1,1.6,2.7,2,4.2l0,0c-1,0.5-2.3,0.7-3.4,0.5c0.1-0.2,0.2-0.4,0.2-0.5
		c0.6-1.2,1.2-2.6,0.9-3.9c-0.6,1.4-1.9,2.3-3.2,3.1c-0.1,0-0.1,0.1-0.2,0.1c-0.5-0.5-1-1.3-1.2-2.1c-0.2-0.5-0.2-0.9-0.2-1.4
		c0.3,0.1,0.5,0.2,0.9,0.2c1.3,0.3,2.8,0.5,4-0.2v-0.1l0,0c-1.5-0.5-2.5-1.7-3.4-3c-0.2-0.2-0.2-0.4-0.4-0.5c0.8-1.2,2-2.1,3.4-2.4
		c-0.1,0.5-0.2,1.1-0.2,1.6c-0.1,1.2-0.1,2.7,0.5,3.7c-0.2-1.6,0.5-3,1.2-4.5c0.2-0.3,0.3-0.6,0.5-0.9c1.2,0.3,2.3,1.1,3,2.2
		c0.1,0.2,0.2,0.2,0.2,0.4c-0.5,0.2-1,0.3-1.5,0.5c-1.3,0.5-2.7,1.2-3.3,2.5c0,0.1,0.1,0.1,0.1,0.2c1.3-0.8,2.9-0.8,4.5-0.6
		C251,27.6,251.3,27.6,251.6,27.7z"/>
</g>
<path class="st26" d="M84,82.5c0-0.3-0.1-0.6-0.2-0.9s-0.2-0.6-0.3-0.8c-0.1-0.2-0.1-0.3-0.2-0.5c-0.3-0.5-0.6-0.9-1-1.2
	c1-2,1-4.4-0.7-6c-0.4-0.4-0.9-0.7-1.5-0.9C79.7,72.1,79.4,72,79,72c-0.5,0-1.1,0.1-1.6,0.3c-0.1-0.1-0.2-0.2-0.3-0.3
	c-0.4-0.3-0.8-0.7-1.1-0.8c-1.4-0.7-2.8-0.5-4,0.3c-0.4,0.3-0.8,0.6-1.1,0.9c-0.4,0.4-0.7,0.9-1,1.4c-0.4-0.1-0.8,0-1.2,0.1
	c-0.6,0.2-1.2,0.4-1.7,0.8c-0.3,0.2-0.6,0.5-0.8,0.8c-0.4,0.5-0.6,1-0.8,1.6c-0.4,1.5,0,2.8,0.9,3.9c-0.3,0.5-0.4,1.1-0.5,1.8
	c-0.2,1.6,0.7,3.2,2.1,4.1c0.2,0.1,0.4,0.3,0.6,0.4c0.5,0.3,1,0.3,1.5,0.3c0.8,1.1,1.8,2,3.2,2.3c2.1,0.5,3.9-0.4,5-1.9
	c1.7,0.6,3.6,0.4,4.8-0.9c0.6-0.7,1.1-1.7,1.1-2.7l0,0c0-0.3,0-0.6,0-0.9C84.1,83.1,84,82.8,84,82.5z"/>
<path class="st7" d="M140,114.4l1-1.7c0,0-27.8-27.9-39.9-32.1c-8.3-2.9-14.5-2.8-17.6-2.5c-0.6,0.1-1.2,0.4-1.5,0.8
	c-0.4,0.4-0.6,1-0.6,1.6l0,0c0,0.3,0,0.5,0.1,0.8c0.1,0.4,0.4,0.8,0.8,1.1l6.2,4.9l-0.8,1.9l0.9,0.8v46.3l2.1,1L140,114.4z"/>
<path class="st27" d="M82.2,82.3l6.2,4.9l-0.8,1.9l0.9,0.8v46.3l2.1,1l49.4-22.8l1-1.7c-34-3.9-49.7,20.4-49.7,20.4L90,89.8l5.2-3.5
	l-5.5,1.8l0.4-2l-8.7-5.7c0,0.3,0,0.5,0.1,0.8C81.6,81.7,81.9,82,82.2,82.3z"/>
<path class="st28" d="M151.4,121.8c-0.3-2.6-3-5.2-6.2-4.9c-0.1,0-0.1,0-0.2,0c0-0.1,0-0.2,0-0.3c-0.1-1.5-1.2-2.7-2.6-3.5
	c-1.6-0.9-3.5-1.3-5.3-0.4c-0.6-0.8-1.5-1.6-2.5-1.9c-1.4-0.4-2.8-0.1-3.9,0.6c-1-0.5-2.1-0.8-3.3-0.6c-1.1,0.1-2.1,0.6-2.9,1.2
	c-2-1.6-5.1-1.9-7.7-0.5c-1.2,0.6-2.1,1.6-2.7,2.6c-2.2-1-4.9-1-6.8,0.9c-0.4,0.4-0.6,0.8-0.9,1.2c-0.2,0.3-0.4,0.6-0.6,1
	c-0.2,0-0.5,0.1-0.7,0.2c-1.3,0.3-2.5,1-3.4,2c-0.3,0.3-0.5,0.6-0.7,1c-0.5,0.7-0.8,1.4-0.9,2.2c-0.3,0-0.6,0.1-0.9,0.2
	c-1.4,0.4-2.6,1.4-3.2,2.5c-0.4,0.6-0.7,1.4-0.7,2.1c0,0,0,0-0.1,0c-1.5,0.4-2.7,1.4-3.4,2.5c-0.7,0.9-1,2.1-0.7,3.2
	c0.1,0.4,0.2,0.7,0.4,1.1c-0.4,0.4-1.2,1.2-1.2,1.3v0.1c-0.1,0.1-0.2,0.2-0.2,0.2c-0.6,0.9-0.6,2-0.4,3c0.5,0.7,0.9,1.5,1.5,2.1
	c2.3,2.4,6.3,2.3,8.9,0c1.4-1.2,2.4-3.1,2.4-4.8V136c1-0.2,1.9-0.7,2.6-1.5c0.7-0.7,1.2-1.5,1.5-2.3c1.5,0.2,3.2,0,4.7-0.8
	c1.7-0.9,2.8-2.3,3.2-3.9c0.6-0.2,1.1-0.4,1.6-0.7c1,0.4,2.2,0.6,3.6,0.6c2.2,0,4.7-1,6.2-2.5c1.7,0.5,3.6,0.3,5.2-0.2
	c0.5-0.1,0.9-0.4,1.3-0.6c1.4,1.6,3.7,2.5,6.1,2.2c0.4-0.1,0.8-0.1,1.1-0.2c0,0,1.8,1.1,2,1.2c0.7,0.2,1.4,0.3,2.1,0.3
	c2.8,0.1,6-0.8,7.1-3.2c0.3-0.7,0.4-1.4,0.3-2.2c0-0.1,0-0.1,0-0.2C151.3,121.9,151.4,121.8,151.4,121.8z"/>
<g>
	<path class="st29" d="M138.8,269.8c2-0.9,5-2.3,8.2-4.6c6.4-4.6,10-9.9,14.6-17.5c8-13.4,13.5-24.6,22.6-41.3c2-3.6,2.3-4.2,2.8-5
		c5.7-8.9,11.1-15.5,14.5-19.5c0.5-0.6,0.9-2.7,0-3.5c-1-0.9-3.3,0.4-3.6,0.5c-1.8,2.2-3.5,4.4-5.3,6.6"/>
	<path class="st29" d="M197.9,178.8c2.3-2.5,2.4-5.3,1.4-6.2c-0.8-0.7-2.5-0.4-4.1,0.5c-1.5,1.9-2.9,3.8-4.4,5.7"/>
	<path class="st29" d="M195.3,172.6c0.4-0.5,2.4-2.6,2.3-5.9c0-0.4-0.2-4-3.1-6.2c-1.8-1.3-4.8-2.3-6.8-1.1
		c-0.3,0.2-0.9,0.6-1.2,1.4c-0.5,1.4,0.4,3.3,2.3,4.7"/>
</g>
<path class="st29" d="M135.2,269.5c0.4-4.8,1.6-8.3,2.8-8.3s2.6,3.1,3.3,7.5"/>
<path class="st0" d="M194.8,89.7c1,7.7-6.9,15.4-15.1,16.4c-9.8,1.2-20.4-7.2-19.7-15.5c0.5-6.5,7.7-11.3,13.9-12.4
	C182.5,76.6,193.7,81.3,194.8,89.7z"/>
<path class="st0" d="M268.8,28.6c4.2,9.9-4.3,23.8-15.2,27.3c-14.9,4.7-32.1-10.5-31.4-21c0.2-2.6,1.4-4.5,2.5-6.3
	C231.5,18.1,245.9,18,247,18C248.9,18,264.5,18.4,268.8,28.6z"/>
<path class="st30" d="M240.9,44.4"/>
<path class="st31" d="M48.1,421.3"/>
<path class="st32" d="M85.2,361.7c4.3,0.2,8.5-0.3,12.4-1.7l5.1-0.8c0,0-0.1-0.2-0.4-0.5C98.3,359.8,92.3,361,85.2,361.7z"/>
<linearGradient id="SVGID_1_" gradientUnits="userSpaceOnUse" x1="1039.4368" y1="347.8715" x2="905.6441" y2="483.202" gradientTransform="matrix(1 0 0 1 -876.9376 0)">
	<stop  offset="0" style="stop-color:#B1A806"/>
	<stop  offset="1" style="stop-color:#808301"/>
</linearGradient>
<path class="st33" d="M53.1,441c0.5,1.5,22.8,2.8,47.1,3.3c28,0.7,58.5,0.3,61.1-2c4.8-4.4,2.1-82-4.2-85.1c0,0-26.8-0.4-52.6-0.1
	c-22.7,0.3-44.7,1.2-46.9,3.4C52.9,365.3,52.1,437.9,53.1,441z"/>
<polygon class="st32" points="129.2,444.2 128,355.6 125.2,356.4 122.2,445.8 "/>
<polygon class="st32" points="76.6,356.5 70,444.4 67.6,444.4 74.2,356.5 "/>
<path class="st32" d="M164.7,399.5c0,0-40.1-4.7-74-4c-6.3,0.1-12.5,0.4-18.1,1c-8.2,0.8-14.6,1.5-19.4,2c0-0.4,0-0.7,0-1.1
	c8.5-2.5,22.4-3.7,37.6-4.1c33.8-0.9,73.7,2,73.7,2L164.7,399.5z"/>
<linearGradient id="SVGID_2_" gradientUnits="userSpaceOnUse" x1="1011.6335" y1="419.9173" x2="917.0206" y2="387.2369" gradientTransform="matrix(1 0 0 1 -876.9376 0)">
	<stop  offset="0" style="stop-color:#9F4057"/>
	<stop  offset="0.1901" style="stop-color:#A1445B"/>
	<stop  offset="0.3957" style="stop-color:#A85167"/>
	<stop  offset="0.6087" style="stop-color:#B3677B"/>
	<stop  offset="0.8252" style="stop-color:#C28596"/>
	<stop  offset="1" style="stop-color:#D1A3B2"/>
</linearGradient>
<path class="st34" d="M92.9,443.6c0.1,0.3,0.2,0.6,0.2,0.8c-20.6-0.6-39.6-2-40-3.4c-0.4-1.6-0.5-22.4,0.1-42.5c0-0.4,0-0.7,0-1.1
	c0.6-17.8,1.7-34.7,3.6-36.9c1.9-2.2,20.5-3.1,39.8-3.3c-3.1,3.5-5,19.1-5.8,36.2c0,0.7-0.1,1.4-0.1,2.1
	C89.9,416.4,90.7,438.7,92.9,443.6z"/>
<path class="st35" d="M125.6,355.2c0,0,14.4,3.4,19.8,1.5c5.4-2,8.6-11.1,8.6-11.1l-3.9-10.1c0,0-1.2,14.6-5.9,18.2
	c-4.7,3.6-18.8,0.3-18.8,0.3L125.6,355.2z"/>
<path class="st35" d="M123,353.9c0,0-8.8,2.9-16.9,0.5c-9.3-2.8-15.1-10.7-15.1-10.7l3.9-8.5c0,0,6.9,11.7,13.4,15.9
	C114.9,355.3,123,353.9,123,353.9z"/>
<path class="st36" d="M153.9,345.6c-1.1,0.2-2.6,0.6-4.2,1.1c-3.2,1-7.3,2.3-11.2,3.7c-7.4,2.6-14.2,5.2-14.2,5.2s2.7-6.9,7.9-12.6
	c0.5-0.6,1.1-1.1,1.8-1.7c2.6-2.3,6.1-4.3,9.2-5.9c0,0,0,0,0,0c3.7-1.9,6.7-3.1,6.7-3.1L153.9,345.6z"/>
<path class="st36" d="M124.1,355c-4.6-5.5-15-10.2-20.5-11.1c-1.5-0.3-3-0.4-4.3-0.5c-4.8-0.3-8.3,0.4-8.3,0.4l6.1-14.2
	c1.5,0.4,3,0.8,4.4,1.3c0.5,0.2,0.9,0.4,1.4,0.5C117.9,338,126.9,357.3,124.1,355z"/>
<polygon class="st37" points="122.4,356.1 123.5,350.7 126.7,350.1 128.2,356.3 "/>
<path class="st36" d="M125.7,357.2c0.1,0,0.2,0,0.3,0.1C125.9,357.3,125.8,357.3,125.7,357.2c-0.1,0-0.2,0-0.3,0
	c-0.3,0-0.5-0.1-0.8-0.1c-2-0.1-3.9,0.5-5.7,1.6c-0.5,0.3-1,0.6-1.4,1c-0.1,0.1-0.1,0.1-0.2,0.2c-0.7,0.6-1.5,1.3-2.2,2.1
	c-0.6,0.6-1.2,1.3-1.7,2.1c-0.4,0.5-0.8,1-1.1,1.6c-1.6,2.5-3.2,5.3-4.5,8.4c-0.2,0.5-0.5,1-0.7,1.6c-0.4,1-0.8,2-1.2,3.1
	c-5.8,15.2-8.6,32.8-8.6,32.8l-8.3-14.1c0,0,2.8-12.7,8.3-23.6c0.3-0.6,0.6-1.1,0.9-1.7c0.2-0.3,0.4-0.7,0.6-1
	c0.6-1,1.1-1.9,1.8-2.8c2.3-3.4,4.5-6,6.4-7.9c0.3-0.3,0.5-0.5,0.8-0.7c0.7-0.7,1.4-1.3,2.1-1.8c1.9-1.5,3.4-2.2,4.4-2.6
	c0.1,0,0.1,0,0.2-0.1c0.5-0.2,0.7-0.2,0.8-0.2c0.1,0,0.4,0.1,1,0.2c0.4,0.1,0.8,0.2,1.4,0.3c1,0.2,2.2,0.4,3.4,0.7
	c0.4,0.1,0.9,0.2,1.3,0.3c0,0,0,0,0.1,0c0.9,0.2,1.7,0.3,2.3,0.5c0.3,0.1,0.6,0.1,0.8,0.2C125.5,357.2,125.6,357.2,125.7,357.2z"/>
<linearGradient id="SVGID_3_" gradientUnits="userSpaceOnUse" x1="126.0005" y1="357.299" x2="126" y2="357.3009">
	<stop  offset="0" style="stop-color:#D4023E"/>
	<stop  offset="0.9944" style="stop-color:#FD432C"/>
</linearGradient>
<path class="st38" d="M126,357.3C126,357.3,126,357.3,126,357.3C126,357.3,126,357.3,126,357.3z"/>
<path class="st36" d="M146.9,396.2l-6.1,14c0,0-0.9-9.5-2.8-20.5c-0.2-1.1-0.4-2.3-0.6-3.5c-0.1-0.6-0.3-1.3-0.4-2
	c-1.2-5.8-2.7-11.6-4.5-16.5c-0.6-1.7-1.3-3.2-2-4.6c-0.2-0.3-0.3-0.6-0.5-0.9c-0.2-0.4-0.4-0.8-0.7-1.1c0,0-0.1-0.1-0.1-0.1
	c-0.3-0.5-0.6-0.9-0.9-1.3c-0.8-1.1-1.7-1.9-2.6-2.5c0,0,0,0,0,0c-0.1-0.1-0.2-0.1-0.3-0.2c-0.3-0.1-0.6-0.3-0.9-0.4
	c-0.7-0.2-1.5-0.3-2.3-0.2c-0.1,0-0.3,0.1-0.4,0.1c0,0,0.2,0,0.3-0.1c0.3-0.1,0.8-0.2,1.3-0.4c0.3-0.1,0.6-0.2,0.9-0.3
	c0.3-0.1,0.5-0.2,0.8-0.2c0.3-0.1,0.6-0.2,0.8-0.3c0,0,0.1,0,0.1,0c0,0,0,0,0,0c0.6-0.2,1.2-0.4,1.7-0.5c0.3-0.1,0.6-0.2,0.9-0.2
	c0.4-0.1,0.7-0.2,0.8-0.2c0.1,0,0.5,0.1,1,0.5c0.5,0.3,1.2,0.9,2.1,1.7c0.2,0.2,0.4,0.4,0.6,0.6c0.4,0.5,0.9,1.1,1.4,1.7
	c0.2,0.2,0.3,0.5,0.5,0.7c0,0,0.1,0.1,0.1,0.1c0.1,0.1,0.1,0.2,0.2,0.2c0.1,0.1,0.2,0.3,0.3,0.4c0.9,1.4,1.9,3,2.9,5.1
	c0.3,0.6,0.6,1.2,0.9,1.9c0,0.1,0.1,0.2,0.1,0.3c0.3,0.8,0.7,1.6,1,2.4c1.2,3,2.2,6.3,3,9.5c0.1,0.5,0.3,1,0.4,1.6
	c0.1,0.3,0.1,0.5,0.2,0.8c0.2,0.7,0.3,1.3,0.5,2c0.2,1,0.4,2,0.6,3C146.4,392.2,146.9,396.2,146.9,396.2z"/>
<path class="st37" d="M150.6,346.3c0,0-0.4,0.1-0.9,0.4c-3.2,1-7.3,2.3-11.2,3.7c1.1-0.8,2.3-1.6,2.3-1.9c0.1-0.6-0.8-8.6-2-9.1
	c-0.7-0.3-3.1,0.9-4.9,2c2.6-2.3,6.1-4.3,9.2-5.9c-0.7,0.7-1.8,1.9-1.8,2.4c-0.1,0.9,3.6,8.4,4.8,8.8
	C147.3,346.9,150.5,346.3,150.6,346.3z"/>
</svg>
