<?xml version="1.0" encoding="utf-8"?>
<!-- Generator: Adobe Illustrator 24.1.2, SVG Export Plug-In . SVG Version: 6.00 Build 0)  -->
<svg version="1.1" id="Слой_1" xmlns="http://www.w3.org/2000/svg" xmlns:xlink="http://www.w3.org/1999/xlink" x="0px" y="0px"
	 viewBox="0 0 725 605" style="enable-background:new 0 0 725 605;" xml:space="preserve">
<style type="text/css">
	.st0{fill:#FED482;fill-opacity:0.81;}
	.st1{fill:none;stroke:#000000;stroke-width:2;}
	.st2{opacity:0.5;fill:#FFFFFF;enable-background:new    ;}
	.st3{fill:#231F20;}
	.st4{fill:#E7B34D;}
	.st5{fill:#FFFFFF;stroke:#000000;stroke-width:2;}
	.st6{fill:#FFFFFF;}
	.st7{fill:#388B79;}
	.st8{fill:#37504A;stroke:#000000;stroke-width:2;}
	.st9{fill:#8B713E;}
	.st10{fill:#388B79;stroke:#000000;stroke-width:2;}
</style>
<path class="st0" d="M636.2,327.7c229.9,0-33.2,251.5-276.5,274.9C116.4,626.1-112.4,450,83.2,327.7C278.8,205.3,113-16,359.7,52.7
	C606.4,121.5,406.4,327.7,636.2,327.7z"/>
<path class="st1" d="M350.5,579.9C107.3,603.4-120.1,394.2,74.1,304.6C268.4,215,195,34.5,284.7,6.5s186.2,60.6,186.2,60.6"/>
<path d="M295.8,109.4l-11-5.1c0,0-34.7,0.5-49.5,31.4c-16.4,34.3-6.8,69.9-6.8,69.9c14.8-3.7,29.6-7.4,44.4-11.1
	c-6-5-9-10.1-10.6-14.1C254.3,160.2,267.7,131.6,295.8,109.4z"/>
<path d="M275.7,107.1c5.9,4.7,7,8,6.6,10.2c-0.6,3.5-4.8,4.4-4.6,7.5c0.1,2,2.4,3.7,6.8,7.2c3,2.3,3.4,2,5.9,3.9
	c1,0.8,1.6,1.4,2.7,1.5c0.8,0.1,1.6-0.2,2.3,0.3c0.4,0.3,0.5,0.7,0.5,0.8c0.5,1.5,5,8.6,13.8,22.8c1.3,2.1,3.3,5.2,5.9,9
	c0.4,0.9,0.9,1.3,1.2,1.5c0.2,0.1,0.6,0.3,1,0.8c0.1,0.1,0.1,0.2,0.2,0.2c0.2,0.4,1.6,2.6,5,7.5c20.2-6.9,40.4-13.7,60.7-20.6
	C383.8,159.9,317.5,85.4,275.7,107.1z"/>
<path d="M317.3,106.7c2.1-3,1.6-7.3-0.4-10.4s-5.2-5.2-8.4-7c-1.2-0.6-2.4-1.2-3.7-1.5c-1.7-0.3-3.4,0-5,0.4c-4,0.8-8.3,2-10.5,5.3
	c-2.6,3.9-1.1,9.6,2.6,12.4C298,110.7,311.7,114.6,317.3,106.7z"/>
<path class="st2" d="M411.7,109.5L229.6,279.1L506.1,423l-48.5-248.4"/>
<path class="st3" d="M502.1,410.3l55.2-159v-0.7l-33.6-116.2c-2.9-10.1-10.7-18.1-20.8-21.3c-10.1-3.2-21-1.2-29.3,5.4l1.4,1.8
	c7.7-6.1,17.8-8,27.1-5c9.3,3,16.5,10.4,19.3,19.8l33.5,115.8L500,409.5L502.1,410.3z"/>
<path class="st4" d="M556,263c-6.7-0.1-12-5.6-11.9-12.3s5.6-12,12.3-11.9s12,5.6,11.9,12.3C568.2,257.9,562.7,263.2,556,263z"/>
<path class="st3" d="M556.1,256.1c2.8,0,5.2-2.2,5.3-5.1c0-2.8-2.2-5.2-5.1-5.3c-2.8,0-5.2,2.2-5.3,5.1
	C551,253.7,553.3,256.1,556.1,256.1z M556.3,248.1c1.6,0,2.9,1.4,2.8,2.9c0,1.6-1.4,2.9-2.9,2.8c-1.6,0-2.9-1.4-2.8-2.9
	C553.4,249.3,554.7,248,556.3,248.1z"/>
<path d="M344.9,507.7l-2.5-35.7c-35-0.8-58.8,7-72.9,16.2l2.5,11.1l19.3,2.6c-23.5,25.2-30.2,63.7-21.8,71.4
	C283.2,556.8,314.7,508.6,344.9,507.7z"/>
<path class="st5" d="M255.4,230.1c-0.3,0.3-0.8,1.1-1.6,2.5c-0.7,1.3-1.7,3-2.7,5.1c-2.2,4.2-5,9.9-8.2,16.6
	c-6.4,13.4-14.5,30.7-22.5,48.2s-15.9,35.1-22,48.9c-3,6.9-5.6,12.9-7.6,17.5c-1.9,4.6-3.2,7.7-3.5,8.9l0,0
	c-1.7,5.6-3.4,11.3-2.6,17c0.7,5.7,4.4,11.2,9.8,12.4c4.3,0.9,8.8-1.1,12.8-3.5c22.7-13.8,35.9-38.8,47-63.2
	c3-6.6,6.4-13.3,9.7-19.9c0.5-1,1-2,1.5-3c3.9-7.6,7.7-15.3,10.9-23c6.5-15.4,10.8-31.2,8.9-47.7c-0.4-3.7-0.6-7.7-0.7-11.7
	c-0.1-1.8-0.1-3.7-0.2-5.4c-0.3-5.6-0.8-10.6-2.3-13.7c-0.7-1.5-1.7-2.5-2.9-2.9c-1.2-0.4-2.7-0.3-4.8,0.6
	C270.1,215.5,264.1,220.5,255.4,230.1z"/>
<path class="st5" d="M255.4,230.1L255.4,230.1c-0.3,0.3-0.8,1.1-1.5,2.3s-1.6,2.9-2.6,4.9c-2.1,4-4.7,9.4-7.8,15.7
	c-6,12.6-13.7,28.9-21.3,45.6c14.3,6.6,28.6,13.3,41.7,22.2v-0.1c12.1-23.9,24.3-47.9,21.4-73.8c-0.4-3.7-0.6-7.7-0.7-11.7
	c-0.1-1.8-0.1-3.7-0.2-5.4c-0.3-5.6-0.8-10.6-2.3-13.7c-0.7-1.5-1.7-2.5-2.9-2.9c-1.2-0.4-2.7-0.3-4.8,0.6
	C270.1,215.5,264.1,220.5,255.4,230.1z"/>
<path class="st6" d="M160.5,493.3c1.2-16-0.1-33-6.1-48c-2.6-6.3-6.2-12.5-11.5-16.8c-1.1-0.9-2.2-1.6-3.4-2.3
	c3.7-1.3,7.6-2.2,11.5-3c43.6-16.6,87.7-32.1,132.1-46.3c35.6-11.4,97.1-28.8,135.7-22.4c6.3,16.9,13.6,33.6,20.5,50.1
	c-0.1,0.4-0.2,0.7-0.3,1.1c-2,2.6-3.1,6.1-4.3,9.3c-7.2,19.6-23.7,35.6-43.6,42.1c-19.8,6.6-43.9,1.3-61.4-10.1
	c-1.1-0.7-66.1,32.3-80.6,36c-14.3,3.7-29,6.4-43.6,8.1c-12.7,1.4-25.8,0.4-38.6,0.6c-2.2,1.4-4.4,2.9-6.5,4.4
	C160.3,495.2,160.4,494.3,160.5,493.3z"/>
<path class="st6" d="M379.8,454.6c-6-2.9-10.3-9.1-11.8-15.4c-2-8.2-0.3-16.8,2.3-24.8c1.4-4.4,3.2-8.8,5.7-12.7
	c5.2-8.3,13.4-14.4,21.8-19.5c5.9-3.6,12-6.8,18.6-8.7c3.3-0.9,6.8-1.7,10.3-1.7c3,0,5.8,1.4,8.7,2.2c27.9,8.1,55.3,18.4,83,27.5
	c28,9.2,56,18.8,82.7,31.7c4.2,2,8.4,4.2,11.7,7.6c4.6,4.8,6.7,11.7,6.9,18.4c0.7,18.1-7.7,35.4-24.8,42.9
	c-10.1,4.4-20.9,4.6-31.8,4.2c-3-0.4-6-0.7-9-1.2c-40.3-7.3-77.4-17.1-108.6-27.7c-15.6-5.3-31.2-10.9-46.6-17
	c-3.3-1.3-6.6-2.8-10-4c-2.9-1-5.8-0.5-8.7-1.8C380,454.7,379.9,454.6,379.8,454.6z"/>
<path class="st7" d="M160.5,493.3c1.2-16-0.1-33-6.1-48c-2.6-6.3-6.2-12.5-11.5-16.8c-1.1-0.9-2.2-1.6-3.4-2.3
	c3.7-1.3,7.6-2.2,11.5-3c43.6-16.6,87.7-32.1,132.1-46.3c35.6-11.4,97.1-28.8,135.7-22.4c6.3,16.9,13.6,33.6,20.5,50.1
	c-0.1,0.4-0.2,0.7-0.3,1.1c-2,2.6-3.1,6.1-4.3,9.3c-7.2,19.6-23.7,35.6-43.6,42.1c-19.8,6.6-43.9,1.3-61.4-10.1
	c-1.1-0.7-66.1,32.3-80.6,36c-14.3,3.7-29,6.4-43.6,8.1c-12.7,1.4-25.8,0.4-38.6,0.6c-2.2,1.4-4.4,2.9-6.5,4.4
	C160.3,495.2,160.4,494.3,160.5,493.3z"/>
<path class="st7" d="M379.8,454.6c-6-2.9-10.3-9.1-11.8-15.4c-2-8.2-0.3-16.8,2.3-24.8c1.4-4.4,3.2-8.8,5.7-12.7
	c5.2-8.3,13.4-14.4,21.8-19.5c5.9-3.6,12-6.8,18.6-8.7c3.3-0.9,6.8-1.7,10.3-1.7c3,0,5.8,1.4,8.7,2.2c27.9,8.1,55.3,18.4,83,27.5
	c28,9.2,56,18.8,82.7,31.7c4.2,2,8.4,4.2,11.7,7.6c4.6,4.8,6.7,11.7,6.9,18.4c0.7,18.1-7.7,35.4-24.8,42.9
	c-10.1,4.4-20.9,4.6-31.8,4.2c-3-0.4-6-0.7-9-1.2c-40.3-7.3-77.4-17.1-108.6-27.7c-15.6-5.3-31.2-10.9-46.6-17
	c-3.3-1.3-6.6-2.8-10-4c-2.9-1-5.8-0.5-8.7-1.8C380,454.7,379.9,454.6,379.8,454.6z"/>
<path class="st6" d="M421.4,281.6c0,1.1,0.1,2.1,0.1,3.2c0.9,17,5.8,33.8,14,48.6c8.6,15.5,15.1,28.3,16.2,46.3
	c-33.9,0.4-65.6,27-72.1,60.2c-1.5,7.6-2.7,16.8-9.8,19.9c-8.3,3.7-17-4.4-21.7-12.1c-9.9-16.1-15.6-34.6-16.7-53.5
	c-0.6-9.9,1.6-19.2,1.9-28.9c0.3-8.3-3-16.4-6.8-23.8c-3.3-6.4-8.1-12-13.9-16.2c-7.1-5-15.6-7.9-22.2-13.6
	c-6.9-5.8-11.4-14.4-12.2-23.4c-0.6-6.7,0.8-13.6-0.8-20.2c-1.2-4.7-3.8-9-5.6-13.5c-3.8-9.6-3.9-20.6-0.2-30.2
	c9.9-26,37.9-26.1,60-35.6c34.8-15,80,13.7,87.9,48.5C422.8,251.7,420.9,266.8,421.4,281.6z"/>
<path class="st6" d="M421.4,281.6c0,1.1,0.1,2.1,0.1,3.2c0.9,17,5.8,33.8,14,48.6c8.6,15.5,15.1,28.3,16.2,46.3
	c-33.9,0.4-65.6,27-72.1,60.2c-1.5,7.6-2.7,16.8-9.8,19.9c-8.3,3.7-17-4.4-21.7-12.1c-9.9-16.1-15.6-34.6-16.7-53.5
	c-0.6-9.9,1.6-19.2,1.9-28.9c0.3-8.3-3-16.4-6.8-23.8c-3.3-6.4-8.1-12-13.9-16.2c-7.1-5-15.6-7.9-22.2-13.6
	c-6.9-5.8-11.4-14.4-12.2-23.4c-0.6-6.7,0.8-13.6-0.8-20.2c-1.2-4.7-3.8-9-5.6-13.5c-3.8-9.6-3.9-20.6-0.2-30.2
	c9.9-26,37.9-26.1,60-35.6c34.8-15,80,13.7,87.9,48.5C422.8,251.7,420.9,266.8,421.4,281.6z"/>
<path class="st7" d="M280.5,253.2c-1.2-7.3-2.8-14.5-3.2-21.9c-0.3-4.8-2.1-13.4-0.3-17.9c0.8-2.1,6.3-4.8,6.2-6.6
	c1.3,20.2,3.3,40.8,11.6,59.3c16.2-3,32.2-6.7,48-11.4c9.4-2.8,6.2-6.5,4.7-15.1c-1.4-7.8-2.4-15.8-2.8-23.7
	c-0.3-5.6,0-11.1,1.2-16.6c0.4-1.7,3.3-14.6,5.2-14.6c3.8-0.1,7.6,0.3,11.3,0.9c-2.5,4.4-3.8,9.5-4.4,14.6
	c-3.9,37,27.8,69.5,63.3,73.5c0,2.6,0,5.3,0.1,7.9c0,1.1,0.1,2.1,0.1,3.2c0.9,17,5.8,33.7,14,48.6c8.6,15.5,15.1,28.3,16.2,46.3
	c-7.5,0-13.2,1.2-17.1,2.4c-24,7.2-45.6,31.5-54.6,57.7c-1.3,3.9-2.7,17-10.2,19.9c-1.1,0.4-3.4,1.1-6,0.8c-4.4-0.4-7.3-3-9.7-5.1
	c-1.6-1.4-4-3.9-6-7.7l0,0c-1.1-1.7-6-9-8.2-13.6c-5.2-10.4-7.1-22.1-7.1-22.1c-1.2-7.4-1.4-10.4-1.3-11.5c0-0.2,0.1-0.7,0-1.3
	c-0.2-1.2-0.8-1.6-1-2.5c-0.2-1,0.1-1.7,0.3-2.5c0.6-2.2-0.8-2.8-1-6.8c-0.1-1.7-0.1-3.9,0.1-6.5c0.1-0.7,0.1-1.3,0.2-2
	c1.7-3.9,2.6-7.1,2.9-8.8c0-0.4,0.2-2.2,0.3-4.5c0-0.1,0-0.2,0-0.3c0-11.6-4.9-20.1-6.8-23.8c-3.3-6.4-8.1-12-14-16.2
	c-7.1-5-15.6-7.9-22.2-13.6c-6.9-5.8-11.4-14.4-12.2-23.4c-0.5-5.2-0.3-10.4,1.3-15.3c1.3-4.1,2.6-6.4,2.2-10.7
	C281.5,259.2,281,256.2,280.5,253.2z"/>
<path class="st6" d="M317.5,172.1c4.2,5.1,8.4,10.3,14.1,13.7c2.2,1.3,7.3,2.5,8,4.6c0.9,2.7-2.4,8.2-3.8,10.3
	c-2.8,4.5-6.7,8.1-10.9,11.4c-4.3,3.3-9.1,6.3-14.3,8c-6.3,2.1-10.8,1.3-16.8-1.4c-2.2-1-4.3-2.1-5.9-3.9c-1.2-1.3-2.5-3.3-2-5.1
	c0.2-0.9,1.9-0.6,2.3-1.6c1-3.1-4.2-9.3-5.6-11.9c-1.9-3.5-3.5-7.5-2.8-11.5c0.5-2.9,2.2-5.4,4-7.7c2.4-3,5-5.8,7.6-8.6
	c2.3-2.4,4.6-4.8,7.2-6.8c1.9-1.5,2.4-10.5,5-10.3c1.9,0.1,3.7,4.6,4.4,5.9c2.2,3.9,4.1,8.4,7.1,11.8
	C315.8,170,316.7,171,317.5,172.1z"/>
<path class="st6" d="M311.8,137.2c1.7-0.9,3.7-1.4,5.7-1.2c3.6,0.3,6.9,2.8,8.3,6.1s0.9,7.3-1.1,10.3s-5.5,4.9-9.1,5.2
	c-1.2,0.1-2.4,0-3.5-0.4c-3.5-1.3-5.7-6.1-6.2-9.6C305.3,143.4,308.3,139,311.8,137.2z"/>
<path class="st6" d="M306.3,149.4c0.6-1.5,1.5-2.9,2.6-4.1c1.6-1.8,3.8-3.4,6.3-3.1c3,0.3,5.4,3.1,4.5,6.1c-1.4,5.3-7,6.5-11.7,5.1
	C307.3,152.1,306.7,150.7,306.3,149.4z"/>
<path class="st5" d="M273.9,120.4c-1.4,4-3.2,6.7-4.6,8.4c-3.1,3.8-7.3,6.7-8.3,7.4c-3,2-4.6,2.6-6.4,5c-0.3,0.4-1.5,2.1-2.3,4.8
	c-1,3.2-0.7,6.1,0.5,11.5c1.4,6.2,2,9.3,3.8,13.9c1.2,3.1,3.4,8.4,7.4,14.3c4,6.1,6.3,7.5,7.8,8.2c3.3,1.6,6.3,1.5,8.1,1.4
	c6.2-0.3,10.6-3.5,13.5-5.6c5.3-3.9,8.1-8.3,9.9-11.1c6.1-9.7,7.1-19,7.3-22c0.5-6.9-0.6-12.7-1.8-16.7c-3.4,0.2-10.7,0.1-18.7-3.9
	C280.2,131.1,275.5,123.4,273.9,120.4z"/>
<path class="st6" d="M313.7,142.4L313.7,142.4c-0.1-0.1-0.2-0.2-0.1-0.3c0.1-1,2.1-1.1,2.8-1.1c1.7,0,3.2,1.1,3.9,2.6
	c0.1,0.2-0.2,0.3-0.3,0.2c-0.7-0.8-2.3-1.8-3.4-1.9c-0.4,0-2,0.1-2.3,0.4C314.2,142.6,313.9,142.6,313.7,142.4L313.7,142.4z"/>
<path class="st6" d="M314.6,149.1c-0.5-1.2-0.5-2.4,0-3.5c0.1-0.2,0.5-0.1,0.4,0.2c-0.2,0.9,0.1,2.2,0.5,3c0.3,0.7,0.6,1.5,1.2,1.9
	c0.3,0.2,0.6,0.3,0.8,0.6c0.2,0.2,0,0.5-0.3,0.5C315.7,151.8,315.1,150.2,314.6,149.1z"/>
<path class="st7" d="M244.9,302.8c-0.4,0.1-0.9-0.1-1.3-0.2c-0.3-0.1-0.2-0.6,0.1-0.5c0.4,0.1,0.9,0.1,1.3,0.3
	C245.2,302.6,245.1,302.8,244.9,302.8z"/>
<path class="st5" d="M404.2,194.8c-1.8-0.8-3.6-1.6-5.4-2.5c-0.5-0.3-1.1-0.5-1.6-0.8c-2.3-1.1-4.7-2.2-7.1-3.1
	c-4.8-1.8-9.6-2.7-14.7-1.7c-3.2,0.7-6.7,2.4-9.1,4.7c-2.5,2.4-3.9,5.3-3.4,8.7l0,0c0.6,3.6,2.3,7.2,4.6,10.7
	c2.2,3.4,4.9,6.6,7.3,9.4c19.1,22.8,43.8,40.2,69.5,54.9c2.8,1.6,5.7,3.3,8.6,5.1c9.9,5.9,20.4,12.2,30.8,15.4
	c5.4,1.7,11.2-1,15.5-5.7c4.3-4.6,7-11,6.2-16.3c-0.5-3.6-2.3-7-4.4-10.1c-3.4-4.9-7.6-8.6-12-12.5c-1.6-1.3-3.1-2.7-4.7-4.1
	c-15.6-14.4-32.8-27.1-51.2-37.8C423.8,204,414.1,199.1,404.2,194.8z M404.2,194.8l0.2-0.6L404.2,194.8z M404.2,194.8L404.2,194.8
	l0.2-0.6L404.2,194.8z M404.5,194.3c-1.8-0.8-3.6-1.6-5.4-2.5c-7.6-3.6-15.4-7.3-23.8-5.6L404.5,194.3z"/>
<path class="st5" d="M404.2,194.8L404.2,194.8c-1.8-0.8-3.5-1.6-5.3-2.5c-0.6-0.3-1.1-0.5-1.7-0.8c-2.3-1.1-4.7-2.2-7.1-3.1
	c-4.8-1.8-9.6-2.7-14.7-1.7c-3.2,0.7-6.7,2.4-9.1,4.7c-2.5,2.4-3.9,5.4-3.4,8.7c0.6,3.6,2.3,7.2,4.6,10.7c2.2,3.4,4.9,6.6,7.3,9.4
	c14.9,17.7,33.1,32.2,52.6,44.7c3.9-7.1,8.8-13.6,13.6-19.9c3.9-5.2,8.2-10.3,13.1-14.6l0,0c1.6-1.4,3.4-2.8,5.2-4.1
	c-8.4-6.2-17.1-11.9-26.1-17l0,0C423.8,204,414.1,199.1,404.2,194.8z"/>
<path class="st5" d="M319.8,353.4c-3.9-22.1-8.8-48.2-12.7-65.8c-0.4,0-1-0.1-1.8-0.2c-0.8-0.2-1.9-0.4-3.1-0.7
	c-2.4-0.6-5.6-1.4-9.3-2.4c-7.3-2-16.5-4.7-25.6-7.3c-2.8-0.8-5.6-1.6-8.2-2.4c-6.1-1.8-11.8-3.4-16.4-4.8c-3.3-1-6.1-1.7-8.1-2.3
	c-1-0.3-1.8-0.5-2.3-0.6h-0.1c0.1,0.4,0.3,1,0.5,1.8c0.5,1.7,1.2,4.1,2.1,7c1.9,5.9,4.5,14.1,7.6,23.3c6,18.1,13.4,39.9,18.9,55.1
	L319.8,353.4z"/>
<path class="st5" d="M317.8,353.5c-2.1-22.2-4.7-48.1-7.1-65.8c-0.4,0-1-0.2-1.8-0.3c-0.8-0.2-1.8-0.5-3-0.8
	c-2.4-0.7-5.5-1.7-9.1-2.9c-7.1-2.4-16.1-5.5-24.9-8.6c-2.8-1-5.6-2-8.3-2.9c-5.8-2.1-11.3-4-15.7-5.6c-3.3-1.1-6-2.1-7.9-2.7
	c-1-0.3-1.7-0.6-2.3-0.7h-0.1c0.1,0.5,0.2,1.1,0.4,2c0.4,1.8,0.9,4.3,1.6,7.5c1.4,6.3,3.5,15,5.9,24.6c4.7,19.1,10.4,41.8,14.5,56.9
	L317.8,353.5z"/>
<path class="st5" d="M390.4,342.2v-0.4l-0.2-2.7c-0.2-2.3-0.4-5.6-0.7-9.7c-0.6-8-1.4-18.7-2.2-29.6c-1.5-20.3-2.9-41.2-3.2-45.8
	l0,0c-0.5,0.2-1.3,0.5-2.3,0.9c-2,0.9-4.8,2.2-8.2,3.8c-5.4,2.5-12.2,5.8-19.4,9.2c-1.9,0.9-3.9,1.8-5.8,2.8
	c-9.3,4.4-18.8,8.9-26.3,12.4c-3.8,1.7-7,3.2-9.5,4.3c-1.3,0.5-2.3,1-3.2,1.3c-0.7,0.3-1.4,0.5-1.8,0.6c0.4,17.3,1.8,42.5,3.2,64.3
	L390.4,342.2z"/>
<path class="st6" d="M386.2,338c0.9-27.9-8.5-77.9-9.4-78.2c-1.1-0.4-67.3,28.4-72.8,29.5c-0.1,0-0.2,0-0.4,0
	c1.8,17.4,5.4,42.8,8.7,64.8L386.2,338z"/>
<path class="st5" d="M388.9,262c0-0.8-0.1-1.4-0.1-1.9c-9.8,4.1-29.9,10.9-48.2,17.2c-0.9,0.3-1.7,0.6-2.5,0.9
	c-8.5,2.9-16.4,5.6-22.7,7.8c-3.4,1.2-6.3,2.3-8.5,3.1c-1.1,0.4-2,0.8-2.7,1.1c-0.7,0.3-1.2,0.5-1.4,0.7l0,0c-0.1,0-0.2,0.1-0.2,0.1
	h-0.1h-0.1h-0.1c-0.1,0-0.1,0-0.2,0s-0.4-0.1-0.6-0.2c-0.5-0.1-1.3-0.4-2.3-0.6c-2-0.6-4.8-1.4-8.3-2.4c-1.6-0.5-3.3-1-5.2-1.5
	c-6-1.7-13-3.7-20-5.7c-9.2-2.6-18.6-5.2-25.8-7.2c-3.6-1-6.7-1.8-9-2.4c-1.2-0.3-2.1-0.5-2.8-0.6c-0.2,0-0.4-0.1-0.6-0.1
	c0.1,0.4,0.2,0.9,0.4,1.6c0.4,1.5,1.1,3.8,2,6.6c1.8,5.6,4.3,13.4,7.2,22.2c5.8,17.4,13,38.6,18.5,54.1l70.5,6.8l68.2-15
	c-1.7-12.7-3-34.3-4-52.7c-0.5-9.4-0.8-18-1.1-24.2c-0.1-1.5-0.1-2.9-0.2-4.1C389,264,388.9,262.9,388.9,262z"/>
<path class="st5" d="M315.3,332.4c-5.2-15.5-10.9-33-12.9-41.8c-0.4,0-1-0.1-1.8-0.2c-0.8-0.2-1.9-0.4-3.1-0.7
	c-2.4-0.6-5.6-1.4-9.3-2.4c-7.3-2-16.5-4.7-25.6-7.3c-2.8-0.8-5.6-1.6-8.2-2.4c-6.1-1.8-11.8-3.4-16.4-4.8c-3.3-1-6.1-1.7-8.1-2.3
	c-1-0.3-1.8-0.5-2.3-0.6h-0.1c0.1,0.4,0.2,1,0.4,1.7c0.4,1.6,1.1,3.8,2,6.7c1.8,5.6,4.3,13.4,7.2,22.1c5.7,17.3,12.9,38.4,18.4,54
	l69.6,6.7c-0.1-0.4-0.3-0.9-0.5-1.5c-0.5-1.5-1.3-3.7-2.3-6.4C320.5,347.6,317.9,340.3,315.3,332.4z"/>
<path class="st5" d="M323.8,347.2l0.1,1.2c-3.9,0.8-7.8,1.6-11.7,2.4c-5.8,1.2-11.6,2.3-17.4,3.7c-0.6,0.1-1.2,0.4-1.5,0.7
	c-0.2,0.2-0.3,0.3-0.3,0.4s0,0.2,0,0.3l0,0l0,0c0.1,0.2,0.2,0.3,0.5,0.4s0.6,0.2,1,0.2c4.5,0.5,8.9,0.7,13.4,0.7l0,0l0,0
	c0.5,0,1,0,1.6,0.2c1.1,0.4,1.7,1.3,2.2,2l0.1,0.1l0.1,0.1l0,0c1.8,2.6,3.7,4.7,5.9,6.1c2.2,1.4,4.8,2.3,7.9,2.6
	c9,0.8,17.6,1.1,26.2-1.1c8.4-2.1,16.6-5,24.6-8.3l0,0c11.8-4.8,23.2-10.5,34.6-16.2c3.9-2,7.9-3.9,11.9-5.9l0,0
	c22.2-10.8,44-22.8,64.3-37.2l0,0c5.7-4,11.3-8.2,14.9-14c3.3-5.4,4.1-9.8,3.2-13.4s-3.4-6.5-6.9-8.6c-7.1-4.3-17.9-5.5-26.3-3.8
	l0,0c-19.4,4-34.5,15.5-48.9,28.3c-2.7,2.4-5.3,4.8-7.9,7.2c-11.7,10.7-23.5,21.4-37.4,28.6l0,0c-4.8,2.5-9.8,4.5-14.8,6.5l0,0
	c-4.6,1.9-8.4,3.1-13.3,3.7c-2.2,0.3-4.4,1.1-6.6,1.9c-0.2,0.1-0.4,0.2-0.7,0.2c-2.5,0.9-5,1.7-7.6,1.8c-4.2,0.8-8.4,1.7-12.6,2.5
	c-3.5,0.7-7.1,1.4-10.6,2.1l0,0c-2,0.4-3.9,0.8-5.2,1.9c0.1,0,0.2,0,0.2,0.1c0.7,0.2,1.7,0.5,2.6,0.7l0.2,0.1c1,0.3,2.1,0.6,3,0.8
	c0.9,0.2,1.5,0.4,1.6,0.4c2.1,0.3,4.3,0.3,6.4,0.4C321.8,347.1,322.8,347.1,323.8,347.2z"/>
<path class="st5" d="M528.6,475.8c-2.8-11.8-0.5-24.6,5.7-34.9c4.7-8,11.6-13.9,19.3-18.6c-7.3,2.2-14.8,4.1-22.4,5.4
	c-11.5,1.9-23.1,2.1-34.7,2.4c-4.2,0.1-8.3,0.2-12.5,0.4c-29.6,1.2-52.3,7.1-74.4,15c-9.2,3.3-18.3,6.9-27.7,10.7
	c-2,0.8-3.9,1.6-5.9,2.4c-11.6,4.6-23.8,9.4-37.6,13.9c-0.1,0.1-0.2,0.2-0.3,0.2c-0.2,0.1-0.4,0.2-0.6,0.2c-0.5,0.1-1.2,0.3-2,0.5
	c-1.6,0.3-3.8,0.7-6,1l0,0c-2.2,0.3-4.4,0.7-6,1c-0.8,0.2-1.5,0.3-1.9,0.4c-0.1,0-0.1,0-0.2,0.1c0.8,3.4,1.7,6.8,2.5,10.2
	c1.6,6.5,3.3,13.1,4.6,19.7c65,3,158.3,3.1,235.7,0.2c-0.4-0.2-0.8-0.5-1.3-0.7c-5.5-3-12.4-6.7-18.6-11.1
	C536.8,489,530.3,482.8,528.6,475.8z M321.3,475.4L321.3,475.4L321.3,475.4L321.3,475.4z"/>
<path class="st7" d="M452.7,433.1c9.6-1.7,19.9-2.8,31.3-3.3c0.7,0,1.1,0,1.5-0.1c0.9,0,1.1,0,1.4,0c1.1-0.1,1.9-0.8,2.1-0.9
	c0.9-0.6,5.2-1.6,17.7-3.1c11.1-0.8,16.9-1.1,20.1-1.1c0.4,0,1.4,0,2.7-0.1c4.2-0.4,7.5-1.4,9.7-2.3c2.8-1,4.4-0.7,5.4-0.1
	c1,0.6,1.8,1.8,2.6,1.6c0.5-0.1,0.7-0.7,1-1.2c0.8-1.7,3.9-1.7,6.5-2c3.6-0.4,4.9-1.4,6.8-1.6c10.2-1.3,24.9,6,34.1,10
	c8.9,3.9,19.5,10,22.3,19.9c3.1,11.5,3.9,25.6-1.8,36.4c-4.9,9.3-14.4,15.6-24.3,18.8c-10,3.3-20.6,4-31.1,4.7
	c-26.6,1.7-53.1,3.5-79.7,5.2c-3.5,0.2-7.2,0.4-10.1-1.6c-5.3-3.6-0.1-9.9-0.1-14.6c0.1-7.5-0.7-15.2-1.9-22.6
	C466.3,460.1,461.4,445.4,452.7,433.1z"/>
<path class="st5" d="M302.1,505.7L302.1,505.7c7.1,0.7,14.2,1.9,21.3,3.1c1.8,0.3,3.5,0.6,5.3,0.9c8.7,1.4,17.4,2.7,26.2,2.7
	c1.2-3.2,2.2-7.8,3.1-11.8c0.4-2.1,0.8-3.9,1-5.3V495c0.1-0.6,0.2-1,0.3-1.4c0-0.2,0.1-0.4,0.1-0.5c0,0,0,0,0-0.1
	c-0.1-0.1-0.3-0.2-0.5-0.4c-0.5-0.4-1.4-1-2.5-1.6c-2.2-1.3-5.4-3.1-9.3-5.3c-7.8-4.2-18.5-9.7-29.4-15.2
	c-21.9-11-44.8-22.2-48.8-23.9c-15.8-6.7-32-12.3-48.8-15.8l0,0c-1.4-0.3-3-0.5-4.6-0.7c-0.5-0.1-1.1-0.1-1.6-0.2
	c-2.2-0.3-4.4-0.6-6.2-1.4c-1.7-0.7-3-1.7-4.3-2.8c-0.2-0.2-0.5-0.4-0.7-0.6c-1-0.9-2-1.8-3.2-2.5c-6.1-3.8-13.6-4.9-20.7-5
	c-2.6,0-5.3,0.1-8,0.3l-0.1-0.6l0.1,0.6c-11.2,0.9-22.4,3.1-32.2,8.4s-17.9,14.2-20.4,25c-1.1,4.7-1,9.7-1,14.6
	c0,3.3,0.1,6.6,1.4,9.5l0,0c1.8,4.2,5.9,7,10.1,9.2c14.8,7.8,31.7,10.4,48.4,12.2c19.7,2.1,39.4,3.4,59.2,4.6
	c15.6-0.3,31.7,1.2,47.5,2.6c5.5,0.5,11,1,16.5,1.4c0.3,0,0.6,0.1,0.9,0.1l0,0C301.5,505.6,301.8,505.6,302.1,505.7z"/>
<path class="st7" d="M114.9,466.1c-1.8-15.7,9.9-33,23.3-40.3c9.9-5.4,21.2-7.5,32.4-8.5c2.7-0.2,5.4-0.3,8-0.3
	c13.1,0.2,24.9,6.3,37.3,10c14.2,4.2,28.6,7.6,43.2,10.2c-22.5,13.5-34.9,40.2-36,66.4c-0.1,1.4-0.3,3.2-1.6,3.7
	c-0.4,0.2-0.9,0.2-1.4,0.2c-24.7,0-49.3-4-72.7-11.9c-9.8-3.3-19.7-7.6-26.4-15.4C117.4,475.9,115.5,471.1,114.9,466.1z"/>
<path class="st6" d="M240.3,394L240.3,394c3.1-5.9,5.8-12,8.5-18.1c0.5-1.2,1.1-2.4,1.6-3.6c2.1-4.9,4.2-9.8,6.5-14.6
	c2.6-5.5,5.4-10.9,8.6-16.1l0,0c1.2-1.9,2.2-3.8,3.3-5.7c0.3-0.5,0.6-1,0.9-1.6c1.3-2.4,2.7-4.8,4.4-7.2l0,0c2.3-3.1,4.1-6.4,5.6-10
	c1-2.4,1.7-4.9,1.2-7.3c-0.3-1.1-1-2.2-1.9-3c-0.9-0.7-2-1.1-3.1-0.9l-0.5,0.1l-0.2-0.5c-1.1-2.9-0.4-6,0.3-8.9l0,0
	c0.7-2.8,1.3-5.3,0.6-7.7c-2,0.7-3.6,2.6-5,4.6l0,0c-1.6,2.3-3.2,4.8-4.7,7.3c-0.6,1-1.2,2-1.9,3c-2.2,3.6-4.6,7-7.3,9.9l-0.5,0.5
	l-0.4-0.6c-0.5-0.7-0.6-1.4-0.4-2.1c0.1-0.7,0.5-1.4,0.9-2.1c0.3-0.5,0.6-0.9,0.9-1.4c0.1-0.2,0.2-0.4,0.4-0.5
	c0.4-0.6,0.7-1.1,0.9-1.6l0,0l0,0c0-0.1,0.1-0.4,0.2-0.9c0.1-0.3,0.2-0.7,0.3-1.2c0-0.1,0-0.1,0-0.2c-0.1-0.1-0.2-0.3-0.3-0.4
	c-0.1-0.1-0.2-0.2-0.3-0.3c-0.4-0.5-0.7-0.7-1-0.8c-0.3-0.1-0.7-0.1-1.5,0l0,0l0,0c-0.3,0-0.6,0.1-0.9,0.2
	c-4.1,5-7.1,10.3-10.2,15.8c-0.2,0.3-0.3,0.6-0.5,0.8c-3.2,5.8-6.6,11.6-11.4,17l0,0c-3.1,3.5-6.4,6.9-9.7,10.3
	c-1.7,1.8-3.5,3.6-5.2,5.4c-5,5.3-9.9,10.7-13.9,16.5l0,0c-1.5,2.2-3.2,4.4-5,6.7c-1.3,1.7-2.6,3.4-3.8,5.1c-3,4.1-5.8,8.3-7.9,12.3
	l0,0c-3.2,6.3-3,14.1,0.6,20.2c3.5,6.1,10.3,10.2,17.3,10.5c6.3,0.3,12.1-2.2,17.2-6.2c5.1-4,9.4-9.4,12.8-14.9l0,0
	C237.4,399.5,238.9,396.7,240.3,394z M199,374.7c1.7-2.3-13.3,19.7-11.8,17.6l-2.3,9.9l2.9,10.9l7.9,7.8l9.9,3
	c-7.2-0.3-14.2-4.6-17.8-10.8c-3.6-6.3-3.9-14.4-0.6-20.8C190.2,386.4,194.8,380.4,199,374.7z"/>
<path class="st1" d="M187.2,392.2c-1.5,2.2,13.6-19.9,11.8-17.6C194.8,380.4,190.2,386.4,187.2,392.2z M187.2,392.2
	c-3.3,6.4-3.1,14.5,0.6,20.8 M187.2,392.2l-2.3,9.9l2.9,10.9 M187.8,413c3.6,6.3,10.6,10.5,17.8,10.8l-9.9-3L187.8,413z M240.3,394
	L240.3,394c3.1-5.9,5.8-12,8.5-18.1c0.5-1.2,1.1-2.4,1.6-3.6c2.1-4.9,4.2-9.8,6.5-14.6c2.6-5.5,5.4-10.9,8.6-16.1l0,0
	c1.2-1.9,2.2-3.8,3.3-5.7c0.3-0.5,0.6-1,0.9-1.6c1.3-2.4,2.7-4.8,4.4-7.2l0,0c2.3-3.1,4.1-6.4,5.6-10c1-2.4,1.7-4.9,1.2-7.3
	c-0.3-1.1-1-2.2-1.9-3c-0.9-0.7-2-1.1-3.1-0.9l-0.5,0.1l-0.2-0.5c-1.1-2.9-0.4-6,0.3-8.9l0,0c0.7-2.8,1.3-5.3,0.6-7.7
	c-2,0.7-3.6,2.6-5,4.6l0,0c-1.6,2.3-3.2,4.8-4.7,7.3c-0.6,1-1.2,2-1.9,3c-2.2,3.6-4.6,7-7.3,9.9l-0.5,0.5l-0.4-0.6
	c-0.5-0.7-0.6-1.4-0.4-2.1c0.1-0.7,0.5-1.4,0.9-2.1c0.3-0.5,0.6-0.9,0.9-1.4c0.1-0.2,0.2-0.4,0.4-0.5c0.4-0.6,0.7-1.1,0.9-1.6l0,0
	l0,0c0-0.1,0.1-0.4,0.2-0.9c0.1-0.3,0.2-0.7,0.3-1.2c0-0.1,0-0.1,0-0.2c-0.1-0.1-0.2-0.3-0.3-0.4c-0.1-0.1-0.2-0.2-0.3-0.3
	c-0.4-0.5-0.7-0.7-1-0.8c-0.3-0.1-0.7-0.1-1.5,0l0,0l0,0c-0.3,0-0.6,0.1-0.9,0.2c-4.1,5-7.1,10.3-10.2,15.8
	c-0.2,0.3-0.3,0.6-0.5,0.8c-3.2,5.8-6.6,11.6-11.4,17l0,0c-3.1,3.5-6.4,6.9-9.7,10.3c-1.7,1.8-3.5,3.6-5.2,5.4
	c-5,5.3-9.9,10.7-13.9,16.5l0,0c-1.5,2.2-3.2,4.4-5,6.7c-1.3,1.7-2.6,3.4-3.8,5.1c-3,4.1-5.8,8.3-7.9,12.3l0,0
	c-3.2,6.3-3,14.1,0.6,20.2c3.5,6.1,10.3,10.2,17.3,10.5c6.3,0.3,12.1-2.2,17.2-6.2c5.1-4,9.4-9.4,12.8-14.9l0,0
	C237.4,399.5,238.9,396.7,240.3,394z"/>
<path class="st7" d="M463.8,469c1.2,14.9,2.2,30.2-1.8,44.7c7.2,2.2,14.7,3.3,22.2,3.3c1.1,0,2.3,0,3.2-0.7c1.3-0.9,1.6-2.5,1.9-4
	c1.3-7.4,2.5-14.9,3.5-22.4c2.6-18.8,4.1-38.5-3.2-56c-2.3-5.6-5.9-11.2-11.6-13.3c-3.3-1.2-6.8-1.2-10.3-0.9
	c-4,0.3-12.6,1-15.2,4.6c-2.8,3.9,1.1,8.1,3.1,11.5C461.2,446,462.8,457.5,463.8,469z"/>
<path class="st7" d="M249.6,445.2c-14.8,17.5-21.9,41.1-19.3,63.8c-6,1.4-12.1,1.9-18.3,1.5c-1.4-0.1-2.9-0.3-3.8-1.4
	c-0.7-0.9-0.7-2.1-0.7-3.3c0-23.9,8.5-47,18.7-68.7c2.8-5.9,6.5-12.4,12.9-13.7c4.5-1,9.2,1,13.4,3c3.6,1.7,11.4,4.6,9,9.1
	C259.7,438.8,252.3,441.9,249.6,445.2z"/>
<path class="st6" d="M348.2,252.1l1.9-0.4c-3.6-17-6.6-35.1-4-53.2c0.6-4.3,1.7-9.8,5-13.6l-1.4-1.2c-3.6,4.2-4.8,10-5.5,14.6
	C341.6,216.7,344.6,235,348.2,252.1z"/>
<path d="M294.6,267.8c17.9-3.1,35.8-7.5,53-13.3l-0.6-1.8c-17.2,5.7-34.9,10.1-52.7,13.2L294.6,267.8z"/>
<path class="st6" d="M357.3,259.9c1.6,0,3.2-0.5,4.4-1.5c2.8-2.1,4.1-5.8,3.9-11.6c-0.1-4.5-0.7-9-1.7-13.4l-1.9,0.4
	c0.9,4.3,1.5,8.6,1.6,13c0.1,5-0.9,8.3-3.2,10c-1.8,1.3-4.4,1.5-6.3,0.3c-1.9-1.1-3-3.2-4-5.2l-1.7,0.9c1.1,2.2,2.5,4.7,4.8,6.1
	C354.4,259.6,355.8,259.9,357.3,259.9z"/>
<path class="st6" d="M289.9,277.7c1,0,2-0.3,2.9-0.8c1.1-0.7,2-1.9,2.3-3.3c0.3-1.3,0-2.5-0.6-3.4l-1.6,1.1c0.4,0.5,0.5,1.2,0.3,2
	c-0.2,0.9-0.7,1.6-1.4,2.1c-1.3,0.8-3.3,0.7-4.8-0.4c-1.7-1.2-2.6-3.1-3.1-4.5c-0.5-1.7-0.7-3.6-0.9-5.4v-0.5
	c-0.6-6.3-1.7-12.8-2.7-18.9c-1.5-9.1-3-18.4-3.3-27.7c0-1.2,0-2.4,0.4-3.4l-1.7-0.8c-0.7,1.4-0.7,2.8-0.6,4.3
	c0.3,9.4,1.8,18.8,3.3,27.9c1,6.2,2.1,12.5,2.7,18.8v0.5c0.2,1.9,0.4,3.9,1,5.8c0.5,1.7,1.6,4.1,3.8,5.6
	C287.1,277.4,288.5,277.8,289.9,277.7z"/>
<path class="st6" d="M374.8,457.4c3.4-3,4.8-7.4,6.2-11.7c3.3-10.2,7.3-20.8,13.3-30.1c11-16.8,29.8-29.6,51.7-35.1l-0.5-1.9
	c-22.3,5.6-41.5,18.7-52.8,35.9c-6.1,9.4-10.1,20.2-13.5,30.5c-1.3,4-2.7,8.1-5.7,10.9L374.8,457.4z"/>
<path class="st6" d="M347.4,425.8l0.4-1.9c-2.9-0.5-5.6-1.8-7.9-3.6c-1.3-1-2.1-2-2.5-3c-0.6-1.4-0.5-3.2-0.3-4.9
	c1.4-14.4,6.2-28.6,13.7-41l-1.6-1c-7.7,12.6-12.5,27.1-14,41.8c-0.2,1.9-0.3,3.9,0.5,5.8c0.6,1.3,1.6,2.5,3.1,3.7
	C341.1,423.8,344.2,425.2,347.4,425.8z"/>
<path class="st6" d="M348.7,456.6l1.9-0.3c-4.1-29.6-0.1-59.7,11.6-87.2l-1.8-0.7C348.6,396.2,344.6,426.6,348.7,456.6z"/>
<path class="st6" d="M327.4,444.7l1.8-0.7c-3-7.1-3.5-15-4.1-22.7c-0.2-3-0.4-6.1-0.8-9.1c-1.2-9.8-4.8-22.6-15.5-28.2l-0.9,1.7
	c10.5,5.4,13.5,19.1,14.4,26.7c0.4,3,0.6,6,0.8,9C323.8,429.2,324.3,437.3,327.4,444.7z"/>
<path class="st6" d="M572.1,429.9l0.5-1.9c-14.7-3.8-29.2-7.3-44.1-8.2c-16.9-1.1-31.7,1.4-44.1,7.4l0.8,1.7
	c12.1-5.9,26.6-8.3,43.1-7.3C543.2,422.6,557.5,426.1,572.1,429.9z"/>
<path class="st6" d="M228.6,434.3l1-1.6c-16.8-10.1-36.9-15.5-56.6-15.2v1.9C192.3,419.1,212,424.4,228.6,434.3z"/>
<path d="M176.4,285.7l-1.7-0.9c-9.2,17.3-21.5,58.1-20.1,77.6l1.9-0.1C155.1,343.1,167.4,302.8,176.4,285.7z"/>
<path d="M153.4,308.3l-1.5-0.7c-6.5,15.7-8.6,33.7-6,50.6l1.6-0.2C144.9,341.4,147.1,323.8,153.4,308.3z"/>
<path d="M131.7,518.2l-1.1,1.3c18.7,8.2,41,12.6,62.8,12.3v-1.6C172,530.5,150.1,526.2,131.7,518.2z"/>
<path class="st6" d="M210.6,511.3c0.3,0,0.6-0.1,0.9-0.3c0.5-0.4,0.8-1,0.7-1.5s-0.4-0.8-0.9-1l-0.6,1.8c-0.2-0.1-0.4-0.3-0.5-0.5
	c0-0.1,0-0.3,0.1-0.4s0.3-0.1,0.5,0l0,0c0,0-0.1-0.2-0.1-0.7c1.2-23.8,6.8-46.9,16.5-68.7c4.6-10.4,9.7-15.6,16-16.5l-0.2-1.9
	c-9.2,1.3-14.4,10.7-17.4,17.6c-9.8,22-15.4,45.4-16.6,69.4c0,0.5-0.1,1.9,1,2.5C210.2,511.3,210.4,511.3,210.6,511.3z"/>
<path class="st6" d="M486.8,519.9c4.2-3.3,5.2-8.9,5.9-13.9c2.2-16.7,3.1-33.7,2.6-50.5c-0.2-6.2-0.5-12.7-2.8-18.9
	c-2.4-6.8-7-12.1-12.5-14.5l-0.8,1.8c5,2.2,9.2,7.1,11.4,13.4c2.1,5.9,2.5,12.3,2.6,18.3c0.5,16.7-0.4,33.6-2.6,50.2
	c-0.6,4.6-1.6,9.8-5.2,12.7L486.8,519.9z"/>
<path d="M426.6,267.7c9.8-15.2,21.4-29.3,34.4-41.9l-1.3-1.4c-13.1,12.7-24.8,26.9-34.7,42.2L426.6,267.7z"/>
<path d="M420.3,264.4c9.1-15.9,20.5-30.3,33.9-42.8l-1.3-1.4c-13.5,12.6-25,27.2-34.2,43.3L420.3,264.4z"/>
<path d="M238.2,308.2l0.7-1.8c-6.6-2.8-13.2-5.8-19.6-9l-0.9,1.7C224.8,302.4,231.5,305.4,238.2,308.2z"/>
<path d="M235.6,299.7l1-1.6c-4.2-2.7-8.6-4.9-13.3-6.6l-0.7,1.8C227.2,294.9,231.6,297.1,235.6,299.7z"/>
<path d="M302.4,221.7c0.1,0,0.2,0,0.4,0c6.8-0.2,14-3,22-8.6c8.8-6.2,14-12.6,15.8-19.7c0.7-2.8,0.5-5-0.5-6.7l-1.6,1
	c0.8,1.2,0.9,2.9,0.3,5.2c-1.7,6.6-6.6,12.7-15,18.6c-7.7,5.3-14.5,8.1-21,8.3c-8.1,0.3-15.6-4-18.2-10.3l-1.8,0.7
	C285.7,217.2,293.7,221.9,302.4,221.7z"/>
<path d="M485.3,290.5c4-0.1,8-1.9,10.7-4.9c2.8-3.1,4.2-7.5,3.7-11.7l-1.9,0.2c0.5,3.7-0.8,7.5-3.2,10.2c-2.5,2.7-6.1,4.3-9.8,4.2
	v1.9C484.9,290.5,485.1,290.5,485.3,290.5z"/>
<path class="st6" d="M595.5,491.5c1.3,0,2.6-0.2,3.9-0.5l-0.5-1.9c-3.8,1-8,0.4-11.4-1.6s-6-5.4-7-9.2c-1-3.8-0.5-8.3,1.3-12.7
	c1.9-4.4,5-8.2,7.5-10.9l-1.4-1.3c-2.6,2.9-5.8,6.8-7.8,11.5c-2.1,4.7-2.6,9.7-1.5,13.9c1.2,4.3,4,8.1,7.9,10.4
	C589.3,490.8,592.4,491.6,595.5,491.5z"/>
<path class="st6" d="M126.7,480.7c7.1-0.1,14.2-5.4,17.2-12.9c3.2-8.3,1.4-17.3-0.8-23.4l-1.8,0.6c2,5.8,3.8,14.3,0.8,22.1
	c-2.8,7.3-10.1,12.3-16.9,11.6l-0.2,1.9C125.6,480.6,126.2,480.7,126.7,480.7z"/>
<path d="M206.4,414.3c3.7-0.1,7.4-1.7,10.3-4.5l-1.4-1.4c-3.2,3.2-7.8,4.6-11.7,3.7c-4.2-1-7.4-4.9-7.3-8.9h-1.9
	c-0.1,4.9,3.7,9.6,8.8,10.8C204.3,414.2,205.4,414.3,206.4,414.3z"/>
<path class="st6" d="M302.9,274.9c0.4,0,0.8-0.2,1.1-0.6c0.1-0.1,0.1-0.2,0.1-0.4c5.6-1.5,11.3-2.6,16.9-3.6c8-1.5,16.2-3,24.1-5.8
	l-0.6-1.8c-7.7,2.7-15.8,4.2-23.8,5.7c-5.8,1.1-11.8,2.2-17.5,3.8c-1.3,0.3-1.4,1.2-1.4,1.5c0,0.5,0.4,1,0.9,1.1
	C302.7,274.9,302.8,274.9,302.9,274.9z M303.5,273.3l-1.1,1c-0.2-0.2-0.3-0.7-0.1-1c0.1-0.2,0.4-0.5,0.7-0.4
	C303.2,273,303.4,273.2,303.5,273.3z"/>
<path d="M320.4,160.9C320.3,160.9,320.3,160.9,320.4,160.9C320.3,160.9,320.4,160.9,320.4,160.9L320.4,160.9z"/>
<path class="st4" d="M317.7,160.8c0.1,0,0.3,0,0.5,0c0,0,0.4,0.1,0.2,0.1c0.1,0,0.1,0,0.2,0c0.3,0,0.5,0,0.9,0c0,0,0.2,0,0.3,0.1
	l0,0c0.1,0,0.2,0,0.3,0l0,0c0,0,0.1,0,0.2-0.1c-0.1,0-0.1,0.1,0.1,0c0,0,0.1-0.1,0.2-0.2l0,0c0,0,0-0.1,0.1-0.1c0-0.1,0-0.1,0.1-0.2
	c0,0,0,0,0-0.1s0-0.2,0-0.3c0,0,0-0.2,0-0.3c0,0,0,0,0-0.1s0-0.2-0.1-0.3c0,0,0-0.1,0-0.2c0-0.2-0.2-0.5-0.3-0.7l-0.2-0.3
	c0.1,0.2,0.1,0.2,0,0l-0.1-0.1c-0.2-0.2-0.4-0.4-0.5-0.6c-0.4-0.4-0.7-0.7-1.1-1.1c-0.2-0.2-0.4-0.4-0.6-0.7
	c-0.4-0.5-0.5-0.9-0.3-1.5c0-0.5,0.4-1.1,0.9-1c0.3,0.1,1.9,0.2,2.2,0.4c0.1,0,0.1,0.1,0.2,0.1c0.2,0.1,0.3,0.3,0.5,0.4
	c0.2,0.2,0.5,0.4,0.7,0.6c0.5,0.5,0.8,1,1.2,1.5c0.7,1,1,2.3,0.9,3.5c-0.2,2.7-2.5,5.2-5.4,4.7c-0.4-0.1-0.9-0.2-1.2-0.6
	c-0.2-0.2-0.3-0.6-0.4-0.8c-0.1-0.1-0.1-0.3-0.2-0.4C316.5,162,316.8,161,317.7,160.8z"/>
<path class="st8" d="M411.5,108.4c-1.9,1.2-3.2,3.5-3.9,6.6c-0.7,3.2-0.7,7.1-0.2,11.5c1.1,8.8,4.8,19.2,10.7,28.4
	c5.9,9.2,13.4,17.3,20.5,22.4c3.5,2.6,6.9,4.4,9.9,5.2s5.5,0.7,7.4-0.5s3.2-3.6,4-6.9c0.8-3.3,0.9-7.5,0.4-12
	c-0.9-9.2-4.4-20-10.3-29.2s-13.6-16.9-20.9-21.6c-3.6-2.4-7.1-4-10.2-4.6C415.9,107,413.3,107.2,411.5,108.4z"/>
<path class="st5" d="M439.3,157.1c-8.6,0-15.5-6.9-15.5-15.5c0-8.5,6.9-15.5,15.5-15.5s15.5,6.9,15.5,15.5
	C454.8,150.2,447.8,157.1,439.3,157.1z"/>
<path class="st9" d="M481.7,109.5l6.4,10.4c3-1.4,4.8-2.4,7.2-4.8c0-2.4-0.8-4-0.8-6.4C489.2,108,486.5,108.6,481.7,109.5z"/>
<path class="st10" d="M456.2,183.4c9.7-35.4-9.7-65.9-44.3-76.3c28.6-9,62-16.1,74.8,8C499.7,139.2,484.4,163.1,456.2,183.4z"/>
<path d="M345.7,516.9l2.4-33.7c33.6-0.7,56.5,6.6,70,15.3l-2.4,10.4l-18.5,2.4c22.6,23.8,29.1,60.2,20.9,67.5
	C405,563.3,374.8,517.8,345.7,516.9z"/>
<path d="M273,165.7c-0.3-1.2-0.6-2.5-0.7-3.7c-0.2-2.2-0.7-4.3-0.9-6.5c-0.2-2.4-0.7-4.8-1.1-7.2c-0.1-0.4,0.4-0.6,0.6-0.2
	c0.7,1.8,0.7,3.8,1.2,5.7c0.3,1.6,0.6,3.3,0.8,4.9c0.2,1.8,0.6,3.7,1,5.5c0.2,0.9,0.3,2.3,1.1,3c0.9,0.7,2.2,0.5,3.2,0.3
	c0.8-0.2,1.2,1.2,0.5,1.4c-1.4,0.3-3.2,0.4-4.5-0.9C273.4,167.3,273.2,166.5,273,165.7z"/>
<path d="M273.6,177.1c0.7,0.2,0.9,0.8,1.4,1.2c0.9,0.9,1.8,1.3,3.1,1.1c1.1-0.2,2.1-0.8,2.8-1.7c0.7-0.8,1.4-1.9,1.8-2.9
	c0.1-0.3,0.6-0.3,0.6,0c0.2,1.1-0.7,2.5-1.4,3.4c-0.8,1.1-1.7,1.8-3,2.2c-0.9,0.3-2.3,0.3-3.2-0.1c-0.5-0.2-0.8-0.5-1.2-0.8
	c-0.2-0.2-0.5-0.4-0.7-0.7c-0.2-0.2-0.3-0.6-0.5-0.7C272.5,178,272.9,176.9,273.6,177.1z"/>
<path d="M258.2,150.5c-1,0.6-1.8,1.3-2.6,2.1c-0.2,0-0.5-0.1-0.7-0.3c-0.2-0.1-0.3-0.2-0.4-0.4c-0.1-0.3,0-0.7,0.2-1
	c1-1.9,2.5-2.9,4.3-3.7c1.7-0.7,3.3-1.1,5.1-0.3c0.2,0.1,0.3,0.2,0.5,0.3c0.2,0.3,0.3,0.7,0.2,1.1
	C262.6,148.9,260.2,149.3,258.2,150.5z"/>
<path d="M282,144c-1.2,0-2.2,0.2-3.3,0.4c-0.2-0.2-0.3-0.4-0.5-0.6c-0.1-0.2-0.2-0.4-0.1-0.6c0-0.3,0.4-0.6,0.7-0.8
	c1.8-1.1,3.6-1.2,5.7-0.9c1.8,0.2,3.4,0.8,4.5,2.4c0.1,0.2,0.2,0.3,0.2,0.5c0.1,0.4-0.1,0.7-0.4,1C286.6,145,284.3,144,282,144z"/>
<path d="M282.4,154.7c0.7,1.3,2.3,1.7,3.5,1c1.3-0.7,1.7-2.3,1-3.5c-0.7-1.3-2.3-1.7-3.5-1C282.1,151.8,281.7,153.4,282.4,154.7z"/>
<path d="M260.6,159.5c0.7,1.3,2.1,1.8,3.2,1.2s1.3-2.1,0.6-3.3c-0.7-1.3-2.1-1.8-3.2-1.2C260.2,156.8,259.9,158.3,260.6,159.5z"/>
<path d="M316.7,189.6"/>
<path d="M337.3,131.2"/>
</svg>
