<svg id="Слой_1" data-name="Слой 1" xmlns="http://www.w3.org/2000/svg" viewBox="0 0 359.9 492.06"><defs><style>.cls-1{fill:#ffedcc;}.cls-2{fill:#ffe3ad;}.cls-13,.cls-3,.cls-6,.cls-9{fill:#fff;}.cls-10,.cls-4,.cls-5,.cls-8{fill:none;}.cls-5,.cls-6,.cls-9{stroke:#000;}.cls-10,.cls-5,.cls-8{stroke-miterlimit:10;}.cls-5,.cls-9{stroke-width:4px;}.cls-10,.cls-6{stroke-width:2px;}.cls-7{fill:#47af98;}.cls-8{stroke:#fff;stroke-width:0.83px;}.cls-10{stroke:#3a8c7a;}.cls-11{fill:#b78c38;}.cls-12{fill:#e7b34d;}.cls-13{fill-rule:evenodd;}</style></defs><path class="cls-1" d="M193,119.8c.1,2.8.2,12.4-5.2,15.4-1.5.8-2.5.6-11.6-.2-11.2-1.1-12.6-1-14.9-2.6-3.5-2.4-5.1-5.9-6.1-8.1-1.3-2.9-3.2-6.9-2-10.9,2.2-7.1,13.3-9.6,20.7-9.3,2.6.2,10.5.6,15.5,6.9A20.07,20.07,0,0,1,193,119.8Z" transform="translate(0 -30.47)"/><path class="cls-2" d="M97.92,518.8C152,506,214.11,456.6,208.42,411.1c-5.16-41-74-79.7-144.86-70.5-37.25,4.9-55.24,15.2-63,31.5Q.27,439.75,0,507.3C17.36,515.4,54.34,529.2,97.92,518.8Z" transform="translate(0 -30.47)"/><path class="cls-3" d="M206.16,313.6l-.64-.8,13.84-12.9.54.8Z" transform="translate(0 -30.47)"/><rect class="cls-4" y="80.83" width="359.9" height="407"/><path class="cls-5" d="M206.9,206.2" transform="translate(0 -30.47)"/><path class="cls-1" d="M261.6,71.5c-2.7,2.8-12,12.5-20.4,10.1-.3-.1-.7-.3-1-.4-5.2-2.2-7.9-5.6-10.8-8.9-7.6-8.5-12.3-10.4-11.8-13.4a16.75,16.75,0,0,0,.1-6.4v-.1c-.9-4.6,5.2-11.4,5.2-11.4,5.5-6.2,8.3-9.3,12.4-10.2,8.3-1.9,15.8,4.9,20.4,9.1s11.4,10.3,11.1,19.4A22.08,22.08,0,0,1,261.6,71.5Z" transform="translate(0 -30.47)"/><path class="cls-6" d="M124.57,225.37,196,275.81l-29.22,7.37-61-59.1,10.33-7.64Z" transform="translate(0 -30.47)"/><path d="M118.34,216.71c19.57,4.4,19.94,5.49,19.94,5.49l1.33-8.81,3.3,8.54c1.93,0,8.19-4.64,8.19-4.64-4.19-2.28.92-7,2-14.7,1.61-11.48-2.1-19-1.76-26s4.63-12.77,1.12-20-13.07-5-18.85-5.25c-19.37-9.12-34-.35-37.91,11.32s-13.25,20.24-27.34,24C68.38,186.69,98.76,212.32,118.34,216.71Z" transform="translate(0 -30.47)"/><path d="M151.82,202.79c-1.89,5.9-4.94,9.72-1.18,11.75,0,0-6.87,5.16-9,5.11L138,210.28,136.59,220s-.4-1.18-21-5.85a50.35,50.35,0,0,1,3-7.36,11.42,11.42,0,0,1,2-2.83c1-1,2.27-1.84,3.22-2.94,1.81-2.11,1.49-4.8,2-7.33.43-2.06,2-3.82,3.39-5.38,1.32-1.4,2.73-2.72,3.91-4.23,3.1-3.93,3.94-9,3.48-13.79-.55-6-2.27-5.49-4.14-11.23,0,0,1.55-2.2,1.55-2.23,3.22,1.62,8.11-.6,11.12,1.57,4.55,3.29,4.55,9.42,3.91,11.56-1.52,5.22,2.25,10.08,1.12,25.27C150,197.79,151.33,200.29,151.82,202.79Z" transform="translate(0 -30.47)"/><path class="cls-6" d="M311.29,398.53a49.17,49.17,0,0,0-6.21-2.63c-2.27-.83-4.54-1.54-6.27-2.06l-2.07-.61-.57-.16A.51.51,0,0,0,296,393h0l.18-.52L296,393l-.05,0-.06,0-16.18-8.35-.2-.11-.06-.22L263,341.08,236,340l28,45.52.2.3-.2.3v0a0,0,0,0,0,0,0l0,0a1.64,1.64,0,0,1-.17.3c-.15.28-.35.64-.55,1.08a9.46,9.46,0,0,0-.89,3.18,3.51,3.51,0,0,0,1.09,3c.89.79,2.53,1.43,5.4,1.48,5.9.11,17.36,1.32,27.31,2.53,5,.6,9.6,1.21,13,1.65,1.67.22,3.05.38,4,.52.14,0,.28,0,.4,0l-.17-.16A9.94,9.94,0,0,0,311.29,398.53Z" transform="translate(0 -30.47)"/><path class="cls-7" d="M60.94,389.14s11.47.19,40.61.72,98.5-74.9,98.5-74.9,3.51,2.61,4.31,9,7,4.53,9.06,11.09,4.85,8.16,4.85,8.16l54.56,1a342.19,342.19,0,0,0-33.4-57c-21.7-30.08-39.92-26.78-77.61-8.57s-85.88,49.65-85.88,49.65Z" transform="translate(0 -30.47)"/><path class="cls-7" d="M200.05,315s-69.35,75.43-98.5,74.9-40.61-.71-40.61-.71l15-60.95s48.2-31.45,85.86-49.66c14.68-7.11,26.44-11.92,36.56-13.4C186,282.44,200.05,315,200.05,315Z" transform="translate(0 -30.47)"/><path class="cls-3" d="M197,297.52a5.77,5.77,0,0,0,2.9,3,3.54,3.54,0,0,0,2.73-.19l21.47,33.18L225,333l-22-34-.46.28a2.7,2.7,0,0,1-2.3.36c-1.66-.61-2.5-3-2.53-3l-.23-.63L88.76,366.45l.61.83Z" transform="translate(0 -30.47)"/><path class="cls-7" d="M18.57,326.08A82.88,82.88,0,0,0,3.8,361.79C-1.86,399.22,23.14,408,56.51,408.56l88.87,1.57c24.46.41,60.36-6.82,71.17-29.78s-7.16-44.63-47.34-46.69-79.61,6.92-79.61,6.92l-.69-13.26Z" transform="translate(0 -30.47)"/><path class="cls-7" d="M145.38,410.13c-17.33-.31-38-.69-60.41-1.08,16.24.28,75.33-15.73,92.92-25.1,0,0,7.65,16.56,32.25,5.63C195.28,405.29,166.19,410.48,145.38,410.13Z" transform="translate(0 -30.47)"/><path class="cls-3" d="M202,364l-23.68,20.27-.72-.74,23.68-20.27Z" transform="translate(0 -30.47)"/><path class="cls-3" d="M205.2,385l-26.13,1.34-.06-1L205.14,384Z" transform="translate(0 -30.47)"/><path class="cls-3" d="M184.85,364.78l-1.07,0a30.29,30.29,0,0,1-6.29,17.41l.86.6A31,31,0,0,0,184.85,364.78Z" transform="translate(0 -30.47)"/><path class="cls-3" d="M25.38,372.06l.26-13.52-21.29-.38v1l20.23.35L24.32,372c-.14,7.22-7.41,14.42-15.86,15.71l.17,1C17.57,387.36,25.24,379.72,25.38,372.06Z" transform="translate(0 -30.47)"/><path class="cls-7" d="M89.39,336.46c-7.38.33-24.63,1.62-36,7.17-14.23,6.95-33.74,15.16-46.36,4.89a80.69,80.69,0,0,1,11.52-22.44l70.34,1.24Z" transform="translate(0 -30.47)"/><path class="cls-3" d="M89.65,341.08l-.14-1c-.14,0-15.41,2.25-35.21,17.25l.66.79C74.51,343.3,89.54,341.1,89.65,341.08Z" transform="translate(0 -30.47)"/><path class="cls-3" d="M89.22,332.45l0,1-74.7-1.32,0-1Z" transform="translate(0 -30.47)"/><path class="cls-3" d="M212.12,379.34A22.6,22.6,0,0,0,210.43,361c-4.77-8.74-14.78-15.14-29.81-19-32.53-8.38-100.54,4.86-108.47,6.45.14-1.31-.17-2.25-.92-2.71-1.52-1-4.37.41-5.86,1.23l1.12-18.92L65.42,328l-1.23,20.93.89-.58c1.61-1,4.51-2.41,5.57-1.75.64.38.55,1.54.35,2.44l-.17.77.77-.16c.75-.17,74.56-15.41,108.73-6.62,14.72,3.79,24.49,10,29.12,18.48a21.45,21.45,0,0,1,1.64,17.5c-3.85,10.16-19.37,23.75-50.41,28.7l.17,1C192.32,403.67,208.13,389.75,212.12,379.34Z" transform="translate(0 -30.47)"/><path d="M331.4,408s-32.33.36-52.62,0c-1.61,0-7.73-10-9.2-10-1.24,0,3.1,10.14,1.15,10.52a34.16,34.16,0,0,1-11.32,0c-11-1.23-9.26-37.38-9.26-37.38l27.45-.58c20.18,9.45,28.71,23.08,40.21,23.08S331.49,403.84,331.4,408Z" transform="translate(0 -30.47)"/><path class="cls-3" d="M267.8,335.67l0,1-50.79-.9,0-1Z" transform="translate(0 -30.47)"/><path class="cls-3" d="M205.25,288l-3.76,24.5-1-.14,3.77-24.5Z" transform="translate(0 -30.47)"/><path class="cls-3" d="M199.3,305.18c0-.11-2.44-9.67-1.49-18.9l-1.06-.11a62.57,62.57,0,0,0,1.52,19.23Z" transform="translate(0 -30.47)"/><path class="cls-3" d="M221.26,301l-.69-.77-16,12.88.69.77Z" transform="translate(0 -30.47)"/><path class="cls-8" d="M151.05,272.55l-4.17-11.65" transform="translate(0 -30.47)"/><path class="cls-9" d="M137,161.15a13.47,13.47,0,0,0-3.19-1.43c-.23-.06-.4-.11-.57-.14a15.19,15.19,0,0,1-.4,7.75,13.39,13.39,0,0,1-3.74,5.41,37,37,0,0,1-3.8,2.94l-1,.71a12.46,12.46,0,0,0-3.51,3.35h0a24.53,24.53,0,0,0-1.69,3.82c-.26.63-.43,1.21-.58,1.62l-.14.49a1.06,1.06,0,0,1,0,.14v0h0l-.14.49-.52-.11h-.12s-.17,0-.31-.05-.66-.11-1.15-.17a21.92,21.92,0,0,0-3.48-.16,8.27,8.27,0,0,0-3.31.69,2.67,2.67,0,0,0-.94.79,2,2,0,0,0-.35,1.21h0c0,.11,0,.22,0,.39a6.26,6.26,0,0,0,2.56,4.61,4.87,4.87,0,0,0,1.41.71,3.4,3.4,0,0,0,.43.11.18.18,0,0,0,.11,0h0l.69.08-.23.64c-2.76,7.88-8.82,14.11-14.14,18.37a63.71,63.71,0,0,1-7,4.89c-.71.44-1.32.8-1.81,1.07l22.34,6.62,14.66-19.25.17-.22h.29c7.73.08,11.89-1.65,14.14-3.93s2.7-5.22,2.76-7.86.08-4.83.11-6.37c0-.77,0-1.34,0-1.76v-.6h0v-.19l.14-.14.72-.82c-.69-4.62-1.49-8.85-2.13-12.28-.14-.69-.25-1.35-.37-1.95h0A14,14,0,0,0,137,161.15Z" transform="translate(0 -30.47)"/><path class="cls-3" d="M127.48,207.15,124,211.77c-4.45-1.13-7.62,2.8-13.57,2.61-3.44-.14-5-3.68-5.66-7.12A36.41,36.41,0,0,0,112.45,195S114.89,203.58,127.48,207.15Z" transform="translate(0 -30.47)"/><path d="M136.93,179.38c-2.21-4.8-5-.08-5-.08Z" transform="translate(0 -30.47)"/><path d="M128.94,176.34a2.77,2.77,0,0,0,2.1,0,15.38,15.38,0,0,0,3.11-1.12,4.12,4.12,0,0,0,2.07-1.65.9.9,0,0,0,0-1,1.13,1.13,0,0,0-.32-.19,4.62,4.62,0,0,0-3.71.3,6.52,6.52,0,0,0-3.3,2.66.8.8,0,0,0-.18.69A.48.48,0,0,0,128.94,176.34Z" transform="translate(0 -30.47)"/><path d="M143.06,190.62c-.12.08-.15.36-.21.49a4.53,4.53,0,0,1-.31.5,2.17,2.17,0,0,1-.58.68,3.18,3.18,0,0,1-1.92.61,3.65,3.65,0,0,1-2.22-.77c-.51-.41-1.32-1-1.4-1.73a.21.21,0,0,1,.37-.14,7.08,7.08,0,0,0,1.61,1.37,3,3,0,0,0,2,.5,2.11,2.11,0,0,0,1.7-1.15c.2-.33.23-.72.6-.94S143.49,190.37,143.06,190.62Z" transform="translate(0 -30.47)"/><path class="cls-3" d="M135.21,184.25c2.76,1.75-.81,4.25-2.7,4.56s-3.85.19-5.09-1.08a2,2,0,0,1-.55-.9,2.2,2.2,0,0,1,1.33-2.12C129.72,183.83,133.6,183.23,135.21,184.25Z" transform="translate(0 -30.47)"/><path class="cls-9" d="M108.48,190.62a5.22,5.22,0,0,0,3.59,3.24A6.15,6.15,0,0,0,117,193a3.81,3.81,0,0,0,1.12-1.15,3.89,3.89,0,0,0,.26-2.53,7.79,7.79,0,0,0-1.07-2.61h0A4.3,4.3,0,0,0,115,185a6.21,6.21,0,0,0-3-.16,5.08,5.08,0,0,0-2.42,1.26h0A4.44,4.44,0,0,0,108.48,190.62Z" transform="translate(0 -30.47)"/><path class="cls-3" d="M118.94,189.33c-1.38,2.08-4,3.43-6.44,1.87a2.45,2.45,0,0,1-.26-3.82,4.27,4.27,0,0,1,3.6-.85,7.5,7.5,0,0,1,2.44.74A7.32,7.32,0,0,1,118.94,189.33Z" transform="translate(0 -30.47)"/><path d="M112.93,187c-.05.11-.14.2-.28.14s-.89.44-1.07.58a2.9,2.9,0,0,0-.72,1.84.1.1,0,0,1-.2,0,2.19,2.19,0,0,1,.69-2.25c.32-.22,1.15-.85,1.53-.52a.37.37,0,0,1,.05.17v0Z" transform="translate(0 -30.47)"/><path d="M114.77,191.74c-.11.09-.31,0-.31-.11a1.3,1.3,0,0,1,.11-.49,2.27,2.27,0,0,0-.17-1.15,2.87,2.87,0,0,0-.86-1.32c-.12-.08,0-.3.11-.22a2.22,2.22,0,0,1,1.21,1.37C115.06,190.43,115.38,191.25,114.77,191.74Z" transform="translate(0 -30.47)"/><path class="cls-6" d="M74.3,216.11c-4.77,3.11-8.76,9-16.67,20.95a315.26,315.26,0,0,0-17.5,30c-5.2,10.19-10.75,22-15,31.23-2.13,4.64-3.94,8.63-5.21,11.46-.63,1.42-1.12,2.55-1.46,3.32-.17.38-.32.69-.4.88s-.06.16-.09.22l0,.05v0l-.52-.22.52.22-.06.16-.14.09a13.6,13.6,0,0,0-4.8,4.58,4.23,4.23,0,0,0-.37,4,6.36,6.36,0,0,0,3.65,3A21.73,21.73,0,0,0,24,327.43c3.77.05,9.89.16,16.93.3,17.88.33,41.71.74,48.12.85a9.63,9.63,0,0,0,4.51-.71,3.14,3.14,0,0,0,1.58-2,11.89,11.89,0,0,0,.26-3.38c0-.33,0-.37,0-.74h0c0-.27,0-3.29,0-3.63.18-2.21,11.07-10.88,14.5-14.54,2.91-3.09,3.72-6.05,5.88-18.59,4.82-28.08,7.24-42.38,4.93-55.4a100.23,100.23,0,0,0-4.09-15.6C91.06,206.29,78,213.72,74.3,216.11Z" transform="translate(0 -30.47)"/><path class="cls-10" d="M31,318.2s48.78-22.85,49.49-23.29" transform="translate(0 -30.47)"/><path class="cls-10" d="M67.32,311.85,43.52,320" transform="translate(0 -30.47)"/><path d="M72.09,185.65c-8.65,2.47-19.28,6.81-19.28,6.81l7.78,14.2,10.9-3.52L65,210.45l13.43,9.78c5.11-6,20.49-8.11,32.47-.22,9.55,6.29,20.18,6.62,23.4,4.61-7.27-5.08-6.55-9.25-9.34-14.17A56.92,56.92,0,0,0,112.45,195S80.74,183.15,72.09,185.65Z" transform="translate(0 -30.47)"/><path class="cls-11" d="M187.38,230.42,156.13,217l10.21-47.63,32.94,11.76" transform="translate(0 -30.47)"/><path class="cls-12" d="M159,178,148.6,228.52l38.78,1.9,11.9-49.25Z" transform="translate(0 -30.47)"/><path class="cls-3" d="M166.28,178.53l2.44-4.58L193,180.68" transform="translate(0 -30.47)"/><path class="cls-13" d="M186.37,230.42s18.94-17.83,15.12-21.67c-1-1-2.27-.5-3.56.52,1.43-2.28,2.27-4.62.89-5.88s-2.73-.58-4.14.55a22.45,22.45,0,0,0,1.15-2.09,10.33,10.33,0,0,0,.34-8.54c-1.23-2.69-4.54-4.59-7.47-3.71-1.29.39-2.53,1.57-2.24,2.83a3.56,3.56,0,0,0,1.41,1.81,9.08,9.08,0,0,1,.89.86,4.19,4.19,0,0,1,.8,3.7,8.47,8.47,0,0,1-1.87,3.46,9.06,9.06,0,0,1-3.5,2.72,4.45,4.45,0,0,1-4.11-.44c.28-2.83,1.32-14.36-1.9-15s-6.84,16.4-7.56,20l-.09.05-34.31,42.71c-.35-.66-21.27-31.75-39.55-35.92-8.34-1.9-29.09,35.29-14.06,41.17C87.93,259.67,95.83,269,103.45,278c1.9,2.25,3.79,4.48,5.6,6.57,8.6,9.83,19,16.26,30,15C158.43,297.27,186.37,230.42,186.37,230.42Z" transform="translate(0 -30.47)"/><path d="M187.09,195.07a9.94,9.94,0,0,1,.78.71l1.78-1.4a8.78,8.78,0,0,0-1-1l-1.55,1.65,1.52-1.65c-.69-.58-1-.88-1-1.21a1,1,0,0,1,.29-.82,2.46,2.46,0,0,1,1.17-.74c2.22-.68,4.92.76,6,3a10.35,10.35,0,0,1,.08,6.83c-.12.3-.24.6-.38.89l.05,0v0l0,0a21.19,21.19,0,0,1-1.08,2h0v0l.12.07,0,0a29.06,29.06,0,0,1-4.09,5.54l.87.88a32.1,32.1,0,0,0,4.17-5.65l.44.37.16.17a3.85,3.85,0,0,1,1.64-.88,1,1,0,0,1,1,.3l-.2.2a1.63,1.63,0,0,1,.51,1.17c0,.06,0,.11,0,.17a9.56,9.56,0,0,1-1.34,2.95h0v0l.12.07.13.11a35.7,35.7,0,0,1-5.37,6.66l.89.88a48.47,48.47,0,0,0,3.42-3.82,27.37,27.37,0,0,0,2-2.93l.32.26.15.17a3.24,3.24,0,0,1,1.4-.77.57.57,0,0,1,.58.16l1.69-1.51a2.77,2.77,0,0,0-2-.88,6.46,6.46,0,0,0,.26-.93,3.59,3.59,0,0,0-.93-3.55v0a3.33,3.33,0,0,0-2.47-.92,11.07,11.07,0,0,0,.09-8.83h0c-1.39-3.07-5.23-5.42-8.85-4.32a5,5,0,0,0-2.24,1.43,3.1,3.1,0,0,0-.77,2.66A4.72,4.72,0,0,0,187.09,195.07Zm8.87,6.86-.06,0v0l.09,0Z" transform="translate(0 -30.47)"/><path d="M96.41,217.53c4.31,1,8.88,3.6,13.36,7.06a99.59,99.59,0,0,1,12.51,11.87c3.76,4.15,6.95,8.21,9.22,11.26,1.15,1.54,2,2.8,2.67,3.71l.75,1.07a3.94,3.94,0,0,1,.26.38l1-.52-1,.52.83,1.54,1.1-1.37-.92-.69h0l.89.66,34.19-42.49.35-.19.09-.5-1.12-.22.11.19,0,0-.11-.2,1.15.23c.37-1.82,1.44-6.92,2.82-11.51a34.75,34.75,0,0,1,2.21-5.88,5.88,5.88,0,0,1,1-1.54,1.37,1.37,0,0,1,.24-.19.62.62,0,0,1,.22.22,4.25,4.25,0,0,1,.51,1.15,18.19,18.19,0,0,1,.52,4.21,63.43,63.43,0,0,1-.37,8.18l1.15.11-.61.91a5.67,5.67,0,0,0,5.18.52h0a10.14,10.14,0,0,0,3.93-3.05h0a9.59,9.59,0,0,0,2.07-3.9l-.46-.1.49.1a5.39,5.39,0,0,0-1-4.64l-1.78,1.4a3.29,3.29,0,0,1,.57,2.78h0a7.62,7.62,0,0,1-1.62,3h0a7.71,7.71,0,0,1-3,2.39v0a3.22,3.22,0,0,1-2.44-.06,64.32,64.32,0,0,0,.3-7.72,21.63,21.63,0,0,0-.6-4.72,6.45,6.45,0,0,0-.84-1.84,3,3,0,0,0-1.72-1.16l-.46,2.17.43-2.17a2.66,2.66,0,0,0-2.3.85,9,9,0,0,0-1.44,2.09,38.54,38.54,0,0,0-2.35,6.24c-1.35,4.45-2.4,9.41-2.8,11.43L136.3,250.43l-.17-.24c-.66-.93-1.58-2.22-2.73-3.76-2.3-3.08-5.55-7.2-9.37-11.4a103,103,0,0,0-12.79-12.14c-4.6-3.54-9.49-6.4-14.29-7.5Zm74-8,.08.05v0l-.11-.09Z" transform="translate(0 -30.47)"/><polygon points="178.93 173.99 178.87 174.65 179.47 175 180.08 174.1 178.93 173.99"/><path d="M109.94,283.89l-1.78,1.4c8.68,9.95,19.43,16.73,31,15.36l-.29-2.17C128.48,299.71,118.42,293.64,109.94,283.89Z" transform="translate(0 -30.47)"/><path d="M202.29,208.06l-1.66,1.51c.11.14.26.41.14,1.1a9.45,9.45,0,0,1-1.06,2.64,46.37,46.37,0,0,1-5.26,7.08c-2.1,2.45-4.34,4.78-6,6.48l-2.07,2.06a7.17,7.17,0,0,0-.57.58l-.15.14,0,0c-.05,0-.05,0,.71.73l-.76-.75-.18.16-.07.2h0a0,0,0,0,1,0,0,.48.48,0,0,1-.06.14c-.06.14-.14.3-.23.55-.2.49-.51,1.21-.92,2.11-.8,1.82-1.95,4.45-3.42,7.58-2.9,6.29-7,14.7-11.67,23.16a165,165,0,0,1-15.26,23.48,50.23,50.23,0,0,1-7.79,8,14.78,14.78,0,0,1-7,3.37l.26,2.26a17,17,0,0,0,8.19-3.88,53,53,0,0,0,8.16-8.32c5.41-6.67,10.75-15.3,15.46-23.81s8.83-17,11.76-23.29c1.47-3.16,2.64-5.8,3.45-7.64.4-.9.72-1.65.92-2.14.08-.18.13-.33.18-.45l.08-.07.6-.58c.52-.49,1.24-1.21,2.1-2.09,1.72-1.73,4-4.12,6.15-6.59a47.4,47.4,0,0,0,5.52-7.44A11.89,11.89,0,0,0,203,211,3.23,3.23,0,0,0,202.29,208.06Z" transform="translate(0 -30.47)"/><path d="M104.35,277.37h0c-3.8-4.51-7.7-9.12-11.33-12.89a60.47,60.47,0,0,0-5.23-4.91,18.06,18.06,0,0,0-4.74-3l-.43,1-.43,1a16.94,16.94,0,0,1,4.11,2.61,61.49,61.49,0,0,1,5,4.73c3.56,3.67,7.41,8.23,11.23,12.76h0c1.9,2.25,3.79,4.48,5.6,6.56l1.76-1.4C108.11,281.81,106.24,279.62,104.35,277.37Z" transform="translate(0 -30.47)"/><path d="M83.07,256.56c-3.13-1.23-4.57-4.12-4.6-8.18s1.35-9.06,3.48-13.87a52.13,52.13,0,0,1,7.79-12.58,19.23,19.23,0,0,1,4-3.6,3.67,3.67,0,0,1,2.7-.82l.54-2.14a6,6,0,0,0-4.51,1.12,20.9,20.9,0,0,0-4.45,4,54.48,54.48,0,0,0-8.14,13.13c-2.21,5-3.71,10.27-3.68,14.75s1.67,8.48,6,10.19Z" transform="translate(0 -30.47)"/><path d="M134.69,299.71a27.4,27.4,0,0,1,.38-3.95c.48-2.94,1.35-4.42,2.67-4.53a2.06,2.06,0,0,1,1.46.49c1.9,1.57,2.3,6.81,2.36,7.42l-1.29.08c-.15-2.06-.81-5.63-1.93-6.57a.72.72,0,0,0-.52-.19c-1,.06-1.78,3.9-1.86,7.28Z" transform="translate(0 -30.47)"/><path d="M146.36,185.51a3.36,3.36,0,0,1-2.67,1.29c-.52.06-.52-.71,0-.77a2.83,2.83,0,0,0,1.95-.74c.35-.47.15-1.18.06-1.7a27.17,27.17,0,0,0-.57-2.91c-.23-.86-.44-1.76-.58-2.61a14.53,14.53,0,0,1-.52-3c0-.25.35-.25.41,0,.28,1.26.51,2.55.89,3.79s.49,2.28.83,3.41a9.38,9.38,0,0,1,.37,2A1.73,1.73,0,0,1,146.36,185.51Z" transform="translate(0 -30.47)"/></svg>