<?xml version="1.0" standalone="no"?>
<!DOCTYPE svg PUBLIC "-//W3C//DTD SVG 20010904//EN"
 "http://www.w3.org/TR/2001/REC-SVG-20010904/DTD/svg10.dtd">
<svg version="1.0" xmlns="http://www.w3.org/2000/svg"
 width="1200.000000pt" height="1200.000000pt" viewBox="0 0 1200.000000 1200.000000"
 preserveAspectRatio="xMidYMid meet">
<metadata>
Created by potrace 1.14, written by Peter Selinger 2001-2017
</metadata>
<g transform="translate(0.000000,1200.000000) scale(0.100000,-0.100000)"
fill="#000000" stroke="none">
<path d="M3368 10645 c-2 -2 -30 -6 -63 -9 -33 -4 -78 -12 -100 -18 -22 -5
-47 -11 -55 -13 -8 -2 -37 -13 -63 -24 -27 -12 -55 -21 -63 -21 -8 0 -14 -4
-14 -9 0 -5 -9 -12 -20 -16 -67 -21 -202 -145 -260 -240 -55 -89 -180 -277
-206 -310 -14 -16 -28 -35 -32 -40 -11 -16 -78 -98 -98 -121 -11 -12 -32 -39
-49 -60 -16 -20 -35 -42 -40 -48 -6 -6 -57 -67 -114 -136 -57 -69 -118 -143
-137 -165 -19 -22 -38 -44 -42 -50 -39 -52 -78 -101 -82 -105 -3 -3 -21 -25
-40 -50 -19 -25 -37 -47 -40 -50 -9 -9 -65 -84 -82 -110 -9 -14 -24 -34 -35
-45 -10 -11 -22 -29 -26 -39 -11 -28 -29 -6 -30 36 0 34 12 189 18 217 4 20
16 131 21 191 2 25 7 77 11 115 14 149 7 498 -12 615 -3 19 -6 48 -7 63 -1 15
-5 30 -10 33 -4 3 -6 10 -2 15 7 12 -56 137 -74 144 -24 9 -112 -49 -112 -74
0 -6 -4 -11 -9 -11 -5 0 -19 -19 -31 -42 -101 -193 -129 -248 -123 -248 3 0 1
-6 -4 -12 -27 -34 -91 -252 -100 -338 -17 -166 -8 -334 26 -482 21 -91 113
-318 133 -326 4 -2 8 -12 8 -23 0 -10 3 -19 8 -19 4 0 22 -26 39 -57 39 -71
39 -125 1 -203 -42 -87 -88 -189 -88 -193 0 -3 -20 -47 -44 -98 -67 -143 -90
-194 -91 -199 -2 -8 -38 -86 -80 -175 -21 -44 -39 -84 -41 -90 -4 -16 -92
-204 -121 -260 -15 -27 -31 -60 -37 -72 -11 -22 -25 -31 -27 -15 0 4 -2 34 -4
67 -6 125 -16 281 -20 315 -2 19 -7 66 -10 104 -5 66 -9 98 -20 196 -8 61 -23
105 -57 165 -16 27 -36 65 -44 83 -8 17 -18 32 -22 32 -14 0 -212 -178 -210
-188 1 -4 -3 -16 -9 -27 -6 -11 -11 -22 -11 -25 0 -3 -5 -23 -11 -45 -6 -22
-10 -42 -10 -45 0 -3 -4 -18 -10 -33 -30 -79 -33 -313 -6 -452 12 -61 67 -212
97 -265 17 -30 36 -65 42 -77 6 -13 14 -23 19 -23 4 0 7 -5 7 -11 0 -10 60
-88 98 -128 35 -36 67 -101 77 -156 11 -61 12 -77 1 -270 -23 -435 -23 -644
-1 -815 3 -19 7 -55 10 -80 3 -25 7 -61 10 -80 2 -19 7 -51 11 -70 3 -19 8
-48 9 -65 8 -84 16 -139 21 -146 3 -5 2 -9 -2 -9 -7 0 -31 26 -67 73 -12 15
-29 36 -37 47 -8 10 -22 28 -30 40 -8 12 -22 30 -30 40 -8 10 -31 38 -50 61
-87 108 -193 201 -364 319 -36 25 -65 48 -66 53 0 4 -5 7 -11 7 -5 0 -27 14
-48 30 -39 32 -54 37 -112 40 -72 4 -69 7 -69 -75 0 -47 6 -90 16 -113 9 -20
17 -44 19 -53 11 -53 135 -274 201 -360 37 -48 201 -205 245 -234 24 -16 50
-36 57 -42 7 -7 20 -13 28 -13 8 0 14 -3 14 -8 0 -12 190 -104 275 -133 102
-34 159 -88 212 -199 20 -41 60 -127 90 -190 67 -139 77 -163 75 -172 -1 -5 3
-8 8 -8 6 0 10 -4 10 -9 0 -8 41 -97 157 -341 25 -52 57 -120 70 -150 14 -30
49 -106 79 -167 l53 -113 -42 24 c-23 13 -102 58 -175 99 -170 97 -316 166
-362 172 -3 0 -9 3 -15 6 -27 16 -166 40 -240 41 -64 1 -73 -1 -89 -18 -18
-17 -22 -79 -6 -89 6 -3 10 -14 10 -24 0 -19 21 -71 43 -106 6 -11 27 -44 45
-73 38 -63 41 -66 107 -135 93 -97 151 -138 290 -205 167 -81 296 -107 520
-104 145 1 194 -6 220 -33 6 -5 35 -39 65 -75 30 -36 60 -69 66 -75 6 -5 33
-37 60 -70 27 -33 51 -62 54 -65 11 -11 77 -88 115 -134 22 -27 48 -58 57 -69
10 -11 18 -25 18 -30 0 -6 3 -8 6 -4 4 3 25 -17 47 -46 23 -29 51 -63 63 -77
12 -14 41 -48 65 -76 24 -28 67 -77 95 -110 28 -32 75 -87 104 -121 l52 -63
-64 5 c-34 2 -94 7 -133 10 -38 3 -97 8 -130 11 -33 4 -80 8 -105 9 -25 2 -81
6 -125 11 -153 14 -296 11 -338 -8 l-38 -18 18 -31 c45 -78 152 -159 318 -243
55 -28 105 -52 110 -53 6 -1 35 -11 65 -22 47 -16 96 -30 115 -32 2 0 19 -5
37 -10 93 -26 352 -29 468 -4 14 3 39 8 55 11 17 3 50 10 74 15 94 21 176 -4
314 -94 92 -60 229 -141 239 -142 3 0 10 -3 14 -8 13 -12 207 -103 229 -107 6
-1 24 -10 40 -19 17 -10 55 -26 85 -36 30 -10 59 -21 65 -26 5 -5 19 -9 30 -9
12 0 25 -3 29 -7 3 -4 12 -8 19 -9 7 -1 48 -13 92 -28 44 -14 95 -28 114 -31
19 -3 39 -9 45 -13 6 -3 22 -8 36 -9 14 -2 45 -8 70 -13 25 -6 56 -13 70 -16
14 -3 52 -8 85 -11 71 -6 65 4 -20 37 -33 12 -74 29 -92 36 -17 8 -35 14 -40
14 -7 0 -114 39 -178 65 -11 4 -24 9 -30 11 -5 1 -51 18 -102 37 -129 49 -170
94 -187 210 -23 150 -137 380 -270 542 -120 147 -273 294 -323 309 -11 4 -27
13 -33 21 -26 31 -32 15 -25 -67 9 -129 16 -163 55 -279 32 -96 80 -204 119
-264 14 -22 26 -42 26 -45 1 -6 36 -60 50 -77 27 -33 31 -39 38 -55 7 -19 -16
-48 -37 -48 -7 0 -25 11 -40 25 -15 14 -30 25 -34 25 -4 0 -21 13 -39 28 -18
15 -54 43 -80 62 -67 49 -72 53 -94 72 -10 10 -21 18 -24 18 -3 0 -27 17 -53
38 -27 20 -59 45 -73 55 -56 40 -216 160 -241 180 -15 12 -39 31 -55 42 -64
47 -102 88 -123 136 -22 53 -25 68 -35 224 -7 108 -13 162 -21 195 -4 14 -8
36 -10 50 -5 38 -52 197 -81 275 -70 188 -139 298 -272 434 l-72 74 -25 -25
c-25 -24 -26 -31 -27 -144 -1 -66 2 -139 6 -164 14 -81 28 -154 37 -185 40
-134 53 -173 60 -190 11 -26 20 -55 18 -58 -1 -1 4 -12 11 -24 6 -13 8 -23 3
-23 -17 0 -41 27 -92 105 -30 44 -57 82 -62 83 -4 2 -8 8 -8 14 0 11 -61 101
-72 106 -5 2 -8 10 -8 18 0 8 -3 14 -8 14 -4 0 -12 9 -17 20 -6 11 -65 101
-132 200 -68 99 -123 184 -123 189 0 5 -4 11 -8 13 -5 2 -37 46 -72 98 -35 52
-67 97 -72 98 -4 2 -8 7 -8 12 0 5 -38 64 -84 132 -91 134 -118 182 -109 191
3 4 7 20 9 37 3 25 33 90 73 155 3 6 6 12 7 15 0 3 7 19 14 35 7 17 14 32 15
35 1 3 6 16 12 30 14 32 50 164 59 210 19 107 22 162 18 325 -2 99 -5 191 -8
205 -2 14 -7 45 -11 70 -3 25 -11 65 -17 90 -5 25 -11 54 -14 65 -17 84 -29
127 -48 165 -17 36 -27 46 -50 48 -39 5 -65 -23 -117 -126 -24 -48 -48 -90
-54 -94 -5 -4 -6 -8 -2 -8 5 0 1 -12 -7 -27 -19 -35 -61 -165 -58 -177 2 -5 0
-16 -4 -25 -4 -9 -8 -25 -9 -36 -4 -37 -21 -385 -24 -502 -1 -49 -16 -40 -41
24 -13 32 -29 72 -36 88 -39 94 -126 338 -138 390 -2 6 -8 28 -14 50 -6 22
-12 42 -12 45 -1 3 -6 23 -11 45 -29 113 -55 226 -63 276 -3 19 -7 43 -10 54
-2 11 -7 43 -10 70 -4 28 -9 62 -12 78 -23 139 -7 185 81 243 74 47 285 258
285 283 0 5 4 11 8 13 16 6 78 106 132 213 72 143 96 203 135 340 9 33 20 71
24 85 8 27 13 239 6 251 -6 9 -62 -20 -121 -64 -48 -35 -74 -62 -134 -142 -17
-22 -36 -47 -43 -55 -7 -8 -30 -40 -52 -70 -21 -30 -42 -57 -45 -60 -3 -3 -17
-21 -30 -40 -13 -19 -29 -40 -35 -47 -5 -6 -35 -45 -65 -87 -30 -42 -58 -76
-62 -76 -4 0 -8 -5 -8 -11 0 -9 -71 -109 -102 -144 -8 -9 -5 59 7 175 3 25 8
74 11 108 3 35 7 73 10 85 2 12 6 37 9 57 3 20 8 47 10 60 3 14 8 41 11 60 3
19 10 53 16 74 5 22 11 49 13 60 1 12 5 28 8 36 5 14 25 94 32 130 6 29 106
325 120 357 8 17 15 33 15 36 0 2 7 21 15 41 8 20 15 38 16 41 0 2 13 28 28
57 42 77 59 87 176 102 72 9 305 83 317 101 4 5 8 7 8 3 0 -9 97 39 105 52 3
6 15 10 26 10 10 0 19 4 19 8 0 5 11 14 25 20 14 7 31 16 38 22 7 5 57 45 112
89 135 107 236 208 348 347 31 39 57 74 57 77 0 3 5 18 12 34 19 48 18 60 -5
70 -37 17 -97 7 -172 -27 -39 -18 -115 -52 -170 -77 -55 -25 -142 -65 -193
-89 -51 -24 -95 -43 -97 -43 -16 -1 -272 -147 -298 -170 -18 -15 -20 -14 -38
8 -19 23 -19 23 13 67 17 24 38 51 47 61 9 10 27 34 41 53 13 19 27 37 30 40
3 3 48 61 100 130 111 148 110 146 133 171 9 10 14 19 10 19 -5 0 -3 4 3 8 5
4 39 45 74 92 62 82 74 97 113 142 9 12 17 24 17 28 0 3 8 15 18 26 9 10 37
46 62 79 25 33 48 62 53 63 4 2 7 9 7 16 0 6 9 18 20 26 11 8 20 20 20 26 0
14 112 130 160 166 54 40 320 193 468 270 138 71 178 94 200 115 7 7 17 13 21
13 13 0 131 121 170 175 55 74 100 152 94 159 -4 3 -1 6 5 6 7 0 12 4 12 9 0
5 20 52 45 104 25 53 45 102 45 110 0 7 3 17 8 21 4 4 7 11 8 14 0 4 4 15 7
25 19 49 21 48 -58 46 -41 -1 -76 -3 -77 -4z"/>
<path d="M8500 10623 c37 -121 112 -283 176 -381 21 -31 40 -59 43 -62 3 -3
24 -27 46 -55 53 -66 95 -106 183 -177 102 -81 185 -128 347 -196 150 -64 194
-86 234 -117 51 -39 138 -133 166 -177 15 -24 136 -183 198 -260 20 -25 37
-49 37 -52 0 -5 16 -26 55 -70 6 -6 21 -27 35 -46 13 -19 28 -39 32 -45 11
-14 89 -117 113 -151 11 -15 25 -32 30 -38 6 -6 21 -28 35 -48 14 -21 28 -38
33 -38 4 0 7 -4 7 -10 0 -9 6 -18 53 -72 9 -12 17 -24 17 -27 0 -3 11 -19 25
-34 14 -15 23 -27 18 -27 -4 0 1 -6 10 -12 19 -15 117 -176 117 -192 0 -7 -3
-8 -8 -1 -4 6 -32 23 -62 39 -30 16 -100 56 -155 89 -155 92 -239 135 -358
183 -61 25 -118 46 -126 48 -9 2 -23 6 -31 9 -8 3 -28 9 -45 13 -16 4 -34 8
-40 10 -33 8 -77 15 -123 20 -52 6 -53 5 -40 -15 7 -12 16 -21 20 -21 5 0 8
-6 8 -14 0 -8 3 -16 8 -18 4 -1 32 -39 61 -83 105 -154 231 -297 326 -371 68
-53 175 -124 175 -117 0 3 8 -1 18 -9 21 -18 132 -71 150 -71 6 0 12 -4 12 -7
0 -4 15 -11 33 -15 17 -4 37 -9 42 -11 6 -2 46 -13 90 -24 44 -12 98 -27 120
-33 22 -7 43 -13 48 -13 4 -1 8 -2 10 -4 1 -1 10 -3 19 -5 26 -5 75 -43 101
-78 13 -18 38 -72 56 -122 18 -49 38 -103 44 -120 6 -16 13 -34 14 -40 1 -5
18 -57 36 -115 41 -125 65 -206 71 -240 2 -14 13 -61 24 -105 11 -44 23 -97
26 -119 4 -21 8 -41 10 -45 2 -3 7 -33 11 -66 3 -33 8 -69 11 -80 2 -11 6 -40
9 -65 2 -25 6 -67 9 -95 11 -104 15 -205 8 -205 -16 0 -30 17 -52 60 -12 25
-74 112 -136 193 -63 81 -114 150 -114 154 0 3 -8 13 -18 22 -9 9 -28 33 -42
53 -14 21 -28 38 -32 38 -5 0 -8 7 -8 15 0 8 -3 15 -7 15 -5 0 -24 23 -43 52
-19 28 -47 65 -62 82 -16 17 -28 35 -28 41 0 6 -9 17 -20 25 -11 8 -20 19 -20
25 0 27 -112 72 -128 51 -18 -22 -29 -71 -22 -91 4 -12 10 -36 13 -55 7 -40
15 -75 17 -75 1 0 3 -9 4 -20 4 -30 34 -131 62 -210 14 -38 27 -74 28 -80 18
-68 153 -314 177 -323 5 -2 9 -10 9 -18 0 -7 9 -19 20 -26 11 -7 20 -17 20
-21 0 -24 153 -170 258 -247 33 -24 66 -55 74 -69 7 -14 17 -29 22 -33 12 -8
11 -121 -2 -155 -5 -15 -31 -107 -57 -203 -26 -96 -50 -182 -53 -190 -3 -8 -6
-20 -7 -25 -2 -6 -17 -61 -34 -123 -18 -61 -34 -120 -36 -129 -2 -10 -8 -33
-14 -51 -5 -18 -10 -33 -10 -35 0 -1 -2 -9 -4 -17 -3 -8 -24 -85 -47 -170 -43
-158 -65 -214 -79 -206 -4 3 -6 22 -4 43 2 21 6 115 8 208 4 162 -4 242 -38
390 -24 103 -119 295 -174 352 -66 67 -120 43 -139 -64 -1 -6 -7 -35 -14 -65
-6 -29 -14 -64 -16 -78 -3 -14 -9 -50 -15 -80 -28 -153 -42 -444 -25 -545 4
-22 7 -47 7 -55 1 -8 6 -33 11 -55 6 -22 12 -50 14 -63 3 -13 12 -44 21 -70 8
-26 16 -51 18 -57 5 -22 46 -112 90 -195 31 -60 34 -69 37 -117 1 -35 -47
-138 -82 -173 -11 -11 -20 -26 -20 -34 0 -8 -4 -16 -8 -18 -4 -1 -84 -118
-177 -258 -93 -140 -172 -257 -177 -258 -4 -2 -8 -8 -8 -14 0 -6 -11 -26 -25
-44 -14 -18 -25 -37 -25 -43 0 -6 -4 -11 -10 -11 -5 0 -10 -7 -10 -15 0 -8 -4
-15 -9 -15 -5 0 -12 -8 -15 -18 -4 -10 -14 -27 -24 -38 -9 -11 -26 -35 -36
-54 -11 -19 -22 -37 -25 -40 -4 -3 -33 -45 -66 -95 -66 -101 -126 -178 -132
-171 -2 2 1 24 7 47 7 24 14 52 15 61 2 10 6 22 9 26 3 5 7 19 11 33 49 215
55 254 58 359 4 109 -16 270 -31 270 -18 -1 -182 -150 -182 -165 0 -4 -6 -13
-12 -20 -30 -33 -37 -46 -85 -140 -44 -89 -71 -150 -78 -180 -2 -5 -14 -43
-28 -82 -14 -40 -24 -73 -21 -73 3 0 0 -8 -5 -17 -9 -18 -13 -36 -35 -176 -13
-81 -16 -110 -21 -209 -8 -163 -9 -166 -75 -228 -182 -172 -357 -310 -565
-445 -193 -125 -232 -147 -239 -137 -2 4 4 25 14 47 11 22 19 47 20 56 0 8 4
19 8 25 10 11 65 161 62 170 -1 4 2 10 7 13 4 3 14 24 22 46 7 22 19 54 26 70
40 94 84 215 89 245 3 19 1 52 -5 73 -9 33 -13 37 -32 31 -61 -18 -90 -39
-179 -130 -87 -89 -113 -117 -176 -189 -34 -38 -92 -123 -92 -133 0 -6 -4 -12
-9 -14 -8 -3 -93 -172 -97 -193 -1 -5 -10 -30 -19 -55 -9 -25 -19 -58 -22 -75
-9 -56 -45 -150 -68 -181 -41 -53 -113 -92 -250 -135 -71 -22 -163 -52 -204
-66 -41 -14 -79 -26 -85 -27 -22 -4 -121 -39 -128 -45 -4 -3 -3 -13 2 -20 7
-12 21 -13 97 -1 48 8 93 15 98 16 137 28 231 52 362 92 45 14 202 72 238 87
17 8 53 23 80 35 119 52 337 168 343 182 2 4 8 8 13 8 6 0 49 26 97 58 143 95
213 113 341 86 36 -8 80 -16 96 -19 17 -2 41 -7 55 -10 35 -8 222 -9 300 -1
67 6 132 21 255 57 83 25 295 127 295 142 0 6 3 8 6 4 14 -13 137 90 182 152
30 43 31 47 15 59 -50 37 -167 53 -283 39 -30 -4 -82 -9 -115 -13 -33 -3 -71
-8 -85 -10 -40 -7 -142 -17 -177 -18 -18 -1 -33 -3 -33 -6 0 -3 -24 -6 -53 -8
-81 -4 -124 -9 -136 -16 -16 -10 -33 3 -24 18 8 13 78 98 118 142 11 12 36 41
55 64 19 24 52 61 72 84 21 23 40 49 43 59 4 9 12 17 19 17 6 0 19 12 28 27 9
16 34 47 55 70 60 67 83 94 83 100 0 3 8 13 18 22 10 9 47 52 82 96 36 43 72
86 80 95 8 9 26 30 40 46 13 16 49 58 79 94 104 122 103 122 331 125 155 2
198 6 265 24 227 62 388 152 517 290 60 64 148 189 148 210 0 6 5 11 10 11 6
0 9 3 8 8 -1 4 6 25 15 46 10 22 20 50 23 63 7 27 -3 93 -14 91 -4 -1 -15 2
-24 6 -28 12 -180 -3 -230 -23 -16 -6 -28 -9 -28 -6 0 15 -210 -74 -325 -138
-22 -13 -95 -54 -163 -91 -67 -38 -125 -66 -129 -63 -7 8 12 55 92 222 37 77
91 190 120 250 29 61 74 155 100 210 27 55 48 103 47 107 -1 5 3 8 9 8 5 0 8
4 4 9 -3 5 0 15 7 23 7 7 15 22 16 33 2 11 7 22 10 25 7 5 55 102 54 107 -1 1
21 48 49 103 27 55 49 103 49 106 0 20 97 93 151 113 185 70 351 165 473 271
86 74 233 250 260 310 6 14 14 27 18 30 10 8 78 153 78 167 0 7 5 13 12 13 6
0 9 3 6 6 -3 3 5 32 18 64 28 70 32 151 8 174 -8 9 -19 14 -22 12 -4 -2 -28
-7 -54 -10 -67 -9 -191 -58 -218 -86 -3 -3 -18 -14 -33 -23 -16 -10 -38 -26
-49 -35 -33 -27 -149 -142 -143 -142 3 0 -8 -15 -24 -32 -28 -31 -86 -103
-156 -192 -72 -92 -138 -171 -146 -174 -8 -3 -7 9 6 68 5 25 14 75 20 120 2
14 4 25 5 25 1 0 4 18 5 40 2 22 4 40 5 40 0 0 3 25 6 55 2 30 7 78 10 105 16
153 20 735 4 735 -3 0 -6 8 -7 18 -1 23 -10 107 -17 162 -27 199 -26 203 53
280 117 116 189 238 237 405 8 28 18 57 21 65 3 8 7 20 7 25 3 18 18 99 23
120 3 11 6 90 8 175 2 127 -1 168 -16 225 -11 39 -20 75 -22 80 -7 26 -68 124
-103 163 -39 45 -109 92 -137 92 -23 0 -72 -45 -90 -83 -20 -42 -29 -96 -42
-252 -4 -38 -8 -83 -10 -100 -2 -16 -6 -57 -10 -90 -3 -33 -8 -78 -10 -100 -8
-72 -18 -199 -19 -232 0 -18 -3 -33 -7 -33 -4 0 -5 -10 -2 -22 5 -23 5 -23
-10 -3 -8 11 -33 61 -57 110 -48 101 -118 248 -210 440 -35 72 -82 171 -105
220 -23 50 -63 133 -88 185 -70 146 -76 165 -73 219 3 41 52 158 76 181 9 9
92 197 95 215 1 6 5 17 8 25 13 31 46 177 53 235 12 88 7 360 -6 360 -1 0 -3
9 -5 20 -6 42 -15 82 -34 143 -11 34 -17 62 -15 62 3 0 -2 10 -10 22 -9 12
-16 29 -16 37 0 8 -10 35 -21 60 -63 135 -76 161 -107 215 -45 76 -59 93 -104
122 -32 20 -41 22 -58 12 -24 -16 -48 -72 -49 -118 0 -19 -2 -44 -5 -56 -2
-11 -7 -60 -11 -110 -4 -49 -9 -105 -11 -124 -15 -151 -21 -450 -10 -570 6
-57 28 -249 41 -350 14 -113 15 -142 6 -139 -8 3 -159 194 -332 421 -13 17
-31 39 -39 48 -36 43 -47 57 -70 90 -13 19 -30 41 -37 48 -7 8 -26 30 -41 50
-15 21 -29 39 -32 42 -3 3 -27 34 -55 70 -27 36 -57 74 -67 85 -17 20 -112
140 -294 371 -56 71 -112 140 -123 154 -12 14 -41 47 -64 74 -48 57 -129 136
-139 136 -4 0 -13 6 -21 14 -25 25 -134 75 -207 95 -50 13 -109 19 -195 20
l-124 2 9 -28z"/>
<path d="M5108 8235 c-2 -2 -25 -5 -53 -9 -27 -3 -95 -15 -150 -25 -55 -11
-113 -22 -130 -25 -87 -16 -484 -98 -636 -132 -21 -4 -47 -10 -94 -20 -84 -18
-118 -60 -151 -186 -1 -5 -2 -9 -4 -10 -9 -12 -12 -285 -15 -1860 l-3 -1796
26 12 c117 54 138 64 145 64 4 1 20 8 35 16 34 18 65 30 75 28 4 -1 7 3 7 8 0
6 4 10 10 10 5 0 62 25 125 55 64 30 123 55 131 55 8 0 14 4 14 10 0 5 3 9 8
8 4 -1 21 3 37 8 17 6 35 12 40 14 6 1 24 7 40 14 17 7 48 17 70 21 22 5 45 9
50 11 6 1 21 5 35 8 14 3 36 8 50 11 99 23 369 23 475 1 92 -20 234 -49 250
-51 11 -2 22 -4 25 -5 6 -3 14 -4 75 -14 28 -4 57 -10 65 -13 8 -3 24 -7 35
-8 11 -1 32 -5 46 -8 14 -4 43 -9 64 -13 32 -5 37 -3 32 10 -4 9 -3 16 1 16 8
0 7 88 -1 97 -4 3 -2 14 3 24 6 10 7 20 2 23 -4 2 -6 24 -5 48 8 99 8 138 0
138 -4 0 -3 8 2 19 6 10 8 21 5 24 -8 7 -11 117 -4 117 6 0 3 76 -3 88 -3 4
-1 16 3 27 4 11 4 32 -1 47 -4 16 -3 30 2 34 5 3 6 10 2 17 -10 16 -10 58 -1
63 5 3 5 10 1 17 -10 16 -10 57 0 57 4 0 5 5 1 12 -10 16 -11 68 -1 68 5 0 5
5 1 11 -9 15 -9 222 0 237 3 6 3 13 -1 15 -7 4 -9 185 -3 212 1 6 2 12 1 15
-1 3 -4 415 -5 915 -4 941 -4 956 -44 1090 -61 205 -224 339 -452 371 -38 6
-228 13 -232 9z"/>
<path d="M6465 8224 c-108 -21 -154 -45 -232 -119 -88 -85 -155 -256 -168
-430 -7 -88 -8 -162 -3 -171 3 -5 2 -18 -2 -29 -4 -11 -4 -30 1 -42 5 -13 5
-23 1 -23 -4 0 -8 -22 -7 -50 0 -27 4 -50 8 -50 5 0 5 -6 0 -12 -7 -13 -13
-2938 -5 -2970 2 -10 9 -18 14 -18 9 0 47 27 89 63 23 20 125 81 194 115 165
82 367 110 565 78 82 -13 112 -21 203 -52 56 -19 109 -36 119 -39 9 -2 30 -11
47 -19 16 -9 35 -16 41 -16 6 0 36 -11 66 -25 30 -14 60 -25 67 -25 7 0 21 -7
31 -15 10 -8 22 -12 27 -10 4 3 10 1 14 -5 3 -5 15 -10 26 -10 10 0 19 -5 19
-12 0 -6 3 -9 6 -6 5 5 77 -20 149 -52 11 -4 34 -13 50 -18 17 -6 68 -24 115
-41 47 -17 90 -31 96 -31 8 0 11 522 10 1926 -1 1841 -2 1926 -19 1935 -10 6
-28 12 -40 14 -12 2 -76 13 -142 24 -66 12 -136 23 -155 26 -19 3 -45 7 -58 9
-81 14 -214 34 -272 42 -19 2 -51 6 -70 9 -38 6 -72 10 -165 20 -33 4 -76 9
-95 11 -41 4 -160 13 -285 20 -49 3 -110 6 -135 8 -25 1 -72 -3 -105 -10z"/>
<path d="M8259 8009 c-24 -18 -31 -45 -16 -66 4 -6 4 -14 -2 -17 -5 -4 -6 -19
-3 -34 4 -15 6 -40 5 -57 -6 -66 -5 -133 1 -144 4 -6 3 -11 -3 -11 -6 0 -7
-11 -3 -27 4 -16 6 -39 5 -53 -6 -67 -7 -170 -1 -170 3 0 4 -8 2 -17 -7 -31
-9 -143 -2 -143 3 0 4 -8 2 -17 -7 -31 -9 -143 -2 -143 3 0 4 -8 2 -17 -7 -31
-9 -143 -2 -143 3 0 4 -8 2 -17 -7 -31 -9 -143 -2 -143 3 0 4 -8 2 -17 -7 -31
-9 -143 -2 -143 3 0 4 -8 2 -17 -7 -31 -9 -143 -2 -143 3 0 4 -8 2 -17 -6 -27
-10 -143 -4 -143 3 0 4 -24 2 -52 -5 -105 -4 -156 2 -167 4 -6 3 -11 -3 -11
-6 0 -7 -11 -2 -27 3 -16 5 -44 3 -63 -1 -19 -4 -46 -5 -60 -1 -14 1 -40 4
-57 4 -18 3 -33 -1 -33 -5 0 -5 -12 -2 -27 4 -16 6 -41 5 -58 -6 -66 -5 -133
1 -144 4 -6 3 -11 -3 -11 -6 0 -7 -11 -3 -27 4 -16 6 -39 5 -53 -1 -14 -4 -41
-5 -60 -2 -19 0 -50 3 -67 4 -18 3 -33 -1 -33 -5 0 -5 -12 -2 -27 4 -16 6 -41
5 -58 -6 -66 -5 -133 1 -144 4 -6 3 -11 -3 -11 -6 0 -7 -11 -3 -27 4 -16 6
-39 5 -53 -6 -67 -7 -170 -1 -170 3 0 4 -8 2 -17 -7 -31 -9 -143 -2 -143 3 0
4 -8 2 -17 -7 -31 -9 -143 -2 -143 3 0 4 -8 2 -17 -7 -31 -9 -143 -2 -143 3 0
4 -8 2 -17 -8 -35 -9 -143 -1 -143 5 0 6 -4 3 -8 -3 -5 -6 -38 -7 -75 -2 -54
-5 -66 -20 -70 -12 -3 -17 -1 -12 5 3 7 1 8 -5 4 -16 -10 -93 -13 -98 -4 -3 4
-16 3 -29 -2 -15 -6 -25 -6 -25 0 0 5 -12 5 -28 0 -16 -4 -36 -4 -45 2 -10 5
-17 5 -17 1 0 -10 -41 -10 -56 0 -5 3 -16 2 -24 -3 -9 -5 -19 -5 -27 2 -9 7
-13 7 -13 -1 0 -8 -5 -9 -19 -1 -11 5 -22 6 -25 2 -3 -5 -20 -7 -38 -5 -39 4
-117 4 -171 0 -21 -1 -41 1 -44 6 -3 4 -11 3 -18 -3 -9 -8 -15 -8 -20 0 -4 7
-12 7 -25 0 -12 -6 -21 -7 -25 0 -4 6 -15 6 -31 0 -17 -7 -23 -7 -19 0 4 6 -2
7 -17 1 -13 -4 -32 -5 -43 -1 -11 4 -23 6 -27 3 -15 -8 -90 -9 -95 0 -2 4 -11
3 -18 -3 -9 -8 -15 -8 -20 0 -4 7 -12 7 -25 0 -12 -6 -21 -7 -25 0 -4 6 -15 6
-31 0 -17 -7 -23 -7 -19 0 4 6 -2 7 -17 1 -13 -4 -32 -5 -43 -1 -11 4 -23 6
-27 3 -15 -8 -90 -9 -95 0 -2 4 -11 3 -18 -3 -9 -8 -15 -8 -20 0 -4 7 -12 7
-25 0 -12 -6 -21 -7 -25 0 -4 6 -15 6 -31 0 -17 -7 -23 -7 -19 0 4 6 -2 7 -17
1 -13 -4 -32 -5 -43 -1 -11 4 -23 6 -27 3 -15 -8 -90 -9 -95 0 -2 4 -11 3 -18
-3 -9 -8 -15 -8 -20 0 -4 7 -12 7 -25 0 -12 -6 -21 -7 -25 0 -4 6 -15 6 -31 0
-17 -7 -23 -7 -19 0 4 6 -2 7 -17 1 -13 -4 -32 -5 -43 -1 -11 4 -23 6 -27 3
-15 -8 -90 -9 -95 0 -2 4 -11 3 -18 -3 -9 -8 -15 -8 -20 0 -4 7 -12 7 -25 0
-12 -6 -21 -7 -25 0 -4 6 -15 6 -31 0 -17 -7 -23 -7 -19 0 4 6 -2 7 -17 1 -13
-4 -32 -5 -43 -1 -11 4 -23 6 -27 3 -15 -8 -90 -9 -95 0 -2 4 -11 3 -18 -3 -9
-8 -15 -8 -20 0 -4 7 -12 7 -25 0 -12 -6 -21 -7 -25 0 -4 6 -15 6 -31 0 -17
-7 -23 -7 -19 0 4 6 -2 7 -17 1 -13 -4 -32 -5 -43 -1 -11 4 -23 6 -27 3 -15
-8 -90 -9 -95 0 -2 4 -11 3 -18 -3 -9 -8 -15 -8 -20 0 -4 7 -12 7 -25 0 -12
-6 -21 -7 -25 0 -4 6 -15 6 -31 0 -17 -7 -23 -7 -19 0 4 6 -2 7 -17 1 -13 -4
-32 -5 -43 -1 -11 4 -23 6 -27 3 -15 -8 -90 -9 -95 0 -2 4 -11 3 -18 -3 -9 -8
-15 -8 -20 0 -4 7 -12 7 -25 0 -12 -6 -21 -7 -25 0 -4 6 -15 6 -31 0 -17 -7
-23 -7 -19 0 4 7 -3 7 -20 0 -18 -7 -33 -7 -46 0 -10 6 -19 7 -19 3 0 -10 -41
-10 -56 0 -5 3 -16 2 -24 -3 -9 -5 -19 -5 -27 2 -9 7 -13 7 -13 -1 0 -8 -5 -9
-19 -1 -11 5 -22 6 -25 2 -3 -5 -20 -7 -38 -5 -43 5 -109 3 -119 -3 -4 -2 -10
0 -14 5 -4 7 -15 7 -30 1 -14 -5 -25 -6 -25 -2 0 7 -41 7 -138 -1 -24 -1 -46
1 -49 6 -2 4 -11 3 -18 -3 -9 -8 -15 -8 -20 0 -4 7 -12 7 -25 0 -12 -6 -21 -7
-25 0 -4 6 -15 6 -31 0 -18 -7 -23 -7 -18 2 4 7 3 8 -4 4 -16 -10 -93 -13 -98
-4 -3 4 -16 3 -29 -2 -15 -6 -25 -6 -25 0 0 5 -12 5 -28 0 -16 -4 -36 -4 -45
2 -10 5 -17 5 -17 1 0 -10 -41 -10 -56 0 -5 3 -16 2 -24 -3 -9 -5 -19 -5 -27
2 -9 7 -13 7 -13 -1 0 -8 -5 -9 -19 -1 -11 5 -22 6 -25 2 -3 -5 -20 -7 -38 -5
-28 3 -94 4 -117 1 -3 0 -10 1 -16 2 -5 1 -19 3 -30 4 -20 1 -20 9 -22 1541
-2 1951 -3 1986 -20 2060 -7 33 -15 70 -17 82 -5 28 -82 172 -103 193 -13 13
-14 9 -11 -43 2 -31 1 -57 -2 -57 -3 0 -3 -54 0 -120 3 -66 3 -120 0 -120 -3
0 -4 -33 -3 -72 2 -40 3 -82 3 -93 1 -18 1 -125 0 -172 0 -82 1 -127 6 -134 3
-5 2 -9 -3 -9 -4 0 -6 -54 -3 -120 3 -66 3 -120 0 -120 -3 0 -3 -54 0 -120 3
-66 3 -120 0 -120 -3 0 -4 -33 -3 -72 2 -40 3 -82 3 -93 1 -18 1 -125 0 -172
0 -82 1 -127 6 -134 3 -5 2 -9 -3 -9 -4 0 -6 -54 -3 -120 3 -66 3 -120 0 -120
-3 0 -3 -54 0 -120 3 -66 3 -120 0 -120 -3 0 -3 -54 0 -120 3 -66 3 -120 0
-120 -3 0 -3 -72 0 -160 3 -88 3 -160 0 -160 -3 0 -3 -72 0 -160 3 -88 3 -160
0 -160 -3 0 -3 -72 0 -160 3 -88 3 -160 0 -160 -4 0 -4 -73 0 -245 1 -11 1
-50 1 -87 0 -38 0 -74 0 -80 0 -7 -1 -33 -1 -58 0 -25 1 -58 2 -73 l3 -28 690
-3 c380 -1 704 -6 720 -10 60 -14 101 -29 140 -51 113 -65 241 -100 405 -111
35 -2 80 -6 100 -9 19 -3 64 -7 100 -11 36 -3 82 -10 104 -14 47 -10 419 -13
429 -4 4 4 24 8 45 10 33 2 110 19 187 40 11 3 25 6 30 7 10 3 64 22 100 37
34 14 139 52 150 54 6 1 16 5 22 9 7 5 23 10 35 12 13 3 43 9 68 15 25 5 59
13 75 16 17 3 341 8 720 10 380 2 696 4 703 4 10 0 13 16 10 65 -1 36 -1 65 2
65 3 0 3 29 0 64 -3 35 -3 73 0 85 3 12 3 56 0 97 -3 40 -3 74 0 74 3 0 3 29
0 64 -3 35 -3 73 0 85 3 12 3 56 0 97 -3 40 -3 74 0 74 3 0 3 29 0 64 -3 35
-3 73 0 85 3 12 3 73 0 136 -3 63 -3 115 0 115 4 0 4 41 0 245 0 11 -1 65 -1
119 0 55 -2 103 -5 108 -3 4 -2 8 3 8 4 0 7 51 6 112 -2 62 -3 122 -3 133 0
11 -1 65 -1 119 0 55 -2 103 -5 108 -3 4 -2 8 3 8 4 0 6 54 3 120 -3 66 -3
120 0 120 3 0 3 29 0 64 -3 35 -3 73 0 85 3 12 3 56 0 97 -3 40 -3 74 0 74 3
0 3 29 0 64 -3 35 -3 73 0 85 3 12 3 56 0 97 -3 40 -3 74 0 74 3 0 3 29 0 64
-3 35 -3 73 0 85 3 12 3 56 0 97 -3 40 -3 74 0 74 3 0 3 29 0 64 -3 35 -3 73
0 85 3 12 3 73 0 136 -3 63 -2 115 2 115 3 0 5 8 3 18 -2 9 -6 49 -9 87 -7 95
-10 105 -54 192 -31 63 -65 81 -103 52z"/>
</g>
</svg>
