<?xml version="1.0" standalone="no"?>
<!DOCTYPE svg PUBLIC "-//W3C//DTD SVG 20010904//EN"
 "http://www.w3.org/TR/2001/REC-SVG-20010904/DTD/svg10.dtd">
<svg version="1.0" xmlns="http://www.w3.org/2000/svg"
 width="1200.000000pt" height="1200.000000pt" viewBox="0 0 1200.000000 1200.000000"
 preserveAspectRatio="xMidYMid meet">
<metadata>
Created by potrace 1.14, written by Peter Selinger 2001-2017
</metadata>
<g transform="translate(0.000000,1200.000000) scale(0.100000,-0.100000)"
fill="#000000" stroke="none">
<path d="M3366 10642 c-2 -2 -21 -5 -42 -7 -51 -5 -91 -12 -131 -24 -18 -5
-33 -8 -33 -5 0 3 -10 -1 -22 -8 -13 -6 -28 -13 -35 -14 -25 -4 -129 -56 -178
-89 -95 -63 -172 -150 -240 -270 -15 -27 -31 -52 -34 -55 -4 -3 -21 -27 -38
-55 -26 -41 -86 -125 -120 -170 -27 -35 -90 -113 -105 -130 -19 -23 -75 -89
-133 -159 -22 -27 -47 -56 -55 -66 -8 -10 -28 -34 -45 -55 -16 -20 -38 -46
-48 -58 -11 -12 -33 -39 -50 -61 -18 -21 -37 -43 -42 -50 -6 -6 -26 -31 -45
-56 -19 -24 -41 -51 -48 -60 -7 -8 -25 -31 -40 -51 -61 -82 -78 -103 -89 -115
-7 -7 -13 -17 -13 -23 0 -6 -4 -11 -10 -11 -5 0 -10 -4 -10 -10 0 -5 -8 -18
-17 -29 -10 -10 -26 -29 -35 -42 -10 -12 -20 -20 -23 -17 -11 11 -5 169 10
268 4 23 8 60 20 175 15 135 18 201 18 380 0 168 -6 330 -13 330 -2 0 -8 50
-11 93 -1 18 -6 35 -11 38 -4 3 -6 10 -2 15 13 22 -80 173 -95 152 -3 -5 -19
-17 -36 -28 -50 -32 -61 -48 -156 -238 -58 -116 -99 -219 -119 -297 -13 -49
-14 -54 -25 -120 -4 -25 -9 -54 -11 -65 -7 -33 -6 -216 1 -275 9 -79 14 -107
32 -175 8 -33 17 -71 20 -85 2 -13 8 -27 12 -30 4 -3 11 -18 15 -35 7 -28 95
-214 106 -225 3 -3 19 -27 34 -54 41 -71 38 -119 -15 -231 -23 -49 -42 -93
-41 -97 1 -5 -3 -8 -10 -8 -6 0 -9 -3 -5 -6 3 -4 -7 -33 -24 -65 -16 -33 -26
-59 -22 -59 5 0 3 -4 -2 -8 -6 -4 -26 -41 -44 -82 -37 -82 -61 -135 -161 -355
-18 -38 -39 -86 -48 -105 -51 -117 -145 -301 -150 -296 -6 6 -9 33 -17 161 -4
69 -16 226 -20 270 -1 17 -6 62 -9 100 -3 39 -9 86 -11 105 -3 19 -7 51 -9 70
-3 19 -13 56 -23 81 -19 48 -94 179 -103 179 -5 0 -92 -76 -161 -140 -24 -22
-51 -63 -55 -82 -1 -5 -3 -10 -4 -13 -1 -3 -3 -8 -4 -12 -2 -5 -9 -28 -16 -53
-16 -53 -16 -53 -32 -155 -38 -241 21 -500 165 -725 23 -36 44 -67 47 -70 3
-3 28 -32 54 -65 47 -57 74 -106 84 -150 7 -27 6 -175 -2 -315 -16 -310 -19
-374 -18 -485 1 -110 5 -180 17 -290 3 -22 6 -54 7 -72 2 -17 6 -34 10 -38 4
-4 4 -13 1 -20 -2 -8 0 -38 6 -67 6 -29 13 -73 16 -98 3 -25 9 -72 14 -105 5
-33 7 -61 6 -63 -5 -5 -125 146 -125 157 0 6 -4 11 -8 11 -4 0 -26 24 -47 52
-83 110 -183 206 -316 300 -60 44 -133 96 -188 136 -68 49 -113 66 -130 49 -7
-7 -11 -7 -11 -1 0 16 -60 11 -65 -6 -10 -34 5 -139 29 -203 33 -89 106 -234
147 -294 101 -148 246 -293 364 -363 22 -13 42 -27 45 -30 17 -20 305 -150
332 -150 20 0 128 -107 128 -127 0 -7 4 -13 10 -13 5 0 9 -3 8 -7 -1 -5 12
-37 29 -73 17 -36 50 -105 73 -155 54 -116 99 -210 171 -364 33 -67 59 -125
59 -127 0 -2 25 -54 56 -116 30 -62 55 -114 55 -115 0 -2 22 -51 49 -110 28
-58 48 -108 46 -110 -4 -5 -25 6 -96 49 -42 25 -95 55 -222 123 -27 14 -51 25
-54 24 -4 0 -10 5 -15 13 -5 7 -12 13 -16 14 -4 0 -24 7 -43 16 -19 8 -53 20
-75 27 -22 7 -49 16 -60 21 -83 37 -270 56 -317 33 -29 -14 -32 -20 -28 -63 2
-26 48 -151 59 -160 3 -3 17 -26 31 -52 13 -27 28 -48 32 -48 5 0 8 -4 8 -10
0 -10 51 -69 110 -128 98 -97 293 -210 410 -237 8 -2 42 -10 75 -19 108 -27
209 -33 405 -23 69 4 102 -17 187 -118 39 -47 51 -61 106 -125 12 -14 56 -66
97 -115 41 -50 81 -97 90 -106 8 -9 31 -36 52 -60 20 -24 46 -55 58 -69 12
-14 40 -47 63 -75 23 -27 53 -62 67 -77 14 -15 39 -44 55 -65 26 -32 131 -155
188 -220 l20 -22 -75 4 c-41 3 -96 7 -124 9 -27 3 -85 8 -129 12 -44 3 -100 7
-125 10 -25 2 -73 6 -106 9 -34 2 -86 7 -115 10 -92 11 -159 7 -210 -11 -27
-10 -49 -22 -49 -27 0 -24 78 -111 138 -155 59 -42 207 -132 218 -132 2 0 23
-9 47 -20 61 -28 218 -78 269 -85 111 -15 149 -18 233 -18 50 0 113 3 140 7
28 4 64 9 80 11 36 4 66 10 123 23 58 14 145 6 197 -17 23 -10 77 -42 118 -70
42 -28 81 -51 87 -51 5 0 10 -4 10 -9 0 -5 8 -11 18 -14 9 -4 37 -18 62 -33
74 -44 285 -149 320 -159 3 -1 21 -8 40 -16 19 -9 58 -24 85 -34 28 -10 54
-22 60 -27 5 -4 18 -8 30 -8 12 0 26 -5 33 -12 7 -7 12 -9 12 -5 0 4 17 0 38
-8 69 -26 196 -60 258 -69 11 -2 25 -5 30 -9 5 -3 30 -8 54 -12 25 -3 52 -8
60 -10 39 -10 120 -15 120 -8 0 5 -73 36 -162 70 -90 35 -176 68 -193 74 -16
7 -32 13 -35 13 -3 1 -52 19 -109 40 -139 51 -180 90 -195 187 -10 63 -57 201
-98 287 -35 73 -123 217 -153 248 -5 6 -26 31 -45 55 -43 53 -224 236 -265
267 -16 12 -35 22 -41 22 -6 0 -17 7 -24 15 -7 8 -19 15 -26 15 -14 0 -14 -47
0 -166 12 -99 81 -302 137 -400 12 -21 32 -57 43 -79 12 -22 26 -45 32 -52 6
-6 26 -34 44 -62 l32 -52 -23 -20 c-21 -18 -25 -18 -35 -5 -6 9 -14 16 -17 16
-3 0 -101 72 -217 160 -116 88 -213 160 -216 160 -3 0 -30 21 -58 45 -6 6 -71
55 -144 109 -177 132 -208 175 -217 299 -12 167 -16 214 -19 237 -3 14 -8 43
-12 65 -4 22 -7 50 -8 63 -1 12 -3 22 -6 22 -3 0 -7 11 -8 24 -1 14 -18 71
-37 128 -19 57 -37 108 -39 113 -13 40 -96 216 -106 225 -3 3 -24 30 -46 60
-55 73 -170 190 -187 190 -8 0 -22 -9 -32 -20 -15 -16 -18 -41 -20 -142 -2
-72 3 -156 11 -203 12 -67 20 -104 48 -210 2 -5 6 -17 9 -25 16 -42 40 -125
36 -126 -2 0 1 -7 7 -15 6 -8 14 -26 18 -41 5 -22 3 -26 -9 -22 -16 7 -105
127 -105 142 0 6 -3 12 -7 14 -5 1 -69 93 -143 203 -74 110 -193 287 -265 393
-71 106 -137 203 -145 216 -33 50 -75 111 -81 116 -3 3 -14 21 -25 40 -10 19
-24 40 -31 47 -29 31 -54 85 -57 120 -1 29 10 64 49 143 119 242 157 397 158
650 0 100 -10 258 -19 304 -2 11 -7 37 -10 56 -4 19 -7 40 -9 45 -1 6 -5 28
-9 50 -4 22 -11 56 -17 75 -5 19 -11 44 -13 55 -14 90 -60 132 -111 105 -44
-24 -185 -332 -201 -440 -3 -19 -7 -41 -10 -49 -2 -7 -7 -66 -9 -130 -3 -64
-8 -168 -11 -231 -3 -63 -6 -130 -6 -147 -1 -18 -3 -33 -5 -33 -3 0 -33 63
-38 80 -1 3 -7 18 -13 33 -7 16 -12 32 -12 36 0 4 -7 21 -14 37 -13 24 -81
208 -90 239 -1 6 -15 50 -30 99 -16 49 -30 97 -31 105 -2 9 -4 16 -5 16 -1 0
-3 7 -5 15 -2 8 -7 26 -10 40 -3 14 -8 36 -11 50 -3 14 -7 33 -10 42 -3 9 -7
27 -9 40 -3 13 -9 43 -14 68 -5 25 -13 63 -17 85 -4 22 -9 47 -10 55 -5 27
-16 114 -17 143 -1 15 -4 27 -7 27 -3 0 -3 25 -2 55 2 30 8 55 13 55 5 0 9 6
9 14 0 8 35 41 78 72 92 68 234 209 282 279 18 28 37 52 40 55 3 3 21 32 40
65 19 33 38 63 43 66 5 3 8 8 7 10 -1 3 28 70 81 184 18 40 61 182 78 260 12
54 17 109 14 169 -2 50 -5 91 -6 93 -5 5 -76 -34 -115 -63 -46 -34 -101 -94
-149 -161 -20 -29 -40 -53 -45 -53 -4 0 -8 -4 -8 -10 0 -11 -90 -133 -102
-138 -5 -2 -8 -8 -8 -13 0 -8 -20 -35 -48 -64 -6 -8 -12 -18 -12 -23 0 -6 -3
-12 -7 -14 -5 -1 -51 -60 -103 -130 -52 -69 -98 -124 -102 -121 -5 2 -6 8 -4
12 3 4 8 41 11 82 12 155 20 235 30 289 2 14 7 41 9 60 3 19 8 46 11 60 3 14
8 39 11 55 3 17 7 35 8 40 2 10 29 125 31 135 0 3 4 14 8 25 3 11 8 31 11 45
9 53 106 344 142 430 9 19 19 44 24 55 56 135 89 172 163 177 20 1 37 5 37 8
0 3 12 5 28 6 42 1 84 11 179 44 49 17 92 31 97 33 48 11 281 148 331 194 11
10 41 35 66 55 72 58 227 215 291 297 105 131 122 189 60 202 -46 9 -94 -4
-206 -56 -53 -25 -98 -45 -100 -45 -2 0 -42 -17 -88 -39 -45 -21 -105 -48
-133 -60 -27 -12 -57 -26 -65 -31 -8 -6 -22 -13 -30 -16 -23 -9 -120 -59 -170
-88 -25 -14 -52 -29 -60 -33 -8 -3 -17 -9 -20 -13 -3 -3 -18 -14 -34 -24 -29
-19 -30 -19 -48 4 -14 18 -16 26 -6 43 13 26 181 246 221 290 15 18 27 37 27
44 0 7 4 13 9 13 4 0 27 27 50 60 23 33 47 65 54 72 7 7 46 58 87 113 41 55
78 102 81 105 3 3 25 32 49 65 24 33 48 65 52 70 5 6 38 48 73 95 36 47 71 93
78 102 50 65 188 188 211 188 3 0 30 16 60 35 30 19 58 35 61 35 4 0 19 8 33
18 15 11 59 36 97 57 39 20 85 46 103 57 17 11 32 17 32 14 0 -2 36 15 80 40
44 24 85 44 90 44 6 0 10 4 10 8 0 4 13 15 29 25 58 34 173 152 225 231 57 85
176 320 176 347 0 8 4 19 9 25 5 5 14 26 19 47 l11 38 -75 -3 c-41 -1 -77 -4
-78 -6z"/>
<path d="M8497 10636 c-4 -9 -2 -18 2 -21 5 -2 12 -16 15 -29 3 -14 11 -38 18
-53 6 -15 12 -32 13 -38 4 -15 68 -149 75 -155 3 -3 12 -18 20 -35 48 -97 199
-269 310 -351 61 -46 132 -92 140 -90 3 0 19 -8 35 -19 32 -22 62 -36 239
-110 59 -25 127 -58 150 -74 60 -42 156 -140 156 -160 0 -5 7 -11 15 -15 8 -3
15 -12 15 -20 0 -8 4 -16 8 -18 5 -1 78 -95 162 -208 85 -113 158 -209 162
-215 4 -5 29 -39 56 -75 184 -246 245 -325 253 -328 5 -2 9 -8 9 -13 0 -5 22
-38 48 -72 26 -34 62 -91 80 -125 l33 -63 -42 21 c-23 12 -107 60 -186 107
-146 85 -323 176 -323 166 0 -3 -6 -1 -13 5 -7 6 -35 18 -62 27 -28 9 -57 19
-65 22 -8 4 -18 7 -22 8 -5 2 -9 3 -10 5 -3 2 -6 2 -93 24 -90 22 -185 37
-185 30 0 -8 156 -230 177 -252 7 -7 13 -17 13 -21 0 -4 16 -22 35 -41 19 -19
35 -38 35 -42 0 -15 174 -178 190 -178 5 0 10 -4 10 -8 0 -9 147 -108 176
-118 10 -4 26 -12 34 -19 31 -24 151 -66 310 -109 91 -25 180 -52 197 -61 39
-20 103 -92 103 -116 0 -10 4 -20 9 -23 5 -3 11 -16 14 -28 3 -13 26 -81 51
-153 54 -151 103 -310 122 -395 7 -28 8 -35 17 -70 4 -14 9 -36 11 -50 2 -14
7 -36 10 -50 3 -14 8 -36 10 -50 3 -14 7 -36 10 -50 3 -14 8 -47 11 -75 3 -27
8 -57 11 -67 3 -9 7 -42 9 -75 2 -32 5 -58 5 -58 3 0 9 -68 13 -147 3 -43 2
-78 -2 -78 -11 0 -46 42 -58 70 -9 23 -98 148 -114 160 -3 3 -10 12 -15 21 -5
9 -21 32 -36 50 -15 19 -48 63 -75 99 -26 36 -50 67 -53 70 -3 3 -17 21 -30
40 -13 19 -29 40 -35 46 -5 6 -46 61 -90 121 -83 115 -119 148 -171 159 -28 5
-32 3 -44 -27 -15 -35 -18 -68 -8 -84 3 -6 9 -26 12 -45 14 -79 62 -248 104
-360 3 -8 6 -17 7 -20 19 -56 79 -180 87 -180 4 0 8 -7 8 -16 0 -33 126 -201
229 -305 56 -56 197 -169 210 -169 5 0 19 -21 33 -47 26 -49 34 -131 14 -161
-4 -7 -5 -16 -2 -19 3 -3 2 -11 -3 -17 -5 -6 -11 -24 -14 -41 -3 -16 -21 -84
-41 -150 -19 -66 -37 -134 -40 -152 -4 -18 -11 -45 -17 -60 -6 -15 -13 -37
-15 -48 -2 -11 -15 -58 -28 -103 -14 -46 -25 -87 -24 -90 1 -4 -2 -14 -5 -22
-5 -13 -24 -80 -33 -115 -1 -5 -10 -37 -19 -70 -18 -64 -44 -162 -48 -182 -2
-7 -6 -16 -10 -19 -4 -4 -7 -16 -7 -26 0 -10 -5 -18 -11 -18 -5 0 -8 -4 -5 -9
3 -5 -1 -14 -8 -20 -12 -10 -15 -8 -18 11 -2 13 0 43 3 68 8 50 4 390 -4 430
-40 193 -124 399 -193 473 -50 54 -103 58 -123 9 -13 -31 -38 -127 -46 -174
-3 -18 -8 -40 -11 -49 -2 -9 -7 -38 -10 -64 -2 -26 -6 -51 -9 -55 -17 -27 -26
-420 -12 -520 11 -80 14 -95 37 -175 24 -88 51 -155 117 -289 25 -51 43 -102
43 -122 0 -41 -26 -88 -147 -267 -51 -77 -93 -141 -93 -144 0 -3 -13 -22 -30
-43 -16 -20 -27 -40 -23 -44 3 -3 1 -6 -5 -6 -7 0 -12 -4 -12 -10 0 -5 -8 -18
-17 -29 -10 -10 -31 -41 -48 -70 -16 -28 -34 -51 -38 -51 -5 0 -6 -4 -3 -9 4
-5 3 -11 -2 -13 -4 -1 -48 -64 -97 -138 -49 -74 -94 -138 -99 -142 -7 -5 -7
-8 -1 -8 6 0 6 -3 0 -8 -6 -4 -50 -67 -98 -139 -48 -73 -92 -133 -97 -133 -5
0 -11 -9 -15 -19 -3 -11 -12 -22 -20 -24 -11 -5 -11 3 2 46 8 29 17 59 18 67
2 8 4 15 5 15 2 0 3 4 25 90 8 33 18 76 21 95 3 19 8 38 9 41 4 5 14 101 19
174 2 17 -1 38 -6 47 -5 11 -5 18 0 18 5 0 8 10 7 23 -12 95 -17 125 -27 149
l-10 28 -32 -22 c-56 -40 -135 -120 -173 -177 -21 -31 -42 -59 -46 -62 -5 -3
-9 -9 -8 -12 0 -4 -18 -45 -39 -91 -22 -47 -42 -96 -46 -110 -3 -15 -11 -26
-17 -26 -6 0 -8 -3 -4 -6 3 -3 -3 -30 -14 -61 -23 -68 -57 -206 -65 -268 -2
-16 -6 -41 -9 -54 -5 -29 -15 -161 -19 -252 -3 -92 -10 -102 -161 -234 -31
-27 -69 -61 -85 -75 -64 -57 -245 -193 -325 -246 -33 -21 -62 -41 -65 -44 -3
-3 -16 -12 -30 -20 -14 -8 -64 -38 -112 -67 -86 -52 -120 -66 -101 -40 5 6 15
30 22 52 7 22 18 54 25 70 7 17 27 66 44 110 16 44 58 152 93 240 65 164 81
246 56 286 -10 16 -13 16 -60 -2 -36 -14 -76 -47 -153 -124 -57 -58 -104 -106
-104 -108 0 -2 -18 -23 -40 -47 -46 -50 -140 -183 -140 -199 0 -6 -4 -11 -8
-11 -17 0 -91 -189 -117 -295 -23 -97 -34 -124 -69 -170 -56 -73 -85 -87 -316
-160 -30 -10 -59 -18 -65 -20 -5 -1 -17 -5 -25 -8 -15 -6 -121 -40 -130 -42
-3 -1 -33 -10 -67 -21 -53 -16 -63 -23 -63 -41 0 -24 9 -24 94 -7 39 8 91 17
116 19 14 2 25 4 25 5 0 2 16 6 60 14 59 11 184 46 286 80 147 49 173 60 181
71 4 6 8 7 8 3 0 -13 348 149 370 172 3 3 25 16 50 29 25 14 89 53 143 89 105
69 187 101 246 96 33 -2 50 -5 106 -17 28 -6 105 -20 135 -24 46 -6 285 -10
295 -4 6 3 24 6 40 8 125 8 343 84 477 164 45 27 85 49 90 49 4 0 8 3 8 8 1 4
22 22 48 41 46 32 120 126 109 137 -3 3 -34 16 -69 29 -69 25 -146 27 -293 7
-44 -6 -107 -14 -140 -18 -33 -3 -71 -7 -85 -9 -14 -2 -54 -6 -90 -10 -114
-12 -125 -13 -125 -15 0 -1 -23 -3 -51 -5 -29 -1 -57 -6 -63 -9 -19 -12 -12 8
15 39 14 17 33 39 42 50 10 11 67 79 126 150 103 122 128 152 166 194 8 9 31
37 50 61 19 25 40 50 46 55 7 6 59 66 116 135 289 350 315 374 403 373 22 -1
87 -2 145 -2 58 -1 130 3 160 9 30 6 64 13 75 15 11 2 35 8 53 13 18 6 34 11
37 12 56 11 239 95 276 126 8 8 20 14 26 14 6 0 13 7 17 15 3 8 11 15 17 15
21 0 166 154 213 227 98 153 129 254 90 294 -21 21 -83 27 -140 15 -16 -4 -42
-8 -59 -11 -16 -2 -45 -8 -63 -14 -18 -5 -34 -10 -37 -11 -25 -4 -198 -71
-210 -80 -5 -5 -38 -23 -73 -41 -66 -36 -69 -37 -199 -111 -91 -51 -123 -64
-123 -50 0 17 43 112 184 406 42 87 76 162 76 166 0 5 5 10 10 12 6 2 12 13
13 26 0 12 5 22 9 22 4 0 8 4 8 9 0 8 98 222 119 261 4 8 13 24 19 35 18 32
62 135 62 144 0 5 3 11 8 13 4 2 18 28 32 58 34 74 106 144 160 154 17 3 189
82 237 108 72 39 188 117 228 153 115 103 216 222 281 331 22 35 90 172 92
184 1 3 15 39 32 80 26 62 30 83 25 123 -9 76 -10 76 -74 72 -123 -8 -301
-108 -415 -234 -17 -18 -39 -42 -48 -52 -10 -10 -18 -22 -18 -25 0 -3 -9 -13
-19 -22 -11 -10 -83 -98 -161 -196 l-141 -179 7 49 c3 27 8 51 9 54 3 5 13 63
21 120 1 14 5 41 8 60 14 94 24 197 31 330 2 30 4 55 5 55 2 0 2 298 0 305 -1
3 -3 46 -5 95 -2 50 -7 119 -11 155 -3 36 -8 81 -10 100 -2 19 -6 53 -10 75
-3 22 -6 77 -7 123 l-2 83 58 55 c96 91 154 179 227 349 9 22 28 80 35 111 2
10 9 37 14 59 27 110 42 253 29 261 -5 3 -5 11 0 17 16 22 0 203 -24 271 -52
146 -174 286 -250 286 -57 0 -108 -84 -119 -195 -4 -39 -8 -81 -10 -95 -1 -14
-6 -59 -9 -100 -4 -41 -9 -86 -11 -100 -2 -14 -7 -59 -10 -100 -4 -41 -8 -91
-10 -110 -5 -50 -18 -193 -18 -207 -1 -26 -20 3 -69 105 -29 59 -52 109 -53
112 0 3 -29 63 -63 133 -34 71 -62 133 -62 138 0 5 -5 9 -12 9 -6 0 -9 3 -6 6
4 3 -11 40 -32 82 -21 42 -58 120 -83 172 -24 52 -71 149 -103 215 -53 109
-59 126 -59 185 0 47 6 76 21 105 12 22 35 65 51 95 36 68 94 203 92 213 -1 1
6 20 15 42 8 22 17 51 20 65 2 14 9 45 15 70 36 161 31 370 -15 547 -14 54
-26 103 -28 108 -1 6 -4 15 -7 20 -4 6 -12 28 -19 50 -21 66 -106 241 -150
308 -29 43 -56 71 -85 87 -43 23 -45 23 -64 6 -26 -24 -39 -65 -46 -146 -3
-36 -7 -90 -10 -120 -33 -393 -36 -632 -10 -827 3 -24 7 -62 10 -85 6 -51 15
-113 20 -148 9 -59 15 -140 11 -140 -8 0 -206 250 -206 260 0 4 -4 10 -8 12
-5 2 -51 57 -102 123 -52 66 -96 122 -100 125 -3 3 -17 21 -30 40 -13 19 -30
41 -37 48 -7 8 -26 30 -41 50 -15 21 -29 39 -32 42 -3 3 -27 34 -55 70 -27 36
-52 67 -55 70 -3 3 -32 39 -63 80 -31 41 -63 82 -70 90 -7 8 -82 103 -167 210
-251 316 -294 359 -425 425 -102 51 -196 72 -329 74 -93 2 -115 -1 -119 -13z"/>
<path d="M5170 8240 c0 -3 -21 -5 -48 -6 -47 -1 -99 -7 -157 -19 -16 -3 -88
-17 -160 -30 -71 -14 -141 -27 -155 -30 -14 -3 -36 -7 -50 -10 -51 -10 -76
-15 -97 -20 -62 -14 -160 -34 -199 -41 -16 -3 -45 -9 -64 -14 -33 -9 -79 -18
-125 -26 -11 -1 -35 -7 -52 -13 -18 -5 -33 -8 -33 -5 0 7 -52 -28 -74 -50 -16
-16 -51 -99 -63 -151 -2 -11 -6 -60 -8 -110 -3 -49 -7 -100 -9 -112 -3 -13 0
-25 5 -28 5 -4 6 -12 2 -18 -9 -15 -10 -3368 -1 -3373 7 -4 48 12 208 84 19 9
37 16 40 17 3 1 35 16 73 33 132 63 236 110 257 117 3 1 13 5 23 8 39 16 53
20 62 23 6 1 44 11 85 23 165 45 398 66 525 47 22 -3 60 -8 84 -11 23 -3 46
-7 50 -9 3 -2 22 -7 41 -10 34 -5 105 -20 146 -29 12 -3 39 -8 60 -12 22 -4
49 -9 61 -11 13 -3 33 -6 45 -9 13 -2 58 -11 102 -19 43 -9 84 -12 90 -8 13 8
16 132 3 132 -5 0 -5 6 0 13 10 16 10 36 1 63 -4 12 -4 25 -1 28 10 9 9 216 0
216 -5 0 -5 5 -1 12 10 16 11 498 1 498 -5 0 -5 5 -1 12 11 17 10 278 -1 278
-5 0 -4 5 2 11 8 8 8 20 3 34 -5 13 -6 26 -3 29 9 9 9 246 0 246 -5 0 -5 5 -1
12 10 16 11 148 1 148 -5 0 -5 5 -1 12 10 16 11 148 1 148 -5 0 -5 6 0 13 10
16 10 36 1 63 -4 12 -4 25 -1 28 10 9 9 216 0 216 -5 0 -5 5 -1 12 10 16 11
148 1 148 -5 0 -5 5 -1 12 10 16 11 148 1 148 -5 0 -5 6 0 13 10 16 10 36 1
63 -4 12 -4 25 -1 28 10 9 9 216 0 216 -5 0 -5 5 -1 12 10 16 11 148 1 148 -5
0 -5 5 -1 12 6 9 10 123 4 123 0 0 -3 25 -5 56 -6 79 -14 138 -24 179 -6 19
-13 46 -16 60 -20 75 -119 231 -158 248 -4 2 -13 9 -20 16 -16 16 -133 76
-155 81 -9 1 -36 8 -59 14 -23 6 -45 11 -50 10 -4 -1 -10 0 -13 1 -3 1 -27 3
-55 5 -27 2 -50 4 -50 5 0 1 -15 2 -33 3 -17 1 -32 0 -32 -3z"/>
<path d="M6413 8210 c-124 -43 -207 -118 -264 -236 -21 -44 -39 -90 -39 -101
0 -11 -3 -23 -7 -27 -4 -3 -8 -12 -9 -19 -1 -7 -5 -28 -9 -47 -18 -94 -21
-169 -20 -607 0 -260 -4 -473 -8 -473 -5 0 -5 -5 -1 -11 6 -10 9 -209 4 -234
-1 -5 -2 -14 -1 -20 1 -5 2 -89 1 -185 0 -96 0 -179 -1 -185 0 -5 1 -57 1
-115 0 -137 0 -128 -1 -250 0 -58 0 -109 0 -115 2 -48 2 -302 0 -310 -1 -5 0
-14 1 -20 1 -5 2 -59 2 -120 0 -60 -1 -114 -2 -120 -1 -5 -2 -12 -1 -15 1 -3
2 -159 2 -348 1 -188 5 -344 9 -347 4 -3 25 9 46 26 151 121 357 218 499 236
187 24 392 -3 575 -74 8 -4 18 -7 23 -8 4 -2 9 -4 12 -5 3 -1 9 -3 13 -4 4 0
26 -8 47 -17 22 -9 83 -33 135 -54 52 -20 106 -41 120 -47 14 -6 34 -14 45
-19 11 -5 43 -17 70 -27 28 -10 59 -22 70 -27 11 -4 25 -9 30 -11 13 -4 192
-69 228 -83 27 -10 27 -10 27 32 3 442 0 3820 -3 3823 -5 5 -192 41 -247 48
-19 3 -35 5 -35 6 0 1 -9 3 -20 5 -20 3 -55 8 -130 20 -22 3 -65 10 -95 15
-30 5 -73 12 -95 15 -23 3 -50 7 -60 9 -11 2 -47 7 -80 10 -33 4 -80 9 -105
13 -69 9 -133 15 -300 29 -25 2 -119 5 -210 8 -141 3 -172 1 -217 -14z"/>
<path d="M8280 8020 c0 -4 -9 -10 -20 -13 -20 -5 -23 -18 -21 -82 2 -65 2
-112 0 -166 -1 -31 2 -62 5 -68 4 -6 3 -11 -3 -11 -6 0 -7 -11 -3 -27 4 -16 6
-39 5 -53 -6 -67 -7 -170 -1 -170 3 0 4 -8 2 -17 -7 -31 -9 -143 -2 -143 3 0
4 -8 2 -17 -7 -31 -9 -143 -2 -143 3 0 4 -8 2 -17 -7 -31 -9 -143 -2 -143 3 0
4 -8 2 -17 -7 -31 -9 -143 -2 -143 3 0 4 -8 2 -17 -7 -31 -9 -143 -2 -143 3 0
4 -8 2 -17 -7 -31 -9 -143 -2 -143 3 0 4 -8 2 -17 -6 -27 -10 -143 -4 -143 3
0 4 -24 2 -52 -5 -105 -4 -156 2 -167 4 -6 3 -11 -3 -11 -6 0 -7 -11 -2 -27 3
-16 5 -44 3 -63 -1 -19 -4 -46 -5 -60 -1 -14 1 -37 5 -52 3 -15 3 -30 -2 -33
-5 -3 -5 -18 -2 -33 4 -15 6 -40 5 -57 -6 -66 -5 -133 1 -144 4 -6 3 -11 -3
-11 -6 0 -7 -11 -3 -27 4 -16 6 -39 5 -53 -1 -14 -4 -41 -5 -60 -2 -19 0 -47
3 -62 4 -15 4 -30 -1 -33 -5 -3 -5 -18 -2 -33 4 -15 6 -40 5 -57 -6 -66 -5
-133 1 -144 4 -6 3 -11 -3 -11 -6 0 -7 -11 -3 -27 4 -16 6 -39 5 -53 -6 -67
-7 -170 -1 -170 3 0 4 -8 2 -17 -7 -31 -9 -143 -2 -143 3 0 4 -8 2 -17 -7 -31
-9 -143 -2 -143 3 0 4 -8 2 -17 -7 -31 -9 -143 -2 -143 3 0 4 -8 2 -17 -8 -35
-9 -143 -1 -143 5 0 6 -4 3 -8 -3 -5 -6 -38 -7 -75 -2 -54 -5 -66 -20 -70 -12
-3 -17 -1 -12 5 3 7 1 8 -5 4 -16 -10 -93 -13 -98 -4 -3 4 -16 3 -29 -2 -15
-6 -25 -6 -25 0 0 5 -12 5 -28 0 -16 -4 -36 -4 -45 2 -10 5 -17 5 -17 1 0 -10
-41 -10 -56 0 -5 3 -16 2 -24 -3 -9 -5 -19 -5 -27 2 -9 7 -13 7 -13 -1 0 -8
-5 -9 -19 -1 -11 5 -22 6 -25 2 -3 -5 -20 -7 -38 -5 -39 4 -117 4 -171 0 -21
-1 -41 1 -43 5 -3 4 -16 3 -29 -2 -14 -5 -25 -6 -25 -2 0 4 -24 6 -52 4 -48
-2 -73 -2 -110 -1 -7 0 -32 -1 -56 -3 -24 -2 -46 0 -48 4 -3 4 -16 3 -29 -2
-14 -5 -25 -6 -25 -2 0 4 -24 6 -52 4 -48 -2 -73 -2 -110 -1 -7 0 -32 -1 -56
-3 -24 -2 -46 0 -48 4 -3 4 -16 3 -29 -2 -14 -5 -25 -6 -25 -2 0 4 -24 6 -52
4 -48 -2 -73 -2 -110 -1 -7 0 -32 -1 -56 -3 -24 -2 -46 0 -48 4 -3 4 -16 3
-29 -2 -14 -5 -25 -6 -25 -2 0 4 -24 6 -52 4 -48 -2 -73 -2 -110 -1 -7 0 -32
-1 -56 -3 -24 -2 -46 0 -48 4 -3 4 -16 3 -29 -2 -14 -5 -25 -6 -25 -2 0 4 -24
6 -52 4 -48 -2 -73 -2 -110 -1 -7 0 -32 -1 -56 -3 -24 -2 -46 0 -48 4 -3 4
-16 3 -29 -2 -14 -5 -25 -6 -25 -2 0 4 -24 6 -52 4 -48 -2 -73 -2 -110 -1 -7
0 -32 -1 -56 -3 -24 -2 -46 0 -48 4 -3 4 -16 3 -29 -2 -14 -5 -25 -6 -25 -2 0
4 -24 6 -52 4 -48 -2 -73 -2 -110 -1 -7 0 -32 -1 -56 -3 -24 -2 -46 0 -48 4
-3 4 -16 3 -29 -2 -14 -5 -25 -6 -25 -2 0 8 -93 7 -116 -2 -9 -3 -24 -1 -35 4
-10 6 -19 7 -19 3 0 -10 -41 -10 -56 0 -5 3 -16 2 -24 -3 -9 -5 -19 -5 -27 2
-9 7 -13 7 -13 -1 0 -8 -5 -9 -19 -1 -11 5 -22 6 -25 2 -3 -5 -20 -7 -38 -5
-43 5 -109 3 -119 -3 -4 -2 -10 0 -14 5 -4 7 -15 7 -30 1 -14 -5 -25 -6 -25
-2 0 7 -41 7 -138 -1 -24 -1 -46 1 -48 5 -3 4 -16 3 -29 -2 -14 -5 -25 -6 -25
-2 0 7 -41 7 -138 -1 -24 -1 -46 1 -48 5 -3 4 -16 3 -29 -2 -15 -6 -25 -6 -25
0 0 5 -12 5 -28 0 -16 -4 -36 -4 -45 2 -10 5 -17 5 -17 1 0 -10 -41 -10 -56 0
-5 3 -16 2 -24 -3 -9 -5 -19 -5 -27 2 -9 7 -13 7 -13 -1 0 -9 -5 -9 -20 -1
-11 6 -20 7 -20 3 0 -10 -47 -10 -56 0 -4 3 -15 2 -25 -3 -11 -6 -20 -6 -24
-1 -3 6 -17 6 -35 1 -16 -5 -32 -5 -35 -1 -2 5 -16 6 -30 3 -21 -4 -25 0 -26
19 0 13 -2 816 -3 1784 -2 968 -6 1774 -10 1790 -5 26 -13 59 -21 88 -2 4 -4
9 -5 12 -1 3 -3 8 -4 13 -8 41 -105 200 -107 176 0 -5 -1 -916 -2 -2025 l-2
-2016 655 0 c360 0 686 -3 723 -7 79 -8 118 -21 208 -66 59 -31 192 -81 207
-79 4 1 9 0 12 -1 13 -5 85 -13 235 -25 81 -7 155 -16 185 -22 58 -12 442 -15
507 -4 103 18 248 54 251 63 2 4 8 5 13 2 6 -3 15 -1 22 4 7 5 26 14 42 20 17
5 74 26 128 45 53 20 97 34 97 32 0 -3 10 -1 23 4 24 9 48 14 142 27 28 4 352
7 720 8 l670 1 6 48 c3 27 1 51 -3 53 -5 3 -6 10 -2 15 5 8 8 267 3 294 -1 6
0 15 1 20 2 11 1 309 -1 322 -1 4 -1 13 0 18 1 6 2 37 1 70 0 33 -1 67 -1 75
1 89 0 234 -1 239 0 3 0 11 1 16 1 6 1 64 1 130 -1 66 -1 125 -1 130 0 6 0 48
1 95 1 47 0 88 0 93 -2 11 -2 76 0 85 1 4 2 10 2 13 -1 6 -2 122 -2 149 0 8 0
35 -1 60 0 25 0 50 1 55 2 11 1 90 -2 152 -1 24 0 45 3 47 2 2 2 77 -1 165 -3
88 -3 170 0 182 3 11 3 52 0 90 -3 39 -4 72 -1 74 5 6 4 115 -2 121 -3 3 -2
16 2 30 3 13 4 56 1 95 -3 39 -4 72 -1 74 3 4 4 117 0 133 -1 4 0 12 1 17 2
13 2 117 0 130 -2 6 -2 14 -1 19 5 23 2 386 -3 394 -2 4 -1 14 4 22 4 7 7 18
5 24 -2 6 -6 48 -9 94 -4 45 -10 90 -15 100 -5 9 -21 44 -36 78 -20 45 -34 63
-56 71 -16 6 -29 8 -29 3z"/>
</g>
</svg>
